<?xml version="1.0" encoding="utf-8" standalone="no"?>
<!DOCTYPE svg PUBLIC "-//W3C//DTD SVG 1.1//EN"
  "http://www.w3.org/Graphics/SVG/1.1/DTD/svg11.dtd">
<svg xmlns:xlink="http://www.w3.org/1999/xlink" width="617.04pt" height="863.28pt" viewBox="0 0 617.04 863.28" xmlns="http://www.w3.org/2000/svg" version="1.1">
 <metadata>
  <rdf:RDF xmlns:dc="http://purl.org/dc/elements/1.1/" xmlns:cc="http://creativecommons.org/ns#" xmlns:rdf="http://www.w3.org/1999/02/22-rdf-syntax-ns#">
   <cc:Work>
    <dc:type rdf:resource="http://purl.org/dc/dcmitype/StillImage"/>
    <dc:date>2026-05-18T18:01:45.106148</dc:date>
    <dc:format>image/svg+xml</dc:format>
    <dc:creator>
     <cc:Agent>
      <dc:title>Matplotlib v3.10.9, https://matplotlib.org/</dc:title>
     </cc:Agent>
    </dc:creator>
   </cc:Work>
  </rdf:RDF>
 </metadata>
 <defs>
  <style type="text/css">*{stroke-linejoin: round; stroke-linecap: butt}</style>
 </defs>
 <g id="figure_1">
  <g id="patch_1">
   <path d="M -0 863.28 
L 617.04 863.28 
L 617.04 -0 
L -0 -0 
z
" style="fill: #ffffff"/>
  </g>
  <g id="axes_1">
   <g id="patch_2">
    <path d="M 10.8 137.052 
L 606.24 137.052 
L 606.24 10.8 
L 10.8 10.8 
z
" clip-path="url(#pbf119296d5)" style="fill: #0b3d91; stroke: #0b3d91; stroke-linejoin: miter"/>
   </g>
   <g id="patch_3">
    <path d="M 129.888 179.136 
L 165.6144 179.136 
L 165.6144 128.6352 
L 129.888 128.6352 
z
" clip-path="url(#pbf119296d5)" style="fill: #f8e0c5; stroke: #ffffff; stroke-linejoin: miter"/>
   </g>
   <g id="patch_4">
    <path d="M 165.6144 179.136 
L 201.3408 179.136 
L 201.3408 128.6352 
L 165.6144 128.6352 
z
" clip-path="url(#pbf119296d5)" style="fill: #f4ddc1; stroke: #ffffff; stroke-linejoin: miter"/>
   </g>
   <g id="patch_5">
    <path d="M 201.3408 179.136 
L 237.0672 179.136 
L 237.0672 128.6352 
L 201.3408 128.6352 
z
" clip-path="url(#pbf119296d5)" style="fill: #f1dbbe; stroke: #ffffff; stroke-linejoin: miter"/>
   </g>
   <g id="patch_6">
    <path d="M 237.0672 179.136 
L 272.7936 179.136 
L 272.7936 128.6352 
L 237.0672 128.6352 
z
" clip-path="url(#pbf119296d5)" style="fill: #eed9bb; stroke: #ffffff; stroke-linejoin: miter"/>
   </g>
   <g id="patch_7">
    <path d="M 272.7936 179.136 
L 308.52 179.136 
L 308.52 128.6352 
L 272.7936 128.6352 
z
" clip-path="url(#pbf119296d5)" style="fill: #ecd7b9; stroke: #ffffff; stroke-linejoin: miter"/>
   </g>
   <g id="patch_8">
    <path d="M 308.52 179.136 
L 344.2464 179.136 
L 344.2464 128.6352 
L 308.52 128.6352 
z
" clip-path="url(#pbf119296d5)" style="fill: #ead5b7; stroke: #ffffff; stroke-linejoin: miter"/>
   </g>
   <g id="patch_9">
    <path d="M 344.2464 179.136 
L 379.9728 179.136 
L 379.9728 128.6352 
L 344.2464 128.6352 
z
" clip-path="url(#pbf119296d5)" style="fill: #e8d4b5; stroke: #ffffff; stroke-linejoin: miter"/>
   </g>
   <g id="patch_10">
    <path d="M 379.9728 179.136 
L 415.6992 179.136 
L 415.6992 128.6352 
L 379.9728 128.6352 
z
" clip-path="url(#pbf119296d5)" style="fill: #e6d2b3; stroke: #ffffff; stroke-linejoin: miter"/>
   </g>
   <g id="patch_11">
    <path d="M 415.6992 179.136 
L 451.4256 179.136 
L 451.4256 128.6352 
L 415.6992 128.6352 
z
" clip-path="url(#pbf119296d5)" style="fill: #e4d1b1; stroke: #ffffff; stroke-linejoin: miter"/>
   </g>
   <g id="patch_12">
    <path d="M 129.888 229.6368 
L 165.6144 229.6368 
L 165.6144 179.136 
L 129.888 179.136 
z
" clip-path="url(#pbf119296d5)" style="fill: #f4ddc1; stroke: #ffffff; stroke-linejoin: miter"/>
   </g>
   <g id="patch_13">
    <path d="M 165.6144 229.6368 
L 201.3408 229.6368 
L 201.3408 179.136 
L 165.6144 179.136 
z
" clip-path="url(#pbf119296d5)" style="fill: #eed9bb; stroke: #ffffff; stroke-linejoin: miter"/>
   </g>
   <g id="patch_14">
    <path d="M 201.3408 229.6368 
L 237.0672 229.6368 
L 237.0672 179.136 
L 201.3408 179.136 
z
" clip-path="url(#pbf119296d5)" style="fill: #ead5b7; stroke: #ffffff; stroke-linejoin: miter"/>
   </g>
   <g id="patch_15">
    <path d="M 237.0672 229.6368 
L 272.7936 229.6368 
L 272.7936 179.136 
L 237.0672 179.136 
z
" clip-path="url(#pbf119296d5)" style="fill: #e6d2b3; stroke: #ffffff; stroke-linejoin: miter"/>
   </g>
   <g id="patch_16">
    <path d="M 272.7936 229.6368 
L 308.52 229.6368 
L 308.52 179.136 
L 272.7936 179.136 
z
" clip-path="url(#pbf119296d5)" style="fill: #e2d0af; stroke: #ffffff; stroke-linejoin: miter"/>
   </g>
   <g id="patch_17">
    <path d="M 308.52 229.6368 
L 344.2464 229.6368 
L 344.2464 179.136 
L 308.52 179.136 
z
" clip-path="url(#pbf119296d5)" style="fill: #dfcdac; stroke: #ffffff; stroke-linejoin: miter"/>
   </g>
   <g id="patch_18">
    <path d="M 344.2464 229.6368 
L 379.9728 229.6368 
L 379.9728 179.136 
L 344.2464 179.136 
z
" clip-path="url(#pbf119296d5)" style="fill: #dbcba8; stroke: #ffffff; stroke-linejoin: miter"/>
   </g>
   <g id="patch_19">
    <path d="M 379.9728 229.6368 
L 415.6992 229.6368 
L 415.6992 179.136 
L 379.9728 179.136 
z
" clip-path="url(#pbf119296d5)" style="fill: #d8c9a5; stroke: #ffffff; stroke-linejoin: miter"/>
   </g>
   <g id="patch_20">
    <path d="M 415.6992 229.6368 
L 451.4256 229.6368 
L 451.4256 179.136 
L 415.6992 179.136 
z
" clip-path="url(#pbf119296d5)" style="fill: #d6c6a3; stroke: #ffffff; stroke-linejoin: miter"/>
   </g>
   <g id="patch_21">
    <path d="M 129.888 280.1376 
L 165.6144 280.1376 
L 165.6144 229.6368 
L 129.888 229.6368 
z
" clip-path="url(#pbf119296d5)" style="fill: #f1dbbe; stroke: #ffffff; stroke-linejoin: miter"/>
   </g>
   <g id="patch_22">
    <path d="M 165.6144 280.1376 
L 201.3408 280.1376 
L 201.3408 229.6368 
L 165.6144 229.6368 
z
" clip-path="url(#pbf119296d5)" style="fill: #ead5b7; stroke: #ffffff; stroke-linejoin: miter"/>
   </g>
   <g id="patch_23">
    <path d="M 201.3408 280.1376 
L 237.0672 280.1376 
L 237.0672 229.6368 
L 201.3408 229.6368 
z
" clip-path="url(#pbf119296d5)" style="fill: #e4d1b1; stroke: #ffffff; stroke-linejoin: miter"/>
   </g>
   <g id="patch_24">
    <path d="M 237.0672 280.1376 
L 272.7936 280.1376 
L 272.7936 229.6368 
L 237.0672 229.6368 
z
" clip-path="url(#pbf119296d5)" style="fill: #dfcdac; stroke: #ffffff; stroke-linejoin: miter"/>
   </g>
   <g id="patch_25">
    <path d="M 272.7936 280.1376 
L 308.52 280.1376 
L 308.52 229.6368 
L 272.7936 229.6368 
z
" clip-path="url(#pbf119296d5)" style="fill: #dacaa7; stroke: #ffffff; stroke-linejoin: miter"/>
   </g>
   <g id="patch_26">
    <path d="M 308.52 280.1376 
L 344.2464 280.1376 
L 344.2464 229.6368 
L 308.52 229.6368 
z
" clip-path="url(#pbf119296d5)" style="fill: #d6c6a3; stroke: #ffffff; stroke-linejoin: miter"/>
   </g>
   <g id="patch_27">
    <path d="M 344.2464 280.1376 
L 379.9728 280.1376 
L 379.9728 229.6368 
L 344.2464 229.6368 
z
" clip-path="url(#pbf119296d5)" style="fill: #d2c39f; stroke: #ffffff; stroke-linejoin: miter"/>
   </g>
   <g id="patch_28">
    <path d="M 379.9728 280.1376 
L 415.6992 280.1376 
L 415.6992 229.6368 
L 379.9728 229.6368 
z
" clip-path="url(#pbf119296d5)" style="fill: #cec19b; stroke: #ffffff; stroke-linejoin: miter"/>
   </g>
   <g id="patch_29">
    <path d="M 415.6992 280.1376 
L 451.4256 280.1376 
L 451.4256 229.6368 
L 415.6992 229.6368 
z
" clip-path="url(#pbf119296d5)" style="fill: #cabe97; stroke: #ffffff; stroke-linejoin: miter"/>
   </g>
   <g id="patch_30">
    <path d="M 129.888 330.6384 
L 165.6144 330.6384 
L 165.6144 280.1376 
L 129.888 280.1376 
z
" clip-path="url(#pbf119296d5)" style="fill: #eed9bb; stroke: #ffffff; stroke-linejoin: miter"/>
   </g>
   <g id="patch_31">
    <path d="M 165.6144 330.6384 
L 201.3408 330.6384 
L 201.3408 280.1376 
L 165.6144 280.1376 
z
" clip-path="url(#pbf119296d5)" style="fill: #e6d2b3; stroke: #ffffff; stroke-linejoin: miter"/>
   </g>
   <g id="patch_32">
    <path d="M 201.3408 330.6384 
L 237.0672 330.6384 
L 237.0672 280.1376 
L 201.3408 280.1376 
z
" clip-path="url(#pbf119296d5)" style="fill: #dfcdac; stroke: #ffffff; stroke-linejoin: miter"/>
   </g>
   <g id="patch_33">
    <path d="M 237.0672 330.6384 
L 272.7936 330.6384 
L 272.7936 280.1376 
L 237.0672 280.1376 
z
" clip-path="url(#pbf119296d5)" style="fill: #d8c9a5; stroke: #ffffff; stroke-linejoin: miter"/>
   </g>
   <g id="patch_34">
    <path d="M 272.7936 330.6384 
L 308.52 330.6384 
L 308.52 280.1376 
L 272.7936 280.1376 
z
" clip-path="url(#pbf119296d5)" style="fill: #d3c4a0; stroke: #ffffff; stroke-linejoin: miter"/>
   </g>
   <g id="patch_35">
    <path d="M 308.52 330.6384 
L 344.2464 330.6384 
L 344.2464 280.1376 
L 308.52 280.1376 
z
" clip-path="url(#pbf119296d5)" style="fill: #cec19b; stroke: #ffffff; stroke-linejoin: miter"/>
   </g>
   <g id="patch_36">
    <path d="M 344.2464 330.6384 
L 379.9728 330.6384 
L 379.9728 280.1376 
L 344.2464 280.1376 
z
" clip-path="url(#pbf119296d5)" style="fill: #c9bd96; stroke: #ffffff; stroke-linejoin: miter"/>
   </g>
   <g id="patch_37">
    <path d="M 379.9728 330.6384 
L 415.6992 330.6384 
L 415.6992 280.1376 
L 379.9728 280.1376 
z
" clip-path="url(#pbf119296d5)" style="fill: #c5ba92; stroke: #ffffff; stroke-linejoin: miter"/>
   </g>
   <g id="patch_38">
    <path d="M 415.6992 330.6384 
L 451.4256 330.6384 
L 451.4256 280.1376 
L 415.6992 280.1376 
z
" clip-path="url(#pbf119296d5)" style="fill: #c0b68d; stroke: #ffffff; stroke-linejoin: miter"/>
   </g>
   <g id="patch_39">
    <path d="M 129.888 381.1392 
L 165.6144 381.1392 
L 165.6144 330.6384 
L 129.888 330.6384 
z
" clip-path="url(#pbf119296d5)" style="fill: #ecd7b9; stroke: #ffffff; stroke-linejoin: miter"/>
   </g>
   <g id="patch_40">
    <path d="M 165.6144 381.1392 
L 201.3408 381.1392 
L 201.3408 330.6384 
L 165.6144 330.6384 
z
" clip-path="url(#pbf119296d5)" style="fill: #e2d0af; stroke: #ffffff; stroke-linejoin: miter"/>
   </g>
   <g id="patch_41">
    <path d="M 201.3408 381.1392 
L 237.0672 381.1392 
L 237.0672 330.6384 
L 201.3408 330.6384 
z
" clip-path="url(#pbf119296d5)" style="fill: #dacaa7; stroke: #ffffff; stroke-linejoin: miter"/>
   </g>
   <g id="patch_42">
    <path d="M 237.0672 381.1392 
L 272.7936 381.1392 
L 272.7936 330.6384 
L 237.0672 330.6384 
z
" clip-path="url(#pbf119296d5)" style="fill: #d3c4a0; stroke: #ffffff; stroke-linejoin: miter"/>
   </g>
   <g id="patch_43">
    <path d="M 272.7936 381.1392 
L 308.52 381.1392 
L 308.52 330.6384 
L 272.7936 330.6384 
z
" clip-path="url(#pbf119296d5)" style="fill: #cdc09a; stroke: #ffffff; stroke-linejoin: miter"/>
   </g>
   <g id="patch_44">
    <path d="M 308.52 381.1392 
L 344.2464 381.1392 
L 344.2464 330.6384 
L 308.52 330.6384 
z
" clip-path="url(#pbf119296d5)" style="fill: #c7bb94; stroke: #ffffff; stroke-linejoin: miter"/>
   </g>
   <g id="patch_45">
    <path d="M 344.2464 381.1392 
L 379.9728 381.1392 
L 379.9728 330.6384 
L 344.2464 330.6384 
z
" clip-path="url(#pbf119296d5)" style="fill: #c1b78e; stroke: #ffffff; stroke-linejoin: miter"/>
   </g>
   <g id="patch_46">
    <path d="M 379.9728 381.1392 
L 415.6992 381.1392 
L 415.6992 330.6384 
L 379.9728 330.6384 
z
" clip-path="url(#pbf119296d5)" style="fill: #bcb389; stroke: #ffffff; stroke-linejoin: miter"/>
   </g>
   <g id="patch_47">
    <path d="M 415.6992 381.1392 
L 451.4256 381.1392 
L 451.4256 330.6384 
L 415.6992 330.6384 
z
" clip-path="url(#pbf119296d5)" style="fill: #b7b084; stroke: #ffffff; stroke-linejoin: miter"/>
   </g>
   <g id="patch_48">
    <path d="M 129.888 431.64 
L 165.6144 431.64 
L 165.6144 381.1392 
L 129.888 381.1392 
z
" clip-path="url(#pbf119296d5)" style="fill: #ead5b7; stroke: #ffffff; stroke-linejoin: miter"/>
   </g>
   <g id="patch_49">
    <path d="M 165.6144 431.64 
L 201.3408 431.64 
L 201.3408 381.1392 
L 165.6144 381.1392 
z
" clip-path="url(#pbf119296d5)" style="fill: #dfcdac; stroke: #ffffff; stroke-linejoin: miter"/>
   </g>
   <g id="patch_50">
    <path d="M 201.3408 431.64 
L 237.0672 431.64 
L 237.0672 381.1392 
L 201.3408 381.1392 
z
" clip-path="url(#pbf119296d5)" style="fill: #d6c6a3; stroke: #ffffff; stroke-linejoin: miter"/>
   </g>
   <g id="patch_51">
    <path d="M 237.0672 431.64 
L 272.7936 431.64 
L 272.7936 381.1392 
L 237.0672 381.1392 
z
" clip-path="url(#pbf119296d5)" style="fill: #cec19b; stroke: #ffffff; stroke-linejoin: miter"/>
   </g>
   <g id="patch_52">
    <path d="M 272.7936 431.64 
L 308.52 431.64 
L 308.52 381.1392 
L 272.7936 381.1392 
z
" clip-path="url(#pbf119296d5)" style="fill: #c7bb94; stroke: #ffffff; stroke-linejoin: miter"/>
   </g>
   <g id="patch_53">
    <path d="M 308.52 431.64 
L 344.2464 431.64 
L 344.2464 381.1392 
L 308.52 381.1392 
z
" clip-path="url(#pbf119296d5)" style="fill: #c0b68d; stroke: #ffffff; stroke-linejoin: miter"/>
   </g>
   <g id="patch_54">
    <path d="M 344.2464 431.64 
L 379.9728 431.64 
L 379.9728 381.1392 
L 344.2464 381.1392 
z
" clip-path="url(#pbf119296d5)" style="fill: #bab287; stroke: #ffffff; stroke-linejoin: miter"/>
   </g>
   <g id="patch_55">
    <path d="M 379.9728 431.64 
L 415.6992 431.64 
L 415.6992 381.1392 
L 379.9728 381.1392 
z
" clip-path="url(#pbf119296d5)" style="fill: #b4ae81; stroke: #ffffff; stroke-linejoin: miter"/>
   </g>
   <g id="patch_56">
    <path d="M 415.6992 431.64 
L 451.4256 431.64 
L 451.4256 381.1392 
L 415.6992 381.1392 
z
" clip-path="url(#pbf119296d5)" style="fill: #afaa7c; stroke: #ffffff; stroke-linejoin: miter"/>
   </g>
   <g id="patch_57">
    <path d="M 129.888 482.1408 
L 165.6144 482.1408 
L 165.6144 431.64 
L 129.888 431.64 
z
" clip-path="url(#pbf119296d5)" style="fill: #e8d4b5; stroke: #ffffff; stroke-linejoin: miter"/>
   </g>
   <g id="patch_58">
    <path d="M 165.6144 482.1408 
L 201.3408 482.1408 
L 201.3408 431.64 
L 165.6144 431.64 
z
" clip-path="url(#pbf119296d5)" style="fill: #dbcba8; stroke: #ffffff; stroke-linejoin: miter"/>
   </g>
   <g id="patch_59">
    <path d="M 201.3408 482.1408 
L 237.0672 482.1408 
L 237.0672 431.64 
L 201.3408 431.64 
z
" clip-path="url(#pbf119296d5)" style="fill: #d2c39f; stroke: #ffffff; stroke-linejoin: miter"/>
   </g>
   <g id="patch_60">
    <path d="M 237.0672 482.1408 
L 272.7936 482.1408 
L 272.7936 431.64 
L 237.0672 431.64 
z
" clip-path="url(#pbf119296d5)" style="fill: #c9bd96; stroke: #ffffff; stroke-linejoin: miter"/>
   </g>
   <g id="patch_61">
    <path d="M 272.7936 482.1408 
L 308.52 482.1408 
L 308.52 431.64 
L 272.7936 431.64 
z
" clip-path="url(#pbf119296d5)" style="fill: #c1b78e; stroke: #ffffff; stroke-linejoin: miter"/>
   </g>
   <g id="patch_62">
    <path d="M 308.52 482.1408 
L 344.2464 482.1408 
L 344.2464 431.64 
L 308.52 431.64 
z
" clip-path="url(#pbf119296d5)" style="fill: #bab287; stroke: #ffffff; stroke-linejoin: miter"/>
   </g>
   <g id="patch_63">
    <path d="M 344.2464 482.1408 
L 379.9728 482.1408 
L 379.9728 431.64 
L 344.2464 431.64 
z
" clip-path="url(#pbf119296d5)" style="fill: #b4ad81; stroke: #ffffff; stroke-linejoin: miter"/>
   </g>
   <g id="patch_64">
    <path d="M 379.9728 482.1408 
L 415.6992 482.1408 
L 415.6992 431.64 
L 379.9728 431.64 
z
" clip-path="url(#pbf119296d5)" style="fill: #ada87a; stroke: #ffffff; stroke-linejoin: miter"/>
   </g>
   <g id="patch_65">
    <path d="M 415.6992 482.1408 
L 451.4256 482.1408 
L 451.4256 431.64 
L 415.6992 431.64 
z
" clip-path="url(#pbf119296d5)" style="fill: #a7a474; stroke: #ffffff; stroke-linejoin: miter"/>
   </g>
   <g id="patch_66">
    <path d="M 129.888 532.6416 
L 165.6144 532.6416 
L 165.6144 482.1408 
L 129.888 482.1408 
z
" clip-path="url(#pbf119296d5)" style="fill: #e6d2b3; stroke: #ffffff; stroke-linejoin: miter"/>
   </g>
   <g id="patch_67">
    <path d="M 165.6144 532.6416 
L 201.3408 532.6416 
L 201.3408 482.1408 
L 165.6144 482.1408 
z
" clip-path="url(#pbf119296d5)" style="fill: #d8c9a5; stroke: #ffffff; stroke-linejoin: miter"/>
   </g>
   <g id="patch_68">
    <path d="M 201.3408 532.6416 
L 237.0672 532.6416 
L 237.0672 482.1408 
L 201.3408 482.1408 
z
" clip-path="url(#pbf119296d5)" style="fill: #cec19b; stroke: #ffffff; stroke-linejoin: miter"/>
   </g>
   <g id="patch_69">
    <path d="M 237.0672 532.6416 
L 272.7936 532.6416 
L 272.7936 482.1408 
L 237.0672 482.1408 
z
" clip-path="url(#pbf119296d5)" style="fill: #c5ba92; stroke: #ffffff; stroke-linejoin: miter"/>
   </g>
   <g id="patch_70">
    <path d="M 272.7936 532.6416 
L 308.52 532.6416 
L 308.52 482.1408 
L 272.7936 482.1408 
z
" clip-path="url(#pbf119296d5)" style="fill: #bcb389; stroke: #ffffff; stroke-linejoin: miter"/>
   </g>
   <g id="patch_71">
    <path d="M 308.52 532.6416 
L 344.2464 532.6416 
L 344.2464 482.1408 
L 308.52 482.1408 
z
" clip-path="url(#pbf119296d5)" style="fill: #b4ae81; stroke: #ffffff; stroke-linejoin: miter"/>
   </g>
   <g id="patch_72">
    <path d="M 344.2464 532.6416 
L 379.9728 532.6416 
L 379.9728 482.1408 
L 344.2464 482.1408 
z
" clip-path="url(#pbf119296d5)" style="fill: #ada87a; stroke: #ffffff; stroke-linejoin: miter"/>
   </g>
   <g id="patch_73">
    <path d="M 379.9728 532.6416 
L 415.6992 532.6416 
L 415.6992 482.1408 
L 379.9728 482.1408 
z
" clip-path="url(#pbf119296d5)" style="fill: #a6a373; stroke: #ffffff; stroke-linejoin: miter"/>
   </g>
   <g id="patch_74">
    <path d="M 415.6992 532.6416 
L 451.4256 532.6416 
L 451.4256 482.1408 
L 415.6992 482.1408 
z
" clip-path="url(#pbf119296d5)" style="fill: #a09e6d; stroke: #ffffff; stroke-linejoin: miter"/>
   </g>
   <g id="patch_75">
    <path d="M 129.888 583.1424 
L 165.6144 583.1424 
L 165.6144 532.6416 
L 129.888 532.6416 
z
" clip-path="url(#pbf119296d5)" style="fill: #e4d1b1; stroke: #ffffff; stroke-linejoin: miter"/>
   </g>
   <g id="patch_76">
    <path d="M 165.6144 583.1424 
L 201.3408 583.1424 
L 201.3408 532.6416 
L 165.6144 532.6416 
z
" clip-path="url(#pbf119296d5)" style="fill: #d6c6a3; stroke: #ffffff; stroke-linejoin: miter"/>
   </g>
   <g id="patch_77">
    <path d="M 201.3408 583.1424 
L 237.0672 583.1424 
L 237.0672 532.6416 
L 201.3408 532.6416 
z
" clip-path="url(#pbf119296d5)" style="fill: #cabe97; stroke: #ffffff; stroke-linejoin: miter"/>
   </g>
   <g id="patch_78">
    <path d="M 237.0672 583.1424 
L 272.7936 583.1424 
L 272.7936 532.6416 
L 237.0672 532.6416 
z
" clip-path="url(#pbf119296d5)" style="fill: #c0b68d; stroke: #ffffff; stroke-linejoin: miter"/>
   </g>
   <g id="patch_79">
    <path d="M 272.7936 583.1424 
L 308.52 583.1424 
L 308.52 532.6416 
L 272.7936 532.6416 
z
" clip-path="url(#pbf119296d5)" style="fill: #b7b084; stroke: #ffffff; stroke-linejoin: miter"/>
   </g>
   <g id="patch_80">
    <path d="M 308.52 583.1424 
L 344.2464 583.1424 
L 344.2464 532.6416 
L 308.52 532.6416 
z
" clip-path="url(#pbf119296d5)" style="fill: #afaa7c; stroke: #ffffff; stroke-linejoin: miter"/>
   </g>
   <g id="patch_81">
    <path d="M 344.2464 583.1424 
L 379.9728 583.1424 
L 379.9728 532.6416 
L 344.2464 532.6416 
z
" clip-path="url(#pbf119296d5)" style="fill: #a7a474; stroke: #ffffff; stroke-linejoin: miter"/>
   </g>
   <g id="patch_82">
    <path d="M 379.9728 583.1424 
L 415.6992 583.1424 
L 415.6992 532.6416 
L 379.9728 532.6416 
z
" clip-path="url(#pbf119296d5)" style="fill: #a09e6d; stroke: #ffffff; stroke-linejoin: miter"/>
   </g>
   <g id="patch_83">
    <path d="M 415.6992 583.1424 
L 451.4256 583.1424 
L 451.4256 532.6416 
L 415.6992 532.6416 
z
" clip-path="url(#pbf119296d5)" style="fill: #999966; stroke: #ffffff; stroke-linejoin: miter"/>
   </g>
   <g id="text_1">
    <!-- TECNICHE VISIVE -->
    <g style="fill: #ffffff" transform="translate(145.229687 79.099475) scale(0.34 -0.34)">
     <defs>
      <path id="DejaVuSans-Bold-54" d="M 31 4666 
L 4331 4666 
L 4331 3756 
L 2784 3756 
L 2784 0 
L 1581 0 
L 1581 3756 
L 31 3756 
L 31 4666 
z
" transform="scale(0.015625)"/>
      <path id="DejaVuSans-Bold-45" d="M 588 4666 
L 3834 4666 
L 3834 3756 
L 1791 3756 
L 1791 2888 
L 3713 2888 
L 3713 1978 
L 1791 1978 
L 1791 909 
L 3903 909 
L 3903 0 
L 588 0 
L 588 4666 
z
" transform="scale(0.015625)"/>
      <path id="DejaVuSans-Bold-43" d="M 4288 256 
Q 3956 84 3597 -3 
Q 3238 -91 2847 -91 
Q 1681 -91 1000 561 
Q 319 1213 319 2328 
Q 319 3447 1000 4098 
Q 1681 4750 2847 4750 
Q 3238 4750 3597 4662 
Q 3956 4575 4288 4403 
L 4288 3438 
Q 3953 3666 3628 3772 
Q 3303 3878 2944 3878 
Q 2300 3878 1931 3465 
Q 1563 3053 1563 2328 
Q 1563 1606 1931 1193 
Q 2300 781 2944 781 
Q 3303 781 3628 887 
Q 3953 994 4288 1222 
L 4288 256 
z
" transform="scale(0.015625)"/>
      <path id="DejaVuSans-Bold-4e" d="M 588 4666 
L 1931 4666 
L 3628 1466 
L 3628 4666 
L 4769 4666 
L 4769 0 
L 3425 0 
L 1728 3200 
L 1728 0 
L 588 0 
L 588 4666 
z
" transform="scale(0.015625)"/>
      <path id="DejaVuSans-Bold-49" d="M 588 4666 
L 1791 4666 
L 1791 0 
L 588 0 
L 588 4666 
z
" transform="scale(0.015625)"/>
      <path id="DejaVuSans-Bold-48" d="M 588 4666 
L 1791 4666 
L 1791 2888 
L 3566 2888 
L 3566 4666 
L 4769 4666 
L 4769 0 
L 3566 0 
L 3566 1978 
L 1791 1978 
L 1791 0 
L 588 0 
L 588 4666 
z
" transform="scale(0.015625)"/>
      <path id="DejaVuSans-Bold-20" transform="scale(0.015625)"/>
      <path id="DejaVuSans-Bold-56" d="M 31 4666 
L 1241 4666 
L 2478 1222 
L 3713 4666 
L 4922 4666 
L 3194 0 
L 1759 0 
L 31 4666 
z
" transform="scale(0.015625)"/>
      <path id="DejaVuSans-Bold-53" d="M 3834 4519 
L 3834 3531 
Q 3450 3703 3084 3790 
Q 2719 3878 2394 3878 
Q 1963 3878 1756 3759 
Q 1550 3641 1550 3391 
Q 1550 3203 1689 3098 
Q 1828 2994 2194 2919 
L 2706 2816 
Q 3484 2659 3812 2340 
Q 4141 2022 4141 1434 
Q 4141 663 3683 286 
Q 3225 -91 2284 -91 
Q 1841 -91 1394 -6 
Q 947 78 500 244 
L 500 1259 
Q 947 1022 1364 901 
Q 1781 781 2169 781 
Q 2563 781 2772 912 
Q 2981 1044 2981 1288 
Q 2981 1506 2839 1625 
Q 2697 1744 2272 1838 
L 1806 1941 
Q 1106 2091 782 2419 
Q 459 2747 459 3303 
Q 459 4000 909 4375 
Q 1359 4750 2203 4750 
Q 2588 4750 2994 4692 
Q 3400 4634 3834 4519 
z
" transform="scale(0.015625)"/>
     </defs>
     <use xlink:href="#DejaVuSans-Bold-54"/>
     <use xlink:href="#DejaVuSans-Bold-45" transform="translate(68.212891 0)"/>
     <use xlink:href="#DejaVuSans-Bold-43" transform="translate(136.523438 0)"/>
     <use xlink:href="#DejaVuSans-Bold-4e" transform="translate(209.912109 0)"/>
     <use xlink:href="#DejaVuSans-Bold-49" transform="translate(293.603516 0)"/>
     <use xlink:href="#DejaVuSans-Bold-43" transform="translate(330.810547 0)"/>
     <use xlink:href="#DejaVuSans-Bold-48" transform="translate(404.199219 0)"/>
     <use xlink:href="#DejaVuSans-Bold-45" transform="translate(487.890625 0)"/>
     <use xlink:href="#DejaVuSans-Bold-20" transform="translate(556.201172 0)"/>
     <use xlink:href="#DejaVuSans-Bold-56" transform="translate(591.015625 0)"/>
     <use xlink:href="#DejaVuSans-Bold-49" transform="translate(668.408203 0)"/>
     <use xlink:href="#DejaVuSans-Bold-53" transform="translate(705.615234 0)"/>
     <use xlink:href="#DejaVuSans-Bold-49" transform="translate(777.636719 0)"/>
     <use xlink:href="#DejaVuSans-Bold-56" transform="translate(814.84375 0)"/>
     <use xlink:href="#DejaVuSans-Bold-45" transform="translate(892.236328 0)"/>
    </g>
   </g>
   <g id="text_2">
    <!-- delle moltiplicazioni -->
    <g style="fill: #ffffff" transform="translate(218.954531 120.976875) scale(0.18 -0.18)">
     <defs>
      <path id="DejaVuSans-Oblique-64" d="M 2675 525 
Q 2444 222 2128 65 
Q 1813 -91 1428 -91 
Q 903 -91 598 267 
Q 294 625 294 1247 
Q 294 1766 478 2236 
Q 663 2706 1013 3078 
Q 1244 3325 1534 3454 
Q 1825 3584 2144 3584 
Q 2481 3584 2739 3421 
Q 2997 3259 3138 2956 
L 3513 4863 
L 4091 4863 
L 3144 0 
L 2566 0 
L 2675 525 
z
M 891 1350 
Q 891 897 1095 644 
Q 1300 391 1663 391 
Q 1931 391 2161 520 
Q 2391 650 2566 903 
Q 2750 1166 2856 1509 
Q 2963 1853 2963 2188 
Q 2963 2622 2758 2865 
Q 2553 3109 2194 3109 
Q 1922 3109 1687 2981 
Q 1453 2853 1288 2613 
Q 1106 2353 998 2009 
Q 891 1666 891 1350 
z
" transform="scale(0.015625)"/>
      <path id="DejaVuSans-Oblique-65" d="M 3078 2063 
Q 3088 2113 3092 2166 
Q 3097 2219 3097 2272 
Q 3097 2653 2873 2875 
Q 2650 3097 2266 3097 
Q 1838 3097 1509 2826 
Q 1181 2556 1013 2059 
L 3078 2063 
z
M 3578 1613 
L 903 1613 
Q 884 1494 878 1425 
Q 872 1356 872 1306 
Q 872 872 1139 634 
Q 1406 397 1894 397 
Q 2269 397 2603 481 
Q 2938 566 3225 728 
L 3116 159 
Q 2806 34 2476 -28 
Q 2147 -91 1806 -91 
Q 1078 -91 686 257 
Q 294 606 294 1247 
Q 294 1794 489 2264 
Q 684 2734 1063 3103 
Q 1306 3334 1642 3459 
Q 1978 3584 2356 3584 
Q 2950 3584 3301 3228 
Q 3653 2872 3653 2272 
Q 3653 2128 3634 1964 
Q 3616 1800 3578 1613 
z
" transform="scale(0.015625)"/>
      <path id="DejaVuSans-Oblique-6c" d="M 1172 4863 
L 1747 4863 
L 800 0 
L 225 0 
L 1172 4863 
z
" transform="scale(0.015625)"/>
      <path id="DejaVuSans-Oblique-20" transform="scale(0.015625)"/>
      <path id="DejaVuSans-Oblique-6d" d="M 5747 2113 
L 5338 0 
L 4763 0 
L 5166 2094 
Q 5191 2228 5203 2325 
Q 5216 2422 5216 2491 
Q 5216 2772 5059 2928 
Q 4903 3084 4622 3084 
Q 4203 3084 3875 2770 
Q 3547 2456 3450 1953 
L 3066 0 
L 2491 0 
L 2900 2094 
Q 2925 2209 2937 2307 
Q 2950 2406 2950 2484 
Q 2950 2769 2794 2926 
Q 2638 3084 2363 3084 
Q 1938 3084 1609 2770 
Q 1281 2456 1184 1953 
L 800 0 
L 225 0 
L 909 3500 
L 1484 3500 
L 1375 2956 
Q 1609 3263 1923 3423 
Q 2238 3584 2597 3584 
Q 2978 3584 3223 3384 
Q 3469 3184 3519 2828 
Q 3781 3197 4126 3390 
Q 4472 3584 4856 3584 
Q 5306 3584 5551 3325 
Q 5797 3066 5797 2591 
Q 5797 2488 5784 2364 
Q 5772 2241 5747 2113 
z
" transform="scale(0.015625)"/>
      <path id="DejaVuSans-Oblique-6f" d="M 1625 -91 
Q 1009 -91 651 289 
Q 294 669 294 1325 
Q 294 1706 417 2101 
Q 541 2497 738 2766 
Q 1047 3184 1428 3384 
Q 1809 3584 2291 3584 
Q 2888 3584 3255 3212 
Q 3622 2841 3622 2241 
Q 3622 1825 3500 1412 
Q 3378 1000 3181 728 
Q 2875 309 2494 109 
Q 2113 -91 1625 -91 
z
M 891 1344 
Q 891 869 1089 633 
Q 1288 397 1691 397 
Q 2269 397 2648 901 
Q 3028 1406 3028 2181 
Q 3028 2634 2825 2865 
Q 2622 3097 2228 3097 
Q 1903 3097 1650 2945 
Q 1397 2794 1197 2484 
Q 1050 2253 970 1956 
Q 891 1659 891 1344 
z
" transform="scale(0.015625)"/>
      <path id="DejaVuSans-Oblique-74" d="M 2706 3500 
L 2619 3053 
L 1472 3053 
L 1100 1153 
Q 1081 1047 1072 975 
Q 1063 903 1063 863 
Q 1063 663 1183 572 
Q 1303 481 1569 481 
L 2150 481 
L 2053 0 
L 1503 0 
Q 991 0 739 200 
Q 488 400 488 806 
Q 488 878 497 964 
Q 506 1050 525 1153 
L 897 3053 
L 409 3053 
L 500 3500 
L 978 3500 
L 1172 4494 
L 1747 4494 
L 1556 3500 
L 2706 3500 
z
" transform="scale(0.015625)"/>
      <path id="DejaVuSans-Oblique-69" d="M 1172 4863 
L 1747 4863 
L 1606 4134 
L 1031 4134 
L 1172 4863 
z
M 909 3500 
L 1484 3500 
L 800 0 
L 225 0 
L 909 3500 
z
" transform="scale(0.015625)"/>
      <path id="DejaVuSans-Oblique-70" d="M 3175 2156 
Q 3175 2616 2975 2859 
Q 2775 3103 2400 3103 
Q 2144 3103 1911 2972 
Q 1678 2841 1497 2591 
Q 1319 2344 1212 1994 
Q 1106 1644 1106 1300 
Q 1106 863 1306 627 
Q 1506 391 1875 391 
Q 2147 391 2380 519 
Q 2613 647 2778 891 
Q 2956 1147 3065 1494 
Q 3175 1841 3175 2156 
z
M 1394 2969 
Q 1625 3272 1939 3428 
Q 2253 3584 2638 3584 
Q 3175 3584 3472 3232 
Q 3769 2881 3769 2247 
Q 3769 1728 3584 1258 
Q 3400 788 3053 416 
Q 2822 169 2531 39 
Q 2241 -91 1919 -91 
Q 1547 -91 1294 64 
Q 1041 219 916 525 
L 556 -1331 
L -19 -1331 
L 922 3500 
L 1497 3500 
L 1394 2969 
z
" transform="scale(0.015625)"/>
      <path id="DejaVuSans-Oblique-63" d="M 3431 3366 
L 3316 2797 
Q 3109 2947 2876 3022 
Q 2644 3097 2394 3097 
Q 2119 3097 1870 3000 
Q 1622 2903 1453 2725 
Q 1184 2453 1037 2087 
Q 891 1722 891 1331 
Q 891 859 1127 628 
Q 1363 397 1844 397 
Q 2081 397 2348 469 
Q 2616 541 2906 684 
L 2797 116 
Q 2547 13 2283 -39 
Q 2019 -91 1741 -91 
Q 1044 -91 669 257 
Q 294 606 294 1253 
Q 294 1797 489 2255 
Q 684 2713 1069 3078 
Q 1331 3328 1684 3456 
Q 2038 3584 2456 3584 
Q 2700 3584 2940 3529 
Q 3181 3475 3431 3366 
z
" transform="scale(0.015625)"/>
      <path id="DejaVuSans-Oblique-61" d="M 3438 1997 
L 3047 0 
L 2472 0 
L 2578 531 
Q 2325 219 2001 64 
Q 1678 -91 1281 -91 
Q 834 -91 548 182 
Q 263 456 263 884 
Q 263 1497 752 1853 
Q 1241 2209 2100 2209 
L 2900 2209 
L 2931 2363 
Q 2938 2388 2941 2417 
Q 2944 2447 2944 2509 
Q 2944 2788 2717 2942 
Q 2491 3097 2081 3097 
Q 1800 3097 1504 3025 
Q 1209 2953 897 2809 
L 997 3341 
Q 1322 3463 1633 3523 
Q 1944 3584 2234 3584 
Q 2853 3584 3176 3315 
Q 3500 3047 3500 2534 
Q 3500 2431 3484 2292 
Q 3469 2153 3438 1997 
z
M 2816 1759 
L 2241 1759 
Q 1534 1759 1195 1570 
Q 856 1381 856 984 
Q 856 709 1029 553 
Q 1203 397 1509 397 
Q 1978 397 2328 733 
Q 2678 1069 2791 1631 
L 2816 1759 
z
" transform="scale(0.015625)"/>
      <path id="DejaVuSans-Oblique-7a" d="M 744 3500 
L 3475 3500 
L 3372 2975 
L 738 459 
L 2913 459 
L 2822 0 
L -19 0 
L 84 525 
L 2719 3041 
L 653 3041 
L 744 3500 
z
" transform="scale(0.015625)"/>
      <path id="DejaVuSans-Oblique-6e" d="M 3566 2113 
L 3156 0 
L 2578 0 
L 2988 2091 
Q 3016 2238 3031 2350 
Q 3047 2463 3047 2528 
Q 3047 2791 2881 2937 
Q 2716 3084 2419 3084 
Q 1956 3084 1622 2776 
Q 1288 2469 1184 1941 
L 800 0 
L 225 0 
L 903 3500 
L 1478 3500 
L 1363 2950 
Q 1603 3253 1940 3418 
Q 2278 3584 2650 3584 
Q 3113 3584 3367 3334 
Q 3622 3084 3622 2631 
Q 3622 2519 3608 2391 
Q 3594 2263 3566 2113 
z
" transform="scale(0.015625)"/>
     </defs>
     <use xlink:href="#DejaVuSans-Oblique-64"/>
     <use xlink:href="#DejaVuSans-Oblique-65" transform="translate(63.476562 0)"/>
     <use xlink:href="#DejaVuSans-Oblique-6c" transform="translate(125 0)"/>
     <use xlink:href="#DejaVuSans-Oblique-6c" transform="translate(152.783203 0)"/>
     <use xlink:href="#DejaVuSans-Oblique-65" transform="translate(180.566406 0)"/>
     <use xlink:href="#DejaVuSans-Oblique-20" transform="translate(242.089844 0)"/>
     <use xlink:href="#DejaVuSans-Oblique-6d" transform="translate(273.876953 0)"/>
     <use xlink:href="#DejaVuSans-Oblique-6f" transform="translate(371.289062 0)"/>
     <use xlink:href="#DejaVuSans-Oblique-6c" transform="translate(432.470703 0)"/>
     <use xlink:href="#DejaVuSans-Oblique-74" transform="translate(460.253906 0)"/>
     <use xlink:href="#DejaVuSans-Oblique-69" transform="translate(499.462891 0)"/>
     <use xlink:href="#DejaVuSans-Oblique-70" transform="translate(527.246094 0)"/>
     <use xlink:href="#DejaVuSans-Oblique-6c" transform="translate(590.722656 0)"/>
     <use xlink:href="#DejaVuSans-Oblique-69" transform="translate(618.505859 0)"/>
     <use xlink:href="#DejaVuSans-Oblique-63" transform="translate(646.289062 0)"/>
     <use xlink:href="#DejaVuSans-Oblique-61" transform="translate(701.269531 0)"/>
     <use xlink:href="#DejaVuSans-Oblique-7a" transform="translate(762.548828 0)"/>
     <use xlink:href="#DejaVuSans-Oblique-69" transform="translate(815.039062 0)"/>
     <use xlink:href="#DejaVuSans-Oblique-6f" transform="translate(842.822266 0)"/>
     <use xlink:href="#DejaVuSans-Oblique-6e" transform="translate(904.003906 0)"/>
     <use xlink:href="#DejaVuSans-Oblique-69" transform="translate(967.382812 0)"/>
    </g>
   </g>
   <g id="text_3">
    <!-- 1 -->
    <g style="fill: #222222" transform="translate(144.79413 156.231069) scale(0.085 -0.085)">
     <defs>
      <path id="DejaVuSans-Bold-31" d="M 750 831 
L 1813 831 
L 1813 3847 
L 722 3622 
L 722 4441 
L 1806 4666 
L 2950 4666 
L 2950 831 
L 4013 831 
L 4013 0 
L 750 0 
L 750 831 
z
" transform="scale(0.015625)"/>
     </defs>
     <use xlink:href="#DejaVuSans-Bold-31"/>
    </g>
   </g>
   <g id="text_4">
    <!-- 2 -->
    <g style="fill: #222222" transform="translate(180.52053 156.231069) scale(0.085 -0.085)">
     <defs>
      <path id="DejaVuSans-Bold-32" d="M 1844 884 
L 3897 884 
L 3897 0 
L 506 0 
L 506 884 
L 2209 2388 
Q 2438 2594 2547 2791 
Q 2656 2988 2656 3200 
Q 2656 3528 2436 3728 
Q 2216 3928 1850 3928 
Q 1569 3928 1234 3808 
Q 900 3688 519 3450 
L 519 4475 
Q 925 4609 1322 4679 
Q 1719 4750 2100 4750 
Q 2938 4750 3402 4381 
Q 3866 4013 3866 3353 
Q 3866 2972 3669 2642 
Q 3472 2313 2841 1759 
L 1844 884 
z
" transform="scale(0.015625)"/>
     </defs>
     <use xlink:href="#DejaVuSans-Bold-32"/>
    </g>
   </g>
   <g id="text_5">
    <!-- 3 -->
    <g style="fill: #222222" transform="translate(216.24693 156.231069) scale(0.085 -0.085)">
     <defs>
      <path id="DejaVuSans-Bold-33" d="M 2981 2516 
Q 3453 2394 3698 2092 
Q 3944 1791 3944 1325 
Q 3944 631 3412 270 
Q 2881 -91 1863 -91 
Q 1503 -91 1142 -33 
Q 781 25 428 141 
L 428 1069 
Q 766 900 1098 814 
Q 1431 728 1753 728 
Q 2231 728 2486 893 
Q 2741 1059 2741 1369 
Q 2741 1688 2480 1852 
Q 2219 2016 1709 2016 
L 1228 2016 
L 1228 2791 
L 1734 2791 
Q 2188 2791 2409 2933 
Q 2631 3075 2631 3366 
Q 2631 3634 2415 3781 
Q 2200 3928 1806 3928 
Q 1516 3928 1219 3862 
Q 922 3797 628 3669 
L 628 4550 
Q 984 4650 1334 4700 
Q 1684 4750 2022 4750 
Q 2931 4750 3382 4451 
Q 3834 4153 3834 3553 
Q 3834 3144 3618 2883 
Q 3403 2622 2981 2516 
z
" transform="scale(0.015625)"/>
     </defs>
     <use xlink:href="#DejaVuSans-Bold-33"/>
    </g>
   </g>
   <g id="text_6">
    <!-- 4 -->
    <g style="fill: #222222" transform="translate(251.97333 156.231069) scale(0.085 -0.085)">
     <defs>
      <path id="DejaVuSans-Bold-34" d="M 2356 3675 
L 1038 1722 
L 2356 1722 
L 2356 3675 
z
M 2156 4666 
L 3494 4666 
L 3494 1722 
L 4159 1722 
L 4159 850 
L 3494 850 
L 3494 0 
L 2356 0 
L 2356 850 
L 288 850 
L 288 1881 
L 2156 4666 
z
" transform="scale(0.015625)"/>
     </defs>
     <use xlink:href="#DejaVuSans-Bold-34"/>
    </g>
   </g>
   <g id="text_7">
    <!-- 5 -->
    <g style="fill: #222222" transform="translate(287.69973 156.231069) scale(0.085 -0.085)">
     <defs>
      <path id="DejaVuSans-Bold-35" d="M 678 4666 
L 3669 4666 
L 3669 3781 
L 1638 3781 
L 1638 3059 
Q 1775 3097 1914 3117 
Q 2053 3138 2203 3138 
Q 3056 3138 3531 2711 
Q 4006 2284 4006 1522 
Q 4006 766 3489 337 
Q 2972 -91 2053 -91 
Q 1656 -91 1267 -14 
Q 878 63 494 219 
L 494 1166 
Q 875 947 1217 837 
Q 1559 728 1863 728 
Q 2300 728 2551 942 
Q 2803 1156 2803 1522 
Q 2803 1891 2551 2103 
Q 2300 2316 1863 2316 
Q 1603 2316 1309 2248 
Q 1016 2181 678 2041 
L 678 4666 
z
" transform="scale(0.015625)"/>
     </defs>
     <use xlink:href="#DejaVuSans-Bold-35"/>
    </g>
   </g>
   <g id="text_8">
    <!-- 6 -->
    <g style="fill: #222222" transform="translate(323.42613 156.231069) scale(0.085 -0.085)">
     <defs>
      <path id="DejaVuSans-Bold-36" d="M 2316 2303 
Q 2000 2303 1842 2098 
Q 1684 1894 1684 1484 
Q 1684 1075 1842 870 
Q 2000 666 2316 666 
Q 2634 666 2792 870 
Q 2950 1075 2950 1484 
Q 2950 1894 2792 2098 
Q 2634 2303 2316 2303 
z
M 3803 4544 
L 3803 3681 
Q 3506 3822 3243 3889 
Q 2981 3956 2731 3956 
Q 2194 3956 1894 3657 
Q 1594 3359 1544 2772 
Q 1750 2925 1990 3001 
Q 2231 3078 2516 3078 
Q 3231 3078 3670 2659 
Q 4109 2241 4109 1563 
Q 4109 813 3618 361 
Q 3128 -91 2303 -91 
Q 1394 -91 895 523 
Q 397 1138 397 2266 
Q 397 3422 980 4083 
Q 1563 4744 2578 4744 
Q 2900 4744 3203 4694 
Q 3506 4644 3803 4544 
z
" transform="scale(0.015625)"/>
     </defs>
     <use xlink:href="#DejaVuSans-Bold-36"/>
    </g>
   </g>
   <g id="text_9">
    <!-- 7 -->
    <g style="fill: #222222" transform="translate(359.15253 156.231069) scale(0.085 -0.085)">
     <defs>
      <path id="DejaVuSans-Bold-37" d="M 428 4666 
L 3944 4666 
L 3944 3988 
L 2125 0 
L 953 0 
L 2675 3781 
L 428 3781 
L 428 4666 
z
" transform="scale(0.015625)"/>
     </defs>
     <use xlink:href="#DejaVuSans-Bold-37"/>
    </g>
   </g>
   <g id="text_10">
    <!-- 8 -->
    <g style="fill: #222222" transform="translate(394.87893 156.231069) scale(0.085 -0.085)">
     <defs>
      <path id="DejaVuSans-Bold-38" d="M 2228 2088 
Q 1891 2088 1709 1903 
Q 1528 1719 1528 1375 
Q 1528 1031 1709 848 
Q 1891 666 2228 666 
Q 2563 666 2741 848 
Q 2919 1031 2919 1375 
Q 2919 1722 2741 1905 
Q 2563 2088 2228 2088 
z
M 1350 2484 
Q 925 2613 709 2878 
Q 494 3144 494 3541 
Q 494 4131 934 4440 
Q 1375 4750 2228 4750 
Q 3075 4750 3515 4442 
Q 3956 4134 3956 3541 
Q 3956 3144 3739 2878 
Q 3522 2613 3097 2484 
Q 3572 2353 3814 2058 
Q 4056 1763 4056 1313 
Q 4056 619 3595 264 
Q 3134 -91 2228 -91 
Q 1319 -91 855 264 
Q 391 619 391 1313 
Q 391 1763 633 2058 
Q 875 2353 1350 2484 
z
M 1631 3419 
Q 1631 3141 1786 2991 
Q 1941 2841 2228 2841 
Q 2509 2841 2662 2991 
Q 2816 3141 2816 3419 
Q 2816 3697 2662 3845 
Q 2509 3994 2228 3994 
Q 1941 3994 1786 3844 
Q 1631 3694 1631 3419 
z
" transform="scale(0.015625)"/>
     </defs>
     <use xlink:href="#DejaVuSans-Bold-38"/>
    </g>
   </g>
   <g id="text_11">
    <!-- 9 -->
    <g style="fill: #222222" transform="translate(430.60533 156.231069) scale(0.085 -0.085)">
     <defs>
      <path id="DejaVuSans-Bold-39" d="M 641 103 
L 641 966 
Q 928 831 1190 764 
Q 1453 697 1709 697 
Q 2247 697 2547 995 
Q 2847 1294 2900 1881 
Q 2688 1725 2447 1647 
Q 2206 1569 1925 1569 
Q 1209 1569 770 1986 
Q 331 2403 331 3084 
Q 331 3838 820 4291 
Q 1309 4744 2131 4744 
Q 3044 4744 3544 4128 
Q 4044 3513 4044 2388 
Q 4044 1231 3459 570 
Q 2875 -91 1856 -91 
Q 1528 -91 1228 -42 
Q 928 6 641 103 
z
M 2125 2350 
Q 2441 2350 2600 2554 
Q 2759 2759 2759 3169 
Q 2759 3575 2600 3781 
Q 2441 3988 2125 3988 
Q 1809 3988 1650 3781 
Q 1491 3575 1491 3169 
Q 1491 2759 1650 2554 
Q 1809 2350 2125 2350 
z
" transform="scale(0.015625)"/>
     </defs>
     <use xlink:href="#DejaVuSans-Bold-39"/>
    </g>
   </g>
   <g id="text_12">
    <!-- 2 -->
    <g style="fill: #222222" transform="translate(144.79413 206.731869) scale(0.085 -0.085)">
     <use xlink:href="#DejaVuSans-Bold-32"/>
    </g>
   </g>
   <g id="text_13">
    <!-- 4 -->
    <g style="fill: #222222" transform="translate(180.52053 206.731869) scale(0.085 -0.085)">
     <use xlink:href="#DejaVuSans-Bold-34"/>
    </g>
   </g>
   <g id="text_14">
    <!-- 6 -->
    <g style="fill: #222222" transform="translate(216.24693 206.731869) scale(0.085 -0.085)">
     <use xlink:href="#DejaVuSans-Bold-36"/>
    </g>
   </g>
   <g id="text_15">
    <!-- 8 -->
    <g style="fill: #222222" transform="translate(251.97333 206.731869) scale(0.085 -0.085)">
     <use xlink:href="#DejaVuSans-Bold-38"/>
    </g>
   </g>
   <g id="text_16">
    <!-- 10 -->
    <g style="fill: #222222" transform="translate(284.742659 206.731869) scale(0.085 -0.085)">
     <defs>
      <path id="DejaVuSans-Bold-30" d="M 2944 2338 
Q 2944 3213 2780 3570 
Q 2616 3928 2228 3928 
Q 1841 3928 1675 3570 
Q 1509 3213 1509 2338 
Q 1509 1453 1675 1090 
Q 1841 728 2228 728 
Q 2613 728 2778 1090 
Q 2944 1453 2944 2338 
z
M 4147 2328 
Q 4147 1169 3647 539 
Q 3147 -91 2228 -91 
Q 1306 -91 806 539 
Q 306 1169 306 2328 
Q 306 3491 806 4120 
Q 1306 4750 2228 4750 
Q 3147 4750 3647 4120 
Q 4147 3491 4147 2328 
z
" transform="scale(0.015625)"/>
     </defs>
     <use xlink:href="#DejaVuSans-Bold-31"/>
     <use xlink:href="#DejaVuSans-Bold-30" transform="translate(69.580078 0)"/>
    </g>
   </g>
   <g id="text_17">
    <!-- 12 -->
    <g style="fill: #222222" transform="translate(320.469059 206.731869) scale(0.085 -0.085)">
     <use xlink:href="#DejaVuSans-Bold-31"/>
     <use xlink:href="#DejaVuSans-Bold-32" transform="translate(69.580078 0)"/>
    </g>
   </g>
   <g id="text_18">
    <!-- 14 -->
    <g style="fill: #222222" transform="translate(356.195459 206.731869) scale(0.085 -0.085)">
     <use xlink:href="#DejaVuSans-Bold-31"/>
     <use xlink:href="#DejaVuSans-Bold-34" transform="translate(69.580078 0)"/>
    </g>
   </g>
   <g id="text_19">
    <!-- 16 -->
    <g style="fill: #222222" transform="translate(391.921859 206.731869) scale(0.085 -0.085)">
     <use xlink:href="#DejaVuSans-Bold-31"/>
     <use xlink:href="#DejaVuSans-Bold-36" transform="translate(69.580078 0)"/>
    </g>
   </g>
   <g id="text_20">
    <!-- 18 -->
    <g style="fill: #222222" transform="translate(427.648259 206.731869) scale(0.085 -0.085)">
     <use xlink:href="#DejaVuSans-Bold-31"/>
     <use xlink:href="#DejaVuSans-Bold-38" transform="translate(69.580078 0)"/>
    </g>
   </g>
   <g id="text_21">
    <!-- 3 -->
    <g style="fill: #222222" transform="translate(144.79413 257.232669) scale(0.085 -0.085)">
     <use xlink:href="#DejaVuSans-Bold-33"/>
    </g>
   </g>
   <g id="text_22">
    <!-- 6 -->
    <g style="fill: #222222" transform="translate(180.52053 257.232669) scale(0.085 -0.085)">
     <use xlink:href="#DejaVuSans-Bold-36"/>
    </g>
   </g>
   <g id="text_23">
    <!-- 9 -->
    <g style="fill: #222222" transform="translate(216.24693 257.232669) scale(0.085 -0.085)">
     <use xlink:href="#DejaVuSans-Bold-39"/>
    </g>
   </g>
   <g id="text_24">
    <!-- 12 -->
    <g style="fill: #222222" transform="translate(249.016259 257.232669) scale(0.085 -0.085)">
     <use xlink:href="#DejaVuSans-Bold-31"/>
     <use xlink:href="#DejaVuSans-Bold-32" transform="translate(69.580078 0)"/>
    </g>
   </g>
   <g id="text_25">
    <!-- 15 -->
    <g style="fill: #222222" transform="translate(284.742659 257.232669) scale(0.085 -0.085)">
     <use xlink:href="#DejaVuSans-Bold-31"/>
     <use xlink:href="#DejaVuSans-Bold-35" transform="translate(69.580078 0)"/>
    </g>
   </g>
   <g id="text_26">
    <!-- 18 -->
    <g style="fill: #222222" transform="translate(320.469059 257.232669) scale(0.085 -0.085)">
     <use xlink:href="#DejaVuSans-Bold-31"/>
     <use xlink:href="#DejaVuSans-Bold-38" transform="translate(69.580078 0)"/>
    </g>
   </g>
   <g id="text_27">
    <!-- 21 -->
    <g style="fill: #222222" transform="translate(356.195459 257.232669) scale(0.085 -0.085)">
     <use xlink:href="#DejaVuSans-Bold-32"/>
     <use xlink:href="#DejaVuSans-Bold-31" transform="translate(69.580078 0)"/>
    </g>
   </g>
   <g id="text_28">
    <!-- 24 -->
    <g style="fill: #222222" transform="translate(391.921859 257.232669) scale(0.085 -0.085)">
     <use xlink:href="#DejaVuSans-Bold-32"/>
     <use xlink:href="#DejaVuSans-Bold-34" transform="translate(69.580078 0)"/>
    </g>
   </g>
   <g id="text_29">
    <!-- 27 -->
    <g style="fill: #222222" transform="translate(427.648259 257.232669) scale(0.085 -0.085)">
     <use xlink:href="#DejaVuSans-Bold-32"/>
     <use xlink:href="#DejaVuSans-Bold-37" transform="translate(69.580078 0)"/>
    </g>
   </g>
   <g id="text_30">
    <!-- 4 -->
    <g style="fill: #222222" transform="translate(144.79413 307.733469) scale(0.085 -0.085)">
     <use xlink:href="#DejaVuSans-Bold-34"/>
    </g>
   </g>
   <g id="text_31">
    <!-- 8 -->
    <g style="fill: #222222" transform="translate(180.52053 307.733469) scale(0.085 -0.085)">
     <use xlink:href="#DejaVuSans-Bold-38"/>
    </g>
   </g>
   <g id="text_32">
    <!-- 12 -->
    <g style="fill: #222222" transform="translate(213.289859 307.733469) scale(0.085 -0.085)">
     <use xlink:href="#DejaVuSans-Bold-31"/>
     <use xlink:href="#DejaVuSans-Bold-32" transform="translate(69.580078 0)"/>
    </g>
   </g>
   <g id="text_33">
    <!-- 16 -->
    <g style="fill: #222222" transform="translate(249.016259 307.733469) scale(0.085 -0.085)">
     <use xlink:href="#DejaVuSans-Bold-31"/>
     <use xlink:href="#DejaVuSans-Bold-36" transform="translate(69.580078 0)"/>
    </g>
   </g>
   <g id="text_34">
    <!-- 20 -->
    <g style="fill: #222222" transform="translate(284.742659 307.733469) scale(0.085 -0.085)">
     <use xlink:href="#DejaVuSans-Bold-32"/>
     <use xlink:href="#DejaVuSans-Bold-30" transform="translate(69.580078 0)"/>
    </g>
   </g>
   <g id="text_35">
    <!-- 24 -->
    <g style="fill: #222222" transform="translate(320.469059 307.733469) scale(0.085 -0.085)">
     <use xlink:href="#DejaVuSans-Bold-32"/>
     <use xlink:href="#DejaVuSans-Bold-34" transform="translate(69.580078 0)"/>
    </g>
   </g>
   <g id="text_36">
    <!-- 28 -->
    <g style="fill: #222222" transform="translate(356.195459 307.733469) scale(0.085 -0.085)">
     <use xlink:href="#DejaVuSans-Bold-32"/>
     <use xlink:href="#DejaVuSans-Bold-38" transform="translate(69.580078 0)"/>
    </g>
   </g>
   <g id="text_37">
    <!-- 32 -->
    <g style="fill: #222222" transform="translate(391.921859 307.733469) scale(0.085 -0.085)">
     <use xlink:href="#DejaVuSans-Bold-33"/>
     <use xlink:href="#DejaVuSans-Bold-32" transform="translate(69.580078 0)"/>
    </g>
   </g>
   <g id="text_38">
    <!-- 36 -->
    <g style="fill: #222222" transform="translate(427.648259 307.733469) scale(0.085 -0.085)">
     <use xlink:href="#DejaVuSans-Bold-33"/>
     <use xlink:href="#DejaVuSans-Bold-36" transform="translate(69.580078 0)"/>
    </g>
   </g>
   <g id="text_39">
    <!-- 5 -->
    <g style="fill: #222222" transform="translate(144.79413 358.234269) scale(0.085 -0.085)">
     <use xlink:href="#DejaVuSans-Bold-35"/>
    </g>
   </g>
   <g id="text_40">
    <!-- 10 -->
    <g style="fill: #222222" transform="translate(177.563459 358.234269) scale(0.085 -0.085)">
     <use xlink:href="#DejaVuSans-Bold-31"/>
     <use xlink:href="#DejaVuSans-Bold-30" transform="translate(69.580078 0)"/>
    </g>
   </g>
   <g id="text_41">
    <!-- 15 -->
    <g style="fill: #222222" transform="translate(213.289859 358.234269) scale(0.085 -0.085)">
     <use xlink:href="#DejaVuSans-Bold-31"/>
     <use xlink:href="#DejaVuSans-Bold-35" transform="translate(69.580078 0)"/>
    </g>
   </g>
   <g id="text_42">
    <!-- 20 -->
    <g style="fill: #222222" transform="translate(249.016259 358.234269) scale(0.085 -0.085)">
     <use xlink:href="#DejaVuSans-Bold-32"/>
     <use xlink:href="#DejaVuSans-Bold-30" transform="translate(69.580078 0)"/>
    </g>
   </g>
   <g id="text_43">
    <!-- 25 -->
    <g style="fill: #222222" transform="translate(284.742659 358.234269) scale(0.085 -0.085)">
     <use xlink:href="#DejaVuSans-Bold-32"/>
     <use xlink:href="#DejaVuSans-Bold-35" transform="translate(69.580078 0)"/>
    </g>
   </g>
   <g id="text_44">
    <!-- 30 -->
    <g style="fill: #222222" transform="translate(320.469059 358.234269) scale(0.085 -0.085)">
     <use xlink:href="#DejaVuSans-Bold-33"/>
     <use xlink:href="#DejaVuSans-Bold-30" transform="translate(69.580078 0)"/>
    </g>
   </g>
   <g id="text_45">
    <!-- 35 -->
    <g style="fill: #222222" transform="translate(356.195459 358.234269) scale(0.085 -0.085)">
     <use xlink:href="#DejaVuSans-Bold-33"/>
     <use xlink:href="#DejaVuSans-Bold-35" transform="translate(69.580078 0)"/>
    </g>
   </g>
   <g id="text_46">
    <!-- 40 -->
    <g style="fill: #222222" transform="translate(391.921859 358.234269) scale(0.085 -0.085)">
     <use xlink:href="#DejaVuSans-Bold-34"/>
     <use xlink:href="#DejaVuSans-Bold-30" transform="translate(69.580078 0)"/>
    </g>
   </g>
   <g id="text_47">
    <!-- 45 -->
    <g style="fill: #222222" transform="translate(427.648259 358.234269) scale(0.085 -0.085)">
     <use xlink:href="#DejaVuSans-Bold-34"/>
     <use xlink:href="#DejaVuSans-Bold-35" transform="translate(69.580078 0)"/>
    </g>
   </g>
   <g id="text_48">
    <!-- 6 -->
    <g style="fill: #222222" transform="translate(144.79413 408.735069) scale(0.085 -0.085)">
     <use xlink:href="#DejaVuSans-Bold-36"/>
    </g>
   </g>
   <g id="text_49">
    <!-- 12 -->
    <g style="fill: #222222" transform="translate(177.563459 408.735069) scale(0.085 -0.085)">
     <use xlink:href="#DejaVuSans-Bold-31"/>
     <use xlink:href="#DejaVuSans-Bold-32" transform="translate(69.580078 0)"/>
    </g>
   </g>
   <g id="text_50">
    <!-- 18 -->
    <g style="fill: #222222" transform="translate(213.289859 408.735069) scale(0.085 -0.085)">
     <use xlink:href="#DejaVuSans-Bold-31"/>
     <use xlink:href="#DejaVuSans-Bold-38" transform="translate(69.580078 0)"/>
    </g>
   </g>
   <g id="text_51">
    <!-- 24 -->
    <g style="fill: #222222" transform="translate(249.016259 408.735069) scale(0.085 -0.085)">
     <use xlink:href="#DejaVuSans-Bold-32"/>
     <use xlink:href="#DejaVuSans-Bold-34" transform="translate(69.580078 0)"/>
    </g>
   </g>
   <g id="text_52">
    <!-- 30 -->
    <g style="fill: #222222" transform="translate(284.742659 408.735069) scale(0.085 -0.085)">
     <use xlink:href="#DejaVuSans-Bold-33"/>
     <use xlink:href="#DejaVuSans-Bold-30" transform="translate(69.580078 0)"/>
    </g>
   </g>
   <g id="text_53">
    <!-- 36 -->
    <g style="fill: #222222" transform="translate(320.469059 408.735069) scale(0.085 -0.085)">
     <use xlink:href="#DejaVuSans-Bold-33"/>
     <use xlink:href="#DejaVuSans-Bold-36" transform="translate(69.580078 0)"/>
    </g>
   </g>
   <g id="text_54">
    <!-- 42 -->
    <g style="fill: #222222" transform="translate(356.195459 408.735069) scale(0.085 -0.085)">
     <use xlink:href="#DejaVuSans-Bold-34"/>
     <use xlink:href="#DejaVuSans-Bold-32" transform="translate(69.580078 0)"/>
    </g>
   </g>
   <g id="text_55">
    <!-- 48 -->
    <g style="fill: #222222" transform="translate(391.921859 408.735069) scale(0.085 -0.085)">
     <use xlink:href="#DejaVuSans-Bold-34"/>
     <use xlink:href="#DejaVuSans-Bold-38" transform="translate(69.580078 0)"/>
    </g>
   </g>
   <g id="text_56">
    <!-- 54 -->
    <g style="fill: #222222" transform="translate(427.648259 408.735069) scale(0.085 -0.085)">
     <use xlink:href="#DejaVuSans-Bold-35"/>
     <use xlink:href="#DejaVuSans-Bold-34" transform="translate(69.580078 0)"/>
    </g>
   </g>
   <g id="text_57">
    <!-- 7 -->
    <g style="fill: #222222" transform="translate(144.79413 459.235869) scale(0.085 -0.085)">
     <use xlink:href="#DejaVuSans-Bold-37"/>
    </g>
   </g>
   <g id="text_58">
    <!-- 14 -->
    <g style="fill: #222222" transform="translate(177.563459 459.235869) scale(0.085 -0.085)">
     <use xlink:href="#DejaVuSans-Bold-31"/>
     <use xlink:href="#DejaVuSans-Bold-34" transform="translate(69.580078 0)"/>
    </g>
   </g>
   <g id="text_59">
    <!-- 21 -->
    <g style="fill: #222222" transform="translate(213.289859 459.235869) scale(0.085 -0.085)">
     <use xlink:href="#DejaVuSans-Bold-32"/>
     <use xlink:href="#DejaVuSans-Bold-31" transform="translate(69.580078 0)"/>
    </g>
   </g>
   <g id="text_60">
    <!-- 28 -->
    <g style="fill: #222222" transform="translate(249.016259 459.235869) scale(0.085 -0.085)">
     <use xlink:href="#DejaVuSans-Bold-32"/>
     <use xlink:href="#DejaVuSans-Bold-38" transform="translate(69.580078 0)"/>
    </g>
   </g>
   <g id="text_61">
    <!-- 35 -->
    <g style="fill: #222222" transform="translate(284.742659 459.235869) scale(0.085 -0.085)">
     <use xlink:href="#DejaVuSans-Bold-33"/>
     <use xlink:href="#DejaVuSans-Bold-35" transform="translate(69.580078 0)"/>
    </g>
   </g>
   <g id="text_62">
    <!-- 42 -->
    <g style="fill: #222222" transform="translate(320.469059 459.235869) scale(0.085 -0.085)">
     <use xlink:href="#DejaVuSans-Bold-34"/>
     <use xlink:href="#DejaVuSans-Bold-32" transform="translate(69.580078 0)"/>
    </g>
   </g>
   <g id="text_63">
    <!-- 49 -->
    <g style="fill: #222222" transform="translate(356.195459 459.235869) scale(0.085 -0.085)">
     <use xlink:href="#DejaVuSans-Bold-34"/>
     <use xlink:href="#DejaVuSans-Bold-39" transform="translate(69.580078 0)"/>
    </g>
   </g>
   <g id="text_64">
    <!-- 56 -->
    <g style="fill: #222222" transform="translate(391.921859 459.235869) scale(0.085 -0.085)">
     <use xlink:href="#DejaVuSans-Bold-35"/>
     <use xlink:href="#DejaVuSans-Bold-36" transform="translate(69.580078 0)"/>
    </g>
   </g>
   <g id="text_65">
    <!-- 63 -->
    <g style="fill: #222222" transform="translate(427.648259 459.235869) scale(0.085 -0.085)">
     <use xlink:href="#DejaVuSans-Bold-36"/>
     <use xlink:href="#DejaVuSans-Bold-33" transform="translate(69.580078 0)"/>
    </g>
   </g>
   <g id="text_66">
    <!-- 8 -->
    <g style="fill: #222222" transform="translate(144.79413 509.736669) scale(0.085 -0.085)">
     <use xlink:href="#DejaVuSans-Bold-38"/>
    </g>
   </g>
   <g id="text_67">
    <!-- 16 -->
    <g style="fill: #222222" transform="translate(177.563459 509.736669) scale(0.085 -0.085)">
     <use xlink:href="#DejaVuSans-Bold-31"/>
     <use xlink:href="#DejaVuSans-Bold-36" transform="translate(69.580078 0)"/>
    </g>
   </g>
   <g id="text_68">
    <!-- 24 -->
    <g style="fill: #222222" transform="translate(213.289859 509.736669) scale(0.085 -0.085)">
     <use xlink:href="#DejaVuSans-Bold-32"/>
     <use xlink:href="#DejaVuSans-Bold-34" transform="translate(69.580078 0)"/>
    </g>
   </g>
   <g id="text_69">
    <!-- 32 -->
    <g style="fill: #222222" transform="translate(249.016259 509.736669) scale(0.085 -0.085)">
     <use xlink:href="#DejaVuSans-Bold-33"/>
     <use xlink:href="#DejaVuSans-Bold-32" transform="translate(69.580078 0)"/>
    </g>
   </g>
   <g id="text_70">
    <!-- 40 -->
    <g style="fill: #222222" transform="translate(284.742659 509.736669) scale(0.085 -0.085)">
     <use xlink:href="#DejaVuSans-Bold-34"/>
     <use xlink:href="#DejaVuSans-Bold-30" transform="translate(69.580078 0)"/>
    </g>
   </g>
   <g id="text_71">
    <!-- 48 -->
    <g style="fill: #222222" transform="translate(320.469059 509.736669) scale(0.085 -0.085)">
     <use xlink:href="#DejaVuSans-Bold-34"/>
     <use xlink:href="#DejaVuSans-Bold-38" transform="translate(69.580078 0)"/>
    </g>
   </g>
   <g id="text_72">
    <!-- 56 -->
    <g style="fill: #222222" transform="translate(356.195459 509.736669) scale(0.085 -0.085)">
     <use xlink:href="#DejaVuSans-Bold-35"/>
     <use xlink:href="#DejaVuSans-Bold-36" transform="translate(69.580078 0)"/>
    </g>
   </g>
   <g id="text_73">
    <!-- 64 -->
    <g style="fill: #222222" transform="translate(391.921859 509.736669) scale(0.085 -0.085)">
     <use xlink:href="#DejaVuSans-Bold-36"/>
     <use xlink:href="#DejaVuSans-Bold-34" transform="translate(69.580078 0)"/>
    </g>
   </g>
   <g id="text_74">
    <!-- 72 -->
    <g style="fill: #222222" transform="translate(427.648259 509.736669) scale(0.085 -0.085)">
     <use xlink:href="#DejaVuSans-Bold-37"/>
     <use xlink:href="#DejaVuSans-Bold-32" transform="translate(69.580078 0)"/>
    </g>
   </g>
   <g id="text_75">
    <!-- 9 -->
    <g style="fill: #222222" transform="translate(144.79413 560.237469) scale(0.085 -0.085)">
     <use xlink:href="#DejaVuSans-Bold-39"/>
    </g>
   </g>
   <g id="text_76">
    <!-- 18 -->
    <g style="fill: #222222" transform="translate(177.563459 560.237469) scale(0.085 -0.085)">
     <use xlink:href="#DejaVuSans-Bold-31"/>
     <use xlink:href="#DejaVuSans-Bold-38" transform="translate(69.580078 0)"/>
    </g>
   </g>
   <g id="text_77">
    <!-- 27 -->
    <g style="fill: #222222" transform="translate(213.289859 560.237469) scale(0.085 -0.085)">
     <use xlink:href="#DejaVuSans-Bold-32"/>
     <use xlink:href="#DejaVuSans-Bold-37" transform="translate(69.580078 0)"/>
    </g>
   </g>
   <g id="text_78">
    <!-- 36 -->
    <g style="fill: #222222" transform="translate(249.016259 560.237469) scale(0.085 -0.085)">
     <use xlink:href="#DejaVuSans-Bold-33"/>
     <use xlink:href="#DejaVuSans-Bold-36" transform="translate(69.580078 0)"/>
    </g>
   </g>
   <g id="text_79">
    <!-- 45 -->
    <g style="fill: #222222" transform="translate(284.742659 560.237469) scale(0.085 -0.085)">
     <use xlink:href="#DejaVuSans-Bold-34"/>
     <use xlink:href="#DejaVuSans-Bold-35" transform="translate(69.580078 0)"/>
    </g>
   </g>
   <g id="text_80">
    <!-- 54 -->
    <g style="fill: #222222" transform="translate(320.469059 560.237469) scale(0.085 -0.085)">
     <use xlink:href="#DejaVuSans-Bold-35"/>
     <use xlink:href="#DejaVuSans-Bold-34" transform="translate(69.580078 0)"/>
    </g>
   </g>
   <g id="text_81">
    <!-- 63 -->
    <g style="fill: #222222" transform="translate(356.195459 560.237469) scale(0.085 -0.085)">
     <use xlink:href="#DejaVuSans-Bold-36"/>
     <use xlink:href="#DejaVuSans-Bold-33" transform="translate(69.580078 0)"/>
    </g>
   </g>
   <g id="text_82">
    <!-- 72 -->
    <g style="fill: #222222" transform="translate(391.921859 560.237469) scale(0.085 -0.085)">
     <use xlink:href="#DejaVuSans-Bold-37"/>
     <use xlink:href="#DejaVuSans-Bold-32" transform="translate(69.580078 0)"/>
    </g>
   </g>
   <g id="text_83">
    <!-- 81 -->
    <g style="fill: #222222" transform="translate(427.648259 560.237469) scale(0.085 -0.085)">
     <use xlink:href="#DejaVuSans-Bold-38"/>
     <use xlink:href="#DejaVuSans-Bold-31" transform="translate(69.580078 0)"/>
    </g>
   </g>
   <g id="text_84">
    <!-- Le migliori illustrazioni del mondo, -->
    <g style="fill: #1d1d1f" transform="translate(188.037969 661.739384) scale(0.14 -0.14)">
     <defs>
      <path id="DejaVuSans-4c" d="M 628 4666 
L 1259 4666 
L 1259 531 
L 3531 531 
L 3531 0 
L 628 0 
L 628 4666 
z
" transform="scale(0.015625)"/>
      <path id="DejaVuSans-65" d="M 3597 1894 
L 3597 1613 
L 953 1613 
Q 991 1019 1311 708 
Q 1631 397 2203 397 
Q 2534 397 2845 478 
Q 3156 559 3463 722 
L 3463 178 
Q 3153 47 2828 -22 
Q 2503 -91 2169 -91 
Q 1331 -91 842 396 
Q 353 884 353 1716 
Q 353 2575 817 3079 
Q 1281 3584 2069 3584 
Q 2775 3584 3186 3129 
Q 3597 2675 3597 1894 
z
M 3022 2063 
Q 3016 2534 2758 2815 
Q 2500 3097 2075 3097 
Q 1594 3097 1305 2825 
Q 1016 2553 972 2059 
L 3022 2063 
z
" transform="scale(0.015625)"/>
      <path id="DejaVuSans-20" transform="scale(0.015625)"/>
      <path id="DejaVuSans-6d" d="M 3328 2828 
Q 3544 3216 3844 3400 
Q 4144 3584 4550 3584 
Q 5097 3584 5394 3201 
Q 5691 2819 5691 2113 
L 5691 0 
L 5113 0 
L 5113 2094 
Q 5113 2597 4934 2840 
Q 4756 3084 4391 3084 
Q 3944 3084 3684 2787 
Q 3425 2491 3425 1978 
L 3425 0 
L 2847 0 
L 2847 2094 
Q 2847 2600 2669 2842 
Q 2491 3084 2119 3084 
Q 1678 3084 1418 2786 
Q 1159 2488 1159 1978 
L 1159 0 
L 581 0 
L 581 3500 
L 1159 3500 
L 1159 2956 
Q 1356 3278 1631 3431 
Q 1906 3584 2284 3584 
Q 2666 3584 2933 3390 
Q 3200 3197 3328 2828 
z
" transform="scale(0.015625)"/>
      <path id="DejaVuSans-69" d="M 603 3500 
L 1178 3500 
L 1178 0 
L 603 0 
L 603 3500 
z
M 603 4863 
L 1178 4863 
L 1178 4134 
L 603 4134 
L 603 4863 
z
" transform="scale(0.015625)"/>
      <path id="DejaVuSans-67" d="M 2906 1791 
Q 2906 2416 2648 2759 
Q 2391 3103 1925 3103 
Q 1463 3103 1205 2759 
Q 947 2416 947 1791 
Q 947 1169 1205 825 
Q 1463 481 1925 481 
Q 2391 481 2648 825 
Q 2906 1169 2906 1791 
z
M 3481 434 
Q 3481 -459 3084 -895 
Q 2688 -1331 1869 -1331 
Q 1566 -1331 1297 -1286 
Q 1028 -1241 775 -1147 
L 775 -588 
Q 1028 -725 1275 -790 
Q 1522 -856 1778 -856 
Q 2344 -856 2625 -561 
Q 2906 -266 2906 331 
L 2906 616 
Q 2728 306 2450 153 
Q 2172 0 1784 0 
Q 1141 0 747 490 
Q 353 981 353 1791 
Q 353 2603 747 3093 
Q 1141 3584 1784 3584 
Q 2172 3584 2450 3431 
Q 2728 3278 2906 2969 
L 2906 3500 
L 3481 3500 
L 3481 434 
z
" transform="scale(0.015625)"/>
      <path id="DejaVuSans-6c" d="M 603 4863 
L 1178 4863 
L 1178 0 
L 603 0 
L 603 4863 
z
" transform="scale(0.015625)"/>
      <path id="DejaVuSans-6f" d="M 1959 3097 
Q 1497 3097 1228 2736 
Q 959 2375 959 1747 
Q 959 1119 1226 758 
Q 1494 397 1959 397 
Q 2419 397 2687 759 
Q 2956 1122 2956 1747 
Q 2956 2369 2687 2733 
Q 2419 3097 1959 3097 
z
M 1959 3584 
Q 2709 3584 3137 3096 
Q 3566 2609 3566 1747 
Q 3566 888 3137 398 
Q 2709 -91 1959 -91 
Q 1206 -91 779 398 
Q 353 888 353 1747 
Q 353 2609 779 3096 
Q 1206 3584 1959 3584 
z
" transform="scale(0.015625)"/>
      <path id="DejaVuSans-72" d="M 2631 2963 
Q 2534 3019 2420 3045 
Q 2306 3072 2169 3072 
Q 1681 3072 1420 2755 
Q 1159 2438 1159 1844 
L 1159 0 
L 581 0 
L 581 3500 
L 1159 3500 
L 1159 2956 
Q 1341 3275 1631 3429 
Q 1922 3584 2338 3584 
Q 2397 3584 2469 3576 
Q 2541 3569 2628 3553 
L 2631 2963 
z
" transform="scale(0.015625)"/>
      <path id="DejaVuSans-75" d="M 544 1381 
L 544 3500 
L 1119 3500 
L 1119 1403 
Q 1119 906 1312 657 
Q 1506 409 1894 409 
Q 2359 409 2629 706 
Q 2900 1003 2900 1516 
L 2900 3500 
L 3475 3500 
L 3475 0 
L 2900 0 
L 2900 538 
Q 2691 219 2414 64 
Q 2138 -91 1772 -91 
Q 1169 -91 856 284 
Q 544 659 544 1381 
z
M 1991 3584 
L 1991 3584 
z
" transform="scale(0.015625)"/>
      <path id="DejaVuSans-73" d="M 2834 3397 
L 2834 2853 
Q 2591 2978 2328 3040 
Q 2066 3103 1784 3103 
Q 1356 3103 1142 2972 
Q 928 2841 928 2578 
Q 928 2378 1081 2264 
Q 1234 2150 1697 2047 
L 1894 2003 
Q 2506 1872 2764 1633 
Q 3022 1394 3022 966 
Q 3022 478 2636 193 
Q 2250 -91 1575 -91 
Q 1294 -91 989 -36 
Q 684 19 347 128 
L 347 722 
Q 666 556 975 473 
Q 1284 391 1588 391 
Q 1994 391 2212 530 
Q 2431 669 2431 922 
Q 2431 1156 2273 1281 
Q 2116 1406 1581 1522 
L 1381 1569 
Q 847 1681 609 1914 
Q 372 2147 372 2553 
Q 372 3047 722 3315 
Q 1072 3584 1716 3584 
Q 2034 3584 2315 3537 
Q 2597 3491 2834 3397 
z
" transform="scale(0.015625)"/>
      <path id="DejaVuSans-74" d="M 1172 4494 
L 1172 3500 
L 2356 3500 
L 2356 3053 
L 1172 3053 
L 1172 1153 
Q 1172 725 1289 603 
Q 1406 481 1766 481 
L 2356 481 
L 2356 0 
L 1766 0 
Q 1100 0 847 248 
Q 594 497 594 1153 
L 594 3053 
L 172 3053 
L 172 3500 
L 594 3500 
L 594 4494 
L 1172 4494 
z
" transform="scale(0.015625)"/>
      <path id="DejaVuSans-61" d="M 2194 1759 
Q 1497 1759 1228 1600 
Q 959 1441 959 1056 
Q 959 750 1161 570 
Q 1363 391 1709 391 
Q 2188 391 2477 730 
Q 2766 1069 2766 1631 
L 2766 1759 
L 2194 1759 
z
M 3341 1997 
L 3341 0 
L 2766 0 
L 2766 531 
Q 2569 213 2275 61 
Q 1981 -91 1556 -91 
Q 1019 -91 701 211 
Q 384 513 384 1019 
Q 384 1609 779 1909 
Q 1175 2209 1959 2209 
L 2766 2209 
L 2766 2266 
Q 2766 2663 2505 2880 
Q 2244 3097 1772 3097 
Q 1472 3097 1187 3025 
Q 903 2953 641 2809 
L 641 3341 
Q 956 3463 1253 3523 
Q 1550 3584 1831 3584 
Q 2591 3584 2966 3190 
Q 3341 2797 3341 1997 
z
" transform="scale(0.015625)"/>
      <path id="DejaVuSans-7a" d="M 353 3500 
L 3084 3500 
L 3084 2975 
L 922 459 
L 3084 459 
L 3084 0 
L 275 0 
L 275 525 
L 2438 3041 
L 353 3041 
L 353 3500 
z
" transform="scale(0.015625)"/>
      <path id="DejaVuSans-6e" d="M 3513 2113 
L 3513 0 
L 2938 0 
L 2938 2094 
Q 2938 2591 2744 2837 
Q 2550 3084 2163 3084 
Q 1697 3084 1428 2787 
Q 1159 2491 1159 1978 
L 1159 0 
L 581 0 
L 581 3500 
L 1159 3500 
L 1159 2956 
Q 1366 3272 1645 3428 
Q 1925 3584 2291 3584 
Q 2894 3584 3203 3211 
Q 3513 2838 3513 2113 
z
" transform="scale(0.015625)"/>
      <path id="DejaVuSans-64" d="M 2906 2969 
L 2906 4863 
L 3481 4863 
L 3481 0 
L 2906 0 
L 2906 525 
Q 2725 213 2448 61 
Q 2172 -91 1784 -91 
Q 1150 -91 751 415 
Q 353 922 353 1747 
Q 353 2572 751 3078 
Q 1150 3584 1784 3584 
Q 2172 3584 2448 3432 
Q 2725 3281 2906 2969 
z
M 947 1747 
Q 947 1113 1208 752 
Q 1469 391 1925 391 
Q 2381 391 2643 752 
Q 2906 1113 2906 1747 
Q 2906 2381 2643 2742 
Q 2381 3103 1925 3103 
Q 1469 3103 1208 2742 
Q 947 2381 947 1747 
z
" transform="scale(0.015625)"/>
      <path id="DejaVuSans-2c" d="M 750 794 
L 1409 794 
L 1409 256 
L 897 -744 
L 494 -744 
L 750 256 
L 750 794 
z
" transform="scale(0.015625)"/>
     </defs>
     <use xlink:href="#DejaVuSans-4c"/>
     <use xlink:href="#DejaVuSans-65" transform="translate(53.962891 0)"/>
     <use xlink:href="#DejaVuSans-20" transform="translate(115.486328 0)"/>
     <use xlink:href="#DejaVuSans-6d" transform="translate(147.273438 0)"/>
     <use xlink:href="#DejaVuSans-69" transform="translate(244.685547 0)"/>
     <use xlink:href="#DejaVuSans-67" transform="translate(272.46875 0)"/>
     <use xlink:href="#DejaVuSans-6c" transform="translate(335.945312 0)"/>
     <use xlink:href="#DejaVuSans-69" transform="translate(363.728516 0)"/>
     <use xlink:href="#DejaVuSans-6f" transform="translate(391.511719 0)"/>
     <use xlink:href="#DejaVuSans-72" transform="translate(452.693359 0)"/>
     <use xlink:href="#DejaVuSans-69" transform="translate(493.806641 0)"/>
     <use xlink:href="#DejaVuSans-20" transform="translate(521.589844 0)"/>
     <use xlink:href="#DejaVuSans-69" transform="translate(553.376953 0)"/>
     <use xlink:href="#DejaVuSans-6c" transform="translate(581.160156 0)"/>
     <use xlink:href="#DejaVuSans-6c" transform="translate(608.943359 0)"/>
     <use xlink:href="#DejaVuSans-75" transform="translate(636.726562 0)"/>
     <use xlink:href="#DejaVuSans-73" transform="translate(700.105469 0)"/>
     <use xlink:href="#DejaVuSans-74" transform="translate(752.205078 0)"/>
     <use xlink:href="#DejaVuSans-72" transform="translate(791.414062 0)"/>
     <use xlink:href="#DejaVuSans-61" transform="translate(832.527344 0)"/>
     <use xlink:href="#DejaVuSans-7a" transform="translate(893.806641 0)"/>
     <use xlink:href="#DejaVuSans-69" transform="translate(946.296875 0)"/>
     <use xlink:href="#DejaVuSans-6f" transform="translate(974.080078 0)"/>
     <use xlink:href="#DejaVuSans-6e" transform="translate(1035.261719 0)"/>
     <use xlink:href="#DejaVuSans-69" transform="translate(1098.640625 0)"/>
     <use xlink:href="#DejaVuSans-20" transform="translate(1126.423828 0)"/>
     <use xlink:href="#DejaVuSans-64" transform="translate(1158.210938 0)"/>
     <use xlink:href="#DejaVuSans-65" transform="translate(1221.6875 0)"/>
     <use xlink:href="#DejaVuSans-6c" transform="translate(1283.210938 0)"/>
     <use xlink:href="#DejaVuSans-20" transform="translate(1310.994141 0)"/>
     <use xlink:href="#DejaVuSans-6d" transform="translate(1342.78125 0)"/>
     <use xlink:href="#DejaVuSans-6f" transform="translate(1440.193359 0)"/>
     <use xlink:href="#DejaVuSans-6e" transform="translate(1501.375 0)"/>
     <use xlink:href="#DejaVuSans-64" transform="translate(1564.753906 0)"/>
     <use xlink:href="#DejaVuSans-6f" transform="translate(1628.230469 0)"/>
     <use xlink:href="#DejaVuSans-2c" transform="translate(1689.412109 0)"/>
    </g>
    <!-- adattate per insegnare a una bambina di 8 anni -->
    <g style="fill: #1d1d1f" transform="translate(140.641406 680.607666) scale(0.14 -0.14)">
     <defs>
      <path id="DejaVuSans-70" d="M 1159 525 
L 1159 -1331 
L 581 -1331 
L 581 3500 
L 1159 3500 
L 1159 2969 
Q 1341 3281 1617 3432 
Q 1894 3584 2278 3584 
Q 2916 3584 3314 3078 
Q 3713 2572 3713 1747 
Q 3713 922 3314 415 
Q 2916 -91 2278 -91 
Q 1894 -91 1617 61 
Q 1341 213 1159 525 
z
M 3116 1747 
Q 3116 2381 2855 2742 
Q 2594 3103 2138 3103 
Q 1681 3103 1420 2742 
Q 1159 2381 1159 1747 
Q 1159 1113 1420 752 
Q 1681 391 2138 391 
Q 2594 391 2855 752 
Q 3116 1113 3116 1747 
z
" transform="scale(0.015625)"/>
      <path id="DejaVuSans-62" d="M 3116 1747 
Q 3116 2381 2855 2742 
Q 2594 3103 2138 3103 
Q 1681 3103 1420 2742 
Q 1159 2381 1159 1747 
Q 1159 1113 1420 752 
Q 1681 391 2138 391 
Q 2594 391 2855 752 
Q 3116 1113 3116 1747 
z
M 1159 2969 
Q 1341 3281 1617 3432 
Q 1894 3584 2278 3584 
Q 2916 3584 3314 3078 
Q 3713 2572 3713 1747 
Q 3713 922 3314 415 
Q 2916 -91 2278 -91 
Q 1894 -91 1617 61 
Q 1341 213 1159 525 
L 1159 0 
L 581 0 
L 581 4863 
L 1159 4863 
L 1159 2969 
z
" transform="scale(0.015625)"/>
      <path id="DejaVuSans-38" d="M 2034 2216 
Q 1584 2216 1326 1975 
Q 1069 1734 1069 1313 
Q 1069 891 1326 650 
Q 1584 409 2034 409 
Q 2484 409 2743 651 
Q 3003 894 3003 1313 
Q 3003 1734 2745 1975 
Q 2488 2216 2034 2216 
z
M 1403 2484 
Q 997 2584 770 2862 
Q 544 3141 544 3541 
Q 544 4100 942 4425 
Q 1341 4750 2034 4750 
Q 2731 4750 3128 4425 
Q 3525 4100 3525 3541 
Q 3525 3141 3298 2862 
Q 3072 2584 2669 2484 
Q 3125 2378 3379 2068 
Q 3634 1759 3634 1313 
Q 3634 634 3220 271 
Q 2806 -91 2034 -91 
Q 1263 -91 848 271 
Q 434 634 434 1313 
Q 434 1759 690 2068 
Q 947 2378 1403 2484 
z
M 1172 3481 
Q 1172 3119 1398 2916 
Q 1625 2713 2034 2713 
Q 2441 2713 2670 2916 
Q 2900 3119 2900 3481 
Q 2900 3844 2670 4047 
Q 2441 4250 2034 4250 
Q 1625 4250 1398 4047 
Q 1172 3844 1172 3481 
z
" transform="scale(0.015625)"/>
     </defs>
     <use xlink:href="#DejaVuSans-61"/>
     <use xlink:href="#DejaVuSans-64" transform="translate(61.279297 0)"/>
     <use xlink:href="#DejaVuSans-61" transform="translate(124.755859 0)"/>
     <use xlink:href="#DejaVuSans-74" transform="translate(186.035156 0)"/>
     <use xlink:href="#DejaVuSans-74" transform="translate(225.244141 0)"/>
     <use xlink:href="#DejaVuSans-61" transform="translate(264.453125 0)"/>
     <use xlink:href="#DejaVuSans-74" transform="translate(325.732422 0)"/>
     <use xlink:href="#DejaVuSans-65" transform="translate(364.941406 0)"/>
     <use xlink:href="#DejaVuSans-20" transform="translate(426.464844 0)"/>
     <use xlink:href="#DejaVuSans-70" transform="translate(458.251953 0)"/>
     <use xlink:href="#DejaVuSans-65" transform="translate(521.728516 0)"/>
     <use xlink:href="#DejaVuSans-72" transform="translate(583.251953 0)"/>
     <use xlink:href="#DejaVuSans-20" transform="translate(624.365234 0)"/>
     <use xlink:href="#DejaVuSans-69" transform="translate(656.152344 0)"/>
     <use xlink:href="#DejaVuSans-6e" transform="translate(683.935547 0)"/>
     <use xlink:href="#DejaVuSans-73" transform="translate(747.314453 0)"/>
     <use xlink:href="#DejaVuSans-65" transform="translate(799.414062 0)"/>
     <use xlink:href="#DejaVuSans-67" transform="translate(860.9375 0)"/>
     <use xlink:href="#DejaVuSans-6e" transform="translate(924.414062 0)"/>
     <use xlink:href="#DejaVuSans-61" transform="translate(987.792969 0)"/>
     <use xlink:href="#DejaVuSans-72" transform="translate(1049.072266 0)"/>
     <use xlink:href="#DejaVuSans-65" transform="translate(1087.935547 0)"/>
     <use xlink:href="#DejaVuSans-20" transform="translate(1149.458984 0)"/>
     <use xlink:href="#DejaVuSans-61" transform="translate(1181.246094 0)"/>
     <use xlink:href="#DejaVuSans-20" transform="translate(1242.525391 0)"/>
     <use xlink:href="#DejaVuSans-75" transform="translate(1274.3125 0)"/>
     <use xlink:href="#DejaVuSans-6e" transform="translate(1337.691406 0)"/>
     <use xlink:href="#DejaVuSans-61" transform="translate(1401.070312 0)"/>
     <use xlink:href="#DejaVuSans-20" transform="translate(1462.349609 0)"/>
     <use xlink:href="#DejaVuSans-62" transform="translate(1494.136719 0)"/>
     <use xlink:href="#DejaVuSans-61" transform="translate(1557.613281 0)"/>
     <use xlink:href="#DejaVuSans-6d" transform="translate(1618.892578 0)"/>
     <use xlink:href="#DejaVuSans-62" transform="translate(1716.304688 0)"/>
     <use xlink:href="#DejaVuSans-69" transform="translate(1779.78125 0)"/>
     <use xlink:href="#DejaVuSans-6e" transform="translate(1807.564453 0)"/>
     <use xlink:href="#DejaVuSans-61" transform="translate(1870.943359 0)"/>
     <use xlink:href="#DejaVuSans-20" transform="translate(1932.222656 0)"/>
     <use xlink:href="#DejaVuSans-64" transform="translate(1964.009766 0)"/>
     <use xlink:href="#DejaVuSans-69" transform="translate(2027.486328 0)"/>
     <use xlink:href="#DejaVuSans-20" transform="translate(2055.269531 0)"/>
     <use xlink:href="#DejaVuSans-38" transform="translate(2087.056641 0)"/>
     <use xlink:href="#DejaVuSans-20" transform="translate(2150.679688 0)"/>
     <use xlink:href="#DejaVuSans-61" transform="translate(2182.466797 0)"/>
     <use xlink:href="#DejaVuSans-6e" transform="translate(2243.746094 0)"/>
     <use xlink:href="#DejaVuSans-6e" transform="translate(2307.125 0)"/>
     <use xlink:href="#DejaVuSans-69" transform="translate(2370.503906 0)"/>
    </g>
   </g>
   <g id="text_85">
    <!-- Trucco del 9 · Schieramenti · Distributiva · Sakuranbo · Bar Model -->
    <g style="fill: #6e7781" transform="translate(145.427031 756.834187) scale(0.1 -0.1)">
     <defs>
      <path id="DejaVuSans-54" d="M -19 4666 
L 3928 4666 
L 3928 4134 
L 2272 4134 
L 2272 0 
L 1638 0 
L 1638 4134 
L -19 4134 
L -19 4666 
z
" transform="scale(0.015625)"/>
      <path id="DejaVuSans-63" d="M 3122 3366 
L 3122 2828 
Q 2878 2963 2633 3030 
Q 2388 3097 2138 3097 
Q 1578 3097 1268 2742 
Q 959 2388 959 1747 
Q 959 1106 1268 751 
Q 1578 397 2138 397 
Q 2388 397 2633 464 
Q 2878 531 3122 666 
L 3122 134 
Q 2881 22 2623 -34 
Q 2366 -91 2075 -91 
Q 1284 -91 818 406 
Q 353 903 353 1747 
Q 353 2603 823 3093 
Q 1294 3584 2113 3584 
Q 2378 3584 2631 3529 
Q 2884 3475 3122 3366 
z
" transform="scale(0.015625)"/>
      <path id="DejaVuSans-39" d="M 703 97 
L 703 672 
Q 941 559 1184 500 
Q 1428 441 1663 441 
Q 2288 441 2617 861 
Q 2947 1281 2994 2138 
Q 2813 1869 2534 1725 
Q 2256 1581 1919 1581 
Q 1219 1581 811 2004 
Q 403 2428 403 3163 
Q 403 3881 828 4315 
Q 1253 4750 1959 4750 
Q 2769 4750 3195 4129 
Q 3622 3509 3622 2328 
Q 3622 1225 3098 567 
Q 2575 -91 1691 -91 
Q 1453 -91 1209 -44 
Q 966 3 703 97 
z
M 1959 2075 
Q 2384 2075 2632 2365 
Q 2881 2656 2881 3163 
Q 2881 3666 2632 3958 
Q 2384 4250 1959 4250 
Q 1534 4250 1286 3958 
Q 1038 3666 1038 3163 
Q 1038 2656 1286 2365 
Q 1534 2075 1959 2075 
z
" transform="scale(0.015625)"/>
      <path id="DejaVuSans-b7" d="M 684 2619 
L 1344 2619 
L 1344 1825 
L 684 1825 
L 684 2619 
z
" transform="scale(0.015625)"/>
      <path id="DejaVuSans-53" d="M 3425 4513 
L 3425 3897 
Q 3066 4069 2747 4153 
Q 2428 4238 2131 4238 
Q 1616 4238 1336 4038 
Q 1056 3838 1056 3469 
Q 1056 3159 1242 3001 
Q 1428 2844 1947 2747 
L 2328 2669 
Q 3034 2534 3370 2195 
Q 3706 1856 3706 1288 
Q 3706 609 3251 259 
Q 2797 -91 1919 -91 
Q 1588 -91 1214 -16 
Q 841 59 441 206 
L 441 856 
Q 825 641 1194 531 
Q 1563 422 1919 422 
Q 2459 422 2753 634 
Q 3047 847 3047 1241 
Q 3047 1584 2836 1778 
Q 2625 1972 2144 2069 
L 1759 2144 
Q 1053 2284 737 2584 
Q 422 2884 422 3419 
Q 422 4038 858 4394 
Q 1294 4750 2059 4750 
Q 2388 4750 2728 4690 
Q 3069 4631 3425 4513 
z
" transform="scale(0.015625)"/>
      <path id="DejaVuSans-68" d="M 3513 2113 
L 3513 0 
L 2938 0 
L 2938 2094 
Q 2938 2591 2744 2837 
Q 2550 3084 2163 3084 
Q 1697 3084 1428 2787 
Q 1159 2491 1159 1978 
L 1159 0 
L 581 0 
L 581 4863 
L 1159 4863 
L 1159 2956 
Q 1366 3272 1645 3428 
Q 1925 3584 2291 3584 
Q 2894 3584 3203 3211 
Q 3513 2838 3513 2113 
z
" transform="scale(0.015625)"/>
      <path id="DejaVuSans-44" d="M 1259 4147 
L 1259 519 
L 2022 519 
Q 2988 519 3436 956 
Q 3884 1394 3884 2338 
Q 3884 3275 3436 3711 
Q 2988 4147 2022 4147 
L 1259 4147 
z
M 628 4666 
L 1925 4666 
Q 3281 4666 3915 4102 
Q 4550 3538 4550 2338 
Q 4550 1131 3912 565 
Q 3275 0 1925 0 
L 628 0 
L 628 4666 
z
" transform="scale(0.015625)"/>
      <path id="DejaVuSans-76" d="M 191 3500 
L 800 3500 
L 1894 563 
L 2988 3500 
L 3597 3500 
L 2284 0 
L 1503 0 
L 191 3500 
z
" transform="scale(0.015625)"/>
      <path id="DejaVuSans-6b" d="M 581 4863 
L 1159 4863 
L 1159 1991 
L 2875 3500 
L 3609 3500 
L 1753 1863 
L 3688 0 
L 2938 0 
L 1159 1709 
L 1159 0 
L 581 0 
L 581 4863 
z
" transform="scale(0.015625)"/>
      <path id="DejaVuSans-42" d="M 1259 2228 
L 1259 519 
L 2272 519 
Q 2781 519 3026 730 
Q 3272 941 3272 1375 
Q 3272 1813 3026 2020 
Q 2781 2228 2272 2228 
L 1259 2228 
z
M 1259 4147 
L 1259 2741 
L 2194 2741 
Q 2656 2741 2882 2914 
Q 3109 3088 3109 3444 
Q 3109 3797 2882 3972 
Q 2656 4147 2194 4147 
L 1259 4147 
z
M 628 4666 
L 2241 4666 
Q 2963 4666 3353 4366 
Q 3744 4066 3744 3513 
Q 3744 3084 3544 2831 
Q 3344 2578 2956 2516 
Q 3422 2416 3680 2098 
Q 3938 1781 3938 1306 
Q 3938 681 3513 340 
Q 3088 0 2303 0 
L 628 0 
L 628 4666 
z
" transform="scale(0.015625)"/>
      <path id="DejaVuSans-4d" d="M 628 4666 
L 1569 4666 
L 2759 1491 
L 3956 4666 
L 4897 4666 
L 4897 0 
L 4281 0 
L 4281 4097 
L 3078 897 
L 2444 897 
L 1241 4097 
L 1241 0 
L 628 0 
L 628 4666 
z
" transform="scale(0.015625)"/>
     </defs>
     <use xlink:href="#DejaVuSans-54"/>
     <use xlink:href="#DejaVuSans-72" transform="translate(46.333984 0)"/>
     <use xlink:href="#DejaVuSans-75" transform="translate(87.447266 0)"/>
     <use xlink:href="#DejaVuSans-63" transform="translate(150.826172 0)"/>
     <use xlink:href="#DejaVuSans-63" transform="translate(205.806641 0)"/>
     <use xlink:href="#DejaVuSans-6f" transform="translate(260.787109 0)"/>
     <use xlink:href="#DejaVuSans-20" transform="translate(321.96875 0)"/>
     <use xlink:href="#DejaVuSans-64" transform="translate(353.755859 0)"/>
     <use xlink:href="#DejaVuSans-65" transform="translate(417.232422 0)"/>
     <use xlink:href="#DejaVuSans-6c" transform="translate(478.755859 0)"/>
     <use xlink:href="#DejaVuSans-20" transform="translate(506.539062 0)"/>
     <use xlink:href="#DejaVuSans-39" transform="translate(538.326172 0)"/>
     <use xlink:href="#DejaVuSans-20" transform="translate(601.949219 0)"/>
     <use xlink:href="#DejaVuSans-b7" transform="translate(633.736328 0)"/>
     <use xlink:href="#DejaVuSans-20" transform="translate(665.523438 0)"/>
     <use xlink:href="#DejaVuSans-53" transform="translate(697.310547 0)"/>
     <use xlink:href="#DejaVuSans-63" transform="translate(760.787109 0)"/>
     <use xlink:href="#DejaVuSans-68" transform="translate(815.767578 0)"/>
     <use xlink:href="#DejaVuSans-69" transform="translate(879.146484 0)"/>
     <use xlink:href="#DejaVuSans-65" transform="translate(906.929688 0)"/>
     <use xlink:href="#DejaVuSans-72" transform="translate(968.453125 0)"/>
     <use xlink:href="#DejaVuSans-61" transform="translate(1009.566406 0)"/>
     <use xlink:href="#DejaVuSans-6d" transform="translate(1070.845703 0)"/>
     <use xlink:href="#DejaVuSans-65" transform="translate(1168.257812 0)"/>
     <use xlink:href="#DejaVuSans-6e" transform="translate(1229.78125 0)"/>
     <use xlink:href="#DejaVuSans-74" transform="translate(1293.160156 0)"/>
     <use xlink:href="#DejaVuSans-69" transform="translate(1332.369141 0)"/>
     <use xlink:href="#DejaVuSans-20" transform="translate(1360.152344 0)"/>
     <use xlink:href="#DejaVuSans-b7" transform="translate(1391.939453 0)"/>
     <use xlink:href="#DejaVuSans-20" transform="translate(1423.726562 0)"/>
     <use xlink:href="#DejaVuSans-44" transform="translate(1455.513672 0)"/>
     <use xlink:href="#DejaVuSans-69" transform="translate(1532.515625 0)"/>
     <use xlink:href="#DejaVuSans-73" transform="translate(1560.298828 0)"/>
     <use xlink:href="#DejaVuSans-74" transform="translate(1612.398438 0)"/>
     <use xlink:href="#DejaVuSans-72" transform="translate(1651.607422 0)"/>
     <use xlink:href="#DejaVuSans-69" transform="translate(1692.720703 0)"/>
     <use xlink:href="#DejaVuSans-62" transform="translate(1720.503906 0)"/>
     <use xlink:href="#DejaVuSans-75" transform="translate(1783.980469 0)"/>
     <use xlink:href="#DejaVuSans-74" transform="translate(1847.359375 0)"/>
     <use xlink:href="#DejaVuSans-69" transform="translate(1886.568359 0)"/>
     <use xlink:href="#DejaVuSans-76" transform="translate(1914.351562 0)"/>
     <use xlink:href="#DejaVuSans-61" transform="translate(1973.53125 0)"/>
     <use xlink:href="#DejaVuSans-20" transform="translate(2034.810547 0)"/>
     <use xlink:href="#DejaVuSans-b7" transform="translate(2066.597656 0)"/>
     <use xlink:href="#DejaVuSans-20" transform="translate(2098.384766 0)"/>
     <use xlink:href="#DejaVuSans-53" transform="translate(2130.171875 0)"/>
     <use xlink:href="#DejaVuSans-61" transform="translate(2193.648438 0)"/>
     <use xlink:href="#DejaVuSans-6b" transform="translate(2254.927734 0)"/>
     <use xlink:href="#DejaVuSans-75" transform="translate(2309.712891 0)"/>
     <use xlink:href="#DejaVuSans-72" transform="translate(2373.091797 0)"/>
     <use xlink:href="#DejaVuSans-61" transform="translate(2414.205078 0)"/>
     <use xlink:href="#DejaVuSans-6e" transform="translate(2475.484375 0)"/>
     <use xlink:href="#DejaVuSans-62" transform="translate(2538.863281 0)"/>
     <use xlink:href="#DejaVuSans-6f" transform="translate(2602.339844 0)"/>
     <use xlink:href="#DejaVuSans-20" transform="translate(2663.521484 0)"/>
     <use xlink:href="#DejaVuSans-b7" transform="translate(2695.308594 0)"/>
     <use xlink:href="#DejaVuSans-20" transform="translate(2727.095703 0)"/>
     <use xlink:href="#DejaVuSans-42" transform="translate(2758.882812 0)"/>
     <use xlink:href="#DejaVuSans-61" transform="translate(2827.486328 0)"/>
     <use xlink:href="#DejaVuSans-72" transform="translate(2888.765625 0)"/>
     <use xlink:href="#DejaVuSans-20" transform="translate(2929.878906 0)"/>
     <use xlink:href="#DejaVuSans-4d" transform="translate(2961.666016 0)"/>
     <use xlink:href="#DejaVuSans-6f" transform="translate(3047.945312 0)"/>
     <use xlink:href="#DejaVuSans-64" transform="translate(3109.126953 0)"/>
     <use xlink:href="#DejaVuSans-65" transform="translate(3172.603516 0)"/>
     <use xlink:href="#DejaVuSans-6c" transform="translate(3234.126953 0)"/>
    </g>
    <!-- Tavola pitagorica colorata · Moltiplicazione egiziana · Yupana inca · Nikhilam vedico -->
    <g style="fill: #6e7781" transform="translate(100.079375 771.071375) scale(0.1 -0.1)">
     <defs>
      <path id="DejaVuSans-59" d="M -13 4666 
L 666 4666 
L 1959 2747 
L 3244 4666 
L 3922 4666 
L 2272 2222 
L 2272 0 
L 1638 0 
L 1638 2222 
L -13 4666 
z
" transform="scale(0.015625)"/>
      <path id="DejaVuSans-4e" d="M 628 4666 
L 1478 4666 
L 3547 763 
L 3547 4666 
L 4159 4666 
L 4159 0 
L 3309 0 
L 1241 3903 
L 1241 0 
L 628 0 
L 628 4666 
z
" transform="scale(0.015625)"/>
     </defs>
     <use xlink:href="#DejaVuSans-54"/>
     <use xlink:href="#DejaVuSans-61" transform="translate(44.583984 0)"/>
     <use xlink:href="#DejaVuSans-76" transform="translate(105.863281 0)"/>
     <use xlink:href="#DejaVuSans-6f" transform="translate(165.042969 0)"/>
     <use xlink:href="#DejaVuSans-6c" transform="translate(226.224609 0)"/>
     <use xlink:href="#DejaVuSans-61" transform="translate(254.007812 0)"/>
     <use xlink:href="#DejaVuSans-20" transform="translate(315.287109 0)"/>
     <use xlink:href="#DejaVuSans-70" transform="translate(347.074219 0)"/>
     <use xlink:href="#DejaVuSans-69" transform="translate(410.550781 0)"/>
     <use xlink:href="#DejaVuSans-74" transform="translate(438.333984 0)"/>
     <use xlink:href="#DejaVuSans-61" transform="translate(477.542969 0)"/>
     <use xlink:href="#DejaVuSans-67" transform="translate(538.822266 0)"/>
     <use xlink:href="#DejaVuSans-6f" transform="translate(602.298828 0)"/>
     <use xlink:href="#DejaVuSans-72" transform="translate(663.480469 0)"/>
     <use xlink:href="#DejaVuSans-69" transform="translate(704.59375 0)"/>
     <use xlink:href="#DejaVuSans-63" transform="translate(732.376953 0)"/>
     <use xlink:href="#DejaVuSans-61" transform="translate(787.357422 0)"/>
     <use xlink:href="#DejaVuSans-20" transform="translate(848.636719 0)"/>
     <use xlink:href="#DejaVuSans-63" transform="translate(880.423828 0)"/>
     <use xlink:href="#DejaVuSans-6f" transform="translate(935.404297 0)"/>
     <use xlink:href="#DejaVuSans-6c" transform="translate(996.585938 0)"/>
     <use xlink:href="#DejaVuSans-6f" transform="translate(1024.369141 0)"/>
     <use xlink:href="#DejaVuSans-72" transform="translate(1085.550781 0)"/>
     <use xlink:href="#DejaVuSans-61" transform="translate(1126.664062 0)"/>
     <use xlink:href="#DejaVuSans-74" transform="translate(1187.943359 0)"/>
     <use xlink:href="#DejaVuSans-61" transform="translate(1227.152344 0)"/>
     <use xlink:href="#DejaVuSans-20" transform="translate(1288.431641 0)"/>
     <use xlink:href="#DejaVuSans-b7" transform="translate(1320.21875 0)"/>
     <use xlink:href="#DejaVuSans-20" transform="translate(1352.005859 0)"/>
     <use xlink:href="#DejaVuSans-4d" transform="translate(1383.792969 0)"/>
     <use xlink:href="#DejaVuSans-6f" transform="translate(1470.072266 0)"/>
     <use xlink:href="#DejaVuSans-6c" transform="translate(1531.253906 0)"/>
     <use xlink:href="#DejaVuSans-74" transform="translate(1559.037109 0)"/>
     <use xlink:href="#DejaVuSans-69" transform="translate(1598.246094 0)"/>
     <use xlink:href="#DejaVuSans-70" transform="translate(1626.029297 0)"/>
     <use xlink:href="#DejaVuSans-6c" transform="translate(1689.505859 0)"/>
     <use xlink:href="#DejaVuSans-69" transform="translate(1717.289062 0)"/>
     <use xlink:href="#DejaVuSans-63" transform="translate(1745.072266 0)"/>
     <use xlink:href="#DejaVuSans-61" transform="translate(1800.052734 0)"/>
     <use xlink:href="#DejaVuSans-7a" transform="translate(1861.332031 0)"/>
     <use xlink:href="#DejaVuSans-69" transform="translate(1913.822266 0)"/>
     <use xlink:href="#DejaVuSans-6f" transform="translate(1941.605469 0)"/>
     <use xlink:href="#DejaVuSans-6e" transform="translate(2002.787109 0)"/>
     <use xlink:href="#DejaVuSans-65" transform="translate(2066.166016 0)"/>
     <use xlink:href="#DejaVuSans-20" transform="translate(2127.689453 0)"/>
     <use xlink:href="#DejaVuSans-65" transform="translate(2159.476562 0)"/>
     <use xlink:href="#DejaVuSans-67" transform="translate(2221 0)"/>
     <use xlink:href="#DejaVuSans-69" transform="translate(2284.476562 0)"/>
     <use xlink:href="#DejaVuSans-7a" transform="translate(2312.259766 0)"/>
     <use xlink:href="#DejaVuSans-69" transform="translate(2364.75 0)"/>
     <use xlink:href="#DejaVuSans-61" transform="translate(2392.533203 0)"/>
     <use xlink:href="#DejaVuSans-6e" transform="translate(2453.8125 0)"/>
     <use xlink:href="#DejaVuSans-61" transform="translate(2517.191406 0)"/>
     <use xlink:href="#DejaVuSans-20" transform="translate(2578.470703 0)"/>
     <use xlink:href="#DejaVuSans-b7" transform="translate(2610.257812 0)"/>
     <use xlink:href="#DejaVuSans-20" transform="translate(2642.044922 0)"/>
     <use xlink:href="#DejaVuSans-59" transform="translate(2673.832031 0)"/>
     <use xlink:href="#DejaVuSans-75" transform="translate(2723.416016 0)"/>
     <use xlink:href="#DejaVuSans-70" transform="translate(2786.794922 0)"/>
     <use xlink:href="#DejaVuSans-61" transform="translate(2850.271484 0)"/>
     <use xlink:href="#DejaVuSans-6e" transform="translate(2911.550781 0)"/>
     <use xlink:href="#DejaVuSans-61" transform="translate(2974.929688 0)"/>
     <use xlink:href="#DejaVuSans-20" transform="translate(3036.208984 0)"/>
     <use xlink:href="#DejaVuSans-69" transform="translate(3067.996094 0)"/>
     <use xlink:href="#DejaVuSans-6e" transform="translate(3095.779297 0)"/>
     <use xlink:href="#DejaVuSans-63" transform="translate(3159.158203 0)"/>
     <use xlink:href="#DejaVuSans-61" transform="translate(3214.138672 0)"/>
     <use xlink:href="#DejaVuSans-20" transform="translate(3275.417969 0)"/>
     <use xlink:href="#DejaVuSans-b7" transform="translate(3307.205078 0)"/>
     <use xlink:href="#DejaVuSans-20" transform="translate(3338.992188 0)"/>
     <use xlink:href="#DejaVuSans-4e" transform="translate(3370.779297 0)"/>
     <use xlink:href="#DejaVuSans-69" transform="translate(3445.583984 0)"/>
     <use xlink:href="#DejaVuSans-6b" transform="translate(3473.367188 0)"/>
     <use xlink:href="#DejaVuSans-68" transform="translate(3531.277344 0)"/>
     <use xlink:href="#DejaVuSans-69" transform="translate(3594.65625 0)"/>
     <use xlink:href="#DejaVuSans-6c" transform="translate(3622.439453 0)"/>
     <use xlink:href="#DejaVuSans-61" transform="translate(3650.222656 0)"/>
     <use xlink:href="#DejaVuSans-6d" transform="translate(3711.501953 0)"/>
     <use xlink:href="#DejaVuSans-20" transform="translate(3808.914062 0)"/>
     <use xlink:href="#DejaVuSans-76" transform="translate(3840.701172 0)"/>
     <use xlink:href="#DejaVuSans-65" transform="translate(3899.880859 0)"/>
     <use xlink:href="#DejaVuSans-64" transform="translate(3961.404297 0)"/>
     <use xlink:href="#DejaVuSans-69" transform="translate(4024.880859 0)"/>
     <use xlink:href="#DejaVuSans-63" transform="translate(4052.664062 0)"/>
     <use xlink:href="#DejaVuSans-6f" transform="translate(4107.644531 0)"/>
    </g>
    <!-- Skip counting · Number bonds · Area model · Doubling &amp; Halving · Rekenrek -->
    <g style="fill: #6e7781" transform="translate(118.316875 785.308562) scale(0.1 -0.1)">
     <defs>
      <path id="DejaVuSans-41" d="M 2188 4044 
L 1331 1722 
L 3047 1722 
L 2188 4044 
z
M 1831 4666 
L 2547 4666 
L 4325 0 
L 3669 0 
L 3244 1197 
L 1141 1197 
L 716 0 
L 50 0 
L 1831 4666 
z
" transform="scale(0.015625)"/>
      <path id="DejaVuSans-26" d="M 1556 2509 
Q 1272 2256 1139 2004 
Q 1006 1753 1006 1478 
Q 1006 1022 1337 719 
Q 1669 416 2169 416 
Q 2466 416 2725 514 
Q 2984 613 3213 813 
L 1556 2509 
z
M 1997 2859 
L 3584 1234 
Q 3769 1513 3872 1830 
Q 3975 2147 3994 2503 
L 4575 2503 
Q 4538 2091 4375 1687 
Q 4213 1284 3922 891 
L 4794 0 
L 4006 0 
L 3559 459 
Q 3234 181 2878 45 
Q 2522 -91 2113 -91 
Q 1359 -91 881 339 
Q 403 769 403 1441 
Q 403 1841 612 2192 
Q 822 2544 1241 2853 
Q 1091 3050 1012 3245 
Q 934 3441 934 3628 
Q 934 4134 1281 4442 
Q 1628 4750 2203 4750 
Q 2463 4750 2720 4694 
Q 2978 4638 3244 4525 
L 3244 3956 
Q 2972 4103 2725 4179 
Q 2478 4256 2266 4256 
Q 1938 4256 1733 4082 
Q 1528 3909 1528 3634 
Q 1528 3475 1620 3314 
Q 1713 3153 1997 2859 
z
" transform="scale(0.015625)"/>
      <path id="DejaVuSans-48" d="M 628 4666 
L 1259 4666 
L 1259 2753 
L 3553 2753 
L 3553 4666 
L 4184 4666 
L 4184 0 
L 3553 0 
L 3553 2222 
L 1259 2222 
L 1259 0 
L 628 0 
L 628 4666 
z
" transform="scale(0.015625)"/>
      <path id="DejaVuSans-52" d="M 2841 2188 
Q 3044 2119 3236 1894 
Q 3428 1669 3622 1275 
L 4263 0 
L 3584 0 
L 2988 1197 
Q 2756 1666 2539 1819 
Q 2322 1972 1947 1972 
L 1259 1972 
L 1259 0 
L 628 0 
L 628 4666 
L 2053 4666 
Q 2853 4666 3247 4331 
Q 3641 3997 3641 3322 
Q 3641 2881 3436 2590 
Q 3231 2300 2841 2188 
z
M 1259 4147 
L 1259 2491 
L 2053 2491 
Q 2509 2491 2742 2702 
Q 2975 2913 2975 3322 
Q 2975 3731 2742 3939 
Q 2509 4147 2053 4147 
L 1259 4147 
z
" transform="scale(0.015625)"/>
     </defs>
     <use xlink:href="#DejaVuSans-53"/>
     <use xlink:href="#DejaVuSans-6b" transform="translate(63.476562 0)"/>
     <use xlink:href="#DejaVuSans-69" transform="translate(121.386719 0)"/>
     <use xlink:href="#DejaVuSans-70" transform="translate(149.169922 0)"/>
     <use xlink:href="#DejaVuSans-20" transform="translate(212.646484 0)"/>
     <use xlink:href="#DejaVuSans-63" transform="translate(244.433594 0)"/>
     <use xlink:href="#DejaVuSans-6f" transform="translate(299.414062 0)"/>
     <use xlink:href="#DejaVuSans-75" transform="translate(360.595703 0)"/>
     <use xlink:href="#DejaVuSans-6e" transform="translate(423.974609 0)"/>
     <use xlink:href="#DejaVuSans-74" transform="translate(487.353516 0)"/>
     <use xlink:href="#DejaVuSans-69" transform="translate(526.5625 0)"/>
     <use xlink:href="#DejaVuSans-6e" transform="translate(554.345703 0)"/>
     <use xlink:href="#DejaVuSans-67" transform="translate(617.724609 0)"/>
     <use xlink:href="#DejaVuSans-20" transform="translate(681.201172 0)"/>
     <use xlink:href="#DejaVuSans-b7" transform="translate(712.988281 0)"/>
     <use xlink:href="#DejaVuSans-20" transform="translate(744.775391 0)"/>
     <use xlink:href="#DejaVuSans-4e" transform="translate(776.5625 0)"/>
     <use xlink:href="#DejaVuSans-75" transform="translate(851.367188 0)"/>
     <use xlink:href="#DejaVuSans-6d" transform="translate(914.746094 0)"/>
     <use xlink:href="#DejaVuSans-62" transform="translate(1012.158203 0)"/>
     <use xlink:href="#DejaVuSans-65" transform="translate(1075.634766 0)"/>
     <use xlink:href="#DejaVuSans-72" transform="translate(1137.158203 0)"/>
     <use xlink:href="#DejaVuSans-20" transform="translate(1178.271484 0)"/>
     <use xlink:href="#DejaVuSans-62" transform="translate(1210.058594 0)"/>
     <use xlink:href="#DejaVuSans-6f" transform="translate(1273.535156 0)"/>
     <use xlink:href="#DejaVuSans-6e" transform="translate(1334.716797 0)"/>
     <use xlink:href="#DejaVuSans-64" transform="translate(1398.095703 0)"/>
     <use xlink:href="#DejaVuSans-73" transform="translate(1461.572266 0)"/>
     <use xlink:href="#DejaVuSans-20" transform="translate(1513.671875 0)"/>
     <use xlink:href="#DejaVuSans-b7" transform="translate(1545.458984 0)"/>
     <use xlink:href="#DejaVuSans-20" transform="translate(1577.246094 0)"/>
     <use xlink:href="#DejaVuSans-41" transform="translate(1609.033203 0)"/>
     <use xlink:href="#DejaVuSans-72" transform="translate(1677.441406 0)"/>
     <use xlink:href="#DejaVuSans-65" transform="translate(1716.304688 0)"/>
     <use xlink:href="#DejaVuSans-61" transform="translate(1777.828125 0)"/>
     <use xlink:href="#DejaVuSans-20" transform="translate(1839.107422 0)"/>
     <use xlink:href="#DejaVuSans-6d" transform="translate(1870.894531 0)"/>
     <use xlink:href="#DejaVuSans-6f" transform="translate(1968.306641 0)"/>
     <use xlink:href="#DejaVuSans-64" transform="translate(2029.488281 0)"/>
     <use xlink:href="#DejaVuSans-65" transform="translate(2092.964844 0)"/>
     <use xlink:href="#DejaVuSans-6c" transform="translate(2154.488281 0)"/>
     <use xlink:href="#DejaVuSans-20" transform="translate(2182.271484 0)"/>
     <use xlink:href="#DejaVuSans-b7" transform="translate(2214.058594 0)"/>
     <use xlink:href="#DejaVuSans-20" transform="translate(2245.845703 0)"/>
     <use xlink:href="#DejaVuSans-44" transform="translate(2277.632812 0)"/>
     <use xlink:href="#DejaVuSans-6f" transform="translate(2354.634766 0)"/>
     <use xlink:href="#DejaVuSans-75" transform="translate(2415.816406 0)"/>
     <use xlink:href="#DejaVuSans-62" transform="translate(2479.195312 0)"/>
     <use xlink:href="#DejaVuSans-6c" transform="translate(2542.671875 0)"/>
     <use xlink:href="#DejaVuSans-69" transform="translate(2570.455078 0)"/>
     <use xlink:href="#DejaVuSans-6e" transform="translate(2598.238281 0)"/>
     <use xlink:href="#DejaVuSans-67" transform="translate(2661.617188 0)"/>
     <use xlink:href="#DejaVuSans-20" transform="translate(2725.09375 0)"/>
     <use xlink:href="#DejaVuSans-26" transform="translate(2756.880859 0)"/>
     <use xlink:href="#DejaVuSans-20" transform="translate(2834.859375 0)"/>
     <use xlink:href="#DejaVuSans-48" transform="translate(2866.646484 0)"/>
     <use xlink:href="#DejaVuSans-61" transform="translate(2941.841797 0)"/>
     <use xlink:href="#DejaVuSans-6c" transform="translate(3003.121094 0)"/>
     <use xlink:href="#DejaVuSans-76" transform="translate(3030.904297 0)"/>
     <use xlink:href="#DejaVuSans-69" transform="translate(3090.083984 0)"/>
     <use xlink:href="#DejaVuSans-6e" transform="translate(3117.867188 0)"/>
     <use xlink:href="#DejaVuSans-67" transform="translate(3181.246094 0)"/>
     <use xlink:href="#DejaVuSans-20" transform="translate(3244.722656 0)"/>
     <use xlink:href="#DejaVuSans-b7" transform="translate(3276.509766 0)"/>
     <use xlink:href="#DejaVuSans-20" transform="translate(3308.296875 0)"/>
     <use xlink:href="#DejaVuSans-52" transform="translate(3340.083984 0)"/>
     <use xlink:href="#DejaVuSans-65" transform="translate(3405.066406 0)"/>
     <use xlink:href="#DejaVuSans-6b" transform="translate(3466.589844 0)"/>
     <use xlink:href="#DejaVuSans-65" transform="translate(3520.875 0)"/>
     <use xlink:href="#DejaVuSans-6e" transform="translate(3582.398438 0)"/>
     <use xlink:href="#DejaVuSans-72" transform="translate(3645.777344 0)"/>
     <use xlink:href="#DejaVuSans-65" transform="translate(3684.640625 0)"/>
     <use xlink:href="#DejaVuSans-6b" transform="translate(3746.164062 0)"/>
    </g>
   </g>
  </g>
 </g>
 <defs>
  <clipPath id="pbf119296d5">
   <rect x="10.8" y="10.8" width="595.44" height="841.68"/>
  </clipPath>
 </defs>
</svg>
