<?xml version="1.0" encoding="utf-8" standalone="no"?>
<!DOCTYPE svg PUBLIC "-//W3C//DTD SVG 1.1//EN"
  "http://www.w3.org/Graphics/SVG/1.1/DTD/svg11.dtd">
<svg xmlns:xlink="http://www.w3.org/1999/xlink" width="617.04pt" height="795.9456pt" viewBox="0 0 617.04 795.9456" xmlns="http://www.w3.org/2000/svg" version="1.1">
 <metadata>
  <rdf:RDF xmlns:dc="http://purl.org/dc/elements/1.1/" xmlns:cc="http://creativecommons.org/ns#" xmlns:rdf="http://www.w3.org/1999/02/22-rdf-syntax-ns#">
   <cc:Work>
    <dc:type rdf:resource="http://purl.org/dc/dcmitype/StillImage"/>
    <dc:date>2026-05-18T18:01:51.804638</dc:date>
    <dc:format>image/svg+xml</dc:format>
    <dc:creator>
     <cc:Agent>
      <dc:title>Matplotlib v3.10.9, https://matplotlib.org/</dc:title>
     </cc:Agent>
    </dc:creator>
   </cc:Work>
  </rdf:RDF>
 </metadata>
 <defs>
  <style type="text/css">*{stroke-linejoin: round; stroke-linecap: butt}</style>
 </defs>
 <g id="figure_1">
  <g id="patch_1">
   <path d="M -0 795.9456 
L 617.04 795.9456 
L 617.04 -0 
L -0 -0 
z
" style="fill: #ffffff"/>
  </g>
  <g id="axes_1">
   <g id="text_1">
    <!-- Doubling &amp; Halving -->
    <g style="fill: #0b3d91" transform="translate(199.487187 42.753545) scale(0.2 -0.2)">
     <defs>
      <path id="DejaVuSans-Bold-44" d="M 1791 3756 
L 1791 909 
L 2222 909 
Q 2959 909 3348 1275 
Q 3738 1641 3738 2338 
Q 3738 3031 3350 3393 
Q 2963 3756 2222 3756 
L 1791 3756 
z
M 588 4666 
L 1856 4666 
Q 2919 4666 3439 4514 
Q 3959 4363 4331 4000 
Q 4659 3684 4818 3271 
Q 4978 2859 4978 2338 
Q 4978 1809 4818 1395 
Q 4659 981 4331 666 
Q 3956 303 3431 151 
Q 2906 0 1856 0 
L 588 0 
L 588 4666 
z
" transform="scale(0.015625)"/>
      <path id="DejaVuSans-Bold-6f" d="M 2203 2784 
Q 1831 2784 1636 2517 
Q 1441 2250 1441 1747 
Q 1441 1244 1636 976 
Q 1831 709 2203 709 
Q 2569 709 2762 976 
Q 2956 1244 2956 1747 
Q 2956 2250 2762 2517 
Q 2569 2784 2203 2784 
z
M 2203 3584 
Q 3106 3584 3614 3096 
Q 4122 2609 4122 1747 
Q 4122 884 3614 396 
Q 3106 -91 2203 -91 
Q 1297 -91 786 396 
Q 275 884 275 1747 
Q 275 2609 786 3096 
Q 1297 3584 2203 3584 
z
" transform="scale(0.015625)"/>
      <path id="DejaVuSans-Bold-75" d="M 500 1363 
L 500 3500 
L 1625 3500 
L 1625 3150 
Q 1625 2866 1622 2436 
Q 1619 2006 1619 1863 
Q 1619 1441 1641 1255 
Q 1663 1069 1716 984 
Q 1784 875 1895 815 
Q 2006 756 2150 756 
Q 2500 756 2700 1025 
Q 2900 1294 2900 1772 
L 2900 3500 
L 4019 3500 
L 4019 0 
L 2900 0 
L 2900 506 
Q 2647 200 2364 54 
Q 2081 -91 1741 -91 
Q 1134 -91 817 281 
Q 500 653 500 1363 
z
" transform="scale(0.015625)"/>
      <path id="DejaVuSans-Bold-62" d="M 2400 722 
Q 2759 722 2948 984 
Q 3138 1247 3138 1747 
Q 3138 2247 2948 2509 
Q 2759 2772 2400 2772 
Q 2041 2772 1848 2508 
Q 1656 2244 1656 1747 
Q 1656 1250 1848 986 
Q 2041 722 2400 722 
z
M 1656 2988 
Q 1888 3294 2169 3439 
Q 2450 3584 2816 3584 
Q 3463 3584 3878 3070 
Q 4294 2556 4294 1747 
Q 4294 938 3878 423 
Q 3463 -91 2816 -91 
Q 2450 -91 2169 54 
Q 1888 200 1656 506 
L 1656 0 
L 538 0 
L 538 4863 
L 1656 4863 
L 1656 2988 
z
" transform="scale(0.015625)"/>
      <path id="DejaVuSans-Bold-6c" d="M 538 4863 
L 1656 4863 
L 1656 0 
L 538 0 
L 538 4863 
z
" transform="scale(0.015625)"/>
      <path id="DejaVuSans-Bold-69" d="M 538 3500 
L 1656 3500 
L 1656 0 
L 538 0 
L 538 3500 
z
M 538 4863 
L 1656 4863 
L 1656 3950 
L 538 3950 
L 538 4863 
z
" transform="scale(0.015625)"/>
      <path id="DejaVuSans-Bold-6e" d="M 4056 2131 
L 4056 0 
L 2931 0 
L 2931 347 
L 2931 1631 
Q 2931 2084 2911 2256 
Q 2891 2428 2841 2509 
Q 2775 2619 2662 2680 
Q 2550 2741 2406 2741 
Q 2056 2741 1856 2470 
Q 1656 2200 1656 1722 
L 1656 0 
L 538 0 
L 538 3500 
L 1656 3500 
L 1656 2988 
Q 1909 3294 2193 3439 
Q 2478 3584 2822 3584 
Q 3428 3584 3742 3212 
Q 4056 2841 4056 2131 
z
" transform="scale(0.015625)"/>
      <path id="DejaVuSans-Bold-67" d="M 2919 594 
Q 2688 288 2409 144 
Q 2131 0 1766 0 
Q 1125 0 706 504 
Q 288 1009 288 1791 
Q 288 2575 706 3076 
Q 1125 3578 1766 3578 
Q 2131 3578 2409 3434 
Q 2688 3291 2919 2981 
L 2919 3500 
L 4044 3500 
L 4044 353 
Q 4044 -491 3511 -936 
Q 2978 -1381 1966 -1381 
Q 1638 -1381 1331 -1331 
Q 1025 -1281 716 -1178 
L 716 -306 
Q 1009 -475 1290 -558 
Q 1572 -641 1856 -641 
Q 2406 -641 2662 -400 
Q 2919 -159 2919 353 
L 2919 594 
z
M 2181 2772 
Q 1834 2772 1640 2515 
Q 1447 2259 1447 1791 
Q 1447 1309 1634 1061 
Q 1822 813 2181 813 
Q 2531 813 2725 1069 
Q 2919 1325 2919 1791 
Q 2919 2259 2725 2515 
Q 2531 2772 2181 2772 
z
" transform="scale(0.015625)"/>
      <path id="DejaVuSans-Bold-20" transform="scale(0.015625)"/>
      <path id="DejaVuSans-Bold-26" d="M 2497 3097 
L 3775 1691 
Q 3941 1909 4027 2181 
Q 4113 2453 4128 2797 
L 5100 2797 
Q 5053 2228 4879 1784 
Q 4706 1341 4397 1006 
L 5313 0 
L 3988 0 
L 3681 341 
Q 3353 122 2990 15 
Q 2628 -91 2222 -91 
Q 1400 -91 892 342 
Q 384 775 384 1459 
Q 384 1916 607 2267 
Q 831 2619 1338 2950 
Q 1206 3116 1143 3281 
Q 1081 3447 1081 3628 
Q 1081 4138 1478 4444 
Q 1875 4750 2534 4750 
Q 2819 4750 3126 4704 
Q 3434 4659 3769 4569 
L 3769 3700 
Q 3475 3850 3212 3922 
Q 2950 3994 2700 3994 
Q 2459 3994 2326 3901 
Q 2194 3809 2194 3641 
Q 2194 3534 2270 3398 
Q 2347 3263 2497 3097 
z
M 1875 2322 
Q 1672 2175 1569 1989 
Q 1466 1803 1466 1581 
Q 1466 1222 1731 969 
Q 1997 716 2369 716 
Q 2578 716 2759 780 
Q 2941 844 3097 972 
L 1875 2322 
z
" transform="scale(0.015625)"/>
      <path id="DejaVuSans-Bold-48" d="M 588 4666 
L 1791 4666 
L 1791 2888 
L 3566 2888 
L 3566 4666 
L 4769 4666 
L 4769 0 
L 3566 0 
L 3566 1978 
L 1791 1978 
L 1791 0 
L 588 0 
L 588 4666 
z
" transform="scale(0.015625)"/>
      <path id="DejaVuSans-Bold-61" d="M 2106 1575 
Q 1756 1575 1579 1456 
Q 1403 1338 1403 1106 
Q 1403 894 1545 773 
Q 1688 653 1941 653 
Q 2256 653 2472 879 
Q 2688 1106 2688 1447 
L 2688 1575 
L 2106 1575 
z
M 3816 1997 
L 3816 0 
L 2688 0 
L 2688 519 
Q 2463 200 2181 54 
Q 1900 -91 1497 -91 
Q 953 -91 614 226 
Q 275 544 275 1050 
Q 275 1666 698 1953 
Q 1122 2241 2028 2241 
L 2688 2241 
L 2688 2328 
Q 2688 2594 2478 2717 
Q 2269 2841 1825 2841 
Q 1466 2841 1156 2769 
Q 847 2697 581 2553 
L 581 3406 
Q 941 3494 1303 3539 
Q 1666 3584 2028 3584 
Q 2975 3584 3395 3211 
Q 3816 2838 3816 1997 
z
" transform="scale(0.015625)"/>
      <path id="DejaVuSans-Bold-76" d="M 97 3500 
L 1216 3500 
L 2088 1081 
L 2956 3500 
L 4078 3500 
L 2700 0 
L 1472 0 
L 97 3500 
z
" transform="scale(0.015625)"/>
     </defs>
     <use xlink:href="#DejaVuSans-Bold-44"/>
     <use xlink:href="#DejaVuSans-Bold-6f" transform="translate(83.007812 0)"/>
     <use xlink:href="#DejaVuSans-Bold-75" transform="translate(151.708984 0)"/>
     <use xlink:href="#DejaVuSans-Bold-62" transform="translate(222.900391 0)"/>
     <use xlink:href="#DejaVuSans-Bold-6c" transform="translate(294.482422 0)"/>
     <use xlink:href="#DejaVuSans-Bold-69" transform="translate(328.759766 0)"/>
     <use xlink:href="#DejaVuSans-Bold-6e" transform="translate(363.037109 0)"/>
     <use xlink:href="#DejaVuSans-Bold-67" transform="translate(434.228516 0)"/>
     <use xlink:href="#DejaVuSans-Bold-20" transform="translate(505.810547 0)"/>
     <use xlink:href="#DejaVuSans-Bold-26" transform="translate(540.625 0)"/>
     <use xlink:href="#DejaVuSans-Bold-20" transform="translate(627.832031 0)"/>
     <use xlink:href="#DejaVuSans-Bold-48" transform="translate(662.646484 0)"/>
     <use xlink:href="#DejaVuSans-Bold-61" transform="translate(746.337891 0)"/>
     <use xlink:href="#DejaVuSans-Bold-6c" transform="translate(813.818359 0)"/>
     <use xlink:href="#DejaVuSans-Bold-76" transform="translate(848.095703 0)"/>
     <use xlink:href="#DejaVuSans-Bold-69" transform="translate(913.28125 0)"/>
     <use xlink:href="#DejaVuSans-Bold-6e" transform="translate(947.558594 0)"/>
     <use xlink:href="#DejaVuSans-Bold-67" transform="translate(1018.75 0)"/>
    </g>
   </g>
   <g id="text_2">
    <!-- Raddoppia uno, dimezza l'altro (Nuova Zelanda) -->
    <g style="fill: #6e7781" transform="translate(175.366719 69.807033) scale(0.11 -0.11)">
     <defs>
      <path id="DejaVuSans-Oblique-52" d="M 1613 4147 
L 1294 2491 
L 2106 2491 
Q 2584 2491 2879 2755 
Q 3175 3019 3175 3444 
Q 3175 3784 2976 3965 
Q 2778 4147 2406 4147 
L 1613 4147 
z
M 2772 2241 
Q 2972 2194 3105 2009 
Q 3238 1825 3413 1275 
L 3809 0 
L 3144 0 
L 2778 1197 
Q 2638 1659 2453 1815 
Q 2269 1972 1888 1972 
L 1191 1972 
L 806 0 
L 172 0 
L 1081 4666 
L 2503 4666 
Q 3150 4666 3495 4373 
Q 3841 4081 3841 3531 
Q 3841 3044 3547 2687 
Q 3253 2331 2772 2241 
z
" transform="scale(0.015625)"/>
      <path id="DejaVuSans-Oblique-61" d="M 3438 1997 
L 3047 0 
L 2472 0 
L 2578 531 
Q 2325 219 2001 64 
Q 1678 -91 1281 -91 
Q 834 -91 548 182 
Q 263 456 263 884 
Q 263 1497 752 1853 
Q 1241 2209 2100 2209 
L 2900 2209 
L 2931 2363 
Q 2938 2388 2941 2417 
Q 2944 2447 2944 2509 
Q 2944 2788 2717 2942 
Q 2491 3097 2081 3097 
Q 1800 3097 1504 3025 
Q 1209 2953 897 2809 
L 997 3341 
Q 1322 3463 1633 3523 
Q 1944 3584 2234 3584 
Q 2853 3584 3176 3315 
Q 3500 3047 3500 2534 
Q 3500 2431 3484 2292 
Q 3469 2153 3438 1997 
z
M 2816 1759 
L 2241 1759 
Q 1534 1759 1195 1570 
Q 856 1381 856 984 
Q 856 709 1029 553 
Q 1203 397 1509 397 
Q 1978 397 2328 733 
Q 2678 1069 2791 1631 
L 2816 1759 
z
" transform="scale(0.015625)"/>
      <path id="DejaVuSans-Oblique-64" d="M 2675 525 
Q 2444 222 2128 65 
Q 1813 -91 1428 -91 
Q 903 -91 598 267 
Q 294 625 294 1247 
Q 294 1766 478 2236 
Q 663 2706 1013 3078 
Q 1244 3325 1534 3454 
Q 1825 3584 2144 3584 
Q 2481 3584 2739 3421 
Q 2997 3259 3138 2956 
L 3513 4863 
L 4091 4863 
L 3144 0 
L 2566 0 
L 2675 525 
z
M 891 1350 
Q 891 897 1095 644 
Q 1300 391 1663 391 
Q 1931 391 2161 520 
Q 2391 650 2566 903 
Q 2750 1166 2856 1509 
Q 2963 1853 2963 2188 
Q 2963 2622 2758 2865 
Q 2553 3109 2194 3109 
Q 1922 3109 1687 2981 
Q 1453 2853 1288 2613 
Q 1106 2353 998 2009 
Q 891 1666 891 1350 
z
" transform="scale(0.015625)"/>
      <path id="DejaVuSans-Oblique-6f" d="M 1625 -91 
Q 1009 -91 651 289 
Q 294 669 294 1325 
Q 294 1706 417 2101 
Q 541 2497 738 2766 
Q 1047 3184 1428 3384 
Q 1809 3584 2291 3584 
Q 2888 3584 3255 3212 
Q 3622 2841 3622 2241 
Q 3622 1825 3500 1412 
Q 3378 1000 3181 728 
Q 2875 309 2494 109 
Q 2113 -91 1625 -91 
z
M 891 1344 
Q 891 869 1089 633 
Q 1288 397 1691 397 
Q 2269 397 2648 901 
Q 3028 1406 3028 2181 
Q 3028 2634 2825 2865 
Q 2622 3097 2228 3097 
Q 1903 3097 1650 2945 
Q 1397 2794 1197 2484 
Q 1050 2253 970 1956 
Q 891 1659 891 1344 
z
" transform="scale(0.015625)"/>
      <path id="DejaVuSans-Oblique-70" d="M 3175 2156 
Q 3175 2616 2975 2859 
Q 2775 3103 2400 3103 
Q 2144 3103 1911 2972 
Q 1678 2841 1497 2591 
Q 1319 2344 1212 1994 
Q 1106 1644 1106 1300 
Q 1106 863 1306 627 
Q 1506 391 1875 391 
Q 2147 391 2380 519 
Q 2613 647 2778 891 
Q 2956 1147 3065 1494 
Q 3175 1841 3175 2156 
z
M 1394 2969 
Q 1625 3272 1939 3428 
Q 2253 3584 2638 3584 
Q 3175 3584 3472 3232 
Q 3769 2881 3769 2247 
Q 3769 1728 3584 1258 
Q 3400 788 3053 416 
Q 2822 169 2531 39 
Q 2241 -91 1919 -91 
Q 1547 -91 1294 64 
Q 1041 219 916 525 
L 556 -1331 
L -19 -1331 
L 922 3500 
L 1497 3500 
L 1394 2969 
z
" transform="scale(0.015625)"/>
      <path id="DejaVuSans-Oblique-69" d="M 1172 4863 
L 1747 4863 
L 1606 4134 
L 1031 4134 
L 1172 4863 
z
M 909 3500 
L 1484 3500 
L 800 0 
L 225 0 
L 909 3500 
z
" transform="scale(0.015625)"/>
      <path id="DejaVuSans-Oblique-20" transform="scale(0.015625)"/>
      <path id="DejaVuSans-Oblique-75" d="M 428 1388 
L 838 3500 
L 1416 3500 
L 1006 1409 
Q 975 1256 961 1147 
Q 947 1038 947 966 
Q 947 700 1109 554 
Q 1272 409 1569 409 
Q 2031 409 2368 721 
Q 2706 1034 2809 1563 
L 3194 3500 
L 3769 3500 
L 3091 0 
L 2516 0 
L 2631 550 
Q 2388 244 2052 76 
Q 1716 -91 1338 -91 
Q 878 -91 622 161 
Q 366 413 366 863 
Q 366 956 381 1097 
Q 397 1238 428 1388 
z
" transform="scale(0.015625)"/>
      <path id="DejaVuSans-Oblique-6e" d="M 3566 2113 
L 3156 0 
L 2578 0 
L 2988 2091 
Q 3016 2238 3031 2350 
Q 3047 2463 3047 2528 
Q 3047 2791 2881 2937 
Q 2716 3084 2419 3084 
Q 1956 3084 1622 2776 
Q 1288 2469 1184 1941 
L 800 0 
L 225 0 
L 903 3500 
L 1478 3500 
L 1363 2950 
Q 1603 3253 1940 3418 
Q 2278 3584 2650 3584 
Q 3113 3584 3367 3334 
Q 3622 3084 3622 2631 
Q 3622 2519 3608 2391 
Q 3594 2263 3566 2113 
z
" transform="scale(0.015625)"/>
      <path id="DejaVuSans-Oblique-2c" d="M 575 794 
L 1234 794 
L 1131 256 
L 422 -744 
L 19 -744 
L 469 256 
L 575 794 
z
" transform="scale(0.015625)"/>
      <path id="DejaVuSans-Oblique-6d" d="M 5747 2113 
L 5338 0 
L 4763 0 
L 5166 2094 
Q 5191 2228 5203 2325 
Q 5216 2422 5216 2491 
Q 5216 2772 5059 2928 
Q 4903 3084 4622 3084 
Q 4203 3084 3875 2770 
Q 3547 2456 3450 1953 
L 3066 0 
L 2491 0 
L 2900 2094 
Q 2925 2209 2937 2307 
Q 2950 2406 2950 2484 
Q 2950 2769 2794 2926 
Q 2638 3084 2363 3084 
Q 1938 3084 1609 2770 
Q 1281 2456 1184 1953 
L 800 0 
L 225 0 
L 909 3500 
L 1484 3500 
L 1375 2956 
Q 1609 3263 1923 3423 
Q 2238 3584 2597 3584 
Q 2978 3584 3223 3384 
Q 3469 3184 3519 2828 
Q 3781 3197 4126 3390 
Q 4472 3584 4856 3584 
Q 5306 3584 5551 3325 
Q 5797 3066 5797 2591 
Q 5797 2488 5784 2364 
Q 5772 2241 5747 2113 
z
" transform="scale(0.015625)"/>
      <path id="DejaVuSans-Oblique-65" d="M 3078 2063 
Q 3088 2113 3092 2166 
Q 3097 2219 3097 2272 
Q 3097 2653 2873 2875 
Q 2650 3097 2266 3097 
Q 1838 3097 1509 2826 
Q 1181 2556 1013 2059 
L 3078 2063 
z
M 3578 1613 
L 903 1613 
Q 884 1494 878 1425 
Q 872 1356 872 1306 
Q 872 872 1139 634 
Q 1406 397 1894 397 
Q 2269 397 2603 481 
Q 2938 566 3225 728 
L 3116 159 
Q 2806 34 2476 -28 
Q 2147 -91 1806 -91 
Q 1078 -91 686 257 
Q 294 606 294 1247 
Q 294 1794 489 2264 
Q 684 2734 1063 3103 
Q 1306 3334 1642 3459 
Q 1978 3584 2356 3584 
Q 2950 3584 3301 3228 
Q 3653 2872 3653 2272 
Q 3653 2128 3634 1964 
Q 3616 1800 3578 1613 
z
" transform="scale(0.015625)"/>
      <path id="DejaVuSans-Oblique-7a" d="M 744 3500 
L 3475 3500 
L 3372 2975 
L 738 459 
L 2913 459 
L 2822 0 
L -19 0 
L 84 525 
L 2719 3041 
L 653 3041 
L 744 3500 
z
" transform="scale(0.015625)"/>
      <path id="DejaVuSans-Oblique-6c" d="M 1172 4863 
L 1747 4863 
L 800 0 
L 225 0 
L 1172 4863 
z
" transform="scale(0.015625)"/>
      <path id="DejaVuSans-Oblique-27" d="M 1147 4666 
L 1147 2931 
L 616 2931 
L 616 4666 
L 1147 4666 
z
" transform="scale(0.015625)"/>
      <path id="DejaVuSans-Oblique-74" d="M 2706 3500 
L 2619 3053 
L 1472 3053 
L 1100 1153 
Q 1081 1047 1072 975 
Q 1063 903 1063 863 
Q 1063 663 1183 572 
Q 1303 481 1569 481 
L 2150 481 
L 2053 0 
L 1503 0 
Q 991 0 739 200 
Q 488 400 488 806 
Q 488 878 497 964 
Q 506 1050 525 1153 
L 897 3053 
L 409 3053 
L 500 3500 
L 978 3500 
L 1172 4494 
L 1747 4494 
L 1556 3500 
L 2706 3500 
z
" transform="scale(0.015625)"/>
      <path id="DejaVuSans-Oblique-72" d="M 2853 2969 
Q 2766 3016 2653 3041 
Q 2541 3066 2413 3066 
Q 1953 3066 1609 2717 
Q 1266 2369 1153 1784 
L 800 0 
L 225 0 
L 909 3500 
L 1484 3500 
L 1375 2956 
Q 1603 3259 1920 3421 
Q 2238 3584 2597 3584 
Q 2691 3584 2781 3573 
Q 2872 3563 2963 3538 
L 2853 2969 
z
" transform="scale(0.015625)"/>
      <path id="DejaVuSans-Oblique-28" d="M 2731 4856 
Q 1903 3822 1495 2892 
Q 1088 1963 1088 1100 
Q 1088 606 1206 120 
Q 1325 -366 1563 -844 
L 1063 -844 
Q 775 -306 634 201 
Q 494 709 494 1197 
Q 494 2125 923 3036 
Q 1353 3947 2222 4856 
L 2731 4856 
z
" transform="scale(0.015625)"/>
      <path id="DejaVuSans-Oblique-4e" d="M 1081 4666 
L 1931 4666 
L 3219 666 
L 4000 4666 
L 4616 4666 
L 3706 0 
L 2853 0 
L 1569 4025 
L 788 0 
L 172 0 
L 1081 4666 
z
" transform="scale(0.015625)"/>
      <path id="DejaVuSans-Oblique-76" d="M 459 3500 
L 1069 3500 
L 1581 525 
L 3256 3500 
L 3866 3500 
L 1875 0 
L 1100 0 
L 459 3500 
z
" transform="scale(0.015625)"/>
      <path id="DejaVuSans-Oblique-5a" d="M 838 4666 
L 4500 4666 
L 4409 4184 
L 794 531 
L 3769 531 
L 3669 0 
L -141 0 
L -50 481 
L 3566 4134 
L 738 4134 
L 838 4666 
z
" transform="scale(0.015625)"/>
      <path id="DejaVuSans-Oblique-29" d="M -397 -844 
Q 434 191 840 1120 
Q 1247 2050 1247 2913 
Q 1247 3406 1130 3892 
Q 1013 4378 775 4856 
L 1275 4856 
Q 1563 4316 1703 3812 
Q 1844 3309 1844 2822 
Q 1844 1891 1411 973 
Q 978 56 116 -844 
L -397 -844 
z
" transform="scale(0.015625)"/>
     </defs>
     <use xlink:href="#DejaVuSans-Oblique-52"/>
     <use xlink:href="#DejaVuSans-Oblique-61" transform="translate(69.482422 0)"/>
     <use xlink:href="#DejaVuSans-Oblique-64" transform="translate(130.761719 0)"/>
     <use xlink:href="#DejaVuSans-Oblique-64" transform="translate(194.238281 0)"/>
     <use xlink:href="#DejaVuSans-Oblique-6f" transform="translate(257.714844 0)"/>
     <use xlink:href="#DejaVuSans-Oblique-70" transform="translate(318.896484 0)"/>
     <use xlink:href="#DejaVuSans-Oblique-70" transform="translate(382.373047 0)"/>
     <use xlink:href="#DejaVuSans-Oblique-69" transform="translate(445.849609 0)"/>
     <use xlink:href="#DejaVuSans-Oblique-61" transform="translate(473.632812 0)"/>
     <use xlink:href="#DejaVuSans-Oblique-20" transform="translate(534.912109 0)"/>
     <use xlink:href="#DejaVuSans-Oblique-75" transform="translate(566.699219 0)"/>
     <use xlink:href="#DejaVuSans-Oblique-6e" transform="translate(630.078125 0)"/>
     <use xlink:href="#DejaVuSans-Oblique-6f" transform="translate(693.457031 0)"/>
     <use xlink:href="#DejaVuSans-Oblique-2c" transform="translate(754.638672 0)"/>
     <use xlink:href="#DejaVuSans-Oblique-20" transform="translate(786.425781 0)"/>
     <use xlink:href="#DejaVuSans-Oblique-64" transform="translate(818.212891 0)"/>
     <use xlink:href="#DejaVuSans-Oblique-69" transform="translate(881.689453 0)"/>
     <use xlink:href="#DejaVuSans-Oblique-6d" transform="translate(909.472656 0)"/>
     <use xlink:href="#DejaVuSans-Oblique-65" transform="translate(1006.884766 0)"/>
     <use xlink:href="#DejaVuSans-Oblique-7a" transform="translate(1068.408203 0)"/>
     <use xlink:href="#DejaVuSans-Oblique-7a" transform="translate(1120.898438 0)"/>
     <use xlink:href="#DejaVuSans-Oblique-61" transform="translate(1173.388672 0)"/>
     <use xlink:href="#DejaVuSans-Oblique-20" transform="translate(1234.667969 0)"/>
     <use xlink:href="#DejaVuSans-Oblique-6c" transform="translate(1266.455078 0)"/>
     <use xlink:href="#DejaVuSans-Oblique-27" transform="translate(1294.238281 0)"/>
     <use xlink:href="#DejaVuSans-Oblique-61" transform="translate(1321.728516 0)"/>
     <use xlink:href="#DejaVuSans-Oblique-6c" transform="translate(1383.007812 0)"/>
     <use xlink:href="#DejaVuSans-Oblique-74" transform="translate(1410.791016 0)"/>
     <use xlink:href="#DejaVuSans-Oblique-72" transform="translate(1450 0)"/>
     <use xlink:href="#DejaVuSans-Oblique-6f" transform="translate(1491.113281 0)"/>
     <use xlink:href="#DejaVuSans-Oblique-20" transform="translate(1552.294922 0)"/>
     <use xlink:href="#DejaVuSans-Oblique-28" transform="translate(1584.082031 0)"/>
     <use xlink:href="#DejaVuSans-Oblique-4e" transform="translate(1623.095703 0)"/>
     <use xlink:href="#DejaVuSans-Oblique-75" transform="translate(1697.900391 0)"/>
     <use xlink:href="#DejaVuSans-Oblique-6f" transform="translate(1761.279297 0)"/>
     <use xlink:href="#DejaVuSans-Oblique-76" transform="translate(1822.460938 0)"/>
     <use xlink:href="#DejaVuSans-Oblique-61" transform="translate(1881.640625 0)"/>
     <use xlink:href="#DejaVuSans-Oblique-20" transform="translate(1942.919922 0)"/>
     <use xlink:href="#DejaVuSans-Oblique-5a" transform="translate(1974.707031 0)"/>
     <use xlink:href="#DejaVuSans-Oblique-65" transform="translate(2043.212891 0)"/>
     <use xlink:href="#DejaVuSans-Oblique-6c" transform="translate(2104.736328 0)"/>
     <use xlink:href="#DejaVuSans-Oblique-61" transform="translate(2132.519531 0)"/>
     <use xlink:href="#DejaVuSans-Oblique-6e" transform="translate(2193.798828 0)"/>
     <use xlink:href="#DejaVuSans-Oblique-64" transform="translate(2257.177734 0)"/>
     <use xlink:href="#DejaVuSans-Oblique-61" transform="translate(2320.654297 0)"/>
     <use xlink:href="#DejaVuSans-Oblique-29" transform="translate(2381.933594 0)"/>
    </g>
   </g>
  </g>
  <g id="axes_2">
   <g id="patch_2">
    <path d="M 98.92512 302.941517 
L 334.71936 302.941517 
L 334.71936 282.696307 
L 98.92512 282.696307 
z
" clip-path="url(#peed8c2af6b)" style="fill: #0b3d91; opacity: 0.88; stroke: #1c1c1c; stroke-width: 1.5; stroke-linejoin: miter"/>
   </g>
   <g id="patch_3">
    <path d="M 98.92512 460.30201 
L 216.82224 460.30201 
L 216.82224 419.81159 
L 98.92512 419.81159 
z
" clip-path="url(#peed8c2af6b)" style="fill: #1b6d3b; opacity: 0.88; stroke: #1c1c1c; stroke-width: 1.5; stroke-linejoin: miter"/>
   </g>
   <g id="patch_4">
    <path d="M 98.92512 627.785107 
L 157.87368 627.785107 
L 157.87368 546.804269 
L 98.92512 546.804269 
z
" clip-path="url(#peed8c2af6b)" style="fill: #d6336c; opacity: 0.88; stroke: #1c1c1c; stroke-width: 1.5; stroke-linejoin: miter"/>
   </g>
   <g id="text_3">
    <g id="patch_5">
     <path d="M 116.940781 169.631265 
L 500.099219 169.631265 
Q 505.849219 169.631265 505.849219 163.881265 
L 505.849219 136.378656 
Q 505.849219 130.628656 500.099219 130.628656 
L 116.940781 130.628656 
Q 111.190781 130.628656 111.190781 136.378656 
L 111.190781 163.881265 
Q 111.190781 169.631265 116.940781 169.631265 
z
" style="fill: #fffbe6; stroke: #f0a500; stroke-width: 1.5; stroke-linejoin: miter"/>
    </g>
    <!-- Se RADDOPPI un fattore e DIMEZZI l'altro, il prodotto NON cambia. -->
    <g style="fill: #1d1d1f" transform="translate(116.940781 145.116859) scale(0.115 -0.115)">
     <defs>
      <path id="DejaVuSans-53" d="M 3425 4513 
L 3425 3897 
Q 3066 4069 2747 4153 
Q 2428 4238 2131 4238 
Q 1616 4238 1336 4038 
Q 1056 3838 1056 3469 
Q 1056 3159 1242 3001 
Q 1428 2844 1947 2747 
L 2328 2669 
Q 3034 2534 3370 2195 
Q 3706 1856 3706 1288 
Q 3706 609 3251 259 
Q 2797 -91 1919 -91 
Q 1588 -91 1214 -16 
Q 841 59 441 206 
L 441 856 
Q 825 641 1194 531 
Q 1563 422 1919 422 
Q 2459 422 2753 634 
Q 3047 847 3047 1241 
Q 3047 1584 2836 1778 
Q 2625 1972 2144 2069 
L 1759 2144 
Q 1053 2284 737 2584 
Q 422 2884 422 3419 
Q 422 4038 858 4394 
Q 1294 4750 2059 4750 
Q 2388 4750 2728 4690 
Q 3069 4631 3425 4513 
z
" transform="scale(0.015625)"/>
      <path id="DejaVuSans-65" d="M 3597 1894 
L 3597 1613 
L 953 1613 
Q 991 1019 1311 708 
Q 1631 397 2203 397 
Q 2534 397 2845 478 
Q 3156 559 3463 722 
L 3463 178 
Q 3153 47 2828 -22 
Q 2503 -91 2169 -91 
Q 1331 -91 842 396 
Q 353 884 353 1716 
Q 353 2575 817 3079 
Q 1281 3584 2069 3584 
Q 2775 3584 3186 3129 
Q 3597 2675 3597 1894 
z
M 3022 2063 
Q 3016 2534 2758 2815 
Q 2500 3097 2075 3097 
Q 1594 3097 1305 2825 
Q 1016 2553 972 2059 
L 3022 2063 
z
" transform="scale(0.015625)"/>
      <path id="DejaVuSans-20" transform="scale(0.015625)"/>
      <path id="DejaVuSans-52" d="M 2841 2188 
Q 3044 2119 3236 1894 
Q 3428 1669 3622 1275 
L 4263 0 
L 3584 0 
L 2988 1197 
Q 2756 1666 2539 1819 
Q 2322 1972 1947 1972 
L 1259 1972 
L 1259 0 
L 628 0 
L 628 4666 
L 2053 4666 
Q 2853 4666 3247 4331 
Q 3641 3997 3641 3322 
Q 3641 2881 3436 2590 
Q 3231 2300 2841 2188 
z
M 1259 4147 
L 1259 2491 
L 2053 2491 
Q 2509 2491 2742 2702 
Q 2975 2913 2975 3322 
Q 2975 3731 2742 3939 
Q 2509 4147 2053 4147 
L 1259 4147 
z
" transform="scale(0.015625)"/>
      <path id="DejaVuSans-41" d="M 2188 4044 
L 1331 1722 
L 3047 1722 
L 2188 4044 
z
M 1831 4666 
L 2547 4666 
L 4325 0 
L 3669 0 
L 3244 1197 
L 1141 1197 
L 716 0 
L 50 0 
L 1831 4666 
z
" transform="scale(0.015625)"/>
      <path id="DejaVuSans-44" d="M 1259 4147 
L 1259 519 
L 2022 519 
Q 2988 519 3436 956 
Q 3884 1394 3884 2338 
Q 3884 3275 3436 3711 
Q 2988 4147 2022 4147 
L 1259 4147 
z
M 628 4666 
L 1925 4666 
Q 3281 4666 3915 4102 
Q 4550 3538 4550 2338 
Q 4550 1131 3912 565 
Q 3275 0 1925 0 
L 628 0 
L 628 4666 
z
" transform="scale(0.015625)"/>
      <path id="DejaVuSans-4f" d="M 2522 4238 
Q 1834 4238 1429 3725 
Q 1025 3213 1025 2328 
Q 1025 1447 1429 934 
Q 1834 422 2522 422 
Q 3209 422 3611 934 
Q 4013 1447 4013 2328 
Q 4013 3213 3611 3725 
Q 3209 4238 2522 4238 
z
M 2522 4750 
Q 3503 4750 4090 4092 
Q 4678 3434 4678 2328 
Q 4678 1225 4090 567 
Q 3503 -91 2522 -91 
Q 1538 -91 948 565 
Q 359 1222 359 2328 
Q 359 3434 948 4092 
Q 1538 4750 2522 4750 
z
" transform="scale(0.015625)"/>
      <path id="DejaVuSans-50" d="M 1259 4147 
L 1259 2394 
L 2053 2394 
Q 2494 2394 2734 2622 
Q 2975 2850 2975 3272 
Q 2975 3691 2734 3919 
Q 2494 4147 2053 4147 
L 1259 4147 
z
M 628 4666 
L 2053 4666 
Q 2838 4666 3239 4311 
Q 3641 3956 3641 3272 
Q 3641 2581 3239 2228 
Q 2838 1875 2053 1875 
L 1259 1875 
L 1259 0 
L 628 0 
L 628 4666 
z
" transform="scale(0.015625)"/>
      <path id="DejaVuSans-49" d="M 628 4666 
L 1259 4666 
L 1259 0 
L 628 0 
L 628 4666 
z
" transform="scale(0.015625)"/>
      <path id="DejaVuSans-75" d="M 544 1381 
L 544 3500 
L 1119 3500 
L 1119 1403 
Q 1119 906 1312 657 
Q 1506 409 1894 409 
Q 2359 409 2629 706 
Q 2900 1003 2900 1516 
L 2900 3500 
L 3475 3500 
L 3475 0 
L 2900 0 
L 2900 538 
Q 2691 219 2414 64 
Q 2138 -91 1772 -91 
Q 1169 -91 856 284 
Q 544 659 544 1381 
z
M 1991 3584 
L 1991 3584 
z
" transform="scale(0.015625)"/>
      <path id="DejaVuSans-6e" d="M 3513 2113 
L 3513 0 
L 2938 0 
L 2938 2094 
Q 2938 2591 2744 2837 
Q 2550 3084 2163 3084 
Q 1697 3084 1428 2787 
Q 1159 2491 1159 1978 
L 1159 0 
L 581 0 
L 581 3500 
L 1159 3500 
L 1159 2956 
Q 1366 3272 1645 3428 
Q 1925 3584 2291 3584 
Q 2894 3584 3203 3211 
Q 3513 2838 3513 2113 
z
" transform="scale(0.015625)"/>
      <path id="DejaVuSans-66" d="M 2375 4863 
L 2375 4384 
L 1825 4384 
Q 1516 4384 1395 4259 
Q 1275 4134 1275 3809 
L 1275 3500 
L 2222 3500 
L 2222 3053 
L 1275 3053 
L 1275 0 
L 697 0 
L 697 3053 
L 147 3053 
L 147 3500 
L 697 3500 
L 697 3744 
Q 697 4328 969 4595 
Q 1241 4863 1831 4863 
L 2375 4863 
z
" transform="scale(0.015625)"/>
      <path id="DejaVuSans-61" d="M 2194 1759 
Q 1497 1759 1228 1600 
Q 959 1441 959 1056 
Q 959 750 1161 570 
Q 1363 391 1709 391 
Q 2188 391 2477 730 
Q 2766 1069 2766 1631 
L 2766 1759 
L 2194 1759 
z
M 3341 1997 
L 3341 0 
L 2766 0 
L 2766 531 
Q 2569 213 2275 61 
Q 1981 -91 1556 -91 
Q 1019 -91 701 211 
Q 384 513 384 1019 
Q 384 1609 779 1909 
Q 1175 2209 1959 2209 
L 2766 2209 
L 2766 2266 
Q 2766 2663 2505 2880 
Q 2244 3097 1772 3097 
Q 1472 3097 1187 3025 
Q 903 2953 641 2809 
L 641 3341 
Q 956 3463 1253 3523 
Q 1550 3584 1831 3584 
Q 2591 3584 2966 3190 
Q 3341 2797 3341 1997 
z
" transform="scale(0.015625)"/>
      <path id="DejaVuSans-74" d="M 1172 4494 
L 1172 3500 
L 2356 3500 
L 2356 3053 
L 1172 3053 
L 1172 1153 
Q 1172 725 1289 603 
Q 1406 481 1766 481 
L 2356 481 
L 2356 0 
L 1766 0 
Q 1100 0 847 248 
Q 594 497 594 1153 
L 594 3053 
L 172 3053 
L 172 3500 
L 594 3500 
L 594 4494 
L 1172 4494 
z
" transform="scale(0.015625)"/>
      <path id="DejaVuSans-6f" d="M 1959 3097 
Q 1497 3097 1228 2736 
Q 959 2375 959 1747 
Q 959 1119 1226 758 
Q 1494 397 1959 397 
Q 2419 397 2687 759 
Q 2956 1122 2956 1747 
Q 2956 2369 2687 2733 
Q 2419 3097 1959 3097 
z
M 1959 3584 
Q 2709 3584 3137 3096 
Q 3566 2609 3566 1747 
Q 3566 888 3137 398 
Q 2709 -91 1959 -91 
Q 1206 -91 779 398 
Q 353 888 353 1747 
Q 353 2609 779 3096 
Q 1206 3584 1959 3584 
z
" transform="scale(0.015625)"/>
      <path id="DejaVuSans-72" d="M 2631 2963 
Q 2534 3019 2420 3045 
Q 2306 3072 2169 3072 
Q 1681 3072 1420 2755 
Q 1159 2438 1159 1844 
L 1159 0 
L 581 0 
L 581 3500 
L 1159 3500 
L 1159 2956 
Q 1341 3275 1631 3429 
Q 1922 3584 2338 3584 
Q 2397 3584 2469 3576 
Q 2541 3569 2628 3553 
L 2631 2963 
z
" transform="scale(0.015625)"/>
      <path id="DejaVuSans-4d" d="M 628 4666 
L 1569 4666 
L 2759 1491 
L 3956 4666 
L 4897 4666 
L 4897 0 
L 4281 0 
L 4281 4097 
L 3078 897 
L 2444 897 
L 1241 4097 
L 1241 0 
L 628 0 
L 628 4666 
z
" transform="scale(0.015625)"/>
      <path id="DejaVuSans-45" d="M 628 4666 
L 3578 4666 
L 3578 4134 
L 1259 4134 
L 1259 2753 
L 3481 2753 
L 3481 2222 
L 1259 2222 
L 1259 531 
L 3634 531 
L 3634 0 
L 628 0 
L 628 4666 
z
" transform="scale(0.015625)"/>
      <path id="DejaVuSans-5a" d="M 359 4666 
L 4025 4666 
L 4025 4184 
L 1075 531 
L 4097 531 
L 4097 0 
L 288 0 
L 288 481 
L 3238 4134 
L 359 4134 
L 359 4666 
z
" transform="scale(0.015625)"/>
      <path id="DejaVuSans-6c" d="M 603 4863 
L 1178 4863 
L 1178 0 
L 603 0 
L 603 4863 
z
" transform="scale(0.015625)"/>
      <path id="DejaVuSans-27" d="M 1147 4666 
L 1147 2931 
L 616 2931 
L 616 4666 
L 1147 4666 
z
" transform="scale(0.015625)"/>
      <path id="DejaVuSans-2c" d="M 750 794 
L 1409 794 
L 1409 256 
L 897 -744 
L 494 -744 
L 750 256 
L 750 794 
z
" transform="scale(0.015625)"/>
      <path id="DejaVuSans-69" d="M 603 3500 
L 1178 3500 
L 1178 0 
L 603 0 
L 603 3500 
z
M 603 4863 
L 1178 4863 
L 1178 4134 
L 603 4134 
L 603 4863 
z
" transform="scale(0.015625)"/>
      <path id="DejaVuSans-70" d="M 1159 525 
L 1159 -1331 
L 581 -1331 
L 581 3500 
L 1159 3500 
L 1159 2969 
Q 1341 3281 1617 3432 
Q 1894 3584 2278 3584 
Q 2916 3584 3314 3078 
Q 3713 2572 3713 1747 
Q 3713 922 3314 415 
Q 2916 -91 2278 -91 
Q 1894 -91 1617 61 
Q 1341 213 1159 525 
z
M 3116 1747 
Q 3116 2381 2855 2742 
Q 2594 3103 2138 3103 
Q 1681 3103 1420 2742 
Q 1159 2381 1159 1747 
Q 1159 1113 1420 752 
Q 1681 391 2138 391 
Q 2594 391 2855 752 
Q 3116 1113 3116 1747 
z
" transform="scale(0.015625)"/>
      <path id="DejaVuSans-64" d="M 2906 2969 
L 2906 4863 
L 3481 4863 
L 3481 0 
L 2906 0 
L 2906 525 
Q 2725 213 2448 61 
Q 2172 -91 1784 -91 
Q 1150 -91 751 415 
Q 353 922 353 1747 
Q 353 2572 751 3078 
Q 1150 3584 1784 3584 
Q 2172 3584 2448 3432 
Q 2725 3281 2906 2969 
z
M 947 1747 
Q 947 1113 1208 752 
Q 1469 391 1925 391 
Q 2381 391 2643 752 
Q 2906 1113 2906 1747 
Q 2906 2381 2643 2742 
Q 2381 3103 1925 3103 
Q 1469 3103 1208 2742 
Q 947 2381 947 1747 
z
" transform="scale(0.015625)"/>
      <path id="DejaVuSans-4e" d="M 628 4666 
L 1478 4666 
L 3547 763 
L 3547 4666 
L 4159 4666 
L 4159 0 
L 3309 0 
L 1241 3903 
L 1241 0 
L 628 0 
L 628 4666 
z
" transform="scale(0.015625)"/>
      <path id="DejaVuSans-63" d="M 3122 3366 
L 3122 2828 
Q 2878 2963 2633 3030 
Q 2388 3097 2138 3097 
Q 1578 3097 1268 2742 
Q 959 2388 959 1747 
Q 959 1106 1268 751 
Q 1578 397 2138 397 
Q 2388 397 2633 464 
Q 2878 531 3122 666 
L 3122 134 
Q 2881 22 2623 -34 
Q 2366 -91 2075 -91 
Q 1284 -91 818 406 
Q 353 903 353 1747 
Q 353 2603 823 3093 
Q 1294 3584 2113 3584 
Q 2378 3584 2631 3529 
Q 2884 3475 3122 3366 
z
" transform="scale(0.015625)"/>
      <path id="DejaVuSans-6d" d="M 3328 2828 
Q 3544 3216 3844 3400 
Q 4144 3584 4550 3584 
Q 5097 3584 5394 3201 
Q 5691 2819 5691 2113 
L 5691 0 
L 5113 0 
L 5113 2094 
Q 5113 2597 4934 2840 
Q 4756 3084 4391 3084 
Q 3944 3084 3684 2787 
Q 3425 2491 3425 1978 
L 3425 0 
L 2847 0 
L 2847 2094 
Q 2847 2600 2669 2842 
Q 2491 3084 2119 3084 
Q 1678 3084 1418 2786 
Q 1159 2488 1159 1978 
L 1159 0 
L 581 0 
L 581 3500 
L 1159 3500 
L 1159 2956 
Q 1356 3278 1631 3431 
Q 1906 3584 2284 3584 
Q 2666 3584 2933 3390 
Q 3200 3197 3328 2828 
z
" transform="scale(0.015625)"/>
      <path id="DejaVuSans-62" d="M 3116 1747 
Q 3116 2381 2855 2742 
Q 2594 3103 2138 3103 
Q 1681 3103 1420 2742 
Q 1159 2381 1159 1747 
Q 1159 1113 1420 752 
Q 1681 391 2138 391 
Q 2594 391 2855 752 
Q 3116 1113 3116 1747 
z
M 1159 2969 
Q 1341 3281 1617 3432 
Q 1894 3584 2278 3584 
Q 2916 3584 3314 3078 
Q 3713 2572 3713 1747 
Q 3713 922 3314 415 
Q 2916 -91 2278 -91 
Q 1894 -91 1617 61 
Q 1341 213 1159 525 
L 1159 0 
L 581 0 
L 581 4863 
L 1159 4863 
L 1159 2969 
z
" transform="scale(0.015625)"/>
      <path id="DejaVuSans-2e" d="M 684 794 
L 1344 794 
L 1344 0 
L 684 0 
L 684 794 
z
" transform="scale(0.015625)"/>
     </defs>
     <use xlink:href="#DejaVuSans-53"/>
     <use xlink:href="#DejaVuSans-65" transform="translate(63.476562 0)"/>
     <use xlink:href="#DejaVuSans-20" transform="translate(125 0)"/>
     <use xlink:href="#DejaVuSans-52" transform="translate(156.787109 0)"/>
     <use xlink:href="#DejaVuSans-41" transform="translate(222.269531 0)"/>
     <use xlink:href="#DejaVuSans-44" transform="translate(290.677734 0)"/>
     <use xlink:href="#DejaVuSans-44" transform="translate(367.679688 0)"/>
     <use xlink:href="#DejaVuSans-4f" transform="translate(444.681641 0)"/>
     <use xlink:href="#DejaVuSans-50" transform="translate(523.392578 0)"/>
     <use xlink:href="#DejaVuSans-50" transform="translate(583.695312 0)"/>
     <use xlink:href="#DejaVuSans-49" transform="translate(643.998047 0)"/>
     <use xlink:href="#DejaVuSans-20" transform="translate(673.490234 0)"/>
     <use xlink:href="#DejaVuSans-75" transform="translate(705.277344 0)"/>
     <use xlink:href="#DejaVuSans-6e" transform="translate(768.65625 0)"/>
     <use xlink:href="#DejaVuSans-20" transform="translate(832.035156 0)"/>
     <use xlink:href="#DejaVuSans-66" transform="translate(863.822266 0)"/>
     <use xlink:href="#DejaVuSans-61" transform="translate(899.027344 0)"/>
     <use xlink:href="#DejaVuSans-74" transform="translate(960.306641 0)"/>
     <use xlink:href="#DejaVuSans-74" transform="translate(999.515625 0)"/>
     <use xlink:href="#DejaVuSans-6f" transform="translate(1038.724609 0)"/>
     <use xlink:href="#DejaVuSans-72" transform="translate(1099.90625 0)"/>
     <use xlink:href="#DejaVuSans-65" transform="translate(1138.769531 0)"/>
     <use xlink:href="#DejaVuSans-20" transform="translate(1200.292969 0)"/>
     <use xlink:href="#DejaVuSans-65" transform="translate(1232.080078 0)"/>
     <use xlink:href="#DejaVuSans-20" transform="translate(1293.603516 0)"/>
     <use xlink:href="#DejaVuSans-44" transform="translate(1325.390625 0)"/>
     <use xlink:href="#DejaVuSans-49" transform="translate(1402.392578 0)"/>
     <use xlink:href="#DejaVuSans-4d" transform="translate(1431.884766 0)"/>
     <use xlink:href="#DejaVuSans-45" transform="translate(1518.164062 0)"/>
     <use xlink:href="#DejaVuSans-5a" transform="translate(1581.347656 0)"/>
     <use xlink:href="#DejaVuSans-5a" transform="translate(1649.853516 0)"/>
     <use xlink:href="#DejaVuSans-49" transform="translate(1718.359375 0)"/>
     <use xlink:href="#DejaVuSans-20" transform="translate(1747.851562 0)"/>
     <use xlink:href="#DejaVuSans-6c" transform="translate(1779.638672 0)"/>
     <use xlink:href="#DejaVuSans-27" transform="translate(1807.421875 0)"/>
     <use xlink:href="#DejaVuSans-61" transform="translate(1834.912109 0)"/>
     <use xlink:href="#DejaVuSans-6c" transform="translate(1896.191406 0)"/>
     <use xlink:href="#DejaVuSans-74" transform="translate(1923.974609 0)"/>
     <use xlink:href="#DejaVuSans-72" transform="translate(1963.183594 0)"/>
     <use xlink:href="#DejaVuSans-6f" transform="translate(2002.046875 0)"/>
     <use xlink:href="#DejaVuSans-2c" transform="translate(2063.228516 0)"/>
     <use xlink:href="#DejaVuSans-20" transform="translate(2095.015625 0)"/>
     <use xlink:href="#DejaVuSans-69" transform="translate(2126.802734 0)"/>
     <use xlink:href="#DejaVuSans-6c" transform="translate(2154.585938 0)"/>
     <use xlink:href="#DejaVuSans-20" transform="translate(2182.369141 0)"/>
     <use xlink:href="#DejaVuSans-70" transform="translate(2214.15625 0)"/>
     <use xlink:href="#DejaVuSans-72" transform="translate(2277.632812 0)"/>
     <use xlink:href="#DejaVuSans-6f" transform="translate(2316.496094 0)"/>
     <use xlink:href="#DejaVuSans-64" transform="translate(2377.677734 0)"/>
     <use xlink:href="#DejaVuSans-6f" transform="translate(2441.154297 0)"/>
     <use xlink:href="#DejaVuSans-74" transform="translate(2502.335938 0)"/>
     <use xlink:href="#DejaVuSans-74" transform="translate(2541.544922 0)"/>
     <use xlink:href="#DejaVuSans-6f" transform="translate(2580.753906 0)"/>
     <use xlink:href="#DejaVuSans-20" transform="translate(2641.935547 0)"/>
     <use xlink:href="#DejaVuSans-4e" transform="translate(2673.722656 0)"/>
     <use xlink:href="#DejaVuSans-4f" transform="translate(2748.527344 0)"/>
     <use xlink:href="#DejaVuSans-4e" transform="translate(2827.238281 0)"/>
     <use xlink:href="#DejaVuSans-20" transform="translate(2902.042969 0)"/>
     <use xlink:href="#DejaVuSans-63" transform="translate(2933.830078 0)"/>
     <use xlink:href="#DejaVuSans-61" transform="translate(2988.810547 0)"/>
     <use xlink:href="#DejaVuSans-6d" transform="translate(3050.089844 0)"/>
     <use xlink:href="#DejaVuSans-62" transform="translate(3147.501953 0)"/>
     <use xlink:href="#DejaVuSans-69" transform="translate(3210.978516 0)"/>
     <use xlink:href="#DejaVuSans-61" transform="translate(3238.761719 0)"/>
     <use xlink:href="#DejaVuSans-2e" transform="translate(3300.041016 0)"/>
    </g>
    <!-- Strategia magica per moltiplicazioni con numeri amici. -->
    <g style="fill: #1d1d1f" transform="translate(151.095781 161.489625) scale(0.115 -0.115)">
     <defs>
      <path id="DejaVuSans-67" d="M 2906 1791 
Q 2906 2416 2648 2759 
Q 2391 3103 1925 3103 
Q 1463 3103 1205 2759 
Q 947 2416 947 1791 
Q 947 1169 1205 825 
Q 1463 481 1925 481 
Q 2391 481 2648 825 
Q 2906 1169 2906 1791 
z
M 3481 434 
Q 3481 -459 3084 -895 
Q 2688 -1331 1869 -1331 
Q 1566 -1331 1297 -1286 
Q 1028 -1241 775 -1147 
L 775 -588 
Q 1028 -725 1275 -790 
Q 1522 -856 1778 -856 
Q 2344 -856 2625 -561 
Q 2906 -266 2906 331 
L 2906 616 
Q 2728 306 2450 153 
Q 2172 0 1784 0 
Q 1141 0 747 490 
Q 353 981 353 1791 
Q 353 2603 747 3093 
Q 1141 3584 1784 3584 
Q 2172 3584 2450 3431 
Q 2728 3278 2906 2969 
L 2906 3500 
L 3481 3500 
L 3481 434 
z
" transform="scale(0.015625)"/>
      <path id="DejaVuSans-7a" d="M 353 3500 
L 3084 3500 
L 3084 2975 
L 922 459 
L 3084 459 
L 3084 0 
L 275 0 
L 275 525 
L 2438 3041 
L 353 3041 
L 353 3500 
z
" transform="scale(0.015625)"/>
     </defs>
     <use xlink:href="#DejaVuSans-53"/>
     <use xlink:href="#DejaVuSans-74" transform="translate(63.476562 0)"/>
     <use xlink:href="#DejaVuSans-72" transform="translate(102.685547 0)"/>
     <use xlink:href="#DejaVuSans-61" transform="translate(143.798828 0)"/>
     <use xlink:href="#DejaVuSans-74" transform="translate(205.078125 0)"/>
     <use xlink:href="#DejaVuSans-65" transform="translate(244.287109 0)"/>
     <use xlink:href="#DejaVuSans-67" transform="translate(305.810547 0)"/>
     <use xlink:href="#DejaVuSans-69" transform="translate(369.287109 0)"/>
     <use xlink:href="#DejaVuSans-61" transform="translate(397.070312 0)"/>
     <use xlink:href="#DejaVuSans-20" transform="translate(458.349609 0)"/>
     <use xlink:href="#DejaVuSans-6d" transform="translate(490.136719 0)"/>
     <use xlink:href="#DejaVuSans-61" transform="translate(587.548828 0)"/>
     <use xlink:href="#DejaVuSans-67" transform="translate(648.828125 0)"/>
     <use xlink:href="#DejaVuSans-69" transform="translate(712.304688 0)"/>
     <use xlink:href="#DejaVuSans-63" transform="translate(740.087891 0)"/>
     <use xlink:href="#DejaVuSans-61" transform="translate(795.068359 0)"/>
     <use xlink:href="#DejaVuSans-20" transform="translate(856.347656 0)"/>
     <use xlink:href="#DejaVuSans-70" transform="translate(888.134766 0)"/>
     <use xlink:href="#DejaVuSans-65" transform="translate(951.611328 0)"/>
     <use xlink:href="#DejaVuSans-72" transform="translate(1013.134766 0)"/>
     <use xlink:href="#DejaVuSans-20" transform="translate(1054.248047 0)"/>
     <use xlink:href="#DejaVuSans-6d" transform="translate(1086.035156 0)"/>
     <use xlink:href="#DejaVuSans-6f" transform="translate(1183.447266 0)"/>
     <use xlink:href="#DejaVuSans-6c" transform="translate(1244.628906 0)"/>
     <use xlink:href="#DejaVuSans-74" transform="translate(1272.412109 0)"/>
     <use xlink:href="#DejaVuSans-69" transform="translate(1311.621094 0)"/>
     <use xlink:href="#DejaVuSans-70" transform="translate(1339.404297 0)"/>
     <use xlink:href="#DejaVuSans-6c" transform="translate(1402.880859 0)"/>
     <use xlink:href="#DejaVuSans-69" transform="translate(1430.664062 0)"/>
     <use xlink:href="#DejaVuSans-63" transform="translate(1458.447266 0)"/>
     <use xlink:href="#DejaVuSans-61" transform="translate(1513.427734 0)"/>
     <use xlink:href="#DejaVuSans-7a" transform="translate(1574.707031 0)"/>
     <use xlink:href="#DejaVuSans-69" transform="translate(1627.197266 0)"/>
     <use xlink:href="#DejaVuSans-6f" transform="translate(1654.980469 0)"/>
     <use xlink:href="#DejaVuSans-6e" transform="translate(1716.162109 0)"/>
     <use xlink:href="#DejaVuSans-69" transform="translate(1779.541016 0)"/>
     <use xlink:href="#DejaVuSans-20" transform="translate(1807.324219 0)"/>
     <use xlink:href="#DejaVuSans-63" transform="translate(1839.111328 0)"/>
     <use xlink:href="#DejaVuSans-6f" transform="translate(1894.091797 0)"/>
     <use xlink:href="#DejaVuSans-6e" transform="translate(1955.273438 0)"/>
     <use xlink:href="#DejaVuSans-20" transform="translate(2018.652344 0)"/>
     <use xlink:href="#DejaVuSans-6e" transform="translate(2050.439453 0)"/>
     <use xlink:href="#DejaVuSans-75" transform="translate(2113.818359 0)"/>
     <use xlink:href="#DejaVuSans-6d" transform="translate(2177.197266 0)"/>
     <use xlink:href="#DejaVuSans-65" transform="translate(2274.609375 0)"/>
     <use xlink:href="#DejaVuSans-72" transform="translate(2336.132812 0)"/>
     <use xlink:href="#DejaVuSans-69" transform="translate(2377.246094 0)"/>
     <use xlink:href="#DejaVuSans-20" transform="translate(2405.029297 0)"/>
     <use xlink:href="#DejaVuSans-61" transform="translate(2436.816406 0)"/>
     <use xlink:href="#DejaVuSans-6d" transform="translate(2498.095703 0)"/>
     <use xlink:href="#DejaVuSans-69" transform="translate(2595.507812 0)"/>
     <use xlink:href="#DejaVuSans-63" transform="translate(2623.291016 0)"/>
     <use xlink:href="#DejaVuSans-69" transform="translate(2678.271484 0)"/>
     <use xlink:href="#DejaVuSans-2e" transform="translate(2706.054688 0)"/>
    </g>
   </g>
   <g id="text_4">
    <!-- 16 × 25 -->
    <g style="fill: #ffffff" transform="translate(191.997513 289.553451) scale(0.115 -0.115)">
     <defs>
      <path id="DejaVuSans-Bold-31" d="M 750 831 
L 1813 831 
L 1813 3847 
L 722 3622 
L 722 4441 
L 1806 4666 
L 2950 4666 
L 2950 831 
L 4013 831 
L 4013 0 
L 750 0 
L 750 831 
z
" transform="scale(0.015625)"/>
      <path id="DejaVuSans-Bold-36" d="M 2316 2303 
Q 2000 2303 1842 2098 
Q 1684 1894 1684 1484 
Q 1684 1075 1842 870 
Q 2000 666 2316 666 
Q 2634 666 2792 870 
Q 2950 1075 2950 1484 
Q 2950 1894 2792 2098 
Q 2634 2303 2316 2303 
z
M 3803 4544 
L 3803 3681 
Q 3506 3822 3243 3889 
Q 2981 3956 2731 3956 
Q 2194 3956 1894 3657 
Q 1594 3359 1544 2772 
Q 1750 2925 1990 3001 
Q 2231 3078 2516 3078 
Q 3231 3078 3670 2659 
Q 4109 2241 4109 1563 
Q 4109 813 3618 361 
Q 3128 -91 2303 -91 
Q 1394 -91 895 523 
Q 397 1138 397 2266 
Q 397 3422 980 4083 
Q 1563 4744 2578 4744 
Q 2900 4744 3203 4694 
Q 3506 4644 3803 4544 
z
" transform="scale(0.015625)"/>
      <path id="DejaVuSans-Bold-d7" d="M 4563 3359 
L 3206 2003 
L 4563 653 
L 4038 128 
L 2681 1478 
L 1325 128 
L 800 653 
L 2156 2003 
L 800 3359 
L 1325 3884 
L 2681 2528 
L 4038 3884 
L 4563 3359 
z
" transform="scale(0.015625)"/>
      <path id="DejaVuSans-Bold-32" d="M 1844 884 
L 3897 884 
L 3897 0 
L 506 0 
L 506 884 
L 2209 2388 
Q 2438 2594 2547 2791 
Q 2656 2988 2656 3200 
Q 2656 3528 2436 3728 
Q 2216 3928 1850 3928 
Q 1569 3928 1234 3808 
Q 900 3688 519 3450 
L 519 4475 
Q 925 4609 1322 4679 
Q 1719 4750 2100 4750 
Q 2938 4750 3402 4381 
Q 3866 4013 3866 3353 
Q 3866 2972 3669 2642 
Q 3472 2313 2841 1759 
L 1844 884 
z
" transform="scale(0.015625)"/>
      <path id="DejaVuSans-Bold-35" d="M 678 4666 
L 3669 4666 
L 3669 3781 
L 1638 3781 
L 1638 3059 
Q 1775 3097 1914 3117 
Q 2053 3138 2203 3138 
Q 3056 3138 3531 2711 
Q 4006 2284 4006 1522 
Q 4006 766 3489 337 
Q 2972 -91 2053 -91 
Q 1656 -91 1267 -14 
Q 878 63 494 219 
L 494 1166 
Q 875 947 1217 837 
Q 1559 728 1863 728 
Q 2300 728 2551 942 
Q 2803 1156 2803 1522 
Q 2803 1891 2551 2103 
Q 2300 2316 1863 2316 
Q 1603 2316 1309 2248 
Q 1016 2181 678 2041 
L 678 4666 
z
" transform="scale(0.015625)"/>
     </defs>
     <use xlink:href="#DejaVuSans-Bold-31"/>
     <use xlink:href="#DejaVuSans-Bold-36" transform="translate(69.580078 0)"/>
     <use xlink:href="#DejaVuSans-Bold-20" transform="translate(139.160156 0)"/>
     <use xlink:href="#DejaVuSans-Bold-d7" transform="translate(173.974609 0)"/>
     <use xlink:href="#DejaVuSans-Bold-20" transform="translate(257.763672 0)"/>
     <use xlink:href="#DejaVuSans-Bold-32" transform="translate(292.578125 0)"/>
     <use xlink:href="#DejaVuSans-Bold-35" transform="translate(362.158203 0)"/>
    </g>
    <!-- = 400 -->
    <g style="fill: #ffffff" transform="translate(197.999974 302.430935) scale(0.115 -0.115)">
     <defs>
      <path id="DejaVuSans-Bold-3d" d="M 678 3084 
L 4684 3084 
L 4684 2350 
L 678 2350 
L 678 3084 
z
M 678 1663 
L 4684 1663 
L 4684 922 
L 678 922 
L 678 1663 
z
" transform="scale(0.015625)"/>
      <path id="DejaVuSans-Bold-34" d="M 2356 3675 
L 1038 1722 
L 2356 1722 
L 2356 3675 
z
M 2156 4666 
L 3494 4666 
L 3494 1722 
L 4159 1722 
L 4159 850 
L 3494 850 
L 3494 0 
L 2356 0 
L 2356 850 
L 288 850 
L 288 1881 
L 2156 4666 
z
" transform="scale(0.015625)"/>
      <path id="DejaVuSans-Bold-30" d="M 2944 2338 
Q 2944 3213 2780 3570 
Q 2616 3928 2228 3928 
Q 1841 3928 1675 3570 
Q 1509 3213 1509 2338 
Q 1509 1453 1675 1090 
Q 1841 728 2228 728 
Q 2613 728 2778 1090 
Q 2944 1453 2944 2338 
z
M 4147 2328 
Q 4147 1169 3647 539 
Q 3147 -91 2228 -91 
Q 1306 -91 806 539 
Q 306 1169 306 2328 
Q 306 3491 806 4120 
Q 1306 4750 2228 4750 
Q 3147 4750 3647 4120 
Q 4147 3491 4147 2328 
z
" transform="scale(0.015625)"/>
     </defs>
     <use xlink:href="#DejaVuSans-Bold-3d"/>
     <use xlink:href="#DejaVuSans-Bold-20" transform="translate(83.789062 0)"/>
     <use xlink:href="#DejaVuSans-Bold-34" transform="translate(118.603516 0)"/>
     <use xlink:href="#DejaVuSans-Bold-30" transform="translate(188.183594 0)"/>
     <use xlink:href="#DejaVuSans-Bold-30" transform="translate(257.763672 0)"/>
    </g>
   </g>
   <g id="text_5">
    <!-- 16 × 25  =  400 -->
    <g style="fill: #1d1d1f" transform="translate(371.398464 296.957975) scale(0.15 -0.15)">
     <use xlink:href="#DejaVuSans-Bold-31"/>
     <use xlink:href="#DejaVuSans-Bold-36" transform="translate(69.580078 0)"/>
     <use xlink:href="#DejaVuSans-Bold-20" transform="translate(139.160156 0)"/>
     <use xlink:href="#DejaVuSans-Bold-d7" transform="translate(173.974609 0)"/>
     <use xlink:href="#DejaVuSans-Bold-20" transform="translate(257.763672 0)"/>
     <use xlink:href="#DejaVuSans-Bold-32" transform="translate(292.578125 0)"/>
     <use xlink:href="#DejaVuSans-Bold-35" transform="translate(362.158203 0)"/>
     <use xlink:href="#DejaVuSans-Bold-20" transform="translate(431.738281 0)"/>
     <use xlink:href="#DejaVuSans-Bold-20" transform="translate(466.552734 0)"/>
     <use xlink:href="#DejaVuSans-Bold-3d" transform="translate(501.367188 0)"/>
     <use xlink:href="#DejaVuSans-Bold-20" transform="translate(585.15625 0)"/>
     <use xlink:href="#DejaVuSans-Bold-20" transform="translate(619.970703 0)"/>
     <use xlink:href="#DejaVuSans-Bold-34" transform="translate(654.785156 0)"/>
     <use xlink:href="#DejaVuSans-Bold-30" transform="translate(724.365234 0)"/>
     <use xlink:href="#DejaVuSans-Bold-30" transform="translate(793.945312 0)"/>
    </g>
   </g>
   <g id="patch_6">
    <path d="M 216.82224 342.212049 
Q 216.82224 366.439068 216.82224 387.982806 
" style="fill: none; stroke: #f0a500; stroke-width: 2.4; stroke-linecap: round"/>
    <path d="M 219.02224 383.582806 
L 216.82224 387.982806 
L 214.62224 383.582806 
" style="fill: none; stroke: #f0a500; stroke-width: 2.4; stroke-linecap: round"/>
   </g>
   <g id="text_6">
    <!-- ÷2 / ×2 -->
    <g style="fill: #f0a500" transform="translate(227.301984 369.473169) scale(0.11 -0.11)">
     <defs>
      <path id="DejaVuSans-BoldOblique-f7" d="M 2203 1234 
L 3163 1234 
L 3163 269 
L 2203 269 
L 2203 1234 
z
M 2203 3744 
L 3163 3744 
L 3163 2778 
L 2203 2778 
L 2203 3744 
z
M 678 2375 
L 4684 2375 
L 4684 1638 
L 678 1638 
L 678 2375 
z
" transform="scale(0.015625)"/>
      <path id="DejaVuSans-BoldOblique-32" d="M 1581 884 
L 3609 884 
L 3438 0 
L 50 0 
L 225 891 
L 2209 2388 
Q 2534 2638 2704 2894 
Q 2875 3150 2875 3391 
Q 2875 3647 2700 3787 
Q 2525 3928 2209 3928 
Q 1913 3928 1547 3811 
Q 1181 3694 722 3450 
L 922 4441 
Q 1347 4597 1756 4673 
Q 2166 4750 2566 4750 
Q 3278 4750 3687 4442 
Q 4097 4134 4097 3603 
Q 4097 3147 3847 2772 
Q 3597 2397 2747 1759 
L 1581 884 
z
" transform="scale(0.015625)"/>
      <path id="DejaVuSans-BoldOblique-20" transform="scale(0.015625)"/>
      <path id="DejaVuSans-BoldOblique-2f" d="M 2053 4666 
L 2778 4666 
L 109 -594 
L -616 -594 
L 2053 4666 
z
" transform="scale(0.015625)"/>
      <path id="DejaVuSans-BoldOblique-d7" d="M 4563 3359 
L 3206 2003 
L 4563 653 
L 4038 128 
L 2681 1478 
L 1325 128 
L 800 653 
L 2156 2003 
L 800 3359 
L 1325 3884 
L 2681 2528 
L 4038 3884 
L 4563 3359 
z
" transform="scale(0.015625)"/>
     </defs>
     <use xlink:href="#DejaVuSans-BoldOblique-f7"/>
     <use xlink:href="#DejaVuSans-BoldOblique-32" transform="translate(83.789062 0)"/>
     <use xlink:href="#DejaVuSans-BoldOblique-20" transform="translate(153.369141 0)"/>
     <use xlink:href="#DejaVuSans-BoldOblique-2f" transform="translate(188.183594 0)"/>
     <use xlink:href="#DejaVuSans-BoldOblique-20" transform="translate(224.707031 0)"/>
     <use xlink:href="#DejaVuSans-BoldOblique-d7" transform="translate(259.521484 0)"/>
     <use xlink:href="#DejaVuSans-BoldOblique-32" transform="translate(343.310547 0)"/>
    </g>
   </g>
   <g id="text_7">
    <!-- 8 × 50 -->
    <g style="fill: #ffffff" transform="translate(137.049696 436.791339) scale(0.115 -0.115)">
     <defs>
      <path id="DejaVuSans-Bold-38" d="M 2228 2088 
Q 1891 2088 1709 1903 
Q 1528 1719 1528 1375 
Q 1528 1031 1709 848 
Q 1891 666 2228 666 
Q 2563 666 2741 848 
Q 2919 1031 2919 1375 
Q 2919 1722 2741 1905 
Q 2563 2088 2228 2088 
z
M 1350 2484 
Q 925 2613 709 2878 
Q 494 3144 494 3541 
Q 494 4131 934 4440 
Q 1375 4750 2228 4750 
Q 3075 4750 3515 4442 
Q 3956 4134 3956 3541 
Q 3956 3144 3739 2878 
Q 3522 2613 3097 2484 
Q 3572 2353 3814 2058 
Q 4056 1763 4056 1313 
Q 4056 619 3595 264 
Q 3134 -91 2228 -91 
Q 1319 -91 855 264 
Q 391 619 391 1313 
Q 391 1763 633 2058 
Q 875 2353 1350 2484 
z
M 1631 3419 
Q 1631 3141 1786 2991 
Q 1941 2841 2228 2841 
Q 2509 2841 2662 2991 
Q 2816 3141 2816 3419 
Q 2816 3697 2662 3845 
Q 2509 3994 2228 3994 
Q 1941 3994 1786 3844 
Q 1631 3694 1631 3419 
z
" transform="scale(0.015625)"/>
     </defs>
     <use xlink:href="#DejaVuSans-Bold-38"/>
     <use xlink:href="#DejaVuSans-Bold-20" transform="translate(69.580078 0)"/>
     <use xlink:href="#DejaVuSans-Bold-d7" transform="translate(104.394531 0)"/>
     <use xlink:href="#DejaVuSans-Bold-20" transform="translate(188.183594 0)"/>
     <use xlink:href="#DejaVuSans-Bold-35" transform="translate(222.998047 0)"/>
     <use xlink:href="#DejaVuSans-Bold-30" transform="translate(292.578125 0)"/>
    </g>
    <!-- = 400 -->
    <g style="fill: #ffffff" transform="translate(139.051414 449.668823) scale(0.115 -0.115)">
     <use xlink:href="#DejaVuSans-Bold-3d"/>
     <use xlink:href="#DejaVuSans-Bold-20" transform="translate(83.789062 0)"/>
     <use xlink:href="#DejaVuSans-Bold-34" transform="translate(118.603516 0)"/>
     <use xlink:href="#DejaVuSans-Bold-30" transform="translate(188.183594 0)"/>
     <use xlink:href="#DejaVuSans-Bold-30" transform="translate(257.763672 0)"/>
    </g>
   </g>
   <g id="text_8">
    <!-- 8 × 50  =  400 -->
    <g style="fill: #1d1d1f" transform="translate(371.398464 444.195863) scale(0.15 -0.15)">
     <use xlink:href="#DejaVuSans-Bold-38"/>
     <use xlink:href="#DejaVuSans-Bold-20" transform="translate(69.580078 0)"/>
     <use xlink:href="#DejaVuSans-Bold-d7" transform="translate(104.394531 0)"/>
     <use xlink:href="#DejaVuSans-Bold-20" transform="translate(188.183594 0)"/>
     <use xlink:href="#DejaVuSans-Bold-35" transform="translate(222.998047 0)"/>
     <use xlink:href="#DejaVuSans-Bold-30" transform="translate(292.578125 0)"/>
     <use xlink:href="#DejaVuSans-Bold-20" transform="translate(362.158203 0)"/>
     <use xlink:href="#DejaVuSans-Bold-20" transform="translate(396.972656 0)"/>
     <use xlink:href="#DejaVuSans-Bold-3d" transform="translate(431.787109 0)"/>
     <use xlink:href="#DejaVuSans-Bold-20" transform="translate(515.576172 0)"/>
     <use xlink:href="#DejaVuSans-Bold-20" transform="translate(550.390625 0)"/>
     <use xlink:href="#DejaVuSans-Bold-34" transform="translate(585.205078 0)"/>
     <use xlink:href="#DejaVuSans-Bold-30" transform="translate(654.785156 0)"/>
     <use xlink:href="#DejaVuSans-Bold-30" transform="translate(724.365234 0)"/>
    </g>
   </g>
   <g id="patch_7">
    <path d="M 216.82224 489.449937 
Q 216.82224 513.676956 216.82224 535.220694 
" style="fill: none; stroke: #f0a500; stroke-width: 2.4; stroke-linecap: round"/>
    <path d="M 219.02224 530.820694 
L 216.82224 535.220694 
L 214.62224 530.820694 
" style="fill: none; stroke: #f0a500; stroke-width: 2.4; stroke-linecap: round"/>
   </g>
   <g id="text_9">
    <!-- ÷2 / ×2 -->
    <g style="fill: #f0a500" transform="translate(227.301984 516.711057) scale(0.11 -0.11)">
     <use xlink:href="#DejaVuSans-BoldOblique-f7"/>
     <use xlink:href="#DejaVuSans-BoldOblique-32" transform="translate(83.789062 0)"/>
     <use xlink:href="#DejaVuSans-BoldOblique-20" transform="translate(153.369141 0)"/>
     <use xlink:href="#DejaVuSans-BoldOblique-2f" transform="translate(188.183594 0)"/>
     <use xlink:href="#DejaVuSans-BoldOblique-20" transform="translate(224.707031 0)"/>
     <use xlink:href="#DejaVuSans-BoldOblique-d7" transform="translate(259.521484 0)"/>
     <use xlink:href="#DejaVuSans-BoldOblique-32" transform="translate(343.310547 0)"/>
    </g>
   </g>
   <g id="text_10">
    <!-- 4 × 100 -->
    <g style="fill: #ffffff" transform="translate(103.574673 584.029227) scale(0.115 -0.115)">
     <use xlink:href="#DejaVuSans-Bold-34"/>
     <use xlink:href="#DejaVuSans-Bold-20" transform="translate(69.580078 0)"/>
     <use xlink:href="#DejaVuSans-Bold-d7" transform="translate(104.394531 0)"/>
     <use xlink:href="#DejaVuSans-Bold-20" transform="translate(188.183594 0)"/>
     <use xlink:href="#DejaVuSans-Bold-31" transform="translate(222.998047 0)"/>
     <use xlink:href="#DejaVuSans-Bold-30" transform="translate(292.578125 0)"/>
     <use xlink:href="#DejaVuSans-Bold-30" transform="translate(362.158203 0)"/>
    </g>
    <!-- = 400 -->
    <g style="fill: #ffffff" transform="translate(109.577134 596.906711) scale(0.115 -0.115)">
     <use xlink:href="#DejaVuSans-Bold-3d"/>
     <use xlink:href="#DejaVuSans-Bold-20" transform="translate(83.789062 0)"/>
     <use xlink:href="#DejaVuSans-Bold-34" transform="translate(118.603516 0)"/>
     <use xlink:href="#DejaVuSans-Bold-30" transform="translate(188.183594 0)"/>
     <use xlink:href="#DejaVuSans-Bold-30" transform="translate(257.763672 0)"/>
    </g>
   </g>
   <g id="text_11">
    <!-- 4 × 100  =  400 -->
    <g style="fill: #1d1d1f" transform="translate(371.398464 591.43375) scale(0.15 -0.15)">
     <use xlink:href="#DejaVuSans-Bold-34"/>
     <use xlink:href="#DejaVuSans-Bold-20" transform="translate(69.580078 0)"/>
     <use xlink:href="#DejaVuSans-Bold-d7" transform="translate(104.394531 0)"/>
     <use xlink:href="#DejaVuSans-Bold-20" transform="translate(188.183594 0)"/>
     <use xlink:href="#DejaVuSans-Bold-31" transform="translate(222.998047 0)"/>
     <use xlink:href="#DejaVuSans-Bold-30" transform="translate(292.578125 0)"/>
     <use xlink:href="#DejaVuSans-Bold-30" transform="translate(362.158203 0)"/>
     <use xlink:href="#DejaVuSans-Bold-20" transform="translate(431.738281 0)"/>
     <use xlink:href="#DejaVuSans-Bold-20" transform="translate(466.552734 0)"/>
     <use xlink:href="#DejaVuSans-Bold-3d" transform="translate(501.367188 0)"/>
     <use xlink:href="#DejaVuSans-Bold-20" transform="translate(585.15625 0)"/>
     <use xlink:href="#DejaVuSans-Bold-20" transform="translate(619.970703 0)"/>
     <use xlink:href="#DejaVuSans-Bold-34" transform="translate(654.785156 0)"/>
     <use xlink:href="#DejaVuSans-Bold-30" transform="translate(724.365234 0)"/>
     <use xlink:href="#DejaVuSans-Bold-30" transform="translate(793.945312 0)"/>
    </g>
   </g>
   <g id="text_12">
    <!-- Trasformi un calcolo difficile (16×25) in uno banale (4×100). -->
    <g style="fill: #6e7781" transform="translate(141.073359 711.332699) scale(0.11 -0.11)">
     <defs>
      <path id="DejaVuSans-Oblique-54" d="M 378 4666 
L 4325 4666 
L 4225 4134 
L 2559 4134 
L 1759 0 
L 1125 0 
L 1925 4134 
L 275 4134 
L 378 4666 
z
" transform="scale(0.015625)"/>
      <path id="DejaVuSans-Oblique-73" d="M 3200 3397 
L 3091 2853 
Q 2863 2978 2609 3040 
Q 2356 3103 2088 3103 
Q 1634 3103 1373 2948 
Q 1113 2794 1113 2528 
Q 1113 2219 1719 2053 
Q 1766 2041 1788 2034 
L 1972 1978 
Q 2547 1819 2739 1644 
Q 2931 1469 2931 1166 
Q 2931 609 2489 259 
Q 2047 -91 1331 -91 
Q 1053 -91 747 -37 
Q 441 16 72 128 
L 184 722 
Q 500 559 806 475 
Q 1113 391 1394 391 
Q 1816 391 2080 572 
Q 2344 753 2344 1031 
Q 2344 1331 1650 1516 
L 1591 1531 
L 1394 1581 
Q 956 1697 753 1886 
Q 550 2075 550 2369 
Q 550 2928 970 3256 
Q 1391 3584 2113 3584 
Q 2397 3584 2667 3537 
Q 2938 3491 3200 3397 
z
" transform="scale(0.015625)"/>
      <path id="DejaVuSans-Oblique-66" d="M 3059 4863 
L 2969 4384 
L 2419 4384 
Q 2106 4384 1964 4261 
Q 1822 4138 1753 3809 
L 1691 3500 
L 2638 3500 
L 2553 3053 
L 1606 3053 
L 1013 0 
L 434 0 
L 1031 3053 
L 481 3053 
L 563 3500 
L 1113 3500 
L 1159 3744 
Q 1278 4363 1576 4613 
Q 1875 4863 2516 4863 
L 3059 4863 
z
" transform="scale(0.015625)"/>
      <path id="DejaVuSans-Oblique-63" d="M 3431 3366 
L 3316 2797 
Q 3109 2947 2876 3022 
Q 2644 3097 2394 3097 
Q 2119 3097 1870 3000 
Q 1622 2903 1453 2725 
Q 1184 2453 1037 2087 
Q 891 1722 891 1331 
Q 891 859 1127 628 
Q 1363 397 1844 397 
Q 2081 397 2348 469 
Q 2616 541 2906 684 
L 2797 116 
Q 2547 13 2283 -39 
Q 2019 -91 1741 -91 
Q 1044 -91 669 257 
Q 294 606 294 1253 
Q 294 1797 489 2255 
Q 684 2713 1069 3078 
Q 1331 3328 1684 3456 
Q 2038 3584 2456 3584 
Q 2700 3584 2940 3529 
Q 3181 3475 3431 3366 
z
" transform="scale(0.015625)"/>
      <path id="DejaVuSans-Oblique-31" d="M 416 531 
L 1447 531 
L 2144 4122 
L 978 3897 
L 1088 4441 
L 2247 4666 
L 2881 4666 
L 2075 531 
L 3103 531 
L 3003 0 
L 313 0 
L 416 531 
z
" transform="scale(0.015625)"/>
      <path id="DejaVuSans-Oblique-36" d="M 2938 1728 
Q 2938 2125 2734 2354 
Q 2531 2584 2181 2584 
Q 1697 2584 1367 2211 
Q 1038 1838 1038 1288 
Q 1038 875 1239 642 
Q 1441 409 1797 409 
Q 2284 409 2611 792 
Q 2938 1175 2938 1728 
z
M 3788 4556 
L 3681 3981 
Q 3500 4100 3265 4162 
Q 3031 4225 2766 4225 
Q 2119 4225 1726 3819 
Q 1334 3413 1141 2547 
Q 1369 2813 1670 2948 
Q 1972 3084 2322 3084 
Q 2894 3084 3233 2754 
Q 3572 2425 3572 1869 
Q 3572 1413 3405 1020 
Q 3238 628 2919 331 
Q 2700 128 2409 18 
Q 2119 -91 1791 -91 
Q 1147 -91 775 318 
Q 403 728 403 1441 
Q 403 2103 573 2717 
Q 744 3331 1050 3781 
Q 1372 4256 1830 4503 
Q 2288 4750 2841 4750 
Q 3084 4750 3321 4701 
Q 3559 4653 3788 4556 
z
" transform="scale(0.015625)"/>
      <path id="DejaVuSans-Oblique-d7" d="M 4488 3438 
L 3059 2003 
L 4488 575 
L 4116 197 
L 2681 1631 
L 1247 197 
L 878 575 
L 2303 2003 
L 878 3438 
L 1247 3816 
L 2681 2381 
L 4116 3816 
L 4488 3438 
z
" transform="scale(0.015625)"/>
      <path id="DejaVuSans-Oblique-32" d="M 2950 2253 
L 934 525 
L 3163 525 
L 3053 0 
L 25 0 
L 128 531 
L 2234 2338 
Q 2656 2703 2832 2979 
Q 3009 3256 3009 3547 
Q 3009 3850 2796 4040 
Q 2584 4231 2241 4231 
Q 1944 4231 1581 4125 
Q 1219 4019 806 3816 
L 922 4441 
Q 1309 4594 1662 4672 
Q 2016 4750 2316 4750 
Q 2928 4750 3301 4425 
Q 3675 4100 3675 3572 
Q 3675 3216 3497 2892 
Q 3319 2569 2950 2253 
z
" transform="scale(0.015625)"/>
      <path id="DejaVuSans-Oblique-35" d="M 3719 4666 
L 3622 4141 
L 1691 4141 
L 1466 2988 
Q 1609 3034 1757 3056 
Q 1906 3078 2059 3078 
Q 2706 3078 3081 2731 
Q 3456 2384 3456 1791 
Q 3456 1375 3264 994 
Q 3072 613 2719 325 
Q 2469 125 2108 17 
Q 1747 -91 1319 -91 
Q 1038 -91 744 -41 
Q 450 9 128 109 
L 244 697 
Q 531 556 820 486 
Q 1109 416 1403 416 
Q 2013 416 2411 781 
Q 2809 1147 2809 1697 
Q 2809 2103 2548 2328 
Q 2288 2553 1819 2553 
Q 1572 2553 1305 2495 
Q 1038 2438 756 2322 
L 1209 4666 
L 3719 4666 
z
" transform="scale(0.015625)"/>
      <path id="DejaVuSans-Oblique-62" d="M 3169 2138 
Q 3169 2591 2961 2847 
Q 2753 3103 2388 3103 
Q 2122 3103 1889 2973 
Q 1656 2844 1484 2597 
Q 1303 2338 1198 1995 
Q 1094 1653 1094 1313 
Q 1094 881 1298 636 
Q 1503 391 1863 391 
Q 2134 391 2365 517 
Q 2597 644 2772 891 
Q 2950 1147 3059 1487 
Q 3169 1828 3169 2138 
z
M 1381 2969 
Q 1594 3256 1914 3420 
Q 2234 3584 2584 3584 
Q 3122 3584 3439 3221 
Q 3756 2859 3756 2241 
Q 3756 1734 3570 1259 
Q 3384 784 3041 416 
Q 2816 172 2522 40 
Q 2228 -91 1906 -91 
Q 1566 -91 1316 65 
Q 1066 222 909 531 
L 806 0 
L 231 0 
L 1178 4863 
L 1753 4863 
L 1381 2969 
z
" transform="scale(0.015625)"/>
      <path id="DejaVuSans-Oblique-34" d="M 2753 4666 
L 3547 4666 
L 2950 1625 
L 3616 1625 
L 3513 1100 
L 2847 1100 
L 2638 0 
L 2009 0 
L 2222 1100 
L 116 1100 
L 238 1709 
L 2753 4666 
z
M 2809 4116 
L 728 1625 
L 2322 1625 
L 2809 4116 
z
" transform="scale(0.015625)"/>
      <path id="DejaVuSans-Oblique-30" d="M 2444 4750 
Q 3078 4750 3414 4328 
Q 3750 3906 3750 3116 
Q 3750 2516 3592 1923 
Q 3434 1331 3150 863 
Q 2859 394 2467 151 
Q 2075 -91 1600 -91 
Q 988 -91 653 334 
Q 319 759 319 1544 
Q 319 2138 480 2733 
Q 641 3328 928 3794 
Q 1216 4263 1602 4506 
Q 1988 4750 2444 4750 
z
M 2406 4250 
Q 2169 4250 1955 4123 
Q 1741 3997 1569 3750 
Q 1281 3338 1111 2720 
Q 941 2103 941 1453 
Q 941 938 1123 673 
Q 1306 409 1663 409 
Q 1913 409 2125 536 
Q 2338 663 2509 909 
Q 2794 1319 2961 1936 
Q 3128 2553 3128 3206 
Q 3128 3722 2945 3986 
Q 2763 4250 2406 4250 
z
" transform="scale(0.015625)"/>
      <path id="DejaVuSans-Oblique-2e" d="M 525 794 
L 1184 794 
L 1031 0 
L 372 0 
L 525 794 
z
" transform="scale(0.015625)"/>
     </defs>
     <use xlink:href="#DejaVuSans-Oblique-54"/>
     <use xlink:href="#DejaVuSans-Oblique-72" transform="translate(53.333984 0)"/>
     <use xlink:href="#DejaVuSans-Oblique-61" transform="translate(94.447266 0)"/>
     <use xlink:href="#DejaVuSans-Oblique-73" transform="translate(155.726562 0)"/>
     <use xlink:href="#DejaVuSans-Oblique-66" transform="translate(207.826172 0)"/>
     <use xlink:href="#DejaVuSans-Oblique-6f" transform="translate(243.03125 0)"/>
     <use xlink:href="#DejaVuSans-Oblique-72" transform="translate(304.212891 0)"/>
     <use xlink:href="#DejaVuSans-Oblique-6d" transform="translate(345.326172 0)"/>
     <use xlink:href="#DejaVuSans-Oblique-69" transform="translate(442.738281 0)"/>
     <use xlink:href="#DejaVuSans-Oblique-20" transform="translate(470.521484 0)"/>
     <use xlink:href="#DejaVuSans-Oblique-75" transform="translate(502.308594 0)"/>
     <use xlink:href="#DejaVuSans-Oblique-6e" transform="translate(565.6875 0)"/>
     <use xlink:href="#DejaVuSans-Oblique-20" transform="translate(629.066406 0)"/>
     <use xlink:href="#DejaVuSans-Oblique-63" transform="translate(660.853516 0)"/>
     <use xlink:href="#DejaVuSans-Oblique-61" transform="translate(715.833984 0)"/>
     <use xlink:href="#DejaVuSans-Oblique-6c" transform="translate(777.113281 0)"/>
     <use xlink:href="#DejaVuSans-Oblique-63" transform="translate(804.896484 0)"/>
     <use xlink:href="#DejaVuSans-Oblique-6f" transform="translate(859.876953 0)"/>
     <use xlink:href="#DejaVuSans-Oblique-6c" transform="translate(921.058594 0)"/>
     <use xlink:href="#DejaVuSans-Oblique-6f" transform="translate(948.841797 0)"/>
     <use xlink:href="#DejaVuSans-Oblique-20" transform="translate(1010.023438 0)"/>
     <use xlink:href="#DejaVuSans-Oblique-64" transform="translate(1041.810547 0)"/>
     <use xlink:href="#DejaVuSans-Oblique-69" transform="translate(1105.287109 0)"/>
     <use xlink:href="#DejaVuSans-Oblique-66" transform="translate(1133.070312 0)"/>
     <use xlink:href="#DejaVuSans-Oblique-66" transform="translate(1168.275391 0)"/>
     <use xlink:href="#DejaVuSans-Oblique-69" transform="translate(1203.480469 0)"/>
     <use xlink:href="#DejaVuSans-Oblique-63" transform="translate(1231.263672 0)"/>
     <use xlink:href="#DejaVuSans-Oblique-69" transform="translate(1286.244141 0)"/>
     <use xlink:href="#DejaVuSans-Oblique-6c" transform="translate(1314.027344 0)"/>
     <use xlink:href="#DejaVuSans-Oblique-65" transform="translate(1341.810547 0)"/>
     <use xlink:href="#DejaVuSans-Oblique-20" transform="translate(1403.333984 0)"/>
     <use xlink:href="#DejaVuSans-Oblique-28" transform="translate(1435.121094 0)"/>
     <use xlink:href="#DejaVuSans-Oblique-31" transform="translate(1474.134766 0)"/>
     <use xlink:href="#DejaVuSans-Oblique-36" transform="translate(1537.757812 0)"/>
     <use xlink:href="#DejaVuSans-Oblique-d7" transform="translate(1601.380859 0)"/>
     <use xlink:href="#DejaVuSans-Oblique-32" transform="translate(1685.169922 0)"/>
     <use xlink:href="#DejaVuSans-Oblique-35" transform="translate(1748.792969 0)"/>
     <use xlink:href="#DejaVuSans-Oblique-29" transform="translate(1812.416016 0)"/>
     <use xlink:href="#DejaVuSans-Oblique-20" transform="translate(1851.429688 0)"/>
     <use xlink:href="#DejaVuSans-Oblique-69" transform="translate(1883.216797 0)"/>
     <use xlink:href="#DejaVuSans-Oblique-6e" transform="translate(1911 0)"/>
     <use xlink:href="#DejaVuSans-Oblique-20" transform="translate(1974.378906 0)"/>
     <use xlink:href="#DejaVuSans-Oblique-75" transform="translate(2006.166016 0)"/>
     <use xlink:href="#DejaVuSans-Oblique-6e" transform="translate(2069.544922 0)"/>
     <use xlink:href="#DejaVuSans-Oblique-6f" transform="translate(2132.923828 0)"/>
     <use xlink:href="#DejaVuSans-Oblique-20" transform="translate(2194.105469 0)"/>
     <use xlink:href="#DejaVuSans-Oblique-62" transform="translate(2225.892578 0)"/>
     <use xlink:href="#DejaVuSans-Oblique-61" transform="translate(2289.369141 0)"/>
     <use xlink:href="#DejaVuSans-Oblique-6e" transform="translate(2350.648438 0)"/>
     <use xlink:href="#DejaVuSans-Oblique-61" transform="translate(2414.027344 0)"/>
     <use xlink:href="#DejaVuSans-Oblique-6c" transform="translate(2475.306641 0)"/>
     <use xlink:href="#DejaVuSans-Oblique-65" transform="translate(2503.089844 0)"/>
     <use xlink:href="#DejaVuSans-Oblique-20" transform="translate(2564.613281 0)"/>
     <use xlink:href="#DejaVuSans-Oblique-28" transform="translate(2596.400391 0)"/>
     <use xlink:href="#DejaVuSans-Oblique-34" transform="translate(2635.414062 0)"/>
     <use xlink:href="#DejaVuSans-Oblique-d7" transform="translate(2699.037109 0)"/>
     <use xlink:href="#DejaVuSans-Oblique-31" transform="translate(2782.826172 0)"/>
     <use xlink:href="#DejaVuSans-Oblique-30" transform="translate(2846.449219 0)"/>
     <use xlink:href="#DejaVuSans-Oblique-30" transform="translate(2910.072266 0)"/>
     <use xlink:href="#DejaVuSans-Oblique-29" transform="translate(2973.695312 0)"/>
     <use xlink:href="#DejaVuSans-Oblique-2e" transform="translate(3012.708984 0)"/>
    </g>
    <!-- Lo stesso vale per: 12×5 = 6×10 = 60   ·   14×50 = 7×100 = 700 -->
    <g style="fill: #6e7781" transform="translate(125.491172 726.993606) scale(0.11 -0.11)">
     <defs>
      <path id="DejaVuSans-Oblique-4c" d="M 1075 4666 
L 1709 4666 
L 909 525 
L 3181 525 
L 3078 0 
L 172 0 
L 1075 4666 
z
" transform="scale(0.015625)"/>
      <path id="DejaVuSans-Oblique-3a" d="M 978 3309 
L 1638 3309 
L 1484 2516 
L 825 2516 
L 978 3309 
z
M 488 794 
L 1147 794 
L 991 0 
L 331 0 
L 488 794 
z
" transform="scale(0.015625)"/>
      <path id="DejaVuSans-Oblique-3d" d="M 678 2906 
L 4684 2906 
L 4684 2381 
L 678 2381 
L 678 2906 
z
M 678 1631 
L 4684 1631 
L 4684 1100 
L 678 1100 
L 678 1631 
z
" transform="scale(0.015625)"/>
      <path id="DejaVuSans-Oblique-b7" d="M 884 2619 
L 1544 2619 
L 1388 1825 
L 728 1825 
L 884 2619 
z
" transform="scale(0.015625)"/>
      <path id="DejaVuSans-Oblique-37" d="M 819 4666 
L 4013 4666 
L 3956 4397 
L 1288 0 
L 594 0 
L 3116 4134 
L 716 4134 
L 819 4666 
z
" transform="scale(0.015625)"/>
     </defs>
     <use xlink:href="#DejaVuSans-Oblique-4c"/>
     <use xlink:href="#DejaVuSans-Oblique-6f" transform="translate(55.712891 0)"/>
     <use xlink:href="#DejaVuSans-Oblique-20" transform="translate(116.894531 0)"/>
     <use xlink:href="#DejaVuSans-Oblique-73" transform="translate(148.681641 0)"/>
     <use xlink:href="#DejaVuSans-Oblique-74" transform="translate(200.78125 0)"/>
     <use xlink:href="#DejaVuSans-Oblique-65" transform="translate(239.990234 0)"/>
     <use xlink:href="#DejaVuSans-Oblique-73" transform="translate(301.513672 0)"/>
     <use xlink:href="#DejaVuSans-Oblique-73" transform="translate(353.613281 0)"/>
     <use xlink:href="#DejaVuSans-Oblique-6f" transform="translate(405.712891 0)"/>
     <use xlink:href="#DejaVuSans-Oblique-20" transform="translate(466.894531 0)"/>
     <use xlink:href="#DejaVuSans-Oblique-76" transform="translate(498.681641 0)"/>
     <use xlink:href="#DejaVuSans-Oblique-61" transform="translate(557.861328 0)"/>
     <use xlink:href="#DejaVuSans-Oblique-6c" transform="translate(619.140625 0)"/>
     <use xlink:href="#DejaVuSans-Oblique-65" transform="translate(646.923828 0)"/>
     <use xlink:href="#DejaVuSans-Oblique-20" transform="translate(708.447266 0)"/>
     <use xlink:href="#DejaVuSans-Oblique-70" transform="translate(740.234375 0)"/>
     <use xlink:href="#DejaVuSans-Oblique-65" transform="translate(803.710938 0)"/>
     <use xlink:href="#DejaVuSans-Oblique-72" transform="translate(865.234375 0)"/>
     <use xlink:href="#DejaVuSans-Oblique-3a" transform="translate(906.347656 0)"/>
     <use xlink:href="#DejaVuSans-Oblique-20" transform="translate(940.039062 0)"/>
     <use xlink:href="#DejaVuSans-Oblique-31" transform="translate(971.826172 0)"/>
     <use xlink:href="#DejaVuSans-Oblique-32" transform="translate(1035.449219 0)"/>
     <use xlink:href="#DejaVuSans-Oblique-d7" transform="translate(1099.072266 0)"/>
     <use xlink:href="#DejaVuSans-Oblique-35" transform="translate(1182.861328 0)"/>
     <use xlink:href="#DejaVuSans-Oblique-20" transform="translate(1246.484375 0)"/>
     <use xlink:href="#DejaVuSans-Oblique-3d" transform="translate(1278.271484 0)"/>
     <use xlink:href="#DejaVuSans-Oblique-20" transform="translate(1362.060547 0)"/>
     <use xlink:href="#DejaVuSans-Oblique-36" transform="translate(1393.847656 0)"/>
     <use xlink:href="#DejaVuSans-Oblique-d7" transform="translate(1457.470703 0)"/>
     <use xlink:href="#DejaVuSans-Oblique-31" transform="translate(1541.259766 0)"/>
     <use xlink:href="#DejaVuSans-Oblique-30" transform="translate(1604.882812 0)"/>
     <use xlink:href="#DejaVuSans-Oblique-20" transform="translate(1668.505859 0)"/>
     <use xlink:href="#DejaVuSans-Oblique-3d" transform="translate(1700.292969 0)"/>
     <use xlink:href="#DejaVuSans-Oblique-20" transform="translate(1784.082031 0)"/>
     <use xlink:href="#DejaVuSans-Oblique-36" transform="translate(1815.869141 0)"/>
     <use xlink:href="#DejaVuSans-Oblique-30" transform="translate(1879.492188 0)"/>
     <use xlink:href="#DejaVuSans-Oblique-20" transform="translate(1943.115234 0)"/>
     <use xlink:href="#DejaVuSans-Oblique-20" transform="translate(1974.902344 0)"/>
     <use xlink:href="#DejaVuSans-Oblique-20" transform="translate(2006.689453 0)"/>
     <use xlink:href="#DejaVuSans-Oblique-b7" transform="translate(2038.476562 0)"/>
     <use xlink:href="#DejaVuSans-Oblique-20" transform="translate(2070.263672 0)"/>
     <use xlink:href="#DejaVuSans-Oblique-20" transform="translate(2102.050781 0)"/>
     <use xlink:href="#DejaVuSans-Oblique-20" transform="translate(2133.837891 0)"/>
     <use xlink:href="#DejaVuSans-Oblique-31" transform="translate(2165.625 0)"/>
     <use xlink:href="#DejaVuSans-Oblique-34" transform="translate(2229.248047 0)"/>
     <use xlink:href="#DejaVuSans-Oblique-d7" transform="translate(2292.871094 0)"/>
     <use xlink:href="#DejaVuSans-Oblique-35" transform="translate(2376.660156 0)"/>
     <use xlink:href="#DejaVuSans-Oblique-30" transform="translate(2440.283203 0)"/>
     <use xlink:href="#DejaVuSans-Oblique-20" transform="translate(2503.90625 0)"/>
     <use xlink:href="#DejaVuSans-Oblique-3d" transform="translate(2535.693359 0)"/>
     <use xlink:href="#DejaVuSans-Oblique-20" transform="translate(2619.482422 0)"/>
     <use xlink:href="#DejaVuSans-Oblique-37" transform="translate(2651.269531 0)"/>
     <use xlink:href="#DejaVuSans-Oblique-d7" transform="translate(2714.892578 0)"/>
     <use xlink:href="#DejaVuSans-Oblique-31" transform="translate(2798.681641 0)"/>
     <use xlink:href="#DejaVuSans-Oblique-30" transform="translate(2862.304688 0)"/>
     <use xlink:href="#DejaVuSans-Oblique-30" transform="translate(2925.927734 0)"/>
     <use xlink:href="#DejaVuSans-Oblique-20" transform="translate(2989.550781 0)"/>
     <use xlink:href="#DejaVuSans-Oblique-3d" transform="translate(3021.337891 0)"/>
     <use xlink:href="#DejaVuSans-Oblique-20" transform="translate(3105.126953 0)"/>
     <use xlink:href="#DejaVuSans-Oblique-37" transform="translate(3136.914062 0)"/>
     <use xlink:href="#DejaVuSans-Oblique-30" transform="translate(3200.537109 0)"/>
     <use xlink:href="#DejaVuSans-Oblique-30" transform="translate(3264.160156 0)"/>
    </g>
   </g>
  </g>
 </g>
 <defs>
  <clipPath id="peed8c2af6b">
   <rect x="46.5264" y="94.968" width="523.9872" height="690.1776"/>
  </clipPath>
 </defs>
</svg>
