<?xml version="1.0" encoding="utf-8" standalone="no"?>
<!DOCTYPE svg PUBLIC "-//W3C//DTD SVG 1.1//EN"
  "http://www.w3.org/Graphics/SVG/1.1/DTD/svg11.dtd">
<svg xmlns:xlink="http://www.w3.org/1999/xlink" width="617.04pt" height="795.9456pt" viewBox="0 0 617.04 795.9456" xmlns="http://www.w3.org/2000/svg" version="1.1">
 <metadata>
  <rdf:RDF xmlns:dc="http://purl.org/dc/elements/1.1/" xmlns:cc="http://creativecommons.org/ns#" xmlns:rdf="http://www.w3.org/1999/02/22-rdf-syntax-ns#">
   <cc:Work>
    <dc:type rdf:resource="http://purl.org/dc/dcmitype/StillImage"/>
    <dc:date>2026-05-18T18:02:00.959010</dc:date>
    <dc:format>image/svg+xml</dc:format>
    <dc:creator>
     <cc:Agent>
      <dc:title>Matplotlib v3.10.9, https://matplotlib.org/</dc:title>
     </cc:Agent>
    </dc:creator>
   </cc:Work>
  </rdf:RDF>
 </metadata>
 <defs>
  <style type="text/css">*{stroke-linejoin: round; stroke-linecap: butt}</style>
 </defs>
 <g id="figure_1">
  <g id="patch_1">
   <path d="M -0 795.9456 
L 617.04 795.9456 
L 617.04 -0 
L -0 -0 
z
" style="fill: #ffffff"/>
  </g>
  <g id="axes_1">
   <g id="text_1">
    <!-- Area Model -->
    <g style="fill: #0b3d91" transform="translate(244.646562 42.83167) scale(0.2 -0.2)">
     <defs>
      <path id="DejaVuSans-Bold-41" d="M 3419 850 
L 1538 850 
L 1241 0 
L 31 0 
L 1759 4666 
L 3194 4666 
L 4922 0 
L 3713 0 
L 3419 850 
z
M 1838 1716 
L 3116 1716 
L 2478 3572 
L 1838 1716 
z
" transform="scale(0.015625)"/>
      <path id="DejaVuSans-Bold-72" d="M 3138 2547 
Q 2991 2616 2845 2648 
Q 2700 2681 2553 2681 
Q 2122 2681 1889 2404 
Q 1656 2128 1656 1613 
L 1656 0 
L 538 0 
L 538 3500 
L 1656 3500 
L 1656 2925 
Q 1872 3269 2151 3426 
Q 2431 3584 2822 3584 
Q 2878 3584 2943 3579 
Q 3009 3575 3134 3559 
L 3138 2547 
z
" transform="scale(0.015625)"/>
      <path id="DejaVuSans-Bold-65" d="M 4031 1759 
L 4031 1441 
L 1416 1441 
Q 1456 1047 1700 850 
Q 1944 653 2381 653 
Q 2734 653 3104 758 
Q 3475 863 3866 1075 
L 3866 213 
Q 3469 63 3072 -14 
Q 2675 -91 2278 -91 
Q 1328 -91 801 392 
Q 275 875 275 1747 
Q 275 2603 792 3093 
Q 1309 3584 2216 3584 
Q 3041 3584 3536 3087 
Q 4031 2591 4031 1759 
z
M 2881 2131 
Q 2881 2450 2695 2645 
Q 2509 2841 2209 2841 
Q 1884 2841 1681 2658 
Q 1478 2475 1428 2131 
L 2881 2131 
z
" transform="scale(0.015625)"/>
      <path id="DejaVuSans-Bold-61" d="M 2106 1575 
Q 1756 1575 1579 1456 
Q 1403 1338 1403 1106 
Q 1403 894 1545 773 
Q 1688 653 1941 653 
Q 2256 653 2472 879 
Q 2688 1106 2688 1447 
L 2688 1575 
L 2106 1575 
z
M 3816 1997 
L 3816 0 
L 2688 0 
L 2688 519 
Q 2463 200 2181 54 
Q 1900 -91 1497 -91 
Q 953 -91 614 226 
Q 275 544 275 1050 
Q 275 1666 698 1953 
Q 1122 2241 2028 2241 
L 2688 2241 
L 2688 2328 
Q 2688 2594 2478 2717 
Q 2269 2841 1825 2841 
Q 1466 2841 1156 2769 
Q 847 2697 581 2553 
L 581 3406 
Q 941 3494 1303 3539 
Q 1666 3584 2028 3584 
Q 2975 3584 3395 3211 
Q 3816 2838 3816 1997 
z
" transform="scale(0.015625)"/>
      <path id="DejaVuSans-Bold-20" transform="scale(0.015625)"/>
      <path id="DejaVuSans-Bold-4d" d="M 588 4666 
L 2119 4666 
L 3181 2169 
L 4250 4666 
L 5778 4666 
L 5778 0 
L 4641 0 
L 4641 3413 
L 3566 897 
L 2803 897 
L 1728 3413 
L 1728 0 
L 588 0 
L 588 4666 
z
" transform="scale(0.015625)"/>
      <path id="DejaVuSans-Bold-6f" d="M 2203 2784 
Q 1831 2784 1636 2517 
Q 1441 2250 1441 1747 
Q 1441 1244 1636 976 
Q 1831 709 2203 709 
Q 2569 709 2762 976 
Q 2956 1244 2956 1747 
Q 2956 2250 2762 2517 
Q 2569 2784 2203 2784 
z
M 2203 3584 
Q 3106 3584 3614 3096 
Q 4122 2609 4122 1747 
Q 4122 884 3614 396 
Q 3106 -91 2203 -91 
Q 1297 -91 786 396 
Q 275 884 275 1747 
Q 275 2609 786 3096 
Q 1297 3584 2203 3584 
z
" transform="scale(0.015625)"/>
      <path id="DejaVuSans-Bold-64" d="M 2919 2988 
L 2919 4863 
L 4044 4863 
L 4044 0 
L 2919 0 
L 2919 506 
Q 2688 197 2409 53 
Q 2131 -91 1766 -91 
Q 1119 -91 703 423 
Q 288 938 288 1747 
Q 288 2556 703 3070 
Q 1119 3584 1766 3584 
Q 2128 3584 2408 3439 
Q 2688 3294 2919 2988 
z
M 2181 722 
Q 2541 722 2730 984 
Q 2919 1247 2919 1747 
Q 2919 2247 2730 2509 
Q 2541 2772 2181 2772 
Q 1825 2772 1636 2509 
Q 1447 2247 1447 1747 
Q 1447 1247 1636 984 
Q 1825 722 2181 722 
z
" transform="scale(0.015625)"/>
      <path id="DejaVuSans-Bold-6c" d="M 538 4863 
L 1656 4863 
L 1656 0 
L 538 0 
L 538 4863 
z
" transform="scale(0.015625)"/>
     </defs>
     <use xlink:href="#DejaVuSans-Bold-41"/>
     <use xlink:href="#DejaVuSans-Bold-72" transform="translate(77.392578 0)"/>
     <use xlink:href="#DejaVuSans-Bold-65" transform="translate(126.708984 0)"/>
     <use xlink:href="#DejaVuSans-Bold-61" transform="translate(194.53125 0)"/>
     <use xlink:href="#DejaVuSans-Bold-20" transform="translate(262.011719 0)"/>
     <use xlink:href="#DejaVuSans-Bold-4d" transform="translate(296.826172 0)"/>
     <use xlink:href="#DejaVuSans-Bold-6f" transform="translate(396.337891 0)"/>
     <use xlink:href="#DejaVuSans-Bold-64" transform="translate(465.039062 0)"/>
     <use xlink:href="#DejaVuSans-Bold-65" transform="translate(536.621094 0)"/>
     <use xlink:href="#DejaVuSans-Bold-6c" transform="translate(604.443359 0)"/>
    </g>
   </g>
   <g id="text_2">
    <!-- Il rettangolo decomposto (USA Common Core) -->
    <g style="fill: #6e7781" transform="translate(181.005937 69.807033) scale(0.11 -0.11)">
     <defs>
      <path id="DejaVuSans-Oblique-49" d="M 1081 4666 
L 1716 4666 
L 806 0 
L 172 0 
L 1081 4666 
z
" transform="scale(0.015625)"/>
      <path id="DejaVuSans-Oblique-6c" d="M 1172 4863 
L 1747 4863 
L 800 0 
L 225 0 
L 1172 4863 
z
" transform="scale(0.015625)"/>
      <path id="DejaVuSans-Oblique-20" transform="scale(0.015625)"/>
      <path id="DejaVuSans-Oblique-72" d="M 2853 2969 
Q 2766 3016 2653 3041 
Q 2541 3066 2413 3066 
Q 1953 3066 1609 2717 
Q 1266 2369 1153 1784 
L 800 0 
L 225 0 
L 909 3500 
L 1484 3500 
L 1375 2956 
Q 1603 3259 1920 3421 
Q 2238 3584 2597 3584 
Q 2691 3584 2781 3573 
Q 2872 3563 2963 3538 
L 2853 2969 
z
" transform="scale(0.015625)"/>
      <path id="DejaVuSans-Oblique-65" d="M 3078 2063 
Q 3088 2113 3092 2166 
Q 3097 2219 3097 2272 
Q 3097 2653 2873 2875 
Q 2650 3097 2266 3097 
Q 1838 3097 1509 2826 
Q 1181 2556 1013 2059 
L 3078 2063 
z
M 3578 1613 
L 903 1613 
Q 884 1494 878 1425 
Q 872 1356 872 1306 
Q 872 872 1139 634 
Q 1406 397 1894 397 
Q 2269 397 2603 481 
Q 2938 566 3225 728 
L 3116 159 
Q 2806 34 2476 -28 
Q 2147 -91 1806 -91 
Q 1078 -91 686 257 
Q 294 606 294 1247 
Q 294 1794 489 2264 
Q 684 2734 1063 3103 
Q 1306 3334 1642 3459 
Q 1978 3584 2356 3584 
Q 2950 3584 3301 3228 
Q 3653 2872 3653 2272 
Q 3653 2128 3634 1964 
Q 3616 1800 3578 1613 
z
" transform="scale(0.015625)"/>
      <path id="DejaVuSans-Oblique-74" d="M 2706 3500 
L 2619 3053 
L 1472 3053 
L 1100 1153 
Q 1081 1047 1072 975 
Q 1063 903 1063 863 
Q 1063 663 1183 572 
Q 1303 481 1569 481 
L 2150 481 
L 2053 0 
L 1503 0 
Q 991 0 739 200 
Q 488 400 488 806 
Q 488 878 497 964 
Q 506 1050 525 1153 
L 897 3053 
L 409 3053 
L 500 3500 
L 978 3500 
L 1172 4494 
L 1747 4494 
L 1556 3500 
L 2706 3500 
z
" transform="scale(0.015625)"/>
      <path id="DejaVuSans-Oblique-61" d="M 3438 1997 
L 3047 0 
L 2472 0 
L 2578 531 
Q 2325 219 2001 64 
Q 1678 -91 1281 -91 
Q 834 -91 548 182 
Q 263 456 263 884 
Q 263 1497 752 1853 
Q 1241 2209 2100 2209 
L 2900 2209 
L 2931 2363 
Q 2938 2388 2941 2417 
Q 2944 2447 2944 2509 
Q 2944 2788 2717 2942 
Q 2491 3097 2081 3097 
Q 1800 3097 1504 3025 
Q 1209 2953 897 2809 
L 997 3341 
Q 1322 3463 1633 3523 
Q 1944 3584 2234 3584 
Q 2853 3584 3176 3315 
Q 3500 3047 3500 2534 
Q 3500 2431 3484 2292 
Q 3469 2153 3438 1997 
z
M 2816 1759 
L 2241 1759 
Q 1534 1759 1195 1570 
Q 856 1381 856 984 
Q 856 709 1029 553 
Q 1203 397 1509 397 
Q 1978 397 2328 733 
Q 2678 1069 2791 1631 
L 2816 1759 
z
" transform="scale(0.015625)"/>
      <path id="DejaVuSans-Oblique-6e" d="M 3566 2113 
L 3156 0 
L 2578 0 
L 2988 2091 
Q 3016 2238 3031 2350 
Q 3047 2463 3047 2528 
Q 3047 2791 2881 2937 
Q 2716 3084 2419 3084 
Q 1956 3084 1622 2776 
Q 1288 2469 1184 1941 
L 800 0 
L 225 0 
L 903 3500 
L 1478 3500 
L 1363 2950 
Q 1603 3253 1940 3418 
Q 2278 3584 2650 3584 
Q 3113 3584 3367 3334 
Q 3622 3084 3622 2631 
Q 3622 2519 3608 2391 
Q 3594 2263 3566 2113 
z
" transform="scale(0.015625)"/>
      <path id="DejaVuSans-Oblique-67" d="M 3816 3500 
L 3219 434 
Q 3047 -456 2561 -893 
Q 2075 -1331 1253 -1331 
Q 950 -1331 690 -1286 
Q 431 -1241 206 -1147 
L 313 -588 
Q 525 -725 762 -790 
Q 1000 -856 1269 -856 
Q 1816 -856 2167 -557 
Q 2519 -259 2631 300 
L 2681 563 
Q 2441 288 2122 144 
Q 1803 0 1434 0 
Q 903 0 598 351 
Q 294 703 294 1319 
Q 294 1803 478 2267 
Q 663 2731 997 3091 
Q 1219 3328 1514 3456 
Q 1809 3584 2131 3584 
Q 2484 3584 2746 3420 
Q 3009 3256 3138 2956 
L 3238 3500 
L 3816 3500 
z
M 2950 2216 
Q 2950 2641 2750 2872 
Q 2550 3103 2181 3103 
Q 1953 3103 1747 3012 
Q 1541 2922 1394 2759 
Q 1156 2491 1023 2127 
Q 891 1763 891 1375 
Q 891 944 1092 712 
Q 1294 481 1672 481 
Q 2219 481 2584 976 
Q 2950 1472 2950 2216 
z
" transform="scale(0.015625)"/>
      <path id="DejaVuSans-Oblique-6f" d="M 1625 -91 
Q 1009 -91 651 289 
Q 294 669 294 1325 
Q 294 1706 417 2101 
Q 541 2497 738 2766 
Q 1047 3184 1428 3384 
Q 1809 3584 2291 3584 
Q 2888 3584 3255 3212 
Q 3622 2841 3622 2241 
Q 3622 1825 3500 1412 
Q 3378 1000 3181 728 
Q 2875 309 2494 109 
Q 2113 -91 1625 -91 
z
M 891 1344 
Q 891 869 1089 633 
Q 1288 397 1691 397 
Q 2269 397 2648 901 
Q 3028 1406 3028 2181 
Q 3028 2634 2825 2865 
Q 2622 3097 2228 3097 
Q 1903 3097 1650 2945 
Q 1397 2794 1197 2484 
Q 1050 2253 970 1956 
Q 891 1659 891 1344 
z
" transform="scale(0.015625)"/>
      <path id="DejaVuSans-Oblique-64" d="M 2675 525 
Q 2444 222 2128 65 
Q 1813 -91 1428 -91 
Q 903 -91 598 267 
Q 294 625 294 1247 
Q 294 1766 478 2236 
Q 663 2706 1013 3078 
Q 1244 3325 1534 3454 
Q 1825 3584 2144 3584 
Q 2481 3584 2739 3421 
Q 2997 3259 3138 2956 
L 3513 4863 
L 4091 4863 
L 3144 0 
L 2566 0 
L 2675 525 
z
M 891 1350 
Q 891 897 1095 644 
Q 1300 391 1663 391 
Q 1931 391 2161 520 
Q 2391 650 2566 903 
Q 2750 1166 2856 1509 
Q 2963 1853 2963 2188 
Q 2963 2622 2758 2865 
Q 2553 3109 2194 3109 
Q 1922 3109 1687 2981 
Q 1453 2853 1288 2613 
Q 1106 2353 998 2009 
Q 891 1666 891 1350 
z
" transform="scale(0.015625)"/>
      <path id="DejaVuSans-Oblique-63" d="M 3431 3366 
L 3316 2797 
Q 3109 2947 2876 3022 
Q 2644 3097 2394 3097 
Q 2119 3097 1870 3000 
Q 1622 2903 1453 2725 
Q 1184 2453 1037 2087 
Q 891 1722 891 1331 
Q 891 859 1127 628 
Q 1363 397 1844 397 
Q 2081 397 2348 469 
Q 2616 541 2906 684 
L 2797 116 
Q 2547 13 2283 -39 
Q 2019 -91 1741 -91 
Q 1044 -91 669 257 
Q 294 606 294 1253 
Q 294 1797 489 2255 
Q 684 2713 1069 3078 
Q 1331 3328 1684 3456 
Q 2038 3584 2456 3584 
Q 2700 3584 2940 3529 
Q 3181 3475 3431 3366 
z
" transform="scale(0.015625)"/>
      <path id="DejaVuSans-Oblique-6d" d="M 5747 2113 
L 5338 0 
L 4763 0 
L 5166 2094 
Q 5191 2228 5203 2325 
Q 5216 2422 5216 2491 
Q 5216 2772 5059 2928 
Q 4903 3084 4622 3084 
Q 4203 3084 3875 2770 
Q 3547 2456 3450 1953 
L 3066 0 
L 2491 0 
L 2900 2094 
Q 2925 2209 2937 2307 
Q 2950 2406 2950 2484 
Q 2950 2769 2794 2926 
Q 2638 3084 2363 3084 
Q 1938 3084 1609 2770 
Q 1281 2456 1184 1953 
L 800 0 
L 225 0 
L 909 3500 
L 1484 3500 
L 1375 2956 
Q 1609 3263 1923 3423 
Q 2238 3584 2597 3584 
Q 2978 3584 3223 3384 
Q 3469 3184 3519 2828 
Q 3781 3197 4126 3390 
Q 4472 3584 4856 3584 
Q 5306 3584 5551 3325 
Q 5797 3066 5797 2591 
Q 5797 2488 5784 2364 
Q 5772 2241 5747 2113 
z
" transform="scale(0.015625)"/>
      <path id="DejaVuSans-Oblique-70" d="M 3175 2156 
Q 3175 2616 2975 2859 
Q 2775 3103 2400 3103 
Q 2144 3103 1911 2972 
Q 1678 2841 1497 2591 
Q 1319 2344 1212 1994 
Q 1106 1644 1106 1300 
Q 1106 863 1306 627 
Q 1506 391 1875 391 
Q 2147 391 2380 519 
Q 2613 647 2778 891 
Q 2956 1147 3065 1494 
Q 3175 1841 3175 2156 
z
M 1394 2969 
Q 1625 3272 1939 3428 
Q 2253 3584 2638 3584 
Q 3175 3584 3472 3232 
Q 3769 2881 3769 2247 
Q 3769 1728 3584 1258 
Q 3400 788 3053 416 
Q 2822 169 2531 39 
Q 2241 -91 1919 -91 
Q 1547 -91 1294 64 
Q 1041 219 916 525 
L 556 -1331 
L -19 -1331 
L 922 3500 
L 1497 3500 
L 1394 2969 
z
" transform="scale(0.015625)"/>
      <path id="DejaVuSans-Oblique-73" d="M 3200 3397 
L 3091 2853 
Q 2863 2978 2609 3040 
Q 2356 3103 2088 3103 
Q 1634 3103 1373 2948 
Q 1113 2794 1113 2528 
Q 1113 2219 1719 2053 
Q 1766 2041 1788 2034 
L 1972 1978 
Q 2547 1819 2739 1644 
Q 2931 1469 2931 1166 
Q 2931 609 2489 259 
Q 2047 -91 1331 -91 
Q 1053 -91 747 -37 
Q 441 16 72 128 
L 184 722 
Q 500 559 806 475 
Q 1113 391 1394 391 
Q 1816 391 2080 572 
Q 2344 753 2344 1031 
Q 2344 1331 1650 1516 
L 1591 1531 
L 1394 1581 
Q 956 1697 753 1886 
Q 550 2075 550 2369 
Q 550 2928 970 3256 
Q 1391 3584 2113 3584 
Q 2397 3584 2667 3537 
Q 2938 3491 3200 3397 
z
" transform="scale(0.015625)"/>
      <path id="DejaVuSans-Oblique-28" d="M 2731 4856 
Q 1903 3822 1495 2892 
Q 1088 1963 1088 1100 
Q 1088 606 1206 120 
Q 1325 -366 1563 -844 
L 1063 -844 
Q 775 -306 634 201 
Q 494 709 494 1197 
Q 494 2125 923 3036 
Q 1353 3947 2222 4856 
L 2731 4856 
z
" transform="scale(0.015625)"/>
      <path id="DejaVuSans-Oblique-55" d="M 991 4666 
L 1625 4666 
L 1075 1831 
Q 1041 1641 1027 1517 
Q 1013 1394 1013 1300 
Q 1013 869 1253 645 
Q 1494 422 1959 422 
Q 2563 422 2898 753 
Q 3234 1084 3378 1831 
L 3928 4666 
L 4563 4666 
L 4000 1753 
Q 3816 809 3300 359 
Q 2784 -91 1888 -91 
Q 1188 -91 780 261 
Q 372 613 372 1216 
Q 372 1325 387 1461 
Q 403 1597 434 1753 
L 991 4666 
z
" transform="scale(0.015625)"/>
      <path id="DejaVuSans-Oblique-53" d="M 3859 4513 
L 3738 3897 
Q 3422 4066 3111 4152 
Q 2800 4238 2509 4238 
Q 1944 4238 1609 3991 
Q 1275 3744 1275 3334 
Q 1275 3109 1398 2989 
Q 1522 2869 2034 2731 
L 2413 2638 
Q 3053 2472 3303 2217 
Q 3553 1963 3553 1503 
Q 3553 797 2998 353 
Q 2444 -91 1538 -91 
Q 1166 -91 791 -17 
Q 416 56 38 206 
L 166 856 
Q 513 641 861 531 
Q 1209 422 1556 422 
Q 2147 422 2503 684 
Q 2859 947 2859 1369 
Q 2859 1650 2717 1795 
Q 2575 1941 2106 2059 
L 1728 2156 
Q 1081 2325 845 2545 
Q 609 2766 609 3163 
Q 609 3859 1145 4304 
Q 1681 4750 2541 4750 
Q 2875 4750 3203 4690 
Q 3531 4631 3859 4513 
z
" transform="scale(0.015625)"/>
      <path id="DejaVuSans-Oblique-41" d="M 2356 4666 
L 3072 4666 
L 3938 0 
L 3278 0 
L 3084 1197 
L 984 1197 
L 325 0 
L -341 0 
L 2356 4666 
z
M 2584 4044 
L 1275 1722 
L 2988 1722 
L 2584 4044 
z
" transform="scale(0.015625)"/>
      <path id="DejaVuSans-Oblique-43" d="M 4447 4306 
L 4319 3641 
Q 4019 3944 3683 4091 
Q 3347 4238 2956 4238 
Q 2422 4238 2017 3981 
Q 1613 3725 1319 3200 
Q 1131 2863 1032 2486 
Q 934 2109 934 1728 
Q 934 1091 1264 756 
Q 1594 422 2222 422 
Q 2656 422 3056 561 
Q 3456 700 3834 978 
L 3688 231 
Q 3316 72 2936 -9 
Q 2556 -91 2175 -91 
Q 1278 -91 773 396 
Q 269 884 269 1753 
Q 269 2309 461 2846 
Q 653 3384 1013 3828 
Q 1394 4300 1883 4525 
Q 2372 4750 3022 4750 
Q 3422 4750 3780 4639 
Q 4138 4528 4447 4306 
z
" transform="scale(0.015625)"/>
      <path id="DejaVuSans-Oblique-29" d="M -397 -844 
Q 434 191 840 1120 
Q 1247 2050 1247 2913 
Q 1247 3406 1130 3892 
Q 1013 4378 775 4856 
L 1275 4856 
Q 1563 4316 1703 3812 
Q 1844 3309 1844 2822 
Q 1844 1891 1411 973 
Q 978 56 116 -844 
L -397 -844 
z
" transform="scale(0.015625)"/>
     </defs>
     <use xlink:href="#DejaVuSans-Oblique-49"/>
     <use xlink:href="#DejaVuSans-Oblique-6c" transform="translate(29.492188 0)"/>
     <use xlink:href="#DejaVuSans-Oblique-20" transform="translate(57.275391 0)"/>
     <use xlink:href="#DejaVuSans-Oblique-72" transform="translate(89.0625 0)"/>
     <use xlink:href="#DejaVuSans-Oblique-65" transform="translate(130.175781 0)"/>
     <use xlink:href="#DejaVuSans-Oblique-74" transform="translate(191.699219 0)"/>
     <use xlink:href="#DejaVuSans-Oblique-74" transform="translate(230.908203 0)"/>
     <use xlink:href="#DejaVuSans-Oblique-61" transform="translate(270.117188 0)"/>
     <use xlink:href="#DejaVuSans-Oblique-6e" transform="translate(331.396484 0)"/>
     <use xlink:href="#DejaVuSans-Oblique-67" transform="translate(394.775391 0)"/>
     <use xlink:href="#DejaVuSans-Oblique-6f" transform="translate(458.251953 0)"/>
     <use xlink:href="#DejaVuSans-Oblique-6c" transform="translate(519.433594 0)"/>
     <use xlink:href="#DejaVuSans-Oblique-6f" transform="translate(547.216797 0)"/>
     <use xlink:href="#DejaVuSans-Oblique-20" transform="translate(608.398438 0)"/>
     <use xlink:href="#DejaVuSans-Oblique-64" transform="translate(640.185547 0)"/>
     <use xlink:href="#DejaVuSans-Oblique-65" transform="translate(703.662109 0)"/>
     <use xlink:href="#DejaVuSans-Oblique-63" transform="translate(765.185547 0)"/>
     <use xlink:href="#DejaVuSans-Oblique-6f" transform="translate(820.166016 0)"/>
     <use xlink:href="#DejaVuSans-Oblique-6d" transform="translate(881.347656 0)"/>
     <use xlink:href="#DejaVuSans-Oblique-70" transform="translate(978.759766 0)"/>
     <use xlink:href="#DejaVuSans-Oblique-6f" transform="translate(1042.236328 0)"/>
     <use xlink:href="#DejaVuSans-Oblique-73" transform="translate(1103.417969 0)"/>
     <use xlink:href="#DejaVuSans-Oblique-74" transform="translate(1155.517578 0)"/>
     <use xlink:href="#DejaVuSans-Oblique-6f" transform="translate(1194.726562 0)"/>
     <use xlink:href="#DejaVuSans-Oblique-20" transform="translate(1255.908203 0)"/>
     <use xlink:href="#DejaVuSans-Oblique-28" transform="translate(1287.695312 0)"/>
     <use xlink:href="#DejaVuSans-Oblique-55" transform="translate(1326.708984 0)"/>
     <use xlink:href="#DejaVuSans-Oblique-53" transform="translate(1399.902344 0)"/>
     <use xlink:href="#DejaVuSans-Oblique-41" transform="translate(1463.378906 0)"/>
     <use xlink:href="#DejaVuSans-Oblique-20" transform="translate(1531.787109 0)"/>
     <use xlink:href="#DejaVuSans-Oblique-43" transform="translate(1563.574219 0)"/>
     <use xlink:href="#DejaVuSans-Oblique-6f" transform="translate(1633.398438 0)"/>
     <use xlink:href="#DejaVuSans-Oblique-6d" transform="translate(1694.580078 0)"/>
     <use xlink:href="#DejaVuSans-Oblique-6d" transform="translate(1791.992188 0)"/>
     <use xlink:href="#DejaVuSans-Oblique-6f" transform="translate(1889.404297 0)"/>
     <use xlink:href="#DejaVuSans-Oblique-6e" transform="translate(1950.585938 0)"/>
     <use xlink:href="#DejaVuSans-Oblique-20" transform="translate(2013.964844 0)"/>
     <use xlink:href="#DejaVuSans-Oblique-43" transform="translate(2045.751953 0)"/>
     <use xlink:href="#DejaVuSans-Oblique-6f" transform="translate(2115.576172 0)"/>
     <use xlink:href="#DejaVuSans-Oblique-72" transform="translate(2176.757812 0)"/>
     <use xlink:href="#DejaVuSans-Oblique-65" transform="translate(2217.871094 0)"/>
     <use xlink:href="#DejaVuSans-Oblique-29" transform="translate(2279.394531 0)"/>
    </g>
   </g>
  </g>
  <g id="axes_2">
   <g id="patch_2">
    <path d="M 164.42352 555.0864 
L 370.275634 555.0864 
L 370.275634 353.7846 
L 164.42352 353.7846 
z
" clip-path="url(#p05db02fbda)" style="fill: #a0c4ff; stroke: #ffffff; stroke-width: 2; stroke-linejoin: miter"/>
   </g>
   <g id="patch_3">
    <path d="M 370.275634 555.0864 
L 452.61648 555.0864 
L 452.61648 353.7846 
L 370.275634 353.7846 
z
" clip-path="url(#p05db02fbda)" style="fill: #fdc5f5; stroke: #ffffff; stroke-width: 2; stroke-linejoin: miter"/>
   </g>
   <g id="patch_4">
    <path d="M 164.42352 595.34676 
L 370.275634 595.34676 
L 370.275634 555.0864 
L 164.42352 555.0864 
z
" clip-path="url(#p05db02fbda)" style="fill: #caffbf; stroke: #ffffff; stroke-width: 2; stroke-linejoin: miter"/>
   </g>
   <g id="patch_5">
    <path d="M 370.275634 595.34676 
L 452.61648 595.34676 
L 452.61648 555.0864 
L 370.275634 555.0864 
z
" clip-path="url(#p05db02fbda)" style="fill: #ffd6a5; stroke: #ffffff; stroke-width: 2; stroke-linejoin: miter"/>
   </g>
   <g id="text_3">
    <g id="patch_6">
     <path d="M 97.396172 170.367265 
L 519.643828 170.367265 
Q 525.393828 170.367265 525.393828 164.617265 
L 525.393828 136.378656 
Q 525.393828 130.628656 519.643828 130.628656 
L 97.396172 130.628656 
Q 91.646172 130.628656 91.646172 136.378656 
L 91.646172 164.617265 
Q 91.646172 170.367265 97.396172 170.367265 
z
" style="fill: #fffbe6; stroke: #f0a500; stroke-width: 1.5; stroke-linejoin: miter"/>
    </g>
    <!-- Per moltiplicare due numeri grandi (es. 14 × 12) si disegna un rettangolo -->
    <g style="fill: #1d1d1f" transform="translate(97.396172 145.116859) scale(0.115 -0.115)">
     <defs>
      <path id="DejaVuSans-50" d="M 1259 4147 
L 1259 2394 
L 2053 2394 
Q 2494 2394 2734 2622 
Q 2975 2850 2975 3272 
Q 2975 3691 2734 3919 
Q 2494 4147 2053 4147 
L 1259 4147 
z
M 628 4666 
L 2053 4666 
Q 2838 4666 3239 4311 
Q 3641 3956 3641 3272 
Q 3641 2581 3239 2228 
Q 2838 1875 2053 1875 
L 1259 1875 
L 1259 0 
L 628 0 
L 628 4666 
z
" transform="scale(0.015625)"/>
      <path id="DejaVuSans-65" d="M 3597 1894 
L 3597 1613 
L 953 1613 
Q 991 1019 1311 708 
Q 1631 397 2203 397 
Q 2534 397 2845 478 
Q 3156 559 3463 722 
L 3463 178 
Q 3153 47 2828 -22 
Q 2503 -91 2169 -91 
Q 1331 -91 842 396 
Q 353 884 353 1716 
Q 353 2575 817 3079 
Q 1281 3584 2069 3584 
Q 2775 3584 3186 3129 
Q 3597 2675 3597 1894 
z
M 3022 2063 
Q 3016 2534 2758 2815 
Q 2500 3097 2075 3097 
Q 1594 3097 1305 2825 
Q 1016 2553 972 2059 
L 3022 2063 
z
" transform="scale(0.015625)"/>
      <path id="DejaVuSans-72" d="M 2631 2963 
Q 2534 3019 2420 3045 
Q 2306 3072 2169 3072 
Q 1681 3072 1420 2755 
Q 1159 2438 1159 1844 
L 1159 0 
L 581 0 
L 581 3500 
L 1159 3500 
L 1159 2956 
Q 1341 3275 1631 3429 
Q 1922 3584 2338 3584 
Q 2397 3584 2469 3576 
Q 2541 3569 2628 3553 
L 2631 2963 
z
" transform="scale(0.015625)"/>
      <path id="DejaVuSans-20" transform="scale(0.015625)"/>
      <path id="DejaVuSans-6d" d="M 3328 2828 
Q 3544 3216 3844 3400 
Q 4144 3584 4550 3584 
Q 5097 3584 5394 3201 
Q 5691 2819 5691 2113 
L 5691 0 
L 5113 0 
L 5113 2094 
Q 5113 2597 4934 2840 
Q 4756 3084 4391 3084 
Q 3944 3084 3684 2787 
Q 3425 2491 3425 1978 
L 3425 0 
L 2847 0 
L 2847 2094 
Q 2847 2600 2669 2842 
Q 2491 3084 2119 3084 
Q 1678 3084 1418 2786 
Q 1159 2488 1159 1978 
L 1159 0 
L 581 0 
L 581 3500 
L 1159 3500 
L 1159 2956 
Q 1356 3278 1631 3431 
Q 1906 3584 2284 3584 
Q 2666 3584 2933 3390 
Q 3200 3197 3328 2828 
z
" transform="scale(0.015625)"/>
      <path id="DejaVuSans-6f" d="M 1959 3097 
Q 1497 3097 1228 2736 
Q 959 2375 959 1747 
Q 959 1119 1226 758 
Q 1494 397 1959 397 
Q 2419 397 2687 759 
Q 2956 1122 2956 1747 
Q 2956 2369 2687 2733 
Q 2419 3097 1959 3097 
z
M 1959 3584 
Q 2709 3584 3137 3096 
Q 3566 2609 3566 1747 
Q 3566 888 3137 398 
Q 2709 -91 1959 -91 
Q 1206 -91 779 398 
Q 353 888 353 1747 
Q 353 2609 779 3096 
Q 1206 3584 1959 3584 
z
" transform="scale(0.015625)"/>
      <path id="DejaVuSans-6c" d="M 603 4863 
L 1178 4863 
L 1178 0 
L 603 0 
L 603 4863 
z
" transform="scale(0.015625)"/>
      <path id="DejaVuSans-74" d="M 1172 4494 
L 1172 3500 
L 2356 3500 
L 2356 3053 
L 1172 3053 
L 1172 1153 
Q 1172 725 1289 603 
Q 1406 481 1766 481 
L 2356 481 
L 2356 0 
L 1766 0 
Q 1100 0 847 248 
Q 594 497 594 1153 
L 594 3053 
L 172 3053 
L 172 3500 
L 594 3500 
L 594 4494 
L 1172 4494 
z
" transform="scale(0.015625)"/>
      <path id="DejaVuSans-69" d="M 603 3500 
L 1178 3500 
L 1178 0 
L 603 0 
L 603 3500 
z
M 603 4863 
L 1178 4863 
L 1178 4134 
L 603 4134 
L 603 4863 
z
" transform="scale(0.015625)"/>
      <path id="DejaVuSans-70" d="M 1159 525 
L 1159 -1331 
L 581 -1331 
L 581 3500 
L 1159 3500 
L 1159 2969 
Q 1341 3281 1617 3432 
Q 1894 3584 2278 3584 
Q 2916 3584 3314 3078 
Q 3713 2572 3713 1747 
Q 3713 922 3314 415 
Q 2916 -91 2278 -91 
Q 1894 -91 1617 61 
Q 1341 213 1159 525 
z
M 3116 1747 
Q 3116 2381 2855 2742 
Q 2594 3103 2138 3103 
Q 1681 3103 1420 2742 
Q 1159 2381 1159 1747 
Q 1159 1113 1420 752 
Q 1681 391 2138 391 
Q 2594 391 2855 752 
Q 3116 1113 3116 1747 
z
" transform="scale(0.015625)"/>
      <path id="DejaVuSans-63" d="M 3122 3366 
L 3122 2828 
Q 2878 2963 2633 3030 
Q 2388 3097 2138 3097 
Q 1578 3097 1268 2742 
Q 959 2388 959 1747 
Q 959 1106 1268 751 
Q 1578 397 2138 397 
Q 2388 397 2633 464 
Q 2878 531 3122 666 
L 3122 134 
Q 2881 22 2623 -34 
Q 2366 -91 2075 -91 
Q 1284 -91 818 406 
Q 353 903 353 1747 
Q 353 2603 823 3093 
Q 1294 3584 2113 3584 
Q 2378 3584 2631 3529 
Q 2884 3475 3122 3366 
z
" transform="scale(0.015625)"/>
      <path id="DejaVuSans-61" d="M 2194 1759 
Q 1497 1759 1228 1600 
Q 959 1441 959 1056 
Q 959 750 1161 570 
Q 1363 391 1709 391 
Q 2188 391 2477 730 
Q 2766 1069 2766 1631 
L 2766 1759 
L 2194 1759 
z
M 3341 1997 
L 3341 0 
L 2766 0 
L 2766 531 
Q 2569 213 2275 61 
Q 1981 -91 1556 -91 
Q 1019 -91 701 211 
Q 384 513 384 1019 
Q 384 1609 779 1909 
Q 1175 2209 1959 2209 
L 2766 2209 
L 2766 2266 
Q 2766 2663 2505 2880 
Q 2244 3097 1772 3097 
Q 1472 3097 1187 3025 
Q 903 2953 641 2809 
L 641 3341 
Q 956 3463 1253 3523 
Q 1550 3584 1831 3584 
Q 2591 3584 2966 3190 
Q 3341 2797 3341 1997 
z
" transform="scale(0.015625)"/>
      <path id="DejaVuSans-64" d="M 2906 2969 
L 2906 4863 
L 3481 4863 
L 3481 0 
L 2906 0 
L 2906 525 
Q 2725 213 2448 61 
Q 2172 -91 1784 -91 
Q 1150 -91 751 415 
Q 353 922 353 1747 
Q 353 2572 751 3078 
Q 1150 3584 1784 3584 
Q 2172 3584 2448 3432 
Q 2725 3281 2906 2969 
z
M 947 1747 
Q 947 1113 1208 752 
Q 1469 391 1925 391 
Q 2381 391 2643 752 
Q 2906 1113 2906 1747 
Q 2906 2381 2643 2742 
Q 2381 3103 1925 3103 
Q 1469 3103 1208 2742 
Q 947 2381 947 1747 
z
" transform="scale(0.015625)"/>
      <path id="DejaVuSans-75" d="M 544 1381 
L 544 3500 
L 1119 3500 
L 1119 1403 
Q 1119 906 1312 657 
Q 1506 409 1894 409 
Q 2359 409 2629 706 
Q 2900 1003 2900 1516 
L 2900 3500 
L 3475 3500 
L 3475 0 
L 2900 0 
L 2900 538 
Q 2691 219 2414 64 
Q 2138 -91 1772 -91 
Q 1169 -91 856 284 
Q 544 659 544 1381 
z
M 1991 3584 
L 1991 3584 
z
" transform="scale(0.015625)"/>
      <path id="DejaVuSans-6e" d="M 3513 2113 
L 3513 0 
L 2938 0 
L 2938 2094 
Q 2938 2591 2744 2837 
Q 2550 3084 2163 3084 
Q 1697 3084 1428 2787 
Q 1159 2491 1159 1978 
L 1159 0 
L 581 0 
L 581 3500 
L 1159 3500 
L 1159 2956 
Q 1366 3272 1645 3428 
Q 1925 3584 2291 3584 
Q 2894 3584 3203 3211 
Q 3513 2838 3513 2113 
z
" transform="scale(0.015625)"/>
      <path id="DejaVuSans-67" d="M 2906 1791 
Q 2906 2416 2648 2759 
Q 2391 3103 1925 3103 
Q 1463 3103 1205 2759 
Q 947 2416 947 1791 
Q 947 1169 1205 825 
Q 1463 481 1925 481 
Q 2391 481 2648 825 
Q 2906 1169 2906 1791 
z
M 3481 434 
Q 3481 -459 3084 -895 
Q 2688 -1331 1869 -1331 
Q 1566 -1331 1297 -1286 
Q 1028 -1241 775 -1147 
L 775 -588 
Q 1028 -725 1275 -790 
Q 1522 -856 1778 -856 
Q 2344 -856 2625 -561 
Q 2906 -266 2906 331 
L 2906 616 
Q 2728 306 2450 153 
Q 2172 0 1784 0 
Q 1141 0 747 490 
Q 353 981 353 1791 
Q 353 2603 747 3093 
Q 1141 3584 1784 3584 
Q 2172 3584 2450 3431 
Q 2728 3278 2906 2969 
L 2906 3500 
L 3481 3500 
L 3481 434 
z
" transform="scale(0.015625)"/>
      <path id="DejaVuSans-28" d="M 1984 4856 
Q 1566 4138 1362 3434 
Q 1159 2731 1159 2009 
Q 1159 1288 1364 580 
Q 1569 -128 1984 -844 
L 1484 -844 
Q 1016 -109 783 600 
Q 550 1309 550 2009 
Q 550 2706 781 3412 
Q 1013 4119 1484 4856 
L 1984 4856 
z
" transform="scale(0.015625)"/>
      <path id="DejaVuSans-73" d="M 2834 3397 
L 2834 2853 
Q 2591 2978 2328 3040 
Q 2066 3103 1784 3103 
Q 1356 3103 1142 2972 
Q 928 2841 928 2578 
Q 928 2378 1081 2264 
Q 1234 2150 1697 2047 
L 1894 2003 
Q 2506 1872 2764 1633 
Q 3022 1394 3022 966 
Q 3022 478 2636 193 
Q 2250 -91 1575 -91 
Q 1294 -91 989 -36 
Q 684 19 347 128 
L 347 722 
Q 666 556 975 473 
Q 1284 391 1588 391 
Q 1994 391 2212 530 
Q 2431 669 2431 922 
Q 2431 1156 2273 1281 
Q 2116 1406 1581 1522 
L 1381 1569 
Q 847 1681 609 1914 
Q 372 2147 372 2553 
Q 372 3047 722 3315 
Q 1072 3584 1716 3584 
Q 2034 3584 2315 3537 
Q 2597 3491 2834 3397 
z
" transform="scale(0.015625)"/>
      <path id="DejaVuSans-2e" d="M 684 794 
L 1344 794 
L 1344 0 
L 684 0 
L 684 794 
z
" transform="scale(0.015625)"/>
      <path id="DejaVuSans-31" d="M 794 531 
L 1825 531 
L 1825 4091 
L 703 3866 
L 703 4441 
L 1819 4666 
L 2450 4666 
L 2450 531 
L 3481 531 
L 3481 0 
L 794 0 
L 794 531 
z
" transform="scale(0.015625)"/>
      <path id="DejaVuSans-34" d="M 2419 4116 
L 825 1625 
L 2419 1625 
L 2419 4116 
z
M 2253 4666 
L 3047 4666 
L 3047 1625 
L 3713 1625 
L 3713 1100 
L 3047 1100 
L 3047 0 
L 2419 0 
L 2419 1100 
L 313 1100 
L 313 1709 
L 2253 4666 
z
" transform="scale(0.015625)"/>
      <path id="DejaVuSans-d7" d="M 4488 3438 
L 3059 2003 
L 4488 575 
L 4116 197 
L 2681 1631 
L 1247 197 
L 878 575 
L 2303 2003 
L 878 3438 
L 1247 3816 
L 2681 2381 
L 4116 3816 
L 4488 3438 
z
" transform="scale(0.015625)"/>
      <path id="DejaVuSans-32" d="M 1228 531 
L 3431 531 
L 3431 0 
L 469 0 
L 469 531 
Q 828 903 1448 1529 
Q 2069 2156 2228 2338 
Q 2531 2678 2651 2914 
Q 2772 3150 2772 3378 
Q 2772 3750 2511 3984 
Q 2250 4219 1831 4219 
Q 1534 4219 1204 4116 
Q 875 4013 500 3803 
L 500 4441 
Q 881 4594 1212 4672 
Q 1544 4750 1819 4750 
Q 2544 4750 2975 4387 
Q 3406 4025 3406 3419 
Q 3406 3131 3298 2873 
Q 3191 2616 2906 2266 
Q 2828 2175 2409 1742 
Q 1991 1309 1228 531 
z
" transform="scale(0.015625)"/>
      <path id="DejaVuSans-29" d="M 513 4856 
L 1013 4856 
Q 1481 4119 1714 3412 
Q 1947 2706 1947 2009 
Q 1947 1309 1714 600 
Q 1481 -109 1013 -844 
L 513 -844 
Q 928 -128 1133 580 
Q 1338 1288 1338 2009 
Q 1338 2731 1133 3434 
Q 928 4138 513 4856 
z
" transform="scale(0.015625)"/>
     </defs>
     <use xlink:href="#DejaVuSans-50"/>
     <use xlink:href="#DejaVuSans-65" transform="translate(56.677734 0)"/>
     <use xlink:href="#DejaVuSans-72" transform="translate(118.201172 0)"/>
     <use xlink:href="#DejaVuSans-20" transform="translate(159.314453 0)"/>
     <use xlink:href="#DejaVuSans-6d" transform="translate(191.101562 0)"/>
     <use xlink:href="#DejaVuSans-6f" transform="translate(288.513672 0)"/>
     <use xlink:href="#DejaVuSans-6c" transform="translate(349.695312 0)"/>
     <use xlink:href="#DejaVuSans-74" transform="translate(377.478516 0)"/>
     <use xlink:href="#DejaVuSans-69" transform="translate(416.6875 0)"/>
     <use xlink:href="#DejaVuSans-70" transform="translate(444.470703 0)"/>
     <use xlink:href="#DejaVuSans-6c" transform="translate(507.947266 0)"/>
     <use xlink:href="#DejaVuSans-69" transform="translate(535.730469 0)"/>
     <use xlink:href="#DejaVuSans-63" transform="translate(563.513672 0)"/>
     <use xlink:href="#DejaVuSans-61" transform="translate(618.494141 0)"/>
     <use xlink:href="#DejaVuSans-72" transform="translate(679.773438 0)"/>
     <use xlink:href="#DejaVuSans-65" transform="translate(718.636719 0)"/>
     <use xlink:href="#DejaVuSans-20" transform="translate(780.160156 0)"/>
     <use xlink:href="#DejaVuSans-64" transform="translate(811.947266 0)"/>
     <use xlink:href="#DejaVuSans-75" transform="translate(875.423828 0)"/>
     <use xlink:href="#DejaVuSans-65" transform="translate(938.802734 0)"/>
     <use xlink:href="#DejaVuSans-20" transform="translate(1000.326172 0)"/>
     <use xlink:href="#DejaVuSans-6e" transform="translate(1032.113281 0)"/>
     <use xlink:href="#DejaVuSans-75" transform="translate(1095.492188 0)"/>
     <use xlink:href="#DejaVuSans-6d" transform="translate(1158.871094 0)"/>
     <use xlink:href="#DejaVuSans-65" transform="translate(1256.283203 0)"/>
     <use xlink:href="#DejaVuSans-72" transform="translate(1317.806641 0)"/>
     <use xlink:href="#DejaVuSans-69" transform="translate(1358.919922 0)"/>
     <use xlink:href="#DejaVuSans-20" transform="translate(1386.703125 0)"/>
     <use xlink:href="#DejaVuSans-67" transform="translate(1418.490234 0)"/>
     <use xlink:href="#DejaVuSans-72" transform="translate(1481.966797 0)"/>
     <use xlink:href="#DejaVuSans-61" transform="translate(1523.080078 0)"/>
     <use xlink:href="#DejaVuSans-6e" transform="translate(1584.359375 0)"/>
     <use xlink:href="#DejaVuSans-64" transform="translate(1647.738281 0)"/>
     <use xlink:href="#DejaVuSans-69" transform="translate(1711.214844 0)"/>
     <use xlink:href="#DejaVuSans-20" transform="translate(1738.998047 0)"/>
     <use xlink:href="#DejaVuSans-28" transform="translate(1770.785156 0)"/>
     <use xlink:href="#DejaVuSans-65" transform="translate(1809.798828 0)"/>
     <use xlink:href="#DejaVuSans-73" transform="translate(1871.322266 0)"/>
     <use xlink:href="#DejaVuSans-2e" transform="translate(1923.421875 0)"/>
     <use xlink:href="#DejaVuSans-20" transform="translate(1955.208984 0)"/>
     <use xlink:href="#DejaVuSans-31" transform="translate(1986.996094 0)"/>
     <use xlink:href="#DejaVuSans-34" transform="translate(2050.619141 0)"/>
     <use xlink:href="#DejaVuSans-20" transform="translate(2114.242188 0)"/>
     <use xlink:href="#DejaVuSans-d7" transform="translate(2146.029297 0)"/>
     <use xlink:href="#DejaVuSans-20" transform="translate(2229.818359 0)"/>
     <use xlink:href="#DejaVuSans-31" transform="translate(2261.605469 0)"/>
     <use xlink:href="#DejaVuSans-32" transform="translate(2325.228516 0)"/>
     <use xlink:href="#DejaVuSans-29" transform="translate(2388.851562 0)"/>
     <use xlink:href="#DejaVuSans-20" transform="translate(2427.865234 0)"/>
     <use xlink:href="#DejaVuSans-73" transform="translate(2459.652344 0)"/>
     <use xlink:href="#DejaVuSans-69" transform="translate(2511.751953 0)"/>
     <use xlink:href="#DejaVuSans-20" transform="translate(2539.535156 0)"/>
     <use xlink:href="#DejaVuSans-64" transform="translate(2571.322266 0)"/>
     <use xlink:href="#DejaVuSans-69" transform="translate(2634.798828 0)"/>
     <use xlink:href="#DejaVuSans-73" transform="translate(2662.582031 0)"/>
     <use xlink:href="#DejaVuSans-65" transform="translate(2714.681641 0)"/>
     <use xlink:href="#DejaVuSans-67" transform="translate(2776.205078 0)"/>
     <use xlink:href="#DejaVuSans-6e" transform="translate(2839.681641 0)"/>
     <use xlink:href="#DejaVuSans-61" transform="translate(2903.060547 0)"/>
     <use xlink:href="#DejaVuSans-20" transform="translate(2964.339844 0)"/>
     <use xlink:href="#DejaVuSans-75" transform="translate(2996.126953 0)"/>
     <use xlink:href="#DejaVuSans-6e" transform="translate(3059.505859 0)"/>
     <use xlink:href="#DejaVuSans-20" transform="translate(3122.884766 0)"/>
     <use xlink:href="#DejaVuSans-72" transform="translate(3154.671875 0)"/>
     <use xlink:href="#DejaVuSans-65" transform="translate(3193.535156 0)"/>
     <use xlink:href="#DejaVuSans-74" transform="translate(3255.058594 0)"/>
     <use xlink:href="#DejaVuSans-74" transform="translate(3294.267578 0)"/>
     <use xlink:href="#DejaVuSans-61" transform="translate(3333.476562 0)"/>
     <use xlink:href="#DejaVuSans-6e" transform="translate(3394.755859 0)"/>
     <use xlink:href="#DejaVuSans-67" transform="translate(3458.134766 0)"/>
     <use xlink:href="#DejaVuSans-6f" transform="translate(3521.611328 0)"/>
     <use xlink:href="#DejaVuSans-6c" transform="translate(3582.792969 0)"/>
     <use xlink:href="#DejaVuSans-6f" transform="translate(3610.576172 0)"/>
    </g>
    <!-- e si divide in 4 pezzi più piccoli da calcolare separatamente. -->
    <g style="fill: #1d1d1f" transform="translate(134.975117 162.225625) scale(0.115 -0.115)">
     <defs>
      <path id="DejaVuSans-76" d="M 191 3500 
L 800 3500 
L 1894 563 
L 2988 3500 
L 3597 3500 
L 2284 0 
L 1503 0 
L 191 3500 
z
" transform="scale(0.015625)"/>
      <path id="DejaVuSans-7a" d="M 353 3500 
L 3084 3500 
L 3084 2975 
L 922 459 
L 3084 459 
L 3084 0 
L 275 0 
L 275 525 
L 2438 3041 
L 353 3041 
L 353 3500 
z
" transform="scale(0.015625)"/>
      <path id="DejaVuSans-f9" d="M 544 1381 
L 544 3500 
L 1119 3500 
L 1119 1403 
Q 1119 906 1312 657 
Q 1506 409 1894 409 
Q 2359 409 2629 706 
Q 2900 1003 2900 1516 
L 2900 3500 
L 3475 3500 
L 3475 0 
L 2900 0 
L 2900 538 
Q 2691 219 2414 64 
Q 2138 -91 1772 -91 
Q 1169 -91 856 284 
Q 544 659 544 1381 
z
M 1991 3584 
L 1991 3584 
z
M 1531 5119 
L 2412 3950 
L 1934 3950 
L 915 5119 
L 1531 5119 
z
" transform="scale(0.015625)"/>
     </defs>
     <use xlink:href="#DejaVuSans-65"/>
     <use xlink:href="#DejaVuSans-20" transform="translate(61.523438 0)"/>
     <use xlink:href="#DejaVuSans-73" transform="translate(93.310547 0)"/>
     <use xlink:href="#DejaVuSans-69" transform="translate(145.410156 0)"/>
     <use xlink:href="#DejaVuSans-20" transform="translate(173.193359 0)"/>
     <use xlink:href="#DejaVuSans-64" transform="translate(204.980469 0)"/>
     <use xlink:href="#DejaVuSans-69" transform="translate(268.457031 0)"/>
     <use xlink:href="#DejaVuSans-76" transform="translate(296.240234 0)"/>
     <use xlink:href="#DejaVuSans-69" transform="translate(355.419922 0)"/>
     <use xlink:href="#DejaVuSans-64" transform="translate(383.203125 0)"/>
     <use xlink:href="#DejaVuSans-65" transform="translate(446.679688 0)"/>
     <use xlink:href="#DejaVuSans-20" transform="translate(508.203125 0)"/>
     <use xlink:href="#DejaVuSans-69" transform="translate(539.990234 0)"/>
     <use xlink:href="#DejaVuSans-6e" transform="translate(567.773438 0)"/>
     <use xlink:href="#DejaVuSans-20" transform="translate(631.152344 0)"/>
     <use xlink:href="#DejaVuSans-34" transform="translate(662.939453 0)"/>
     <use xlink:href="#DejaVuSans-20" transform="translate(726.5625 0)"/>
     <use xlink:href="#DejaVuSans-70" transform="translate(758.349609 0)"/>
     <use xlink:href="#DejaVuSans-65" transform="translate(821.826172 0)"/>
     <use xlink:href="#DejaVuSans-7a" transform="translate(883.349609 0)"/>
     <use xlink:href="#DejaVuSans-7a" transform="translate(935.839844 0)"/>
     <use xlink:href="#DejaVuSans-69" transform="translate(988.330078 0)"/>
     <use xlink:href="#DejaVuSans-20" transform="translate(1016.113281 0)"/>
     <use xlink:href="#DejaVuSans-70" transform="translate(1047.900391 0)"/>
     <use xlink:href="#DejaVuSans-69" transform="translate(1111.376953 0)"/>
     <use xlink:href="#DejaVuSans-f9" transform="translate(1139.160156 0)"/>
     <use xlink:href="#DejaVuSans-20" transform="translate(1202.539062 0)"/>
     <use xlink:href="#DejaVuSans-70" transform="translate(1234.326172 0)"/>
     <use xlink:href="#DejaVuSans-69" transform="translate(1297.802734 0)"/>
     <use xlink:href="#DejaVuSans-63" transform="translate(1325.585938 0)"/>
     <use xlink:href="#DejaVuSans-63" transform="translate(1380.566406 0)"/>
     <use xlink:href="#DejaVuSans-6f" transform="translate(1435.546875 0)"/>
     <use xlink:href="#DejaVuSans-6c" transform="translate(1496.728516 0)"/>
     <use xlink:href="#DejaVuSans-69" transform="translate(1524.511719 0)"/>
     <use xlink:href="#DejaVuSans-20" transform="translate(1552.294922 0)"/>
     <use xlink:href="#DejaVuSans-64" transform="translate(1584.082031 0)"/>
     <use xlink:href="#DejaVuSans-61" transform="translate(1647.558594 0)"/>
     <use xlink:href="#DejaVuSans-20" transform="translate(1708.837891 0)"/>
     <use xlink:href="#DejaVuSans-63" transform="translate(1740.625 0)"/>
     <use xlink:href="#DejaVuSans-61" transform="translate(1795.605469 0)"/>
     <use xlink:href="#DejaVuSans-6c" transform="translate(1856.884766 0)"/>
     <use xlink:href="#DejaVuSans-63" transform="translate(1884.667969 0)"/>
     <use xlink:href="#DejaVuSans-6f" transform="translate(1939.648438 0)"/>
     <use xlink:href="#DejaVuSans-6c" transform="translate(2000.830078 0)"/>
     <use xlink:href="#DejaVuSans-61" transform="translate(2028.613281 0)"/>
     <use xlink:href="#DejaVuSans-72" transform="translate(2089.892578 0)"/>
     <use xlink:href="#DejaVuSans-65" transform="translate(2128.755859 0)"/>
     <use xlink:href="#DejaVuSans-20" transform="translate(2190.279297 0)"/>
     <use xlink:href="#DejaVuSans-73" transform="translate(2222.066406 0)"/>
     <use xlink:href="#DejaVuSans-65" transform="translate(2274.166016 0)"/>
     <use xlink:href="#DejaVuSans-70" transform="translate(2335.689453 0)"/>
     <use xlink:href="#DejaVuSans-61" transform="translate(2399.166016 0)"/>
     <use xlink:href="#DejaVuSans-72" transform="translate(2460.445312 0)"/>
     <use xlink:href="#DejaVuSans-61" transform="translate(2501.558594 0)"/>
     <use xlink:href="#DejaVuSans-74" transform="translate(2562.837891 0)"/>
     <use xlink:href="#DejaVuSans-61" transform="translate(2602.046875 0)"/>
     <use xlink:href="#DejaVuSans-6d" transform="translate(2663.326172 0)"/>
     <use xlink:href="#DejaVuSans-65" transform="translate(2760.738281 0)"/>
     <use xlink:href="#DejaVuSans-6e" transform="translate(2822.261719 0)"/>
     <use xlink:href="#DejaVuSans-74" transform="translate(2885.640625 0)"/>
     <use xlink:href="#DejaVuSans-65" transform="translate(2924.849609 0)"/>
     <use xlink:href="#DejaVuSans-2e" transform="translate(2986.373047 0)"/>
    </g>
   </g>
   <g id="text_4">
    <!-- 10 × 10 = 100 -->
    <g style="fill: #222222" transform="translate(215.746687 458.022688) scale(0.13 -0.13)">
     <defs>
      <path id="DejaVuSans-Bold-31" d="M 750 831 
L 1813 831 
L 1813 3847 
L 722 3622 
L 722 4441 
L 1806 4666 
L 2950 4666 
L 2950 831 
L 4013 831 
L 4013 0 
L 750 0 
L 750 831 
z
" transform="scale(0.015625)"/>
      <path id="DejaVuSans-Bold-30" d="M 2944 2338 
Q 2944 3213 2780 3570 
Q 2616 3928 2228 3928 
Q 1841 3928 1675 3570 
Q 1509 3213 1509 2338 
Q 1509 1453 1675 1090 
Q 1841 728 2228 728 
Q 2613 728 2778 1090 
Q 2944 1453 2944 2338 
z
M 4147 2328 
Q 4147 1169 3647 539 
Q 3147 -91 2228 -91 
Q 1306 -91 806 539 
Q 306 1169 306 2328 
Q 306 3491 806 4120 
Q 1306 4750 2228 4750 
Q 3147 4750 3647 4120 
Q 4147 3491 4147 2328 
z
" transform="scale(0.015625)"/>
      <path id="DejaVuSans-Bold-d7" d="M 4563 3359 
L 3206 2003 
L 4563 653 
L 4038 128 
L 2681 1478 
L 1325 128 
L 800 653 
L 2156 2003 
L 800 3359 
L 1325 3884 
L 2681 2528 
L 4038 3884 
L 4563 3359 
z
" transform="scale(0.015625)"/>
      <path id="DejaVuSans-Bold-3d" d="M 678 3084 
L 4684 3084 
L 4684 2350 
L 678 2350 
L 678 3084 
z
M 678 1663 
L 4684 1663 
L 4684 922 
L 678 922 
L 678 1663 
z
" transform="scale(0.015625)"/>
     </defs>
     <use xlink:href="#DejaVuSans-Bold-31"/>
     <use xlink:href="#DejaVuSans-Bold-30" transform="translate(69.580078 0)"/>
     <use xlink:href="#DejaVuSans-Bold-20" transform="translate(139.160156 0)"/>
     <use xlink:href="#DejaVuSans-Bold-d7" transform="translate(173.974609 0)"/>
     <use xlink:href="#DejaVuSans-Bold-20" transform="translate(257.763672 0)"/>
     <use xlink:href="#DejaVuSans-Bold-31" transform="translate(292.578125 0)"/>
     <use xlink:href="#DejaVuSans-Bold-30" transform="translate(362.158203 0)"/>
     <use xlink:href="#DejaVuSans-Bold-20" transform="translate(431.738281 0)"/>
     <use xlink:href="#DejaVuSans-Bold-3d" transform="translate(466.552734 0)"/>
     <use xlink:href="#DejaVuSans-Bold-20" transform="translate(550.341797 0)"/>
     <use xlink:href="#DejaVuSans-Bold-31" transform="translate(585.15625 0)"/>
     <use xlink:href="#DejaVuSans-Bold-30" transform="translate(654.736328 0)"/>
     <use xlink:href="#DejaVuSans-Bold-30" transform="translate(724.316406 0)"/>
    </g>
   </g>
   <g id="text_5">
    <!-- 4 × 10 -->
    <g style="fill: #222222" transform="translate(389.716682 451.028062) scale(0.12 -0.12)">
     <defs>
      <path id="DejaVuSans-Bold-34" d="M 2356 3675 
L 1038 1722 
L 2356 1722 
L 2356 3675 
z
M 2156 4666 
L 3494 4666 
L 3494 1722 
L 4159 1722 
L 4159 850 
L 3494 850 
L 3494 0 
L 2356 0 
L 2356 850 
L 288 850 
L 288 1881 
L 2156 4666 
z
" transform="scale(0.015625)"/>
     </defs>
     <use xlink:href="#DejaVuSans-Bold-34"/>
     <use xlink:href="#DejaVuSans-Bold-20" transform="translate(69.580078 0)"/>
     <use xlink:href="#DejaVuSans-Bold-d7" transform="translate(104.394531 0)"/>
     <use xlink:href="#DejaVuSans-Bold-20" transform="translate(188.183594 0)"/>
     <use xlink:href="#DejaVuSans-Bold-31" transform="translate(222.998047 0)"/>
     <use xlink:href="#DejaVuSans-Bold-30" transform="translate(292.578125 0)"/>
    </g>
    <!-- = 40 -->
    <g style="fill: #222222" transform="translate(395.98012 464.465438) scale(0.12 -0.12)">
     <use xlink:href="#DejaVuSans-Bold-3d"/>
     <use xlink:href="#DejaVuSans-Bold-20" transform="translate(83.789062 0)"/>
     <use xlink:href="#DejaVuSans-Bold-34" transform="translate(118.603516 0)"/>
     <use xlink:href="#DejaVuSans-Bold-30" transform="translate(188.183594 0)"/>
    </g>
   </g>
   <g id="text_6">
    <!-- 10 × 2 = 20 -->
    <g style="fill: #222222" transform="translate(228.065515 578.52783) scale(0.12 -0.12)">
     <defs>
      <path id="DejaVuSans-Bold-32" d="M 1844 884 
L 3897 884 
L 3897 0 
L 506 0 
L 506 884 
L 2209 2388 
Q 2438 2594 2547 2791 
Q 2656 2988 2656 3200 
Q 2656 3528 2436 3728 
Q 2216 3928 1850 3928 
Q 1569 3928 1234 3808 
Q 900 3688 519 3450 
L 519 4475 
Q 925 4609 1322 4679 
Q 1719 4750 2100 4750 
Q 2938 4750 3402 4381 
Q 3866 4013 3866 3353 
Q 3866 2972 3669 2642 
Q 3472 2313 2841 1759 
L 1844 884 
z
" transform="scale(0.015625)"/>
     </defs>
     <use xlink:href="#DejaVuSans-Bold-31"/>
     <use xlink:href="#DejaVuSans-Bold-30" transform="translate(69.580078 0)"/>
     <use xlink:href="#DejaVuSans-Bold-20" transform="translate(139.160156 0)"/>
     <use xlink:href="#DejaVuSans-Bold-d7" transform="translate(173.974609 0)"/>
     <use xlink:href="#DejaVuSans-Bold-20" transform="translate(257.763672 0)"/>
     <use xlink:href="#DejaVuSans-Bold-32" transform="translate(292.578125 0)"/>
     <use xlink:href="#DejaVuSans-Bold-20" transform="translate(362.158203 0)"/>
     <use xlink:href="#DejaVuSans-Bold-3d" transform="translate(396.972656 0)"/>
     <use xlink:href="#DejaVuSans-Bold-20" transform="translate(480.761719 0)"/>
     <use xlink:href="#DejaVuSans-Bold-32" transform="translate(515.576172 0)"/>
     <use xlink:href="#DejaVuSans-Bold-30" transform="translate(585.15625 0)"/>
    </g>
   </g>
   <g id="text_7">
    <!-- 4 × 2 = 8 -->
    <g style="fill: #222222" transform="translate(383.08926 578.251893) scale(0.11 -0.11)">
     <defs>
      <path id="DejaVuSans-Bold-38" d="M 2228 2088 
Q 1891 2088 1709 1903 
Q 1528 1719 1528 1375 
Q 1528 1031 1709 848 
Q 1891 666 2228 666 
Q 2563 666 2741 848 
Q 2919 1031 2919 1375 
Q 2919 1722 2741 1905 
Q 2563 2088 2228 2088 
z
M 1350 2484 
Q 925 2613 709 2878 
Q 494 3144 494 3541 
Q 494 4131 934 4440 
Q 1375 4750 2228 4750 
Q 3075 4750 3515 4442 
Q 3956 4134 3956 3541 
Q 3956 3144 3739 2878 
Q 3522 2613 3097 2484 
Q 3572 2353 3814 2058 
Q 4056 1763 4056 1313 
Q 4056 619 3595 264 
Q 3134 -91 2228 -91 
Q 1319 -91 855 264 
Q 391 619 391 1313 
Q 391 1763 633 2058 
Q 875 2353 1350 2484 
z
M 1631 3419 
Q 1631 3141 1786 2991 
Q 1941 2841 2228 2841 
Q 2509 2841 2662 2991 
Q 2816 3141 2816 3419 
Q 2816 3697 2662 3845 
Q 2509 3994 2228 3994 
Q 1941 3994 1786 3844 
Q 1631 3694 1631 3419 
z
" transform="scale(0.015625)"/>
     </defs>
     <use xlink:href="#DejaVuSans-Bold-34"/>
     <use xlink:href="#DejaVuSans-Bold-20" transform="translate(69.580078 0)"/>
     <use xlink:href="#DejaVuSans-Bold-d7" transform="translate(104.394531 0)"/>
     <use xlink:href="#DejaVuSans-Bold-20" transform="translate(188.183594 0)"/>
     <use xlink:href="#DejaVuSans-Bold-32" transform="translate(222.998047 0)"/>
     <use xlink:href="#DejaVuSans-Bold-20" transform="translate(292.578125 0)"/>
     <use xlink:href="#DejaVuSans-Bold-3d" transform="translate(327.392578 0)"/>
     <use xlink:href="#DejaVuSans-Bold-20" transform="translate(411.181641 0)"/>
     <use xlink:href="#DejaVuSans-Bold-38" transform="translate(445.996094 0)"/>
    </g>
   </g>
   <g id="text_8">
    <!-- 10 -->
    <g style="fill: #0b3d91" transform="translate(258.304421 333.079272) scale(0.13 -0.13)">
     <use xlink:href="#DejaVuSans-Bold-31"/>
     <use xlink:href="#DejaVuSans-Bold-30" transform="translate(69.580078 0)"/>
    </g>
   </g>
   <g id="text_9">
    <!-- 4 -->
    <g style="fill: #0b3d91" transform="translate(406.923479 333.079272) scale(0.13 -0.13)">
     <use xlink:href="#DejaVuSans-Bold-34"/>
    </g>
   </g>
   <g id="text_10">
    <!-- 10 -->
    <g style="fill: #d6336c" transform="translate(130.613591 458.022688) scale(0.13 -0.13)">
     <use xlink:href="#DejaVuSans-Bold-31"/>
     <use xlink:href="#DejaVuSans-Bold-30" transform="translate(69.580078 0)"/>
    </g>
   </g>
   <g id="text_11">
    <!-- 2 -->
    <g style="fill: #d6336c" transform="translate(139.658748 578.803768) scale(0.13 -0.13)">
     <use xlink:href="#DejaVuSans-Bold-32"/>
    </g>
   </g>
   <g id="text_12">
    <!-- 100 + 40 + 20 + 8 = 168 -->
    <g style="fill: #1d1d1f" transform="translate(205.091484 660.913632) scale(0.15 -0.15)">
     <defs>
      <path id="DejaVuSans-Bold-2b" d="M 3053 4013 
L 3053 2375 
L 4684 2375 
L 4684 1638 
L 3053 1638 
L 3053 0 
L 2309 0 
L 2309 1638 
L 678 1638 
L 678 2375 
L 2309 2375 
L 2309 4013 
L 3053 4013 
z
" transform="scale(0.015625)"/>
      <path id="DejaVuSans-Bold-36" d="M 2316 2303 
Q 2000 2303 1842 2098 
Q 1684 1894 1684 1484 
Q 1684 1075 1842 870 
Q 2000 666 2316 666 
Q 2634 666 2792 870 
Q 2950 1075 2950 1484 
Q 2950 1894 2792 2098 
Q 2634 2303 2316 2303 
z
M 3803 4544 
L 3803 3681 
Q 3506 3822 3243 3889 
Q 2981 3956 2731 3956 
Q 2194 3956 1894 3657 
Q 1594 3359 1544 2772 
Q 1750 2925 1990 3001 
Q 2231 3078 2516 3078 
Q 3231 3078 3670 2659 
Q 4109 2241 4109 1563 
Q 4109 813 3618 361 
Q 3128 -91 2303 -91 
Q 1394 -91 895 523 
Q 397 1138 397 2266 
Q 397 3422 980 4083 
Q 1563 4744 2578 4744 
Q 2900 4744 3203 4694 
Q 3506 4644 3803 4544 
z
" transform="scale(0.015625)"/>
     </defs>
     <use xlink:href="#DejaVuSans-Bold-31"/>
     <use xlink:href="#DejaVuSans-Bold-30" transform="translate(69.580078 0)"/>
     <use xlink:href="#DejaVuSans-Bold-30" transform="translate(139.160156 0)"/>
     <use xlink:href="#DejaVuSans-Bold-20" transform="translate(208.740234 0)"/>
     <use xlink:href="#DejaVuSans-Bold-2b" transform="translate(243.554688 0)"/>
     <use xlink:href="#DejaVuSans-Bold-20" transform="translate(327.34375 0)"/>
     <use xlink:href="#DejaVuSans-Bold-34" transform="translate(362.158203 0)"/>
     <use xlink:href="#DejaVuSans-Bold-30" transform="translate(431.738281 0)"/>
     <use xlink:href="#DejaVuSans-Bold-20" transform="translate(501.318359 0)"/>
     <use xlink:href="#DejaVuSans-Bold-2b" transform="translate(536.132812 0)"/>
     <use xlink:href="#DejaVuSans-Bold-20" transform="translate(619.921875 0)"/>
     <use xlink:href="#DejaVuSans-Bold-32" transform="translate(654.736328 0)"/>
     <use xlink:href="#DejaVuSans-Bold-30" transform="translate(724.316406 0)"/>
     <use xlink:href="#DejaVuSans-Bold-20" transform="translate(793.896484 0)"/>
     <use xlink:href="#DejaVuSans-Bold-2b" transform="translate(828.710938 0)"/>
     <use xlink:href="#DejaVuSans-Bold-20" transform="translate(912.5 0)"/>
     <use xlink:href="#DejaVuSans-Bold-38" transform="translate(947.314453 0)"/>
     <use xlink:href="#DejaVuSans-Bold-20" transform="translate(1016.894531 0)"/>
     <use xlink:href="#DejaVuSans-Bold-3d" transform="translate(1051.708984 0)"/>
     <use xlink:href="#DejaVuSans-Bold-20" transform="translate(1135.498047 0)"/>
     <use xlink:href="#DejaVuSans-Bold-31" transform="translate(1170.3125 0)"/>
     <use xlink:href="#DejaVuSans-Bold-36" transform="translate(1239.892578 0)"/>
     <use xlink:href="#DejaVuSans-Bold-38" transform="translate(1309.472656 0)"/>
    </g>
   </g>
   <g id="text_13">
    <!-- 14 × 12 = 168 -->
    <g style="fill: #1b6d3b" transform="translate(221.192031 716.12784) scale(0.22 -0.22)">
     <use xlink:href="#DejaVuSans-Bold-31"/>
     <use xlink:href="#DejaVuSans-Bold-34" transform="translate(69.580078 0)"/>
     <use xlink:href="#DejaVuSans-Bold-20" transform="translate(139.160156 0)"/>
     <use xlink:href="#DejaVuSans-Bold-d7" transform="translate(173.974609 0)"/>
     <use xlink:href="#DejaVuSans-Bold-20" transform="translate(257.763672 0)"/>
     <use xlink:href="#DejaVuSans-Bold-31" transform="translate(292.578125 0)"/>
     <use xlink:href="#DejaVuSans-Bold-32" transform="translate(362.158203 0)"/>
     <use xlink:href="#DejaVuSans-Bold-20" transform="translate(431.738281 0)"/>
     <use xlink:href="#DejaVuSans-Bold-3d" transform="translate(466.552734 0)"/>
     <use xlink:href="#DejaVuSans-Bold-20" transform="translate(550.341797 0)"/>
     <use xlink:href="#DejaVuSans-Bold-31" transform="translate(585.15625 0)"/>
     <use xlink:href="#DejaVuSans-Bold-36" transform="translate(654.736328 0)"/>
     <use xlink:href="#DejaVuSans-Bold-38" transform="translate(724.316406 0)"/>
    </g>
   </g>
  </g>
 </g>
 <defs>
  <clipPath id="p05db02fbda">
   <rect x="46.5264" y="94.968" width="523.9872" height="690.1776"/>
  </clipPath>
 </defs>
</svg>
