<?xml version="1.0" encoding="utf-8" standalone="no"?>
<!DOCTYPE svg PUBLIC "-//W3C//DTD SVG 1.1//EN"
  "http://www.w3.org/Graphics/SVG/1.1/DTD/svg11.dtd">
<svg xmlns:xlink="http://www.w3.org/1999/xlink" width="617.04pt" height="795.9456pt" viewBox="0 0 617.04 795.9456" xmlns="http://www.w3.org/2000/svg" version="1.1">
 <metadata>
  <rdf:RDF xmlns:dc="http://purl.org/dc/elements/1.1/" xmlns:cc="http://creativecommons.org/ns#" xmlns:rdf="http://www.w3.org/1999/02/22-rdf-syntax-ns#">
   <cc:Work>
    <dc:type rdf:resource="http://purl.org/dc/dcmitype/StillImage"/>
    <dc:date>2026-05-18T18:02:01.556496</dc:date>
    <dc:format>image/svg+xml</dc:format>
    <dc:creator>
     <cc:Agent>
      <dc:title>Matplotlib v3.10.9, https://matplotlib.org/</dc:title>
     </cc:Agent>
    </dc:creator>
   </cc:Work>
  </rdf:RDF>
 </metadata>
 <defs>
  <style type="text/css">*{stroke-linejoin: round; stroke-linecap: butt}</style>
 </defs>
 <g id="figure_1">
  <g id="patch_1">
   <path d="M -0 795.9456 
L 617.04 795.9456 
L 617.04 -0 
L -0 -0 
z
" style="fill: #ffffff"/>
  </g>
  <g id="axes_1">
   <g id="text_1">
    <!-- Rekenrek (telaio dei numeri) -->
    <g style="fill: #0b3d91" transform="translate(146.593437 42.83167) scale(0.2 -0.2)">
     <defs>
      <path id="DejaVuSans-Bold-52" d="M 2297 2597 
Q 2675 2597 2839 2737 
Q 3003 2878 3003 3200 
Q 3003 3519 2839 3656 
Q 2675 3794 2297 3794 
L 1791 3794 
L 1791 2597 
L 2297 2597 
z
M 1791 1766 
L 1791 0 
L 588 0 
L 588 4666 
L 2425 4666 
Q 3347 4666 3776 4356 
Q 4206 4047 4206 3378 
Q 4206 2916 3982 2619 
Q 3759 2322 3309 2181 
Q 3556 2125 3751 1926 
Q 3947 1728 4147 1325 
L 4800 0 
L 3519 0 
L 2950 1159 
Q 2778 1509 2601 1637 
Q 2425 1766 2131 1766 
L 1791 1766 
z
" transform="scale(0.015625)"/>
      <path id="DejaVuSans-Bold-65" d="M 4031 1759 
L 4031 1441 
L 1416 1441 
Q 1456 1047 1700 850 
Q 1944 653 2381 653 
Q 2734 653 3104 758 
Q 3475 863 3866 1075 
L 3866 213 
Q 3469 63 3072 -14 
Q 2675 -91 2278 -91 
Q 1328 -91 801 392 
Q 275 875 275 1747 
Q 275 2603 792 3093 
Q 1309 3584 2216 3584 
Q 3041 3584 3536 3087 
Q 4031 2591 4031 1759 
z
M 2881 2131 
Q 2881 2450 2695 2645 
Q 2509 2841 2209 2841 
Q 1884 2841 1681 2658 
Q 1478 2475 1428 2131 
L 2881 2131 
z
" transform="scale(0.015625)"/>
      <path id="DejaVuSans-Bold-6b" d="M 538 4863 
L 1656 4863 
L 1656 2216 
L 2944 3500 
L 4244 3500 
L 2534 1894 
L 4378 0 
L 3022 0 
L 1656 1459 
L 1656 0 
L 538 0 
L 538 4863 
z
" transform="scale(0.015625)"/>
      <path id="DejaVuSans-Bold-6e" d="M 4056 2131 
L 4056 0 
L 2931 0 
L 2931 347 
L 2931 1631 
Q 2931 2084 2911 2256 
Q 2891 2428 2841 2509 
Q 2775 2619 2662 2680 
Q 2550 2741 2406 2741 
Q 2056 2741 1856 2470 
Q 1656 2200 1656 1722 
L 1656 0 
L 538 0 
L 538 3500 
L 1656 3500 
L 1656 2988 
Q 1909 3294 2193 3439 
Q 2478 3584 2822 3584 
Q 3428 3584 3742 3212 
Q 4056 2841 4056 2131 
z
" transform="scale(0.015625)"/>
      <path id="DejaVuSans-Bold-72" d="M 3138 2547 
Q 2991 2616 2845 2648 
Q 2700 2681 2553 2681 
Q 2122 2681 1889 2404 
Q 1656 2128 1656 1613 
L 1656 0 
L 538 0 
L 538 3500 
L 1656 3500 
L 1656 2925 
Q 1872 3269 2151 3426 
Q 2431 3584 2822 3584 
Q 2878 3584 2943 3579 
Q 3009 3575 3134 3559 
L 3138 2547 
z
" transform="scale(0.015625)"/>
      <path id="DejaVuSans-Bold-20" transform="scale(0.015625)"/>
      <path id="DejaVuSans-Bold-28" d="M 2413 -844 
L 1484 -844 
Q 1006 -72 778 623 
Q 550 1319 550 2003 
Q 550 2688 779 3389 
Q 1009 4091 1484 4856 
L 2413 4856 
Q 2013 4116 1813 3408 
Q 1613 2700 1613 2009 
Q 1613 1319 1811 609 
Q 2009 -100 2413 -844 
z
" transform="scale(0.015625)"/>
      <path id="DejaVuSans-Bold-74" d="M 1759 4494 
L 1759 3500 
L 2913 3500 
L 2913 2700 
L 1759 2700 
L 1759 1216 
Q 1759 972 1856 886 
Q 1953 800 2241 800 
L 2816 800 
L 2816 0 
L 1856 0 
Q 1194 0 917 276 
Q 641 553 641 1216 
L 641 2700 
L 84 2700 
L 84 3500 
L 641 3500 
L 641 4494 
L 1759 4494 
z
" transform="scale(0.015625)"/>
      <path id="DejaVuSans-Bold-6c" d="M 538 4863 
L 1656 4863 
L 1656 0 
L 538 0 
L 538 4863 
z
" transform="scale(0.015625)"/>
      <path id="DejaVuSans-Bold-61" d="M 2106 1575 
Q 1756 1575 1579 1456 
Q 1403 1338 1403 1106 
Q 1403 894 1545 773 
Q 1688 653 1941 653 
Q 2256 653 2472 879 
Q 2688 1106 2688 1447 
L 2688 1575 
L 2106 1575 
z
M 3816 1997 
L 3816 0 
L 2688 0 
L 2688 519 
Q 2463 200 2181 54 
Q 1900 -91 1497 -91 
Q 953 -91 614 226 
Q 275 544 275 1050 
Q 275 1666 698 1953 
Q 1122 2241 2028 2241 
L 2688 2241 
L 2688 2328 
Q 2688 2594 2478 2717 
Q 2269 2841 1825 2841 
Q 1466 2841 1156 2769 
Q 847 2697 581 2553 
L 581 3406 
Q 941 3494 1303 3539 
Q 1666 3584 2028 3584 
Q 2975 3584 3395 3211 
Q 3816 2838 3816 1997 
z
" transform="scale(0.015625)"/>
      <path id="DejaVuSans-Bold-69" d="M 538 3500 
L 1656 3500 
L 1656 0 
L 538 0 
L 538 3500 
z
M 538 4863 
L 1656 4863 
L 1656 3950 
L 538 3950 
L 538 4863 
z
" transform="scale(0.015625)"/>
      <path id="DejaVuSans-Bold-6f" d="M 2203 2784 
Q 1831 2784 1636 2517 
Q 1441 2250 1441 1747 
Q 1441 1244 1636 976 
Q 1831 709 2203 709 
Q 2569 709 2762 976 
Q 2956 1244 2956 1747 
Q 2956 2250 2762 2517 
Q 2569 2784 2203 2784 
z
M 2203 3584 
Q 3106 3584 3614 3096 
Q 4122 2609 4122 1747 
Q 4122 884 3614 396 
Q 3106 -91 2203 -91 
Q 1297 -91 786 396 
Q 275 884 275 1747 
Q 275 2609 786 3096 
Q 1297 3584 2203 3584 
z
" transform="scale(0.015625)"/>
      <path id="DejaVuSans-Bold-64" d="M 2919 2988 
L 2919 4863 
L 4044 4863 
L 4044 0 
L 2919 0 
L 2919 506 
Q 2688 197 2409 53 
Q 2131 -91 1766 -91 
Q 1119 -91 703 423 
Q 288 938 288 1747 
Q 288 2556 703 3070 
Q 1119 3584 1766 3584 
Q 2128 3584 2408 3439 
Q 2688 3294 2919 2988 
z
M 2181 722 
Q 2541 722 2730 984 
Q 2919 1247 2919 1747 
Q 2919 2247 2730 2509 
Q 2541 2772 2181 2772 
Q 1825 2772 1636 2509 
Q 1447 2247 1447 1747 
Q 1447 1247 1636 984 
Q 1825 722 2181 722 
z
" transform="scale(0.015625)"/>
      <path id="DejaVuSans-Bold-75" d="M 500 1363 
L 500 3500 
L 1625 3500 
L 1625 3150 
Q 1625 2866 1622 2436 
Q 1619 2006 1619 1863 
Q 1619 1441 1641 1255 
Q 1663 1069 1716 984 
Q 1784 875 1895 815 
Q 2006 756 2150 756 
Q 2500 756 2700 1025 
Q 2900 1294 2900 1772 
L 2900 3500 
L 4019 3500 
L 4019 0 
L 2900 0 
L 2900 506 
Q 2647 200 2364 54 
Q 2081 -91 1741 -91 
Q 1134 -91 817 281 
Q 500 653 500 1363 
z
" transform="scale(0.015625)"/>
      <path id="DejaVuSans-Bold-6d" d="M 3781 2919 
Q 3994 3244 4286 3414 
Q 4578 3584 4928 3584 
Q 5531 3584 5847 3212 
Q 6163 2841 6163 2131 
L 6163 0 
L 5038 0 
L 5038 1825 
Q 5041 1866 5042 1909 
Q 5044 1953 5044 2034 
Q 5044 2406 4934 2573 
Q 4825 2741 4581 2741 
Q 4263 2741 4089 2478 
Q 3916 2216 3909 1719 
L 3909 0 
L 2784 0 
L 2784 1825 
Q 2784 2406 2684 2573 
Q 2584 2741 2328 2741 
Q 2006 2741 1831 2477 
Q 1656 2213 1656 1722 
L 1656 0 
L 531 0 
L 531 3500 
L 1656 3500 
L 1656 2988 
Q 1863 3284 2130 3434 
Q 2397 3584 2719 3584 
Q 3081 3584 3359 3409 
Q 3638 3234 3781 2919 
z
" transform="scale(0.015625)"/>
      <path id="DejaVuSans-Bold-29" d="M 513 -844 
Q 913 -100 1113 609 
Q 1313 1319 1313 2009 
Q 1313 2700 1113 3408 
Q 913 4116 513 4856 
L 1441 4856 
Q 1916 4091 2145 3389 
Q 2375 2688 2375 2003 
Q 2375 1319 2147 623 
Q 1919 -72 1441 -844 
L 513 -844 
z
" transform="scale(0.015625)"/>
     </defs>
     <use xlink:href="#DejaVuSans-Bold-52"/>
     <use xlink:href="#DejaVuSans-Bold-65" transform="translate(77.001953 0)"/>
     <use xlink:href="#DejaVuSans-Bold-6b" transform="translate(144.824219 0)"/>
     <use xlink:href="#DejaVuSans-Bold-65" transform="translate(208.703125 0)"/>
     <use xlink:href="#DejaVuSans-Bold-6e" transform="translate(276.525391 0)"/>
     <use xlink:href="#DejaVuSans-Bold-72" transform="translate(347.716797 0)"/>
     <use xlink:href="#DejaVuSans-Bold-65" transform="translate(397.033203 0)"/>
     <use xlink:href="#DejaVuSans-Bold-6b" transform="translate(464.855469 0)"/>
     <use xlink:href="#DejaVuSans-Bold-20" transform="translate(531.359375 0)"/>
     <use xlink:href="#DejaVuSans-Bold-28" transform="translate(566.173828 0)"/>
     <use xlink:href="#DejaVuSans-Bold-74" transform="translate(611.876953 0)"/>
     <use xlink:href="#DejaVuSans-Bold-65" transform="translate(659.679688 0)"/>
     <use xlink:href="#DejaVuSans-Bold-6c" transform="translate(727.501953 0)"/>
     <use xlink:href="#DejaVuSans-Bold-61" transform="translate(761.779297 0)"/>
     <use xlink:href="#DejaVuSans-Bold-69" transform="translate(829.259766 0)"/>
     <use xlink:href="#DejaVuSans-Bold-6f" transform="translate(863.537109 0)"/>
     <use xlink:href="#DejaVuSans-Bold-20" transform="translate(932.238281 0)"/>
     <use xlink:href="#DejaVuSans-Bold-64" transform="translate(967.052734 0)"/>
     <use xlink:href="#DejaVuSans-Bold-65" transform="translate(1038.634766 0)"/>
     <use xlink:href="#DejaVuSans-Bold-69" transform="translate(1106.457031 0)"/>
     <use xlink:href="#DejaVuSans-Bold-20" transform="translate(1140.734375 0)"/>
     <use xlink:href="#DejaVuSans-Bold-6e" transform="translate(1175.548828 0)"/>
     <use xlink:href="#DejaVuSans-Bold-75" transform="translate(1246.740234 0)"/>
     <use xlink:href="#DejaVuSans-Bold-6d" transform="translate(1317.931641 0)"/>
     <use xlink:href="#DejaVuSans-Bold-65" transform="translate(1422.130859 0)"/>
     <use xlink:href="#DejaVuSans-Bold-72" transform="translate(1489.953125 0)"/>
     <use xlink:href="#DejaVuSans-Bold-69" transform="translate(1539.269531 0)"/>
     <use xlink:href="#DejaVuSans-Bold-29" transform="translate(1573.546875 0)"/>
    </g>
   </g>
   <g id="text_2">
    <!-- Strumento olandese basato sul 5 e sul 10 -->
    <g style="fill: #6e7781" transform="translate(194.007422 69.807033) scale(0.11 -0.11)">
     <defs>
      <path id="DejaVuSans-Oblique-53" d="M 3859 4513 
L 3738 3897 
Q 3422 4066 3111 4152 
Q 2800 4238 2509 4238 
Q 1944 4238 1609 3991 
Q 1275 3744 1275 3334 
Q 1275 3109 1398 2989 
Q 1522 2869 2034 2731 
L 2413 2638 
Q 3053 2472 3303 2217 
Q 3553 1963 3553 1503 
Q 3553 797 2998 353 
Q 2444 -91 1538 -91 
Q 1166 -91 791 -17 
Q 416 56 38 206 
L 166 856 
Q 513 641 861 531 
Q 1209 422 1556 422 
Q 2147 422 2503 684 
Q 2859 947 2859 1369 
Q 2859 1650 2717 1795 
Q 2575 1941 2106 2059 
L 1728 2156 
Q 1081 2325 845 2545 
Q 609 2766 609 3163 
Q 609 3859 1145 4304 
Q 1681 4750 2541 4750 
Q 2875 4750 3203 4690 
Q 3531 4631 3859 4513 
z
" transform="scale(0.015625)"/>
      <path id="DejaVuSans-Oblique-74" d="M 2706 3500 
L 2619 3053 
L 1472 3053 
L 1100 1153 
Q 1081 1047 1072 975 
Q 1063 903 1063 863 
Q 1063 663 1183 572 
Q 1303 481 1569 481 
L 2150 481 
L 2053 0 
L 1503 0 
Q 991 0 739 200 
Q 488 400 488 806 
Q 488 878 497 964 
Q 506 1050 525 1153 
L 897 3053 
L 409 3053 
L 500 3500 
L 978 3500 
L 1172 4494 
L 1747 4494 
L 1556 3500 
L 2706 3500 
z
" transform="scale(0.015625)"/>
      <path id="DejaVuSans-Oblique-72" d="M 2853 2969 
Q 2766 3016 2653 3041 
Q 2541 3066 2413 3066 
Q 1953 3066 1609 2717 
Q 1266 2369 1153 1784 
L 800 0 
L 225 0 
L 909 3500 
L 1484 3500 
L 1375 2956 
Q 1603 3259 1920 3421 
Q 2238 3584 2597 3584 
Q 2691 3584 2781 3573 
Q 2872 3563 2963 3538 
L 2853 2969 
z
" transform="scale(0.015625)"/>
      <path id="DejaVuSans-Oblique-75" d="M 428 1388 
L 838 3500 
L 1416 3500 
L 1006 1409 
Q 975 1256 961 1147 
Q 947 1038 947 966 
Q 947 700 1109 554 
Q 1272 409 1569 409 
Q 2031 409 2368 721 
Q 2706 1034 2809 1563 
L 3194 3500 
L 3769 3500 
L 3091 0 
L 2516 0 
L 2631 550 
Q 2388 244 2052 76 
Q 1716 -91 1338 -91 
Q 878 -91 622 161 
Q 366 413 366 863 
Q 366 956 381 1097 
Q 397 1238 428 1388 
z
" transform="scale(0.015625)"/>
      <path id="DejaVuSans-Oblique-6d" d="M 5747 2113 
L 5338 0 
L 4763 0 
L 5166 2094 
Q 5191 2228 5203 2325 
Q 5216 2422 5216 2491 
Q 5216 2772 5059 2928 
Q 4903 3084 4622 3084 
Q 4203 3084 3875 2770 
Q 3547 2456 3450 1953 
L 3066 0 
L 2491 0 
L 2900 2094 
Q 2925 2209 2937 2307 
Q 2950 2406 2950 2484 
Q 2950 2769 2794 2926 
Q 2638 3084 2363 3084 
Q 1938 3084 1609 2770 
Q 1281 2456 1184 1953 
L 800 0 
L 225 0 
L 909 3500 
L 1484 3500 
L 1375 2956 
Q 1609 3263 1923 3423 
Q 2238 3584 2597 3584 
Q 2978 3584 3223 3384 
Q 3469 3184 3519 2828 
Q 3781 3197 4126 3390 
Q 4472 3584 4856 3584 
Q 5306 3584 5551 3325 
Q 5797 3066 5797 2591 
Q 5797 2488 5784 2364 
Q 5772 2241 5747 2113 
z
" transform="scale(0.015625)"/>
      <path id="DejaVuSans-Oblique-65" d="M 3078 2063 
Q 3088 2113 3092 2166 
Q 3097 2219 3097 2272 
Q 3097 2653 2873 2875 
Q 2650 3097 2266 3097 
Q 1838 3097 1509 2826 
Q 1181 2556 1013 2059 
L 3078 2063 
z
M 3578 1613 
L 903 1613 
Q 884 1494 878 1425 
Q 872 1356 872 1306 
Q 872 872 1139 634 
Q 1406 397 1894 397 
Q 2269 397 2603 481 
Q 2938 566 3225 728 
L 3116 159 
Q 2806 34 2476 -28 
Q 2147 -91 1806 -91 
Q 1078 -91 686 257 
Q 294 606 294 1247 
Q 294 1794 489 2264 
Q 684 2734 1063 3103 
Q 1306 3334 1642 3459 
Q 1978 3584 2356 3584 
Q 2950 3584 3301 3228 
Q 3653 2872 3653 2272 
Q 3653 2128 3634 1964 
Q 3616 1800 3578 1613 
z
" transform="scale(0.015625)"/>
      <path id="DejaVuSans-Oblique-6e" d="M 3566 2113 
L 3156 0 
L 2578 0 
L 2988 2091 
Q 3016 2238 3031 2350 
Q 3047 2463 3047 2528 
Q 3047 2791 2881 2937 
Q 2716 3084 2419 3084 
Q 1956 3084 1622 2776 
Q 1288 2469 1184 1941 
L 800 0 
L 225 0 
L 903 3500 
L 1478 3500 
L 1363 2950 
Q 1603 3253 1940 3418 
Q 2278 3584 2650 3584 
Q 3113 3584 3367 3334 
Q 3622 3084 3622 2631 
Q 3622 2519 3608 2391 
Q 3594 2263 3566 2113 
z
" transform="scale(0.015625)"/>
      <path id="DejaVuSans-Oblique-6f" d="M 1625 -91 
Q 1009 -91 651 289 
Q 294 669 294 1325 
Q 294 1706 417 2101 
Q 541 2497 738 2766 
Q 1047 3184 1428 3384 
Q 1809 3584 2291 3584 
Q 2888 3584 3255 3212 
Q 3622 2841 3622 2241 
Q 3622 1825 3500 1412 
Q 3378 1000 3181 728 
Q 2875 309 2494 109 
Q 2113 -91 1625 -91 
z
M 891 1344 
Q 891 869 1089 633 
Q 1288 397 1691 397 
Q 2269 397 2648 901 
Q 3028 1406 3028 2181 
Q 3028 2634 2825 2865 
Q 2622 3097 2228 3097 
Q 1903 3097 1650 2945 
Q 1397 2794 1197 2484 
Q 1050 2253 970 1956 
Q 891 1659 891 1344 
z
" transform="scale(0.015625)"/>
      <path id="DejaVuSans-Oblique-20" transform="scale(0.015625)"/>
      <path id="DejaVuSans-Oblique-6c" d="M 1172 4863 
L 1747 4863 
L 800 0 
L 225 0 
L 1172 4863 
z
" transform="scale(0.015625)"/>
      <path id="DejaVuSans-Oblique-61" d="M 3438 1997 
L 3047 0 
L 2472 0 
L 2578 531 
Q 2325 219 2001 64 
Q 1678 -91 1281 -91 
Q 834 -91 548 182 
Q 263 456 263 884 
Q 263 1497 752 1853 
Q 1241 2209 2100 2209 
L 2900 2209 
L 2931 2363 
Q 2938 2388 2941 2417 
Q 2944 2447 2944 2509 
Q 2944 2788 2717 2942 
Q 2491 3097 2081 3097 
Q 1800 3097 1504 3025 
Q 1209 2953 897 2809 
L 997 3341 
Q 1322 3463 1633 3523 
Q 1944 3584 2234 3584 
Q 2853 3584 3176 3315 
Q 3500 3047 3500 2534 
Q 3500 2431 3484 2292 
Q 3469 2153 3438 1997 
z
M 2816 1759 
L 2241 1759 
Q 1534 1759 1195 1570 
Q 856 1381 856 984 
Q 856 709 1029 553 
Q 1203 397 1509 397 
Q 1978 397 2328 733 
Q 2678 1069 2791 1631 
L 2816 1759 
z
" transform="scale(0.015625)"/>
      <path id="DejaVuSans-Oblique-64" d="M 2675 525 
Q 2444 222 2128 65 
Q 1813 -91 1428 -91 
Q 903 -91 598 267 
Q 294 625 294 1247 
Q 294 1766 478 2236 
Q 663 2706 1013 3078 
Q 1244 3325 1534 3454 
Q 1825 3584 2144 3584 
Q 2481 3584 2739 3421 
Q 2997 3259 3138 2956 
L 3513 4863 
L 4091 4863 
L 3144 0 
L 2566 0 
L 2675 525 
z
M 891 1350 
Q 891 897 1095 644 
Q 1300 391 1663 391 
Q 1931 391 2161 520 
Q 2391 650 2566 903 
Q 2750 1166 2856 1509 
Q 2963 1853 2963 2188 
Q 2963 2622 2758 2865 
Q 2553 3109 2194 3109 
Q 1922 3109 1687 2981 
Q 1453 2853 1288 2613 
Q 1106 2353 998 2009 
Q 891 1666 891 1350 
z
" transform="scale(0.015625)"/>
      <path id="DejaVuSans-Oblique-73" d="M 3200 3397 
L 3091 2853 
Q 2863 2978 2609 3040 
Q 2356 3103 2088 3103 
Q 1634 3103 1373 2948 
Q 1113 2794 1113 2528 
Q 1113 2219 1719 2053 
Q 1766 2041 1788 2034 
L 1972 1978 
Q 2547 1819 2739 1644 
Q 2931 1469 2931 1166 
Q 2931 609 2489 259 
Q 2047 -91 1331 -91 
Q 1053 -91 747 -37 
Q 441 16 72 128 
L 184 722 
Q 500 559 806 475 
Q 1113 391 1394 391 
Q 1816 391 2080 572 
Q 2344 753 2344 1031 
Q 2344 1331 1650 1516 
L 1591 1531 
L 1394 1581 
Q 956 1697 753 1886 
Q 550 2075 550 2369 
Q 550 2928 970 3256 
Q 1391 3584 2113 3584 
Q 2397 3584 2667 3537 
Q 2938 3491 3200 3397 
z
" transform="scale(0.015625)"/>
      <path id="DejaVuSans-Oblique-62" d="M 3169 2138 
Q 3169 2591 2961 2847 
Q 2753 3103 2388 3103 
Q 2122 3103 1889 2973 
Q 1656 2844 1484 2597 
Q 1303 2338 1198 1995 
Q 1094 1653 1094 1313 
Q 1094 881 1298 636 
Q 1503 391 1863 391 
Q 2134 391 2365 517 
Q 2597 644 2772 891 
Q 2950 1147 3059 1487 
Q 3169 1828 3169 2138 
z
M 1381 2969 
Q 1594 3256 1914 3420 
Q 2234 3584 2584 3584 
Q 3122 3584 3439 3221 
Q 3756 2859 3756 2241 
Q 3756 1734 3570 1259 
Q 3384 784 3041 416 
Q 2816 172 2522 40 
Q 2228 -91 1906 -91 
Q 1566 -91 1316 65 
Q 1066 222 909 531 
L 806 0 
L 231 0 
L 1178 4863 
L 1753 4863 
L 1381 2969 
z
" transform="scale(0.015625)"/>
      <path id="DejaVuSans-Oblique-35" d="M 3719 4666 
L 3622 4141 
L 1691 4141 
L 1466 2988 
Q 1609 3034 1757 3056 
Q 1906 3078 2059 3078 
Q 2706 3078 3081 2731 
Q 3456 2384 3456 1791 
Q 3456 1375 3264 994 
Q 3072 613 2719 325 
Q 2469 125 2108 17 
Q 1747 -91 1319 -91 
Q 1038 -91 744 -41 
Q 450 9 128 109 
L 244 697 
Q 531 556 820 486 
Q 1109 416 1403 416 
Q 2013 416 2411 781 
Q 2809 1147 2809 1697 
Q 2809 2103 2548 2328 
Q 2288 2553 1819 2553 
Q 1572 2553 1305 2495 
Q 1038 2438 756 2322 
L 1209 4666 
L 3719 4666 
z
" transform="scale(0.015625)"/>
      <path id="DejaVuSans-Oblique-31" d="M 416 531 
L 1447 531 
L 2144 4122 
L 978 3897 
L 1088 4441 
L 2247 4666 
L 2881 4666 
L 2075 531 
L 3103 531 
L 3003 0 
L 313 0 
L 416 531 
z
" transform="scale(0.015625)"/>
      <path id="DejaVuSans-Oblique-30" d="M 2444 4750 
Q 3078 4750 3414 4328 
Q 3750 3906 3750 3116 
Q 3750 2516 3592 1923 
Q 3434 1331 3150 863 
Q 2859 394 2467 151 
Q 2075 -91 1600 -91 
Q 988 -91 653 334 
Q 319 759 319 1544 
Q 319 2138 480 2733 
Q 641 3328 928 3794 
Q 1216 4263 1602 4506 
Q 1988 4750 2444 4750 
z
M 2406 4250 
Q 2169 4250 1955 4123 
Q 1741 3997 1569 3750 
Q 1281 3338 1111 2720 
Q 941 2103 941 1453 
Q 941 938 1123 673 
Q 1306 409 1663 409 
Q 1913 409 2125 536 
Q 2338 663 2509 909 
Q 2794 1319 2961 1936 
Q 3128 2553 3128 3206 
Q 3128 3722 2945 3986 
Q 2763 4250 2406 4250 
z
" transform="scale(0.015625)"/>
     </defs>
     <use xlink:href="#DejaVuSans-Oblique-53"/>
     <use xlink:href="#DejaVuSans-Oblique-74" transform="translate(63.476562 0)"/>
     <use xlink:href="#DejaVuSans-Oblique-72" transform="translate(102.685547 0)"/>
     <use xlink:href="#DejaVuSans-Oblique-75" transform="translate(143.798828 0)"/>
     <use xlink:href="#DejaVuSans-Oblique-6d" transform="translate(207.177734 0)"/>
     <use xlink:href="#DejaVuSans-Oblique-65" transform="translate(304.589844 0)"/>
     <use xlink:href="#DejaVuSans-Oblique-6e" transform="translate(366.113281 0)"/>
     <use xlink:href="#DejaVuSans-Oblique-74" transform="translate(429.492188 0)"/>
     <use xlink:href="#DejaVuSans-Oblique-6f" transform="translate(468.701172 0)"/>
     <use xlink:href="#DejaVuSans-Oblique-20" transform="translate(529.882812 0)"/>
     <use xlink:href="#DejaVuSans-Oblique-6f" transform="translate(561.669922 0)"/>
     <use xlink:href="#DejaVuSans-Oblique-6c" transform="translate(622.851562 0)"/>
     <use xlink:href="#DejaVuSans-Oblique-61" transform="translate(650.634766 0)"/>
     <use xlink:href="#DejaVuSans-Oblique-6e" transform="translate(711.914062 0)"/>
     <use xlink:href="#DejaVuSans-Oblique-64" transform="translate(775.292969 0)"/>
     <use xlink:href="#DejaVuSans-Oblique-65" transform="translate(838.769531 0)"/>
     <use xlink:href="#DejaVuSans-Oblique-73" transform="translate(900.292969 0)"/>
     <use xlink:href="#DejaVuSans-Oblique-65" transform="translate(952.392578 0)"/>
     <use xlink:href="#DejaVuSans-Oblique-20" transform="translate(1013.916016 0)"/>
     <use xlink:href="#DejaVuSans-Oblique-62" transform="translate(1045.703125 0)"/>
     <use xlink:href="#DejaVuSans-Oblique-61" transform="translate(1109.179688 0)"/>
     <use xlink:href="#DejaVuSans-Oblique-73" transform="translate(1170.458984 0)"/>
     <use xlink:href="#DejaVuSans-Oblique-61" transform="translate(1222.558594 0)"/>
     <use xlink:href="#DejaVuSans-Oblique-74" transform="translate(1283.837891 0)"/>
     <use xlink:href="#DejaVuSans-Oblique-6f" transform="translate(1323.046875 0)"/>
     <use xlink:href="#DejaVuSans-Oblique-20" transform="translate(1384.228516 0)"/>
     <use xlink:href="#DejaVuSans-Oblique-73" transform="translate(1416.015625 0)"/>
     <use xlink:href="#DejaVuSans-Oblique-75" transform="translate(1468.115234 0)"/>
     <use xlink:href="#DejaVuSans-Oblique-6c" transform="translate(1531.494141 0)"/>
     <use xlink:href="#DejaVuSans-Oblique-20" transform="translate(1559.277344 0)"/>
     <use xlink:href="#DejaVuSans-Oblique-35" transform="translate(1591.064453 0)"/>
     <use xlink:href="#DejaVuSans-Oblique-20" transform="translate(1654.6875 0)"/>
     <use xlink:href="#DejaVuSans-Oblique-65" transform="translate(1686.474609 0)"/>
     <use xlink:href="#DejaVuSans-Oblique-20" transform="translate(1747.998047 0)"/>
     <use xlink:href="#DejaVuSans-Oblique-73" transform="translate(1779.785156 0)"/>
     <use xlink:href="#DejaVuSans-Oblique-75" transform="translate(1831.884766 0)"/>
     <use xlink:href="#DejaVuSans-Oblique-6c" transform="translate(1895.263672 0)"/>
     <use xlink:href="#DejaVuSans-Oblique-20" transform="translate(1923.046875 0)"/>
     <use xlink:href="#DejaVuSans-Oblique-31" transform="translate(1954.833984 0)"/>
     <use xlink:href="#DejaVuSans-Oblique-30" transform="translate(2018.457031 0)"/>
    </g>
   </g>
  </g>
  <g id="axes_2">
   <g id="patch_2">
    <path d="M 125.12448 351.714067 
C 128.181667 351.714067 131.11405 350.114195 133.275808 347.266804 
C 135.437565 344.419413 136.652198 340.556979 136.652198 336.53016 
C 136.652198 332.503341 135.437565 328.640907 133.275808 325.793516 
C 131.11405 322.946125 128.181667 321.346253 125.12448 321.346253 
C 122.067293 321.346253 119.13491 322.946125 116.973152 325.793516 
C 114.811395 328.640907 113.596762 332.503341 113.596762 336.53016 
C 113.596762 340.556979 114.811395 344.419413 116.973152 347.266804 
C 119.13491 350.114195 122.067293 351.714067 125.12448 351.714067 
z
" clip-path="url(#pb3a084e432)" style="fill: #d63031; stroke: #7a1818; stroke-width: 1.5; stroke-linejoin: miter"/>
   </g>
   <g id="patch_3">
    <path d="M 156.563712 351.714067 
C 159.620899 351.714067 162.553282 350.114195 164.71504 347.266804 
C 166.876797 344.419413 168.09143 340.556979 168.09143 336.53016 
C 168.09143 332.503341 166.876797 328.640907 164.71504 325.793516 
C 162.553282 322.946125 159.620899 321.346253 156.563712 321.346253 
C 153.506525 321.346253 150.574142 322.946125 148.412384 325.793516 
C 146.250627 328.640907 145.035994 332.503341 145.035994 336.53016 
C 145.035994 340.556979 146.250627 344.419413 148.412384 347.266804 
C 150.574142 350.114195 153.506525 351.714067 156.563712 351.714067 
z
" clip-path="url(#pb3a084e432)" style="fill: #d63031; stroke: #7a1818; stroke-width: 1.5; stroke-linejoin: miter"/>
   </g>
   <g id="patch_4">
    <path d="M 188.002944 351.714067 
C 191.060131 351.714067 193.992514 350.114195 196.154272 347.266804 
C 198.316029 344.419413 199.530662 340.556979 199.530662 336.53016 
C 199.530662 332.503341 198.316029 328.640907 196.154272 325.793516 
C 193.992514 322.946125 191.060131 321.346253 188.002944 321.346253 
C 184.945757 321.346253 182.013374 322.946125 179.851616 325.793516 
C 177.689859 328.640907 176.475226 332.503341 176.475226 336.53016 
C 176.475226 340.556979 177.689859 344.419413 179.851616 347.266804 
C 182.013374 350.114195 184.945757 351.714067 188.002944 351.714067 
z
" clip-path="url(#pb3a084e432)" style="fill: #d63031; stroke: #7a1818; stroke-width: 1.5; stroke-linejoin: miter"/>
   </g>
   <g id="patch_5">
    <path d="M 219.442176 351.714067 
C 222.499363 351.714067 225.431746 350.114195 227.593504 347.266804 
C 229.755261 344.419413 230.969894 340.556979 230.969894 336.53016 
C 230.969894 332.503341 229.755261 328.640907 227.593504 325.793516 
C 225.431746 322.946125 222.499363 321.346253 219.442176 321.346253 
C 216.384989 321.346253 213.452606 322.946125 211.290848 325.793516 
C 209.129091 328.640907 207.914458 332.503341 207.914458 336.53016 
C 207.914458 340.556979 209.129091 344.419413 211.290848 347.266804 
C 213.452606 350.114195 216.384989 351.714067 219.442176 351.714067 
z
" clip-path="url(#pb3a084e432)" style="fill: #d63031; stroke: #7a1818; stroke-width: 1.5; stroke-linejoin: miter"/>
   </g>
   <g id="patch_6">
    <path d="M 250.881408 351.714067 
C 253.938595 351.714067 256.870978 350.114195 259.032736 347.266804 
C 261.194493 344.419413 262.409126 340.556979 262.409126 336.53016 
C 262.409126 332.503341 261.194493 328.640907 259.032736 325.793516 
C 256.870978 322.946125 253.938595 321.346253 250.881408 321.346253 
C 247.824221 321.346253 244.891838 322.946125 242.73008 325.793516 
C 240.568323 328.640907 239.35369 332.503341 239.35369 336.53016 
C 239.35369 340.556979 240.568323 344.419413 242.73008 347.266804 
C 244.891838 350.114195 247.824221 351.714067 250.881408 351.714067 
z
" clip-path="url(#pb3a084e432)" style="fill: #d63031; stroke: #7a1818; stroke-width: 1.5; stroke-linejoin: miter"/>
   </g>
   <g id="patch_7">
    <path d="M 282.32064 351.714067 
C 285.377827 351.714067 288.31021 350.114195 290.471968 347.266804 
C 292.633725 344.419413 293.848358 340.556979 293.848358 336.53016 
C 293.848358 332.503341 292.633725 328.640907 290.471968 325.793516 
C 288.31021 322.946125 285.377827 321.346253 282.32064 321.346253 
C 279.263453 321.346253 276.33107 322.946125 274.169312 325.793516 
C 272.007555 328.640907 270.792922 332.503341 270.792922 336.53016 
C 270.792922 340.556979 272.007555 344.419413 274.169312 347.266804 
C 276.33107 350.114195 279.263453 351.714067 282.32064 351.714067 
z
" clip-path="url(#pb3a084e432)" style="fill: #fdfdfd; stroke: #666666; stroke-width: 1.5; stroke-linejoin: miter"/>
   </g>
   <g id="patch_8">
    <path d="M 313.759872 351.714067 
C 316.817059 351.714067 319.749442 350.114195 321.9112 347.266804 
C 324.072957 344.419413 325.28759 340.556979 325.28759 336.53016 
C 325.28759 332.503341 324.072957 328.640907 321.9112 325.793516 
C 319.749442 322.946125 316.817059 321.346253 313.759872 321.346253 
C 310.702685 321.346253 307.770302 322.946125 305.608544 325.793516 
C 303.446787 328.640907 302.232154 332.503341 302.232154 336.53016 
C 302.232154 340.556979 303.446787 344.419413 305.608544 347.266804 
C 307.770302 350.114195 310.702685 351.714067 313.759872 351.714067 
z
" clip-path="url(#pb3a084e432)" style="fill: #fdfdfd; stroke: #666666; stroke-width: 1.5; stroke-linejoin: miter"/>
   </g>
   <g id="patch_9">
    <path d="M 345.199104 351.714067 
C 348.256291 351.714067 351.188674 350.114195 353.350432 347.266804 
C 355.512189 344.419413 356.726822 340.556979 356.726822 336.53016 
C 356.726822 332.503341 355.512189 328.640907 353.350432 325.793516 
C 351.188674 322.946125 348.256291 321.346253 345.199104 321.346253 
C 342.141917 321.346253 339.209534 322.946125 337.047776 325.793516 
C 334.886019 328.640907 333.671386 332.503341 333.671386 336.53016 
C 333.671386 340.556979 334.886019 344.419413 337.047776 347.266804 
C 339.209534 350.114195 342.141917 351.714067 345.199104 351.714067 
z
" clip-path="url(#pb3a084e432)" style="fill: #fdfdfd; stroke: #666666; stroke-width: 1.5; stroke-linejoin: miter"/>
   </g>
   <g id="patch_10">
    <path d="M 376.638336 351.714067 
C 379.695523 351.714067 382.627906 350.114195 384.789664 347.266804 
C 386.951421 344.419413 388.166054 340.556979 388.166054 336.53016 
C 388.166054 332.503341 386.951421 328.640907 384.789664 325.793516 
C 382.627906 322.946125 379.695523 321.346253 376.638336 321.346253 
C 373.581149 321.346253 370.648766 322.946125 368.487008 325.793516 
C 366.325251 328.640907 365.110618 332.503341 365.110618 336.53016 
C 365.110618 340.556979 366.325251 344.419413 368.487008 347.266804 
C 370.648766 350.114195 373.581149 351.714067 376.638336 351.714067 
z
" clip-path="url(#pb3a084e432)" style="fill: #fdfdfd; stroke: #666666; stroke-width: 1.5; stroke-linejoin: miter"/>
   </g>
   <g id="patch_11">
    <path d="M 408.077568 351.714067 
C 411.134755 351.714067 414.067138 350.114195 416.228896 347.266804 
C 418.390653 344.419413 419.605286 340.556979 419.605286 336.53016 
C 419.605286 332.503341 418.390653 328.640907 416.228896 325.793516 
C 414.067138 322.946125 411.134755 321.346253 408.077568 321.346253 
C 405.020381 321.346253 402.087998 322.946125 399.92624 325.793516 
C 397.764483 328.640907 396.54985 332.503341 396.54985 336.53016 
C 396.54985 340.556979 397.764483 344.419413 399.92624 347.266804 
C 402.087998 350.114195 405.020381 351.714067 408.077568 351.714067 
z
" clip-path="url(#pb3a084e432)" style="fill: #fdfdfd; stroke: #666666; stroke-width: 1.5; stroke-linejoin: miter"/>
   </g>
   <g id="patch_12">
    <path d="M 125.12448 420.731827 
C 128.181667 420.731827 131.11405 419.131955 133.275808 416.284564 
C 135.437565 413.437173 136.652198 409.574739 136.652198 405.54792 
C 136.652198 401.521101 135.437565 397.658667 133.275808 394.811276 
C 131.11405 391.963885 128.181667 390.364013 125.12448 390.364013 
C 122.067293 390.364013 119.13491 391.963885 116.973152 394.811276 
C 114.811395 397.658667 113.596762 401.521101 113.596762 405.54792 
C 113.596762 409.574739 114.811395 413.437173 116.973152 416.284564 
C 119.13491 419.131955 122.067293 420.731827 125.12448 420.731827 
z
" clip-path="url(#pb3a084e432)" style="fill: #d63031; stroke: #7a1818; stroke-width: 1.5; stroke-linejoin: miter"/>
   </g>
   <g id="patch_13">
    <path d="M 156.563712 420.731827 
C 159.620899 420.731827 162.553282 419.131955 164.71504 416.284564 
C 166.876797 413.437173 168.09143 409.574739 168.09143 405.54792 
C 168.09143 401.521101 166.876797 397.658667 164.71504 394.811276 
C 162.553282 391.963885 159.620899 390.364013 156.563712 390.364013 
C 153.506525 390.364013 150.574142 391.963885 148.412384 394.811276 
C 146.250627 397.658667 145.035994 401.521101 145.035994 405.54792 
C 145.035994 409.574739 146.250627 413.437173 148.412384 416.284564 
C 150.574142 419.131955 153.506525 420.731827 156.563712 420.731827 
z
" clip-path="url(#pb3a084e432)" style="fill: #d63031; stroke: #7a1818; stroke-width: 1.5; stroke-linejoin: miter"/>
   </g>
   <g id="patch_14">
    <path d="M 188.002944 420.731827 
C 191.060131 420.731827 193.992514 419.131955 196.154272 416.284564 
C 198.316029 413.437173 199.530662 409.574739 199.530662 405.54792 
C 199.530662 401.521101 198.316029 397.658667 196.154272 394.811276 
C 193.992514 391.963885 191.060131 390.364013 188.002944 390.364013 
C 184.945757 390.364013 182.013374 391.963885 179.851616 394.811276 
C 177.689859 397.658667 176.475226 401.521101 176.475226 405.54792 
C 176.475226 409.574739 177.689859 413.437173 179.851616 416.284564 
C 182.013374 419.131955 184.945757 420.731827 188.002944 420.731827 
z
" clip-path="url(#pb3a084e432)" style="fill: #d63031; stroke: #7a1818; stroke-width: 1.5; stroke-linejoin: miter"/>
   </g>
   <g id="patch_15">
    <path d="M 219.442176 420.731827 
C 222.499363 420.731827 225.431746 419.131955 227.593504 416.284564 
C 229.755261 413.437173 230.969894 409.574739 230.969894 405.54792 
C 230.969894 401.521101 229.755261 397.658667 227.593504 394.811276 
C 225.431746 391.963885 222.499363 390.364013 219.442176 390.364013 
C 216.384989 390.364013 213.452606 391.963885 211.290848 394.811276 
C 209.129091 397.658667 207.914458 401.521101 207.914458 405.54792 
C 207.914458 409.574739 209.129091 413.437173 211.290848 416.284564 
C 213.452606 419.131955 216.384989 420.731827 219.442176 420.731827 
z
" clip-path="url(#pb3a084e432)" style="fill: #d63031; stroke: #7a1818; stroke-width: 1.5; stroke-linejoin: miter"/>
   </g>
   <g id="patch_16">
    <path d="M 250.881408 420.731827 
C 253.938595 420.731827 256.870978 419.131955 259.032736 416.284564 
C 261.194493 413.437173 262.409126 409.574739 262.409126 405.54792 
C 262.409126 401.521101 261.194493 397.658667 259.032736 394.811276 
C 256.870978 391.963885 253.938595 390.364013 250.881408 390.364013 
C 247.824221 390.364013 244.891838 391.963885 242.73008 394.811276 
C 240.568323 397.658667 239.35369 401.521101 239.35369 405.54792 
C 239.35369 409.574739 240.568323 413.437173 242.73008 416.284564 
C 244.891838 419.131955 247.824221 420.731827 250.881408 420.731827 
z
" clip-path="url(#pb3a084e432)" style="fill: #d63031; stroke: #7a1818; stroke-width: 1.5; stroke-linejoin: miter"/>
   </g>
   <g id="patch_17">
    <path d="M 282.32064 420.731827 
C 285.377827 420.731827 288.31021 419.131955 290.471968 416.284564 
C 292.633725 413.437173 293.848358 409.574739 293.848358 405.54792 
C 293.848358 401.521101 292.633725 397.658667 290.471968 394.811276 
C 288.31021 391.963885 285.377827 390.364013 282.32064 390.364013 
C 279.263453 390.364013 276.33107 391.963885 274.169312 394.811276 
C 272.007555 397.658667 270.792922 401.521101 270.792922 405.54792 
C 270.792922 409.574739 272.007555 413.437173 274.169312 416.284564 
C 276.33107 419.131955 279.263453 420.731827 282.32064 420.731827 
z
" clip-path="url(#pb3a084e432)" style="fill: #fdfdfd; stroke: #666666; stroke-width: 1.5; stroke-linejoin: miter"/>
   </g>
   <g id="patch_18">
    <path d="M 313.759872 420.731827 
C 316.817059 420.731827 319.749442 419.131955 321.9112 416.284564 
C 324.072957 413.437173 325.28759 409.574739 325.28759 405.54792 
C 325.28759 401.521101 324.072957 397.658667 321.9112 394.811276 
C 319.749442 391.963885 316.817059 390.364013 313.759872 390.364013 
C 310.702685 390.364013 307.770302 391.963885 305.608544 394.811276 
C 303.446787 397.658667 302.232154 401.521101 302.232154 405.54792 
C 302.232154 409.574739 303.446787 413.437173 305.608544 416.284564 
C 307.770302 419.131955 310.702685 420.731827 313.759872 420.731827 
z
" clip-path="url(#pb3a084e432)" style="fill: #fdfdfd; stroke: #666666; stroke-width: 1.5; stroke-linejoin: miter"/>
   </g>
   <g id="patch_19">
    <path d="M 345.199104 420.731827 
C 348.256291 420.731827 351.188674 419.131955 353.350432 416.284564 
C 355.512189 413.437173 356.726822 409.574739 356.726822 405.54792 
C 356.726822 401.521101 355.512189 397.658667 353.350432 394.811276 
C 351.188674 391.963885 348.256291 390.364013 345.199104 390.364013 
C 342.141917 390.364013 339.209534 391.963885 337.047776 394.811276 
C 334.886019 397.658667 333.671386 401.521101 333.671386 405.54792 
C 333.671386 409.574739 334.886019 413.437173 337.047776 416.284564 
C 339.209534 419.131955 342.141917 420.731827 345.199104 420.731827 
z
" clip-path="url(#pb3a084e432)" style="fill: #fdfdfd; stroke: #666666; stroke-width: 1.5; stroke-linejoin: miter"/>
   </g>
   <g id="patch_20">
    <path d="M 376.638336 420.731827 
C 379.695523 420.731827 382.627906 419.131955 384.789664 416.284564 
C 386.951421 413.437173 388.166054 409.574739 388.166054 405.54792 
C 388.166054 401.521101 386.951421 397.658667 384.789664 394.811276 
C 382.627906 391.963885 379.695523 390.364013 376.638336 390.364013 
C 373.581149 390.364013 370.648766 391.963885 368.487008 394.811276 
C 366.325251 397.658667 365.110618 401.521101 365.110618 405.54792 
C 365.110618 409.574739 366.325251 413.437173 368.487008 416.284564 
C 370.648766 419.131955 373.581149 420.731827 376.638336 420.731827 
z
" clip-path="url(#pb3a084e432)" style="fill: #fdfdfd; stroke: #666666; stroke-width: 1.5; stroke-linejoin: miter"/>
   </g>
   <g id="patch_21">
    <path d="M 408.077568 420.731827 
C 411.134755 420.731827 414.067138 419.131955 416.228896 416.284564 
C 418.390653 413.437173 419.605286 409.574739 419.605286 405.54792 
C 419.605286 401.521101 418.390653 397.658667 416.228896 394.811276 
C 414.067138 391.963885 411.134755 390.364013 408.077568 390.364013 
C 405.020381 390.364013 402.087998 391.963885 399.92624 394.811276 
C 397.764483 397.658667 396.54985 401.521101 396.54985 405.54792 
C 396.54985 409.574739 397.764483 413.437173 399.92624 416.284564 
C 402.087998 419.131955 405.020381 420.731827 408.077568 420.731827 
z
" clip-path="url(#pb3a084e432)" style="fill: #fdfdfd; stroke: #666666; stroke-width: 1.5; stroke-linejoin: miter"/>
   </g>
   <g id="line2d_1">
    <path d="M 114.644736 336.53016 
L 449.996544 336.53016 
" clip-path="url(#pb3a084e432)" style="fill: none; stroke: #8b5a2b; stroke-width: 2; stroke-linecap: square"/>
   </g>
   <g id="line2d_2">
    <path d="M 114.644736 405.54792 
L 449.996544 405.54792 
" clip-path="url(#pb3a084e432)" style="fill: none; stroke: #8b5a2b; stroke-width: 2; stroke-linecap: square"/>
   </g>
   <g id="text_3">
    <g id="patch_22">
     <path d="M 101.551445 169.631265 
L 515.488555 169.631265 
Q 521.238555 169.631265 521.238555 163.881265 
L 521.238555 136.378656 
Q 521.238555 130.628656 515.488555 130.628656 
L 101.551445 130.628656 
Q 95.801445 130.628656 95.801445 136.378656 
L 95.801445 163.881265 
Q 95.801445 169.631265 101.551445 169.631265 
z
" style="fill: #fffbe6; stroke: #f0a500; stroke-width: 1.5; stroke-linejoin: miter"/>
    </g>
    <!-- Due file da 10 palline: 5 rosse e 5 bianche per ogni fila. -->
    <g style="fill: #1d1d1f" transform="translate(149.219844 145.116859) scale(0.115 -0.115)">
     <defs>
      <path id="DejaVuSans-44" d="M 1259 4147 
L 1259 519 
L 2022 519 
Q 2988 519 3436 956 
Q 3884 1394 3884 2338 
Q 3884 3275 3436 3711 
Q 2988 4147 2022 4147 
L 1259 4147 
z
M 628 4666 
L 1925 4666 
Q 3281 4666 3915 4102 
Q 4550 3538 4550 2338 
Q 4550 1131 3912 565 
Q 3275 0 1925 0 
L 628 0 
L 628 4666 
z
" transform="scale(0.015625)"/>
      <path id="DejaVuSans-75" d="M 544 1381 
L 544 3500 
L 1119 3500 
L 1119 1403 
Q 1119 906 1312 657 
Q 1506 409 1894 409 
Q 2359 409 2629 706 
Q 2900 1003 2900 1516 
L 2900 3500 
L 3475 3500 
L 3475 0 
L 2900 0 
L 2900 538 
Q 2691 219 2414 64 
Q 2138 -91 1772 -91 
Q 1169 -91 856 284 
Q 544 659 544 1381 
z
M 1991 3584 
L 1991 3584 
z
" transform="scale(0.015625)"/>
      <path id="DejaVuSans-65" d="M 3597 1894 
L 3597 1613 
L 953 1613 
Q 991 1019 1311 708 
Q 1631 397 2203 397 
Q 2534 397 2845 478 
Q 3156 559 3463 722 
L 3463 178 
Q 3153 47 2828 -22 
Q 2503 -91 2169 -91 
Q 1331 -91 842 396 
Q 353 884 353 1716 
Q 353 2575 817 3079 
Q 1281 3584 2069 3584 
Q 2775 3584 3186 3129 
Q 3597 2675 3597 1894 
z
M 3022 2063 
Q 3016 2534 2758 2815 
Q 2500 3097 2075 3097 
Q 1594 3097 1305 2825 
Q 1016 2553 972 2059 
L 3022 2063 
z
" transform="scale(0.015625)"/>
      <path id="DejaVuSans-20" transform="scale(0.015625)"/>
      <path id="DejaVuSans-66" d="M 2375 4863 
L 2375 4384 
L 1825 4384 
Q 1516 4384 1395 4259 
Q 1275 4134 1275 3809 
L 1275 3500 
L 2222 3500 
L 2222 3053 
L 1275 3053 
L 1275 0 
L 697 0 
L 697 3053 
L 147 3053 
L 147 3500 
L 697 3500 
L 697 3744 
Q 697 4328 969 4595 
Q 1241 4863 1831 4863 
L 2375 4863 
z
" transform="scale(0.015625)"/>
      <path id="DejaVuSans-69" d="M 603 3500 
L 1178 3500 
L 1178 0 
L 603 0 
L 603 3500 
z
M 603 4863 
L 1178 4863 
L 1178 4134 
L 603 4134 
L 603 4863 
z
" transform="scale(0.015625)"/>
      <path id="DejaVuSans-6c" d="M 603 4863 
L 1178 4863 
L 1178 0 
L 603 0 
L 603 4863 
z
" transform="scale(0.015625)"/>
      <path id="DejaVuSans-64" d="M 2906 2969 
L 2906 4863 
L 3481 4863 
L 3481 0 
L 2906 0 
L 2906 525 
Q 2725 213 2448 61 
Q 2172 -91 1784 -91 
Q 1150 -91 751 415 
Q 353 922 353 1747 
Q 353 2572 751 3078 
Q 1150 3584 1784 3584 
Q 2172 3584 2448 3432 
Q 2725 3281 2906 2969 
z
M 947 1747 
Q 947 1113 1208 752 
Q 1469 391 1925 391 
Q 2381 391 2643 752 
Q 2906 1113 2906 1747 
Q 2906 2381 2643 2742 
Q 2381 3103 1925 3103 
Q 1469 3103 1208 2742 
Q 947 2381 947 1747 
z
" transform="scale(0.015625)"/>
      <path id="DejaVuSans-61" d="M 2194 1759 
Q 1497 1759 1228 1600 
Q 959 1441 959 1056 
Q 959 750 1161 570 
Q 1363 391 1709 391 
Q 2188 391 2477 730 
Q 2766 1069 2766 1631 
L 2766 1759 
L 2194 1759 
z
M 3341 1997 
L 3341 0 
L 2766 0 
L 2766 531 
Q 2569 213 2275 61 
Q 1981 -91 1556 -91 
Q 1019 -91 701 211 
Q 384 513 384 1019 
Q 384 1609 779 1909 
Q 1175 2209 1959 2209 
L 2766 2209 
L 2766 2266 
Q 2766 2663 2505 2880 
Q 2244 3097 1772 3097 
Q 1472 3097 1187 3025 
Q 903 2953 641 2809 
L 641 3341 
Q 956 3463 1253 3523 
Q 1550 3584 1831 3584 
Q 2591 3584 2966 3190 
Q 3341 2797 3341 1997 
z
" transform="scale(0.015625)"/>
      <path id="DejaVuSans-31" d="M 794 531 
L 1825 531 
L 1825 4091 
L 703 3866 
L 703 4441 
L 1819 4666 
L 2450 4666 
L 2450 531 
L 3481 531 
L 3481 0 
L 794 0 
L 794 531 
z
" transform="scale(0.015625)"/>
      <path id="DejaVuSans-30" d="M 2034 4250 
Q 1547 4250 1301 3770 
Q 1056 3291 1056 2328 
Q 1056 1369 1301 889 
Q 1547 409 2034 409 
Q 2525 409 2770 889 
Q 3016 1369 3016 2328 
Q 3016 3291 2770 3770 
Q 2525 4250 2034 4250 
z
M 2034 4750 
Q 2819 4750 3233 4129 
Q 3647 3509 3647 2328 
Q 3647 1150 3233 529 
Q 2819 -91 2034 -91 
Q 1250 -91 836 529 
Q 422 1150 422 2328 
Q 422 3509 836 4129 
Q 1250 4750 2034 4750 
z
" transform="scale(0.015625)"/>
      <path id="DejaVuSans-70" d="M 1159 525 
L 1159 -1331 
L 581 -1331 
L 581 3500 
L 1159 3500 
L 1159 2969 
Q 1341 3281 1617 3432 
Q 1894 3584 2278 3584 
Q 2916 3584 3314 3078 
Q 3713 2572 3713 1747 
Q 3713 922 3314 415 
Q 2916 -91 2278 -91 
Q 1894 -91 1617 61 
Q 1341 213 1159 525 
z
M 3116 1747 
Q 3116 2381 2855 2742 
Q 2594 3103 2138 3103 
Q 1681 3103 1420 2742 
Q 1159 2381 1159 1747 
Q 1159 1113 1420 752 
Q 1681 391 2138 391 
Q 2594 391 2855 752 
Q 3116 1113 3116 1747 
z
" transform="scale(0.015625)"/>
      <path id="DejaVuSans-6e" d="M 3513 2113 
L 3513 0 
L 2938 0 
L 2938 2094 
Q 2938 2591 2744 2837 
Q 2550 3084 2163 3084 
Q 1697 3084 1428 2787 
Q 1159 2491 1159 1978 
L 1159 0 
L 581 0 
L 581 3500 
L 1159 3500 
L 1159 2956 
Q 1366 3272 1645 3428 
Q 1925 3584 2291 3584 
Q 2894 3584 3203 3211 
Q 3513 2838 3513 2113 
z
" transform="scale(0.015625)"/>
      <path id="DejaVuSans-3a" d="M 750 794 
L 1409 794 
L 1409 0 
L 750 0 
L 750 794 
z
M 750 3309 
L 1409 3309 
L 1409 2516 
L 750 2516 
L 750 3309 
z
" transform="scale(0.015625)"/>
      <path id="DejaVuSans-35" d="M 691 4666 
L 3169 4666 
L 3169 4134 
L 1269 4134 
L 1269 2991 
Q 1406 3038 1543 3061 
Q 1681 3084 1819 3084 
Q 2600 3084 3056 2656 
Q 3513 2228 3513 1497 
Q 3513 744 3044 326 
Q 2575 -91 1722 -91 
Q 1428 -91 1123 -41 
Q 819 9 494 109 
L 494 744 
Q 775 591 1075 516 
Q 1375 441 1709 441 
Q 2250 441 2565 725 
Q 2881 1009 2881 1497 
Q 2881 1984 2565 2268 
Q 2250 2553 1709 2553 
Q 1456 2553 1204 2497 
Q 953 2441 691 2322 
L 691 4666 
z
" transform="scale(0.015625)"/>
      <path id="DejaVuSans-72" d="M 2631 2963 
Q 2534 3019 2420 3045 
Q 2306 3072 2169 3072 
Q 1681 3072 1420 2755 
Q 1159 2438 1159 1844 
L 1159 0 
L 581 0 
L 581 3500 
L 1159 3500 
L 1159 2956 
Q 1341 3275 1631 3429 
Q 1922 3584 2338 3584 
Q 2397 3584 2469 3576 
Q 2541 3569 2628 3553 
L 2631 2963 
z
" transform="scale(0.015625)"/>
      <path id="DejaVuSans-6f" d="M 1959 3097 
Q 1497 3097 1228 2736 
Q 959 2375 959 1747 
Q 959 1119 1226 758 
Q 1494 397 1959 397 
Q 2419 397 2687 759 
Q 2956 1122 2956 1747 
Q 2956 2369 2687 2733 
Q 2419 3097 1959 3097 
z
M 1959 3584 
Q 2709 3584 3137 3096 
Q 3566 2609 3566 1747 
Q 3566 888 3137 398 
Q 2709 -91 1959 -91 
Q 1206 -91 779 398 
Q 353 888 353 1747 
Q 353 2609 779 3096 
Q 1206 3584 1959 3584 
z
" transform="scale(0.015625)"/>
      <path id="DejaVuSans-73" d="M 2834 3397 
L 2834 2853 
Q 2591 2978 2328 3040 
Q 2066 3103 1784 3103 
Q 1356 3103 1142 2972 
Q 928 2841 928 2578 
Q 928 2378 1081 2264 
Q 1234 2150 1697 2047 
L 1894 2003 
Q 2506 1872 2764 1633 
Q 3022 1394 3022 966 
Q 3022 478 2636 193 
Q 2250 -91 1575 -91 
Q 1294 -91 989 -36 
Q 684 19 347 128 
L 347 722 
Q 666 556 975 473 
Q 1284 391 1588 391 
Q 1994 391 2212 530 
Q 2431 669 2431 922 
Q 2431 1156 2273 1281 
Q 2116 1406 1581 1522 
L 1381 1569 
Q 847 1681 609 1914 
Q 372 2147 372 2553 
Q 372 3047 722 3315 
Q 1072 3584 1716 3584 
Q 2034 3584 2315 3537 
Q 2597 3491 2834 3397 
z
" transform="scale(0.015625)"/>
      <path id="DejaVuSans-62" d="M 3116 1747 
Q 3116 2381 2855 2742 
Q 2594 3103 2138 3103 
Q 1681 3103 1420 2742 
Q 1159 2381 1159 1747 
Q 1159 1113 1420 752 
Q 1681 391 2138 391 
Q 2594 391 2855 752 
Q 3116 1113 3116 1747 
z
M 1159 2969 
Q 1341 3281 1617 3432 
Q 1894 3584 2278 3584 
Q 2916 3584 3314 3078 
Q 3713 2572 3713 1747 
Q 3713 922 3314 415 
Q 2916 -91 2278 -91 
Q 1894 -91 1617 61 
Q 1341 213 1159 525 
L 1159 0 
L 581 0 
L 581 4863 
L 1159 4863 
L 1159 2969 
z
" transform="scale(0.015625)"/>
      <path id="DejaVuSans-63" d="M 3122 3366 
L 3122 2828 
Q 2878 2963 2633 3030 
Q 2388 3097 2138 3097 
Q 1578 3097 1268 2742 
Q 959 2388 959 1747 
Q 959 1106 1268 751 
Q 1578 397 2138 397 
Q 2388 397 2633 464 
Q 2878 531 3122 666 
L 3122 134 
Q 2881 22 2623 -34 
Q 2366 -91 2075 -91 
Q 1284 -91 818 406 
Q 353 903 353 1747 
Q 353 2603 823 3093 
Q 1294 3584 2113 3584 
Q 2378 3584 2631 3529 
Q 2884 3475 3122 3366 
z
" transform="scale(0.015625)"/>
      <path id="DejaVuSans-68" d="M 3513 2113 
L 3513 0 
L 2938 0 
L 2938 2094 
Q 2938 2591 2744 2837 
Q 2550 3084 2163 3084 
Q 1697 3084 1428 2787 
Q 1159 2491 1159 1978 
L 1159 0 
L 581 0 
L 581 4863 
L 1159 4863 
L 1159 2956 
Q 1366 3272 1645 3428 
Q 1925 3584 2291 3584 
Q 2894 3584 3203 3211 
Q 3513 2838 3513 2113 
z
" transform="scale(0.015625)"/>
      <path id="DejaVuSans-67" d="M 2906 1791 
Q 2906 2416 2648 2759 
Q 2391 3103 1925 3103 
Q 1463 3103 1205 2759 
Q 947 2416 947 1791 
Q 947 1169 1205 825 
Q 1463 481 1925 481 
Q 2391 481 2648 825 
Q 2906 1169 2906 1791 
z
M 3481 434 
Q 3481 -459 3084 -895 
Q 2688 -1331 1869 -1331 
Q 1566 -1331 1297 -1286 
Q 1028 -1241 775 -1147 
L 775 -588 
Q 1028 -725 1275 -790 
Q 1522 -856 1778 -856 
Q 2344 -856 2625 -561 
Q 2906 -266 2906 331 
L 2906 616 
Q 2728 306 2450 153 
Q 2172 0 1784 0 
Q 1141 0 747 490 
Q 353 981 353 1791 
Q 353 2603 747 3093 
Q 1141 3584 1784 3584 
Q 2172 3584 2450 3431 
Q 2728 3278 2906 2969 
L 2906 3500 
L 3481 3500 
L 3481 434 
z
" transform="scale(0.015625)"/>
      <path id="DejaVuSans-2e" d="M 684 794 
L 1344 794 
L 1344 0 
L 684 0 
L 684 794 
z
" transform="scale(0.015625)"/>
     </defs>
     <use xlink:href="#DejaVuSans-44"/>
     <use xlink:href="#DejaVuSans-75" transform="translate(77.001953 0)"/>
     <use xlink:href="#DejaVuSans-65" transform="translate(140.380859 0)"/>
     <use xlink:href="#DejaVuSans-20" transform="translate(201.904297 0)"/>
     <use xlink:href="#DejaVuSans-66" transform="translate(233.691406 0)"/>
     <use xlink:href="#DejaVuSans-69" transform="translate(268.896484 0)"/>
     <use xlink:href="#DejaVuSans-6c" transform="translate(296.679688 0)"/>
     <use xlink:href="#DejaVuSans-65" transform="translate(324.462891 0)"/>
     <use xlink:href="#DejaVuSans-20" transform="translate(385.986328 0)"/>
     <use xlink:href="#DejaVuSans-64" transform="translate(417.773438 0)"/>
     <use xlink:href="#DejaVuSans-61" transform="translate(481.25 0)"/>
     <use xlink:href="#DejaVuSans-20" transform="translate(542.529297 0)"/>
     <use xlink:href="#DejaVuSans-31" transform="translate(574.316406 0)"/>
     <use xlink:href="#DejaVuSans-30" transform="translate(637.939453 0)"/>
     <use xlink:href="#DejaVuSans-20" transform="translate(701.5625 0)"/>
     <use xlink:href="#DejaVuSans-70" transform="translate(733.349609 0)"/>
     <use xlink:href="#DejaVuSans-61" transform="translate(796.826172 0)"/>
     <use xlink:href="#DejaVuSans-6c" transform="translate(858.105469 0)"/>
     <use xlink:href="#DejaVuSans-6c" transform="translate(885.888672 0)"/>
     <use xlink:href="#DejaVuSans-69" transform="translate(913.671875 0)"/>
     <use xlink:href="#DejaVuSans-6e" transform="translate(941.455078 0)"/>
     <use xlink:href="#DejaVuSans-65" transform="translate(1004.833984 0)"/>
     <use xlink:href="#DejaVuSans-3a" transform="translate(1066.357422 0)"/>
     <use xlink:href="#DejaVuSans-20" transform="translate(1100.048828 0)"/>
     <use xlink:href="#DejaVuSans-35" transform="translate(1131.835938 0)"/>
     <use xlink:href="#DejaVuSans-20" transform="translate(1195.458984 0)"/>
     <use xlink:href="#DejaVuSans-72" transform="translate(1227.246094 0)"/>
     <use xlink:href="#DejaVuSans-6f" transform="translate(1266.109375 0)"/>
     <use xlink:href="#DejaVuSans-73" transform="translate(1327.291016 0)"/>
     <use xlink:href="#DejaVuSans-73" transform="translate(1379.390625 0)"/>
     <use xlink:href="#DejaVuSans-65" transform="translate(1431.490234 0)"/>
     <use xlink:href="#DejaVuSans-20" transform="translate(1493.013672 0)"/>
     <use xlink:href="#DejaVuSans-65" transform="translate(1524.800781 0)"/>
     <use xlink:href="#DejaVuSans-20" transform="translate(1586.324219 0)"/>
     <use xlink:href="#DejaVuSans-35" transform="translate(1618.111328 0)"/>
     <use xlink:href="#DejaVuSans-20" transform="translate(1681.734375 0)"/>
     <use xlink:href="#DejaVuSans-62" transform="translate(1713.521484 0)"/>
     <use xlink:href="#DejaVuSans-69" transform="translate(1776.998047 0)"/>
     <use xlink:href="#DejaVuSans-61" transform="translate(1804.78125 0)"/>
     <use xlink:href="#DejaVuSans-6e" transform="translate(1866.060547 0)"/>
     <use xlink:href="#DejaVuSans-63" transform="translate(1929.439453 0)"/>
     <use xlink:href="#DejaVuSans-68" transform="translate(1984.419922 0)"/>
     <use xlink:href="#DejaVuSans-65" transform="translate(2047.798828 0)"/>
     <use xlink:href="#DejaVuSans-20" transform="translate(2109.322266 0)"/>
     <use xlink:href="#DejaVuSans-70" transform="translate(2141.109375 0)"/>
     <use xlink:href="#DejaVuSans-65" transform="translate(2204.585938 0)"/>
     <use xlink:href="#DejaVuSans-72" transform="translate(2266.109375 0)"/>
     <use xlink:href="#DejaVuSans-20" transform="translate(2307.222656 0)"/>
     <use xlink:href="#DejaVuSans-6f" transform="translate(2339.009766 0)"/>
     <use xlink:href="#DejaVuSans-67" transform="translate(2400.191406 0)"/>
     <use xlink:href="#DejaVuSans-6e" transform="translate(2463.667969 0)"/>
     <use xlink:href="#DejaVuSans-69" transform="translate(2527.046875 0)"/>
     <use xlink:href="#DejaVuSans-20" transform="translate(2554.830078 0)"/>
     <use xlink:href="#DejaVuSans-66" transform="translate(2586.617188 0)"/>
     <use xlink:href="#DejaVuSans-69" transform="translate(2621.822266 0)"/>
     <use xlink:href="#DejaVuSans-6c" transform="translate(2649.605469 0)"/>
     <use xlink:href="#DejaVuSans-61" transform="translate(2677.388672 0)"/>
     <use xlink:href="#DejaVuSans-2e" transform="translate(2738.667969 0)"/>
    </g>
    <!-- Si vede subito quanto manca a 5, a 10, a 20. Anti-ansia, anti-conteggio. -->
    <g style="fill: #1d1d1f" transform="translate(101.551445 161.489625) scale(0.115 -0.115)">
     <defs>
      <path id="DejaVuSans-53" d="M 3425 4513 
L 3425 3897 
Q 3066 4069 2747 4153 
Q 2428 4238 2131 4238 
Q 1616 4238 1336 4038 
Q 1056 3838 1056 3469 
Q 1056 3159 1242 3001 
Q 1428 2844 1947 2747 
L 2328 2669 
Q 3034 2534 3370 2195 
Q 3706 1856 3706 1288 
Q 3706 609 3251 259 
Q 2797 -91 1919 -91 
Q 1588 -91 1214 -16 
Q 841 59 441 206 
L 441 856 
Q 825 641 1194 531 
Q 1563 422 1919 422 
Q 2459 422 2753 634 
Q 3047 847 3047 1241 
Q 3047 1584 2836 1778 
Q 2625 1972 2144 2069 
L 1759 2144 
Q 1053 2284 737 2584 
Q 422 2884 422 3419 
Q 422 4038 858 4394 
Q 1294 4750 2059 4750 
Q 2388 4750 2728 4690 
Q 3069 4631 3425 4513 
z
" transform="scale(0.015625)"/>
      <path id="DejaVuSans-76" d="M 191 3500 
L 800 3500 
L 1894 563 
L 2988 3500 
L 3597 3500 
L 2284 0 
L 1503 0 
L 191 3500 
z
" transform="scale(0.015625)"/>
      <path id="DejaVuSans-74" d="M 1172 4494 
L 1172 3500 
L 2356 3500 
L 2356 3053 
L 1172 3053 
L 1172 1153 
Q 1172 725 1289 603 
Q 1406 481 1766 481 
L 2356 481 
L 2356 0 
L 1766 0 
Q 1100 0 847 248 
Q 594 497 594 1153 
L 594 3053 
L 172 3053 
L 172 3500 
L 594 3500 
L 594 4494 
L 1172 4494 
z
" transform="scale(0.015625)"/>
      <path id="DejaVuSans-71" d="M 947 1747 
Q 947 1113 1208 752 
Q 1469 391 1925 391 
Q 2381 391 2643 752 
Q 2906 1113 2906 1747 
Q 2906 2381 2643 2742 
Q 2381 3103 1925 3103 
Q 1469 3103 1208 2742 
Q 947 2381 947 1747 
z
M 2906 525 
Q 2725 213 2448 61 
Q 2172 -91 1784 -91 
Q 1150 -91 751 415 
Q 353 922 353 1747 
Q 353 2572 751 3078 
Q 1150 3584 1784 3584 
Q 2172 3584 2448 3432 
Q 2725 3281 2906 2969 
L 2906 3500 
L 3481 3500 
L 3481 -1331 
L 2906 -1331 
L 2906 525 
z
" transform="scale(0.015625)"/>
      <path id="DejaVuSans-6d" d="M 3328 2828 
Q 3544 3216 3844 3400 
Q 4144 3584 4550 3584 
Q 5097 3584 5394 3201 
Q 5691 2819 5691 2113 
L 5691 0 
L 5113 0 
L 5113 2094 
Q 5113 2597 4934 2840 
Q 4756 3084 4391 3084 
Q 3944 3084 3684 2787 
Q 3425 2491 3425 1978 
L 3425 0 
L 2847 0 
L 2847 2094 
Q 2847 2600 2669 2842 
Q 2491 3084 2119 3084 
Q 1678 3084 1418 2786 
Q 1159 2488 1159 1978 
L 1159 0 
L 581 0 
L 581 3500 
L 1159 3500 
L 1159 2956 
Q 1356 3278 1631 3431 
Q 1906 3584 2284 3584 
Q 2666 3584 2933 3390 
Q 3200 3197 3328 2828 
z
" transform="scale(0.015625)"/>
      <path id="DejaVuSans-2c" d="M 750 794 
L 1409 794 
L 1409 256 
L 897 -744 
L 494 -744 
L 750 256 
L 750 794 
z
" transform="scale(0.015625)"/>
      <path id="DejaVuSans-32" d="M 1228 531 
L 3431 531 
L 3431 0 
L 469 0 
L 469 531 
Q 828 903 1448 1529 
Q 2069 2156 2228 2338 
Q 2531 2678 2651 2914 
Q 2772 3150 2772 3378 
Q 2772 3750 2511 3984 
Q 2250 4219 1831 4219 
Q 1534 4219 1204 4116 
Q 875 4013 500 3803 
L 500 4441 
Q 881 4594 1212 4672 
Q 1544 4750 1819 4750 
Q 2544 4750 2975 4387 
Q 3406 4025 3406 3419 
Q 3406 3131 3298 2873 
Q 3191 2616 2906 2266 
Q 2828 2175 2409 1742 
Q 1991 1309 1228 531 
z
" transform="scale(0.015625)"/>
      <path id="DejaVuSans-41" d="M 2188 4044 
L 1331 1722 
L 3047 1722 
L 2188 4044 
z
M 1831 4666 
L 2547 4666 
L 4325 0 
L 3669 0 
L 3244 1197 
L 1141 1197 
L 716 0 
L 50 0 
L 1831 4666 
z
" transform="scale(0.015625)"/>
      <path id="DejaVuSans-2d" d="M 313 2009 
L 1997 2009 
L 1997 1497 
L 313 1497 
L 313 2009 
z
" transform="scale(0.015625)"/>
     </defs>
     <use xlink:href="#DejaVuSans-53"/>
     <use xlink:href="#DejaVuSans-69" transform="translate(63.476562 0)"/>
     <use xlink:href="#DejaVuSans-20" transform="translate(91.259766 0)"/>
     <use xlink:href="#DejaVuSans-76" transform="translate(123.046875 0)"/>
     <use xlink:href="#DejaVuSans-65" transform="translate(182.226562 0)"/>
     <use xlink:href="#DejaVuSans-64" transform="translate(243.75 0)"/>
     <use xlink:href="#DejaVuSans-65" transform="translate(307.226562 0)"/>
     <use xlink:href="#DejaVuSans-20" transform="translate(368.75 0)"/>
     <use xlink:href="#DejaVuSans-73" transform="translate(400.537109 0)"/>
     <use xlink:href="#DejaVuSans-75" transform="translate(452.636719 0)"/>
     <use xlink:href="#DejaVuSans-62" transform="translate(516.015625 0)"/>
     <use xlink:href="#DejaVuSans-69" transform="translate(579.492188 0)"/>
     <use xlink:href="#DejaVuSans-74" transform="translate(607.275391 0)"/>
     <use xlink:href="#DejaVuSans-6f" transform="translate(646.484375 0)"/>
     <use xlink:href="#DejaVuSans-20" transform="translate(707.666016 0)"/>
     <use xlink:href="#DejaVuSans-71" transform="translate(739.453125 0)"/>
     <use xlink:href="#DejaVuSans-75" transform="translate(802.929688 0)"/>
     <use xlink:href="#DejaVuSans-61" transform="translate(866.308594 0)"/>
     <use xlink:href="#DejaVuSans-6e" transform="translate(927.587891 0)"/>
     <use xlink:href="#DejaVuSans-74" transform="translate(990.966797 0)"/>
     <use xlink:href="#DejaVuSans-6f" transform="translate(1030.175781 0)"/>
     <use xlink:href="#DejaVuSans-20" transform="translate(1091.357422 0)"/>
     <use xlink:href="#DejaVuSans-6d" transform="translate(1123.144531 0)"/>
     <use xlink:href="#DejaVuSans-61" transform="translate(1220.556641 0)"/>
     <use xlink:href="#DejaVuSans-6e" transform="translate(1281.835938 0)"/>
     <use xlink:href="#DejaVuSans-63" transform="translate(1345.214844 0)"/>
     <use xlink:href="#DejaVuSans-61" transform="translate(1400.195312 0)"/>
     <use xlink:href="#DejaVuSans-20" transform="translate(1461.474609 0)"/>
     <use xlink:href="#DejaVuSans-61" transform="translate(1493.261719 0)"/>
     <use xlink:href="#DejaVuSans-20" transform="translate(1554.541016 0)"/>
     <use xlink:href="#DejaVuSans-35" transform="translate(1586.328125 0)"/>
     <use xlink:href="#DejaVuSans-2c" transform="translate(1649.951172 0)"/>
     <use xlink:href="#DejaVuSans-20" transform="translate(1681.738281 0)"/>
     <use xlink:href="#DejaVuSans-61" transform="translate(1713.525391 0)"/>
     <use xlink:href="#DejaVuSans-20" transform="translate(1774.804688 0)"/>
     <use xlink:href="#DejaVuSans-31" transform="translate(1806.591797 0)"/>
     <use xlink:href="#DejaVuSans-30" transform="translate(1870.214844 0)"/>
     <use xlink:href="#DejaVuSans-2c" transform="translate(1933.837891 0)"/>
     <use xlink:href="#DejaVuSans-20" transform="translate(1965.625 0)"/>
     <use xlink:href="#DejaVuSans-61" transform="translate(1997.412109 0)"/>
     <use xlink:href="#DejaVuSans-20" transform="translate(2058.691406 0)"/>
     <use xlink:href="#DejaVuSans-32" transform="translate(2090.478516 0)"/>
     <use xlink:href="#DejaVuSans-30" transform="translate(2154.101562 0)"/>
     <use xlink:href="#DejaVuSans-2e" transform="translate(2217.724609 0)"/>
     <use xlink:href="#DejaVuSans-20" transform="translate(2249.511719 0)"/>
     <use xlink:href="#DejaVuSans-41" transform="translate(2281.298828 0)"/>
     <use xlink:href="#DejaVuSans-6e" transform="translate(2349.707031 0)"/>
     <use xlink:href="#DejaVuSans-74" transform="translate(2413.085938 0)"/>
     <use xlink:href="#DejaVuSans-69" transform="translate(2452.294922 0)"/>
     <use xlink:href="#DejaVuSans-2d" transform="translate(2480.078125 0)"/>
     <use xlink:href="#DejaVuSans-61" transform="translate(2516.162109 0)"/>
     <use xlink:href="#DejaVuSans-6e" transform="translate(2577.441406 0)"/>
     <use xlink:href="#DejaVuSans-73" transform="translate(2640.820312 0)"/>
     <use xlink:href="#DejaVuSans-69" transform="translate(2692.919922 0)"/>
     <use xlink:href="#DejaVuSans-61" transform="translate(2720.703125 0)"/>
     <use xlink:href="#DejaVuSans-2c" transform="translate(2781.982422 0)"/>
     <use xlink:href="#DejaVuSans-20" transform="translate(2813.769531 0)"/>
     <use xlink:href="#DejaVuSans-61" transform="translate(2845.556641 0)"/>
     <use xlink:href="#DejaVuSans-6e" transform="translate(2906.835938 0)"/>
     <use xlink:href="#DejaVuSans-74" transform="translate(2970.214844 0)"/>
     <use xlink:href="#DejaVuSans-69" transform="translate(3009.423828 0)"/>
     <use xlink:href="#DejaVuSans-2d" transform="translate(3037.207031 0)"/>
     <use xlink:href="#DejaVuSans-63" transform="translate(3073.291016 0)"/>
     <use xlink:href="#DejaVuSans-6f" transform="translate(3128.271484 0)"/>
     <use xlink:href="#DejaVuSans-6e" transform="translate(3189.453125 0)"/>
     <use xlink:href="#DejaVuSans-74" transform="translate(3252.832031 0)"/>
     <use xlink:href="#DejaVuSans-65" transform="translate(3292.041016 0)"/>
     <use xlink:href="#DejaVuSans-67" transform="translate(3353.564453 0)"/>
     <use xlink:href="#DejaVuSans-67" transform="translate(3417.041016 0)"/>
     <use xlink:href="#DejaVuSans-69" transform="translate(3480.517578 0)"/>
     <use xlink:href="#DejaVuSans-6f" transform="translate(3508.300781 0)"/>
     <use xlink:href="#DejaVuSans-2e" transform="translate(3567.732422 0)"/>
    </g>
   </g>
   <g id="text_4">
    <!-- Fila 1 -->
    <g style="fill: #1d1d1f" transform="translate(64.96262 339.565473) scale(0.11 -0.11)">
     <defs>
      <path id="DejaVuSans-Bold-46" d="M 588 4666 
L 3834 4666 
L 3834 3756 
L 1791 3756 
L 1791 2888 
L 3713 2888 
L 3713 1978 
L 1791 1978 
L 1791 0 
L 588 0 
L 588 4666 
z
" transform="scale(0.015625)"/>
      <path id="DejaVuSans-Bold-31" d="M 750 831 
L 1813 831 
L 1813 3847 
L 722 3622 
L 722 4441 
L 1806 4666 
L 2950 4666 
L 2950 831 
L 4013 831 
L 4013 0 
L 750 0 
L 750 831 
z
" transform="scale(0.015625)"/>
     </defs>
     <use xlink:href="#DejaVuSans-Bold-46"/>
     <use xlink:href="#DejaVuSans-Bold-69" transform="translate(68.310547 0)"/>
     <use xlink:href="#DejaVuSans-Bold-6c" transform="translate(102.587891 0)"/>
     <use xlink:href="#DejaVuSans-Bold-61" transform="translate(136.865234 0)"/>
     <use xlink:href="#DejaVuSans-Bold-20" transform="translate(204.345703 0)"/>
     <use xlink:href="#DejaVuSans-Bold-31" transform="translate(239.160156 0)"/>
    </g>
   </g>
   <g id="text_5">
    <!-- Fila 2 -->
    <g style="fill: #1d1d1f" transform="translate(64.96262 408.583233) scale(0.11 -0.11)">
     <defs>
      <path id="DejaVuSans-Bold-32" d="M 1844 884 
L 3897 884 
L 3897 0 
L 506 0 
L 506 884 
L 2209 2388 
Q 2438 2594 2547 2791 
Q 2656 2988 2656 3200 
Q 2656 3528 2436 3728 
Q 2216 3928 1850 3928 
Q 1569 3928 1234 3808 
Q 900 3688 519 3450 
L 519 4475 
Q 925 4609 1322 4679 
Q 1719 4750 2100 4750 
Q 2938 4750 3402 4381 
Q 3866 4013 3866 3353 
Q 3866 2972 3669 2642 
Q 3472 2313 2841 1759 
L 1844 884 
z
" transform="scale(0.015625)"/>
     </defs>
     <use xlink:href="#DejaVuSans-Bold-46"/>
     <use xlink:href="#DejaVuSans-Bold-69" transform="translate(68.310547 0)"/>
     <use xlink:href="#DejaVuSans-Bold-6c" transform="translate(102.587891 0)"/>
     <use xlink:href="#DejaVuSans-Bold-61" transform="translate(136.865234 0)"/>
     <use xlink:href="#DejaVuSans-Bold-20" transform="translate(204.345703 0)"/>
     <use xlink:href="#DejaVuSans-Bold-32" transform="translate(239.160156 0)"/>
    </g>
   </g>
   <g id="text_6">
    <g id="patch_23">
     <path d="M 157.746562 516.370185 
L 459.293437 516.370185 
Q 464.093437 516.370185 464.093437 511.570185 
L 464.093437 481.959998 
Q 464.093437 477.159998 459.293437 477.159998 
L 157.746562 477.159998 
Q 152.946562 477.159998 152.946562 481.959998 
L 152.946562 511.570185 
Q 152.946562 516.370185 157.746562 516.370185 
z
" style="fill: #f4f6fb; stroke: #0b3d91; stroke-width: 1.5; stroke-linejoin: miter"/>
    </g>
    <!-- Esempio: 7 + 7 visto sul rekenrek -->
    <g style="fill: #1d1d1f" transform="translate(207.559687 491.078123) scale(0.12 -0.12)">
     <defs>
      <path id="DejaVuSans-45" d="M 628 4666 
L 3578 4666 
L 3578 4134 
L 1259 4134 
L 1259 2753 
L 3481 2753 
L 3481 2222 
L 1259 2222 
L 1259 531 
L 3634 531 
L 3634 0 
L 628 0 
L 628 4666 
z
" transform="scale(0.015625)"/>
      <path id="DejaVuSans-37" d="M 525 4666 
L 3525 4666 
L 3525 4397 
L 1831 0 
L 1172 0 
L 2766 4134 
L 525 4134 
L 525 4666 
z
" transform="scale(0.015625)"/>
      <path id="DejaVuSans-2b" d="M 2944 4013 
L 2944 2272 
L 4684 2272 
L 4684 1741 
L 2944 1741 
L 2944 0 
L 2419 0 
L 2419 1741 
L 678 1741 
L 678 2272 
L 2419 2272 
L 2419 4013 
L 2944 4013 
z
" transform="scale(0.015625)"/>
      <path id="DejaVuSans-6b" d="M 581 4863 
L 1159 4863 
L 1159 1991 
L 2875 3500 
L 3609 3500 
L 1753 1863 
L 3688 0 
L 2938 0 
L 1159 1709 
L 1159 0 
L 581 0 
L 581 4863 
z
" transform="scale(0.015625)"/>
     </defs>
     <use xlink:href="#DejaVuSans-45"/>
     <use xlink:href="#DejaVuSans-73" transform="translate(63.183594 0)"/>
     <use xlink:href="#DejaVuSans-65" transform="translate(115.283203 0)"/>
     <use xlink:href="#DejaVuSans-6d" transform="translate(176.806641 0)"/>
     <use xlink:href="#DejaVuSans-70" transform="translate(274.21875 0)"/>
     <use xlink:href="#DejaVuSans-69" transform="translate(337.695312 0)"/>
     <use xlink:href="#DejaVuSans-6f" transform="translate(365.478516 0)"/>
     <use xlink:href="#DejaVuSans-3a" transform="translate(426.660156 0)"/>
     <use xlink:href="#DejaVuSans-20" transform="translate(460.351562 0)"/>
     <use xlink:href="#DejaVuSans-37" transform="translate(492.138672 0)"/>
     <use xlink:href="#DejaVuSans-20" transform="translate(555.761719 0)"/>
     <use xlink:href="#DejaVuSans-2b" transform="translate(587.548828 0)"/>
     <use xlink:href="#DejaVuSans-20" transform="translate(671.337891 0)"/>
     <use xlink:href="#DejaVuSans-37" transform="translate(703.125 0)"/>
     <use xlink:href="#DejaVuSans-20" transform="translate(766.748047 0)"/>
     <use xlink:href="#DejaVuSans-76" transform="translate(798.535156 0)"/>
     <use xlink:href="#DejaVuSans-69" transform="translate(857.714844 0)"/>
     <use xlink:href="#DejaVuSans-73" transform="translate(885.498047 0)"/>
     <use xlink:href="#DejaVuSans-74" transform="translate(937.597656 0)"/>
     <use xlink:href="#DejaVuSans-6f" transform="translate(976.806641 0)"/>
     <use xlink:href="#DejaVuSans-20" transform="translate(1037.988281 0)"/>
     <use xlink:href="#DejaVuSans-73" transform="translate(1069.775391 0)"/>
     <use xlink:href="#DejaVuSans-75" transform="translate(1121.875 0)"/>
     <use xlink:href="#DejaVuSans-6c" transform="translate(1185.253906 0)"/>
     <use xlink:href="#DejaVuSans-20" transform="translate(1213.037109 0)"/>
     <use xlink:href="#DejaVuSans-72" transform="translate(1244.824219 0)"/>
     <use xlink:href="#DejaVuSans-65" transform="translate(1283.6875 0)"/>
     <use xlink:href="#DejaVuSans-6b" transform="translate(1345.210938 0)"/>
     <use xlink:href="#DejaVuSans-65" transform="translate(1399.496094 0)"/>
     <use xlink:href="#DejaVuSans-6e" transform="translate(1461.019531 0)"/>
     <use xlink:href="#DejaVuSans-72" transform="translate(1524.398438 0)"/>
     <use xlink:href="#DejaVuSans-65" transform="translate(1563.261719 0)"/>
     <use xlink:href="#DejaVuSans-6b" transform="translate(1624.785156 0)"/>
    </g>
    <!-- Ogni fila: 5 rosse + 2 bianche = 7.   Due file = 14. -->
    <g style="fill: #1d1d1f" transform="translate(157.746562 509.07456) scale(0.12 -0.12)">
     <defs>
      <path id="DejaVuSans-4f" d="M 2522 4238 
Q 1834 4238 1429 3725 
Q 1025 3213 1025 2328 
Q 1025 1447 1429 934 
Q 1834 422 2522 422 
Q 3209 422 3611 934 
Q 4013 1447 4013 2328 
Q 4013 3213 3611 3725 
Q 3209 4238 2522 4238 
z
M 2522 4750 
Q 3503 4750 4090 4092 
Q 4678 3434 4678 2328 
Q 4678 1225 4090 567 
Q 3503 -91 2522 -91 
Q 1538 -91 948 565 
Q 359 1222 359 2328 
Q 359 3434 948 4092 
Q 1538 4750 2522 4750 
z
" transform="scale(0.015625)"/>
      <path id="DejaVuSans-3d" d="M 678 2906 
L 4684 2906 
L 4684 2381 
L 678 2381 
L 678 2906 
z
M 678 1631 
L 4684 1631 
L 4684 1100 
L 678 1100 
L 678 1631 
z
" transform="scale(0.015625)"/>
      <path id="DejaVuSans-34" d="M 2419 4116 
L 825 1625 
L 2419 1625 
L 2419 4116 
z
M 2253 4666 
L 3047 4666 
L 3047 1625 
L 3713 1625 
L 3713 1100 
L 3047 1100 
L 3047 0 
L 2419 0 
L 2419 1100 
L 313 1100 
L 313 1709 
L 2253 4666 
z
" transform="scale(0.015625)"/>
     </defs>
     <use xlink:href="#DejaVuSans-4f"/>
     <use xlink:href="#DejaVuSans-67" transform="translate(78.710938 0)"/>
     <use xlink:href="#DejaVuSans-6e" transform="translate(142.1875 0)"/>
     <use xlink:href="#DejaVuSans-69" transform="translate(205.566406 0)"/>
     <use xlink:href="#DejaVuSans-20" transform="translate(233.349609 0)"/>
     <use xlink:href="#DejaVuSans-66" transform="translate(265.136719 0)"/>
     <use xlink:href="#DejaVuSans-69" transform="translate(300.341797 0)"/>
     <use xlink:href="#DejaVuSans-6c" transform="translate(328.125 0)"/>
     <use xlink:href="#DejaVuSans-61" transform="translate(355.908203 0)"/>
     <use xlink:href="#DejaVuSans-3a" transform="translate(417.1875 0)"/>
     <use xlink:href="#DejaVuSans-20" transform="translate(450.878906 0)"/>
     <use xlink:href="#DejaVuSans-35" transform="translate(482.666016 0)"/>
     <use xlink:href="#DejaVuSans-20" transform="translate(546.289062 0)"/>
     <use xlink:href="#DejaVuSans-72" transform="translate(578.076172 0)"/>
     <use xlink:href="#DejaVuSans-6f" transform="translate(616.939453 0)"/>
     <use xlink:href="#DejaVuSans-73" transform="translate(678.121094 0)"/>
     <use xlink:href="#DejaVuSans-73" transform="translate(730.220703 0)"/>
     <use xlink:href="#DejaVuSans-65" transform="translate(782.320312 0)"/>
     <use xlink:href="#DejaVuSans-20" transform="translate(843.84375 0)"/>
     <use xlink:href="#DejaVuSans-2b" transform="translate(875.630859 0)"/>
     <use xlink:href="#DejaVuSans-20" transform="translate(959.419922 0)"/>
     <use xlink:href="#DejaVuSans-32" transform="translate(991.207031 0)"/>
     <use xlink:href="#DejaVuSans-20" transform="translate(1054.830078 0)"/>
     <use xlink:href="#DejaVuSans-62" transform="translate(1086.617188 0)"/>
     <use xlink:href="#DejaVuSans-69" transform="translate(1150.09375 0)"/>
     <use xlink:href="#DejaVuSans-61" transform="translate(1177.876953 0)"/>
     <use xlink:href="#DejaVuSans-6e" transform="translate(1239.15625 0)"/>
     <use xlink:href="#DejaVuSans-63" transform="translate(1302.535156 0)"/>
     <use xlink:href="#DejaVuSans-68" transform="translate(1357.515625 0)"/>
     <use xlink:href="#DejaVuSans-65" transform="translate(1420.894531 0)"/>
     <use xlink:href="#DejaVuSans-20" transform="translate(1482.417969 0)"/>
     <use xlink:href="#DejaVuSans-3d" transform="translate(1514.205078 0)"/>
     <use xlink:href="#DejaVuSans-20" transform="translate(1597.994141 0)"/>
     <use xlink:href="#DejaVuSans-37" transform="translate(1629.78125 0)"/>
     <use xlink:href="#DejaVuSans-2e" transform="translate(1693.404297 0)"/>
     <use xlink:href="#DejaVuSans-20" transform="translate(1725.191406 0)"/>
     <use xlink:href="#DejaVuSans-20" transform="translate(1756.978516 0)"/>
     <use xlink:href="#DejaVuSans-20" transform="translate(1788.765625 0)"/>
     <use xlink:href="#DejaVuSans-44" transform="translate(1820.552734 0)"/>
     <use xlink:href="#DejaVuSans-75" transform="translate(1897.554688 0)"/>
     <use xlink:href="#DejaVuSans-65" transform="translate(1960.933594 0)"/>
     <use xlink:href="#DejaVuSans-20" transform="translate(2022.457031 0)"/>
     <use xlink:href="#DejaVuSans-66" transform="translate(2054.244141 0)"/>
     <use xlink:href="#DejaVuSans-69" transform="translate(2089.449219 0)"/>
     <use xlink:href="#DejaVuSans-6c" transform="translate(2117.232422 0)"/>
     <use xlink:href="#DejaVuSans-65" transform="translate(2145.015625 0)"/>
     <use xlink:href="#DejaVuSans-20" transform="translate(2206.539062 0)"/>
     <use xlink:href="#DejaVuSans-3d" transform="translate(2238.326172 0)"/>
     <use xlink:href="#DejaVuSans-20" transform="translate(2322.115234 0)"/>
     <use xlink:href="#DejaVuSans-31" transform="translate(2353.902344 0)"/>
     <use xlink:href="#DejaVuSans-34" transform="translate(2417.525391 0)"/>
     <use xlink:href="#DejaVuSans-2e" transform="translate(2481.148438 0)"/>
    </g>
   </g>
   <g id="text_7">
    <!-- Costruirlo a casa: 2 stecche di legno o di cartone, 20 perline su filo. -->
    <g style="fill: #6e7781" transform="translate(130.947773 587.318692) scale(0.105 -0.105)">
     <defs>
      <path id="DejaVuSans-Oblique-43" d="M 4447 4306 
L 4319 3641 
Q 4019 3944 3683 4091 
Q 3347 4238 2956 4238 
Q 2422 4238 2017 3981 
Q 1613 3725 1319 3200 
Q 1131 2863 1032 2486 
Q 934 2109 934 1728 
Q 934 1091 1264 756 
Q 1594 422 2222 422 
Q 2656 422 3056 561 
Q 3456 700 3834 978 
L 3688 231 
Q 3316 72 2936 -9 
Q 2556 -91 2175 -91 
Q 1278 -91 773 396 
Q 269 884 269 1753 
Q 269 2309 461 2846 
Q 653 3384 1013 3828 
Q 1394 4300 1883 4525 
Q 2372 4750 3022 4750 
Q 3422 4750 3780 4639 
Q 4138 4528 4447 4306 
z
" transform="scale(0.015625)"/>
      <path id="DejaVuSans-Oblique-69" d="M 1172 4863 
L 1747 4863 
L 1606 4134 
L 1031 4134 
L 1172 4863 
z
M 909 3500 
L 1484 3500 
L 800 0 
L 225 0 
L 909 3500 
z
" transform="scale(0.015625)"/>
      <path id="DejaVuSans-Oblique-63" d="M 3431 3366 
L 3316 2797 
Q 3109 2947 2876 3022 
Q 2644 3097 2394 3097 
Q 2119 3097 1870 3000 
Q 1622 2903 1453 2725 
Q 1184 2453 1037 2087 
Q 891 1722 891 1331 
Q 891 859 1127 628 
Q 1363 397 1844 397 
Q 2081 397 2348 469 
Q 2616 541 2906 684 
L 2797 116 
Q 2547 13 2283 -39 
Q 2019 -91 1741 -91 
Q 1044 -91 669 257 
Q 294 606 294 1253 
Q 294 1797 489 2255 
Q 684 2713 1069 3078 
Q 1331 3328 1684 3456 
Q 2038 3584 2456 3584 
Q 2700 3584 2940 3529 
Q 3181 3475 3431 3366 
z
" transform="scale(0.015625)"/>
      <path id="DejaVuSans-Oblique-3a" d="M 978 3309 
L 1638 3309 
L 1484 2516 
L 825 2516 
L 978 3309 
z
M 488 794 
L 1147 794 
L 991 0 
L 331 0 
L 488 794 
z
" transform="scale(0.015625)"/>
      <path id="DejaVuSans-Oblique-32" d="M 2950 2253 
L 934 525 
L 3163 525 
L 3053 0 
L 25 0 
L 128 531 
L 2234 2338 
Q 2656 2703 2832 2979 
Q 3009 3256 3009 3547 
Q 3009 3850 2796 4040 
Q 2584 4231 2241 4231 
Q 1944 4231 1581 4125 
Q 1219 4019 806 3816 
L 922 4441 
Q 1309 4594 1662 4672 
Q 2016 4750 2316 4750 
Q 2928 4750 3301 4425 
Q 3675 4100 3675 3572 
Q 3675 3216 3497 2892 
Q 3319 2569 2950 2253 
z
" transform="scale(0.015625)"/>
      <path id="DejaVuSans-Oblique-68" d="M 3566 2113 
L 3156 0 
L 2578 0 
L 2988 2091 
Q 3016 2238 3031 2350 
Q 3047 2463 3047 2528 
Q 3047 2791 2881 2937 
Q 2716 3084 2419 3084 
Q 1956 3084 1617 2771 
Q 1278 2459 1178 1941 
L 800 0 
L 225 0 
L 1172 4863 
L 1747 4863 
L 1375 2950 
Q 1594 3244 1934 3414 
Q 2275 3584 2650 3584 
Q 3113 3584 3367 3334 
Q 3622 3084 3622 2631 
Q 3622 2519 3608 2391 
Q 3594 2263 3566 2113 
z
" transform="scale(0.015625)"/>
      <path id="DejaVuSans-Oblique-67" d="M 3816 3500 
L 3219 434 
Q 3047 -456 2561 -893 
Q 2075 -1331 1253 -1331 
Q 950 -1331 690 -1286 
Q 431 -1241 206 -1147 
L 313 -588 
Q 525 -725 762 -790 
Q 1000 -856 1269 -856 
Q 1816 -856 2167 -557 
Q 2519 -259 2631 300 
L 2681 563 
Q 2441 288 2122 144 
Q 1803 0 1434 0 
Q 903 0 598 351 
Q 294 703 294 1319 
Q 294 1803 478 2267 
Q 663 2731 997 3091 
Q 1219 3328 1514 3456 
Q 1809 3584 2131 3584 
Q 2484 3584 2746 3420 
Q 3009 3256 3138 2956 
L 3238 3500 
L 3816 3500 
z
M 2950 2216 
Q 2950 2641 2750 2872 
Q 2550 3103 2181 3103 
Q 1953 3103 1747 3012 
Q 1541 2922 1394 2759 
Q 1156 2491 1023 2127 
Q 891 1763 891 1375 
Q 891 944 1092 712 
Q 1294 481 1672 481 
Q 2219 481 2584 976 
Q 2950 1472 2950 2216 
z
" transform="scale(0.015625)"/>
      <path id="DejaVuSans-Oblique-2c" d="M 575 794 
L 1234 794 
L 1131 256 
L 422 -744 
L 19 -744 
L 469 256 
L 575 794 
z
" transform="scale(0.015625)"/>
      <path id="DejaVuSans-Oblique-70" d="M 3175 2156 
Q 3175 2616 2975 2859 
Q 2775 3103 2400 3103 
Q 2144 3103 1911 2972 
Q 1678 2841 1497 2591 
Q 1319 2344 1212 1994 
Q 1106 1644 1106 1300 
Q 1106 863 1306 627 
Q 1506 391 1875 391 
Q 2147 391 2380 519 
Q 2613 647 2778 891 
Q 2956 1147 3065 1494 
Q 3175 1841 3175 2156 
z
M 1394 2969 
Q 1625 3272 1939 3428 
Q 2253 3584 2638 3584 
Q 3175 3584 3472 3232 
Q 3769 2881 3769 2247 
Q 3769 1728 3584 1258 
Q 3400 788 3053 416 
Q 2822 169 2531 39 
Q 2241 -91 1919 -91 
Q 1547 -91 1294 64 
Q 1041 219 916 525 
L 556 -1331 
L -19 -1331 
L 922 3500 
L 1497 3500 
L 1394 2969 
z
" transform="scale(0.015625)"/>
      <path id="DejaVuSans-Oblique-66" d="M 3059 4863 
L 2969 4384 
L 2419 4384 
Q 2106 4384 1964 4261 
Q 1822 4138 1753 3809 
L 1691 3500 
L 2638 3500 
L 2553 3053 
L 1606 3053 
L 1013 0 
L 434 0 
L 1031 3053 
L 481 3053 
L 563 3500 
L 1113 3500 
L 1159 3744 
Q 1278 4363 1576 4613 
Q 1875 4863 2516 4863 
L 3059 4863 
z
" transform="scale(0.015625)"/>
      <path id="DejaVuSans-Oblique-2e" d="M 525 794 
L 1184 794 
L 1031 0 
L 372 0 
L 525 794 
z
" transform="scale(0.015625)"/>
     </defs>
     <use xlink:href="#DejaVuSans-Oblique-43"/>
     <use xlink:href="#DejaVuSans-Oblique-6f" transform="translate(69.824219 0)"/>
     <use xlink:href="#DejaVuSans-Oblique-73" transform="translate(131.005859 0)"/>
     <use xlink:href="#DejaVuSans-Oblique-74" transform="translate(183.105469 0)"/>
     <use xlink:href="#DejaVuSans-Oblique-72" transform="translate(222.314453 0)"/>
     <use xlink:href="#DejaVuSans-Oblique-75" transform="translate(263.427734 0)"/>
     <use xlink:href="#DejaVuSans-Oblique-69" transform="translate(326.806641 0)"/>
     <use xlink:href="#DejaVuSans-Oblique-72" transform="translate(354.589844 0)"/>
     <use xlink:href="#DejaVuSans-Oblique-6c" transform="translate(395.703125 0)"/>
     <use xlink:href="#DejaVuSans-Oblique-6f" transform="translate(423.486328 0)"/>
     <use xlink:href="#DejaVuSans-Oblique-20" transform="translate(484.667969 0)"/>
     <use xlink:href="#DejaVuSans-Oblique-61" transform="translate(516.455078 0)"/>
     <use xlink:href="#DejaVuSans-Oblique-20" transform="translate(577.734375 0)"/>
     <use xlink:href="#DejaVuSans-Oblique-63" transform="translate(609.521484 0)"/>
     <use xlink:href="#DejaVuSans-Oblique-61" transform="translate(664.501953 0)"/>
     <use xlink:href="#DejaVuSans-Oblique-73" transform="translate(725.78125 0)"/>
     <use xlink:href="#DejaVuSans-Oblique-61" transform="translate(777.880859 0)"/>
     <use xlink:href="#DejaVuSans-Oblique-3a" transform="translate(839.160156 0)"/>
     <use xlink:href="#DejaVuSans-Oblique-20" transform="translate(872.851562 0)"/>
     <use xlink:href="#DejaVuSans-Oblique-32" transform="translate(904.638672 0)"/>
     <use xlink:href="#DejaVuSans-Oblique-20" transform="translate(968.261719 0)"/>
     <use xlink:href="#DejaVuSans-Oblique-73" transform="translate(1000.048828 0)"/>
     <use xlink:href="#DejaVuSans-Oblique-74" transform="translate(1052.148438 0)"/>
     <use xlink:href="#DejaVuSans-Oblique-65" transform="translate(1091.357422 0)"/>
     <use xlink:href="#DejaVuSans-Oblique-63" transform="translate(1152.880859 0)"/>
     <use xlink:href="#DejaVuSans-Oblique-63" transform="translate(1207.861328 0)"/>
     <use xlink:href="#DejaVuSans-Oblique-68" transform="translate(1262.841797 0)"/>
     <use xlink:href="#DejaVuSans-Oblique-65" transform="translate(1326.220703 0)"/>
     <use xlink:href="#DejaVuSans-Oblique-20" transform="translate(1387.744141 0)"/>
     <use xlink:href="#DejaVuSans-Oblique-64" transform="translate(1419.53125 0)"/>
     <use xlink:href="#DejaVuSans-Oblique-69" transform="translate(1483.007812 0)"/>
     <use xlink:href="#DejaVuSans-Oblique-20" transform="translate(1510.791016 0)"/>
     <use xlink:href="#DejaVuSans-Oblique-6c" transform="translate(1542.578125 0)"/>
     <use xlink:href="#DejaVuSans-Oblique-65" transform="translate(1570.361328 0)"/>
     <use xlink:href="#DejaVuSans-Oblique-67" transform="translate(1631.884766 0)"/>
     <use xlink:href="#DejaVuSans-Oblique-6e" transform="translate(1695.361328 0)"/>
     <use xlink:href="#DejaVuSans-Oblique-6f" transform="translate(1758.740234 0)"/>
     <use xlink:href="#DejaVuSans-Oblique-20" transform="translate(1819.921875 0)"/>
     <use xlink:href="#DejaVuSans-Oblique-6f" transform="translate(1851.708984 0)"/>
     <use xlink:href="#DejaVuSans-Oblique-20" transform="translate(1912.890625 0)"/>
     <use xlink:href="#DejaVuSans-Oblique-64" transform="translate(1944.677734 0)"/>
     <use xlink:href="#DejaVuSans-Oblique-69" transform="translate(2008.154297 0)"/>
     <use xlink:href="#DejaVuSans-Oblique-20" transform="translate(2035.9375 0)"/>
     <use xlink:href="#DejaVuSans-Oblique-63" transform="translate(2067.724609 0)"/>
     <use xlink:href="#DejaVuSans-Oblique-61" transform="translate(2122.705078 0)"/>
     <use xlink:href="#DejaVuSans-Oblique-72" transform="translate(2183.984375 0)"/>
     <use xlink:href="#DejaVuSans-Oblique-74" transform="translate(2225.097656 0)"/>
     <use xlink:href="#DejaVuSans-Oblique-6f" transform="translate(2264.306641 0)"/>
     <use xlink:href="#DejaVuSans-Oblique-6e" transform="translate(2325.488281 0)"/>
     <use xlink:href="#DejaVuSans-Oblique-65" transform="translate(2388.867188 0)"/>
     <use xlink:href="#DejaVuSans-Oblique-2c" transform="translate(2450.390625 0)"/>
     <use xlink:href="#DejaVuSans-Oblique-20" transform="translate(2482.177734 0)"/>
     <use xlink:href="#DejaVuSans-Oblique-32" transform="translate(2513.964844 0)"/>
     <use xlink:href="#DejaVuSans-Oblique-30" transform="translate(2577.587891 0)"/>
     <use xlink:href="#DejaVuSans-Oblique-20" transform="translate(2641.210938 0)"/>
     <use xlink:href="#DejaVuSans-Oblique-70" transform="translate(2672.998047 0)"/>
     <use xlink:href="#DejaVuSans-Oblique-65" transform="translate(2736.474609 0)"/>
     <use xlink:href="#DejaVuSans-Oblique-72" transform="translate(2797.998047 0)"/>
     <use xlink:href="#DejaVuSans-Oblique-6c" transform="translate(2839.111328 0)"/>
     <use xlink:href="#DejaVuSans-Oblique-69" transform="translate(2866.894531 0)"/>
     <use xlink:href="#DejaVuSans-Oblique-6e" transform="translate(2894.677734 0)"/>
     <use xlink:href="#DejaVuSans-Oblique-65" transform="translate(2958.056641 0)"/>
     <use xlink:href="#DejaVuSans-Oblique-20" transform="translate(3019.580078 0)"/>
     <use xlink:href="#DejaVuSans-Oblique-73" transform="translate(3051.367188 0)"/>
     <use xlink:href="#DejaVuSans-Oblique-75" transform="translate(3103.466797 0)"/>
     <use xlink:href="#DejaVuSans-Oblique-20" transform="translate(3166.845703 0)"/>
     <use xlink:href="#DejaVuSans-Oblique-66" transform="translate(3198.632812 0)"/>
     <use xlink:href="#DejaVuSans-Oblique-69" transform="translate(3233.837891 0)"/>
     <use xlink:href="#DejaVuSans-Oblique-6c" transform="translate(3261.621094 0)"/>
     <use xlink:href="#DejaVuSans-Oblique-6f" transform="translate(3289.404297 0)"/>
     <use xlink:href="#DejaVuSans-Oblique-2e" transform="translate(3350.585938 0)"/>
    </g>
    <!-- 5 di un colore + 5 di un altro per fila. Bastano 10 minuti. -->
    <g style="fill: #6e7781" transform="translate(159.76043 602.267739) scale(0.105 -0.105)">
     <defs>
      <path id="DejaVuSans-Oblique-2b" d="M 2944 4013 
L 2944 2272 
L 4684 2272 
L 4684 1741 
L 2944 1741 
L 2944 0 
L 2419 0 
L 2419 1741 
L 678 1741 
L 678 2272 
L 2419 2272 
L 2419 4013 
L 2944 4013 
z
" transform="scale(0.015625)"/>
      <path id="DejaVuSans-Oblique-42" d="M 1081 4666 
L 2694 4666 
Q 3350 4666 3675 4422 
Q 4000 4178 4000 3688 
Q 4000 3238 3720 2911 
Q 3441 2584 2988 2516 
Q 3375 2428 3569 2181 
Q 3763 1934 3763 1522 
Q 3763 819 3242 409 
Q 2722 0 1819 0 
L 172 0 
L 1081 4666 
z
M 1234 2228 
L 903 519 
L 1919 519 
Q 2491 519 2800 781 
Q 3109 1044 3109 1522 
Q 3109 1891 2904 2059 
Q 2700 2228 2247 2228 
L 1234 2228 
z
M 1606 4147 
L 1331 2741 
L 2272 2741 
Q 2775 2741 3058 2959 
Q 3341 3178 3341 3566 
Q 3341 3869 3150 4008 
Q 2959 4147 2541 4147 
L 1606 4147 
z
" transform="scale(0.015625)"/>
     </defs>
     <use xlink:href="#DejaVuSans-Oblique-35"/>
     <use xlink:href="#DejaVuSans-Oblique-20" transform="translate(63.623047 0)"/>
     <use xlink:href="#DejaVuSans-Oblique-64" transform="translate(95.410156 0)"/>
     <use xlink:href="#DejaVuSans-Oblique-69" transform="translate(158.886719 0)"/>
     <use xlink:href="#DejaVuSans-Oblique-20" transform="translate(186.669922 0)"/>
     <use xlink:href="#DejaVuSans-Oblique-75" transform="translate(218.457031 0)"/>
     <use xlink:href="#DejaVuSans-Oblique-6e" transform="translate(281.835938 0)"/>
     <use xlink:href="#DejaVuSans-Oblique-20" transform="translate(345.214844 0)"/>
     <use xlink:href="#DejaVuSans-Oblique-63" transform="translate(377.001953 0)"/>
     <use xlink:href="#DejaVuSans-Oblique-6f" transform="translate(431.982422 0)"/>
     <use xlink:href="#DejaVuSans-Oblique-6c" transform="translate(493.164062 0)"/>
     <use xlink:href="#DejaVuSans-Oblique-6f" transform="translate(520.947266 0)"/>
     <use xlink:href="#DejaVuSans-Oblique-72" transform="translate(582.128906 0)"/>
     <use xlink:href="#DejaVuSans-Oblique-65" transform="translate(623.242188 0)"/>
     <use xlink:href="#DejaVuSans-Oblique-20" transform="translate(684.765625 0)"/>
     <use xlink:href="#DejaVuSans-Oblique-2b" transform="translate(716.552734 0)"/>
     <use xlink:href="#DejaVuSans-Oblique-20" transform="translate(800.341797 0)"/>
     <use xlink:href="#DejaVuSans-Oblique-35" transform="translate(832.128906 0)"/>
     <use xlink:href="#DejaVuSans-Oblique-20" transform="translate(895.751953 0)"/>
     <use xlink:href="#DejaVuSans-Oblique-64" transform="translate(927.539062 0)"/>
     <use xlink:href="#DejaVuSans-Oblique-69" transform="translate(991.015625 0)"/>
     <use xlink:href="#DejaVuSans-Oblique-20" transform="translate(1018.798828 0)"/>
     <use xlink:href="#DejaVuSans-Oblique-75" transform="translate(1050.585938 0)"/>
     <use xlink:href="#DejaVuSans-Oblique-6e" transform="translate(1113.964844 0)"/>
     <use xlink:href="#DejaVuSans-Oblique-20" transform="translate(1177.34375 0)"/>
     <use xlink:href="#DejaVuSans-Oblique-61" transform="translate(1209.130859 0)"/>
     <use xlink:href="#DejaVuSans-Oblique-6c" transform="translate(1270.410156 0)"/>
     <use xlink:href="#DejaVuSans-Oblique-74" transform="translate(1298.193359 0)"/>
     <use xlink:href="#DejaVuSans-Oblique-72" transform="translate(1337.402344 0)"/>
     <use xlink:href="#DejaVuSans-Oblique-6f" transform="translate(1378.515625 0)"/>
     <use xlink:href="#DejaVuSans-Oblique-20" transform="translate(1439.697266 0)"/>
     <use xlink:href="#DejaVuSans-Oblique-70" transform="translate(1471.484375 0)"/>
     <use xlink:href="#DejaVuSans-Oblique-65" transform="translate(1534.960938 0)"/>
     <use xlink:href="#DejaVuSans-Oblique-72" transform="translate(1596.484375 0)"/>
     <use xlink:href="#DejaVuSans-Oblique-20" transform="translate(1637.597656 0)"/>
     <use xlink:href="#DejaVuSans-Oblique-66" transform="translate(1669.384766 0)"/>
     <use xlink:href="#DejaVuSans-Oblique-69" transform="translate(1704.589844 0)"/>
     <use xlink:href="#DejaVuSans-Oblique-6c" transform="translate(1732.373047 0)"/>
     <use xlink:href="#DejaVuSans-Oblique-61" transform="translate(1760.15625 0)"/>
     <use xlink:href="#DejaVuSans-Oblique-2e" transform="translate(1821.435547 0)"/>
     <use xlink:href="#DejaVuSans-Oblique-20" transform="translate(1853.222656 0)"/>
     <use xlink:href="#DejaVuSans-Oblique-42" transform="translate(1885.009766 0)"/>
     <use xlink:href="#DejaVuSans-Oblique-61" transform="translate(1953.613281 0)"/>
     <use xlink:href="#DejaVuSans-Oblique-73" transform="translate(2014.892578 0)"/>
     <use xlink:href="#DejaVuSans-Oblique-74" transform="translate(2066.992188 0)"/>
     <use xlink:href="#DejaVuSans-Oblique-61" transform="translate(2106.201172 0)"/>
     <use xlink:href="#DejaVuSans-Oblique-6e" transform="translate(2167.480469 0)"/>
     <use xlink:href="#DejaVuSans-Oblique-6f" transform="translate(2230.859375 0)"/>
     <use xlink:href="#DejaVuSans-Oblique-20" transform="translate(2292.041016 0)"/>
     <use xlink:href="#DejaVuSans-Oblique-31" transform="translate(2323.828125 0)"/>
     <use xlink:href="#DejaVuSans-Oblique-30" transform="translate(2387.451172 0)"/>
     <use xlink:href="#DejaVuSans-Oblique-20" transform="translate(2451.074219 0)"/>
     <use xlink:href="#DejaVuSans-Oblique-6d" transform="translate(2482.861328 0)"/>
     <use xlink:href="#DejaVuSans-Oblique-69" transform="translate(2580.273438 0)"/>
     <use xlink:href="#DejaVuSans-Oblique-6e" transform="translate(2608.056641 0)"/>
     <use xlink:href="#DejaVuSans-Oblique-75" transform="translate(2671.435547 0)"/>
     <use xlink:href="#DejaVuSans-Oblique-74" transform="translate(2734.814453 0)"/>
     <use xlink:href="#DejaVuSans-Oblique-69" transform="translate(2774.023438 0)"/>
     <use xlink:href="#DejaVuSans-Oblique-2e" transform="translate(2801.806641 0)"/>
    </g>
   </g>
  </g>
 </g>
 <defs>
  <clipPath id="pb3a084e432">
   <rect x="46.5264" y="94.968" width="523.9872" height="690.1776"/>
  </clipPath>
 </defs>
</svg>
