<?xml version="1.0" encoding="utf-8" standalone="no"?>
<!DOCTYPE svg PUBLIC "-//W3C//DTD SVG 1.1//EN"
  "http://www.w3.org/Graphics/SVG/1.1/DTD/svg11.dtd">
<svg xmlns:xlink="http://www.w3.org/1999/xlink" width="617.04pt" height="795.9456pt" viewBox="0 0 617.04 795.9456" xmlns="http://www.w3.org/2000/svg" version="1.1">
 <metadata>
  <rdf:RDF xmlns:dc="http://purl.org/dc/elements/1.1/" xmlns:cc="http://creativecommons.org/ns#" xmlns:rdf="http://www.w3.org/1999/02/22-rdf-syntax-ns#">
   <cc:Work>
    <dc:type rdf:resource="http://purl.org/dc/dcmitype/StillImage"/>
    <dc:date>2026-05-18T18:02:24.949310</dc:date>
    <dc:format>image/svg+xml</dc:format>
    <dc:creator>
     <cc:Agent>
      <dc:title>Matplotlib v3.10.9, https://matplotlib.org/</dc:title>
     </cc:Agent>
    </dc:creator>
   </cc:Work>
  </rdf:RDF>
 </metadata>
 <defs>
  <style type="text/css">*{stroke-linejoin: round; stroke-linecap: butt}</style>
 </defs>
 <g id="figure_1">
  <g id="patch_1">
   <path d="M -0 795.9456 
L 617.04 795.9456 
L 617.04 -0 
L -0 -0 
z
" style="fill: #ffffff"/>
  </g>
  <g id="axes_1">
   <g id="text_1">
    <!-- Truc du 9 — La table complète -->
    <g style="fill: #0b3d91" transform="translate(138.530937 43.23167) scale(0.2 -0.2)">
     <defs>
      <path id="DejaVuSans-Bold-54" d="M 31 4666 
L 4331 4666 
L 4331 3756 
L 2784 3756 
L 2784 0 
L 1581 0 
L 1581 3756 
L 31 3756 
L 31 4666 
z
" transform="scale(0.015625)"/>
      <path id="DejaVuSans-Bold-72" d="M 3138 2547 
Q 2991 2616 2845 2648 
Q 2700 2681 2553 2681 
Q 2122 2681 1889 2404 
Q 1656 2128 1656 1613 
L 1656 0 
L 538 0 
L 538 3500 
L 1656 3500 
L 1656 2925 
Q 1872 3269 2151 3426 
Q 2431 3584 2822 3584 
Q 2878 3584 2943 3579 
Q 3009 3575 3134 3559 
L 3138 2547 
z
" transform="scale(0.015625)"/>
      <path id="DejaVuSans-Bold-75" d="M 500 1363 
L 500 3500 
L 1625 3500 
L 1625 3150 
Q 1625 2866 1622 2436 
Q 1619 2006 1619 1863 
Q 1619 1441 1641 1255 
Q 1663 1069 1716 984 
Q 1784 875 1895 815 
Q 2006 756 2150 756 
Q 2500 756 2700 1025 
Q 2900 1294 2900 1772 
L 2900 3500 
L 4019 3500 
L 4019 0 
L 2900 0 
L 2900 506 
Q 2647 200 2364 54 
Q 2081 -91 1741 -91 
Q 1134 -91 817 281 
Q 500 653 500 1363 
z
" transform="scale(0.015625)"/>
      <path id="DejaVuSans-Bold-63" d="M 3366 3391 
L 3366 2478 
Q 3138 2634 2908 2709 
Q 2678 2784 2431 2784 
Q 1963 2784 1702 2511 
Q 1441 2238 1441 1747 
Q 1441 1256 1702 982 
Q 1963 709 2431 709 
Q 2694 709 2930 787 
Q 3166 866 3366 1019 
L 3366 103 
Q 3103 6 2833 -42 
Q 2563 -91 2291 -91 
Q 1344 -91 809 395 
Q 275 881 275 1747 
Q 275 2613 809 3098 
Q 1344 3584 2291 3584 
Q 2566 3584 2833 3536 
Q 3100 3488 3366 3391 
z
" transform="scale(0.015625)"/>
      <path id="DejaVuSans-Bold-20" transform="scale(0.015625)"/>
      <path id="DejaVuSans-Bold-64" d="M 2919 2988 
L 2919 4863 
L 4044 4863 
L 4044 0 
L 2919 0 
L 2919 506 
Q 2688 197 2409 53 
Q 2131 -91 1766 -91 
Q 1119 -91 703 423 
Q 288 938 288 1747 
Q 288 2556 703 3070 
Q 1119 3584 1766 3584 
Q 2128 3584 2408 3439 
Q 2688 3294 2919 2988 
z
M 2181 722 
Q 2541 722 2730 984 
Q 2919 1247 2919 1747 
Q 2919 2247 2730 2509 
Q 2541 2772 2181 2772 
Q 1825 2772 1636 2509 
Q 1447 2247 1447 1747 
Q 1447 1247 1636 984 
Q 1825 722 2181 722 
z
" transform="scale(0.015625)"/>
      <path id="DejaVuSans-Bold-39" d="M 641 103 
L 641 966 
Q 928 831 1190 764 
Q 1453 697 1709 697 
Q 2247 697 2547 995 
Q 2847 1294 2900 1881 
Q 2688 1725 2447 1647 
Q 2206 1569 1925 1569 
Q 1209 1569 770 1986 
Q 331 2403 331 3084 
Q 331 3838 820 4291 
Q 1309 4744 2131 4744 
Q 3044 4744 3544 4128 
Q 4044 3513 4044 2388 
Q 4044 1231 3459 570 
Q 2875 -91 1856 -91 
Q 1528 -91 1228 -42 
Q 928 6 641 103 
z
M 2125 2350 
Q 2441 2350 2600 2554 
Q 2759 2759 2759 3169 
Q 2759 3575 2600 3781 
Q 2441 3988 2125 3988 
Q 1809 3988 1650 3781 
Q 1491 3575 1491 3169 
Q 1491 2759 1650 2554 
Q 1809 2350 2125 2350 
z
" transform="scale(0.015625)"/>
      <path id="DejaVuSans-Bold-2014" d="M 344 2156 
L 6056 2156 
L 6056 1350 
L 344 1350 
L 344 2156 
z
" transform="scale(0.015625)"/>
      <path id="DejaVuSans-Bold-4c" d="M 588 4666 
L 1791 4666 
L 1791 909 
L 3903 909 
L 3903 0 
L 588 0 
L 588 4666 
z
" transform="scale(0.015625)"/>
      <path id="DejaVuSans-Bold-61" d="M 2106 1575 
Q 1756 1575 1579 1456 
Q 1403 1338 1403 1106 
Q 1403 894 1545 773 
Q 1688 653 1941 653 
Q 2256 653 2472 879 
Q 2688 1106 2688 1447 
L 2688 1575 
L 2106 1575 
z
M 3816 1997 
L 3816 0 
L 2688 0 
L 2688 519 
Q 2463 200 2181 54 
Q 1900 -91 1497 -91 
Q 953 -91 614 226 
Q 275 544 275 1050 
Q 275 1666 698 1953 
Q 1122 2241 2028 2241 
L 2688 2241 
L 2688 2328 
Q 2688 2594 2478 2717 
Q 2269 2841 1825 2841 
Q 1466 2841 1156 2769 
Q 847 2697 581 2553 
L 581 3406 
Q 941 3494 1303 3539 
Q 1666 3584 2028 3584 
Q 2975 3584 3395 3211 
Q 3816 2838 3816 1997 
z
" transform="scale(0.015625)"/>
      <path id="DejaVuSans-Bold-74" d="M 1759 4494 
L 1759 3500 
L 2913 3500 
L 2913 2700 
L 1759 2700 
L 1759 1216 
Q 1759 972 1856 886 
Q 1953 800 2241 800 
L 2816 800 
L 2816 0 
L 1856 0 
Q 1194 0 917 276 
Q 641 553 641 1216 
L 641 2700 
L 84 2700 
L 84 3500 
L 641 3500 
L 641 4494 
L 1759 4494 
z
" transform="scale(0.015625)"/>
      <path id="DejaVuSans-Bold-62" d="M 2400 722 
Q 2759 722 2948 984 
Q 3138 1247 3138 1747 
Q 3138 2247 2948 2509 
Q 2759 2772 2400 2772 
Q 2041 2772 1848 2508 
Q 1656 2244 1656 1747 
Q 1656 1250 1848 986 
Q 2041 722 2400 722 
z
M 1656 2988 
Q 1888 3294 2169 3439 
Q 2450 3584 2816 3584 
Q 3463 3584 3878 3070 
Q 4294 2556 4294 1747 
Q 4294 938 3878 423 
Q 3463 -91 2816 -91 
Q 2450 -91 2169 54 
Q 1888 200 1656 506 
L 1656 0 
L 538 0 
L 538 4863 
L 1656 4863 
L 1656 2988 
z
" transform="scale(0.015625)"/>
      <path id="DejaVuSans-Bold-6c" d="M 538 4863 
L 1656 4863 
L 1656 0 
L 538 0 
L 538 4863 
z
" transform="scale(0.015625)"/>
      <path id="DejaVuSans-Bold-65" d="M 4031 1759 
L 4031 1441 
L 1416 1441 
Q 1456 1047 1700 850 
Q 1944 653 2381 653 
Q 2734 653 3104 758 
Q 3475 863 3866 1075 
L 3866 213 
Q 3469 63 3072 -14 
Q 2675 -91 2278 -91 
Q 1328 -91 801 392 
Q 275 875 275 1747 
Q 275 2603 792 3093 
Q 1309 3584 2216 3584 
Q 3041 3584 3536 3087 
Q 4031 2591 4031 1759 
z
M 2881 2131 
Q 2881 2450 2695 2645 
Q 2509 2841 2209 2841 
Q 1884 2841 1681 2658 
Q 1478 2475 1428 2131 
L 2881 2131 
z
" transform="scale(0.015625)"/>
      <path id="DejaVuSans-Bold-6f" d="M 2203 2784 
Q 1831 2784 1636 2517 
Q 1441 2250 1441 1747 
Q 1441 1244 1636 976 
Q 1831 709 2203 709 
Q 2569 709 2762 976 
Q 2956 1244 2956 1747 
Q 2956 2250 2762 2517 
Q 2569 2784 2203 2784 
z
M 2203 3584 
Q 3106 3584 3614 3096 
Q 4122 2609 4122 1747 
Q 4122 884 3614 396 
Q 3106 -91 2203 -91 
Q 1297 -91 786 396 
Q 275 884 275 1747 
Q 275 2609 786 3096 
Q 1297 3584 2203 3584 
z
" transform="scale(0.015625)"/>
      <path id="DejaVuSans-Bold-6d" d="M 3781 2919 
Q 3994 3244 4286 3414 
Q 4578 3584 4928 3584 
Q 5531 3584 5847 3212 
Q 6163 2841 6163 2131 
L 6163 0 
L 5038 0 
L 5038 1825 
Q 5041 1866 5042 1909 
Q 5044 1953 5044 2034 
Q 5044 2406 4934 2573 
Q 4825 2741 4581 2741 
Q 4263 2741 4089 2478 
Q 3916 2216 3909 1719 
L 3909 0 
L 2784 0 
L 2784 1825 
Q 2784 2406 2684 2573 
Q 2584 2741 2328 2741 
Q 2006 2741 1831 2477 
Q 1656 2213 1656 1722 
L 1656 0 
L 531 0 
L 531 3500 
L 1656 3500 
L 1656 2988 
Q 1863 3284 2130 3434 
Q 2397 3584 2719 3584 
Q 3081 3584 3359 3409 
Q 3638 3234 3781 2919 
z
" transform="scale(0.015625)"/>
      <path id="DejaVuSans-Bold-70" d="M 1656 506 
L 1656 -1331 
L 538 -1331 
L 538 3500 
L 1656 3500 
L 1656 2988 
Q 1888 3294 2169 3439 
Q 2450 3584 2816 3584 
Q 3463 3584 3878 3070 
Q 4294 2556 4294 1747 
Q 4294 938 3878 423 
Q 3463 -91 2816 -91 
Q 2450 -91 2169 54 
Q 1888 200 1656 506 
z
M 2400 2772 
Q 2041 2772 1848 2508 
Q 1656 2244 1656 1747 
Q 1656 1250 1848 986 
Q 2041 722 2400 722 
Q 2759 722 2948 984 
Q 3138 1247 3138 1747 
Q 3138 2247 2948 2509 
Q 2759 2772 2400 2772 
z
" transform="scale(0.015625)"/>
      <path id="DejaVuSans-Bold-e8" d="M 4031 1759 
L 4031 1441 
L 1416 1441 
Q 1456 1047 1700 850 
Q 1944 653 2381 653 
Q 2734 653 3104 758 
Q 3475 863 3866 1075 
L 3866 213 
Q 3469 63 3072 -14 
Q 2675 -91 2278 -91 
Q 1328 -91 801 392 
Q 275 875 275 1747 
Q 275 2603 792 3093 
Q 1309 3584 2216 3584 
Q 3041 3584 3536 3087 
Q 4031 2591 4031 1759 
z
M 2881 2131 
Q 2881 2450 2695 2645 
Q 2509 2841 2209 2841 
Q 1884 2841 1681 2658 
Q 1478 2475 1428 2131 
L 2881 2131 
z
M 1858 5119 
L 2739 3944 
L 2127 3944 
L 974 5119 
L 1858 5119 
z
" transform="scale(0.015625)"/>
     </defs>
     <use xlink:href="#DejaVuSans-Bold-54"/>
     <use xlink:href="#DejaVuSans-Bold-72" transform="translate(57.212891 0)"/>
     <use xlink:href="#DejaVuSans-Bold-75" transform="translate(106.529297 0)"/>
     <use xlink:href="#DejaVuSans-Bold-63" transform="translate(177.720703 0)"/>
     <use xlink:href="#DejaVuSans-Bold-20" transform="translate(236.998047 0)"/>
     <use xlink:href="#DejaVuSans-Bold-64" transform="translate(271.8125 0)"/>
     <use xlink:href="#DejaVuSans-Bold-75" transform="translate(343.394531 0)"/>
     <use xlink:href="#DejaVuSans-Bold-20" transform="translate(414.585938 0)"/>
     <use xlink:href="#DejaVuSans-Bold-39" transform="translate(449.400391 0)"/>
     <use xlink:href="#DejaVuSans-Bold-20" transform="translate(518.980469 0)"/>
     <use xlink:href="#DejaVuSans-Bold-2014" transform="translate(553.794922 0)"/>
     <use xlink:href="#DejaVuSans-Bold-20" transform="translate(653.794922 0)"/>
     <use xlink:href="#DejaVuSans-Bold-4c" transform="translate(688.609375 0)"/>
     <use xlink:href="#DejaVuSans-Bold-61" transform="translate(752.330078 0)"/>
     <use xlink:href="#DejaVuSans-Bold-20" transform="translate(819.810547 0)"/>
     <use xlink:href="#DejaVuSans-Bold-74" transform="translate(854.625 0)"/>
     <use xlink:href="#DejaVuSans-Bold-61" transform="translate(902.427734 0)"/>
     <use xlink:href="#DejaVuSans-Bold-62" transform="translate(969.908203 0)"/>
     <use xlink:href="#DejaVuSans-Bold-6c" transform="translate(1041.490234 0)"/>
     <use xlink:href="#DejaVuSans-Bold-65" transform="translate(1075.767578 0)"/>
     <use xlink:href="#DejaVuSans-Bold-20" transform="translate(1143.589844 0)"/>
     <use xlink:href="#DejaVuSans-Bold-63" transform="translate(1178.404297 0)"/>
     <use xlink:href="#DejaVuSans-Bold-6f" transform="translate(1237.681641 0)"/>
     <use xlink:href="#DejaVuSans-Bold-6d" transform="translate(1306.382812 0)"/>
     <use xlink:href="#DejaVuSans-Bold-70" transform="translate(1410.582031 0)"/>
     <use xlink:href="#DejaVuSans-Bold-6c" transform="translate(1482.164062 0)"/>
     <use xlink:href="#DejaVuSans-Bold-e8" transform="translate(1516.441406 0)"/>
     <use xlink:href="#DejaVuSans-Bold-74" transform="translate(1584.263672 0)"/>
     <use xlink:href="#DejaVuSans-Bold-65" transform="translate(1632.066406 0)"/>
    </g>
   </g>
   <g id="text_2">
    <!-- Rien à mémoriser ! -->
    <g style="fill: #6e7781" transform="translate(255.717422 69.807033) scale(0.11 -0.11)">
     <defs>
      <path id="DejaVuSans-Oblique-52" d="M 1613 4147 
L 1294 2491 
L 2106 2491 
Q 2584 2491 2879 2755 
Q 3175 3019 3175 3444 
Q 3175 3784 2976 3965 
Q 2778 4147 2406 4147 
L 1613 4147 
z
M 2772 2241 
Q 2972 2194 3105 2009 
Q 3238 1825 3413 1275 
L 3809 0 
L 3144 0 
L 2778 1197 
Q 2638 1659 2453 1815 
Q 2269 1972 1888 1972 
L 1191 1972 
L 806 0 
L 172 0 
L 1081 4666 
L 2503 4666 
Q 3150 4666 3495 4373 
Q 3841 4081 3841 3531 
Q 3841 3044 3547 2687 
Q 3253 2331 2772 2241 
z
" transform="scale(0.015625)"/>
      <path id="DejaVuSans-Oblique-69" d="M 1172 4863 
L 1747 4863 
L 1606 4134 
L 1031 4134 
L 1172 4863 
z
M 909 3500 
L 1484 3500 
L 800 0 
L 225 0 
L 909 3500 
z
" transform="scale(0.015625)"/>
      <path id="DejaVuSans-Oblique-65" d="M 3078 2063 
Q 3088 2113 3092 2166 
Q 3097 2219 3097 2272 
Q 3097 2653 2873 2875 
Q 2650 3097 2266 3097 
Q 1838 3097 1509 2826 
Q 1181 2556 1013 2059 
L 3078 2063 
z
M 3578 1613 
L 903 1613 
Q 884 1494 878 1425 
Q 872 1356 872 1306 
Q 872 872 1139 634 
Q 1406 397 1894 397 
Q 2269 397 2603 481 
Q 2938 566 3225 728 
L 3116 159 
Q 2806 34 2476 -28 
Q 2147 -91 1806 -91 
Q 1078 -91 686 257 
Q 294 606 294 1247 
Q 294 1794 489 2264 
Q 684 2734 1063 3103 
Q 1306 3334 1642 3459 
Q 1978 3584 2356 3584 
Q 2950 3584 3301 3228 
Q 3653 2872 3653 2272 
Q 3653 2128 3634 1964 
Q 3616 1800 3578 1613 
z
" transform="scale(0.015625)"/>
      <path id="DejaVuSans-Oblique-6e" d="M 3566 2113 
L 3156 0 
L 2578 0 
L 2988 2091 
Q 3016 2238 3031 2350 
Q 3047 2463 3047 2528 
Q 3047 2791 2881 2937 
Q 2716 3084 2419 3084 
Q 1956 3084 1622 2776 
Q 1288 2469 1184 1941 
L 800 0 
L 225 0 
L 903 3500 
L 1478 3500 
L 1363 2950 
Q 1603 3253 1940 3418 
Q 2278 3584 2650 3584 
Q 3113 3584 3367 3334 
Q 3622 3084 3622 2631 
Q 3622 2519 3608 2391 
Q 3594 2263 3566 2113 
z
" transform="scale(0.015625)"/>
      <path id="DejaVuSans-Oblique-20" transform="scale(0.015625)"/>
      <path id="DejaVuSans-Oblique-e0" d="M 3438 1997 
L 3047 0 
L 2472 0 
L 2578 531 
Q 2325 219 2001 64 
Q 1678 -91 1281 -91 
Q 834 -91 548 182 
Q 263 456 263 884 
Q 263 1497 752 1853 
Q 1241 2209 2100 2209 
L 2900 2209 
L 2931 2363 
Q 2938 2388 2941 2417 
Q 2944 2447 2944 2509 
Q 2944 2788 2717 2942 
Q 2491 3097 2081 3097 
Q 1800 3097 1504 3025 
Q 1209 2953 897 2809 
L 997 3341 
Q 1322 3463 1633 3523 
Q 1944 3584 2234 3584 
Q 2853 3584 3176 3315 
Q 3500 3047 3500 2534 
Q 3500 2431 3484 2292 
Q 3469 2153 3438 1997 
z
M 2816 1759 
L 2241 1759 
Q 1534 1759 1195 1570 
Q 856 1381 856 984 
Q 856 709 1029 553 
Q 1203 397 1509 397 
Q 1978 397 2328 733 
Q 2678 1069 2791 1631 
L 2816 1759 
z
M 2143 5119 
L 2796 3950 
L 2315 3950 
L 1528 5119 
L 2143 5119 
z
" transform="scale(0.015625)"/>
      <path id="DejaVuSans-Oblique-6d" d="M 5747 2113 
L 5338 0 
L 4763 0 
L 5166 2094 
Q 5191 2228 5203 2325 
Q 5216 2422 5216 2491 
Q 5216 2772 5059 2928 
Q 4903 3084 4622 3084 
Q 4203 3084 3875 2770 
Q 3547 2456 3450 1953 
L 3066 0 
L 2491 0 
L 2900 2094 
Q 2925 2209 2937 2307 
Q 2950 2406 2950 2484 
Q 2950 2769 2794 2926 
Q 2638 3084 2363 3084 
Q 1938 3084 1609 2770 
Q 1281 2456 1184 1953 
L 800 0 
L 225 0 
L 909 3500 
L 1484 3500 
L 1375 2956 
Q 1609 3263 1923 3423 
Q 2238 3584 2597 3584 
Q 2978 3584 3223 3384 
Q 3469 3184 3519 2828 
Q 3781 3197 4126 3390 
Q 4472 3584 4856 3584 
Q 5306 3584 5551 3325 
Q 5797 3066 5797 2591 
Q 5797 2488 5784 2364 
Q 5772 2241 5747 2113 
z
" transform="scale(0.015625)"/>
      <path id="DejaVuSans-Oblique-e9" d="M 3078 2063 
Q 3088 2113 3092 2166 
Q 3097 2219 3097 2272 
Q 3097 2653 2873 2875 
Q 2650 3097 2266 3097 
Q 1838 3097 1509 2826 
Q 1181 2556 1013 2059 
L 3078 2063 
z
M 3578 1613 
L 903 1613 
Q 884 1494 878 1425 
Q 872 1356 872 1306 
Q 872 872 1139 634 
Q 1406 397 1894 397 
Q 2269 397 2603 481 
Q 2938 566 3225 728 
L 3116 159 
Q 2806 34 2476 -28 
Q 2147 -91 1806 -91 
Q 1078 -91 686 257 
Q 294 606 294 1247 
Q 294 1794 489 2264 
Q 684 2734 1063 3103 
Q 1306 3334 1642 3459 
Q 1978 3584 2356 3584 
Q 2950 3584 3301 3228 
Q 3653 2872 3653 2272 
Q 3653 2128 3634 1964 
Q 3616 1800 3578 1613 
z
M 3063 5119 
L 3685 5119 
L 2438 3944 
L 1957 3944 
L 3063 5119 
z
" transform="scale(0.015625)"/>
      <path id="DejaVuSans-Oblique-6f" d="M 1625 -91 
Q 1009 -91 651 289 
Q 294 669 294 1325 
Q 294 1706 417 2101 
Q 541 2497 738 2766 
Q 1047 3184 1428 3384 
Q 1809 3584 2291 3584 
Q 2888 3584 3255 3212 
Q 3622 2841 3622 2241 
Q 3622 1825 3500 1412 
Q 3378 1000 3181 728 
Q 2875 309 2494 109 
Q 2113 -91 1625 -91 
z
M 891 1344 
Q 891 869 1089 633 
Q 1288 397 1691 397 
Q 2269 397 2648 901 
Q 3028 1406 3028 2181 
Q 3028 2634 2825 2865 
Q 2622 3097 2228 3097 
Q 1903 3097 1650 2945 
Q 1397 2794 1197 2484 
Q 1050 2253 970 1956 
Q 891 1659 891 1344 
z
" transform="scale(0.015625)"/>
      <path id="DejaVuSans-Oblique-72" d="M 2853 2969 
Q 2766 3016 2653 3041 
Q 2541 3066 2413 3066 
Q 1953 3066 1609 2717 
Q 1266 2369 1153 1784 
L 800 0 
L 225 0 
L 909 3500 
L 1484 3500 
L 1375 2956 
Q 1603 3259 1920 3421 
Q 2238 3584 2597 3584 
Q 2691 3584 2781 3573 
Q 2872 3563 2963 3538 
L 2853 2969 
z
" transform="scale(0.015625)"/>
      <path id="DejaVuSans-Oblique-73" d="M 3200 3397 
L 3091 2853 
Q 2863 2978 2609 3040 
Q 2356 3103 2088 3103 
Q 1634 3103 1373 2948 
Q 1113 2794 1113 2528 
Q 1113 2219 1719 2053 
Q 1766 2041 1788 2034 
L 1972 1978 
Q 2547 1819 2739 1644 
Q 2931 1469 2931 1166 
Q 2931 609 2489 259 
Q 2047 -91 1331 -91 
Q 1053 -91 747 -37 
Q 441 16 72 128 
L 184 722 
Q 500 559 806 475 
Q 1113 391 1394 391 
Q 1816 391 2080 572 
Q 2344 753 2344 1031 
Q 2344 1331 1650 1516 
L 1591 1531 
L 1394 1581 
Q 956 1697 753 1886 
Q 550 2075 550 2369 
Q 550 2928 970 3256 
Q 1391 3584 2113 3584 
Q 2397 3584 2667 3537 
Q 2938 3491 3200 3397 
z
" transform="scale(0.015625)"/>
      <path id="DejaVuSans-Oblique-21" d="M 1416 4666 
L 2047 4666 
L 1650 2619 
L 1369 1503 
L 863 1503 
L 1019 2619 
L 1416 4666 
z
M 666 794 
L 1300 794 
L 1147 0 
L 506 0 
L 666 794 
z
" transform="scale(0.015625)"/>
     </defs>
     <use xlink:href="#DejaVuSans-Oblique-52"/>
     <use xlink:href="#DejaVuSans-Oblique-69" transform="translate(69.482422 0)"/>
     <use xlink:href="#DejaVuSans-Oblique-65" transform="translate(97.265625 0)"/>
     <use xlink:href="#DejaVuSans-Oblique-6e" transform="translate(158.789062 0)"/>
     <use xlink:href="#DejaVuSans-Oblique-20" transform="translate(222.167969 0)"/>
     <use xlink:href="#DejaVuSans-Oblique-e0" transform="translate(253.955078 0)"/>
     <use xlink:href="#DejaVuSans-Oblique-20" transform="translate(315.234375 0)"/>
     <use xlink:href="#DejaVuSans-Oblique-6d" transform="translate(347.021484 0)"/>
     <use xlink:href="#DejaVuSans-Oblique-e9" transform="translate(444.433594 0)"/>
     <use xlink:href="#DejaVuSans-Oblique-6d" transform="translate(505.957031 0)"/>
     <use xlink:href="#DejaVuSans-Oblique-6f" transform="translate(603.369141 0)"/>
     <use xlink:href="#DejaVuSans-Oblique-72" transform="translate(664.550781 0)"/>
     <use xlink:href="#DejaVuSans-Oblique-69" transform="translate(705.664062 0)"/>
     <use xlink:href="#DejaVuSans-Oblique-73" transform="translate(733.447266 0)"/>
     <use xlink:href="#DejaVuSans-Oblique-65" transform="translate(785.546875 0)"/>
     <use xlink:href="#DejaVuSans-Oblique-72" transform="translate(847.070312 0)"/>
     <use xlink:href="#DejaVuSans-Oblique-20" transform="translate(888.183594 0)"/>
     <use xlink:href="#DejaVuSans-Oblique-21" transform="translate(919.970703 0)"/>
    </g>
   </g>
  </g>
  <g id="axes_2">
   <g id="table_1">
    <g id="patch_2">
     <path d="M 88.445376 334.4568 
L 172.283328 334.4568 
L 172.283328 308.0568 
L 88.445376 308.0568 
z
" style="fill: #0b3d91; stroke: #000000; stroke-linejoin: miter"/>
    </g>
    <g id="text_3">
     <!-- Opération -->
     <g style="fill: #ffffff" transform="translate(99.389039 324.512113) scale(0.11 -0.11)">
      <defs>
       <path id="DejaVuSans-Bold-4f" d="M 2719 3878 
Q 2169 3878 1866 3472 
Q 1563 3066 1563 2328 
Q 1563 1594 1866 1187 
Q 2169 781 2719 781 
Q 3272 781 3575 1187 
Q 3878 1594 3878 2328 
Q 3878 3066 3575 3472 
Q 3272 3878 2719 3878 
z
M 2719 4750 
Q 3844 4750 4481 4106 
Q 5119 3463 5119 2328 
Q 5119 1197 4481 553 
Q 3844 -91 2719 -91 
Q 1597 -91 958 553 
Q 319 1197 319 2328 
Q 319 3463 958 4106 
Q 1597 4750 2719 4750 
z
" transform="scale(0.015625)"/>
       <path id="DejaVuSans-Bold-e9" d="M 4031 1759 
L 4031 1441 
L 1416 1441 
Q 1456 1047 1700 850 
Q 1944 653 2381 653 
Q 2734 653 3104 758 
Q 3475 863 3866 1075 
L 3866 213 
Q 3469 63 3072 -14 
Q 2675 -91 2278 -91 
Q 1328 -91 801 392 
Q 275 875 275 1747 
Q 275 2603 792 3093 
Q 1309 3584 2216 3584 
Q 3041 3584 3536 3087 
Q 4031 2591 4031 1759 
z
M 2881 2131 
Q 2881 2450 2695 2645 
Q 2509 2841 2209 2841 
Q 1884 2841 1681 2658 
Q 1478 2475 1428 2131 
L 2881 2131 
z
M 2702 5119 
L 3586 5119 
L 2433 3944 
L 1821 3944 
L 2702 5119 
z
" transform="scale(0.015625)"/>
       <path id="DejaVuSans-Bold-69" d="M 538 3500 
L 1656 3500 
L 1656 0 
L 538 0 
L 538 3500 
z
M 538 4863 
L 1656 4863 
L 1656 3950 
L 538 3950 
L 538 4863 
z
" transform="scale(0.015625)"/>
       <path id="DejaVuSans-Bold-6e" d="M 4056 2131 
L 4056 0 
L 2931 0 
L 2931 347 
L 2931 1631 
Q 2931 2084 2911 2256 
Q 2891 2428 2841 2509 
Q 2775 2619 2662 2680 
Q 2550 2741 2406 2741 
Q 2056 2741 1856 2470 
Q 1656 2200 1656 1722 
L 1656 0 
L 538 0 
L 538 3500 
L 1656 3500 
L 1656 2988 
Q 1909 3294 2193 3439 
Q 2478 3584 2822 3584 
Q 3428 3584 3742 3212 
Q 4056 2841 4056 2131 
z
" transform="scale(0.015625)"/>
      </defs>
      <use xlink:href="#DejaVuSans-Bold-4f"/>
      <use xlink:href="#DejaVuSans-Bold-70" transform="translate(85.009766 0)"/>
      <use xlink:href="#DejaVuSans-Bold-e9" transform="translate(156.591797 0)"/>
      <use xlink:href="#DejaVuSans-Bold-72" transform="translate(224.414062 0)"/>
      <use xlink:href="#DejaVuSans-Bold-61" transform="translate(273.730469 0)"/>
      <use xlink:href="#DejaVuSans-Bold-74" transform="translate(341.210938 0)"/>
      <use xlink:href="#DejaVuSans-Bold-69" transform="translate(389.013672 0)"/>
      <use xlink:href="#DejaVuSans-Bold-6f" transform="translate(423.291016 0)"/>
      <use xlink:href="#DejaVuSans-Bold-6e" transform="translate(491.992188 0)"/>
     </g>
    </g>
    <g id="patch_3">
     <path d="M 172.283328 334.4568 
L 277.080768 334.4568 
L 277.080768 308.0568 
L 172.283328 308.0568 
z
" style="fill: #0b3d91; stroke: #000000; stroke-linejoin: miter"/>
    </g>
    <g id="text_4">
     <!-- Gauche (dizaines) -->
     <g style="fill: #ffffff" transform="translate(169.152673 324.292113) scale(0.11 -0.11)">
      <defs>
       <path id="DejaVuSans-Bold-47" d="M 4781 347 
Q 4331 128 3847 18 
Q 3363 -91 2847 -91 
Q 1681 -91 1000 561 
Q 319 1213 319 2328 
Q 319 3456 1012 4103 
Q 1706 4750 2913 4750 
Q 3378 4750 3804 4662 
Q 4231 4575 4609 4403 
L 4609 3438 
Q 4219 3659 3833 3768 
Q 3447 3878 3059 3878 
Q 2341 3878 1952 3476 
Q 1563 3075 1563 2328 
Q 1563 1588 1938 1184 
Q 2313 781 3003 781 
Q 3191 781 3352 804 
Q 3513 828 3641 878 
L 3641 1784 
L 2906 1784 
L 2906 2591 
L 4781 2591 
L 4781 347 
z
" transform="scale(0.015625)"/>
       <path id="DejaVuSans-Bold-68" d="M 4056 2131 
L 4056 0 
L 2931 0 
L 2931 347 
L 2931 1625 
Q 2931 2084 2911 2256 
Q 2891 2428 2841 2509 
Q 2775 2619 2662 2680 
Q 2550 2741 2406 2741 
Q 2056 2741 1856 2470 
Q 1656 2200 1656 1722 
L 1656 0 
L 538 0 
L 538 4863 
L 1656 4863 
L 1656 2988 
Q 1909 3294 2193 3439 
Q 2478 3584 2822 3584 
Q 3428 3584 3742 3212 
Q 4056 2841 4056 2131 
z
" transform="scale(0.015625)"/>
       <path id="DejaVuSans-Bold-28" d="M 2413 -844 
L 1484 -844 
Q 1006 -72 778 623 
Q 550 1319 550 2003 
Q 550 2688 779 3389 
Q 1009 4091 1484 4856 
L 2413 4856 
Q 2013 4116 1813 3408 
Q 1613 2700 1613 2009 
Q 1613 1319 1811 609 
Q 2009 -100 2413 -844 
z
" transform="scale(0.015625)"/>
       <path id="DejaVuSans-Bold-7a" d="M 366 3500 
L 3419 3500 
L 3419 2719 
L 1575 800 
L 3419 800 
L 3419 0 
L 288 0 
L 288 781 
L 2131 2700 
L 366 2700 
L 366 3500 
z
" transform="scale(0.015625)"/>
       <path id="DejaVuSans-Bold-73" d="M 3272 3391 
L 3272 2541 
Q 2913 2691 2578 2766 
Q 2244 2841 1947 2841 
Q 1628 2841 1473 2761 
Q 1319 2681 1319 2516 
Q 1319 2381 1436 2309 
Q 1553 2238 1856 2203 
L 2053 2175 
Q 2913 2066 3209 1816 
Q 3506 1566 3506 1031 
Q 3506 472 3093 190 
Q 2681 -91 1863 -91 
Q 1516 -91 1145 -36 
Q 775 19 384 128 
L 384 978 
Q 719 816 1070 734 
Q 1422 653 1784 653 
Q 2113 653 2278 743 
Q 2444 834 2444 1013 
Q 2444 1163 2330 1236 
Q 2216 1309 1875 1350 
L 1678 1375 
Q 931 1469 631 1722 
Q 331 1975 331 2491 
Q 331 3047 712 3315 
Q 1094 3584 1881 3584 
Q 2191 3584 2531 3537 
Q 2872 3491 3272 3391 
z
" transform="scale(0.015625)"/>
       <path id="DejaVuSans-Bold-29" d="M 513 -844 
Q 913 -100 1113 609 
Q 1313 1319 1313 2009 
Q 1313 2700 1113 3408 
Q 913 4116 513 4856 
L 1441 4856 
Q 1916 4091 2145 3389 
Q 2375 2688 2375 2003 
Q 2375 1319 2147 623 
Q 1919 -72 1441 -844 
L 513 -844 
z
" transform="scale(0.015625)"/>
      </defs>
      <use xlink:href="#DejaVuSans-Bold-47"/>
      <use xlink:href="#DejaVuSans-Bold-61" transform="translate(82.080078 0)"/>
      <use xlink:href="#DejaVuSans-Bold-75" transform="translate(149.560547 0)"/>
      <use xlink:href="#DejaVuSans-Bold-63" transform="translate(220.751953 0)"/>
      <use xlink:href="#DejaVuSans-Bold-68" transform="translate(280.029297 0)"/>
      <use xlink:href="#DejaVuSans-Bold-65" transform="translate(351.220703 0)"/>
      <use xlink:href="#DejaVuSans-Bold-20" transform="translate(419.042969 0)"/>
      <use xlink:href="#DejaVuSans-Bold-28" transform="translate(453.857422 0)"/>
      <use xlink:href="#DejaVuSans-Bold-64" transform="translate(499.560547 0)"/>
      <use xlink:href="#DejaVuSans-Bold-69" transform="translate(571.142578 0)"/>
      <use xlink:href="#DejaVuSans-Bold-7a" transform="translate(605.419922 0)"/>
      <use xlink:href="#DejaVuSans-Bold-61" transform="translate(663.623047 0)"/>
      <use xlink:href="#DejaVuSans-Bold-69" transform="translate(731.103516 0)"/>
      <use xlink:href="#DejaVuSans-Bold-6e" transform="translate(765.380859 0)"/>
      <use xlink:href="#DejaVuSans-Bold-65" transform="translate(836.572266 0)"/>
      <use xlink:href="#DejaVuSans-Bold-73" transform="translate(904.394531 0)"/>
      <use xlink:href="#DejaVuSans-Bold-29" transform="translate(963.916016 0)"/>
     </g>
    </g>
    <g id="patch_4">
     <path d="M 277.080768 334.4568 
L 371.398464 334.4568 
L 371.398464 308.0568 
L 277.080768 308.0568 
z
" style="fill: #0b3d91; stroke: #000000; stroke-linejoin: miter"/>
    </g>
    <g id="text_5">
     <!-- Droite (unités) -->
     <g style="fill: #ffffff" transform="translate(278.647194 324.292113) scale(0.11 -0.11)">
      <defs>
       <path id="DejaVuSans-Bold-44" d="M 1791 3756 
L 1791 909 
L 2222 909 
Q 2959 909 3348 1275 
Q 3738 1641 3738 2338 
Q 3738 3031 3350 3393 
Q 2963 3756 2222 3756 
L 1791 3756 
z
M 588 4666 
L 1856 4666 
Q 2919 4666 3439 4514 
Q 3959 4363 4331 4000 
Q 4659 3684 4818 3271 
Q 4978 2859 4978 2338 
Q 4978 1809 4818 1395 
Q 4659 981 4331 666 
Q 3956 303 3431 151 
Q 2906 0 1856 0 
L 588 0 
L 588 4666 
z
" transform="scale(0.015625)"/>
      </defs>
      <use xlink:href="#DejaVuSans-Bold-44"/>
      <use xlink:href="#DejaVuSans-Bold-72" transform="translate(83.007812 0)"/>
      <use xlink:href="#DejaVuSans-Bold-6f" transform="translate(132.324219 0)"/>
      <use xlink:href="#DejaVuSans-Bold-69" transform="translate(201.025391 0)"/>
      <use xlink:href="#DejaVuSans-Bold-74" transform="translate(235.302734 0)"/>
      <use xlink:href="#DejaVuSans-Bold-65" transform="translate(283.105469 0)"/>
      <use xlink:href="#DejaVuSans-Bold-20" transform="translate(350.927734 0)"/>
      <use xlink:href="#DejaVuSans-Bold-28" transform="translate(385.742188 0)"/>
      <use xlink:href="#DejaVuSans-Bold-75" transform="translate(431.445312 0)"/>
      <use xlink:href="#DejaVuSans-Bold-6e" transform="translate(502.636719 0)"/>
      <use xlink:href="#DejaVuSans-Bold-69" transform="translate(573.828125 0)"/>
      <use xlink:href="#DejaVuSans-Bold-74" transform="translate(608.105469 0)"/>
      <use xlink:href="#DejaVuSans-Bold-e9" transform="translate(655.908203 0)"/>
      <use xlink:href="#DejaVuSans-Bold-73" transform="translate(723.730469 0)"/>
      <use xlink:href="#DejaVuSans-Bold-29" transform="translate(783.251953 0)"/>
     </g>
    </g>
    <g id="patch_5">
     <path d="M 371.398464 334.4568 
L 455.236416 334.4568 
L 455.236416 308.0568 
L 371.398464 308.0568 
z
" style="fill: #0b3d91; stroke: #000000; stroke-linejoin: miter"/>
    </g>
    <g id="text_6">
     <!-- Calcul -->
     <g style="fill: #ffffff" transform="translate(394.622596 324.292113) scale(0.11 -0.11)">
      <defs>
       <path id="DejaVuSans-Bold-43" d="M 4288 256 
Q 3956 84 3597 -3 
Q 3238 -91 2847 -91 
Q 1681 -91 1000 561 
Q 319 1213 319 2328 
Q 319 3447 1000 4098 
Q 1681 4750 2847 4750 
Q 3238 4750 3597 4662 
Q 3956 4575 4288 4403 
L 4288 3438 
Q 3953 3666 3628 3772 
Q 3303 3878 2944 3878 
Q 2300 3878 1931 3465 
Q 1563 3053 1563 2328 
Q 1563 1606 1931 1193 
Q 2300 781 2944 781 
Q 3303 781 3628 887 
Q 3953 994 4288 1222 
L 4288 256 
z
" transform="scale(0.015625)"/>
      </defs>
      <use xlink:href="#DejaVuSans-Bold-43"/>
      <use xlink:href="#DejaVuSans-Bold-61" transform="translate(73.388672 0)"/>
      <use xlink:href="#DejaVuSans-Bold-6c" transform="translate(140.869141 0)"/>
      <use xlink:href="#DejaVuSans-Bold-63" transform="translate(175.146484 0)"/>
      <use xlink:href="#DejaVuSans-Bold-75" transform="translate(234.423828 0)"/>
      <use xlink:href="#DejaVuSans-Bold-6c" transform="translate(305.615234 0)"/>
     </g>
    </g>
    <g id="patch_6">
     <path d="M 455.236416 334.4568 
L 528.594624 334.4568 
L 528.594624 308.0568 
L 455.236416 308.0568 
z
" style="fill: #0b3d91; stroke: #000000; stroke-linejoin: miter"/>
    </g>
    <g id="text_7">
     <!-- Résultat -->
     <g style="fill: #ffffff" transform="translate(465.906536 324.292113) scale(0.11 -0.11)">
      <defs>
       <path id="DejaVuSans-Bold-52" d="M 2297 2597 
Q 2675 2597 2839 2737 
Q 3003 2878 3003 3200 
Q 3003 3519 2839 3656 
Q 2675 3794 2297 3794 
L 1791 3794 
L 1791 2597 
L 2297 2597 
z
M 1791 1766 
L 1791 0 
L 588 0 
L 588 4666 
L 2425 4666 
Q 3347 4666 3776 4356 
Q 4206 4047 4206 3378 
Q 4206 2916 3982 2619 
Q 3759 2322 3309 2181 
Q 3556 2125 3751 1926 
Q 3947 1728 4147 1325 
L 4800 0 
L 3519 0 
L 2950 1159 
Q 2778 1509 2601 1637 
Q 2425 1766 2131 1766 
L 1791 1766 
z
" transform="scale(0.015625)"/>
      </defs>
      <use xlink:href="#DejaVuSans-Bold-52"/>
      <use xlink:href="#DejaVuSans-Bold-e9" transform="translate(77.001953 0)"/>
      <use xlink:href="#DejaVuSans-Bold-73" transform="translate(144.824219 0)"/>
      <use xlink:href="#DejaVuSans-Bold-75" transform="translate(204.345703 0)"/>
      <use xlink:href="#DejaVuSans-Bold-6c" transform="translate(275.537109 0)"/>
      <use xlink:href="#DejaVuSans-Bold-74" transform="translate(309.814453 0)"/>
      <use xlink:href="#DejaVuSans-Bold-61" transform="translate(357.617188 0)"/>
      <use xlink:href="#DejaVuSans-Bold-74" transform="translate(425.097656 0)"/>
     </g>
    </g>
    <g id="patch_7">
     <path d="M 88.445376 360.8568 
L 172.283328 360.8568 
L 172.283328 334.4568 
L 88.445376 334.4568 
z
" style="fill: #ffffff; stroke: #000000; stroke-linejoin: miter"/>
    </g>
    <g id="text_8">
     <!-- 9 × 1 -->
     <g transform="translate(115.260836 350.692113) scale(0.11 -0.11)">
      <defs>
       <path id="DejaVuSans-39" d="M 703 97 
L 703 672 
Q 941 559 1184 500 
Q 1428 441 1663 441 
Q 2288 441 2617 861 
Q 2947 1281 2994 2138 
Q 2813 1869 2534 1725 
Q 2256 1581 1919 1581 
Q 1219 1581 811 2004 
Q 403 2428 403 3163 
Q 403 3881 828 4315 
Q 1253 4750 1959 4750 
Q 2769 4750 3195 4129 
Q 3622 3509 3622 2328 
Q 3622 1225 3098 567 
Q 2575 -91 1691 -91 
Q 1453 -91 1209 -44 
Q 966 3 703 97 
z
M 1959 2075 
Q 2384 2075 2632 2365 
Q 2881 2656 2881 3163 
Q 2881 3666 2632 3958 
Q 2384 4250 1959 4250 
Q 1534 4250 1286 3958 
Q 1038 3666 1038 3163 
Q 1038 2656 1286 2365 
Q 1534 2075 1959 2075 
z
" transform="scale(0.015625)"/>
       <path id="DejaVuSans-20" transform="scale(0.015625)"/>
       <path id="DejaVuSans-d7" d="M 4488 3438 
L 3059 2003 
L 4488 575 
L 4116 197 
L 2681 1631 
L 1247 197 
L 878 575 
L 2303 2003 
L 878 3438 
L 1247 3816 
L 2681 2381 
L 4116 3816 
L 4488 3438 
z
" transform="scale(0.015625)"/>
       <path id="DejaVuSans-31" d="M 794 531 
L 1825 531 
L 1825 4091 
L 703 3866 
L 703 4441 
L 1819 4666 
L 2450 4666 
L 2450 531 
L 3481 531 
L 3481 0 
L 794 0 
L 794 531 
z
" transform="scale(0.015625)"/>
      </defs>
      <use xlink:href="#DejaVuSans-39"/>
      <use xlink:href="#DejaVuSans-20" transform="translate(63.623047 0)"/>
      <use xlink:href="#DejaVuSans-d7" transform="translate(95.410156 0)"/>
      <use xlink:href="#DejaVuSans-20" transform="translate(179.199219 0)"/>
      <use xlink:href="#DejaVuSans-31" transform="translate(210.986328 0)"/>
     </g>
    </g>
    <g id="patch_8">
     <path d="M 172.283328 360.8568 
L 277.080768 360.8568 
L 277.080768 334.4568 
L 172.283328 334.4568 
z
" style="fill: #ffffff; stroke: #000000; stroke-linejoin: miter"/>
    </g>
    <g id="text_9">
     <!-- 0 doigts -->
     <g transform="translate(202.536814 350.692113) scale(0.11 -0.11)">
      <defs>
       <path id="DejaVuSans-30" d="M 2034 4250 
Q 1547 4250 1301 3770 
Q 1056 3291 1056 2328 
Q 1056 1369 1301 889 
Q 1547 409 2034 409 
Q 2525 409 2770 889 
Q 3016 1369 3016 2328 
Q 3016 3291 2770 3770 
Q 2525 4250 2034 4250 
z
M 2034 4750 
Q 2819 4750 3233 4129 
Q 3647 3509 3647 2328 
Q 3647 1150 3233 529 
Q 2819 -91 2034 -91 
Q 1250 -91 836 529 
Q 422 1150 422 2328 
Q 422 3509 836 4129 
Q 1250 4750 2034 4750 
z
" transform="scale(0.015625)"/>
       <path id="DejaVuSans-64" d="M 2906 2969 
L 2906 4863 
L 3481 4863 
L 3481 0 
L 2906 0 
L 2906 525 
Q 2725 213 2448 61 
Q 2172 -91 1784 -91 
Q 1150 -91 751 415 
Q 353 922 353 1747 
Q 353 2572 751 3078 
Q 1150 3584 1784 3584 
Q 2172 3584 2448 3432 
Q 2725 3281 2906 2969 
z
M 947 1747 
Q 947 1113 1208 752 
Q 1469 391 1925 391 
Q 2381 391 2643 752 
Q 2906 1113 2906 1747 
Q 2906 2381 2643 2742 
Q 2381 3103 1925 3103 
Q 1469 3103 1208 2742 
Q 947 2381 947 1747 
z
" transform="scale(0.015625)"/>
       <path id="DejaVuSans-6f" d="M 1959 3097 
Q 1497 3097 1228 2736 
Q 959 2375 959 1747 
Q 959 1119 1226 758 
Q 1494 397 1959 397 
Q 2419 397 2687 759 
Q 2956 1122 2956 1747 
Q 2956 2369 2687 2733 
Q 2419 3097 1959 3097 
z
M 1959 3584 
Q 2709 3584 3137 3096 
Q 3566 2609 3566 1747 
Q 3566 888 3137 398 
Q 2709 -91 1959 -91 
Q 1206 -91 779 398 
Q 353 888 353 1747 
Q 353 2609 779 3096 
Q 1206 3584 1959 3584 
z
" transform="scale(0.015625)"/>
       <path id="DejaVuSans-69" d="M 603 3500 
L 1178 3500 
L 1178 0 
L 603 0 
L 603 3500 
z
M 603 4863 
L 1178 4863 
L 1178 4134 
L 603 4134 
L 603 4863 
z
" transform="scale(0.015625)"/>
       <path id="DejaVuSans-67" d="M 2906 1791 
Q 2906 2416 2648 2759 
Q 2391 3103 1925 3103 
Q 1463 3103 1205 2759 
Q 947 2416 947 1791 
Q 947 1169 1205 825 
Q 1463 481 1925 481 
Q 2391 481 2648 825 
Q 2906 1169 2906 1791 
z
M 3481 434 
Q 3481 -459 3084 -895 
Q 2688 -1331 1869 -1331 
Q 1566 -1331 1297 -1286 
Q 1028 -1241 775 -1147 
L 775 -588 
Q 1028 -725 1275 -790 
Q 1522 -856 1778 -856 
Q 2344 -856 2625 -561 
Q 2906 -266 2906 331 
L 2906 616 
Q 2728 306 2450 153 
Q 2172 0 1784 0 
Q 1141 0 747 490 
Q 353 981 353 1791 
Q 353 2603 747 3093 
Q 1141 3584 1784 3584 
Q 2172 3584 2450 3431 
Q 2728 3278 2906 2969 
L 2906 3500 
L 3481 3500 
L 3481 434 
z
" transform="scale(0.015625)"/>
       <path id="DejaVuSans-74" d="M 1172 4494 
L 1172 3500 
L 2356 3500 
L 2356 3053 
L 1172 3053 
L 1172 1153 
Q 1172 725 1289 603 
Q 1406 481 1766 481 
L 2356 481 
L 2356 0 
L 1766 0 
Q 1100 0 847 248 
Q 594 497 594 1153 
L 594 3053 
L 172 3053 
L 172 3500 
L 594 3500 
L 594 4494 
L 1172 4494 
z
" transform="scale(0.015625)"/>
       <path id="DejaVuSans-73" d="M 2834 3397 
L 2834 2853 
Q 2591 2978 2328 3040 
Q 2066 3103 1784 3103 
Q 1356 3103 1142 2972 
Q 928 2841 928 2578 
Q 928 2378 1081 2264 
Q 1234 2150 1697 2047 
L 1894 2003 
Q 2506 1872 2764 1633 
Q 3022 1394 3022 966 
Q 3022 478 2636 193 
Q 2250 -91 1575 -91 
Q 1294 -91 989 -36 
Q 684 19 347 128 
L 347 722 
Q 666 556 975 473 
Q 1284 391 1588 391 
Q 1994 391 2212 530 
Q 2431 669 2431 922 
Q 2431 1156 2273 1281 
Q 2116 1406 1581 1522 
L 1381 1569 
Q 847 1681 609 1914 
Q 372 2147 372 2553 
Q 372 3047 722 3315 
Q 1072 3584 1716 3584 
Q 2034 3584 2315 3537 
Q 2597 3491 2834 3397 
z
" transform="scale(0.015625)"/>
      </defs>
      <use xlink:href="#DejaVuSans-30"/>
      <use xlink:href="#DejaVuSans-20" transform="translate(63.623047 0)"/>
      <use xlink:href="#DejaVuSans-64" transform="translate(95.410156 0)"/>
      <use xlink:href="#DejaVuSans-6f" transform="translate(158.886719 0)"/>
      <use xlink:href="#DejaVuSans-69" transform="translate(220.068359 0)"/>
      <use xlink:href="#DejaVuSans-67" transform="translate(247.851562 0)"/>
      <use xlink:href="#DejaVuSans-74" transform="translate(311.328125 0)"/>
      <use xlink:href="#DejaVuSans-73" transform="translate(350.537109 0)"/>
     </g>
    </g>
    <g id="patch_9">
     <path d="M 277.080768 360.8568 
L 371.398464 360.8568 
L 371.398464 334.4568 
L 277.080768 334.4568 
z
" style="fill: #ffffff; stroke: #000000; stroke-linejoin: miter"/>
    </g>
    <g id="text_10">
     <!-- 9 doigts -->
     <g transform="translate(302.094382 350.692113) scale(0.11 -0.11)">
      <use xlink:href="#DejaVuSans-39"/>
      <use xlink:href="#DejaVuSans-20" transform="translate(63.623047 0)"/>
      <use xlink:href="#DejaVuSans-64" transform="translate(95.410156 0)"/>
      <use xlink:href="#DejaVuSans-6f" transform="translate(158.886719 0)"/>
      <use xlink:href="#DejaVuSans-69" transform="translate(220.068359 0)"/>
      <use xlink:href="#DejaVuSans-67" transform="translate(247.851562 0)"/>
      <use xlink:href="#DejaVuSans-74" transform="translate(311.328125 0)"/>
      <use xlink:href="#DejaVuSans-73" transform="translate(350.537109 0)"/>
     </g>
    </g>
    <g id="patch_10">
     <path d="M 371.398464 360.8568 
L 455.236416 360.8568 
L 455.236416 334.4568 
L 371.398464 334.4568 
z
" style="fill: #ffffff; stroke: #000000; stroke-linejoin: miter"/>
    </g>
    <g id="text_11">
     <!-- 0 + 9 -->
     <g transform="translate(398.213924 350.692113) scale(0.11 -0.11)">
      <defs>
       <path id="DejaVuSans-2b" d="M 2944 4013 
L 2944 2272 
L 4684 2272 
L 4684 1741 
L 2944 1741 
L 2944 0 
L 2419 0 
L 2419 1741 
L 678 1741 
L 678 2272 
L 2419 2272 
L 2419 4013 
L 2944 4013 
z
" transform="scale(0.015625)"/>
      </defs>
      <use xlink:href="#DejaVuSans-30"/>
      <use xlink:href="#DejaVuSans-20" transform="translate(63.623047 0)"/>
      <use xlink:href="#DejaVuSans-2b" transform="translate(95.410156 0)"/>
      <use xlink:href="#DejaVuSans-20" transform="translate(179.199219 0)"/>
      <use xlink:href="#DejaVuSans-39" transform="translate(210.986328 0)"/>
     </g>
    </g>
    <g id="patch_11">
     <path d="M 455.236416 360.8568 
L 528.594624 360.8568 
L 528.594624 334.4568 
L 455.236416 334.4568 
z
" style="fill: #ffffff; stroke: #000000; stroke-linejoin: miter"/>
    </g>
    <g id="text_12">
     <!-- 9 -->
     <g transform="translate(488.416145 350.692113) scale(0.11 -0.11)">
      <use xlink:href="#DejaVuSans-39"/>
     </g>
    </g>
    <g id="patch_12">
     <path d="M 88.445376 387.2568 
L 172.283328 387.2568 
L 172.283328 360.8568 
L 88.445376 360.8568 
z
" style="fill: #f4f6fb; stroke: #000000; stroke-linejoin: miter"/>
    </g>
    <g id="text_13">
     <!-- 9 × 2 -->
     <g transform="translate(115.260836 377.092112) scale(0.11 -0.11)">
      <defs>
       <path id="DejaVuSans-32" d="M 1228 531 
L 3431 531 
L 3431 0 
L 469 0 
L 469 531 
Q 828 903 1448 1529 
Q 2069 2156 2228 2338 
Q 2531 2678 2651 2914 
Q 2772 3150 2772 3378 
Q 2772 3750 2511 3984 
Q 2250 4219 1831 4219 
Q 1534 4219 1204 4116 
Q 875 4013 500 3803 
L 500 4441 
Q 881 4594 1212 4672 
Q 1544 4750 1819 4750 
Q 2544 4750 2975 4387 
Q 3406 4025 3406 3419 
Q 3406 3131 3298 2873 
Q 3191 2616 2906 2266 
Q 2828 2175 2409 1742 
Q 1991 1309 1228 531 
z
" transform="scale(0.015625)"/>
      </defs>
      <use xlink:href="#DejaVuSans-39"/>
      <use xlink:href="#DejaVuSans-20" transform="translate(63.623047 0)"/>
      <use xlink:href="#DejaVuSans-d7" transform="translate(95.410156 0)"/>
      <use xlink:href="#DejaVuSans-20" transform="translate(179.199219 0)"/>
      <use xlink:href="#DejaVuSans-32" transform="translate(210.986328 0)"/>
     </g>
    </g>
    <g id="patch_13">
     <path d="M 172.283328 387.2568 
L 277.080768 387.2568 
L 277.080768 360.8568 
L 172.283328 360.8568 
z
" style="fill: #f4f6fb; stroke: #000000; stroke-linejoin: miter"/>
    </g>
    <g id="text_14">
     <!-- 1 doigts -->
     <g transform="translate(202.536814 377.092112) scale(0.11 -0.11)">
      <use xlink:href="#DejaVuSans-31"/>
      <use xlink:href="#DejaVuSans-20" transform="translate(63.623047 0)"/>
      <use xlink:href="#DejaVuSans-64" transform="translate(95.410156 0)"/>
      <use xlink:href="#DejaVuSans-6f" transform="translate(158.886719 0)"/>
      <use xlink:href="#DejaVuSans-69" transform="translate(220.068359 0)"/>
      <use xlink:href="#DejaVuSans-67" transform="translate(247.851562 0)"/>
      <use xlink:href="#DejaVuSans-74" transform="translate(311.328125 0)"/>
      <use xlink:href="#DejaVuSans-73" transform="translate(350.537109 0)"/>
     </g>
    </g>
    <g id="patch_14">
     <path d="M 277.080768 387.2568 
L 371.398464 387.2568 
L 371.398464 360.8568 
L 277.080768 360.8568 
z
" style="fill: #f4f6fb; stroke: #000000; stroke-linejoin: miter"/>
    </g>
    <g id="text_15">
     <!-- 8 doigts -->
     <g transform="translate(302.094382 377.092112) scale(0.11 -0.11)">
      <defs>
       <path id="DejaVuSans-38" d="M 2034 2216 
Q 1584 2216 1326 1975 
Q 1069 1734 1069 1313 
Q 1069 891 1326 650 
Q 1584 409 2034 409 
Q 2484 409 2743 651 
Q 3003 894 3003 1313 
Q 3003 1734 2745 1975 
Q 2488 2216 2034 2216 
z
M 1403 2484 
Q 997 2584 770 2862 
Q 544 3141 544 3541 
Q 544 4100 942 4425 
Q 1341 4750 2034 4750 
Q 2731 4750 3128 4425 
Q 3525 4100 3525 3541 
Q 3525 3141 3298 2862 
Q 3072 2584 2669 2484 
Q 3125 2378 3379 2068 
Q 3634 1759 3634 1313 
Q 3634 634 3220 271 
Q 2806 -91 2034 -91 
Q 1263 -91 848 271 
Q 434 634 434 1313 
Q 434 1759 690 2068 
Q 947 2378 1403 2484 
z
M 1172 3481 
Q 1172 3119 1398 2916 
Q 1625 2713 2034 2713 
Q 2441 2713 2670 2916 
Q 2900 3119 2900 3481 
Q 2900 3844 2670 4047 
Q 2441 4250 2034 4250 
Q 1625 4250 1398 4047 
Q 1172 3844 1172 3481 
z
" transform="scale(0.015625)"/>
      </defs>
      <use xlink:href="#DejaVuSans-38"/>
      <use xlink:href="#DejaVuSans-20" transform="translate(63.623047 0)"/>
      <use xlink:href="#DejaVuSans-64" transform="translate(95.410156 0)"/>
      <use xlink:href="#DejaVuSans-6f" transform="translate(158.886719 0)"/>
      <use xlink:href="#DejaVuSans-69" transform="translate(220.068359 0)"/>
      <use xlink:href="#DejaVuSans-67" transform="translate(247.851562 0)"/>
      <use xlink:href="#DejaVuSans-74" transform="translate(311.328125 0)"/>
      <use xlink:href="#DejaVuSans-73" transform="translate(350.537109 0)"/>
     </g>
    </g>
    <g id="patch_15">
     <path d="M 371.398464 387.2568 
L 455.236416 387.2568 
L 455.236416 360.8568 
L 371.398464 360.8568 
z
" style="fill: #f4f6fb; stroke: #000000; stroke-linejoin: miter"/>
    </g>
    <g id="text_16">
     <!-- 10 + 8 -->
     <g transform="translate(394.714549 377.092112) scale(0.11 -0.11)">
      <use xlink:href="#DejaVuSans-31"/>
      <use xlink:href="#DejaVuSans-30" transform="translate(63.623047 0)"/>
      <use xlink:href="#DejaVuSans-20" transform="translate(127.246094 0)"/>
      <use xlink:href="#DejaVuSans-2b" transform="translate(159.033203 0)"/>
      <use xlink:href="#DejaVuSans-20" transform="translate(242.822266 0)"/>
      <use xlink:href="#DejaVuSans-38" transform="translate(274.609375 0)"/>
     </g>
    </g>
    <g id="patch_16">
     <path d="M 455.236416 387.2568 
L 528.594624 387.2568 
L 528.594624 360.8568 
L 455.236416 360.8568 
z
" style="fill: #f4f6fb; stroke: #000000; stroke-linejoin: miter"/>
    </g>
    <g id="text_17">
     <!-- 18 -->
     <g transform="translate(484.91677 377.092112) scale(0.11 -0.11)">
      <use xlink:href="#DejaVuSans-31"/>
      <use xlink:href="#DejaVuSans-38" transform="translate(63.623047 0)"/>
     </g>
    </g>
    <g id="patch_17">
     <path d="M 88.445376 413.6568 
L 172.283328 413.6568 
L 172.283328 387.2568 
L 88.445376 387.2568 
z
" style="fill: #ffffff; stroke: #000000; stroke-linejoin: miter"/>
    </g>
    <g id="text_18">
     <!-- 9 × 3 -->
     <g transform="translate(115.260836 403.492113) scale(0.11 -0.11)">
      <defs>
       <path id="DejaVuSans-33" d="M 2597 2516 
Q 3050 2419 3304 2112 
Q 3559 1806 3559 1356 
Q 3559 666 3084 287 
Q 2609 -91 1734 -91 
Q 1441 -91 1130 -33 
Q 819 25 488 141 
L 488 750 
Q 750 597 1062 519 
Q 1375 441 1716 441 
Q 2309 441 2620 675 
Q 2931 909 2931 1356 
Q 2931 1769 2642 2001 
Q 2353 2234 1838 2234 
L 1294 2234 
L 1294 2753 
L 1863 2753 
Q 2328 2753 2575 2939 
Q 2822 3125 2822 3475 
Q 2822 3834 2567 4026 
Q 2313 4219 1838 4219 
Q 1578 4219 1281 4162 
Q 984 4106 628 3988 
L 628 4550 
Q 988 4650 1302 4700 
Q 1616 4750 1894 4750 
Q 2613 4750 3031 4423 
Q 3450 4097 3450 3541 
Q 3450 3153 3228 2886 
Q 3006 2619 2597 2516 
z
" transform="scale(0.015625)"/>
      </defs>
      <use xlink:href="#DejaVuSans-39"/>
      <use xlink:href="#DejaVuSans-20" transform="translate(63.623047 0)"/>
      <use xlink:href="#DejaVuSans-d7" transform="translate(95.410156 0)"/>
      <use xlink:href="#DejaVuSans-20" transform="translate(179.199219 0)"/>
      <use xlink:href="#DejaVuSans-33" transform="translate(210.986328 0)"/>
     </g>
    </g>
    <g id="patch_18">
     <path d="M 172.283328 413.6568 
L 277.080768 413.6568 
L 277.080768 387.2568 
L 172.283328 387.2568 
z
" style="fill: #ffffff; stroke: #000000; stroke-linejoin: miter"/>
    </g>
    <g id="text_19">
     <!-- 2 doigts -->
     <g transform="translate(202.536814 403.492113) scale(0.11 -0.11)">
      <use xlink:href="#DejaVuSans-32"/>
      <use xlink:href="#DejaVuSans-20" transform="translate(63.623047 0)"/>
      <use xlink:href="#DejaVuSans-64" transform="translate(95.410156 0)"/>
      <use xlink:href="#DejaVuSans-6f" transform="translate(158.886719 0)"/>
      <use xlink:href="#DejaVuSans-69" transform="translate(220.068359 0)"/>
      <use xlink:href="#DejaVuSans-67" transform="translate(247.851562 0)"/>
      <use xlink:href="#DejaVuSans-74" transform="translate(311.328125 0)"/>
      <use xlink:href="#DejaVuSans-73" transform="translate(350.537109 0)"/>
     </g>
    </g>
    <g id="patch_19">
     <path d="M 277.080768 413.6568 
L 371.398464 413.6568 
L 371.398464 387.2568 
L 277.080768 387.2568 
z
" style="fill: #ffffff; stroke: #000000; stroke-linejoin: miter"/>
    </g>
    <g id="text_20">
     <!-- 7 doigts -->
     <g transform="translate(302.094382 403.492113) scale(0.11 -0.11)">
      <defs>
       <path id="DejaVuSans-37" d="M 525 4666 
L 3525 4666 
L 3525 4397 
L 1831 0 
L 1172 0 
L 2766 4134 
L 525 4134 
L 525 4666 
z
" transform="scale(0.015625)"/>
      </defs>
      <use xlink:href="#DejaVuSans-37"/>
      <use xlink:href="#DejaVuSans-20" transform="translate(63.623047 0)"/>
      <use xlink:href="#DejaVuSans-64" transform="translate(95.410156 0)"/>
      <use xlink:href="#DejaVuSans-6f" transform="translate(158.886719 0)"/>
      <use xlink:href="#DejaVuSans-69" transform="translate(220.068359 0)"/>
      <use xlink:href="#DejaVuSans-67" transform="translate(247.851562 0)"/>
      <use xlink:href="#DejaVuSans-74" transform="translate(311.328125 0)"/>
      <use xlink:href="#DejaVuSans-73" transform="translate(350.537109 0)"/>
     </g>
    </g>
    <g id="patch_20">
     <path d="M 371.398464 413.6568 
L 455.236416 413.6568 
L 455.236416 387.2568 
L 371.398464 387.2568 
z
" style="fill: #ffffff; stroke: #000000; stroke-linejoin: miter"/>
    </g>
    <g id="text_21">
     <!-- 20 + 7 -->
     <g transform="translate(394.714549 403.492113) scale(0.11 -0.11)">
      <use xlink:href="#DejaVuSans-32"/>
      <use xlink:href="#DejaVuSans-30" transform="translate(63.623047 0)"/>
      <use xlink:href="#DejaVuSans-20" transform="translate(127.246094 0)"/>
      <use xlink:href="#DejaVuSans-2b" transform="translate(159.033203 0)"/>
      <use xlink:href="#DejaVuSans-20" transform="translate(242.822266 0)"/>
      <use xlink:href="#DejaVuSans-37" transform="translate(274.609375 0)"/>
     </g>
    </g>
    <g id="patch_21">
     <path d="M 455.236416 413.6568 
L 528.594624 413.6568 
L 528.594624 387.2568 
L 455.236416 387.2568 
z
" style="fill: #ffffff; stroke: #000000; stroke-linejoin: miter"/>
    </g>
    <g id="text_22">
     <!-- 27 -->
     <g transform="translate(484.91677 403.492113) scale(0.11 -0.11)">
      <use xlink:href="#DejaVuSans-32"/>
      <use xlink:href="#DejaVuSans-37" transform="translate(63.623047 0)"/>
     </g>
    </g>
    <g id="patch_22">
     <path d="M 88.445376 440.0568 
L 172.283328 440.0568 
L 172.283328 413.6568 
L 88.445376 413.6568 
z
" style="fill: #f4f6fb; stroke: #000000; stroke-linejoin: miter"/>
    </g>
    <g id="text_23">
     <!-- 9 × 4 -->
     <g transform="translate(115.260836 429.892112) scale(0.11 -0.11)">
      <defs>
       <path id="DejaVuSans-34" d="M 2419 4116 
L 825 1625 
L 2419 1625 
L 2419 4116 
z
M 2253 4666 
L 3047 4666 
L 3047 1625 
L 3713 1625 
L 3713 1100 
L 3047 1100 
L 3047 0 
L 2419 0 
L 2419 1100 
L 313 1100 
L 313 1709 
L 2253 4666 
z
" transform="scale(0.015625)"/>
      </defs>
      <use xlink:href="#DejaVuSans-39"/>
      <use xlink:href="#DejaVuSans-20" transform="translate(63.623047 0)"/>
      <use xlink:href="#DejaVuSans-d7" transform="translate(95.410156 0)"/>
      <use xlink:href="#DejaVuSans-20" transform="translate(179.199219 0)"/>
      <use xlink:href="#DejaVuSans-34" transform="translate(210.986328 0)"/>
     </g>
    </g>
    <g id="patch_23">
     <path d="M 172.283328 440.0568 
L 277.080768 440.0568 
L 277.080768 413.6568 
L 172.283328 413.6568 
z
" style="fill: #f4f6fb; stroke: #000000; stroke-linejoin: miter"/>
    </g>
    <g id="text_24">
     <!-- 3 doigts -->
     <g transform="translate(202.536814 429.892112) scale(0.11 -0.11)">
      <use xlink:href="#DejaVuSans-33"/>
      <use xlink:href="#DejaVuSans-20" transform="translate(63.623047 0)"/>
      <use xlink:href="#DejaVuSans-64" transform="translate(95.410156 0)"/>
      <use xlink:href="#DejaVuSans-6f" transform="translate(158.886719 0)"/>
      <use xlink:href="#DejaVuSans-69" transform="translate(220.068359 0)"/>
      <use xlink:href="#DejaVuSans-67" transform="translate(247.851562 0)"/>
      <use xlink:href="#DejaVuSans-74" transform="translate(311.328125 0)"/>
      <use xlink:href="#DejaVuSans-73" transform="translate(350.537109 0)"/>
     </g>
    </g>
    <g id="patch_24">
     <path d="M 277.080768 440.0568 
L 371.398464 440.0568 
L 371.398464 413.6568 
L 277.080768 413.6568 
z
" style="fill: #f4f6fb; stroke: #000000; stroke-linejoin: miter"/>
    </g>
    <g id="text_25">
     <!-- 6 doigts -->
     <g transform="translate(302.094382 429.892112) scale(0.11 -0.11)">
      <defs>
       <path id="DejaVuSans-36" d="M 2113 2584 
Q 1688 2584 1439 2293 
Q 1191 2003 1191 1497 
Q 1191 994 1439 701 
Q 1688 409 2113 409 
Q 2538 409 2786 701 
Q 3034 994 3034 1497 
Q 3034 2003 2786 2293 
Q 2538 2584 2113 2584 
z
M 3366 4563 
L 3366 3988 
Q 3128 4100 2886 4159 
Q 2644 4219 2406 4219 
Q 1781 4219 1451 3797 
Q 1122 3375 1075 2522 
Q 1259 2794 1537 2939 
Q 1816 3084 2150 3084 
Q 2853 3084 3261 2657 
Q 3669 2231 3669 1497 
Q 3669 778 3244 343 
Q 2819 -91 2113 -91 
Q 1303 -91 875 529 
Q 447 1150 447 2328 
Q 447 3434 972 4092 
Q 1497 4750 2381 4750 
Q 2619 4750 2861 4703 
Q 3103 4656 3366 4563 
z
" transform="scale(0.015625)"/>
      </defs>
      <use xlink:href="#DejaVuSans-36"/>
      <use xlink:href="#DejaVuSans-20" transform="translate(63.623047 0)"/>
      <use xlink:href="#DejaVuSans-64" transform="translate(95.410156 0)"/>
      <use xlink:href="#DejaVuSans-6f" transform="translate(158.886719 0)"/>
      <use xlink:href="#DejaVuSans-69" transform="translate(220.068359 0)"/>
      <use xlink:href="#DejaVuSans-67" transform="translate(247.851562 0)"/>
      <use xlink:href="#DejaVuSans-74" transform="translate(311.328125 0)"/>
      <use xlink:href="#DejaVuSans-73" transform="translate(350.537109 0)"/>
     </g>
    </g>
    <g id="patch_25">
     <path d="M 371.398464 440.0568 
L 455.236416 440.0568 
L 455.236416 413.6568 
L 371.398464 413.6568 
z
" style="fill: #f4f6fb; stroke: #000000; stroke-linejoin: miter"/>
    </g>
    <g id="text_26">
     <!-- 30 + 6 -->
     <g transform="translate(394.714549 429.892112) scale(0.11 -0.11)">
      <use xlink:href="#DejaVuSans-33"/>
      <use xlink:href="#DejaVuSans-30" transform="translate(63.623047 0)"/>
      <use xlink:href="#DejaVuSans-20" transform="translate(127.246094 0)"/>
      <use xlink:href="#DejaVuSans-2b" transform="translate(159.033203 0)"/>
      <use xlink:href="#DejaVuSans-20" transform="translate(242.822266 0)"/>
      <use xlink:href="#DejaVuSans-36" transform="translate(274.609375 0)"/>
     </g>
    </g>
    <g id="patch_26">
     <path d="M 455.236416 440.0568 
L 528.594624 440.0568 
L 528.594624 413.6568 
L 455.236416 413.6568 
z
" style="fill: #f4f6fb; stroke: #000000; stroke-linejoin: miter"/>
    </g>
    <g id="text_27">
     <!-- 36 -->
     <g transform="translate(484.91677 429.892112) scale(0.11 -0.11)">
      <use xlink:href="#DejaVuSans-33"/>
      <use xlink:href="#DejaVuSans-36" transform="translate(63.623047 0)"/>
     </g>
    </g>
    <g id="patch_27">
     <path d="M 88.445376 466.4568 
L 172.283328 466.4568 
L 172.283328 440.0568 
L 88.445376 440.0568 
z
" style="fill: #ffffff; stroke: #000000; stroke-linejoin: miter"/>
    </g>
    <g id="text_28">
     <!-- 9 × 5 -->
     <g transform="translate(115.260836 456.292113) scale(0.11 -0.11)">
      <defs>
       <path id="DejaVuSans-35" d="M 691 4666 
L 3169 4666 
L 3169 4134 
L 1269 4134 
L 1269 2991 
Q 1406 3038 1543 3061 
Q 1681 3084 1819 3084 
Q 2600 3084 3056 2656 
Q 3513 2228 3513 1497 
Q 3513 744 3044 326 
Q 2575 -91 1722 -91 
Q 1428 -91 1123 -41 
Q 819 9 494 109 
L 494 744 
Q 775 591 1075 516 
Q 1375 441 1709 441 
Q 2250 441 2565 725 
Q 2881 1009 2881 1497 
Q 2881 1984 2565 2268 
Q 2250 2553 1709 2553 
Q 1456 2553 1204 2497 
Q 953 2441 691 2322 
L 691 4666 
z
" transform="scale(0.015625)"/>
      </defs>
      <use xlink:href="#DejaVuSans-39"/>
      <use xlink:href="#DejaVuSans-20" transform="translate(63.623047 0)"/>
      <use xlink:href="#DejaVuSans-d7" transform="translate(95.410156 0)"/>
      <use xlink:href="#DejaVuSans-20" transform="translate(179.199219 0)"/>
      <use xlink:href="#DejaVuSans-35" transform="translate(210.986328 0)"/>
     </g>
    </g>
    <g id="patch_28">
     <path d="M 172.283328 466.4568 
L 277.080768 466.4568 
L 277.080768 440.0568 
L 172.283328 440.0568 
z
" style="fill: #ffffff; stroke: #000000; stroke-linejoin: miter"/>
    </g>
    <g id="text_29">
     <!-- 4 doigts -->
     <g transform="translate(202.536814 456.292113) scale(0.11 -0.11)">
      <use xlink:href="#DejaVuSans-34"/>
      <use xlink:href="#DejaVuSans-20" transform="translate(63.623047 0)"/>
      <use xlink:href="#DejaVuSans-64" transform="translate(95.410156 0)"/>
      <use xlink:href="#DejaVuSans-6f" transform="translate(158.886719 0)"/>
      <use xlink:href="#DejaVuSans-69" transform="translate(220.068359 0)"/>
      <use xlink:href="#DejaVuSans-67" transform="translate(247.851562 0)"/>
      <use xlink:href="#DejaVuSans-74" transform="translate(311.328125 0)"/>
      <use xlink:href="#DejaVuSans-73" transform="translate(350.537109 0)"/>
     </g>
    </g>
    <g id="patch_29">
     <path d="M 277.080768 466.4568 
L 371.398464 466.4568 
L 371.398464 440.0568 
L 277.080768 440.0568 
z
" style="fill: #ffffff; stroke: #000000; stroke-linejoin: miter"/>
    </g>
    <g id="text_30">
     <!-- 5 doigts -->
     <g transform="translate(302.094382 456.292113) scale(0.11 -0.11)">
      <use xlink:href="#DejaVuSans-35"/>
      <use xlink:href="#DejaVuSans-20" transform="translate(63.623047 0)"/>
      <use xlink:href="#DejaVuSans-64" transform="translate(95.410156 0)"/>
      <use xlink:href="#DejaVuSans-6f" transform="translate(158.886719 0)"/>
      <use xlink:href="#DejaVuSans-69" transform="translate(220.068359 0)"/>
      <use xlink:href="#DejaVuSans-67" transform="translate(247.851562 0)"/>
      <use xlink:href="#DejaVuSans-74" transform="translate(311.328125 0)"/>
      <use xlink:href="#DejaVuSans-73" transform="translate(350.537109 0)"/>
     </g>
    </g>
    <g id="patch_30">
     <path d="M 371.398464 466.4568 
L 455.236416 466.4568 
L 455.236416 440.0568 
L 371.398464 440.0568 
z
" style="fill: #ffffff; stroke: #000000; stroke-linejoin: miter"/>
    </g>
    <g id="text_31">
     <!-- 40 + 5 -->
     <g transform="translate(394.714549 456.292113) scale(0.11 -0.11)">
      <use xlink:href="#DejaVuSans-34"/>
      <use xlink:href="#DejaVuSans-30" transform="translate(63.623047 0)"/>
      <use xlink:href="#DejaVuSans-20" transform="translate(127.246094 0)"/>
      <use xlink:href="#DejaVuSans-2b" transform="translate(159.033203 0)"/>
      <use xlink:href="#DejaVuSans-20" transform="translate(242.822266 0)"/>
      <use xlink:href="#DejaVuSans-35" transform="translate(274.609375 0)"/>
     </g>
    </g>
    <g id="patch_31">
     <path d="M 455.236416 466.4568 
L 528.594624 466.4568 
L 528.594624 440.0568 
L 455.236416 440.0568 
z
" style="fill: #ffffff; stroke: #000000; stroke-linejoin: miter"/>
    </g>
    <g id="text_32">
     <!-- 45 -->
     <g transform="translate(484.91677 456.292113) scale(0.11 -0.11)">
      <use xlink:href="#DejaVuSans-34"/>
      <use xlink:href="#DejaVuSans-35" transform="translate(63.623047 0)"/>
     </g>
    </g>
    <g id="patch_32">
     <path d="M 88.445376 492.8568 
L 172.283328 492.8568 
L 172.283328 466.4568 
L 88.445376 466.4568 
z
" style="fill: #f4f6fb; stroke: #000000; stroke-linejoin: miter"/>
    </g>
    <g id="text_33">
     <!-- 9 × 6 -->
     <g transform="translate(115.260836 482.692113) scale(0.11 -0.11)">
      <use xlink:href="#DejaVuSans-39"/>
      <use xlink:href="#DejaVuSans-20" transform="translate(63.623047 0)"/>
      <use xlink:href="#DejaVuSans-d7" transform="translate(95.410156 0)"/>
      <use xlink:href="#DejaVuSans-20" transform="translate(179.199219 0)"/>
      <use xlink:href="#DejaVuSans-36" transform="translate(210.986328 0)"/>
     </g>
    </g>
    <g id="patch_33">
     <path d="M 172.283328 492.8568 
L 277.080768 492.8568 
L 277.080768 466.4568 
L 172.283328 466.4568 
z
" style="fill: #f4f6fb; stroke: #000000; stroke-linejoin: miter"/>
    </g>
    <g id="text_34">
     <!-- 5 doigts -->
     <g transform="translate(202.536814 482.692113) scale(0.11 -0.11)">
      <use xlink:href="#DejaVuSans-35"/>
      <use xlink:href="#DejaVuSans-20" transform="translate(63.623047 0)"/>
      <use xlink:href="#DejaVuSans-64" transform="translate(95.410156 0)"/>
      <use xlink:href="#DejaVuSans-6f" transform="translate(158.886719 0)"/>
      <use xlink:href="#DejaVuSans-69" transform="translate(220.068359 0)"/>
      <use xlink:href="#DejaVuSans-67" transform="translate(247.851562 0)"/>
      <use xlink:href="#DejaVuSans-74" transform="translate(311.328125 0)"/>
      <use xlink:href="#DejaVuSans-73" transform="translate(350.537109 0)"/>
     </g>
    </g>
    <g id="patch_34">
     <path d="M 277.080768 492.8568 
L 371.398464 492.8568 
L 371.398464 466.4568 
L 277.080768 466.4568 
z
" style="fill: #f4f6fb; stroke: #000000; stroke-linejoin: miter"/>
    </g>
    <g id="text_35">
     <!-- 4 doigts -->
     <g transform="translate(302.094382 482.692113) scale(0.11 -0.11)">
      <use xlink:href="#DejaVuSans-34"/>
      <use xlink:href="#DejaVuSans-20" transform="translate(63.623047 0)"/>
      <use xlink:href="#DejaVuSans-64" transform="translate(95.410156 0)"/>
      <use xlink:href="#DejaVuSans-6f" transform="translate(158.886719 0)"/>
      <use xlink:href="#DejaVuSans-69" transform="translate(220.068359 0)"/>
      <use xlink:href="#DejaVuSans-67" transform="translate(247.851562 0)"/>
      <use xlink:href="#DejaVuSans-74" transform="translate(311.328125 0)"/>
      <use xlink:href="#DejaVuSans-73" transform="translate(350.537109 0)"/>
     </g>
    </g>
    <g id="patch_35">
     <path d="M 371.398464 492.8568 
L 455.236416 492.8568 
L 455.236416 466.4568 
L 371.398464 466.4568 
z
" style="fill: #f4f6fb; stroke: #000000; stroke-linejoin: miter"/>
    </g>
    <g id="text_36">
     <!-- 50 + 4 -->
     <g transform="translate(394.714549 482.692113) scale(0.11 -0.11)">
      <use xlink:href="#DejaVuSans-35"/>
      <use xlink:href="#DejaVuSans-30" transform="translate(63.623047 0)"/>
      <use xlink:href="#DejaVuSans-20" transform="translate(127.246094 0)"/>
      <use xlink:href="#DejaVuSans-2b" transform="translate(159.033203 0)"/>
      <use xlink:href="#DejaVuSans-20" transform="translate(242.822266 0)"/>
      <use xlink:href="#DejaVuSans-34" transform="translate(274.609375 0)"/>
     </g>
    </g>
    <g id="patch_36">
     <path d="M 455.236416 492.8568 
L 528.594624 492.8568 
L 528.594624 466.4568 
L 455.236416 466.4568 
z
" style="fill: #f4f6fb; stroke: #000000; stroke-linejoin: miter"/>
    </g>
    <g id="text_37">
     <!-- 54 -->
     <g transform="translate(484.91677 482.692113) scale(0.11 -0.11)">
      <use xlink:href="#DejaVuSans-35"/>
      <use xlink:href="#DejaVuSans-34" transform="translate(63.623047 0)"/>
     </g>
    </g>
    <g id="patch_37">
     <path d="M 88.445376 519.2568 
L 172.283328 519.2568 
L 172.283328 492.8568 
L 88.445376 492.8568 
z
" style="fill: #ffffff; stroke: #000000; stroke-linejoin: miter"/>
    </g>
    <g id="text_38">
     <!-- 9 × 7 -->
     <g transform="translate(115.260836 509.092113) scale(0.11 -0.11)">
      <use xlink:href="#DejaVuSans-39"/>
      <use xlink:href="#DejaVuSans-20" transform="translate(63.623047 0)"/>
      <use xlink:href="#DejaVuSans-d7" transform="translate(95.410156 0)"/>
      <use xlink:href="#DejaVuSans-20" transform="translate(179.199219 0)"/>
      <use xlink:href="#DejaVuSans-37" transform="translate(210.986328 0)"/>
     </g>
    </g>
    <g id="patch_38">
     <path d="M 172.283328 519.2568 
L 277.080768 519.2568 
L 277.080768 492.8568 
L 172.283328 492.8568 
z
" style="fill: #ffffff; stroke: #000000; stroke-linejoin: miter"/>
    </g>
    <g id="text_39">
     <!-- 6 doigts -->
     <g transform="translate(202.536814 509.092113) scale(0.11 -0.11)">
      <use xlink:href="#DejaVuSans-36"/>
      <use xlink:href="#DejaVuSans-20" transform="translate(63.623047 0)"/>
      <use xlink:href="#DejaVuSans-64" transform="translate(95.410156 0)"/>
      <use xlink:href="#DejaVuSans-6f" transform="translate(158.886719 0)"/>
      <use xlink:href="#DejaVuSans-69" transform="translate(220.068359 0)"/>
      <use xlink:href="#DejaVuSans-67" transform="translate(247.851562 0)"/>
      <use xlink:href="#DejaVuSans-74" transform="translate(311.328125 0)"/>
      <use xlink:href="#DejaVuSans-73" transform="translate(350.537109 0)"/>
     </g>
    </g>
    <g id="patch_39">
     <path d="M 277.080768 519.2568 
L 371.398464 519.2568 
L 371.398464 492.8568 
L 277.080768 492.8568 
z
" style="fill: #ffffff; stroke: #000000; stroke-linejoin: miter"/>
    </g>
    <g id="text_40">
     <!-- 3 doigts -->
     <g transform="translate(302.094382 509.092113) scale(0.11 -0.11)">
      <use xlink:href="#DejaVuSans-33"/>
      <use xlink:href="#DejaVuSans-20" transform="translate(63.623047 0)"/>
      <use xlink:href="#DejaVuSans-64" transform="translate(95.410156 0)"/>
      <use xlink:href="#DejaVuSans-6f" transform="translate(158.886719 0)"/>
      <use xlink:href="#DejaVuSans-69" transform="translate(220.068359 0)"/>
      <use xlink:href="#DejaVuSans-67" transform="translate(247.851562 0)"/>
      <use xlink:href="#DejaVuSans-74" transform="translate(311.328125 0)"/>
      <use xlink:href="#DejaVuSans-73" transform="translate(350.537109 0)"/>
     </g>
    </g>
    <g id="patch_40">
     <path d="M 371.398464 519.2568 
L 455.236416 519.2568 
L 455.236416 492.8568 
L 371.398464 492.8568 
z
" style="fill: #ffffff; stroke: #000000; stroke-linejoin: miter"/>
    </g>
    <g id="text_41">
     <!-- 60 + 3 -->
     <g transform="translate(394.714549 509.092113) scale(0.11 -0.11)">
      <use xlink:href="#DejaVuSans-36"/>
      <use xlink:href="#DejaVuSans-30" transform="translate(63.623047 0)"/>
      <use xlink:href="#DejaVuSans-20" transform="translate(127.246094 0)"/>
      <use xlink:href="#DejaVuSans-2b" transform="translate(159.033203 0)"/>
      <use xlink:href="#DejaVuSans-20" transform="translate(242.822266 0)"/>
      <use xlink:href="#DejaVuSans-33" transform="translate(274.609375 0)"/>
     </g>
    </g>
    <g id="patch_41">
     <path d="M 455.236416 519.2568 
L 528.594624 519.2568 
L 528.594624 492.8568 
L 455.236416 492.8568 
z
" style="fill: #ffffff; stroke: #000000; stroke-linejoin: miter"/>
    </g>
    <g id="text_42">
     <!-- 63 -->
     <g transform="translate(484.91677 509.092113) scale(0.11 -0.11)">
      <use xlink:href="#DejaVuSans-36"/>
      <use xlink:href="#DejaVuSans-33" transform="translate(63.623047 0)"/>
     </g>
    </g>
    <g id="patch_42">
     <path d="M 88.445376 545.6568 
L 172.283328 545.6568 
L 172.283328 519.2568 
L 88.445376 519.2568 
z
" style="fill: #f4f6fb; stroke: #000000; stroke-linejoin: miter"/>
    </g>
    <g id="text_43">
     <!-- 9 × 8 -->
     <g transform="translate(115.260836 535.492113) scale(0.11 -0.11)">
      <use xlink:href="#DejaVuSans-39"/>
      <use xlink:href="#DejaVuSans-20" transform="translate(63.623047 0)"/>
      <use xlink:href="#DejaVuSans-d7" transform="translate(95.410156 0)"/>
      <use xlink:href="#DejaVuSans-20" transform="translate(179.199219 0)"/>
      <use xlink:href="#DejaVuSans-38" transform="translate(210.986328 0)"/>
     </g>
    </g>
    <g id="patch_43">
     <path d="M 172.283328 545.6568 
L 277.080768 545.6568 
L 277.080768 519.2568 
L 172.283328 519.2568 
z
" style="fill: #f4f6fb; stroke: #000000; stroke-linejoin: miter"/>
    </g>
    <g id="text_44">
     <!-- 7 doigts -->
     <g transform="translate(202.536814 535.492113) scale(0.11 -0.11)">
      <use xlink:href="#DejaVuSans-37"/>
      <use xlink:href="#DejaVuSans-20" transform="translate(63.623047 0)"/>
      <use xlink:href="#DejaVuSans-64" transform="translate(95.410156 0)"/>
      <use xlink:href="#DejaVuSans-6f" transform="translate(158.886719 0)"/>
      <use xlink:href="#DejaVuSans-69" transform="translate(220.068359 0)"/>
      <use xlink:href="#DejaVuSans-67" transform="translate(247.851562 0)"/>
      <use xlink:href="#DejaVuSans-74" transform="translate(311.328125 0)"/>
      <use xlink:href="#DejaVuSans-73" transform="translate(350.537109 0)"/>
     </g>
    </g>
    <g id="patch_44">
     <path d="M 277.080768 545.6568 
L 371.398464 545.6568 
L 371.398464 519.2568 
L 277.080768 519.2568 
z
" style="fill: #f4f6fb; stroke: #000000; stroke-linejoin: miter"/>
    </g>
    <g id="text_45">
     <!-- 2 doigts -->
     <g transform="translate(302.094382 535.492113) scale(0.11 -0.11)">
      <use xlink:href="#DejaVuSans-32"/>
      <use xlink:href="#DejaVuSans-20" transform="translate(63.623047 0)"/>
      <use xlink:href="#DejaVuSans-64" transform="translate(95.410156 0)"/>
      <use xlink:href="#DejaVuSans-6f" transform="translate(158.886719 0)"/>
      <use xlink:href="#DejaVuSans-69" transform="translate(220.068359 0)"/>
      <use xlink:href="#DejaVuSans-67" transform="translate(247.851562 0)"/>
      <use xlink:href="#DejaVuSans-74" transform="translate(311.328125 0)"/>
      <use xlink:href="#DejaVuSans-73" transform="translate(350.537109 0)"/>
     </g>
    </g>
    <g id="patch_45">
     <path d="M 371.398464 545.6568 
L 455.236416 545.6568 
L 455.236416 519.2568 
L 371.398464 519.2568 
z
" style="fill: #f4f6fb; stroke: #000000; stroke-linejoin: miter"/>
    </g>
    <g id="text_46">
     <!-- 70 + 2 -->
     <g transform="translate(394.714549 535.492113) scale(0.11 -0.11)">
      <use xlink:href="#DejaVuSans-37"/>
      <use xlink:href="#DejaVuSans-30" transform="translate(63.623047 0)"/>
      <use xlink:href="#DejaVuSans-20" transform="translate(127.246094 0)"/>
      <use xlink:href="#DejaVuSans-2b" transform="translate(159.033203 0)"/>
      <use xlink:href="#DejaVuSans-20" transform="translate(242.822266 0)"/>
      <use xlink:href="#DejaVuSans-32" transform="translate(274.609375 0)"/>
     </g>
    </g>
    <g id="patch_46">
     <path d="M 455.236416 545.6568 
L 528.594624 545.6568 
L 528.594624 519.2568 
L 455.236416 519.2568 
z
" style="fill: #f4f6fb; stroke: #000000; stroke-linejoin: miter"/>
    </g>
    <g id="text_47">
     <!-- 72 -->
     <g transform="translate(484.91677 535.492113) scale(0.11 -0.11)">
      <use xlink:href="#DejaVuSans-37"/>
      <use xlink:href="#DejaVuSans-32" transform="translate(63.623047 0)"/>
     </g>
    </g>
    <g id="patch_47">
     <path d="M 88.445376 572.0568 
L 172.283328 572.0568 
L 172.283328 545.6568 
L 88.445376 545.6568 
z
" style="fill: #ffffff; stroke: #000000; stroke-linejoin: miter"/>
    </g>
    <g id="text_48">
     <!-- 9 × 9 -->
     <g transform="translate(115.260836 561.892113) scale(0.11 -0.11)">
      <use xlink:href="#DejaVuSans-39"/>
      <use xlink:href="#DejaVuSans-20" transform="translate(63.623047 0)"/>
      <use xlink:href="#DejaVuSans-d7" transform="translate(95.410156 0)"/>
      <use xlink:href="#DejaVuSans-20" transform="translate(179.199219 0)"/>
      <use xlink:href="#DejaVuSans-39" transform="translate(210.986328 0)"/>
     </g>
    </g>
    <g id="patch_48">
     <path d="M 172.283328 572.0568 
L 277.080768 572.0568 
L 277.080768 545.6568 
L 172.283328 545.6568 
z
" style="fill: #ffffff; stroke: #000000; stroke-linejoin: miter"/>
    </g>
    <g id="text_49">
     <!-- 8 doigts -->
     <g transform="translate(202.536814 561.892113) scale(0.11 -0.11)">
      <use xlink:href="#DejaVuSans-38"/>
      <use xlink:href="#DejaVuSans-20" transform="translate(63.623047 0)"/>
      <use xlink:href="#DejaVuSans-64" transform="translate(95.410156 0)"/>
      <use xlink:href="#DejaVuSans-6f" transform="translate(158.886719 0)"/>
      <use xlink:href="#DejaVuSans-69" transform="translate(220.068359 0)"/>
      <use xlink:href="#DejaVuSans-67" transform="translate(247.851562 0)"/>
      <use xlink:href="#DejaVuSans-74" transform="translate(311.328125 0)"/>
      <use xlink:href="#DejaVuSans-73" transform="translate(350.537109 0)"/>
     </g>
    </g>
    <g id="patch_49">
     <path d="M 277.080768 572.0568 
L 371.398464 572.0568 
L 371.398464 545.6568 
L 277.080768 545.6568 
z
" style="fill: #ffffff; stroke: #000000; stroke-linejoin: miter"/>
    </g>
    <g id="text_50">
     <!-- 1 doigts -->
     <g transform="translate(302.094382 561.892113) scale(0.11 -0.11)">
      <use xlink:href="#DejaVuSans-31"/>
      <use xlink:href="#DejaVuSans-20" transform="translate(63.623047 0)"/>
      <use xlink:href="#DejaVuSans-64" transform="translate(95.410156 0)"/>
      <use xlink:href="#DejaVuSans-6f" transform="translate(158.886719 0)"/>
      <use xlink:href="#DejaVuSans-69" transform="translate(220.068359 0)"/>
      <use xlink:href="#DejaVuSans-67" transform="translate(247.851562 0)"/>
      <use xlink:href="#DejaVuSans-74" transform="translate(311.328125 0)"/>
      <use xlink:href="#DejaVuSans-73" transform="translate(350.537109 0)"/>
     </g>
    </g>
    <g id="patch_50">
     <path d="M 371.398464 572.0568 
L 455.236416 572.0568 
L 455.236416 545.6568 
L 371.398464 545.6568 
z
" style="fill: #ffffff; stroke: #000000; stroke-linejoin: miter"/>
    </g>
    <g id="text_51">
     <!-- 80 + 1 -->
     <g transform="translate(394.714549 561.892113) scale(0.11 -0.11)">
      <use xlink:href="#DejaVuSans-38"/>
      <use xlink:href="#DejaVuSans-30" transform="translate(63.623047 0)"/>
      <use xlink:href="#DejaVuSans-20" transform="translate(127.246094 0)"/>
      <use xlink:href="#DejaVuSans-2b" transform="translate(159.033203 0)"/>
      <use xlink:href="#DejaVuSans-20" transform="translate(242.822266 0)"/>
      <use xlink:href="#DejaVuSans-31" transform="translate(274.609375 0)"/>
     </g>
    </g>
    <g id="patch_51">
     <path d="M 455.236416 572.0568 
L 528.594624 572.0568 
L 528.594624 545.6568 
L 455.236416 545.6568 
z
" style="fill: #ffffff; stroke: #000000; stroke-linejoin: miter"/>
    </g>
    <g id="text_52">
     <!-- 81 -->
     <g transform="translate(484.91677 561.892113) scale(0.11 -0.11)">
      <use xlink:href="#DejaVuSans-38"/>
      <use xlink:href="#DejaVuSans-31" transform="translate(63.623047 0)"/>
     </g>
    </g>
   </g>
   <g id="text_53">
    <!-- Le savais-tu (Finlande/Davydov) : les chiffres du résultat font TOUJOURS 9. -->
    <g style="fill: #f0a500" transform="translate(75.448906 747.690267) scale(0.11 -0.11)">
     <defs>
      <path id="DejaVuSans-BoldOblique-4c" d="M 1044 4666 
L 2247 4666 
L 1516 909 
L 3622 909 
L 3450 0 
L 134 0 
L 1044 4666 
z
" transform="scale(0.015625)"/>
      <path id="DejaVuSans-BoldOblique-65" d="M 4025 1619 
L 3988 1441 
L 1369 1441 
Q 1369 1422 1366 1386 
Q 1363 1350 1363 1331 
Q 1363 991 1567 822 
Q 1772 653 2181 653 
Q 2534 653 2926 759 
Q 3319 866 3750 1075 
L 3578 206 
Q 3169 56 2764 -17 
Q 2359 -91 1941 -91 
Q 1122 -91 676 287 
Q 231 666 231 1356 
Q 231 1756 373 2132 
Q 516 2509 788 2822 
Q 1109 3197 1557 3390 
Q 2006 3584 2553 3584 
Q 3263 3584 3680 3206 
Q 4097 2828 4097 2188 
Q 4097 2063 4080 1923 
Q 4063 1784 4025 1619 
z
M 2969 2131 
Q 2978 2172 2983 2214 
Q 2988 2256 2988 2297 
Q 2988 2547 2838 2694 
Q 2688 2841 2431 2841 
Q 2103 2841 1873 2661 
Q 1644 2481 1522 2131 
L 2969 2131 
z
" transform="scale(0.015625)"/>
      <path id="DejaVuSans-BoldOblique-20" transform="scale(0.015625)"/>
      <path id="DejaVuSans-BoldOblique-73" d="M 3584 3391 
L 3419 2522 
Q 3091 2678 2766 2759 
Q 2441 2841 2150 2841 
Q 1819 2841 1639 2755 
Q 1459 2669 1459 2509 
Q 1459 2416 1559 2359 
Q 1659 2303 1953 2241 
L 2156 2203 
Q 2834 2059 3106 1832 
Q 3378 1606 3378 1203 
Q 3378 594 2900 251 
Q 2422 -91 1563 -91 
Q 1203 -91 828 -34 
Q 453 22 63 134 
L 231 1013 
Q 534 834 879 743 
Q 1225 653 1588 653 
Q 1941 653 2119 737 
Q 2297 822 2297 984 
Q 2297 1097 2197 1159 
Q 2097 1222 1784 1288 
L 1581 1325 
Q 981 1450 725 1694 
Q 469 1938 469 2369 
Q 469 2953 911 3268 
Q 1353 3584 2175 3584 
Q 2534 3584 2882 3536 
Q 3231 3488 3584 3391 
z
" transform="scale(0.015625)"/>
      <path id="DejaVuSans-BoldOblique-61" d="M 2106 1575 
Q 1688 1575 1473 1445 
Q 1259 1316 1259 1063 
Q 1259 872 1386 762 
Q 1513 653 1734 653 
Q 2078 653 2309 861 
Q 2541 1069 2619 1447 
L 2644 1575 
L 2106 1575 
z
M 3853 1997 
L 3463 0 
L 2344 0 
L 2438 519 
Q 2163 206 1856 57 
Q 1550 -91 1191 -91 
Q 694 -91 401 167 
Q 109 425 109 863 
Q 109 1531 626 1886 
Q 1144 2241 2119 2241 
L 2778 2241 
L 2791 2328 
Q 2800 2372 2801 2390 
Q 2803 2409 2803 2425 
Q 2803 2631 2608 2736 
Q 2413 2841 2028 2841 
Q 1681 2841 1356 2769 
Q 1031 2697 728 2553 
L 897 3406 
Q 1247 3494 1614 3539 
Q 1981 3584 2375 3584 
Q 3153 3584 3531 3317 
Q 3909 3050 3909 2503 
Q 3909 2397 3895 2270 
Q 3881 2144 3853 1997 
z
" transform="scale(0.015625)"/>
      <path id="DejaVuSans-BoldOblique-76" d="M 403 3500 
L 1434 3500 
L 1888 1056 
L 3206 3500 
L 4341 3500 
L 2284 0 
L 1100 0 
L 403 3500 
z
" transform="scale(0.015625)"/>
      <path id="DejaVuSans-BoldOblique-69" d="M 878 3500 
L 2003 3500 
L 1319 0 
L 197 0 
L 878 3500 
z
M 1141 4863 
L 2266 4863 
L 2088 3950 
L 959 3950 
L 1141 4863 
z
" transform="scale(0.015625)"/>
      <path id="DejaVuSans-BoldOblique-2d" d="M 341 2297 
L 2303 2297 
L 2125 1388 
L 159 1388 
L 341 2297 
z
" transform="scale(0.015625)"/>
      <path id="DejaVuSans-BoldOblique-74" d="M 2303 4494 
L 2113 3500 
L 3256 3500 
L 3097 2700 
L 1953 2700 
L 1666 1219 
Q 1653 1169 1648 1134 
Q 1644 1100 1644 1069 
Q 1644 925 1739 862 
Q 1834 800 2059 800 
L 2638 800 
L 2478 0 
L 1538 0 
Q 1031 0 765 212 
Q 500 425 500 825 
Q 500 913 509 1013 
Q 519 1113 538 1216 
L 825 2700 
L 275 2700 
L 428 3500 
L 984 3500 
L 1178 4494 
L 2303 4494 
z
" transform="scale(0.015625)"/>
      <path id="DejaVuSans-BoldOblique-75" d="M 434 1363 
L 844 3500 
L 1966 3500 
L 1613 1678 
Q 1575 1500 1556 1375 
Q 1538 1250 1538 1178 
Q 1538 981 1647 872 
Q 1756 763 1959 763 
Q 2306 763 2556 1031 
Q 2806 1300 2900 1778 
L 3238 3500 
L 4359 3500 
L 3681 0 
L 2553 0 
L 2656 513 
Q 2369 209 2053 59 
Q 1738 -91 1388 -91 
Q 909 -91 646 162 
Q 384 416 384 878 
Q 384 988 396 1109 
Q 409 1231 434 1363 
z
" transform="scale(0.015625)"/>
      <path id="DejaVuSans-BoldOblique-28" d="M 1888 -844 
L 978 -844 
Q 734 -325 614 173 
Q 494 672 494 1166 
Q 494 2088 891 3008 
Q 1288 3928 2088 4856 
L 2994 4856 
Q 2266 3888 1908 2939 
Q 1550 1991 1550 1038 
Q 1550 569 1634 101 
Q 1719 -366 1888 -844 
z
" transform="scale(0.015625)"/>
      <path id="DejaVuSans-BoldOblique-46" d="M 1044 4666 
L 4288 4666 
L 4109 3756 
L 2069 3756 
L 1900 2888 
L 3822 2888 
L 3641 1978 
L 1722 1978 
L 1338 0 
L 134 0 
L 1044 4666 
z
" transform="scale(0.015625)"/>
      <path id="DejaVuSans-BoldOblique-6e" d="M 4128 2131 
L 3713 0 
L 2591 0 
L 2944 1825 
Q 2981 2003 3001 2126 
Q 3022 2250 3022 2322 
Q 3022 2522 2911 2631 
Q 2800 2741 2597 2741 
Q 2250 2741 2001 2470 
Q 1753 2200 1656 1722 
L 1319 0 
L 197 0 
L 878 3500 
L 2003 3500 
L 1900 2988 
Q 2209 3291 2521 3437 
Q 2834 3584 3175 3584 
Q 3659 3584 3921 3331 
Q 4184 3078 4184 2619 
Q 4184 2519 4170 2397 
Q 4156 2275 4128 2131 
z
" transform="scale(0.015625)"/>
      <path id="DejaVuSans-BoldOblique-6c" d="M 1141 4863 
L 2266 4863 
L 1319 0 
L 197 0 
L 1141 4863 
z
" transform="scale(0.015625)"/>
      <path id="DejaVuSans-BoldOblique-64" d="M 1966 722 
Q 2397 722 2667 1119 
Q 2938 1516 2938 2156 
Q 2938 2447 2786 2609 
Q 2634 2772 2363 2772 
Q 1938 2772 1663 2380 
Q 1388 1988 1388 1375 
Q 1388 1056 1536 889 
Q 1684 722 1966 722 
z
M 3144 2988 
L 3506 4863 
L 4634 4863 
L 3688 0 
L 2559 0 
L 2663 506 
Q 2406 200 2125 54 
Q 1844 -91 1509 -91 
Q 919 -91 575 284 
Q 231 659 231 1306 
Q 231 1709 351 2090 
Q 472 2472 697 2784 
Q 981 3178 1339 3381 
Q 1697 3584 2106 3584 
Q 2466 3584 2717 3439 
Q 2969 3294 3144 2988 
z
" transform="scale(0.015625)"/>
      <path id="DejaVuSans-BoldOblique-2f" d="M 2053 4666 
L 2778 4666 
L 109 -594 
L -616 -594 
L 2053 4666 
z
" transform="scale(0.015625)"/>
      <path id="DejaVuSans-BoldOblique-44" d="M 2075 3756 
L 1516 909 
L 1947 909 
Q 2788 909 3278 1381 
Q 3769 1853 3769 2656 
Q 3769 3200 3448 3478 
Q 3128 3756 2497 3756 
L 2075 3756 
z
M 1044 4666 
L 2309 4666 
Q 3216 4666 3669 4558 
Q 4122 4450 4422 4197 
Q 4725 3944 4878 3583 
Q 5031 3222 5031 2766 
Q 5031 2131 4770 1570 
Q 4509 1009 4038 628 
Q 3625 288 3079 144 
Q 2534 0 1403 0 
L 134 0 
L 1044 4666 
z
" transform="scale(0.015625)"/>
      <path id="DejaVuSans-BoldOblique-79" d="M 422 3500 
L 1478 3500 
L 1959 1075 
L 3200 3500 
L 4397 3500 
L 2181 -331 
Q 1809 -978 1493 -1179 
Q 1178 -1381 678 -1381 
L 0 -1381 
L 116 -647 
L 469 -647 
Q 744 -647 895 -555 
Q 1047 -463 1166 -231 
L 1269 -44 
L 422 3500 
z
" transform="scale(0.015625)"/>
      <path id="DejaVuSans-BoldOblique-6f" d="M 2400 2784 
Q 1966 2784 1684 2390 
Q 1403 1997 1403 1388 
Q 1403 1056 1554 882 
Q 1706 709 1997 709 
Q 2431 709 2712 1104 
Q 2994 1500 2994 2113 
Q 2994 2441 2842 2612 
Q 2691 2784 2400 2784 
z
M 2491 3584 
Q 3272 3584 3719 3187 
Q 4166 2791 4166 2106 
Q 4166 1709 4025 1336 
Q 3884 963 3616 653 
Q 3297 284 2862 96 
Q 2428 -91 1894 -91 
Q 1122 -91 676 306 
Q 231 703 231 1388 
Q 231 1781 375 2157 
Q 519 2534 788 2847 
Q 1100 3209 1533 3396 
Q 1966 3584 2491 3584 
z
" transform="scale(0.015625)"/>
      <path id="DejaVuSans-BoldOblique-29" d="M 934 4856 
L 1850 4856 
Q 2091 4344 2209 3845 
Q 2328 3347 2328 2847 
Q 2328 1916 1933 995 
Q 1538 75 744 -844 
L -172 -844 
Q 556 125 915 1075 
Q 1275 2025 1275 2981 
Q 1275 3450 1190 3914 
Q 1106 4378 934 4856 
z
" transform="scale(0.015625)"/>
      <path id="DejaVuSans-BoldOblique-3a" d="M 941 3500 
L 2069 3500 
L 1838 2291 
L 709 2291 
L 941 3500 
z
M 500 1209 
L 1625 1209 
L 1388 0 
L 263 0 
L 500 1209 
z
" transform="scale(0.015625)"/>
      <path id="DejaVuSans-BoldOblique-63" d="M 3719 3391 
L 3541 2478 
Q 3316 2628 3097 2706 
Q 2878 2784 2669 2784 
Q 2122 2784 1775 2417 
Q 1428 2050 1428 1478 
Q 1428 1113 1643 911 
Q 1859 709 2253 709 
Q 2516 709 2769 787 
Q 3022 866 3250 1019 
L 3078 103 
Q 2800 6 2519 -42 
Q 2238 -91 1953 -91 
Q 1128 -91 683 279 
Q 238 650 238 1331 
Q 238 1759 402 2162 
Q 566 2566 872 2888 
Q 1213 3241 1653 3412 
Q 2094 3584 2669 3584 
Q 2934 3584 3196 3536 
Q 3459 3488 3719 3391 
z
" transform="scale(0.015625)"/>
      <path id="DejaVuSans-BoldOblique-68" d="M 4128 2131 
L 3713 0 
L 2591 0 
L 2944 1825 
Q 2981 2003 3001 2126 
Q 3022 2250 3022 2322 
Q 3022 2522 2911 2631 
Q 2800 2741 2597 2741 
Q 2250 2741 2001 2470 
Q 1753 2200 1656 1722 
L 1319 0 
L 197 0 
L 1141 4863 
L 2266 4863 
L 1900 2988 
Q 2209 3291 2521 3437 
Q 2834 3584 3175 3584 
Q 3659 3584 3921 3331 
Q 4184 3078 4184 2619 
Q 4184 2519 4170 2397 
Q 4156 2275 4128 2131 
z
" transform="scale(0.015625)"/>
      <path id="DejaVuSans-BoldOblique-66" d="M 3456 4863 
L 3309 4128 
L 2694 4128 
Q 2459 4128 2351 4042 
Q 2244 3956 2203 3747 
L 2150 3500 
L 3097 3500 
L 2944 2700 
L 1997 2700 
L 1472 0 
L 347 0 
L 872 2700 
L 319 2700 
L 475 3500 
L 1025 3500 
L 1075 3744 
Q 1191 4325 1556 4594 
Q 1922 4863 2597 4863 
L 3456 4863 
z
" transform="scale(0.015625)"/>
      <path id="DejaVuSans-BoldOblique-72" d="M 3291 2547 
Q 3175 2613 3034 2647 
Q 2894 2681 2731 2681 
Q 2303 2681 2020 2406 
Q 1738 2131 1638 1613 
L 1319 0 
L 197 0 
L 878 3500 
L 2003 3500 
L 1881 2900 
Q 2103 3231 2436 3407 
Q 2769 3584 3175 3584 
Q 3234 3584 3309 3578 
Q 3384 3572 3488 3559 
L 3291 2547 
z
" transform="scale(0.015625)"/>
      <path id="DejaVuSans-BoldOblique-e9" d="M 4025 1619 
L 3988 1441 
L 1369 1441 
Q 1369 1422 1366 1386 
Q 1363 1350 1363 1331 
Q 1363 991 1567 822 
Q 1772 653 2181 653 
Q 2534 653 2926 759 
Q 3319 866 3750 1075 
L 3578 206 
Q 3169 56 2764 -17 
Q 2359 -91 1941 -91 
Q 1122 -91 676 287 
Q 231 666 231 1356 
Q 231 1756 373 2132 
Q 516 2509 788 2822 
Q 1109 3197 1557 3390 
Q 2006 3584 2553 3584 
Q 3263 3584 3680 3206 
Q 4097 2828 4097 2188 
Q 4097 2063 4080 1923 
Q 4063 1784 4025 1619 
z
M 2969 2131 
Q 2978 2172 2983 2214 
Q 2988 2256 2988 2297 
Q 2988 2547 2838 2694 
Q 2688 2841 2431 2841 
Q 2103 2841 1873 2661 
Q 1644 2481 1522 2131 
L 2969 2131 
z
M 3246 5119 
L 4162 5119 
L 2793 3944 
L 2165 3944 
L 3246 5119 
z
" transform="scale(0.015625)"/>
      <path id="DejaVuSans-BoldOblique-54" d="M 488 4666 
L 4788 4666 
L 4609 3756 
L 3059 3756 
L 2328 0 
L 1125 0 
L 1856 3756 
L 306 3756 
L 488 4666 
z
" transform="scale(0.015625)"/>
      <path id="DejaVuSans-BoldOblique-4f" d="M 3938 2753 
Q 3938 3303 3689 3590 
Q 3441 3878 2969 3878 
Q 2344 3878 1920 3317 
Q 1497 2756 1497 1913 
Q 1497 1375 1744 1078 
Q 1991 781 2431 781 
Q 2791 781 3070 932 
Q 3350 1084 3547 1381 
Q 3734 1666 3836 2022 
Q 3938 2378 3938 2753 
z
M 3144 4750 
Q 4075 4750 4642 4233 
Q 5209 3716 5209 2881 
Q 5209 2313 5036 1806 
Q 4863 1300 4531 897 
Q 4125 400 3570 154 
Q 3016 -91 2291 -91 
Q 1363 -91 797 425 
Q 231 941 231 1778 
Q 231 2350 403 2856 
Q 575 3363 909 3769 
Q 1309 4263 1864 4506 
Q 2419 4750 3144 4750 
z
" transform="scale(0.015625)"/>
      <path id="DejaVuSans-BoldOblique-55" d="M 1044 4666 
L 2247 4666 
L 1703 1872 
Q 1672 1722 1658 1606 
Q 1644 1491 1644 1403 
Q 1644 1097 1808 945 
Q 1972 794 2297 794 
Q 2734 794 2968 1039 
Q 3203 1284 3316 1869 
L 3859 4666 
L 5063 4666 
L 4519 1869 
Q 4316 838 3748 373 
Q 3181 -91 2125 -91 
Q 1297 -91 865 264 
Q 434 619 434 1294 
Q 434 1406 450 1545 
Q 466 1684 500 1869 
L 1044 4666 
z
" transform="scale(0.015625)"/>
      <path id="DejaVuSans-BoldOblique-4a" d="M 1044 4666 
L 2247 4666 
L 1428 453 
Q 1247 -459 717 -870 
Q 188 -1281 -819 -1281 
L -1063 -1281 
L -884 -372 
L -697 -372 
Q -325 -372 -89 -161 
Q 147 50 225 453 
L 1044 4666 
z
" transform="scale(0.015625)"/>
      <path id="DejaVuSans-BoldOblique-52" d="M 2350 2597 
Q 2759 2597 2970 2787 
Q 3181 2978 3181 3347 
Q 3181 3578 3036 3686 
Q 2891 3794 2578 3794 
L 2081 3794 
L 1844 2597 
L 2350 2597 
z
M 1684 1766 
L 1338 0 
L 134 0 
L 1044 4666 
L 2822 4666 
Q 3591 4666 3987 4378 
Q 4384 4091 4384 3531 
Q 4384 2966 4071 2600 
Q 3759 2234 3225 2181 
Q 3469 2131 3631 1932 
Q 3794 1734 3916 1325 
L 4313 0 
L 3116 0 
L 2766 1159 
Q 2659 1506 2507 1636 
Q 2356 1766 2069 1766 
L 1684 1766 
z
" transform="scale(0.015625)"/>
      <path id="DejaVuSans-BoldOblique-53" d="M 4256 4519 
L 4063 3531 
Q 3709 3706 3365 3792 
Q 3022 3878 2694 3878 
Q 2244 3878 1992 3737 
Q 1741 3597 1741 3347 
Q 1741 3188 1852 3098 
Q 1963 3009 2309 2925 
L 2803 2803 
Q 3422 2647 3711 2351 
Q 4000 2056 4000 1588 
Q 4000 828 3423 368 
Q 2847 -91 1875 -91 
Q 1422 -91 973 -6 
Q 525 78 97 244 
L 288 1259 
Q 703 1019 1095 900 
Q 1488 781 1869 781 
Q 2281 781 2539 950 
Q 2797 1119 2797 1381 
Q 2797 1553 2681 1648 
Q 2566 1744 2175 1844 
L 1684 1966 
Q 1141 2100 875 2390 
Q 609 2681 609 3144 
Q 609 3872 1167 4311 
Q 1725 4750 2669 4750 
Q 3047 4750 3445 4692 
Q 3844 4634 4256 4519 
z
" transform="scale(0.015625)"/>
      <path id="DejaVuSans-BoldOblique-39" d="M 263 103 
L 428 966 
Q 700 825 953 758 
Q 1206 691 1459 691 
Q 2041 691 2400 1003 
Q 2759 1316 2834 1881 
Q 2594 1722 2337 1645 
Q 2081 1569 1791 1569 
Q 1219 1569 853 1909 
Q 488 2250 488 2778 
Q 488 3641 1052 4192 
Q 1616 4744 2503 4744 
Q 3300 4744 3736 4292 
Q 4172 3841 4172 3016 
Q 4172 2381 3978 1801 
Q 3784 1222 3431 800 
Q 3056 353 2548 128 
Q 2041 -97 1403 -97 
Q 1106 -97 825 -47 
Q 544 3 263 103 
z
M 2169 2344 
Q 2525 2344 2753 2637 
Q 2981 2931 2981 3391 
Q 2981 3675 2845 3828 
Q 2709 3981 2456 3981 
Q 2103 3981 1870 3690 
Q 1638 3400 1638 2963 
Q 1638 2663 1775 2503 
Q 1913 2344 2169 2344 
z
" transform="scale(0.015625)"/>
      <path id="DejaVuSans-BoldOblique-2e" d="M 531 1209 
L 1656 1209 
L 1422 0 
L 294 0 
L 531 1209 
z
" transform="scale(0.015625)"/>
     </defs>
     <use xlink:href="#DejaVuSans-BoldOblique-4c"/>
     <use xlink:href="#DejaVuSans-BoldOblique-65" transform="translate(63.720703 0)"/>
     <use xlink:href="#DejaVuSans-BoldOblique-20" transform="translate(131.542969 0)"/>
     <use xlink:href="#DejaVuSans-BoldOblique-73" transform="translate(166.357422 0)"/>
     <use xlink:href="#DejaVuSans-BoldOblique-61" transform="translate(225.878906 0)"/>
     <use xlink:href="#DejaVuSans-BoldOblique-76" transform="translate(293.359375 0)"/>
     <use xlink:href="#DejaVuSans-BoldOblique-61" transform="translate(358.544922 0)"/>
     <use xlink:href="#DejaVuSans-BoldOblique-69" transform="translate(426.025391 0)"/>
     <use xlink:href="#DejaVuSans-BoldOblique-73" transform="translate(460.302734 0)"/>
     <use xlink:href="#DejaVuSans-BoldOblique-2d" transform="translate(519.824219 0)"/>
     <use xlink:href="#DejaVuSans-BoldOblique-74" transform="translate(561.328125 0)"/>
     <use xlink:href="#DejaVuSans-BoldOblique-75" transform="translate(609.130859 0)"/>
     <use xlink:href="#DejaVuSans-BoldOblique-20" transform="translate(680.322266 0)"/>
     <use xlink:href="#DejaVuSans-BoldOblique-28" transform="translate(715.136719 0)"/>
     <use xlink:href="#DejaVuSans-BoldOblique-46" transform="translate(760.839844 0)"/>
     <use xlink:href="#DejaVuSans-BoldOblique-69" transform="translate(829.150391 0)"/>
     <use xlink:href="#DejaVuSans-BoldOblique-6e" transform="translate(863.427734 0)"/>
     <use xlink:href="#DejaVuSans-BoldOblique-6c" transform="translate(934.619141 0)"/>
     <use xlink:href="#DejaVuSans-BoldOblique-61" transform="translate(968.896484 0)"/>
     <use xlink:href="#DejaVuSans-BoldOblique-6e" transform="translate(1036.376953 0)"/>
     <use xlink:href="#DejaVuSans-BoldOblique-64" transform="translate(1107.568359 0)"/>
     <use xlink:href="#DejaVuSans-BoldOblique-65" transform="translate(1179.150391 0)"/>
     <use xlink:href="#DejaVuSans-BoldOblique-2f" transform="translate(1246.972656 0)"/>
     <use xlink:href="#DejaVuSans-BoldOblique-44" transform="translate(1283.496094 0)"/>
     <use xlink:href="#DejaVuSans-BoldOblique-61" transform="translate(1366.503906 0)"/>
     <use xlink:href="#DejaVuSans-BoldOblique-76" transform="translate(1433.984375 0)"/>
     <use xlink:href="#DejaVuSans-BoldOblique-79" transform="translate(1499.169922 0)"/>
     <use xlink:href="#DejaVuSans-BoldOblique-64" transform="translate(1564.355469 0)"/>
     <use xlink:href="#DejaVuSans-BoldOblique-6f" transform="translate(1635.9375 0)"/>
     <use xlink:href="#DejaVuSans-BoldOblique-76" transform="translate(1704.638672 0)"/>
     <use xlink:href="#DejaVuSans-BoldOblique-29" transform="translate(1769.824219 0)"/>
     <use xlink:href="#DejaVuSans-BoldOblique-20" transform="translate(1815.527344 0)"/>
     <use xlink:href="#DejaVuSans-BoldOblique-3a" transform="translate(1850.341797 0)"/>
     <use xlink:href="#DejaVuSans-BoldOblique-20" transform="translate(1890.332031 0)"/>
     <use xlink:href="#DejaVuSans-BoldOblique-6c" transform="translate(1925.146484 0)"/>
     <use xlink:href="#DejaVuSans-BoldOblique-65" transform="translate(1959.423828 0)"/>
     <use xlink:href="#DejaVuSans-BoldOblique-73" transform="translate(2027.246094 0)"/>
     <use xlink:href="#DejaVuSans-BoldOblique-20" transform="translate(2086.767578 0)"/>
     <use xlink:href="#DejaVuSans-BoldOblique-63" transform="translate(2121.582031 0)"/>
     <use xlink:href="#DejaVuSans-BoldOblique-68" transform="translate(2180.859375 0)"/>
     <use xlink:href="#DejaVuSans-BoldOblique-69" transform="translate(2252.050781 0)"/>
     <use xlink:href="#DejaVuSans-BoldOblique-66" transform="translate(2286.328125 0)"/>
     <use xlink:href="#DejaVuSans-BoldOblique-66" transform="translate(2329.833984 0)"/>
     <use xlink:href="#DejaVuSans-BoldOblique-72" transform="translate(2373.339844 0)"/>
     <use xlink:href="#DejaVuSans-BoldOblique-65" transform="translate(2422.65625 0)"/>
     <use xlink:href="#DejaVuSans-BoldOblique-73" transform="translate(2490.478516 0)"/>
     <use xlink:href="#DejaVuSans-BoldOblique-20" transform="translate(2550 0)"/>
     <use xlink:href="#DejaVuSans-BoldOblique-64" transform="translate(2584.814453 0)"/>
     <use xlink:href="#DejaVuSans-BoldOblique-75" transform="translate(2656.396484 0)"/>
     <use xlink:href="#DejaVuSans-BoldOblique-20" transform="translate(2727.587891 0)"/>
     <use xlink:href="#DejaVuSans-BoldOblique-72" transform="translate(2762.402344 0)"/>
     <use xlink:href="#DejaVuSans-BoldOblique-e9" transform="translate(2811.71875 0)"/>
     <use xlink:href="#DejaVuSans-BoldOblique-73" transform="translate(2879.541016 0)"/>
     <use xlink:href="#DejaVuSans-BoldOblique-75" transform="translate(2939.0625 0)"/>
     <use xlink:href="#DejaVuSans-BoldOblique-6c" transform="translate(3010.253906 0)"/>
     <use xlink:href="#DejaVuSans-BoldOblique-74" transform="translate(3044.53125 0)"/>
     <use xlink:href="#DejaVuSans-BoldOblique-61" transform="translate(3092.333984 0)"/>
     <use xlink:href="#DejaVuSans-BoldOblique-74" transform="translate(3159.814453 0)"/>
     <use xlink:href="#DejaVuSans-BoldOblique-20" transform="translate(3207.617188 0)"/>
     <use xlink:href="#DejaVuSans-BoldOblique-66" transform="translate(3242.431641 0)"/>
     <use xlink:href="#DejaVuSans-BoldOblique-6f" transform="translate(3285.9375 0)"/>
     <use xlink:href="#DejaVuSans-BoldOblique-6e" transform="translate(3354.638672 0)"/>
     <use xlink:href="#DejaVuSans-BoldOblique-74" transform="translate(3425.830078 0)"/>
     <use xlink:href="#DejaVuSans-BoldOblique-20" transform="translate(3473.632812 0)"/>
     <use xlink:href="#DejaVuSans-BoldOblique-54" transform="translate(3508.447266 0)"/>
     <use xlink:href="#DejaVuSans-BoldOblique-4f" transform="translate(3576.660156 0)"/>
     <use xlink:href="#DejaVuSans-BoldOblique-55" transform="translate(3661.669922 0)"/>
     <use xlink:href="#DejaVuSans-BoldOblique-4a" transform="translate(3742.871094 0)"/>
     <use xlink:href="#DejaVuSans-BoldOblique-4f" transform="translate(3780.078125 0)"/>
     <use xlink:href="#DejaVuSans-BoldOblique-55" transform="translate(3865.087891 0)"/>
     <use xlink:href="#DejaVuSans-BoldOblique-52" transform="translate(3946.289062 0)"/>
     <use xlink:href="#DejaVuSans-BoldOblique-53" transform="translate(4023.291016 0)"/>
     <use xlink:href="#DejaVuSans-BoldOblique-20" transform="translate(4095.3125 0)"/>
     <use xlink:href="#DejaVuSans-BoldOblique-39" transform="translate(4130.126953 0)"/>
     <use xlink:href="#DejaVuSans-BoldOblique-2e" transform="translate(4199.707031 0)"/>
    </g>
    <!-- Ex. : 27 → 2+7=9 ; 54 → 5+4=9 ; 81 → 8+1=9. -->
    <g style="fill: #f0a500" transform="translate(168.581953 760.093798) scale(0.11 -0.11)">
     <defs>
      <path id="DejaVuSans-BoldOblique-45" d="M 1044 4666 
L 4288 4666 
L 4109 3756 
L 2069 3756 
L 1900 2888 
L 3822 2888 
L 3641 1978 
L 1722 1978 
L 1516 909 
L 3622 909 
L 3450 0 
L 134 0 
L 1044 4666 
z
" transform="scale(0.015625)"/>
      <path id="DejaVuSans-BoldOblique-78" d="M 1416 1791 
L 488 3500 
L 1650 3500 
L 2169 2463 
L 3078 3500 
L 4294 3500 
L 2700 1797 
L 3675 0 
L 2509 0 
L 1959 1106 
L 953 0 
L -263 0 
L 1416 1791 
z
" transform="scale(0.015625)"/>
      <path id="DejaVuSans-BoldOblique-32" d="M 1581 884 
L 3609 884 
L 3438 0 
L 50 0 
L 225 891 
L 2209 2388 
Q 2534 2638 2704 2894 
Q 2875 3150 2875 3391 
Q 2875 3647 2700 3787 
Q 2525 3928 2209 3928 
Q 1913 3928 1547 3811 
Q 1181 3694 722 3450 
L 922 4441 
Q 1347 4597 1756 4673 
Q 2166 4750 2566 4750 
Q 3278 4750 3687 4442 
Q 4097 4134 4097 3603 
Q 4097 3147 3847 2772 
Q 3597 2397 2747 1759 
L 1581 884 
z
" transform="scale(0.015625)"/>
      <path id="DejaVuSans-BoldOblique-37" d="M 922 4666 
L 4441 4666 
L 4300 3981 
L 1703 0 
L 500 0 
L 2969 3781 
L 756 3781 
L 922 4666 
z
" transform="scale(0.015625)"/>
      <path id="DejaVuSans-BoldOblique-2192" d="M 5050 2225 
L 5050 1788 
L 3822 559 
L 3369 1013 
L 3988 1631 
L 366 1631 
L 366 2381 
L 3988 2381 
L 3369 3000 
L 3822 3453 
L 5050 2225 
z
" transform="scale(0.015625)"/>
      <path id="DejaVuSans-BoldOblique-2b" d="M 3053 4013 
L 3053 2375 
L 4684 2375 
L 4684 1638 
L 3053 1638 
L 3053 0 
L 2309 0 
L 2309 1638 
L 678 1638 
L 678 2375 
L 2309 2375 
L 2309 4013 
L 3053 4013 
z
" transform="scale(0.015625)"/>
      <path id="DejaVuSans-BoldOblique-3d" d="M 678 3084 
L 4684 3084 
L 4684 2350 
L 678 2350 
L 678 3084 
z
M 678 1663 
L 4684 1663 
L 4684 922 
L 678 922 
L 678 1663 
z
" transform="scale(0.015625)"/>
      <path id="DejaVuSans-BoldOblique-3b" d="M 500 1209 
L 1625 1209 
L 1441 256 
L 441 -909 
L -225 -909 
L 313 256 
L 500 1209 
z
M 941 3500 
L 2069 3500 
L 1838 2291 
L 709 2291 
L 941 3500 
z
" transform="scale(0.015625)"/>
      <path id="DejaVuSans-BoldOblique-35" d="M 1131 4666 
L 4122 4666 
L 3950 3781 
L 1919 3781 
L 1778 3059 
Q 1916 3097 2064 3117 
Q 2213 3138 2363 3138 
Q 3078 3138 3481 2811 
Q 3884 2484 3884 1906 
Q 3884 988 3262 448 
Q 2641 -91 1575 -91 
Q 1184 -91 815 -14 
Q 447 63 84 219 
L 269 1166 
Q 616 941 942 834 
Q 1269 728 1606 728 
Q 2100 728 2397 986 
Q 2694 1244 2694 1663 
Q 2694 1963 2469 2139 
Q 2244 2316 1856 2316 
Q 1594 2316 1289 2248 
Q 984 2181 622 2041 
L 1131 4666 
z
" transform="scale(0.015625)"/>
      <path id="DejaVuSans-BoldOblique-34" d="M 2638 3641 
L 978 1722 
L 2259 1722 
L 2638 3641 
z
M 2606 4666 
L 3975 4666 
L 3397 1722 
L 4063 1722 
L 3897 850 
L 3231 850 
L 3066 0 
L 1925 0 
L 2094 850 
L -6 850 
L 197 1881 
L 2606 4666 
z
" transform="scale(0.015625)"/>
      <path id="DejaVuSans-BoldOblique-38" d="M 2150 2088 
Q 1784 2088 1539 1839 
Q 1294 1591 1294 1228 
Q 1294 969 1453 817 
Q 1613 666 1888 666 
Q 2259 666 2503 911 
Q 2747 1156 2747 1522 
Q 2747 1781 2586 1934 
Q 2425 2088 2150 2088 
z
M 1381 2484 
Q 1044 2625 876 2850 
Q 709 3075 709 3391 
Q 709 4025 1229 4387 
Q 1750 4750 2669 4750 
Q 3406 4750 3812 4475 
Q 4219 4200 4219 3700 
Q 4219 3256 3936 2940 
Q 3653 2625 3128 2484 
Q 3509 2338 3690 2091 
Q 3872 1844 3872 1466 
Q 3872 747 3311 328 
Q 2750 -91 1772 -91 
Q 1000 -91 570 217 
Q 141 525 141 1075 
Q 141 1572 470 1945 
Q 800 2319 1381 2484 
z
M 2559 3994 
Q 2241 3994 2048 3808 
Q 1856 3622 1856 3316 
Q 1856 3103 1995 2972 
Q 2134 2841 2363 2841 
Q 2681 2841 2873 3027 
Q 3066 3213 3066 3519 
Q 3066 3734 2927 3864 
Q 2788 3994 2559 3994 
z
" transform="scale(0.015625)"/>
      <path id="DejaVuSans-BoldOblique-31" d="M 441 831 
L 1503 831 
L 2088 3847 
L 953 3622 
L 1113 4441 
L 2241 4666 
L 3384 4666 
L 2644 831 
L 3700 831 
L 3541 0 
L 275 0 
L 441 831 
z
" transform="scale(0.015625)"/>
     </defs>
     <use xlink:href="#DejaVuSans-BoldOblique-45"/>
     <use xlink:href="#DejaVuSans-BoldOblique-78" transform="translate(68.310547 0)"/>
     <use xlink:href="#DejaVuSans-BoldOblique-2e" transform="translate(132.8125 0)"/>
     <use xlink:href="#DejaVuSans-BoldOblique-20" transform="translate(170.800781 0)"/>
     <use xlink:href="#DejaVuSans-BoldOblique-3a" transform="translate(205.615234 0)"/>
     <use xlink:href="#DejaVuSans-BoldOblique-20" transform="translate(245.605469 0)"/>
     <use xlink:href="#DejaVuSans-BoldOblique-32" transform="translate(280.419922 0)"/>
     <use xlink:href="#DejaVuSans-BoldOblique-37" transform="translate(350 0)"/>
     <use xlink:href="#DejaVuSans-BoldOblique-20" transform="translate(419.580078 0)"/>
     <use xlink:href="#DejaVuSans-BoldOblique-2192" transform="translate(454.394531 0)"/>
     <use xlink:href="#DejaVuSans-BoldOblique-20" transform="translate(538.183594 0)"/>
     <use xlink:href="#DejaVuSans-BoldOblique-32" transform="translate(572.998047 0)"/>
     <use xlink:href="#DejaVuSans-BoldOblique-2b" transform="translate(642.578125 0)"/>
     <use xlink:href="#DejaVuSans-BoldOblique-37" transform="translate(726.367188 0)"/>
     <use xlink:href="#DejaVuSans-BoldOblique-3d" transform="translate(795.947266 0)"/>
     <use xlink:href="#DejaVuSans-BoldOblique-39" transform="translate(879.736328 0)"/>
     <use xlink:href="#DejaVuSans-BoldOblique-20" transform="translate(949.316406 0)"/>
     <use xlink:href="#DejaVuSans-BoldOblique-3b" transform="translate(984.130859 0)"/>
     <use xlink:href="#DejaVuSans-BoldOblique-20" transform="translate(1024.121094 0)"/>
     <use xlink:href="#DejaVuSans-BoldOblique-35" transform="translate(1058.935547 0)"/>
     <use xlink:href="#DejaVuSans-BoldOblique-34" transform="translate(1128.515625 0)"/>
     <use xlink:href="#DejaVuSans-BoldOblique-20" transform="translate(1198.095703 0)"/>
     <use xlink:href="#DejaVuSans-BoldOblique-2192" transform="translate(1232.910156 0)"/>
     <use xlink:href="#DejaVuSans-BoldOblique-20" transform="translate(1316.699219 0)"/>
     <use xlink:href="#DejaVuSans-BoldOblique-35" transform="translate(1351.513672 0)"/>
     <use xlink:href="#DejaVuSans-BoldOblique-2b" transform="translate(1421.09375 0)"/>
     <use xlink:href="#DejaVuSans-BoldOblique-34" transform="translate(1504.882812 0)"/>
     <use xlink:href="#DejaVuSans-BoldOblique-3d" transform="translate(1574.462891 0)"/>
     <use xlink:href="#DejaVuSans-BoldOblique-39" transform="translate(1658.251953 0)"/>
     <use xlink:href="#DejaVuSans-BoldOblique-20" transform="translate(1727.832031 0)"/>
     <use xlink:href="#DejaVuSans-BoldOblique-3b" transform="translate(1762.646484 0)"/>
     <use xlink:href="#DejaVuSans-BoldOblique-20" transform="translate(1802.636719 0)"/>
     <use xlink:href="#DejaVuSans-BoldOblique-38" transform="translate(1837.451172 0)"/>
     <use xlink:href="#DejaVuSans-BoldOblique-31" transform="translate(1907.03125 0)"/>
     <use xlink:href="#DejaVuSans-BoldOblique-20" transform="translate(1976.611328 0)"/>
     <use xlink:href="#DejaVuSans-BoldOblique-2192" transform="translate(2011.425781 0)"/>
     <use xlink:href="#DejaVuSans-BoldOblique-20" transform="translate(2095.214844 0)"/>
     <use xlink:href="#DejaVuSans-BoldOblique-38" transform="translate(2130.029297 0)"/>
     <use xlink:href="#DejaVuSans-BoldOblique-2b" transform="translate(2199.609375 0)"/>
     <use xlink:href="#DejaVuSans-BoldOblique-31" transform="translate(2283.398438 0)"/>
     <use xlink:href="#DejaVuSans-BoldOblique-3d" transform="translate(2352.978516 0)"/>
     <use xlink:href="#DejaVuSans-BoldOblique-39" transform="translate(2436.767578 0)"/>
     <use xlink:href="#DejaVuSans-BoldOblique-2e" transform="translate(2506.347656 0)"/>
    </g>
   </g>
  </g>
 </g>
</svg>
