<?xml version="1.0" encoding="utf-8" standalone="no"?>
<!DOCTYPE svg PUBLIC "-//W3C//DTD SVG 1.1//EN"
  "http://www.w3.org/Graphics/SVG/1.1/DTD/svg11.dtd">
<svg xmlns:xlink="http://www.w3.org/1999/xlink" width="617.04pt" height="795.9456pt" viewBox="0 0 617.04 795.9456" xmlns="http://www.w3.org/2000/svg" version="1.1">
 <metadata>
  <rdf:RDF xmlns:dc="http://purl.org/dc/elements/1.1/" xmlns:cc="http://creativecommons.org/ns#" xmlns:rdf="http://www.w3.org/1999/02/22-rdf-syntax-ns#">
   <cc:Work>
    <dc:type rdf:resource="http://purl.org/dc/dcmitype/StillImage"/>
    <dc:date>2026-05-18T18:02:29.055256</dc:date>
    <dc:format>image/svg+xml</dc:format>
    <dc:creator>
     <cc:Agent>
      <dc:title>Matplotlib v3.10.9, https://matplotlib.org/</dc:title>
     </cc:Agent>
    </dc:creator>
   </cc:Work>
  </rdf:RDF>
 </metadata>
 <defs>
  <style type="text/css">*{stroke-linejoin: round; stroke-linecap: butt}</style>
 </defs>
 <g id="figure_1">
  <g id="patch_1">
   <path d="M -0 795.9456 
L 617.04 795.9456 
L 617.04 -0 
L -0 -0 
z
" style="fill: #ffffff"/>
  </g>
  <g id="axes_1">
   <g id="text_1">
    <!-- Sakuranbo — La 'cerise' -->
    <g style="fill: #0b3d91" transform="translate(174.484062 42.83167) scale(0.2 -0.2)">
     <defs>
      <path id="DejaVuSans-Bold-53" d="M 3834 4519 
L 3834 3531 
Q 3450 3703 3084 3790 
Q 2719 3878 2394 3878 
Q 1963 3878 1756 3759 
Q 1550 3641 1550 3391 
Q 1550 3203 1689 3098 
Q 1828 2994 2194 2919 
L 2706 2816 
Q 3484 2659 3812 2340 
Q 4141 2022 4141 1434 
Q 4141 663 3683 286 
Q 3225 -91 2284 -91 
Q 1841 -91 1394 -6 
Q 947 78 500 244 
L 500 1259 
Q 947 1022 1364 901 
Q 1781 781 2169 781 
Q 2563 781 2772 912 
Q 2981 1044 2981 1288 
Q 2981 1506 2839 1625 
Q 2697 1744 2272 1838 
L 1806 1941 
Q 1106 2091 782 2419 
Q 459 2747 459 3303 
Q 459 4000 909 4375 
Q 1359 4750 2203 4750 
Q 2588 4750 2994 4692 
Q 3400 4634 3834 4519 
z
" transform="scale(0.015625)"/>
      <path id="DejaVuSans-Bold-61" d="M 2106 1575 
Q 1756 1575 1579 1456 
Q 1403 1338 1403 1106 
Q 1403 894 1545 773 
Q 1688 653 1941 653 
Q 2256 653 2472 879 
Q 2688 1106 2688 1447 
L 2688 1575 
L 2106 1575 
z
M 3816 1997 
L 3816 0 
L 2688 0 
L 2688 519 
Q 2463 200 2181 54 
Q 1900 -91 1497 -91 
Q 953 -91 614 226 
Q 275 544 275 1050 
Q 275 1666 698 1953 
Q 1122 2241 2028 2241 
L 2688 2241 
L 2688 2328 
Q 2688 2594 2478 2717 
Q 2269 2841 1825 2841 
Q 1466 2841 1156 2769 
Q 847 2697 581 2553 
L 581 3406 
Q 941 3494 1303 3539 
Q 1666 3584 2028 3584 
Q 2975 3584 3395 3211 
Q 3816 2838 3816 1997 
z
" transform="scale(0.015625)"/>
      <path id="DejaVuSans-Bold-6b" d="M 538 4863 
L 1656 4863 
L 1656 2216 
L 2944 3500 
L 4244 3500 
L 2534 1894 
L 4378 0 
L 3022 0 
L 1656 1459 
L 1656 0 
L 538 0 
L 538 4863 
z
" transform="scale(0.015625)"/>
      <path id="DejaVuSans-Bold-75" d="M 500 1363 
L 500 3500 
L 1625 3500 
L 1625 3150 
Q 1625 2866 1622 2436 
Q 1619 2006 1619 1863 
Q 1619 1441 1641 1255 
Q 1663 1069 1716 984 
Q 1784 875 1895 815 
Q 2006 756 2150 756 
Q 2500 756 2700 1025 
Q 2900 1294 2900 1772 
L 2900 3500 
L 4019 3500 
L 4019 0 
L 2900 0 
L 2900 506 
Q 2647 200 2364 54 
Q 2081 -91 1741 -91 
Q 1134 -91 817 281 
Q 500 653 500 1363 
z
" transform="scale(0.015625)"/>
      <path id="DejaVuSans-Bold-72" d="M 3138 2547 
Q 2991 2616 2845 2648 
Q 2700 2681 2553 2681 
Q 2122 2681 1889 2404 
Q 1656 2128 1656 1613 
L 1656 0 
L 538 0 
L 538 3500 
L 1656 3500 
L 1656 2925 
Q 1872 3269 2151 3426 
Q 2431 3584 2822 3584 
Q 2878 3584 2943 3579 
Q 3009 3575 3134 3559 
L 3138 2547 
z
" transform="scale(0.015625)"/>
      <path id="DejaVuSans-Bold-6e" d="M 4056 2131 
L 4056 0 
L 2931 0 
L 2931 347 
L 2931 1631 
Q 2931 2084 2911 2256 
Q 2891 2428 2841 2509 
Q 2775 2619 2662 2680 
Q 2550 2741 2406 2741 
Q 2056 2741 1856 2470 
Q 1656 2200 1656 1722 
L 1656 0 
L 538 0 
L 538 3500 
L 1656 3500 
L 1656 2988 
Q 1909 3294 2193 3439 
Q 2478 3584 2822 3584 
Q 3428 3584 3742 3212 
Q 4056 2841 4056 2131 
z
" transform="scale(0.015625)"/>
      <path id="DejaVuSans-Bold-62" d="M 2400 722 
Q 2759 722 2948 984 
Q 3138 1247 3138 1747 
Q 3138 2247 2948 2509 
Q 2759 2772 2400 2772 
Q 2041 2772 1848 2508 
Q 1656 2244 1656 1747 
Q 1656 1250 1848 986 
Q 2041 722 2400 722 
z
M 1656 2988 
Q 1888 3294 2169 3439 
Q 2450 3584 2816 3584 
Q 3463 3584 3878 3070 
Q 4294 2556 4294 1747 
Q 4294 938 3878 423 
Q 3463 -91 2816 -91 
Q 2450 -91 2169 54 
Q 1888 200 1656 506 
L 1656 0 
L 538 0 
L 538 4863 
L 1656 4863 
L 1656 2988 
z
" transform="scale(0.015625)"/>
      <path id="DejaVuSans-Bold-6f" d="M 2203 2784 
Q 1831 2784 1636 2517 
Q 1441 2250 1441 1747 
Q 1441 1244 1636 976 
Q 1831 709 2203 709 
Q 2569 709 2762 976 
Q 2956 1244 2956 1747 
Q 2956 2250 2762 2517 
Q 2569 2784 2203 2784 
z
M 2203 3584 
Q 3106 3584 3614 3096 
Q 4122 2609 4122 1747 
Q 4122 884 3614 396 
Q 3106 -91 2203 -91 
Q 1297 -91 786 396 
Q 275 884 275 1747 
Q 275 2609 786 3096 
Q 1297 3584 2203 3584 
z
" transform="scale(0.015625)"/>
      <path id="DejaVuSans-Bold-20" transform="scale(0.015625)"/>
      <path id="DejaVuSans-Bold-2014" d="M 344 2156 
L 6056 2156 
L 6056 1350 
L 344 1350 
L 344 2156 
z
" transform="scale(0.015625)"/>
      <path id="DejaVuSans-Bold-4c" d="M 588 4666 
L 1791 4666 
L 1791 909 
L 3903 909 
L 3903 0 
L 588 0 
L 588 4666 
z
" transform="scale(0.015625)"/>
      <path id="DejaVuSans-Bold-27" d="M 1350 4666 
L 1350 2931 
L 609 2931 
L 609 4666 
L 1350 4666 
z
" transform="scale(0.015625)"/>
      <path id="DejaVuSans-Bold-63" d="M 3366 3391 
L 3366 2478 
Q 3138 2634 2908 2709 
Q 2678 2784 2431 2784 
Q 1963 2784 1702 2511 
Q 1441 2238 1441 1747 
Q 1441 1256 1702 982 
Q 1963 709 2431 709 
Q 2694 709 2930 787 
Q 3166 866 3366 1019 
L 3366 103 
Q 3103 6 2833 -42 
Q 2563 -91 2291 -91 
Q 1344 -91 809 395 
Q 275 881 275 1747 
Q 275 2613 809 3098 
Q 1344 3584 2291 3584 
Q 2566 3584 2833 3536 
Q 3100 3488 3366 3391 
z
" transform="scale(0.015625)"/>
      <path id="DejaVuSans-Bold-65" d="M 4031 1759 
L 4031 1441 
L 1416 1441 
Q 1456 1047 1700 850 
Q 1944 653 2381 653 
Q 2734 653 3104 758 
Q 3475 863 3866 1075 
L 3866 213 
Q 3469 63 3072 -14 
Q 2675 -91 2278 -91 
Q 1328 -91 801 392 
Q 275 875 275 1747 
Q 275 2603 792 3093 
Q 1309 3584 2216 3584 
Q 3041 3584 3536 3087 
Q 4031 2591 4031 1759 
z
M 2881 2131 
Q 2881 2450 2695 2645 
Q 2509 2841 2209 2841 
Q 1884 2841 1681 2658 
Q 1478 2475 1428 2131 
L 2881 2131 
z
" transform="scale(0.015625)"/>
      <path id="DejaVuSans-Bold-69" d="M 538 3500 
L 1656 3500 
L 1656 0 
L 538 0 
L 538 3500 
z
M 538 4863 
L 1656 4863 
L 1656 3950 
L 538 3950 
L 538 4863 
z
" transform="scale(0.015625)"/>
      <path id="DejaVuSans-Bold-73" d="M 3272 3391 
L 3272 2541 
Q 2913 2691 2578 2766 
Q 2244 2841 1947 2841 
Q 1628 2841 1473 2761 
Q 1319 2681 1319 2516 
Q 1319 2381 1436 2309 
Q 1553 2238 1856 2203 
L 2053 2175 
Q 2913 2066 3209 1816 
Q 3506 1566 3506 1031 
Q 3506 472 3093 190 
Q 2681 -91 1863 -91 
Q 1516 -91 1145 -36 
Q 775 19 384 128 
L 384 978 
Q 719 816 1070 734 
Q 1422 653 1784 653 
Q 2113 653 2278 743 
Q 2444 834 2444 1013 
Q 2444 1163 2330 1236 
Q 2216 1309 1875 1350 
L 1678 1375 
Q 931 1469 631 1722 
Q 331 1975 331 2491 
Q 331 3047 712 3315 
Q 1094 3584 1881 3584 
Q 2191 3584 2531 3537 
Q 2872 3491 3272 3391 
z
" transform="scale(0.015625)"/>
     </defs>
     <use xlink:href="#DejaVuSans-Bold-53"/>
     <use xlink:href="#DejaVuSans-Bold-61" transform="translate(72.021484 0)"/>
     <use xlink:href="#DejaVuSans-Bold-6b" transform="translate(139.501953 0)"/>
     <use xlink:href="#DejaVuSans-Bold-75" transform="translate(206.005859 0)"/>
     <use xlink:href="#DejaVuSans-Bold-72" transform="translate(277.197266 0)"/>
     <use xlink:href="#DejaVuSans-Bold-61" transform="translate(326.513672 0)"/>
     <use xlink:href="#DejaVuSans-Bold-6e" transform="translate(393.994141 0)"/>
     <use xlink:href="#DejaVuSans-Bold-62" transform="translate(465.185547 0)"/>
     <use xlink:href="#DejaVuSans-Bold-6f" transform="translate(536.767578 0)"/>
     <use xlink:href="#DejaVuSans-Bold-20" transform="translate(605.46875 0)"/>
     <use xlink:href="#DejaVuSans-Bold-2014" transform="translate(640.283203 0)"/>
     <use xlink:href="#DejaVuSans-Bold-20" transform="translate(740.283203 0)"/>
     <use xlink:href="#DejaVuSans-Bold-4c" transform="translate(775.097656 0)"/>
     <use xlink:href="#DejaVuSans-Bold-61" transform="translate(838.818359 0)"/>
     <use xlink:href="#DejaVuSans-Bold-20" transform="translate(906.298828 0)"/>
     <use xlink:href="#DejaVuSans-Bold-27" transform="translate(941.113281 0)"/>
     <use xlink:href="#DejaVuSans-Bold-63" transform="translate(971.728516 0)"/>
     <use xlink:href="#DejaVuSans-Bold-65" transform="translate(1031.005859 0)"/>
     <use xlink:href="#DejaVuSans-Bold-72" transform="translate(1098.828125 0)"/>
     <use xlink:href="#DejaVuSans-Bold-69" transform="translate(1148.144531 0)"/>
     <use xlink:href="#DejaVuSans-Bold-73" transform="translate(1182.421875 0)"/>
     <use xlink:href="#DejaVuSans-Bold-65" transform="translate(1241.943359 0)"/>
     <use xlink:href="#DejaVuSans-Bold-27" transform="translate(1309.765625 0)"/>
    </g>
   </g>
   <g id="text_2">
    <!-- Méthode japonaise de décomposition -->
    <g style="fill: #6e7781" transform="translate(205.590937 70.027033) scale(0.11 -0.11)">
     <defs>
      <path id="DejaVuSans-Oblique-4d" d="M 1081 4666 
L 2028 4666 
L 2572 1522 
L 4378 4666 
L 5350 4666 
L 4441 0 
L 3828 0 
L 4622 4091 
L 2791 897 
L 2175 897 
L 1581 4103 
L 788 0 
L 172 0 
L 1081 4666 
z
" transform="scale(0.015625)"/>
      <path id="DejaVuSans-Oblique-e9" d="M 3078 2063 
Q 3088 2113 3092 2166 
Q 3097 2219 3097 2272 
Q 3097 2653 2873 2875 
Q 2650 3097 2266 3097 
Q 1838 3097 1509 2826 
Q 1181 2556 1013 2059 
L 3078 2063 
z
M 3578 1613 
L 903 1613 
Q 884 1494 878 1425 
Q 872 1356 872 1306 
Q 872 872 1139 634 
Q 1406 397 1894 397 
Q 2269 397 2603 481 
Q 2938 566 3225 728 
L 3116 159 
Q 2806 34 2476 -28 
Q 2147 -91 1806 -91 
Q 1078 -91 686 257 
Q 294 606 294 1247 
Q 294 1794 489 2264 
Q 684 2734 1063 3103 
Q 1306 3334 1642 3459 
Q 1978 3584 2356 3584 
Q 2950 3584 3301 3228 
Q 3653 2872 3653 2272 
Q 3653 2128 3634 1964 
Q 3616 1800 3578 1613 
z
M 3063 5119 
L 3685 5119 
L 2438 3944 
L 1957 3944 
L 3063 5119 
z
" transform="scale(0.015625)"/>
      <path id="DejaVuSans-Oblique-74" d="M 2706 3500 
L 2619 3053 
L 1472 3053 
L 1100 1153 
Q 1081 1047 1072 975 
Q 1063 903 1063 863 
Q 1063 663 1183 572 
Q 1303 481 1569 481 
L 2150 481 
L 2053 0 
L 1503 0 
Q 991 0 739 200 
Q 488 400 488 806 
Q 488 878 497 964 
Q 506 1050 525 1153 
L 897 3053 
L 409 3053 
L 500 3500 
L 978 3500 
L 1172 4494 
L 1747 4494 
L 1556 3500 
L 2706 3500 
z
" transform="scale(0.015625)"/>
      <path id="DejaVuSans-Oblique-68" d="M 3566 2113 
L 3156 0 
L 2578 0 
L 2988 2091 
Q 3016 2238 3031 2350 
Q 3047 2463 3047 2528 
Q 3047 2791 2881 2937 
Q 2716 3084 2419 3084 
Q 1956 3084 1617 2771 
Q 1278 2459 1178 1941 
L 800 0 
L 225 0 
L 1172 4863 
L 1747 4863 
L 1375 2950 
Q 1594 3244 1934 3414 
Q 2275 3584 2650 3584 
Q 3113 3584 3367 3334 
Q 3622 3084 3622 2631 
Q 3622 2519 3608 2391 
Q 3594 2263 3566 2113 
z
" transform="scale(0.015625)"/>
      <path id="DejaVuSans-Oblique-6f" d="M 1625 -91 
Q 1009 -91 651 289 
Q 294 669 294 1325 
Q 294 1706 417 2101 
Q 541 2497 738 2766 
Q 1047 3184 1428 3384 
Q 1809 3584 2291 3584 
Q 2888 3584 3255 3212 
Q 3622 2841 3622 2241 
Q 3622 1825 3500 1412 
Q 3378 1000 3181 728 
Q 2875 309 2494 109 
Q 2113 -91 1625 -91 
z
M 891 1344 
Q 891 869 1089 633 
Q 1288 397 1691 397 
Q 2269 397 2648 901 
Q 3028 1406 3028 2181 
Q 3028 2634 2825 2865 
Q 2622 3097 2228 3097 
Q 1903 3097 1650 2945 
Q 1397 2794 1197 2484 
Q 1050 2253 970 1956 
Q 891 1659 891 1344 
z
" transform="scale(0.015625)"/>
      <path id="DejaVuSans-Oblique-64" d="M 2675 525 
Q 2444 222 2128 65 
Q 1813 -91 1428 -91 
Q 903 -91 598 267 
Q 294 625 294 1247 
Q 294 1766 478 2236 
Q 663 2706 1013 3078 
Q 1244 3325 1534 3454 
Q 1825 3584 2144 3584 
Q 2481 3584 2739 3421 
Q 2997 3259 3138 2956 
L 3513 4863 
L 4091 4863 
L 3144 0 
L 2566 0 
L 2675 525 
z
M 891 1350 
Q 891 897 1095 644 
Q 1300 391 1663 391 
Q 1931 391 2161 520 
Q 2391 650 2566 903 
Q 2750 1166 2856 1509 
Q 2963 1853 2963 2188 
Q 2963 2622 2758 2865 
Q 2553 3109 2194 3109 
Q 1922 3109 1687 2981 
Q 1453 2853 1288 2613 
Q 1106 2353 998 2009 
Q 891 1666 891 1350 
z
" transform="scale(0.015625)"/>
      <path id="DejaVuSans-Oblique-65" d="M 3078 2063 
Q 3088 2113 3092 2166 
Q 3097 2219 3097 2272 
Q 3097 2653 2873 2875 
Q 2650 3097 2266 3097 
Q 1838 3097 1509 2826 
Q 1181 2556 1013 2059 
L 3078 2063 
z
M 3578 1613 
L 903 1613 
Q 884 1494 878 1425 
Q 872 1356 872 1306 
Q 872 872 1139 634 
Q 1406 397 1894 397 
Q 2269 397 2603 481 
Q 2938 566 3225 728 
L 3116 159 
Q 2806 34 2476 -28 
Q 2147 -91 1806 -91 
Q 1078 -91 686 257 
Q 294 606 294 1247 
Q 294 1794 489 2264 
Q 684 2734 1063 3103 
Q 1306 3334 1642 3459 
Q 1978 3584 2356 3584 
Q 2950 3584 3301 3228 
Q 3653 2872 3653 2272 
Q 3653 2128 3634 1964 
Q 3616 1800 3578 1613 
z
" transform="scale(0.015625)"/>
      <path id="DejaVuSans-Oblique-20" transform="scale(0.015625)"/>
      <path id="DejaVuSans-Oblique-6a" d="M 928 3500 
L 1503 3500 
L 813 -63 
L 809 -78 
Q 694 -675 544 -897 
Q 403 -1106 132 -1218 
Q -138 -1331 -506 -1331 
L -722 -1331 
L -628 -844 
L -481 -844 
Q -144 -844 -1 -703 
Q 141 -563 238 -63 
L 928 3500 
z
M 1197 4863 
L 1772 4863 
L 1631 4134 
L 1056 4134 
L 1197 4863 
z
" transform="scale(0.015625)"/>
      <path id="DejaVuSans-Oblique-61" d="M 3438 1997 
L 3047 0 
L 2472 0 
L 2578 531 
Q 2325 219 2001 64 
Q 1678 -91 1281 -91 
Q 834 -91 548 182 
Q 263 456 263 884 
Q 263 1497 752 1853 
Q 1241 2209 2100 2209 
L 2900 2209 
L 2931 2363 
Q 2938 2388 2941 2417 
Q 2944 2447 2944 2509 
Q 2944 2788 2717 2942 
Q 2491 3097 2081 3097 
Q 1800 3097 1504 3025 
Q 1209 2953 897 2809 
L 997 3341 
Q 1322 3463 1633 3523 
Q 1944 3584 2234 3584 
Q 2853 3584 3176 3315 
Q 3500 3047 3500 2534 
Q 3500 2431 3484 2292 
Q 3469 2153 3438 1997 
z
M 2816 1759 
L 2241 1759 
Q 1534 1759 1195 1570 
Q 856 1381 856 984 
Q 856 709 1029 553 
Q 1203 397 1509 397 
Q 1978 397 2328 733 
Q 2678 1069 2791 1631 
L 2816 1759 
z
" transform="scale(0.015625)"/>
      <path id="DejaVuSans-Oblique-70" d="M 3175 2156 
Q 3175 2616 2975 2859 
Q 2775 3103 2400 3103 
Q 2144 3103 1911 2972 
Q 1678 2841 1497 2591 
Q 1319 2344 1212 1994 
Q 1106 1644 1106 1300 
Q 1106 863 1306 627 
Q 1506 391 1875 391 
Q 2147 391 2380 519 
Q 2613 647 2778 891 
Q 2956 1147 3065 1494 
Q 3175 1841 3175 2156 
z
M 1394 2969 
Q 1625 3272 1939 3428 
Q 2253 3584 2638 3584 
Q 3175 3584 3472 3232 
Q 3769 2881 3769 2247 
Q 3769 1728 3584 1258 
Q 3400 788 3053 416 
Q 2822 169 2531 39 
Q 2241 -91 1919 -91 
Q 1547 -91 1294 64 
Q 1041 219 916 525 
L 556 -1331 
L -19 -1331 
L 922 3500 
L 1497 3500 
L 1394 2969 
z
" transform="scale(0.015625)"/>
      <path id="DejaVuSans-Oblique-6e" d="M 3566 2113 
L 3156 0 
L 2578 0 
L 2988 2091 
Q 3016 2238 3031 2350 
Q 3047 2463 3047 2528 
Q 3047 2791 2881 2937 
Q 2716 3084 2419 3084 
Q 1956 3084 1622 2776 
Q 1288 2469 1184 1941 
L 800 0 
L 225 0 
L 903 3500 
L 1478 3500 
L 1363 2950 
Q 1603 3253 1940 3418 
Q 2278 3584 2650 3584 
Q 3113 3584 3367 3334 
Q 3622 3084 3622 2631 
Q 3622 2519 3608 2391 
Q 3594 2263 3566 2113 
z
" transform="scale(0.015625)"/>
      <path id="DejaVuSans-Oblique-69" d="M 1172 4863 
L 1747 4863 
L 1606 4134 
L 1031 4134 
L 1172 4863 
z
M 909 3500 
L 1484 3500 
L 800 0 
L 225 0 
L 909 3500 
z
" transform="scale(0.015625)"/>
      <path id="DejaVuSans-Oblique-73" d="M 3200 3397 
L 3091 2853 
Q 2863 2978 2609 3040 
Q 2356 3103 2088 3103 
Q 1634 3103 1373 2948 
Q 1113 2794 1113 2528 
Q 1113 2219 1719 2053 
Q 1766 2041 1788 2034 
L 1972 1978 
Q 2547 1819 2739 1644 
Q 2931 1469 2931 1166 
Q 2931 609 2489 259 
Q 2047 -91 1331 -91 
Q 1053 -91 747 -37 
Q 441 16 72 128 
L 184 722 
Q 500 559 806 475 
Q 1113 391 1394 391 
Q 1816 391 2080 572 
Q 2344 753 2344 1031 
Q 2344 1331 1650 1516 
L 1591 1531 
L 1394 1581 
Q 956 1697 753 1886 
Q 550 2075 550 2369 
Q 550 2928 970 3256 
Q 1391 3584 2113 3584 
Q 2397 3584 2667 3537 
Q 2938 3491 3200 3397 
z
" transform="scale(0.015625)"/>
      <path id="DejaVuSans-Oblique-63" d="M 3431 3366 
L 3316 2797 
Q 3109 2947 2876 3022 
Q 2644 3097 2394 3097 
Q 2119 3097 1870 3000 
Q 1622 2903 1453 2725 
Q 1184 2453 1037 2087 
Q 891 1722 891 1331 
Q 891 859 1127 628 
Q 1363 397 1844 397 
Q 2081 397 2348 469 
Q 2616 541 2906 684 
L 2797 116 
Q 2547 13 2283 -39 
Q 2019 -91 1741 -91 
Q 1044 -91 669 257 
Q 294 606 294 1253 
Q 294 1797 489 2255 
Q 684 2713 1069 3078 
Q 1331 3328 1684 3456 
Q 2038 3584 2456 3584 
Q 2700 3584 2940 3529 
Q 3181 3475 3431 3366 
z
" transform="scale(0.015625)"/>
      <path id="DejaVuSans-Oblique-6d" d="M 5747 2113 
L 5338 0 
L 4763 0 
L 5166 2094 
Q 5191 2228 5203 2325 
Q 5216 2422 5216 2491 
Q 5216 2772 5059 2928 
Q 4903 3084 4622 3084 
Q 4203 3084 3875 2770 
Q 3547 2456 3450 1953 
L 3066 0 
L 2491 0 
L 2900 2094 
Q 2925 2209 2937 2307 
Q 2950 2406 2950 2484 
Q 2950 2769 2794 2926 
Q 2638 3084 2363 3084 
Q 1938 3084 1609 2770 
Q 1281 2456 1184 1953 
L 800 0 
L 225 0 
L 909 3500 
L 1484 3500 
L 1375 2956 
Q 1609 3263 1923 3423 
Q 2238 3584 2597 3584 
Q 2978 3584 3223 3384 
Q 3469 3184 3519 2828 
Q 3781 3197 4126 3390 
Q 4472 3584 4856 3584 
Q 5306 3584 5551 3325 
Q 5797 3066 5797 2591 
Q 5797 2488 5784 2364 
Q 5772 2241 5747 2113 
z
" transform="scale(0.015625)"/>
     </defs>
     <use xlink:href="#DejaVuSans-Oblique-4d"/>
     <use xlink:href="#DejaVuSans-Oblique-e9" transform="translate(86.279297 0)"/>
     <use xlink:href="#DejaVuSans-Oblique-74" transform="translate(147.802734 0)"/>
     <use xlink:href="#DejaVuSans-Oblique-68" transform="translate(187.011719 0)"/>
     <use xlink:href="#DejaVuSans-Oblique-6f" transform="translate(250.390625 0)"/>
     <use xlink:href="#DejaVuSans-Oblique-64" transform="translate(311.572266 0)"/>
     <use xlink:href="#DejaVuSans-Oblique-65" transform="translate(375.048828 0)"/>
     <use xlink:href="#DejaVuSans-Oblique-20" transform="translate(436.572266 0)"/>
     <use xlink:href="#DejaVuSans-Oblique-6a" transform="translate(468.359375 0)"/>
     <use xlink:href="#DejaVuSans-Oblique-61" transform="translate(496.142578 0)"/>
     <use xlink:href="#DejaVuSans-Oblique-70" transform="translate(557.421875 0)"/>
     <use xlink:href="#DejaVuSans-Oblique-6f" transform="translate(620.898438 0)"/>
     <use xlink:href="#DejaVuSans-Oblique-6e" transform="translate(682.080078 0)"/>
     <use xlink:href="#DejaVuSans-Oblique-61" transform="translate(745.458984 0)"/>
     <use xlink:href="#DejaVuSans-Oblique-69" transform="translate(806.738281 0)"/>
     <use xlink:href="#DejaVuSans-Oblique-73" transform="translate(834.521484 0)"/>
     <use xlink:href="#DejaVuSans-Oblique-65" transform="translate(886.621094 0)"/>
     <use xlink:href="#DejaVuSans-Oblique-20" transform="translate(948.144531 0)"/>
     <use xlink:href="#DejaVuSans-Oblique-64" transform="translate(979.931641 0)"/>
     <use xlink:href="#DejaVuSans-Oblique-65" transform="translate(1043.408203 0)"/>
     <use xlink:href="#DejaVuSans-Oblique-20" transform="translate(1104.931641 0)"/>
     <use xlink:href="#DejaVuSans-Oblique-64" transform="translate(1136.71875 0)"/>
     <use xlink:href="#DejaVuSans-Oblique-e9" transform="translate(1200.195312 0)"/>
     <use xlink:href="#DejaVuSans-Oblique-63" transform="translate(1261.71875 0)"/>
     <use xlink:href="#DejaVuSans-Oblique-6f" transform="translate(1316.699219 0)"/>
     <use xlink:href="#DejaVuSans-Oblique-6d" transform="translate(1377.880859 0)"/>
     <use xlink:href="#DejaVuSans-Oblique-70" transform="translate(1475.292969 0)"/>
     <use xlink:href="#DejaVuSans-Oblique-6f" transform="translate(1538.769531 0)"/>
     <use xlink:href="#DejaVuSans-Oblique-73" transform="translate(1599.951172 0)"/>
     <use xlink:href="#DejaVuSans-Oblique-69" transform="translate(1652.050781 0)"/>
     <use xlink:href="#DejaVuSans-Oblique-74" transform="translate(1679.833984 0)"/>
     <use xlink:href="#DejaVuSans-Oblique-69" transform="translate(1719.042969 0)"/>
     <use xlink:href="#DejaVuSans-Oblique-6f" transform="translate(1746.826172 0)"/>
     <use xlink:href="#DejaVuSans-Oblique-6e" transform="translate(1808.007812 0)"/>
    </g>
   </g>
  </g>
  <g id="axes_2">
   <g id="patch_2">
    <path d="M 140.844096 364.137264 
C 149.181878 364.137264 157.179288 359.773976 163.07499 352.008364 
C 168.970692 344.242751 172.283328 333.708842 172.283328 322.726608 
C 172.283328 311.744374 168.970692 301.210465 163.07499 293.444852 
C 157.179288 285.67924 149.181878 281.315952 140.844096 281.315952 
C 132.506314 281.315952 124.508904 285.67924 118.613202 293.444852 
C 112.7175 301.210465 109.404864 311.744374 109.404864 322.726608 
C 109.404864 333.708842 112.7175 344.242751 118.613202 352.008364 
C 124.508904 359.773976 132.506314 364.137264 140.844096 364.137264 
z
" clip-path="url(#pe6371d72d6)" style="fill: #d6336c; stroke: #7c1d3f; stroke-width: 2; stroke-linejoin: miter"/>
   </g>
   <g id="patch_3">
    <path d="M 156.726614 269.237844 
C 155.387657 266.183151 153.55685 263.551489 151.363231 261.528338 
C 149.169612 259.505188 146.665957 258.139225 144.028726 257.526723 
C 141.391495 256.914222 138.684137 257.069918 136.097471 257.982839 
C 133.510804 258.89576 131.107061 260.543941 129.055659 262.811217 
L 140.844096 281.315952 
z
" clip-path="url(#pe6371d72d6)" style="fill: #7cc04e; stroke: #406b1f; stroke-linejoin: miter"/>
   </g>
   <g id="patch_4">
    <path d="M 104.164992 484.918344 
C 110.418328 484.918344 116.416386 481.645878 120.838163 475.821669 
C 125.259939 469.997459 127.744416 462.097028 127.744416 453.860352 
C 127.744416 445.623676 125.259939 437.723245 120.838163 431.899035 
C 116.416386 426.074826 110.418328 422.80236 104.164992 422.80236 
C 97.911656 422.80236 91.913598 426.074826 87.491821 431.899035 
C 83.070045 437.723245 80.585568 445.623676 80.585568 453.860352 
C 80.585568 462.097028 83.070045 469.997459 87.491821 475.821669 
C 91.913598 481.645878 97.911656 484.918344 104.164992 484.918344 
z
" clip-path="url(#pe6371d72d6)" style="fill: #fb6f92; stroke: #7c1d3f; stroke-width: 1.5; stroke-linejoin: miter"/>
   </g>
   <g id="patch_5">
    <path d="M 177.5232 484.918344 
C 183.776536 484.918344 189.774594 481.645878 194.196371 475.821669 
C 198.618147 469.997459 201.102624 462.097028 201.102624 453.860352 
C 201.102624 445.623676 198.618147 437.723245 194.196371 431.899035 
C 189.774594 426.074826 183.776536 422.80236 177.5232 422.80236 
C 171.269864 422.80236 165.271806 426.074826 160.850029 431.899035 
C 156.428253 437.723245 153.943776 445.623676 153.943776 453.860352 
C 153.943776 462.097028 156.428253 469.997459 160.850029 475.821669 
C 165.271806 481.645878 171.269864 484.918344 177.5232 484.918344 
z
" clip-path="url(#pe6371d72d6)" style="fill: #fb6f92; stroke: #7c1d3f; stroke-width: 1.5; stroke-linejoin: miter"/>
   </g>
   <g id="patch_6">
    <path d="M 308.52 364.137264 
C 316.857782 364.137264 324.855192 359.773976 330.750894 352.008364 
C 336.646596 344.242751 339.959232 333.708842 339.959232 322.726608 
C 339.959232 311.744374 336.646596 301.210465 330.750894 293.444852 
C 324.855192 285.67924 316.857782 281.315952 308.52 281.315952 
C 300.182218 281.315952 292.184808 285.67924 286.289106 293.444852 
C 280.393404 301.210465 277.080768 311.744374 277.080768 322.726608 
C 277.080768 333.708842 280.393404 344.242751 286.289106 352.008364 
C 292.184808 359.773976 300.182218 364.137264 308.52 364.137264 
z
" clip-path="url(#pe6371d72d6)" style="fill: #d6336c; stroke: #7c1d3f; stroke-width: 2; stroke-linejoin: miter"/>
   </g>
   <g id="patch_7">
    <path d="M 324.402518 269.237844 
C 323.063561 266.183151 321.232754 263.551489 319.039135 261.528338 
C 316.845516 259.505188 314.341861 258.139225 311.70463 257.526723 
C 309.067399 256.914222 306.360041 257.069918 303.773375 257.982839 
C 301.186708 258.89576 298.782965 260.543941 296.731563 262.811217 
L 308.52 281.315952 
z
" clip-path="url(#pe6371d72d6)" style="fill: #7cc04e; stroke: #406b1f; stroke-linejoin: miter"/>
   </g>
   <g id="patch_8">
    <path d="M 271.840896 484.918344 
C 278.094232 484.918344 284.09229 481.645878 288.514067 475.821669 
C 292.935843 469.997459 295.42032 462.097028 295.42032 453.860352 
C 295.42032 445.623676 292.935843 437.723245 288.514067 431.899035 
C 284.09229 426.074826 278.094232 422.80236 271.840896 422.80236 
C 265.58756 422.80236 259.589502 426.074826 255.167725 431.899035 
C 250.745949 437.723245 248.261472 445.623676 248.261472 453.860352 
C 248.261472 462.097028 250.745949 469.997459 255.167725 475.821669 
C 259.589502 481.645878 265.58756 484.918344 271.840896 484.918344 
z
" clip-path="url(#pe6371d72d6)" style="fill: #fb6f92; stroke: #7c1d3f; stroke-width: 1.5; stroke-linejoin: miter"/>
   </g>
   <g id="patch_9">
    <path d="M 345.199104 484.918344 
C 351.45244 484.918344 357.450498 481.645878 361.872275 475.821669 
C 366.294051 469.997459 368.778528 462.097028 368.778528 453.860352 
C 368.778528 445.623676 366.294051 437.723245 361.872275 431.899035 
C 357.450498 426.074826 351.45244 422.80236 345.199104 422.80236 
C 338.945768 422.80236 332.94771 426.074826 328.525933 431.899035 
C 324.104157 437.723245 321.61968 445.623676 321.61968 453.860352 
C 321.61968 462.097028 324.104157 469.997459 328.525933 475.821669 
C 332.94771 481.645878 338.945768 484.918344 345.199104 484.918344 
z
" clip-path="url(#pe6371d72d6)" style="fill: #fb6f92; stroke: #7c1d3f; stroke-width: 1.5; stroke-linejoin: miter"/>
   </g>
   <g id="patch_10">
    <path d="M 476.195904 364.137264 
C 484.533686 364.137264 492.531096 359.773976 498.426798 352.008364 
C 504.3225 344.242751 507.635136 333.708842 507.635136 322.726608 
C 507.635136 311.744374 504.3225 301.210465 498.426798 293.444852 
C 492.531096 285.67924 484.533686 281.315952 476.195904 281.315952 
C 467.858122 281.315952 459.860712 285.67924 453.96501 293.444852 
C 448.069308 301.210465 444.756672 311.744374 444.756672 322.726608 
C 444.756672 333.708842 448.069308 344.242751 453.96501 352.008364 
C 459.860712 359.773976 467.858122 364.137264 476.195904 364.137264 
z
" clip-path="url(#pe6371d72d6)" style="fill: #d6336c; stroke: #7c1d3f; stroke-width: 2; stroke-linejoin: miter"/>
   </g>
   <g id="patch_11">
    <path d="M 492.078422 269.237844 
C 490.739465 266.183151 488.908658 263.551489 486.715039 261.528338 
C 484.52142 259.505188 482.017765 258.139225 479.380534 257.526723 
C 476.743303 256.914222 474.035945 257.069918 471.449279 257.982839 
C 468.862612 258.89576 466.458869 260.543941 464.407467 262.811217 
L 476.195904 281.315952 
z
" clip-path="url(#pe6371d72d6)" style="fill: #7cc04e; stroke: #406b1f; stroke-linejoin: miter"/>
   </g>
   <g id="patch_12">
    <path d="M 439.5168 484.918344 
C 445.770136 484.918344 451.768194 481.645878 456.189971 475.821669 
C 460.611747 469.997459 463.096224 462.097028 463.096224 453.860352 
C 463.096224 445.623676 460.611747 437.723245 456.189971 431.899035 
C 451.768194 426.074826 445.770136 422.80236 439.5168 422.80236 
C 433.263464 422.80236 427.265406 426.074826 422.843629 431.899035 
C 418.421853 437.723245 415.937376 445.623676 415.937376 453.860352 
C 415.937376 462.097028 418.421853 469.997459 422.843629 475.821669 
C 427.265406 481.645878 433.263464 484.918344 439.5168 484.918344 
z
" clip-path="url(#pe6371d72d6)" style="fill: #fb6f92; stroke: #7c1d3f; stroke-width: 1.5; stroke-linejoin: miter"/>
   </g>
   <g id="patch_13">
    <path d="M 512.875008 484.918344 
C 519.128344 484.918344 525.126402 481.645878 529.548179 475.821669 
C 533.969955 469.997459 536.454432 462.097028 536.454432 453.860352 
C 536.454432 445.623676 533.969955 437.723245 529.548179 431.899035 
C 525.126402 426.074826 519.128344 422.80236 512.875008 422.80236 
C 506.621672 422.80236 500.623614 426.074826 496.201837 431.899035 
C 491.780061 437.723245 489.295584 445.623676 489.295584 453.860352 
C 489.295584 462.097028 491.780061 469.997459 496.201837 475.821669 
C 500.623614 481.645878 506.621672 484.918344 512.875008 484.918344 
z
" clip-path="url(#pe6371d72d6)" style="fill: #fb6f92; stroke: #7c1d3f; stroke-width: 1.5; stroke-linejoin: miter"/>
   </g>
   <g id="line2d_1">
    <path d="M 119.884608 364.137264 
L 104.164992 412.449696 
" clip-path="url(#pe6371d72d6)" style="fill: none; stroke: #5e7d36; stroke-width: 2.5; stroke-linecap: square"/>
   </g>
   <g id="line2d_2">
    <path d="M 161.803584 364.137264 
L 177.5232 412.449696 
" clip-path="url(#pe6371d72d6)" style="fill: none; stroke: #5e7d36; stroke-width: 2.5; stroke-linecap: square"/>
   </g>
   <g id="line2d_3">
    <path d="M 287.560512 364.137264 
L 271.840896 412.449696 
" clip-path="url(#pe6371d72d6)" style="fill: none; stroke: #5e7d36; stroke-width: 2.5; stroke-linecap: square"/>
   </g>
   <g id="line2d_4">
    <path d="M 329.479488 364.137264 
L 345.199104 412.449696 
" clip-path="url(#pe6371d72d6)" style="fill: none; stroke: #5e7d36; stroke-width: 2.5; stroke-linecap: square"/>
   </g>
   <g id="line2d_5">
    <path d="M 455.236416 364.137264 
L 439.5168 412.449696 
" clip-path="url(#pe6371d72d6)" style="fill: none; stroke: #5e7d36; stroke-width: 2.5; stroke-linecap: square"/>
   </g>
   <g id="line2d_6">
    <path d="M 497.155392 364.137264 
L 512.875008 412.449696 
" clip-path="url(#pe6371d72d6)" style="fill: none; stroke: #5e7d36; stroke-width: 2.5; stroke-linecap: square"/>
   </g>
   <g id="text_3">
    <g id="patch_14">
     <path d="M 104.871172 187.200031 
L 512.168828 187.200031 
Q 517.918828 187.200031 517.918828 181.450031 
L 517.918828 136.378656 
Q 517.918828 130.628656 512.168828 130.628656 
L 104.871172 130.628656 
Q 99.121172 130.628656 99.121172 136.378656 
L 99.121172 181.450031 
Q 99.121172 187.200031 104.871172 187.200031 
z
" style="fill: #fffbe6; stroke: #f0a500; stroke-width: 1.5; stroke-linejoin: miter"/>
    </g>
    <!-- Chaque nombre peut être 'coupé' en deux parties. -->
    <g style="fill: #1d1d1f" transform="translate(163.034219 145.576859) scale(0.115 -0.115)">
     <defs>
      <path id="DejaVuSans-43" d="M 4122 4306 
L 4122 3641 
Q 3803 3938 3442 4084 
Q 3081 4231 2675 4231 
Q 1875 4231 1450 3742 
Q 1025 3253 1025 2328 
Q 1025 1406 1450 917 
Q 1875 428 2675 428 
Q 3081 428 3442 575 
Q 3803 722 4122 1019 
L 4122 359 
Q 3791 134 3420 21 
Q 3050 -91 2638 -91 
Q 1578 -91 968 557 
Q 359 1206 359 2328 
Q 359 3453 968 4101 
Q 1578 4750 2638 4750 
Q 3056 4750 3426 4639 
Q 3797 4528 4122 4306 
z
" transform="scale(0.015625)"/>
      <path id="DejaVuSans-68" d="M 3513 2113 
L 3513 0 
L 2938 0 
L 2938 2094 
Q 2938 2591 2744 2837 
Q 2550 3084 2163 3084 
Q 1697 3084 1428 2787 
Q 1159 2491 1159 1978 
L 1159 0 
L 581 0 
L 581 4863 
L 1159 4863 
L 1159 2956 
Q 1366 3272 1645 3428 
Q 1925 3584 2291 3584 
Q 2894 3584 3203 3211 
Q 3513 2838 3513 2113 
z
" transform="scale(0.015625)"/>
      <path id="DejaVuSans-61" d="M 2194 1759 
Q 1497 1759 1228 1600 
Q 959 1441 959 1056 
Q 959 750 1161 570 
Q 1363 391 1709 391 
Q 2188 391 2477 730 
Q 2766 1069 2766 1631 
L 2766 1759 
L 2194 1759 
z
M 3341 1997 
L 3341 0 
L 2766 0 
L 2766 531 
Q 2569 213 2275 61 
Q 1981 -91 1556 -91 
Q 1019 -91 701 211 
Q 384 513 384 1019 
Q 384 1609 779 1909 
Q 1175 2209 1959 2209 
L 2766 2209 
L 2766 2266 
Q 2766 2663 2505 2880 
Q 2244 3097 1772 3097 
Q 1472 3097 1187 3025 
Q 903 2953 641 2809 
L 641 3341 
Q 956 3463 1253 3523 
Q 1550 3584 1831 3584 
Q 2591 3584 2966 3190 
Q 3341 2797 3341 1997 
z
" transform="scale(0.015625)"/>
      <path id="DejaVuSans-71" d="M 947 1747 
Q 947 1113 1208 752 
Q 1469 391 1925 391 
Q 2381 391 2643 752 
Q 2906 1113 2906 1747 
Q 2906 2381 2643 2742 
Q 2381 3103 1925 3103 
Q 1469 3103 1208 2742 
Q 947 2381 947 1747 
z
M 2906 525 
Q 2725 213 2448 61 
Q 2172 -91 1784 -91 
Q 1150 -91 751 415 
Q 353 922 353 1747 
Q 353 2572 751 3078 
Q 1150 3584 1784 3584 
Q 2172 3584 2448 3432 
Q 2725 3281 2906 2969 
L 2906 3500 
L 3481 3500 
L 3481 -1331 
L 2906 -1331 
L 2906 525 
z
" transform="scale(0.015625)"/>
      <path id="DejaVuSans-75" d="M 544 1381 
L 544 3500 
L 1119 3500 
L 1119 1403 
Q 1119 906 1312 657 
Q 1506 409 1894 409 
Q 2359 409 2629 706 
Q 2900 1003 2900 1516 
L 2900 3500 
L 3475 3500 
L 3475 0 
L 2900 0 
L 2900 538 
Q 2691 219 2414 64 
Q 2138 -91 1772 -91 
Q 1169 -91 856 284 
Q 544 659 544 1381 
z
M 1991 3584 
L 1991 3584 
z
" transform="scale(0.015625)"/>
      <path id="DejaVuSans-65" d="M 3597 1894 
L 3597 1613 
L 953 1613 
Q 991 1019 1311 708 
Q 1631 397 2203 397 
Q 2534 397 2845 478 
Q 3156 559 3463 722 
L 3463 178 
Q 3153 47 2828 -22 
Q 2503 -91 2169 -91 
Q 1331 -91 842 396 
Q 353 884 353 1716 
Q 353 2575 817 3079 
Q 1281 3584 2069 3584 
Q 2775 3584 3186 3129 
Q 3597 2675 3597 1894 
z
M 3022 2063 
Q 3016 2534 2758 2815 
Q 2500 3097 2075 3097 
Q 1594 3097 1305 2825 
Q 1016 2553 972 2059 
L 3022 2063 
z
" transform="scale(0.015625)"/>
      <path id="DejaVuSans-20" transform="scale(0.015625)"/>
      <path id="DejaVuSans-6e" d="M 3513 2113 
L 3513 0 
L 2938 0 
L 2938 2094 
Q 2938 2591 2744 2837 
Q 2550 3084 2163 3084 
Q 1697 3084 1428 2787 
Q 1159 2491 1159 1978 
L 1159 0 
L 581 0 
L 581 3500 
L 1159 3500 
L 1159 2956 
Q 1366 3272 1645 3428 
Q 1925 3584 2291 3584 
Q 2894 3584 3203 3211 
Q 3513 2838 3513 2113 
z
" transform="scale(0.015625)"/>
      <path id="DejaVuSans-6f" d="M 1959 3097 
Q 1497 3097 1228 2736 
Q 959 2375 959 1747 
Q 959 1119 1226 758 
Q 1494 397 1959 397 
Q 2419 397 2687 759 
Q 2956 1122 2956 1747 
Q 2956 2369 2687 2733 
Q 2419 3097 1959 3097 
z
M 1959 3584 
Q 2709 3584 3137 3096 
Q 3566 2609 3566 1747 
Q 3566 888 3137 398 
Q 2709 -91 1959 -91 
Q 1206 -91 779 398 
Q 353 888 353 1747 
Q 353 2609 779 3096 
Q 1206 3584 1959 3584 
z
" transform="scale(0.015625)"/>
      <path id="DejaVuSans-6d" d="M 3328 2828 
Q 3544 3216 3844 3400 
Q 4144 3584 4550 3584 
Q 5097 3584 5394 3201 
Q 5691 2819 5691 2113 
L 5691 0 
L 5113 0 
L 5113 2094 
Q 5113 2597 4934 2840 
Q 4756 3084 4391 3084 
Q 3944 3084 3684 2787 
Q 3425 2491 3425 1978 
L 3425 0 
L 2847 0 
L 2847 2094 
Q 2847 2600 2669 2842 
Q 2491 3084 2119 3084 
Q 1678 3084 1418 2786 
Q 1159 2488 1159 1978 
L 1159 0 
L 581 0 
L 581 3500 
L 1159 3500 
L 1159 2956 
Q 1356 3278 1631 3431 
Q 1906 3584 2284 3584 
Q 2666 3584 2933 3390 
Q 3200 3197 3328 2828 
z
" transform="scale(0.015625)"/>
      <path id="DejaVuSans-62" d="M 3116 1747 
Q 3116 2381 2855 2742 
Q 2594 3103 2138 3103 
Q 1681 3103 1420 2742 
Q 1159 2381 1159 1747 
Q 1159 1113 1420 752 
Q 1681 391 2138 391 
Q 2594 391 2855 752 
Q 3116 1113 3116 1747 
z
M 1159 2969 
Q 1341 3281 1617 3432 
Q 1894 3584 2278 3584 
Q 2916 3584 3314 3078 
Q 3713 2572 3713 1747 
Q 3713 922 3314 415 
Q 2916 -91 2278 -91 
Q 1894 -91 1617 61 
Q 1341 213 1159 525 
L 1159 0 
L 581 0 
L 581 4863 
L 1159 4863 
L 1159 2969 
z
" transform="scale(0.015625)"/>
      <path id="DejaVuSans-72" d="M 2631 2963 
Q 2534 3019 2420 3045 
Q 2306 3072 2169 3072 
Q 1681 3072 1420 2755 
Q 1159 2438 1159 1844 
L 1159 0 
L 581 0 
L 581 3500 
L 1159 3500 
L 1159 2956 
Q 1341 3275 1631 3429 
Q 1922 3584 2338 3584 
Q 2397 3584 2469 3576 
Q 2541 3569 2628 3553 
L 2631 2963 
z
" transform="scale(0.015625)"/>
      <path id="DejaVuSans-70" d="M 1159 525 
L 1159 -1331 
L 581 -1331 
L 581 3500 
L 1159 3500 
L 1159 2969 
Q 1341 3281 1617 3432 
Q 1894 3584 2278 3584 
Q 2916 3584 3314 3078 
Q 3713 2572 3713 1747 
Q 3713 922 3314 415 
Q 2916 -91 2278 -91 
Q 1894 -91 1617 61 
Q 1341 213 1159 525 
z
M 3116 1747 
Q 3116 2381 2855 2742 
Q 2594 3103 2138 3103 
Q 1681 3103 1420 2742 
Q 1159 2381 1159 1747 
Q 1159 1113 1420 752 
Q 1681 391 2138 391 
Q 2594 391 2855 752 
Q 3116 1113 3116 1747 
z
" transform="scale(0.015625)"/>
      <path id="DejaVuSans-74" d="M 1172 4494 
L 1172 3500 
L 2356 3500 
L 2356 3053 
L 1172 3053 
L 1172 1153 
Q 1172 725 1289 603 
Q 1406 481 1766 481 
L 2356 481 
L 2356 0 
L 1766 0 
Q 1100 0 847 248 
Q 594 497 594 1153 
L 594 3053 
L 172 3053 
L 172 3500 
L 594 3500 
L 594 4494 
L 1172 4494 
z
" transform="scale(0.015625)"/>
      <path id="DejaVuSans-ea" d="M 3597 1894 
L 3597 1613 
L 953 1613 
Q 991 1019 1311 708 
Q 1631 397 2203 397 
Q 2534 397 2845 478 
Q 3156 559 3463 722 
L 3463 178 
Q 3153 47 2828 -22 
Q 2503 -91 2169 -91 
Q 1331 -91 842 396 
Q 353 884 353 1716 
Q 353 2575 817 3079 
Q 1281 3584 2069 3584 
Q 2775 3584 3186 3129 
Q 3597 2675 3597 1894 
z
M 3022 2063 
Q 3016 2534 2758 2815 
Q 2500 3097 2075 3097 
Q 1594 3097 1305 2825 
Q 1016 2553 972 2059 
L 3022 2063 
z
M 1801 5119 
L 2263 5119 
L 3029 3944 
L 2595 3944 
L 2032 4709 
L 1470 3944 
L 1035 3944 
L 1801 5119 
z
" transform="scale(0.015625)"/>
      <path id="DejaVuSans-27" d="M 1147 4666 
L 1147 2931 
L 616 2931 
L 616 4666 
L 1147 4666 
z
" transform="scale(0.015625)"/>
      <path id="DejaVuSans-63" d="M 3122 3366 
L 3122 2828 
Q 2878 2963 2633 3030 
Q 2388 3097 2138 3097 
Q 1578 3097 1268 2742 
Q 959 2388 959 1747 
Q 959 1106 1268 751 
Q 1578 397 2138 397 
Q 2388 397 2633 464 
Q 2878 531 3122 666 
L 3122 134 
Q 2881 22 2623 -34 
Q 2366 -91 2075 -91 
Q 1284 -91 818 406 
Q 353 903 353 1747 
Q 353 2603 823 3093 
Q 1294 3584 2113 3584 
Q 2378 3584 2631 3529 
Q 2884 3475 3122 3366 
z
" transform="scale(0.015625)"/>
      <path id="DejaVuSans-e9" d="M 3597 1894 
L 3597 1613 
L 953 1613 
Q 991 1019 1311 708 
Q 1631 397 2203 397 
Q 2534 397 2845 478 
Q 3156 559 3463 722 
L 3463 178 
Q 3153 47 2828 -22 
Q 2503 -91 2169 -91 
Q 1331 -91 842 396 
Q 353 884 353 1716 
Q 353 2575 817 3079 
Q 1281 3584 2069 3584 
Q 2775 3584 3186 3129 
Q 3597 2675 3597 1894 
z
M 3022 2063 
Q 3016 2534 2758 2815 
Q 2500 3097 2075 3097 
Q 1594 3097 1305 2825 
Q 1016 2553 972 2059 
L 3022 2063 
z
M 2466 5119 
L 3088 5119 
L 2070 3944 
L 1591 3944 
L 2466 5119 
z
" transform="scale(0.015625)"/>
      <path id="DejaVuSans-64" d="M 2906 2969 
L 2906 4863 
L 3481 4863 
L 3481 0 
L 2906 0 
L 2906 525 
Q 2725 213 2448 61 
Q 2172 -91 1784 -91 
Q 1150 -91 751 415 
Q 353 922 353 1747 
Q 353 2572 751 3078 
Q 1150 3584 1784 3584 
Q 2172 3584 2448 3432 
Q 2725 3281 2906 2969 
z
M 947 1747 
Q 947 1113 1208 752 
Q 1469 391 1925 391 
Q 2381 391 2643 752 
Q 2906 1113 2906 1747 
Q 2906 2381 2643 2742 
Q 2381 3103 1925 3103 
Q 1469 3103 1208 2742 
Q 947 2381 947 1747 
z
" transform="scale(0.015625)"/>
      <path id="DejaVuSans-78" d="M 3513 3500 
L 2247 1797 
L 3578 0 
L 2900 0 
L 1881 1375 
L 863 0 
L 184 0 
L 1544 1831 
L 300 3500 
L 978 3500 
L 1906 2253 
L 2834 3500 
L 3513 3500 
z
" transform="scale(0.015625)"/>
      <path id="DejaVuSans-69" d="M 603 3500 
L 1178 3500 
L 1178 0 
L 603 0 
L 603 3500 
z
M 603 4863 
L 1178 4863 
L 1178 4134 
L 603 4134 
L 603 4863 
z
" transform="scale(0.015625)"/>
      <path id="DejaVuSans-73" d="M 2834 3397 
L 2834 2853 
Q 2591 2978 2328 3040 
Q 2066 3103 1784 3103 
Q 1356 3103 1142 2972 
Q 928 2841 928 2578 
Q 928 2378 1081 2264 
Q 1234 2150 1697 2047 
L 1894 2003 
Q 2506 1872 2764 1633 
Q 3022 1394 3022 966 
Q 3022 478 2636 193 
Q 2250 -91 1575 -91 
Q 1294 -91 989 -36 
Q 684 19 347 128 
L 347 722 
Q 666 556 975 473 
Q 1284 391 1588 391 
Q 1994 391 2212 530 
Q 2431 669 2431 922 
Q 2431 1156 2273 1281 
Q 2116 1406 1581 1522 
L 1381 1569 
Q 847 1681 609 1914 
Q 372 2147 372 2553 
Q 372 3047 722 3315 
Q 1072 3584 1716 3584 
Q 2034 3584 2315 3537 
Q 2597 3491 2834 3397 
z
" transform="scale(0.015625)"/>
      <path id="DejaVuSans-2e" d="M 684 794 
L 1344 794 
L 1344 0 
L 684 0 
L 684 794 
z
" transform="scale(0.015625)"/>
     </defs>
     <use xlink:href="#DejaVuSans-43"/>
     <use xlink:href="#DejaVuSans-68" transform="translate(69.824219 0)"/>
     <use xlink:href="#DejaVuSans-61" transform="translate(133.203125 0)"/>
     <use xlink:href="#DejaVuSans-71" transform="translate(194.482422 0)"/>
     <use xlink:href="#DejaVuSans-75" transform="translate(257.958984 0)"/>
     <use xlink:href="#DejaVuSans-65" transform="translate(321.337891 0)"/>
     <use xlink:href="#DejaVuSans-20" transform="translate(382.861328 0)"/>
     <use xlink:href="#DejaVuSans-6e" transform="translate(414.648438 0)"/>
     <use xlink:href="#DejaVuSans-6f" transform="translate(478.027344 0)"/>
     <use xlink:href="#DejaVuSans-6d" transform="translate(539.208984 0)"/>
     <use xlink:href="#DejaVuSans-62" transform="translate(636.621094 0)"/>
     <use xlink:href="#DejaVuSans-72" transform="translate(700.097656 0)"/>
     <use xlink:href="#DejaVuSans-65" transform="translate(738.960938 0)"/>
     <use xlink:href="#DejaVuSans-20" transform="translate(800.484375 0)"/>
     <use xlink:href="#DejaVuSans-70" transform="translate(832.271484 0)"/>
     <use xlink:href="#DejaVuSans-65" transform="translate(895.748047 0)"/>
     <use xlink:href="#DejaVuSans-75" transform="translate(957.271484 0)"/>
     <use xlink:href="#DejaVuSans-74" transform="translate(1020.650391 0)"/>
     <use xlink:href="#DejaVuSans-20" transform="translate(1059.859375 0)"/>
     <use xlink:href="#DejaVuSans-ea" transform="translate(1091.646484 0)"/>
     <use xlink:href="#DejaVuSans-74" transform="translate(1153.169922 0)"/>
     <use xlink:href="#DejaVuSans-72" transform="translate(1192.378906 0)"/>
     <use xlink:href="#DejaVuSans-65" transform="translate(1231.242188 0)"/>
     <use xlink:href="#DejaVuSans-20" transform="translate(1292.765625 0)"/>
     <use xlink:href="#DejaVuSans-27" transform="translate(1324.552734 0)"/>
     <use xlink:href="#DejaVuSans-63" transform="translate(1352.042969 0)"/>
     <use xlink:href="#DejaVuSans-6f" transform="translate(1407.023438 0)"/>
     <use xlink:href="#DejaVuSans-75" transform="translate(1468.205078 0)"/>
     <use xlink:href="#DejaVuSans-70" transform="translate(1531.583984 0)"/>
     <use xlink:href="#DejaVuSans-e9" transform="translate(1595.060547 0)"/>
     <use xlink:href="#DejaVuSans-27" transform="translate(1656.583984 0)"/>
     <use xlink:href="#DejaVuSans-20" transform="translate(1684.074219 0)"/>
     <use xlink:href="#DejaVuSans-65" transform="translate(1715.861328 0)"/>
     <use xlink:href="#DejaVuSans-6e" transform="translate(1777.384766 0)"/>
     <use xlink:href="#DejaVuSans-20" transform="translate(1840.763672 0)"/>
     <use xlink:href="#DejaVuSans-64" transform="translate(1872.550781 0)"/>
     <use xlink:href="#DejaVuSans-65" transform="translate(1936.027344 0)"/>
     <use xlink:href="#DejaVuSans-75" transform="translate(1997.550781 0)"/>
     <use xlink:href="#DejaVuSans-78" transform="translate(2060.929688 0)"/>
     <use xlink:href="#DejaVuSans-20" transform="translate(2120.109375 0)"/>
     <use xlink:href="#DejaVuSans-70" transform="translate(2151.896484 0)"/>
     <use xlink:href="#DejaVuSans-61" transform="translate(2215.373047 0)"/>
     <use xlink:href="#DejaVuSans-72" transform="translate(2276.652344 0)"/>
     <use xlink:href="#DejaVuSans-74" transform="translate(2317.765625 0)"/>
     <use xlink:href="#DejaVuSans-69" transform="translate(2356.974609 0)"/>
     <use xlink:href="#DejaVuSans-65" transform="translate(2384.757812 0)"/>
     <use xlink:href="#DejaVuSans-73" transform="translate(2446.28125 0)"/>
     <use xlink:href="#DejaVuSans-2e" transform="translate(2498.380859 0)"/>
    </g>
    <!-- En dessinant une cerise à deux fruits, l'enfant choisit comment couper -->
    <g style="fill: #1d1d1f" transform="translate(104.871172 162.685625) scale(0.115 -0.115)">
     <defs>
      <path id="DejaVuSans-45" d="M 628 4666 
L 3578 4666 
L 3578 4134 
L 1259 4134 
L 1259 2753 
L 3481 2753 
L 3481 2222 
L 1259 2222 
L 1259 531 
L 3634 531 
L 3634 0 
L 628 0 
L 628 4666 
z
" transform="scale(0.015625)"/>
      <path id="DejaVuSans-e0" d="M 2194 1759 
Q 1497 1759 1228 1600 
Q 959 1441 959 1056 
Q 959 750 1161 570 
Q 1363 391 1709 391 
Q 2188 391 2477 730 
Q 2766 1069 2766 1631 
L 2766 1759 
L 2194 1759 
z
M 3341 1997 
L 3341 0 
L 2766 0 
L 2766 531 
Q 2569 213 2275 61 
Q 1981 -91 1556 -91 
Q 1019 -91 701 211 
Q 384 513 384 1019 
Q 384 1609 779 1909 
Q 1175 2209 1959 2209 
L 2766 2209 
L 2766 2266 
Q 2766 2663 2505 2880 
Q 2244 3097 1772 3097 
Q 1472 3097 1187 3025 
Q 903 2953 641 2809 
L 641 3341 
Q 956 3463 1253 3523 
Q 1550 3584 1831 3584 
Q 2591 3584 2966 3190 
Q 3341 2797 3341 1997 
z
M 1403 5119 
L 2284 3950 
L 1806 3950 
L 787 5119 
L 1403 5119 
z
" transform="scale(0.015625)"/>
      <path id="DejaVuSans-66" d="M 2375 4863 
L 2375 4384 
L 1825 4384 
Q 1516 4384 1395 4259 
Q 1275 4134 1275 3809 
L 1275 3500 
L 2222 3500 
L 2222 3053 
L 1275 3053 
L 1275 0 
L 697 0 
L 697 3053 
L 147 3053 
L 147 3500 
L 697 3500 
L 697 3744 
Q 697 4328 969 4595 
Q 1241 4863 1831 4863 
L 2375 4863 
z
" transform="scale(0.015625)"/>
      <path id="DejaVuSans-2c" d="M 750 794 
L 1409 794 
L 1409 256 
L 897 -744 
L 494 -744 
L 750 256 
L 750 794 
z
" transform="scale(0.015625)"/>
      <path id="DejaVuSans-6c" d="M 603 4863 
L 1178 4863 
L 1178 0 
L 603 0 
L 603 4863 
z
" transform="scale(0.015625)"/>
     </defs>
     <use xlink:href="#DejaVuSans-45"/>
     <use xlink:href="#DejaVuSans-6e" transform="translate(63.183594 0)"/>
     <use xlink:href="#DejaVuSans-20" transform="translate(126.5625 0)"/>
     <use xlink:href="#DejaVuSans-64" transform="translate(158.349609 0)"/>
     <use xlink:href="#DejaVuSans-65" transform="translate(221.826172 0)"/>
     <use xlink:href="#DejaVuSans-73" transform="translate(283.349609 0)"/>
     <use xlink:href="#DejaVuSans-73" transform="translate(335.449219 0)"/>
     <use xlink:href="#DejaVuSans-69" transform="translate(387.548828 0)"/>
     <use xlink:href="#DejaVuSans-6e" transform="translate(415.332031 0)"/>
     <use xlink:href="#DejaVuSans-61" transform="translate(478.710938 0)"/>
     <use xlink:href="#DejaVuSans-6e" transform="translate(539.990234 0)"/>
     <use xlink:href="#DejaVuSans-74" transform="translate(603.369141 0)"/>
     <use xlink:href="#DejaVuSans-20" transform="translate(642.578125 0)"/>
     <use xlink:href="#DejaVuSans-75" transform="translate(674.365234 0)"/>
     <use xlink:href="#DejaVuSans-6e" transform="translate(737.744141 0)"/>
     <use xlink:href="#DejaVuSans-65" transform="translate(801.123047 0)"/>
     <use xlink:href="#DejaVuSans-20" transform="translate(862.646484 0)"/>
     <use xlink:href="#DejaVuSans-63" transform="translate(894.433594 0)"/>
     <use xlink:href="#DejaVuSans-65" transform="translate(949.414062 0)"/>
     <use xlink:href="#DejaVuSans-72" transform="translate(1010.9375 0)"/>
     <use xlink:href="#DejaVuSans-69" transform="translate(1052.050781 0)"/>
     <use xlink:href="#DejaVuSans-73" transform="translate(1079.833984 0)"/>
     <use xlink:href="#DejaVuSans-65" transform="translate(1131.933594 0)"/>
     <use xlink:href="#DejaVuSans-20" transform="translate(1193.457031 0)"/>
     <use xlink:href="#DejaVuSans-e0" transform="translate(1225.244141 0)"/>
     <use xlink:href="#DejaVuSans-20" transform="translate(1286.523438 0)"/>
     <use xlink:href="#DejaVuSans-64" transform="translate(1318.310547 0)"/>
     <use xlink:href="#DejaVuSans-65" transform="translate(1381.787109 0)"/>
     <use xlink:href="#DejaVuSans-75" transform="translate(1443.310547 0)"/>
     <use xlink:href="#DejaVuSans-78" transform="translate(1506.689453 0)"/>
     <use xlink:href="#DejaVuSans-20" transform="translate(1565.869141 0)"/>
     <use xlink:href="#DejaVuSans-66" transform="translate(1597.65625 0)"/>
     <use xlink:href="#DejaVuSans-72" transform="translate(1632.861328 0)"/>
     <use xlink:href="#DejaVuSans-75" transform="translate(1673.974609 0)"/>
     <use xlink:href="#DejaVuSans-69" transform="translate(1737.353516 0)"/>
     <use xlink:href="#DejaVuSans-74" transform="translate(1765.136719 0)"/>
     <use xlink:href="#DejaVuSans-73" transform="translate(1804.345703 0)"/>
     <use xlink:href="#DejaVuSans-2c" transform="translate(1856.445312 0)"/>
     <use xlink:href="#DejaVuSans-20" transform="translate(1888.232422 0)"/>
     <use xlink:href="#DejaVuSans-6c" transform="translate(1920.019531 0)"/>
     <use xlink:href="#DejaVuSans-27" transform="translate(1947.802734 0)"/>
     <use xlink:href="#DejaVuSans-65" transform="translate(1975.292969 0)"/>
     <use xlink:href="#DejaVuSans-6e" transform="translate(2036.816406 0)"/>
     <use xlink:href="#DejaVuSans-66" transform="translate(2100.195312 0)"/>
     <use xlink:href="#DejaVuSans-61" transform="translate(2135.400391 0)"/>
     <use xlink:href="#DejaVuSans-6e" transform="translate(2196.679688 0)"/>
     <use xlink:href="#DejaVuSans-74" transform="translate(2260.058594 0)"/>
     <use xlink:href="#DejaVuSans-20" transform="translate(2299.267578 0)"/>
     <use xlink:href="#DejaVuSans-63" transform="translate(2331.054688 0)"/>
     <use xlink:href="#DejaVuSans-68" transform="translate(2386.035156 0)"/>
     <use xlink:href="#DejaVuSans-6f" transform="translate(2449.414062 0)"/>
     <use xlink:href="#DejaVuSans-69" transform="translate(2510.595703 0)"/>
     <use xlink:href="#DejaVuSans-73" transform="translate(2538.378906 0)"/>
     <use xlink:href="#DejaVuSans-69" transform="translate(2590.478516 0)"/>
     <use xlink:href="#DejaVuSans-74" transform="translate(2618.261719 0)"/>
     <use xlink:href="#DejaVuSans-20" transform="translate(2657.470703 0)"/>
     <use xlink:href="#DejaVuSans-63" transform="translate(2689.257812 0)"/>
     <use xlink:href="#DejaVuSans-6f" transform="translate(2744.238281 0)"/>
     <use xlink:href="#DejaVuSans-6d" transform="translate(2805.419922 0)"/>
     <use xlink:href="#DejaVuSans-6d" transform="translate(2902.832031 0)"/>
     <use xlink:href="#DejaVuSans-65" transform="translate(3000.244141 0)"/>
     <use xlink:href="#DejaVuSans-6e" transform="translate(3061.767578 0)"/>
     <use xlink:href="#DejaVuSans-74" transform="translate(3125.146484 0)"/>
     <use xlink:href="#DejaVuSans-20" transform="translate(3164.355469 0)"/>
     <use xlink:href="#DejaVuSans-63" transform="translate(3196.142578 0)"/>
     <use xlink:href="#DejaVuSans-6f" transform="translate(3251.123047 0)"/>
     <use xlink:href="#DejaVuSans-75" transform="translate(3312.304688 0)"/>
     <use xlink:href="#DejaVuSans-70" transform="translate(3375.683594 0)"/>
     <use xlink:href="#DejaVuSans-65" transform="translate(3439.160156 0)"/>
     <use xlink:href="#DejaVuSans-72" transform="translate(3500.683594 0)"/>
    </g>
    <!-- pour rendre le calcul plus facile (souvent l'une vaut 5 ou 10). -->
    <g style="fill: #1d1d1f" transform="translate(132.973398 179.05839) scale(0.115 -0.115)">
     <defs>
      <path id="DejaVuSans-28" d="M 1984 4856 
Q 1566 4138 1362 3434 
Q 1159 2731 1159 2009 
Q 1159 1288 1364 580 
Q 1569 -128 1984 -844 
L 1484 -844 
Q 1016 -109 783 600 
Q 550 1309 550 2009 
Q 550 2706 781 3412 
Q 1013 4119 1484 4856 
L 1984 4856 
z
" transform="scale(0.015625)"/>
      <path id="DejaVuSans-76" d="M 191 3500 
L 800 3500 
L 1894 563 
L 2988 3500 
L 3597 3500 
L 2284 0 
L 1503 0 
L 191 3500 
z
" transform="scale(0.015625)"/>
      <path id="DejaVuSans-35" d="M 691 4666 
L 3169 4666 
L 3169 4134 
L 1269 4134 
L 1269 2991 
Q 1406 3038 1543 3061 
Q 1681 3084 1819 3084 
Q 2600 3084 3056 2656 
Q 3513 2228 3513 1497 
Q 3513 744 3044 326 
Q 2575 -91 1722 -91 
Q 1428 -91 1123 -41 
Q 819 9 494 109 
L 494 744 
Q 775 591 1075 516 
Q 1375 441 1709 441 
Q 2250 441 2565 725 
Q 2881 1009 2881 1497 
Q 2881 1984 2565 2268 
Q 2250 2553 1709 2553 
Q 1456 2553 1204 2497 
Q 953 2441 691 2322 
L 691 4666 
z
" transform="scale(0.015625)"/>
      <path id="DejaVuSans-31" d="M 794 531 
L 1825 531 
L 1825 4091 
L 703 3866 
L 703 4441 
L 1819 4666 
L 2450 4666 
L 2450 531 
L 3481 531 
L 3481 0 
L 794 0 
L 794 531 
z
" transform="scale(0.015625)"/>
      <path id="DejaVuSans-30" d="M 2034 4250 
Q 1547 4250 1301 3770 
Q 1056 3291 1056 2328 
Q 1056 1369 1301 889 
Q 1547 409 2034 409 
Q 2525 409 2770 889 
Q 3016 1369 3016 2328 
Q 3016 3291 2770 3770 
Q 2525 4250 2034 4250 
z
M 2034 4750 
Q 2819 4750 3233 4129 
Q 3647 3509 3647 2328 
Q 3647 1150 3233 529 
Q 2819 -91 2034 -91 
Q 1250 -91 836 529 
Q 422 1150 422 2328 
Q 422 3509 836 4129 
Q 1250 4750 2034 4750 
z
" transform="scale(0.015625)"/>
      <path id="DejaVuSans-29" d="M 513 4856 
L 1013 4856 
Q 1481 4119 1714 3412 
Q 1947 2706 1947 2009 
Q 1947 1309 1714 600 
Q 1481 -109 1013 -844 
L 513 -844 
Q 928 -128 1133 580 
Q 1338 1288 1338 2009 
Q 1338 2731 1133 3434 
Q 928 4138 513 4856 
z
" transform="scale(0.015625)"/>
     </defs>
     <use xlink:href="#DejaVuSans-70"/>
     <use xlink:href="#DejaVuSans-6f" transform="translate(63.476562 0)"/>
     <use xlink:href="#DejaVuSans-75" transform="translate(124.658203 0)"/>
     <use xlink:href="#DejaVuSans-72" transform="translate(188.037109 0)"/>
     <use xlink:href="#DejaVuSans-20" transform="translate(229.150391 0)"/>
     <use xlink:href="#DejaVuSans-72" transform="translate(260.9375 0)"/>
     <use xlink:href="#DejaVuSans-65" transform="translate(299.800781 0)"/>
     <use xlink:href="#DejaVuSans-6e" transform="translate(361.324219 0)"/>
     <use xlink:href="#DejaVuSans-64" transform="translate(424.703125 0)"/>
     <use xlink:href="#DejaVuSans-72" transform="translate(488.179688 0)"/>
     <use xlink:href="#DejaVuSans-65" transform="translate(527.042969 0)"/>
     <use xlink:href="#DejaVuSans-20" transform="translate(588.566406 0)"/>
     <use xlink:href="#DejaVuSans-6c" transform="translate(620.353516 0)"/>
     <use xlink:href="#DejaVuSans-65" transform="translate(648.136719 0)"/>
     <use xlink:href="#DejaVuSans-20" transform="translate(709.660156 0)"/>
     <use xlink:href="#DejaVuSans-63" transform="translate(741.447266 0)"/>
     <use xlink:href="#DejaVuSans-61" transform="translate(796.427734 0)"/>
     <use xlink:href="#DejaVuSans-6c" transform="translate(857.707031 0)"/>
     <use xlink:href="#DejaVuSans-63" transform="translate(885.490234 0)"/>
     <use xlink:href="#DejaVuSans-75" transform="translate(940.470703 0)"/>
     <use xlink:href="#DejaVuSans-6c" transform="translate(1003.849609 0)"/>
     <use xlink:href="#DejaVuSans-20" transform="translate(1031.632812 0)"/>
     <use xlink:href="#DejaVuSans-70" transform="translate(1063.419922 0)"/>
     <use xlink:href="#DejaVuSans-6c" transform="translate(1126.896484 0)"/>
     <use xlink:href="#DejaVuSans-75" transform="translate(1154.679688 0)"/>
     <use xlink:href="#DejaVuSans-73" transform="translate(1218.058594 0)"/>
     <use xlink:href="#DejaVuSans-20" transform="translate(1270.158203 0)"/>
     <use xlink:href="#DejaVuSans-66" transform="translate(1301.945312 0)"/>
     <use xlink:href="#DejaVuSans-61" transform="translate(1337.150391 0)"/>
     <use xlink:href="#DejaVuSans-63" transform="translate(1398.429688 0)"/>
     <use xlink:href="#DejaVuSans-69" transform="translate(1453.410156 0)"/>
     <use xlink:href="#DejaVuSans-6c" transform="translate(1481.193359 0)"/>
     <use xlink:href="#DejaVuSans-65" transform="translate(1508.976562 0)"/>
     <use xlink:href="#DejaVuSans-20" transform="translate(1570.5 0)"/>
     <use xlink:href="#DejaVuSans-28" transform="translate(1602.287109 0)"/>
     <use xlink:href="#DejaVuSans-73" transform="translate(1641.300781 0)"/>
     <use xlink:href="#DejaVuSans-6f" transform="translate(1693.400391 0)"/>
     <use xlink:href="#DejaVuSans-75" transform="translate(1754.582031 0)"/>
     <use xlink:href="#DejaVuSans-76" transform="translate(1817.960938 0)"/>
     <use xlink:href="#DejaVuSans-65" transform="translate(1877.140625 0)"/>
     <use xlink:href="#DejaVuSans-6e" transform="translate(1938.664062 0)"/>
     <use xlink:href="#DejaVuSans-74" transform="translate(2002.042969 0)"/>
     <use xlink:href="#DejaVuSans-20" transform="translate(2041.251953 0)"/>
     <use xlink:href="#DejaVuSans-6c" transform="translate(2073.039062 0)"/>
     <use xlink:href="#DejaVuSans-27" transform="translate(2100.822266 0)"/>
     <use xlink:href="#DejaVuSans-75" transform="translate(2128.3125 0)"/>
     <use xlink:href="#DejaVuSans-6e" transform="translate(2191.691406 0)"/>
     <use xlink:href="#DejaVuSans-65" transform="translate(2255.070312 0)"/>
     <use xlink:href="#DejaVuSans-20" transform="translate(2316.59375 0)"/>
     <use xlink:href="#DejaVuSans-76" transform="translate(2348.380859 0)"/>
     <use xlink:href="#DejaVuSans-61" transform="translate(2407.560547 0)"/>
     <use xlink:href="#DejaVuSans-75" transform="translate(2468.839844 0)"/>
     <use xlink:href="#DejaVuSans-74" transform="translate(2532.21875 0)"/>
     <use xlink:href="#DejaVuSans-20" transform="translate(2571.427734 0)"/>
     <use xlink:href="#DejaVuSans-35" transform="translate(2603.214844 0)"/>
     <use xlink:href="#DejaVuSans-20" transform="translate(2666.837891 0)"/>
     <use xlink:href="#DejaVuSans-6f" transform="translate(2698.625 0)"/>
     <use xlink:href="#DejaVuSans-75" transform="translate(2759.806641 0)"/>
     <use xlink:href="#DejaVuSans-20" transform="translate(2823.185547 0)"/>
     <use xlink:href="#DejaVuSans-31" transform="translate(2854.972656 0)"/>
     <use xlink:href="#DejaVuSans-30" transform="translate(2918.595703 0)"/>
     <use xlink:href="#DejaVuSans-29" transform="translate(2982.21875 0)"/>
     <use xlink:href="#DejaVuSans-2e" transform="translate(3021.232422 0)"/>
    </g>
   </g>
   <g id="text_4">
    <!-- 8 -->
    <g style="fill: #ffffff" transform="translate(134.582065 327.693483) scale(0.18 -0.18)">
     <defs>
      <path id="DejaVuSans-Bold-38" d="M 2228 2088 
Q 1891 2088 1709 1903 
Q 1528 1719 1528 1375 
Q 1528 1031 1709 848 
Q 1891 666 2228 666 
Q 2563 666 2741 848 
Q 2919 1031 2919 1375 
Q 2919 1722 2741 1905 
Q 2563 2088 2228 2088 
z
M 1350 2484 
Q 925 2613 709 2878 
Q 494 3144 494 3541 
Q 494 4131 934 4440 
Q 1375 4750 2228 4750 
Q 3075 4750 3515 4442 
Q 3956 4134 3956 3541 
Q 3956 3144 3739 2878 
Q 3522 2613 3097 2484 
Q 3572 2353 3814 2058 
Q 4056 1763 4056 1313 
Q 4056 619 3595 264 
Q 3134 -91 2228 -91 
Q 1319 -91 855 264 
Q 391 619 391 1313 
Q 391 1763 633 2058 
Q 875 2353 1350 2484 
z
M 1631 3419 
Q 1631 3141 1786 2991 
Q 1941 2841 2228 2841 
Q 2509 2841 2662 2991 
Q 2816 3141 2816 3419 
Q 2816 3697 2662 3845 
Q 2509 3994 2228 3994 
Q 1941 3994 1786 3844 
Q 1631 3694 1631 3419 
z
" transform="scale(0.015625)"/>
     </defs>
     <use xlink:href="#DejaVuSans-Bold-38"/>
    </g>
   </g>
   <g id="text_5">
    <!-- 5 -->
    <g style="fill: #ffffff" transform="translate(99.294523 457.723477) scale(0.14 -0.14)">
     <defs>
      <path id="DejaVuSans-Bold-35" d="M 678 4666 
L 3669 4666 
L 3669 3781 
L 1638 3781 
L 1638 3059 
Q 1775 3097 1914 3117 
Q 2053 3138 2203 3138 
Q 3056 3138 3531 2711 
Q 4006 2284 4006 1522 
Q 4006 766 3489 337 
Q 2972 -91 2053 -91 
Q 1656 -91 1267 -14 
Q 878 63 494 219 
L 494 1166 
Q 875 947 1217 837 
Q 1559 728 1863 728 
Q 2300 728 2551 942 
Q 2803 1156 2803 1522 
Q 2803 1891 2551 2103 
Q 2300 2316 1863 2316 
Q 1603 2316 1309 2248 
Q 1016 2181 678 2041 
L 678 4666 
z
" transform="scale(0.015625)"/>
     </defs>
     <use xlink:href="#DejaVuSans-Bold-35"/>
    </g>
   </g>
   <g id="text_6">
    <!-- 3 -->
    <g style="fill: #ffffff" transform="translate(172.652731 457.723477) scale(0.14 -0.14)">
     <defs>
      <path id="DejaVuSans-Bold-33" d="M 2981 2516 
Q 3453 2394 3698 2092 
Q 3944 1791 3944 1325 
Q 3944 631 3412 270 
Q 2881 -91 1863 -91 
Q 1503 -91 1142 -33 
Q 781 25 428 141 
L 428 1069 
Q 766 900 1098 814 
Q 1431 728 1753 728 
Q 2231 728 2486 893 
Q 2741 1059 2741 1369 
Q 2741 1688 2480 1852 
Q 2219 2016 1709 2016 
L 1228 2016 
L 1228 2791 
L 1734 2791 
Q 2188 2791 2409 2933 
Q 2631 3075 2631 3366 
Q 2631 3634 2415 3781 
Q 2200 3928 1806 3928 
Q 1516 3928 1219 3862 
Q 922 3797 628 3669 
L 628 4550 
Q 984 4650 1334 4700 
Q 1684 4750 2022 4750 
Q 2931 4750 3382 4451 
Q 3834 4153 3834 3553 
Q 3834 3144 3618 2883 
Q 3403 2622 2981 2516 
z
" transform="scale(0.015625)"/>
     </defs>
     <use xlink:href="#DejaVuSans-Bold-33"/>
    </g>
   </g>
   <g id="text_7">
    <!-- 8 = 5 + 3 -->
    <g style="fill: #1d1d1f" transform="translate(109.909408 529.779888) scale(0.12 -0.12)">
     <defs>
      <path id="DejaVuSans-Bold-3d" d="M 678 3084 
L 4684 3084 
L 4684 2350 
L 678 2350 
L 678 3084 
z
M 678 1663 
L 4684 1663 
L 4684 922 
L 678 922 
L 678 1663 
z
" transform="scale(0.015625)"/>
      <path id="DejaVuSans-Bold-2b" d="M 3053 4013 
L 3053 2375 
L 4684 2375 
L 4684 1638 
L 3053 1638 
L 3053 0 
L 2309 0 
L 2309 1638 
L 678 1638 
L 678 2375 
L 2309 2375 
L 2309 4013 
L 3053 4013 
z
" transform="scale(0.015625)"/>
     </defs>
     <use xlink:href="#DejaVuSans-Bold-38"/>
     <use xlink:href="#DejaVuSans-Bold-20" transform="translate(69.580078 0)"/>
     <use xlink:href="#DejaVuSans-Bold-3d" transform="translate(104.394531 0)"/>
     <use xlink:href="#DejaVuSans-Bold-20" transform="translate(188.183594 0)"/>
     <use xlink:href="#DejaVuSans-Bold-35" transform="translate(222.998047 0)"/>
     <use xlink:href="#DejaVuSans-Bold-20" transform="translate(292.578125 0)"/>
     <use xlink:href="#DejaVuSans-Bold-2b" transform="translate(327.392578 0)"/>
     <use xlink:href="#DejaVuSans-Bold-20" transform="translate(411.181641 0)"/>
     <use xlink:href="#DejaVuSans-Bold-33" transform="translate(445.996094 0)"/>
    </g>
   </g>
   <g id="text_8">
    <!-- 7 -->
    <g style="fill: #ffffff" transform="translate(302.257969 327.693483) scale(0.18 -0.18)">
     <defs>
      <path id="DejaVuSans-Bold-37" d="M 428 4666 
L 3944 4666 
L 3944 3988 
L 2125 0 
L 953 0 
L 2675 3781 
L 428 3781 
L 428 4666 
z
" transform="scale(0.015625)"/>
     </defs>
     <use xlink:href="#DejaVuSans-Bold-37"/>
    </g>
   </g>
   <g id="text_9">
    <!-- 5 -->
    <g style="fill: #ffffff" transform="translate(266.970427 457.723477) scale(0.14 -0.14)">
     <use xlink:href="#DejaVuSans-Bold-35"/>
    </g>
   </g>
   <g id="text_10">
    <!-- 2 -->
    <g style="fill: #ffffff" transform="translate(340.328635 457.723477) scale(0.14 -0.14)">
     <defs>
      <path id="DejaVuSans-Bold-32" d="M 1844 884 
L 3897 884 
L 3897 0 
L 506 0 
L 506 884 
L 2209 2388 
Q 2438 2594 2547 2791 
Q 2656 2988 2656 3200 
Q 2656 3528 2436 3728 
Q 2216 3928 1850 3928 
Q 1569 3928 1234 3808 
Q 900 3688 519 3450 
L 519 4475 
Q 925 4609 1322 4679 
Q 1719 4750 2100 4750 
Q 2938 4750 3402 4381 
Q 3866 4013 3866 3353 
Q 3866 2972 3669 2642 
Q 3472 2313 2841 1759 
L 1844 884 
z
" transform="scale(0.015625)"/>
     </defs>
     <use xlink:href="#DejaVuSans-Bold-32"/>
    </g>
   </g>
   <g id="text_11">
    <!-- 7 = 5 + 2 -->
    <g style="fill: #1d1d1f" transform="translate(277.585312 529.779888) scale(0.12 -0.12)">
     <use xlink:href="#DejaVuSans-Bold-37"/>
     <use xlink:href="#DejaVuSans-Bold-20" transform="translate(69.580078 0)"/>
     <use xlink:href="#DejaVuSans-Bold-3d" transform="translate(104.394531 0)"/>
     <use xlink:href="#DejaVuSans-Bold-20" transform="translate(188.183594 0)"/>
     <use xlink:href="#DejaVuSans-Bold-35" transform="translate(222.998047 0)"/>
     <use xlink:href="#DejaVuSans-Bold-20" transform="translate(292.578125 0)"/>
     <use xlink:href="#DejaVuSans-Bold-2b" transform="translate(327.392578 0)"/>
     <use xlink:href="#DejaVuSans-Bold-20" transform="translate(411.181641 0)"/>
     <use xlink:href="#DejaVuSans-Bold-32" transform="translate(445.996094 0)"/>
    </g>
   </g>
   <g id="text_12">
    <!-- 8 -->
    <g style="fill: #ffffff" transform="translate(469.933873 327.693483) scale(0.18 -0.18)">
     <use xlink:href="#DejaVuSans-Bold-38"/>
    </g>
   </g>
   <g id="text_13">
    <!-- 4 -->
    <g style="fill: #ffffff" transform="translate(434.646331 457.723477) scale(0.14 -0.14)">
     <defs>
      <path id="DejaVuSans-Bold-34" d="M 2356 3675 
L 1038 1722 
L 2356 1722 
L 2356 3675 
z
M 2156 4666 
L 3494 4666 
L 3494 1722 
L 4159 1722 
L 4159 850 
L 3494 850 
L 3494 0 
L 2356 0 
L 2356 850 
L 288 850 
L 288 1881 
L 2156 4666 
z
" transform="scale(0.015625)"/>
     </defs>
     <use xlink:href="#DejaVuSans-Bold-34"/>
    </g>
   </g>
   <g id="text_14">
    <!-- 4 -->
    <g style="fill: #ffffff" transform="translate(508.004539 457.723477) scale(0.14 -0.14)">
     <use xlink:href="#DejaVuSans-Bold-34"/>
    </g>
   </g>
   <g id="text_15">
    <!-- 8 = 4 + 4 -->
    <g style="fill: #1d1d1f" transform="translate(445.261216 529.779888) scale(0.12 -0.12)">
     <use xlink:href="#DejaVuSans-Bold-38"/>
     <use xlink:href="#DejaVuSans-Bold-20" transform="translate(69.580078 0)"/>
     <use xlink:href="#DejaVuSans-Bold-3d" transform="translate(104.394531 0)"/>
     <use xlink:href="#DejaVuSans-Bold-20" transform="translate(188.183594 0)"/>
     <use xlink:href="#DejaVuSans-Bold-34" transform="translate(222.998047 0)"/>
     <use xlink:href="#DejaVuSans-Bold-20" transform="translate(292.578125 0)"/>
     <use xlink:href="#DejaVuSans-Bold-2b" transform="translate(327.392578 0)"/>
     <use xlink:href="#DejaVuSans-Bold-20" transform="translate(411.181641 0)"/>
     <use xlink:href="#DejaVuSans-Bold-34" transform="translate(445.996094 0)"/>
    </g>
   </g>
   <g id="text_16">
    <!-- Exemple : 7 × 8 avec la cerise -->
    <g style="fill: #0b3d91" transform="translate(199.01125 612.6012) scale(0.13 -0.13)">
     <defs>
      <path id="DejaVuSans-Bold-45" d="M 588 4666 
L 3834 4666 
L 3834 3756 
L 1791 3756 
L 1791 2888 
L 3713 2888 
L 3713 1978 
L 1791 1978 
L 1791 909 
L 3903 909 
L 3903 0 
L 588 0 
L 588 4666 
z
" transform="scale(0.015625)"/>
      <path id="DejaVuSans-Bold-78" d="M 1422 1791 
L 159 3500 
L 1344 3500 
L 2059 2463 
L 2784 3500 
L 3969 3500 
L 2706 1797 
L 4031 0 
L 2847 0 
L 2059 1106 
L 1281 0 
L 97 0 
L 1422 1791 
z
" transform="scale(0.015625)"/>
      <path id="DejaVuSans-Bold-6d" d="M 3781 2919 
Q 3994 3244 4286 3414 
Q 4578 3584 4928 3584 
Q 5531 3584 5847 3212 
Q 6163 2841 6163 2131 
L 6163 0 
L 5038 0 
L 5038 1825 
Q 5041 1866 5042 1909 
Q 5044 1953 5044 2034 
Q 5044 2406 4934 2573 
Q 4825 2741 4581 2741 
Q 4263 2741 4089 2478 
Q 3916 2216 3909 1719 
L 3909 0 
L 2784 0 
L 2784 1825 
Q 2784 2406 2684 2573 
Q 2584 2741 2328 2741 
Q 2006 2741 1831 2477 
Q 1656 2213 1656 1722 
L 1656 0 
L 531 0 
L 531 3500 
L 1656 3500 
L 1656 2988 
Q 1863 3284 2130 3434 
Q 2397 3584 2719 3584 
Q 3081 3584 3359 3409 
Q 3638 3234 3781 2919 
z
" transform="scale(0.015625)"/>
      <path id="DejaVuSans-Bold-70" d="M 1656 506 
L 1656 -1331 
L 538 -1331 
L 538 3500 
L 1656 3500 
L 1656 2988 
Q 1888 3294 2169 3439 
Q 2450 3584 2816 3584 
Q 3463 3584 3878 3070 
Q 4294 2556 4294 1747 
Q 4294 938 3878 423 
Q 3463 -91 2816 -91 
Q 2450 -91 2169 54 
Q 1888 200 1656 506 
z
M 2400 2772 
Q 2041 2772 1848 2508 
Q 1656 2244 1656 1747 
Q 1656 1250 1848 986 
Q 2041 722 2400 722 
Q 2759 722 2948 984 
Q 3138 1247 3138 1747 
Q 3138 2247 2948 2509 
Q 2759 2772 2400 2772 
z
" transform="scale(0.015625)"/>
      <path id="DejaVuSans-Bold-6c" d="M 538 4863 
L 1656 4863 
L 1656 0 
L 538 0 
L 538 4863 
z
" transform="scale(0.015625)"/>
      <path id="DejaVuSans-Bold-3a" d="M 716 3500 
L 1844 3500 
L 1844 2291 
L 716 2291 
L 716 3500 
z
M 716 1209 
L 1844 1209 
L 1844 0 
L 716 0 
L 716 1209 
z
" transform="scale(0.015625)"/>
      <path id="DejaVuSans-Bold-d7" d="M 4563 3359 
L 3206 2003 
L 4563 653 
L 4038 128 
L 2681 1478 
L 1325 128 
L 800 653 
L 2156 2003 
L 800 3359 
L 1325 3884 
L 2681 2528 
L 4038 3884 
L 4563 3359 
z
" transform="scale(0.015625)"/>
      <path id="DejaVuSans-Bold-76" d="M 97 3500 
L 1216 3500 
L 2088 1081 
L 2956 3500 
L 4078 3500 
L 2700 0 
L 1472 0 
L 97 3500 
z
" transform="scale(0.015625)"/>
     </defs>
     <use xlink:href="#DejaVuSans-Bold-45"/>
     <use xlink:href="#DejaVuSans-Bold-78" transform="translate(68.310547 0)"/>
     <use xlink:href="#DejaVuSans-Bold-65" transform="translate(132.8125 0)"/>
     <use xlink:href="#DejaVuSans-Bold-6d" transform="translate(200.634766 0)"/>
     <use xlink:href="#DejaVuSans-Bold-70" transform="translate(304.833984 0)"/>
     <use xlink:href="#DejaVuSans-Bold-6c" transform="translate(376.416016 0)"/>
     <use xlink:href="#DejaVuSans-Bold-65" transform="translate(410.693359 0)"/>
     <use xlink:href="#DejaVuSans-Bold-20" transform="translate(478.515625 0)"/>
     <use xlink:href="#DejaVuSans-Bold-3a" transform="translate(513.330078 0)"/>
     <use xlink:href="#DejaVuSans-Bold-20" transform="translate(553.320312 0)"/>
     <use xlink:href="#DejaVuSans-Bold-37" transform="translate(588.134766 0)"/>
     <use xlink:href="#DejaVuSans-Bold-20" transform="translate(657.714844 0)"/>
     <use xlink:href="#DejaVuSans-Bold-d7" transform="translate(692.529297 0)"/>
     <use xlink:href="#DejaVuSans-Bold-20" transform="translate(776.318359 0)"/>
     <use xlink:href="#DejaVuSans-Bold-38" transform="translate(811.132812 0)"/>
     <use xlink:href="#DejaVuSans-Bold-20" transform="translate(880.712891 0)"/>
     <use xlink:href="#DejaVuSans-Bold-61" transform="translate(915.527344 0)"/>
     <use xlink:href="#DejaVuSans-Bold-76" transform="translate(983.007812 0)"/>
     <use xlink:href="#DejaVuSans-Bold-65" transform="translate(1048.193359 0)"/>
     <use xlink:href="#DejaVuSans-Bold-63" transform="translate(1116.015625 0)"/>
     <use xlink:href="#DejaVuSans-Bold-20" transform="translate(1175.292969 0)"/>
     <use xlink:href="#DejaVuSans-Bold-6c" transform="translate(1210.107422 0)"/>
     <use xlink:href="#DejaVuSans-Bold-61" transform="translate(1244.384766 0)"/>
     <use xlink:href="#DejaVuSans-Bold-20" transform="translate(1311.865234 0)"/>
     <use xlink:href="#DejaVuSans-Bold-63" transform="translate(1346.679688 0)"/>
     <use xlink:href="#DejaVuSans-Bold-65" transform="translate(1405.957031 0)"/>
     <use xlink:href="#DejaVuSans-Bold-72" transform="translate(1473.779297 0)"/>
     <use xlink:href="#DejaVuSans-Bold-69" transform="translate(1523.095703 0)"/>
     <use xlink:href="#DejaVuSans-Bold-73" transform="translate(1557.373047 0)"/>
     <use xlink:href="#DejaVuSans-Bold-65" transform="translate(1616.894531 0)"/>
    </g>
   </g>
   <g id="text_17">
    <g id="patch_15">
     <path d="M 126.848047 668.817226 
L 490.191953 668.817226 
Q 495.391953 668.817226 495.391953 663.617226 
L 495.391953 651.035663 
Q 495.391953 645.835663 490.191953 645.835663 
L 126.848047 645.835663 
Q 121.648047 645.835663 121.648047 651.035663 
L 121.648047 663.617226 
Q 121.648047 668.817226 126.848047 668.817226 
z
" style="fill: #f4f6fb; stroke: #0b3d91; stroke-width: 1.5; stroke-linejoin: miter"/>
    </g>
    <!-- 8 = 5 + 3  →  7 × 8 = (7 × 5) + (7 × 3) = 35 + 21 = 56 -->
    <g style="fill: #1d1d1f" transform="translate(126.848047 660.913632) scale(0.13 -0.13)">
     <defs>
      <path id="DejaVuSans-38" d="M 2034 2216 
Q 1584 2216 1326 1975 
Q 1069 1734 1069 1313 
Q 1069 891 1326 650 
Q 1584 409 2034 409 
Q 2484 409 2743 651 
Q 3003 894 3003 1313 
Q 3003 1734 2745 1975 
Q 2488 2216 2034 2216 
z
M 1403 2484 
Q 997 2584 770 2862 
Q 544 3141 544 3541 
Q 544 4100 942 4425 
Q 1341 4750 2034 4750 
Q 2731 4750 3128 4425 
Q 3525 4100 3525 3541 
Q 3525 3141 3298 2862 
Q 3072 2584 2669 2484 
Q 3125 2378 3379 2068 
Q 3634 1759 3634 1313 
Q 3634 634 3220 271 
Q 2806 -91 2034 -91 
Q 1263 -91 848 271 
Q 434 634 434 1313 
Q 434 1759 690 2068 
Q 947 2378 1403 2484 
z
M 1172 3481 
Q 1172 3119 1398 2916 
Q 1625 2713 2034 2713 
Q 2441 2713 2670 2916 
Q 2900 3119 2900 3481 
Q 2900 3844 2670 4047 
Q 2441 4250 2034 4250 
Q 1625 4250 1398 4047 
Q 1172 3844 1172 3481 
z
" transform="scale(0.015625)"/>
      <path id="DejaVuSans-3d" d="M 678 2906 
L 4684 2906 
L 4684 2381 
L 678 2381 
L 678 2906 
z
M 678 1631 
L 4684 1631 
L 4684 1100 
L 678 1100 
L 678 1631 
z
" transform="scale(0.015625)"/>
      <path id="DejaVuSans-2b" d="M 2944 4013 
L 2944 2272 
L 4684 2272 
L 4684 1741 
L 2944 1741 
L 2944 0 
L 2419 0 
L 2419 1741 
L 678 1741 
L 678 2272 
L 2419 2272 
L 2419 4013 
L 2944 4013 
z
" transform="scale(0.015625)"/>
      <path id="DejaVuSans-33" d="M 2597 2516 
Q 3050 2419 3304 2112 
Q 3559 1806 3559 1356 
Q 3559 666 3084 287 
Q 2609 -91 1734 -91 
Q 1441 -91 1130 -33 
Q 819 25 488 141 
L 488 750 
Q 750 597 1062 519 
Q 1375 441 1716 441 
Q 2309 441 2620 675 
Q 2931 909 2931 1356 
Q 2931 1769 2642 2001 
Q 2353 2234 1838 2234 
L 1294 2234 
L 1294 2753 
L 1863 2753 
Q 2328 2753 2575 2939 
Q 2822 3125 2822 3475 
Q 2822 3834 2567 4026 
Q 2313 4219 1838 4219 
Q 1578 4219 1281 4162 
Q 984 4106 628 3988 
L 628 4550 
Q 988 4650 1302 4700 
Q 1616 4750 1894 4750 
Q 2613 4750 3031 4423 
Q 3450 4097 3450 3541 
Q 3450 3153 3228 2886 
Q 3006 2619 2597 2516 
z
" transform="scale(0.015625)"/>
      <path id="DejaVuSans-2192" d="M 5050 2147 
L 5050 1866 
L 3822 638 
L 3447 1013 
L 4175 1741 
L 366 1741 
L 366 2272 
L 4175 2272 
L 3447 3000 
L 3822 3375 
L 5050 2147 
z
" transform="scale(0.015625)"/>
      <path id="DejaVuSans-37" d="M 525 4666 
L 3525 4666 
L 3525 4397 
L 1831 0 
L 1172 0 
L 2766 4134 
L 525 4134 
L 525 4666 
z
" transform="scale(0.015625)"/>
      <path id="DejaVuSans-d7" d="M 4488 3438 
L 3059 2003 
L 4488 575 
L 4116 197 
L 2681 1631 
L 1247 197 
L 878 575 
L 2303 2003 
L 878 3438 
L 1247 3816 
L 2681 2381 
L 4116 3816 
L 4488 3438 
z
" transform="scale(0.015625)"/>
      <path id="DejaVuSans-32" d="M 1228 531 
L 3431 531 
L 3431 0 
L 469 0 
L 469 531 
Q 828 903 1448 1529 
Q 2069 2156 2228 2338 
Q 2531 2678 2651 2914 
Q 2772 3150 2772 3378 
Q 2772 3750 2511 3984 
Q 2250 4219 1831 4219 
Q 1534 4219 1204 4116 
Q 875 4013 500 3803 
L 500 4441 
Q 881 4594 1212 4672 
Q 1544 4750 1819 4750 
Q 2544 4750 2975 4387 
Q 3406 4025 3406 3419 
Q 3406 3131 3298 2873 
Q 3191 2616 2906 2266 
Q 2828 2175 2409 1742 
Q 1991 1309 1228 531 
z
" transform="scale(0.015625)"/>
      <path id="DejaVuSans-36" d="M 2113 2584 
Q 1688 2584 1439 2293 
Q 1191 2003 1191 1497 
Q 1191 994 1439 701 
Q 1688 409 2113 409 
Q 2538 409 2786 701 
Q 3034 994 3034 1497 
Q 3034 2003 2786 2293 
Q 2538 2584 2113 2584 
z
M 3366 4563 
L 3366 3988 
Q 3128 4100 2886 4159 
Q 2644 4219 2406 4219 
Q 1781 4219 1451 3797 
Q 1122 3375 1075 2522 
Q 1259 2794 1537 2939 
Q 1816 3084 2150 3084 
Q 2853 3084 3261 2657 
Q 3669 2231 3669 1497 
Q 3669 778 3244 343 
Q 2819 -91 2113 -91 
Q 1303 -91 875 529 
Q 447 1150 447 2328 
Q 447 3434 972 4092 
Q 1497 4750 2381 4750 
Q 2619 4750 2861 4703 
Q 3103 4656 3366 4563 
z
" transform="scale(0.015625)"/>
     </defs>
     <use xlink:href="#DejaVuSans-38"/>
     <use xlink:href="#DejaVuSans-20" transform="translate(63.623047 0)"/>
     <use xlink:href="#DejaVuSans-3d" transform="translate(95.410156 0)"/>
     <use xlink:href="#DejaVuSans-20" transform="translate(179.199219 0)"/>
     <use xlink:href="#DejaVuSans-35" transform="translate(210.986328 0)"/>
     <use xlink:href="#DejaVuSans-20" transform="translate(274.609375 0)"/>
     <use xlink:href="#DejaVuSans-2b" transform="translate(306.396484 0)"/>
     <use xlink:href="#DejaVuSans-20" transform="translate(390.185547 0)"/>
     <use xlink:href="#DejaVuSans-33" transform="translate(421.972656 0)"/>
     <use xlink:href="#DejaVuSans-20" transform="translate(485.595703 0)"/>
     <use xlink:href="#DejaVuSans-20" transform="translate(517.382812 0)"/>
     <use xlink:href="#DejaVuSans-2192" transform="translate(549.169922 0)"/>
     <use xlink:href="#DejaVuSans-20" transform="translate(632.958984 0)"/>
     <use xlink:href="#DejaVuSans-20" transform="translate(664.746094 0)"/>
     <use xlink:href="#DejaVuSans-37" transform="translate(696.533203 0)"/>
     <use xlink:href="#DejaVuSans-20" transform="translate(760.15625 0)"/>
     <use xlink:href="#DejaVuSans-d7" transform="translate(791.943359 0)"/>
     <use xlink:href="#DejaVuSans-20" transform="translate(875.732422 0)"/>
     <use xlink:href="#DejaVuSans-38" transform="translate(907.519531 0)"/>
     <use xlink:href="#DejaVuSans-20" transform="translate(971.142578 0)"/>
     <use xlink:href="#DejaVuSans-3d" transform="translate(1002.929688 0)"/>
     <use xlink:href="#DejaVuSans-20" transform="translate(1086.71875 0)"/>
     <use xlink:href="#DejaVuSans-28" transform="translate(1118.505859 0)"/>
     <use xlink:href="#DejaVuSans-37" transform="translate(1157.519531 0)"/>
     <use xlink:href="#DejaVuSans-20" transform="translate(1221.142578 0)"/>
     <use xlink:href="#DejaVuSans-d7" transform="translate(1252.929688 0)"/>
     <use xlink:href="#DejaVuSans-20" transform="translate(1336.71875 0)"/>
     <use xlink:href="#DejaVuSans-35" transform="translate(1368.505859 0)"/>
     <use xlink:href="#DejaVuSans-29" transform="translate(1432.128906 0)"/>
     <use xlink:href="#DejaVuSans-20" transform="translate(1471.142578 0)"/>
     <use xlink:href="#DejaVuSans-2b" transform="translate(1502.929688 0)"/>
     <use xlink:href="#DejaVuSans-20" transform="translate(1586.71875 0)"/>
     <use xlink:href="#DejaVuSans-28" transform="translate(1618.505859 0)"/>
     <use xlink:href="#DejaVuSans-37" transform="translate(1657.519531 0)"/>
     <use xlink:href="#DejaVuSans-20" transform="translate(1721.142578 0)"/>
     <use xlink:href="#DejaVuSans-d7" transform="translate(1752.929688 0)"/>
     <use xlink:href="#DejaVuSans-20" transform="translate(1836.71875 0)"/>
     <use xlink:href="#DejaVuSans-33" transform="translate(1868.505859 0)"/>
     <use xlink:href="#DejaVuSans-29" transform="translate(1932.128906 0)"/>
     <use xlink:href="#DejaVuSans-20" transform="translate(1971.142578 0)"/>
     <use xlink:href="#DejaVuSans-3d" transform="translate(2002.929688 0)"/>
     <use xlink:href="#DejaVuSans-20" transform="translate(2086.71875 0)"/>
     <use xlink:href="#DejaVuSans-33" transform="translate(2118.505859 0)"/>
     <use xlink:href="#DejaVuSans-35" transform="translate(2182.128906 0)"/>
     <use xlink:href="#DejaVuSans-20" transform="translate(2245.751953 0)"/>
     <use xlink:href="#DejaVuSans-2b" transform="translate(2277.539062 0)"/>
     <use xlink:href="#DejaVuSans-20" transform="translate(2361.328125 0)"/>
     <use xlink:href="#DejaVuSans-32" transform="translate(2393.115234 0)"/>
     <use xlink:href="#DejaVuSans-31" transform="translate(2456.738281 0)"/>
     <use xlink:href="#DejaVuSans-20" transform="translate(2520.361328 0)"/>
     <use xlink:href="#DejaVuSans-3d" transform="translate(2552.148438 0)"/>
     <use xlink:href="#DejaVuSans-20" transform="translate(2635.9375 0)"/>
     <use xlink:href="#DejaVuSans-35" transform="translate(2667.724609 0)"/>
     <use xlink:href="#DejaVuSans-36" transform="translate(2731.347656 0)"/>
    </g>
   </g>
   <g id="text_18">
    <!-- La cerise devient l'outil mental de base aussi pour l'addition, -->
    <g style="fill: #6e7781" transform="translate(148.545117 725.018212) scale(0.105 -0.105)">
     <defs>
      <path id="DejaVuSans-Oblique-4c" d="M 1075 4666 
L 1709 4666 
L 909 525 
L 3181 525 
L 3078 0 
L 172 0 
L 1075 4666 
z
" transform="scale(0.015625)"/>
      <path id="DejaVuSans-Oblique-72" d="M 2853 2969 
Q 2766 3016 2653 3041 
Q 2541 3066 2413 3066 
Q 1953 3066 1609 2717 
Q 1266 2369 1153 1784 
L 800 0 
L 225 0 
L 909 3500 
L 1484 3500 
L 1375 2956 
Q 1603 3259 1920 3421 
Q 2238 3584 2597 3584 
Q 2691 3584 2781 3573 
Q 2872 3563 2963 3538 
L 2853 2969 
z
" transform="scale(0.015625)"/>
      <path id="DejaVuSans-Oblique-76" d="M 459 3500 
L 1069 3500 
L 1581 525 
L 3256 3500 
L 3866 3500 
L 1875 0 
L 1100 0 
L 459 3500 
z
" transform="scale(0.015625)"/>
      <path id="DejaVuSans-Oblique-6c" d="M 1172 4863 
L 1747 4863 
L 800 0 
L 225 0 
L 1172 4863 
z
" transform="scale(0.015625)"/>
      <path id="DejaVuSans-Oblique-27" d="M 1147 4666 
L 1147 2931 
L 616 2931 
L 616 4666 
L 1147 4666 
z
" transform="scale(0.015625)"/>
      <path id="DejaVuSans-Oblique-75" d="M 428 1388 
L 838 3500 
L 1416 3500 
L 1006 1409 
Q 975 1256 961 1147 
Q 947 1038 947 966 
Q 947 700 1109 554 
Q 1272 409 1569 409 
Q 2031 409 2368 721 
Q 2706 1034 2809 1563 
L 3194 3500 
L 3769 3500 
L 3091 0 
L 2516 0 
L 2631 550 
Q 2388 244 2052 76 
Q 1716 -91 1338 -91 
Q 878 -91 622 161 
Q 366 413 366 863 
Q 366 956 381 1097 
Q 397 1238 428 1388 
z
" transform="scale(0.015625)"/>
      <path id="DejaVuSans-Oblique-62" d="M 3169 2138 
Q 3169 2591 2961 2847 
Q 2753 3103 2388 3103 
Q 2122 3103 1889 2973 
Q 1656 2844 1484 2597 
Q 1303 2338 1198 1995 
Q 1094 1653 1094 1313 
Q 1094 881 1298 636 
Q 1503 391 1863 391 
Q 2134 391 2365 517 
Q 2597 644 2772 891 
Q 2950 1147 3059 1487 
Q 3169 1828 3169 2138 
z
M 1381 2969 
Q 1594 3256 1914 3420 
Q 2234 3584 2584 3584 
Q 3122 3584 3439 3221 
Q 3756 2859 3756 2241 
Q 3756 1734 3570 1259 
Q 3384 784 3041 416 
Q 2816 172 2522 40 
Q 2228 -91 1906 -91 
Q 1566 -91 1316 65 
Q 1066 222 909 531 
L 806 0 
L 231 0 
L 1178 4863 
L 1753 4863 
L 1381 2969 
z
" transform="scale(0.015625)"/>
      <path id="DejaVuSans-Oblique-2c" d="M 575 794 
L 1234 794 
L 1131 256 
L 422 -744 
L 19 -744 
L 469 256 
L 575 794 
z
" transform="scale(0.015625)"/>
     </defs>
     <use xlink:href="#DejaVuSans-Oblique-4c"/>
     <use xlink:href="#DejaVuSans-Oblique-61" transform="translate(55.712891 0)"/>
     <use xlink:href="#DejaVuSans-Oblique-20" transform="translate(116.992188 0)"/>
     <use xlink:href="#DejaVuSans-Oblique-63" transform="translate(148.779297 0)"/>
     <use xlink:href="#DejaVuSans-Oblique-65" transform="translate(203.759766 0)"/>
     <use xlink:href="#DejaVuSans-Oblique-72" transform="translate(265.283203 0)"/>
     <use xlink:href="#DejaVuSans-Oblique-69" transform="translate(306.396484 0)"/>
     <use xlink:href="#DejaVuSans-Oblique-73" transform="translate(334.179688 0)"/>
     <use xlink:href="#DejaVuSans-Oblique-65" transform="translate(386.279297 0)"/>
     <use xlink:href="#DejaVuSans-Oblique-20" transform="translate(447.802734 0)"/>
     <use xlink:href="#DejaVuSans-Oblique-64" transform="translate(479.589844 0)"/>
     <use xlink:href="#DejaVuSans-Oblique-65" transform="translate(543.066406 0)"/>
     <use xlink:href="#DejaVuSans-Oblique-76" transform="translate(604.589844 0)"/>
     <use xlink:href="#DejaVuSans-Oblique-69" transform="translate(663.769531 0)"/>
     <use xlink:href="#DejaVuSans-Oblique-65" transform="translate(691.552734 0)"/>
     <use xlink:href="#DejaVuSans-Oblique-6e" transform="translate(753.076172 0)"/>
     <use xlink:href="#DejaVuSans-Oblique-74" transform="translate(816.455078 0)"/>
     <use xlink:href="#DejaVuSans-Oblique-20" transform="translate(855.664062 0)"/>
     <use xlink:href="#DejaVuSans-Oblique-6c" transform="translate(887.451172 0)"/>
     <use xlink:href="#DejaVuSans-Oblique-27" transform="translate(915.234375 0)"/>
     <use xlink:href="#DejaVuSans-Oblique-6f" transform="translate(942.724609 0)"/>
     <use xlink:href="#DejaVuSans-Oblique-75" transform="translate(1003.90625 0)"/>
     <use xlink:href="#DejaVuSans-Oblique-74" transform="translate(1067.285156 0)"/>
     <use xlink:href="#DejaVuSans-Oblique-69" transform="translate(1106.494141 0)"/>
     <use xlink:href="#DejaVuSans-Oblique-6c" transform="translate(1134.277344 0)"/>
     <use xlink:href="#DejaVuSans-Oblique-20" transform="translate(1162.060547 0)"/>
     <use xlink:href="#DejaVuSans-Oblique-6d" transform="translate(1193.847656 0)"/>
     <use xlink:href="#DejaVuSans-Oblique-65" transform="translate(1291.259766 0)"/>
     <use xlink:href="#DejaVuSans-Oblique-6e" transform="translate(1352.783203 0)"/>
     <use xlink:href="#DejaVuSans-Oblique-74" transform="translate(1416.162109 0)"/>
     <use xlink:href="#DejaVuSans-Oblique-61" transform="translate(1455.371094 0)"/>
     <use xlink:href="#DejaVuSans-Oblique-6c" transform="translate(1516.650391 0)"/>
     <use xlink:href="#DejaVuSans-Oblique-20" transform="translate(1544.433594 0)"/>
     <use xlink:href="#DejaVuSans-Oblique-64" transform="translate(1576.220703 0)"/>
     <use xlink:href="#DejaVuSans-Oblique-65" transform="translate(1639.697266 0)"/>
     <use xlink:href="#DejaVuSans-Oblique-20" transform="translate(1701.220703 0)"/>
     <use xlink:href="#DejaVuSans-Oblique-62" transform="translate(1733.007812 0)"/>
     <use xlink:href="#DejaVuSans-Oblique-61" transform="translate(1796.484375 0)"/>
     <use xlink:href="#DejaVuSans-Oblique-73" transform="translate(1857.763672 0)"/>
     <use xlink:href="#DejaVuSans-Oblique-65" transform="translate(1909.863281 0)"/>
     <use xlink:href="#DejaVuSans-Oblique-20" transform="translate(1971.386719 0)"/>
     <use xlink:href="#DejaVuSans-Oblique-61" transform="translate(2003.173828 0)"/>
     <use xlink:href="#DejaVuSans-Oblique-75" transform="translate(2064.453125 0)"/>
     <use xlink:href="#DejaVuSans-Oblique-73" transform="translate(2127.832031 0)"/>
     <use xlink:href="#DejaVuSans-Oblique-73" transform="translate(2179.931641 0)"/>
     <use xlink:href="#DejaVuSans-Oblique-69" transform="translate(2232.03125 0)"/>
     <use xlink:href="#DejaVuSans-Oblique-20" transform="translate(2259.814453 0)"/>
     <use xlink:href="#DejaVuSans-Oblique-70" transform="translate(2291.601562 0)"/>
     <use xlink:href="#DejaVuSans-Oblique-6f" transform="translate(2355.078125 0)"/>
     <use xlink:href="#DejaVuSans-Oblique-75" transform="translate(2416.259766 0)"/>
     <use xlink:href="#DejaVuSans-Oblique-72" transform="translate(2479.638672 0)"/>
     <use xlink:href="#DejaVuSans-Oblique-20" transform="translate(2520.751953 0)"/>
     <use xlink:href="#DejaVuSans-Oblique-6c" transform="translate(2552.539062 0)"/>
     <use xlink:href="#DejaVuSans-Oblique-27" transform="translate(2580.322266 0)"/>
     <use xlink:href="#DejaVuSans-Oblique-61" transform="translate(2607.8125 0)"/>
     <use xlink:href="#DejaVuSans-Oblique-64" transform="translate(2669.091797 0)"/>
     <use xlink:href="#DejaVuSans-Oblique-64" transform="translate(2732.568359 0)"/>
     <use xlink:href="#DejaVuSans-Oblique-69" transform="translate(2796.044922 0)"/>
     <use xlink:href="#DejaVuSans-Oblique-74" transform="translate(2823.828125 0)"/>
     <use xlink:href="#DejaVuSans-Oblique-69" transform="translate(2863.037109 0)"/>
     <use xlink:href="#DejaVuSans-Oblique-6f" transform="translate(2890.820312 0)"/>
     <use xlink:href="#DejaVuSans-Oblique-6e" transform="translate(2952.001953 0)"/>
     <use xlink:href="#DejaVuSans-Oblique-2c" transform="translate(3015.380859 0)"/>
    </g>
    <!-- la soustraction et plus tard les décimaux. Elle sert pendant toute l'école primaire. -->
    <g style="fill: #6e7781" transform="translate(93.685898 740.639259) scale(0.105 -0.105)">
     <defs>
      <path id="DejaVuSans-Oblique-78" d="M 3841 3500 
L 2234 1784 
L 3219 0 
L 2559 0 
L 1819 1388 
L 531 0 
L -166 0 
L 1556 1844 
L 641 3500 
L 1300 3500 
L 1972 2234 
L 3144 3500 
L 3841 3500 
z
" transform="scale(0.015625)"/>
      <path id="DejaVuSans-Oblique-2e" d="M 525 794 
L 1184 794 
L 1031 0 
L 372 0 
L 525 794 
z
" transform="scale(0.015625)"/>
      <path id="DejaVuSans-Oblique-45" d="M 1081 4666 
L 4031 4666 
L 3928 4134 
L 1606 4134 
L 1338 2753 
L 3566 2753 
L 3463 2222 
L 1234 2222 
L 909 531 
L 3284 531 
L 3181 0 
L 172 0 
L 1081 4666 
z
" transform="scale(0.015625)"/>
     </defs>
     <use xlink:href="#DejaVuSans-Oblique-6c"/>
     <use xlink:href="#DejaVuSans-Oblique-61" transform="translate(27.783203 0)"/>
     <use xlink:href="#DejaVuSans-Oblique-20" transform="translate(89.0625 0)"/>
     <use xlink:href="#DejaVuSans-Oblique-73" transform="translate(120.849609 0)"/>
     <use xlink:href="#DejaVuSans-Oblique-6f" transform="translate(172.949219 0)"/>
     <use xlink:href="#DejaVuSans-Oblique-75" transform="translate(234.130859 0)"/>
     <use xlink:href="#DejaVuSans-Oblique-73" transform="translate(297.509766 0)"/>
     <use xlink:href="#DejaVuSans-Oblique-74" transform="translate(349.609375 0)"/>
     <use xlink:href="#DejaVuSans-Oblique-72" transform="translate(388.818359 0)"/>
     <use xlink:href="#DejaVuSans-Oblique-61" transform="translate(429.931641 0)"/>
     <use xlink:href="#DejaVuSans-Oblique-63" transform="translate(491.210938 0)"/>
     <use xlink:href="#DejaVuSans-Oblique-74" transform="translate(546.191406 0)"/>
     <use xlink:href="#DejaVuSans-Oblique-69" transform="translate(585.400391 0)"/>
     <use xlink:href="#DejaVuSans-Oblique-6f" transform="translate(613.183594 0)"/>
     <use xlink:href="#DejaVuSans-Oblique-6e" transform="translate(674.365234 0)"/>
     <use xlink:href="#DejaVuSans-Oblique-20" transform="translate(737.744141 0)"/>
     <use xlink:href="#DejaVuSans-Oblique-65" transform="translate(769.53125 0)"/>
     <use xlink:href="#DejaVuSans-Oblique-74" transform="translate(831.054688 0)"/>
     <use xlink:href="#DejaVuSans-Oblique-20" transform="translate(870.263672 0)"/>
     <use xlink:href="#DejaVuSans-Oblique-70" transform="translate(902.050781 0)"/>
     <use xlink:href="#DejaVuSans-Oblique-6c" transform="translate(965.527344 0)"/>
     <use xlink:href="#DejaVuSans-Oblique-75" transform="translate(993.310547 0)"/>
     <use xlink:href="#DejaVuSans-Oblique-73" transform="translate(1056.689453 0)"/>
     <use xlink:href="#DejaVuSans-Oblique-20" transform="translate(1108.789062 0)"/>
     <use xlink:href="#DejaVuSans-Oblique-74" transform="translate(1140.576172 0)"/>
     <use xlink:href="#DejaVuSans-Oblique-61" transform="translate(1179.785156 0)"/>
     <use xlink:href="#DejaVuSans-Oblique-72" transform="translate(1241.064453 0)"/>
     <use xlink:href="#DejaVuSans-Oblique-64" transform="translate(1282.177734 0)"/>
     <use xlink:href="#DejaVuSans-Oblique-20" transform="translate(1345.654297 0)"/>
     <use xlink:href="#DejaVuSans-Oblique-6c" transform="translate(1377.441406 0)"/>
     <use xlink:href="#DejaVuSans-Oblique-65" transform="translate(1405.224609 0)"/>
     <use xlink:href="#DejaVuSans-Oblique-73" transform="translate(1466.748047 0)"/>
     <use xlink:href="#DejaVuSans-Oblique-20" transform="translate(1518.847656 0)"/>
     <use xlink:href="#DejaVuSans-Oblique-64" transform="translate(1550.634766 0)"/>
     <use xlink:href="#DejaVuSans-Oblique-e9" transform="translate(1614.111328 0)"/>
     <use xlink:href="#DejaVuSans-Oblique-63" transform="translate(1675.634766 0)"/>
     <use xlink:href="#DejaVuSans-Oblique-69" transform="translate(1730.615234 0)"/>
     <use xlink:href="#DejaVuSans-Oblique-6d" transform="translate(1758.398438 0)"/>
     <use xlink:href="#DejaVuSans-Oblique-61" transform="translate(1855.810547 0)"/>
     <use xlink:href="#DejaVuSans-Oblique-75" transform="translate(1917.089844 0)"/>
     <use xlink:href="#DejaVuSans-Oblique-78" transform="translate(1980.46875 0)"/>
     <use xlink:href="#DejaVuSans-Oblique-2e" transform="translate(2039.648438 0)"/>
     <use xlink:href="#DejaVuSans-Oblique-20" transform="translate(2071.435547 0)"/>
     <use xlink:href="#DejaVuSans-Oblique-45" transform="translate(2103.222656 0)"/>
     <use xlink:href="#DejaVuSans-Oblique-6c" transform="translate(2166.40625 0)"/>
     <use xlink:href="#DejaVuSans-Oblique-6c" transform="translate(2194.189453 0)"/>
     <use xlink:href="#DejaVuSans-Oblique-65" transform="translate(2221.972656 0)"/>
     <use xlink:href="#DejaVuSans-Oblique-20" transform="translate(2283.496094 0)"/>
     <use xlink:href="#DejaVuSans-Oblique-73" transform="translate(2315.283203 0)"/>
     <use xlink:href="#DejaVuSans-Oblique-65" transform="translate(2367.382812 0)"/>
     <use xlink:href="#DejaVuSans-Oblique-72" transform="translate(2428.90625 0)"/>
     <use xlink:href="#DejaVuSans-Oblique-74" transform="translate(2470.019531 0)"/>
     <use xlink:href="#DejaVuSans-Oblique-20" transform="translate(2509.228516 0)"/>
     <use xlink:href="#DejaVuSans-Oblique-70" transform="translate(2541.015625 0)"/>
     <use xlink:href="#DejaVuSans-Oblique-65" transform="translate(2604.492188 0)"/>
     <use xlink:href="#DejaVuSans-Oblique-6e" transform="translate(2666.015625 0)"/>
     <use xlink:href="#DejaVuSans-Oblique-64" transform="translate(2729.394531 0)"/>
     <use xlink:href="#DejaVuSans-Oblique-61" transform="translate(2792.871094 0)"/>
     <use xlink:href="#DejaVuSans-Oblique-6e" transform="translate(2854.150391 0)"/>
     <use xlink:href="#DejaVuSans-Oblique-74" transform="translate(2917.529297 0)"/>
     <use xlink:href="#DejaVuSans-Oblique-20" transform="translate(2956.738281 0)"/>
     <use xlink:href="#DejaVuSans-Oblique-74" transform="translate(2988.525391 0)"/>
     <use xlink:href="#DejaVuSans-Oblique-6f" transform="translate(3027.734375 0)"/>
     <use xlink:href="#DejaVuSans-Oblique-75" transform="translate(3088.916016 0)"/>
     <use xlink:href="#DejaVuSans-Oblique-74" transform="translate(3152.294922 0)"/>
     <use xlink:href="#DejaVuSans-Oblique-65" transform="translate(3191.503906 0)"/>
     <use xlink:href="#DejaVuSans-Oblique-20" transform="translate(3253.027344 0)"/>
     <use xlink:href="#DejaVuSans-Oblique-6c" transform="translate(3284.814453 0)"/>
     <use xlink:href="#DejaVuSans-Oblique-27" transform="translate(3312.597656 0)"/>
     <use xlink:href="#DejaVuSans-Oblique-e9" transform="translate(3340.087891 0)"/>
     <use xlink:href="#DejaVuSans-Oblique-63" transform="translate(3401.611328 0)"/>
     <use xlink:href="#DejaVuSans-Oblique-6f" transform="translate(3456.591797 0)"/>
     <use xlink:href="#DejaVuSans-Oblique-6c" transform="translate(3517.773438 0)"/>
     <use xlink:href="#DejaVuSans-Oblique-65" transform="translate(3545.556641 0)"/>
     <use xlink:href="#DejaVuSans-Oblique-20" transform="translate(3607.080078 0)"/>
     <use xlink:href="#DejaVuSans-Oblique-70" transform="translate(3638.867188 0)"/>
     <use xlink:href="#DejaVuSans-Oblique-72" transform="translate(3702.34375 0)"/>
     <use xlink:href="#DejaVuSans-Oblique-69" transform="translate(3743.457031 0)"/>
     <use xlink:href="#DejaVuSans-Oblique-6d" transform="translate(3771.240234 0)"/>
     <use xlink:href="#DejaVuSans-Oblique-61" transform="translate(3868.652344 0)"/>
     <use xlink:href="#DejaVuSans-Oblique-69" transform="translate(3929.931641 0)"/>
     <use xlink:href="#DejaVuSans-Oblique-72" transform="translate(3957.714844 0)"/>
     <use xlink:href="#DejaVuSans-Oblique-65" transform="translate(3998.828125 0)"/>
     <use xlink:href="#DejaVuSans-Oblique-2e" transform="translate(4060.351562 0)"/>
    </g>
   </g>
  </g>
 </g>
 <defs>
  <clipPath id="pe6371d72d6">
   <rect x="46.5264" y="94.968" width="523.9872" height="690.1776"/>
  </clipPath>
 </defs>
</svg>
