<?xml version="1.0" encoding="utf-8" standalone="no"?>
<!DOCTYPE svg PUBLIC "-//W3C//DTD SVG 1.1//EN"
  "http://www.w3.org/Graphics/SVG/1.1/DTD/svg11.dtd">
<svg xmlns:xlink="http://www.w3.org/1999/xlink" width="617.04pt" height="846.4464pt" viewBox="0 0 617.04 846.4464" xmlns="http://www.w3.org/2000/svg" version="1.1">
 <metadata>
  <rdf:RDF xmlns:dc="http://purl.org/dc/elements/1.1/" xmlns:cc="http://creativecommons.org/ns#" xmlns:rdf="http://www.w3.org/1999/02/22-rdf-syntax-ns#">
   <cc:Work>
    <dc:type rdf:resource="http://purl.org/dc/dcmitype/StillImage"/>
    <dc:date>2026-05-18T18:02:05.923290</dc:date>
    <dc:format>image/svg+xml</dc:format>
    <dc:creator>
     <cc:Agent>
      <dc:title>Matplotlib v3.10.9, https://matplotlib.org/</dc:title>
     </cc:Agent>
    </dc:creator>
   </cc:Work>
  </rdf:RDF>
 </metadata>
 <defs>
  <style type="text/css">*{stroke-linejoin: round; stroke-linecap: butt}</style>
 </defs>
 <g id="figure_1">
  <g id="patch_1">
   <path d="M -0 846.4464 
L 617.04 846.4464 
L 617.04 0 
L -0 0 
z
" style="fill: #ffffff"/>
  </g>
  <g id="axes_1">
   <g id="text_1">
    <!-- Nine Trick — Gallery -->
    <g style="fill: #0b3d91" transform="translate(195.673125 38.965985) scale(0.2 -0.2)">
     <defs>
      <path id="DejaVuSans-Bold-4e" d="M 588 4666 
L 1931 4666 
L 3628 1466 
L 3628 4666 
L 4769 4666 
L 4769 0 
L 3425 0 
L 1728 3200 
L 1728 0 
L 588 0 
L 588 4666 
z
" transform="scale(0.015625)"/>
      <path id="DejaVuSans-Bold-69" d="M 538 3500 
L 1656 3500 
L 1656 0 
L 538 0 
L 538 3500 
z
M 538 4863 
L 1656 4863 
L 1656 3950 
L 538 3950 
L 538 4863 
z
" transform="scale(0.015625)"/>
      <path id="DejaVuSans-Bold-6e" d="M 4056 2131 
L 4056 0 
L 2931 0 
L 2931 347 
L 2931 1631 
Q 2931 2084 2911 2256 
Q 2891 2428 2841 2509 
Q 2775 2619 2662 2680 
Q 2550 2741 2406 2741 
Q 2056 2741 1856 2470 
Q 1656 2200 1656 1722 
L 1656 0 
L 538 0 
L 538 3500 
L 1656 3500 
L 1656 2988 
Q 1909 3294 2193 3439 
Q 2478 3584 2822 3584 
Q 3428 3584 3742 3212 
Q 4056 2841 4056 2131 
z
" transform="scale(0.015625)"/>
      <path id="DejaVuSans-Bold-65" d="M 4031 1759 
L 4031 1441 
L 1416 1441 
Q 1456 1047 1700 850 
Q 1944 653 2381 653 
Q 2734 653 3104 758 
Q 3475 863 3866 1075 
L 3866 213 
Q 3469 63 3072 -14 
Q 2675 -91 2278 -91 
Q 1328 -91 801 392 
Q 275 875 275 1747 
Q 275 2603 792 3093 
Q 1309 3584 2216 3584 
Q 3041 3584 3536 3087 
Q 4031 2591 4031 1759 
z
M 2881 2131 
Q 2881 2450 2695 2645 
Q 2509 2841 2209 2841 
Q 1884 2841 1681 2658 
Q 1478 2475 1428 2131 
L 2881 2131 
z
" transform="scale(0.015625)"/>
      <path id="DejaVuSans-Bold-20" transform="scale(0.015625)"/>
      <path id="DejaVuSans-Bold-54" d="M 31 4666 
L 4331 4666 
L 4331 3756 
L 2784 3756 
L 2784 0 
L 1581 0 
L 1581 3756 
L 31 3756 
L 31 4666 
z
" transform="scale(0.015625)"/>
      <path id="DejaVuSans-Bold-72" d="M 3138 2547 
Q 2991 2616 2845 2648 
Q 2700 2681 2553 2681 
Q 2122 2681 1889 2404 
Q 1656 2128 1656 1613 
L 1656 0 
L 538 0 
L 538 3500 
L 1656 3500 
L 1656 2925 
Q 1872 3269 2151 3426 
Q 2431 3584 2822 3584 
Q 2878 3584 2943 3579 
Q 3009 3575 3134 3559 
L 3138 2547 
z
" transform="scale(0.015625)"/>
      <path id="DejaVuSans-Bold-63" d="M 3366 3391 
L 3366 2478 
Q 3138 2634 2908 2709 
Q 2678 2784 2431 2784 
Q 1963 2784 1702 2511 
Q 1441 2238 1441 1747 
Q 1441 1256 1702 982 
Q 1963 709 2431 709 
Q 2694 709 2930 787 
Q 3166 866 3366 1019 
L 3366 103 
Q 3103 6 2833 -42 
Q 2563 -91 2291 -91 
Q 1344 -91 809 395 
Q 275 881 275 1747 
Q 275 2613 809 3098 
Q 1344 3584 2291 3584 
Q 2566 3584 2833 3536 
Q 3100 3488 3366 3391 
z
" transform="scale(0.015625)"/>
      <path id="DejaVuSans-Bold-6b" d="M 538 4863 
L 1656 4863 
L 1656 2216 
L 2944 3500 
L 4244 3500 
L 2534 1894 
L 4378 0 
L 3022 0 
L 1656 1459 
L 1656 0 
L 538 0 
L 538 4863 
z
" transform="scale(0.015625)"/>
      <path id="DejaVuSans-Bold-2014" d="M 344 2156 
L 6056 2156 
L 6056 1350 
L 344 1350 
L 344 2156 
z
" transform="scale(0.015625)"/>
      <path id="DejaVuSans-Bold-47" d="M 4781 347 
Q 4331 128 3847 18 
Q 3363 -91 2847 -91 
Q 1681 -91 1000 561 
Q 319 1213 319 2328 
Q 319 3456 1012 4103 
Q 1706 4750 2913 4750 
Q 3378 4750 3804 4662 
Q 4231 4575 4609 4403 
L 4609 3438 
Q 4219 3659 3833 3768 
Q 3447 3878 3059 3878 
Q 2341 3878 1952 3476 
Q 1563 3075 1563 2328 
Q 1563 1588 1938 1184 
Q 2313 781 3003 781 
Q 3191 781 3352 804 
Q 3513 828 3641 878 
L 3641 1784 
L 2906 1784 
L 2906 2591 
L 4781 2591 
L 4781 347 
z
" transform="scale(0.015625)"/>
      <path id="DejaVuSans-Bold-61" d="M 2106 1575 
Q 1756 1575 1579 1456 
Q 1403 1338 1403 1106 
Q 1403 894 1545 773 
Q 1688 653 1941 653 
Q 2256 653 2472 879 
Q 2688 1106 2688 1447 
L 2688 1575 
L 2106 1575 
z
M 3816 1997 
L 3816 0 
L 2688 0 
L 2688 519 
Q 2463 200 2181 54 
Q 1900 -91 1497 -91 
Q 953 -91 614 226 
Q 275 544 275 1050 
Q 275 1666 698 1953 
Q 1122 2241 2028 2241 
L 2688 2241 
L 2688 2328 
Q 2688 2594 2478 2717 
Q 2269 2841 1825 2841 
Q 1466 2841 1156 2769 
Q 847 2697 581 2553 
L 581 3406 
Q 941 3494 1303 3539 
Q 1666 3584 2028 3584 
Q 2975 3584 3395 3211 
Q 3816 2838 3816 1997 
z
" transform="scale(0.015625)"/>
      <path id="DejaVuSans-Bold-6c" d="M 538 4863 
L 1656 4863 
L 1656 0 
L 538 0 
L 538 4863 
z
" transform="scale(0.015625)"/>
      <path id="DejaVuSans-Bold-79" d="M 78 3500 
L 1197 3500 
L 2138 1125 
L 2938 3500 
L 4056 3500 
L 2584 -331 
Q 2363 -916 2067 -1148 
Q 1772 -1381 1288 -1381 
L 641 -1381 
L 641 -647 
L 991 -647 
Q 1275 -647 1404 -556 
Q 1534 -466 1606 -231 
L 1638 -134 
L 78 3500 
z
" transform="scale(0.015625)"/>
     </defs>
     <use xlink:href="#DejaVuSans-Bold-4e"/>
     <use xlink:href="#DejaVuSans-Bold-69" transform="translate(83.691406 0)"/>
     <use xlink:href="#DejaVuSans-Bold-6e" transform="translate(117.96875 0)"/>
     <use xlink:href="#DejaVuSans-Bold-65" transform="translate(189.160156 0)"/>
     <use xlink:href="#DejaVuSans-Bold-20" transform="translate(256.982422 0)"/>
     <use xlink:href="#DejaVuSans-Bold-54" transform="translate(291.796875 0)"/>
     <use xlink:href="#DejaVuSans-Bold-72" transform="translate(349.009766 0)"/>
     <use xlink:href="#DejaVuSans-Bold-69" transform="translate(398.326172 0)"/>
     <use xlink:href="#DejaVuSans-Bold-63" transform="translate(432.603516 0)"/>
     <use xlink:href="#DejaVuSans-Bold-6b" transform="translate(491.880859 0)"/>
     <use xlink:href="#DejaVuSans-Bold-20" transform="translate(558.384766 0)"/>
     <use xlink:href="#DejaVuSans-Bold-2014" transform="translate(593.199219 0)"/>
     <use xlink:href="#DejaVuSans-Bold-20" transform="translate(693.199219 0)"/>
     <use xlink:href="#DejaVuSans-Bold-47" transform="translate(728.013672 0)"/>
     <use xlink:href="#DejaVuSans-Bold-61" transform="translate(810.09375 0)"/>
     <use xlink:href="#DejaVuSans-Bold-6c" transform="translate(877.574219 0)"/>
     <use xlink:href="#DejaVuSans-Bold-6c" transform="translate(911.851562 0)"/>
     <use xlink:href="#DejaVuSans-Bold-65" transform="translate(946.128906 0)"/>
     <use xlink:href="#DejaVuSans-Bold-72" transform="translate(1013.951172 0)"/>
     <use xlink:href="#DejaVuSans-Bold-79" transform="translate(1063.267578 0)"/>
    </g>
   </g>
   <g id="text_2">
    <!-- Examples 9×4, 9×6, 9×8 -->
    <g style="fill: #6e7781" transform="translate(238.23 61.811073) scale(0.11 -0.11)">
     <defs>
      <path id="DejaVuSans-Oblique-45" d="M 1081 4666 
L 4031 4666 
L 3928 4134 
L 1606 4134 
L 1338 2753 
L 3566 2753 
L 3463 2222 
L 1234 2222 
L 909 531 
L 3284 531 
L 3181 0 
L 172 0 
L 1081 4666 
z
" transform="scale(0.015625)"/>
      <path id="DejaVuSans-Oblique-78" d="M 3841 3500 
L 2234 1784 
L 3219 0 
L 2559 0 
L 1819 1388 
L 531 0 
L -166 0 
L 1556 1844 
L 641 3500 
L 1300 3500 
L 1972 2234 
L 3144 3500 
L 3841 3500 
z
" transform="scale(0.015625)"/>
      <path id="DejaVuSans-Oblique-61" d="M 3438 1997 
L 3047 0 
L 2472 0 
L 2578 531 
Q 2325 219 2001 64 
Q 1678 -91 1281 -91 
Q 834 -91 548 182 
Q 263 456 263 884 
Q 263 1497 752 1853 
Q 1241 2209 2100 2209 
L 2900 2209 
L 2931 2363 
Q 2938 2388 2941 2417 
Q 2944 2447 2944 2509 
Q 2944 2788 2717 2942 
Q 2491 3097 2081 3097 
Q 1800 3097 1504 3025 
Q 1209 2953 897 2809 
L 997 3341 
Q 1322 3463 1633 3523 
Q 1944 3584 2234 3584 
Q 2853 3584 3176 3315 
Q 3500 3047 3500 2534 
Q 3500 2431 3484 2292 
Q 3469 2153 3438 1997 
z
M 2816 1759 
L 2241 1759 
Q 1534 1759 1195 1570 
Q 856 1381 856 984 
Q 856 709 1029 553 
Q 1203 397 1509 397 
Q 1978 397 2328 733 
Q 2678 1069 2791 1631 
L 2816 1759 
z
" transform="scale(0.015625)"/>
      <path id="DejaVuSans-Oblique-6d" d="M 5747 2113 
L 5338 0 
L 4763 0 
L 5166 2094 
Q 5191 2228 5203 2325 
Q 5216 2422 5216 2491 
Q 5216 2772 5059 2928 
Q 4903 3084 4622 3084 
Q 4203 3084 3875 2770 
Q 3547 2456 3450 1953 
L 3066 0 
L 2491 0 
L 2900 2094 
Q 2925 2209 2937 2307 
Q 2950 2406 2950 2484 
Q 2950 2769 2794 2926 
Q 2638 3084 2363 3084 
Q 1938 3084 1609 2770 
Q 1281 2456 1184 1953 
L 800 0 
L 225 0 
L 909 3500 
L 1484 3500 
L 1375 2956 
Q 1609 3263 1923 3423 
Q 2238 3584 2597 3584 
Q 2978 3584 3223 3384 
Q 3469 3184 3519 2828 
Q 3781 3197 4126 3390 
Q 4472 3584 4856 3584 
Q 5306 3584 5551 3325 
Q 5797 3066 5797 2591 
Q 5797 2488 5784 2364 
Q 5772 2241 5747 2113 
z
" transform="scale(0.015625)"/>
      <path id="DejaVuSans-Oblique-70" d="M 3175 2156 
Q 3175 2616 2975 2859 
Q 2775 3103 2400 3103 
Q 2144 3103 1911 2972 
Q 1678 2841 1497 2591 
Q 1319 2344 1212 1994 
Q 1106 1644 1106 1300 
Q 1106 863 1306 627 
Q 1506 391 1875 391 
Q 2147 391 2380 519 
Q 2613 647 2778 891 
Q 2956 1147 3065 1494 
Q 3175 1841 3175 2156 
z
M 1394 2969 
Q 1625 3272 1939 3428 
Q 2253 3584 2638 3584 
Q 3175 3584 3472 3232 
Q 3769 2881 3769 2247 
Q 3769 1728 3584 1258 
Q 3400 788 3053 416 
Q 2822 169 2531 39 
Q 2241 -91 1919 -91 
Q 1547 -91 1294 64 
Q 1041 219 916 525 
L 556 -1331 
L -19 -1331 
L 922 3500 
L 1497 3500 
L 1394 2969 
z
" transform="scale(0.015625)"/>
      <path id="DejaVuSans-Oblique-6c" d="M 1172 4863 
L 1747 4863 
L 800 0 
L 225 0 
L 1172 4863 
z
" transform="scale(0.015625)"/>
      <path id="DejaVuSans-Oblique-65" d="M 3078 2063 
Q 3088 2113 3092 2166 
Q 3097 2219 3097 2272 
Q 3097 2653 2873 2875 
Q 2650 3097 2266 3097 
Q 1838 3097 1509 2826 
Q 1181 2556 1013 2059 
L 3078 2063 
z
M 3578 1613 
L 903 1613 
Q 884 1494 878 1425 
Q 872 1356 872 1306 
Q 872 872 1139 634 
Q 1406 397 1894 397 
Q 2269 397 2603 481 
Q 2938 566 3225 728 
L 3116 159 
Q 2806 34 2476 -28 
Q 2147 -91 1806 -91 
Q 1078 -91 686 257 
Q 294 606 294 1247 
Q 294 1794 489 2264 
Q 684 2734 1063 3103 
Q 1306 3334 1642 3459 
Q 1978 3584 2356 3584 
Q 2950 3584 3301 3228 
Q 3653 2872 3653 2272 
Q 3653 2128 3634 1964 
Q 3616 1800 3578 1613 
z
" transform="scale(0.015625)"/>
      <path id="DejaVuSans-Oblique-73" d="M 3200 3397 
L 3091 2853 
Q 2863 2978 2609 3040 
Q 2356 3103 2088 3103 
Q 1634 3103 1373 2948 
Q 1113 2794 1113 2528 
Q 1113 2219 1719 2053 
Q 1766 2041 1788 2034 
L 1972 1978 
Q 2547 1819 2739 1644 
Q 2931 1469 2931 1166 
Q 2931 609 2489 259 
Q 2047 -91 1331 -91 
Q 1053 -91 747 -37 
Q 441 16 72 128 
L 184 722 
Q 500 559 806 475 
Q 1113 391 1394 391 
Q 1816 391 2080 572 
Q 2344 753 2344 1031 
Q 2344 1331 1650 1516 
L 1591 1531 
L 1394 1581 
Q 956 1697 753 1886 
Q 550 2075 550 2369 
Q 550 2928 970 3256 
Q 1391 3584 2113 3584 
Q 2397 3584 2667 3537 
Q 2938 3491 3200 3397 
z
" transform="scale(0.015625)"/>
      <path id="DejaVuSans-Oblique-20" transform="scale(0.015625)"/>
      <path id="DejaVuSans-Oblique-39" d="M 281 103 
L 397 678 
Q 578 559 809 496 
Q 1041 434 1306 434 
Q 1953 434 2348 843 
Q 2744 1253 2938 2119 
Q 2706 1853 2401 1714 
Q 2097 1575 1747 1575 
Q 1178 1575 842 1904 
Q 506 2234 506 2791 
Q 506 3247 672 3639 
Q 838 4031 1159 4325 
Q 1378 4531 1665 4640 
Q 1953 4750 2278 4750 
Q 2925 4750 3300 4339 
Q 3675 3928 3675 3219 
Q 3675 2559 3501 1943 
Q 3328 1328 3022 878 
Q 2697 403 2240 156 
Q 1784 -91 1228 -91 
Q 988 -91 748 -42 
Q 509 6 281 103 
z
M 1131 2938 
Q 1131 2541 1337 2308 
Q 1544 2075 1894 2075 
Q 2378 2075 2706 2447 
Q 3034 2819 3034 3372 
Q 3034 3784 2831 4017 
Q 2628 4250 2272 4250 
Q 1788 4250 1459 3870 
Q 1131 3491 1131 2938 
z
" transform="scale(0.015625)"/>
      <path id="DejaVuSans-Oblique-d7" d="M 4488 3438 
L 3059 2003 
L 4488 575 
L 4116 197 
L 2681 1631 
L 1247 197 
L 878 575 
L 2303 2003 
L 878 3438 
L 1247 3816 
L 2681 2381 
L 4116 3816 
L 4488 3438 
z
" transform="scale(0.015625)"/>
      <path id="DejaVuSans-Oblique-34" d="M 2753 4666 
L 3547 4666 
L 2950 1625 
L 3616 1625 
L 3513 1100 
L 2847 1100 
L 2638 0 
L 2009 0 
L 2222 1100 
L 116 1100 
L 238 1709 
L 2753 4666 
z
M 2809 4116 
L 728 1625 
L 2322 1625 
L 2809 4116 
z
" transform="scale(0.015625)"/>
      <path id="DejaVuSans-Oblique-2c" d="M 575 794 
L 1234 794 
L 1131 256 
L 422 -744 
L 19 -744 
L 469 256 
L 575 794 
z
" transform="scale(0.015625)"/>
      <path id="DejaVuSans-Oblique-36" d="M 2938 1728 
Q 2938 2125 2734 2354 
Q 2531 2584 2181 2584 
Q 1697 2584 1367 2211 
Q 1038 1838 1038 1288 
Q 1038 875 1239 642 
Q 1441 409 1797 409 
Q 2284 409 2611 792 
Q 2938 1175 2938 1728 
z
M 3788 4556 
L 3681 3981 
Q 3500 4100 3265 4162 
Q 3031 4225 2766 4225 
Q 2119 4225 1726 3819 
Q 1334 3413 1141 2547 
Q 1369 2813 1670 2948 
Q 1972 3084 2322 3084 
Q 2894 3084 3233 2754 
Q 3572 2425 3572 1869 
Q 3572 1413 3405 1020 
Q 3238 628 2919 331 
Q 2700 128 2409 18 
Q 2119 -91 1791 -91 
Q 1147 -91 775 318 
Q 403 728 403 1441 
Q 403 2103 573 2717 
Q 744 3331 1050 3781 
Q 1372 4256 1830 4503 
Q 2288 4750 2841 4750 
Q 3084 4750 3321 4701 
Q 3559 4653 3788 4556 
z
" transform="scale(0.015625)"/>
      <path id="DejaVuSans-Oblique-38" d="M 2847 1416 
Q 2847 1769 2600 1992 
Q 2353 2216 1953 2216 
Q 1466 2216 1148 1923 
Q 831 1631 831 1184 
Q 831 828 1073 618 
Q 1316 409 1728 409 
Q 2219 409 2533 693 
Q 2847 978 2847 1416 
z
M 3169 3591 
Q 3169 3888 2950 4069 
Q 2731 4250 2369 4250 
Q 1941 4250 1664 4009 
Q 1388 3769 1388 3406 
Q 1388 3094 1605 2903 
Q 1822 2713 2181 2713 
Q 2613 2713 2891 2961 
Q 3169 3209 3169 3591 
z
M 2741 2456 
Q 3094 2322 3281 2050 
Q 3469 1778 3469 1394 
Q 3469 747 2969 328 
Q 2469 -91 1678 -91 
Q 1006 -91 609 239 
Q 213 569 213 1119 
Q 213 1619 553 2008 
Q 894 2397 1441 2503 
Q 1113 2616 941 2852 
Q 769 3088 769 3425 
Q 769 3991 1239 4370 
Q 1709 4750 2431 4750 
Q 3034 4750 3414 4442 
Q 3794 4134 3794 3659 
Q 3794 3247 3511 2923 
Q 3228 2600 2741 2456 
z
" transform="scale(0.015625)"/>
     </defs>
     <use xlink:href="#DejaVuSans-Oblique-45"/>
     <use xlink:href="#DejaVuSans-Oblique-78" transform="translate(63.183594 0)"/>
     <use xlink:href="#DejaVuSans-Oblique-61" transform="translate(122.363281 0)"/>
     <use xlink:href="#DejaVuSans-Oblique-6d" transform="translate(183.642578 0)"/>
     <use xlink:href="#DejaVuSans-Oblique-70" transform="translate(281.054688 0)"/>
     <use xlink:href="#DejaVuSans-Oblique-6c" transform="translate(344.53125 0)"/>
     <use xlink:href="#DejaVuSans-Oblique-65" transform="translate(372.314453 0)"/>
     <use xlink:href="#DejaVuSans-Oblique-73" transform="translate(433.837891 0)"/>
     <use xlink:href="#DejaVuSans-Oblique-20" transform="translate(485.9375 0)"/>
     <use xlink:href="#DejaVuSans-Oblique-39" transform="translate(517.724609 0)"/>
     <use xlink:href="#DejaVuSans-Oblique-d7" transform="translate(581.347656 0)"/>
     <use xlink:href="#DejaVuSans-Oblique-34" transform="translate(665.136719 0)"/>
     <use xlink:href="#DejaVuSans-Oblique-2c" transform="translate(728.759766 0)"/>
     <use xlink:href="#DejaVuSans-Oblique-20" transform="translate(760.546875 0)"/>
     <use xlink:href="#DejaVuSans-Oblique-39" transform="translate(792.333984 0)"/>
     <use xlink:href="#DejaVuSans-Oblique-d7" transform="translate(855.957031 0)"/>
     <use xlink:href="#DejaVuSans-Oblique-36" transform="translate(939.746094 0)"/>
     <use xlink:href="#DejaVuSans-Oblique-2c" transform="translate(1003.369141 0)"/>
     <use xlink:href="#DejaVuSans-Oblique-20" transform="translate(1035.15625 0)"/>
     <use xlink:href="#DejaVuSans-Oblique-39" transform="translate(1066.943359 0)"/>
     <use xlink:href="#DejaVuSans-Oblique-d7" transform="translate(1130.566406 0)"/>
     <use xlink:href="#DejaVuSans-Oblique-38" transform="translate(1214.355469 0)"/>
    </g>
   </g>
  </g>
  <g id="axes_2">
   <g id="patch_2">
    <path d="M 49.146336 329.460048 
L 567.893664 329.460048 
L 567.893664 96.146352 
L 49.146336 96.146352 
L 49.146336 329.460048 
z
" clip-path="url(#pb6e2e6ec25)" style="fill: none; stroke-dasharray: 2.96,1.28; stroke-dashoffset: 0; stroke: #d0d7de; stroke-width: 0.8; stroke-linejoin: miter"/>
   </g>
   <g id="line2d_1">
    <path d="M 98.844426 247.493883 
L 208.707774 247.493883 
" clip-path="url(#pb6e2e6ec25)" style="fill: none; stroke: #0b3d91; stroke-width: 2.2; stroke-linecap: round"/>
   </g>
   <g id="line2d_2">
    <path d="M 98.844426 247.493883 
L 98.844426 244.241631 
" clip-path="url(#pb6e2e6ec25)" style="fill: none; stroke: #0b3d91; stroke-width: 2.2; stroke-linecap: square"/>
   </g>
   <g id="line2d_3">
    <path d="M 208.707774 247.493883 
L 208.707774 244.241631 
" clip-path="url(#pb6e2e6ec25)" style="fill: none; stroke: #0b3d91; stroke-width: 2.2; stroke-linecap: square"/>
   </g>
   <g id="line2d_4">
    <path d="M 264.675895 247.493883 
L 518.195574 247.493883 
" clip-path="url(#pb6e2e6ec25)" style="fill: none; stroke: #1b6d3b; stroke-width: 2.2; stroke-linecap: round"/>
   </g>
   <g id="line2d_5">
    <path d="M 264.675895 247.493883 
L 264.675895 244.241631 
" clip-path="url(#pb6e2e6ec25)" style="fill: none; stroke: #1b6d3b; stroke-width: 2.2; stroke-linecap: square"/>
   </g>
   <g id="line2d_6">
    <path d="M 518.195574 247.493883 
L 518.195574 244.241631 
" clip-path="url(#pb6e2e6ec25)" style="fill: none; stroke: #1b6d3b; stroke-width: 2.2; stroke-linecap: square"/>
   </g>
   <g id="patch_3">
    <path d="M 104.084298 234.956218 
L 120.552168 234.956218 
Q 126.840014 234.956218 126.840014 232.128173 
L 126.840014 139.274035 
Q 126.840014 136.44599 120.552168 136.44599 
L 104.084298 136.44599 
Q 97.796452 136.44599 97.796452 139.274035 
L 97.796452 232.128173 
Q 97.796452 234.956218 104.084298 234.956218 
z
" clip-path="url(#pb6e2e6ec25)" style="fill: #fcd5b4; stroke: #a05a2c; stroke-width: 1.6; stroke-linejoin: miter"/>
   </g>
   <g id="text_3">
    <!-- 1 -->
    <g style="fill: #222222" transform="translate(108.818858 129.111805) scale(0.11 -0.11)">
     <defs>
      <path id="DejaVuSans-31" d="M 794 531 
L 1825 531 
L 1825 4091 
L 703 3866 
L 703 4441 
L 1819 4666 
L 2450 4666 
L 2450 531 
L 3481 531 
L 3481 0 
L 794 0 
L 794 531 
z
" transform="scale(0.015625)"/>
     </defs>
     <use xlink:href="#DejaVuSans-31"/>
    </g>
   </g>
   <g id="patch_4">
    <path d="M 145.542165 234.956218 
L 162.010035 234.956218 
Q 168.297881 234.956218 168.297881 232.128173 
L 168.297881 139.274035 
Q 168.297881 136.44599 162.010035 136.44599 
L 145.542165 136.44599 
Q 139.254319 136.44599 139.254319 139.274035 
L 139.254319 232.128173 
Q 139.254319 234.956218 145.542165 234.956218 
z
" clip-path="url(#pb6e2e6ec25)" style="fill: #fcd5b4; stroke: #a05a2c; stroke-width: 1.6; stroke-linejoin: miter"/>
   </g>
   <g id="text_4">
    <!-- 2 -->
    <g style="fill: #222222" transform="translate(150.276725 129.111805) scale(0.11 -0.11)">
     <defs>
      <path id="DejaVuSans-32" d="M 1228 531 
L 3431 531 
L 3431 0 
L 469 0 
L 469 531 
Q 828 903 1448 1529 
Q 2069 2156 2228 2338 
Q 2531 2678 2651 2914 
Q 2772 3150 2772 3378 
Q 2772 3750 2511 3984 
Q 2250 4219 1831 4219 
Q 1534 4219 1204 4116 
Q 875 4013 500 3803 
L 500 4441 
Q 881 4594 1212 4672 
Q 1544 4750 1819 4750 
Q 2544 4750 2975 4387 
Q 3406 4025 3406 3419 
Q 3406 3131 3298 2873 
Q 3191 2616 2906 2266 
Q 2828 2175 2409 1742 
Q 1991 1309 1228 531 
z
" transform="scale(0.015625)"/>
     </defs>
     <use xlink:href="#DejaVuSans-32"/>
    </g>
   </g>
   <g id="patch_5">
    <path d="M 187.000032 234.956218 
L 203.467902 234.956218 
Q 209.755749 234.956218 209.755749 232.128173 
L 209.755749 139.274035 
Q 209.755749 136.44599 203.467902 136.44599 
L 187.000032 136.44599 
Q 180.712186 136.44599 180.712186 139.274035 
L 180.712186 232.128173 
Q 180.712186 234.956218 187.000032 234.956218 
z
" clip-path="url(#pb6e2e6ec25)" style="fill: #fcd5b4; stroke: #a05a2c; stroke-width: 1.6; stroke-linejoin: miter"/>
   </g>
   <g id="text_5">
    <!-- 3 -->
    <g style="fill: #222222" transform="translate(191.734592 129.111805) scale(0.11 -0.11)">
     <defs>
      <path id="DejaVuSans-33" d="M 2597 2516 
Q 3050 2419 3304 2112 
Q 3559 1806 3559 1356 
Q 3559 666 3084 287 
Q 2609 -91 1734 -91 
Q 1441 -91 1130 -33 
Q 819 25 488 141 
L 488 750 
Q 750 597 1062 519 
Q 1375 441 1716 441 
Q 2309 441 2620 675 
Q 2931 909 2931 1356 
Q 2931 1769 2642 2001 
Q 2353 2234 1838 2234 
L 1294 2234 
L 1294 2753 
L 1863 2753 
Q 2328 2753 2575 2939 
Q 2822 3125 2822 3475 
Q 2822 3834 2567 4026 
Q 2313 4219 1838 4219 
Q 1578 4219 1281 4162 
Q 984 4106 628 3988 
L 628 4550 
Q 988 4650 1302 4700 
Q 1616 4750 1894 4750 
Q 2613 4750 3031 4423 
Q 3450 4097 3450 3541 
Q 3450 3153 3228 2886 
Q 3006 2619 2597 2516 
z
" transform="scale(0.015625)"/>
     </defs>
     <use xlink:href="#DejaVuSans-33"/>
    </g>
   </g>
   <g id="patch_6">
    <path d="M 228.4579 234.956218 
L 244.925769 234.956218 
Q 251.213616 234.956218 251.213616 232.128173 
L 251.213616 207.571317 
Q 251.213616 204.743272 244.925769 204.743272 
L 228.4579 204.743272 
Q 222.170053 204.743272 222.170053 207.571317 
L 222.170053 232.128173 
Q 222.170053 234.956218 228.4579 234.956218 
z
" clip-path="url(#pb6e2e6ec25)" style="fill: #9a9a9a; stroke: #3d3d3d; stroke-width: 1.6; stroke-linejoin: miter"/>
   </g>
   <g id="text_6">
    <!-- 4 -->
    <g style="fill: #222222" transform="translate(232.865038 129.111805) scale(0.11 -0.11)">
     <defs>
      <path id="DejaVuSans-Bold-34" d="M 2356 3675 
L 1038 1722 
L 2356 1722 
L 2356 3675 
z
M 2156 4666 
L 3494 4666 
L 3494 1722 
L 4159 1722 
L 4159 850 
L 3494 850 
L 3494 0 
L 2356 0 
L 2356 850 
L 288 850 
L 288 1881 
L 2156 4666 
z
" transform="scale(0.015625)"/>
     </defs>
     <use xlink:href="#DejaVuSans-Bold-34"/>
    </g>
   </g>
   <g id="patch_7">
    <path d="M 269.915767 234.956218 
L 286.383637 234.956218 
Q 292.671483 234.956218 292.671483 232.128173 
L 292.671483 139.274035 
Q 292.671483 136.44599 286.383637 136.44599 
L 269.915767 136.44599 
Q 263.627921 136.44599 263.627921 139.274035 
L 263.627921 232.128173 
Q 263.627921 234.956218 269.915767 234.956218 
z
" clip-path="url(#pb6e2e6ec25)" style="fill: #fcd5b4; stroke: #a05a2c; stroke-width: 1.6; stroke-linejoin: miter"/>
   </g>
   <g id="text_7">
    <!-- 5 -->
    <g style="fill: #222222" transform="translate(274.650327 129.111805) scale(0.11 -0.11)">
     <defs>
      <path id="DejaVuSans-35" d="M 691 4666 
L 3169 4666 
L 3169 4134 
L 1269 4134 
L 1269 2991 
Q 1406 3038 1543 3061 
Q 1681 3084 1819 3084 
Q 2600 3084 3056 2656 
Q 3513 2228 3513 1497 
Q 3513 744 3044 326 
Q 2575 -91 1722 -91 
Q 1428 -91 1123 -41 
Q 819 9 494 109 
L 494 744 
Q 775 591 1075 516 
Q 1375 441 1709 441 
Q 2250 441 2565 725 
Q 2881 1009 2881 1497 
Q 2881 1984 2565 2268 
Q 2250 2553 1709 2553 
Q 1456 2553 1204 2497 
Q 953 2441 691 2322 
L 691 4666 
z
" transform="scale(0.015625)"/>
     </defs>
     <use xlink:href="#DejaVuSans-35"/>
    </g>
   </g>
   <g id="patch_8">
    <path d="M 330.656363 234.956218 
L 347.124233 234.956218 
Q 353.412079 234.956218 353.412079 232.128173 
L 353.412079 139.274035 
Q 353.412079 136.44599 347.124233 136.44599 
L 330.656363 136.44599 
Q 324.368517 136.44599 324.368517 139.274035 
L 324.368517 232.128173 
Q 324.368517 234.956218 330.656363 234.956218 
z
" clip-path="url(#pb6e2e6ec25)" style="fill: #fcd5b4; stroke: #a05a2c; stroke-width: 1.6; stroke-linejoin: miter"/>
   </g>
   <g id="text_8">
    <!-- 6 -->
    <g style="fill: #222222" transform="translate(335.390923 129.111805) scale(0.11 -0.11)">
     <defs>
      <path id="DejaVuSans-36" d="M 2113 2584 
Q 1688 2584 1439 2293 
Q 1191 2003 1191 1497 
Q 1191 994 1439 701 
Q 1688 409 2113 409 
Q 2538 409 2786 701 
Q 3034 994 3034 1497 
Q 3034 2003 2786 2293 
Q 2538 2584 2113 2584 
z
M 3366 4563 
L 3366 3988 
Q 3128 4100 2886 4159 
Q 2644 4219 2406 4219 
Q 1781 4219 1451 3797 
Q 1122 3375 1075 2522 
Q 1259 2794 1537 2939 
Q 1816 3084 2150 3084 
Q 2853 3084 3261 2657 
Q 3669 2231 3669 1497 
Q 3669 778 3244 343 
Q 2819 -91 2113 -91 
Q 1303 -91 875 529 
Q 447 1150 447 2328 
Q 447 3434 972 4092 
Q 1497 4750 2381 4750 
Q 2619 4750 2861 4703 
Q 3103 4656 3366 4563 
z
" transform="scale(0.015625)"/>
     </defs>
     <use xlink:href="#DejaVuSans-36"/>
    </g>
   </g>
   <g id="patch_9">
    <path d="M 372.114231 234.956218 
L 388.5821 234.956218 
Q 394.869947 234.956218 394.869947 232.128173 
L 394.869947 139.274035 
Q 394.869947 136.44599 388.5821 136.44599 
L 372.114231 136.44599 
Q 365.826384 136.44599 365.826384 139.274035 
L 365.826384 232.128173 
Q 365.826384 234.956218 372.114231 234.956218 
z
" clip-path="url(#pb6e2e6ec25)" style="fill: #fcd5b4; stroke: #a05a2c; stroke-width: 1.6; stroke-linejoin: miter"/>
   </g>
   <g id="text_9">
    <!-- 7 -->
    <g style="fill: #222222" transform="translate(376.84879 129.111805) scale(0.11 -0.11)">
     <defs>
      <path id="DejaVuSans-37" d="M 525 4666 
L 3525 4666 
L 3525 4397 
L 1831 0 
L 1172 0 
L 2766 4134 
L 525 4134 
L 525 4666 
z
" transform="scale(0.015625)"/>
     </defs>
     <use xlink:href="#DejaVuSans-37"/>
    </g>
   </g>
   <g id="patch_10">
    <path d="M 413.572098 234.956218 
L 430.039968 234.956218 
Q 436.327814 234.956218 436.327814 232.128173 
L 436.327814 139.274035 
Q 436.327814 136.44599 430.039968 136.44599 
L 413.572098 136.44599 
Q 407.284251 136.44599 407.284251 139.274035 
L 407.284251 232.128173 
Q 407.284251 234.956218 413.572098 234.956218 
z
" clip-path="url(#pb6e2e6ec25)" style="fill: #fcd5b4; stroke: #a05a2c; stroke-width: 1.6; stroke-linejoin: miter"/>
   </g>
   <g id="text_10">
    <!-- 8 -->
    <g style="fill: #222222" transform="translate(418.306658 129.111805) scale(0.11 -0.11)">
     <defs>
      <path id="DejaVuSans-38" d="M 2034 2216 
Q 1584 2216 1326 1975 
Q 1069 1734 1069 1313 
Q 1069 891 1326 650 
Q 1584 409 2034 409 
Q 2484 409 2743 651 
Q 3003 894 3003 1313 
Q 3003 1734 2745 1975 
Q 2488 2216 2034 2216 
z
M 1403 2484 
Q 997 2584 770 2862 
Q 544 3141 544 3541 
Q 544 4100 942 4425 
Q 1341 4750 2034 4750 
Q 2731 4750 3128 4425 
Q 3525 4100 3525 3541 
Q 3525 3141 3298 2862 
Q 3072 2584 2669 2484 
Q 3125 2378 3379 2068 
Q 3634 1759 3634 1313 
Q 3634 634 3220 271 
Q 2806 -91 2034 -91 
Q 1263 -91 848 271 
Q 434 634 434 1313 
Q 434 1759 690 2068 
Q 947 2378 1403 2484 
z
M 1172 3481 
Q 1172 3119 1398 2916 
Q 1625 2713 2034 2713 
Q 2441 2713 2670 2916 
Q 2900 3119 2900 3481 
Q 2900 3844 2670 4047 
Q 2441 4250 2034 4250 
Q 1625 4250 1398 4047 
Q 1172 3844 1172 3481 
z
" transform="scale(0.015625)"/>
     </defs>
     <use xlink:href="#DejaVuSans-38"/>
    </g>
   </g>
   <g id="patch_11">
    <path d="M 455.029965 234.956218 
L 471.497835 234.956218 
Q 477.785681 234.956218 477.785681 232.128173 
L 477.785681 139.274035 
Q 477.785681 136.44599 471.497835 136.44599 
L 455.029965 136.44599 
Q 448.742119 136.44599 448.742119 139.274035 
L 448.742119 232.128173 
Q 448.742119 234.956218 455.029965 234.956218 
z
" clip-path="url(#pb6e2e6ec25)" style="fill: #fcd5b4; stroke: #a05a2c; stroke-width: 1.6; stroke-linejoin: miter"/>
   </g>
   <g id="text_11">
    <!-- 9 -->
    <g style="fill: #222222" transform="translate(459.764525 129.111805) scale(0.11 -0.11)">
     <defs>
      <path id="DejaVuSans-39" d="M 703 97 
L 703 672 
Q 941 559 1184 500 
Q 1428 441 1663 441 
Q 2288 441 2617 861 
Q 2947 1281 2994 2138 
Q 2813 1869 2534 1725 
Q 2256 1581 1919 1581 
Q 1219 1581 811 2004 
Q 403 2428 403 3163 
Q 403 3881 828 4315 
Q 1253 4750 1959 4750 
Q 2769 4750 3195 4129 
Q 3622 3509 3622 2328 
Q 3622 1225 3098 567 
Q 2575 -91 1691 -91 
Q 1453 -91 1209 -44 
Q 966 3 703 97 
z
M 1959 2075 
Q 2384 2075 2632 2365 
Q 2881 2656 2881 3163 
Q 2881 3666 2632 3958 
Q 2384 4250 1959 4250 
Q 1534 4250 1286 3958 
Q 1038 3666 1038 3163 
Q 1038 2656 1286 2365 
Q 1534 2075 1959 2075 
z
" transform="scale(0.015625)"/>
     </defs>
     <use xlink:href="#DejaVuSans-39"/>
    </g>
   </g>
   <g id="patch_12">
    <path d="M 496.487832 234.956218 
L 512.955702 234.956218 
Q 519.243548 234.956218 519.243548 232.128173 
L 519.243548 139.274035 
Q 519.243548 136.44599 512.955702 136.44599 
L 496.487832 136.44599 
Q 490.199986 136.44599 490.199986 139.274035 
L 490.199986 232.128173 
Q 490.199986 234.956218 496.487832 234.956218 
z
" clip-path="url(#pb6e2e6ec25)" style="fill: #fcd5b4; stroke: #a05a2c; stroke-width: 1.6; stroke-linejoin: miter"/>
   </g>
   <g id="text_12">
    <!-- 10 -->
    <g style="fill: #222222" transform="translate(497.723017 129.111805) scale(0.11 -0.11)">
     <defs>
      <path id="DejaVuSans-30" d="M 2034 4250 
Q 1547 4250 1301 3770 
Q 1056 3291 1056 2328 
Q 1056 1369 1301 889 
Q 1547 409 2034 409 
Q 2525 409 2770 889 
Q 3016 1369 3016 2328 
Q 3016 3291 2770 3770 
Q 2525 4250 2034 4250 
z
M 2034 4750 
Q 2819 4750 3233 4129 
Q 3647 3509 3647 2328 
Q 3647 1150 3233 529 
Q 2819 -91 2034 -91 
Q 1250 -91 836 529 
Q 422 1150 422 2328 
Q 422 3509 836 4129 
Q 1250 4750 2034 4750 
z
" transform="scale(0.015625)"/>
     </defs>
     <use xlink:href="#DejaVuSans-31"/>
     <use xlink:href="#DejaVuSans-30" transform="translate(63.623047 0)"/>
    </g>
   </g>
   <g id="text_13">
    <!-- 3 fingers = 30 -->
    <g style="fill: #0b3d91" transform="translate(110.096647 272.167903) scale(0.11 -0.11)">
     <defs>
      <path id="DejaVuSans-Bold-33" d="M 2981 2516 
Q 3453 2394 3698 2092 
Q 3944 1791 3944 1325 
Q 3944 631 3412 270 
Q 2881 -91 1863 -91 
Q 1503 -91 1142 -33 
Q 781 25 428 141 
L 428 1069 
Q 766 900 1098 814 
Q 1431 728 1753 728 
Q 2231 728 2486 893 
Q 2741 1059 2741 1369 
Q 2741 1688 2480 1852 
Q 2219 2016 1709 2016 
L 1228 2016 
L 1228 2791 
L 1734 2791 
Q 2188 2791 2409 2933 
Q 2631 3075 2631 3366 
Q 2631 3634 2415 3781 
Q 2200 3928 1806 3928 
Q 1516 3928 1219 3862 
Q 922 3797 628 3669 
L 628 4550 
Q 984 4650 1334 4700 
Q 1684 4750 2022 4750 
Q 2931 4750 3382 4451 
Q 3834 4153 3834 3553 
Q 3834 3144 3618 2883 
Q 3403 2622 2981 2516 
z
" transform="scale(0.015625)"/>
      <path id="DejaVuSans-Bold-66" d="M 2841 4863 
L 2841 4128 
L 2222 4128 
Q 1984 4128 1890 4042 
Q 1797 3956 1797 3744 
L 1797 3500 
L 2753 3500 
L 2753 2700 
L 1797 2700 
L 1797 0 
L 678 0 
L 678 2700 
L 122 2700 
L 122 3500 
L 678 3500 
L 678 3744 
Q 678 4316 997 4589 
Q 1316 4863 1984 4863 
L 2841 4863 
z
" transform="scale(0.015625)"/>
      <path id="DejaVuSans-Bold-67" d="M 2919 594 
Q 2688 288 2409 144 
Q 2131 0 1766 0 
Q 1125 0 706 504 
Q 288 1009 288 1791 
Q 288 2575 706 3076 
Q 1125 3578 1766 3578 
Q 2131 3578 2409 3434 
Q 2688 3291 2919 2981 
L 2919 3500 
L 4044 3500 
L 4044 353 
Q 4044 -491 3511 -936 
Q 2978 -1381 1966 -1381 
Q 1638 -1381 1331 -1331 
Q 1025 -1281 716 -1178 
L 716 -306 
Q 1009 -475 1290 -558 
Q 1572 -641 1856 -641 
Q 2406 -641 2662 -400 
Q 2919 -159 2919 353 
L 2919 594 
z
M 2181 2772 
Q 1834 2772 1640 2515 
Q 1447 2259 1447 1791 
Q 1447 1309 1634 1061 
Q 1822 813 2181 813 
Q 2531 813 2725 1069 
Q 2919 1325 2919 1791 
Q 2919 2259 2725 2515 
Q 2531 2772 2181 2772 
z
" transform="scale(0.015625)"/>
      <path id="DejaVuSans-Bold-73" d="M 3272 3391 
L 3272 2541 
Q 2913 2691 2578 2766 
Q 2244 2841 1947 2841 
Q 1628 2841 1473 2761 
Q 1319 2681 1319 2516 
Q 1319 2381 1436 2309 
Q 1553 2238 1856 2203 
L 2053 2175 
Q 2913 2066 3209 1816 
Q 3506 1566 3506 1031 
Q 3506 472 3093 190 
Q 2681 -91 1863 -91 
Q 1516 -91 1145 -36 
Q 775 19 384 128 
L 384 978 
Q 719 816 1070 734 
Q 1422 653 1784 653 
Q 2113 653 2278 743 
Q 2444 834 2444 1013 
Q 2444 1163 2330 1236 
Q 2216 1309 1875 1350 
L 1678 1375 
Q 931 1469 631 1722 
Q 331 1975 331 2491 
Q 331 3047 712 3315 
Q 1094 3584 1881 3584 
Q 2191 3584 2531 3537 
Q 2872 3491 3272 3391 
z
" transform="scale(0.015625)"/>
      <path id="DejaVuSans-Bold-3d" d="M 678 3084 
L 4684 3084 
L 4684 2350 
L 678 2350 
L 678 3084 
z
M 678 1663 
L 4684 1663 
L 4684 922 
L 678 922 
L 678 1663 
z
" transform="scale(0.015625)"/>
      <path id="DejaVuSans-Bold-30" d="M 2944 2338 
Q 2944 3213 2780 3570 
Q 2616 3928 2228 3928 
Q 1841 3928 1675 3570 
Q 1509 3213 1509 2338 
Q 1509 1453 1675 1090 
Q 1841 728 2228 728 
Q 2613 728 2778 1090 
Q 2944 1453 2944 2338 
z
M 4147 2328 
Q 4147 1169 3647 539 
Q 3147 -91 2228 -91 
Q 1306 -91 806 539 
Q 306 1169 306 2328 
Q 306 3491 806 4120 
Q 1306 4750 2228 4750 
Q 3147 4750 3647 4120 
Q 4147 3491 4147 2328 
z
" transform="scale(0.015625)"/>
     </defs>
     <use xlink:href="#DejaVuSans-Bold-33"/>
     <use xlink:href="#DejaVuSans-Bold-20" transform="translate(69.580078 0)"/>
     <use xlink:href="#DejaVuSans-Bold-66" transform="translate(104.394531 0)"/>
     <use xlink:href="#DejaVuSans-Bold-69" transform="translate(147.900391 0)"/>
     <use xlink:href="#DejaVuSans-Bold-6e" transform="translate(182.177734 0)"/>
     <use xlink:href="#DejaVuSans-Bold-67" transform="translate(253.369141 0)"/>
     <use xlink:href="#DejaVuSans-Bold-65" transform="translate(324.951172 0)"/>
     <use xlink:href="#DejaVuSans-Bold-72" transform="translate(392.773438 0)"/>
     <use xlink:href="#DejaVuSans-Bold-73" transform="translate(442.089844 0)"/>
     <use xlink:href="#DejaVuSans-Bold-20" transform="translate(501.611328 0)"/>
     <use xlink:href="#DejaVuSans-Bold-3d" transform="translate(536.425781 0)"/>
     <use xlink:href="#DejaVuSans-Bold-20" transform="translate(620.214844 0)"/>
     <use xlink:href="#DejaVuSans-Bold-33" transform="translate(655.029297 0)"/>
     <use xlink:href="#DejaVuSans-Bold-30" transform="translate(724.609375 0)"/>
    </g>
   </g>
   <g id="text_14">
    <!-- 6 fingers = 6 -->
    <g style="fill: #1b6d3b" transform="translate(351.583078 272.167903) scale(0.11 -0.11)">
     <defs>
      <path id="DejaVuSans-Bold-36" d="M 2316 2303 
Q 2000 2303 1842 2098 
Q 1684 1894 1684 1484 
Q 1684 1075 1842 870 
Q 2000 666 2316 666 
Q 2634 666 2792 870 
Q 2950 1075 2950 1484 
Q 2950 1894 2792 2098 
Q 2634 2303 2316 2303 
z
M 3803 4544 
L 3803 3681 
Q 3506 3822 3243 3889 
Q 2981 3956 2731 3956 
Q 2194 3956 1894 3657 
Q 1594 3359 1544 2772 
Q 1750 2925 1990 3001 
Q 2231 3078 2516 3078 
Q 3231 3078 3670 2659 
Q 4109 2241 4109 1563 
Q 4109 813 3618 361 
Q 3128 -91 2303 -91 
Q 1394 -91 895 523 
Q 397 1138 397 2266 
Q 397 3422 980 4083 
Q 1563 4744 2578 4744 
Q 2900 4744 3203 4694 
Q 3506 4644 3803 4544 
z
" transform="scale(0.015625)"/>
     </defs>
     <use xlink:href="#DejaVuSans-Bold-36"/>
     <use xlink:href="#DejaVuSans-Bold-20" transform="translate(69.580078 0)"/>
     <use xlink:href="#DejaVuSans-Bold-66" transform="translate(104.394531 0)"/>
     <use xlink:href="#DejaVuSans-Bold-69" transform="translate(147.900391 0)"/>
     <use xlink:href="#DejaVuSans-Bold-6e" transform="translate(182.177734 0)"/>
     <use xlink:href="#DejaVuSans-Bold-67" transform="translate(253.369141 0)"/>
     <use xlink:href="#DejaVuSans-Bold-65" transform="translate(324.951172 0)"/>
     <use xlink:href="#DejaVuSans-Bold-72" transform="translate(392.773438 0)"/>
     <use xlink:href="#DejaVuSans-Bold-73" transform="translate(442.089844 0)"/>
     <use xlink:href="#DejaVuSans-Bold-20" transform="translate(501.611328 0)"/>
     <use xlink:href="#DejaVuSans-Bold-3d" transform="translate(536.425781 0)"/>
     <use xlink:href="#DejaVuSans-Bold-20" transform="translate(620.214844 0)"/>
     <use xlink:href="#DejaVuSans-Bold-36" transform="translate(655.029297 0)"/>
    </g>
   </g>
   <g id="text_15">
    <g id="patch_13">
     <path d="M 231.468594 316.94093 
L 385.571406 316.94093 
Q 391.871406 316.94093 391.871406 310.64093 
L 391.871406 297.091555 
Q 391.871406 290.791555 385.571406 290.791555 
L 231.468594 290.791555 
Q 225.168594 290.791555 225.168594 297.091555 
L 225.168594 310.64093 
Q 225.168594 316.94093 231.468594 316.94093 
z
" style="fill: #f4f6fb; stroke: #0b3d91; stroke-width: 1.5; stroke-linejoin: miter"/>
    </g>
    <!-- 9 × 4 = 30 + 6 = 36 -->
    <g style="fill: #1d1d1f" transform="translate(231.468594 307.729368) scale(0.14 -0.14)">
     <defs>
      <path id="DejaVuSans-Bold-39" d="M 641 103 
L 641 966 
Q 928 831 1190 764 
Q 1453 697 1709 697 
Q 2247 697 2547 995 
Q 2847 1294 2900 1881 
Q 2688 1725 2447 1647 
Q 2206 1569 1925 1569 
Q 1209 1569 770 1986 
Q 331 2403 331 3084 
Q 331 3838 820 4291 
Q 1309 4744 2131 4744 
Q 3044 4744 3544 4128 
Q 4044 3513 4044 2388 
Q 4044 1231 3459 570 
Q 2875 -91 1856 -91 
Q 1528 -91 1228 -42 
Q 928 6 641 103 
z
M 2125 2350 
Q 2441 2350 2600 2554 
Q 2759 2759 2759 3169 
Q 2759 3575 2600 3781 
Q 2441 3988 2125 3988 
Q 1809 3988 1650 3781 
Q 1491 3575 1491 3169 
Q 1491 2759 1650 2554 
Q 1809 2350 2125 2350 
z
" transform="scale(0.015625)"/>
      <path id="DejaVuSans-Bold-d7" d="M 4563 3359 
L 3206 2003 
L 4563 653 
L 4038 128 
L 2681 1478 
L 1325 128 
L 800 653 
L 2156 2003 
L 800 3359 
L 1325 3884 
L 2681 2528 
L 4038 3884 
L 4563 3359 
z
" transform="scale(0.015625)"/>
      <path id="DejaVuSans-Bold-2b" d="M 3053 4013 
L 3053 2375 
L 4684 2375 
L 4684 1638 
L 3053 1638 
L 3053 0 
L 2309 0 
L 2309 1638 
L 678 1638 
L 678 2375 
L 2309 2375 
L 2309 4013 
L 3053 4013 
z
" transform="scale(0.015625)"/>
     </defs>
     <use xlink:href="#DejaVuSans-Bold-39"/>
     <use xlink:href="#DejaVuSans-Bold-20" transform="translate(69.580078 0)"/>
     <use xlink:href="#DejaVuSans-Bold-d7" transform="translate(104.394531 0)"/>
     <use xlink:href="#DejaVuSans-Bold-20" transform="translate(188.183594 0)"/>
     <use xlink:href="#DejaVuSans-Bold-34" transform="translate(222.998047 0)"/>
     <use xlink:href="#DejaVuSans-Bold-20" transform="translate(292.578125 0)"/>
     <use xlink:href="#DejaVuSans-Bold-3d" transform="translate(327.392578 0)"/>
     <use xlink:href="#DejaVuSans-Bold-20" transform="translate(411.181641 0)"/>
     <use xlink:href="#DejaVuSans-Bold-33" transform="translate(445.996094 0)"/>
     <use xlink:href="#DejaVuSans-Bold-30" transform="translate(515.576172 0)"/>
     <use xlink:href="#DejaVuSans-Bold-20" transform="translate(585.15625 0)"/>
     <use xlink:href="#DejaVuSans-Bold-2b" transform="translate(619.970703 0)"/>
     <use xlink:href="#DejaVuSans-Bold-20" transform="translate(703.759766 0)"/>
     <use xlink:href="#DejaVuSans-Bold-36" transform="translate(738.574219 0)"/>
     <use xlink:href="#DejaVuSans-Bold-20" transform="translate(808.154297 0)"/>
     <use xlink:href="#DejaVuSans-Bold-3d" transform="translate(842.96875 0)"/>
     <use xlink:href="#DejaVuSans-Bold-20" transform="translate(926.757812 0)"/>
     <use xlink:href="#DejaVuSans-Bold-33" transform="translate(961.572266 0)"/>
     <use xlink:href="#DejaVuSans-Bold-36" transform="translate(1031.152344 0)"/>
    </g>
   </g>
   <g id="text_16">
    <!-- ✕ -->
    <g style="fill: #c0392b" transform="translate(230.826053 223.71287) scale(0.14 -0.14)">
     <defs>
      <path id="DejaVuSans-Bold-2715" d="M 3122 2331 
L 4550 903 
L 4106 463 
L 2681 1891 
L 1253 463 
L 809 903 
L 2238 2331 
L 809 3759 
L 1253 4200 
L 2681 2775 
L 4109 4203 
L 4553 3763 
L 3122 2331 
z
" transform="scale(0.015625)"/>
     </defs>
     <use xlink:href="#DejaVuSans-Bold-2715"/>
    </g>
   </g>
  </g>
  <g id="axes_3">
   <g id="patch_14">
    <path d="M 49.146336 581.964048 
L 567.893664 581.964048 
L 567.893664 348.650352 
L 49.146336 348.650352 
L 49.146336 581.964048 
z
" clip-path="url(#pe352272139)" style="fill: none; stroke-dasharray: 2.96,1.28; stroke-dashoffset: 0; stroke: #d0d7de; stroke-width: 0.8; stroke-linejoin: miter"/>
   </g>
   <g id="line2d_7">
    <path d="M 98.844426 499.997883 
L 291.623509 499.997883 
" clip-path="url(#pe352272139)" style="fill: none; stroke: #0b3d91; stroke-width: 2.2; stroke-linecap: round"/>
   </g>
   <g id="line2d_8">
    <path d="M 98.844426 499.997883 
L 98.844426 496.745631 
" clip-path="url(#pe352272139)" style="fill: none; stroke: #0b3d91; stroke-width: 2.2; stroke-linecap: square"/>
   </g>
   <g id="line2d_9">
    <path d="M 291.623509 499.997883 
L 291.623509 496.745631 
" clip-path="url(#pe352272139)" style="fill: none; stroke: #0b3d91; stroke-width: 2.2; stroke-linecap: square"/>
   </g>
   <g id="line2d_10">
    <path d="M 366.874359 499.997883 
L 518.195574 499.997883 
" clip-path="url(#pe352272139)" style="fill: none; stroke: #1b6d3b; stroke-width: 2.2; stroke-linecap: round"/>
   </g>
   <g id="line2d_11">
    <path d="M 366.874359 499.997883 
L 366.874359 496.745631 
" clip-path="url(#pe352272139)" style="fill: none; stroke: #1b6d3b; stroke-width: 2.2; stroke-linecap: square"/>
   </g>
   <g id="line2d_12">
    <path d="M 518.195574 499.997883 
L 518.195574 496.745631 
" clip-path="url(#pe352272139)" style="fill: none; stroke: #1b6d3b; stroke-width: 2.2; stroke-linecap: square"/>
   </g>
   <g id="patch_15">
    <path d="M 104.084298 487.460218 
L 120.552168 487.460218 
Q 126.840014 487.460218 126.840014 484.632173 
L 126.840014 391.778035 
Q 126.840014 388.94999 120.552168 388.94999 
L 104.084298 388.94999 
Q 97.796452 388.94999 97.796452 391.778035 
L 97.796452 484.632173 
Q 97.796452 487.460218 104.084298 487.460218 
z
" clip-path="url(#pe352272139)" style="fill: #fcd5b4; stroke: #a05a2c; stroke-width: 1.6; stroke-linejoin: miter"/>
   </g>
   <g id="text_17">
    <!-- 1 -->
    <g style="fill: #222222" transform="translate(108.818858 381.615805) scale(0.11 -0.11)">
     <use xlink:href="#DejaVuSans-31"/>
    </g>
   </g>
   <g id="patch_16">
    <path d="M 145.542165 487.460218 
L 162.010035 487.460218 
Q 168.297881 487.460218 168.297881 484.632173 
L 168.297881 391.778035 
Q 168.297881 388.94999 162.010035 388.94999 
L 145.542165 388.94999 
Q 139.254319 388.94999 139.254319 391.778035 
L 139.254319 484.632173 
Q 139.254319 487.460218 145.542165 487.460218 
z
" clip-path="url(#pe352272139)" style="fill: #fcd5b4; stroke: #a05a2c; stroke-width: 1.6; stroke-linejoin: miter"/>
   </g>
   <g id="text_18">
    <!-- 2 -->
    <g style="fill: #222222" transform="translate(150.276725 381.615805) scale(0.11 -0.11)">
     <use xlink:href="#DejaVuSans-32"/>
    </g>
   </g>
   <g id="patch_17">
    <path d="M 187.000032 487.460218 
L 203.467902 487.460218 
Q 209.755749 487.460218 209.755749 484.632173 
L 209.755749 391.778035 
Q 209.755749 388.94999 203.467902 388.94999 
L 187.000032 388.94999 
Q 180.712186 388.94999 180.712186 391.778035 
L 180.712186 484.632173 
Q 180.712186 487.460218 187.000032 487.460218 
z
" clip-path="url(#pe352272139)" style="fill: #fcd5b4; stroke: #a05a2c; stroke-width: 1.6; stroke-linejoin: miter"/>
   </g>
   <g id="text_19">
    <!-- 3 -->
    <g style="fill: #222222" transform="translate(191.734592 381.615805) scale(0.11 -0.11)">
     <use xlink:href="#DejaVuSans-33"/>
    </g>
   </g>
   <g id="patch_18">
    <path d="M 228.4579 487.460218 
L 244.925769 487.460218 
Q 251.213616 487.460218 251.213616 484.632173 
L 251.213616 391.778035 
Q 251.213616 388.94999 244.925769 388.94999 
L 228.4579 388.94999 
Q 222.170053 388.94999 222.170053 391.778035 
L 222.170053 484.632173 
Q 222.170053 487.460218 228.4579 487.460218 
z
" clip-path="url(#pe352272139)" style="fill: #fcd5b4; stroke: #a05a2c; stroke-width: 1.6; stroke-linejoin: miter"/>
   </g>
   <g id="text_20">
    <!-- 4 -->
    <g style="fill: #222222" transform="translate(233.19246 381.615805) scale(0.11 -0.11)">
     <defs>
      <path id="DejaVuSans-34" d="M 2419 4116 
L 825 1625 
L 2419 1625 
L 2419 4116 
z
M 2253 4666 
L 3047 4666 
L 3047 1625 
L 3713 1625 
L 3713 1100 
L 3047 1100 
L 3047 0 
L 2419 0 
L 2419 1100 
L 313 1100 
L 313 1709 
L 2253 4666 
z
" transform="scale(0.015625)"/>
     </defs>
     <use xlink:href="#DejaVuSans-34"/>
    </g>
   </g>
   <g id="patch_19">
    <path d="M 269.915767 487.460218 
L 286.383637 487.460218 
Q 292.671483 487.460218 292.671483 484.632173 
L 292.671483 391.778035 
Q 292.671483 388.94999 286.383637 388.94999 
L 269.915767 388.94999 
Q 263.627921 388.94999 263.627921 391.778035 
L 263.627921 484.632173 
Q 263.627921 487.460218 269.915767 487.460218 
z
" clip-path="url(#pe352272139)" style="fill: #fcd5b4; stroke: #a05a2c; stroke-width: 1.6; stroke-linejoin: miter"/>
   </g>
   <g id="text_21">
    <!-- 5 -->
    <g style="fill: #222222" transform="translate(274.650327 381.615805) scale(0.11 -0.11)">
     <use xlink:href="#DejaVuSans-35"/>
    </g>
   </g>
   <g id="patch_20">
    <path d="M 330.656363 487.460218 
L 347.124233 487.460218 
Q 353.412079 487.460218 353.412079 484.632173 
L 353.412079 460.075317 
Q 353.412079 457.247272 347.124233 457.247272 
L 330.656363 457.247272 
Q 324.368517 457.247272 324.368517 460.075317 
L 324.368517 484.632173 
Q 324.368517 487.460218 330.656363 487.460218 
z
" clip-path="url(#pe352272139)" style="fill: #9a9a9a; stroke: #3d3d3d; stroke-width: 1.6; stroke-linejoin: miter"/>
   </g>
   <g id="text_22">
    <!-- 6 -->
    <g style="fill: #222222" transform="translate(335.063501 381.615805) scale(0.11 -0.11)">
     <use xlink:href="#DejaVuSans-Bold-36"/>
    </g>
   </g>
   <g id="patch_21">
    <path d="M 372.114231 487.460218 
L 388.5821 487.460218 
Q 394.869947 487.460218 394.869947 484.632173 
L 394.869947 391.778035 
Q 394.869947 388.94999 388.5821 388.94999 
L 372.114231 388.94999 
Q 365.826384 388.94999 365.826384 391.778035 
L 365.826384 484.632173 
Q 365.826384 487.460218 372.114231 487.460218 
z
" clip-path="url(#pe352272139)" style="fill: #fcd5b4; stroke: #a05a2c; stroke-width: 1.6; stroke-linejoin: miter"/>
   </g>
   <g id="text_23">
    <!-- 7 -->
    <g style="fill: #222222" transform="translate(376.84879 381.615805) scale(0.11 -0.11)">
     <use xlink:href="#DejaVuSans-37"/>
    </g>
   </g>
   <g id="patch_22">
    <path d="M 413.572098 487.460218 
L 430.039968 487.460218 
Q 436.327814 487.460218 436.327814 484.632173 
L 436.327814 391.778035 
Q 436.327814 388.94999 430.039968 388.94999 
L 413.572098 388.94999 
Q 407.284251 388.94999 407.284251 391.778035 
L 407.284251 484.632173 
Q 407.284251 487.460218 413.572098 487.460218 
z
" clip-path="url(#pe352272139)" style="fill: #fcd5b4; stroke: #a05a2c; stroke-width: 1.6; stroke-linejoin: miter"/>
   </g>
   <g id="text_24">
    <!-- 8 -->
    <g style="fill: #222222" transform="translate(418.306658 381.615805) scale(0.11 -0.11)">
     <use xlink:href="#DejaVuSans-38"/>
    </g>
   </g>
   <g id="patch_23">
    <path d="M 455.029965 487.460218 
L 471.497835 487.460218 
Q 477.785681 487.460218 477.785681 484.632173 
L 477.785681 391.778035 
Q 477.785681 388.94999 471.497835 388.94999 
L 455.029965 388.94999 
Q 448.742119 388.94999 448.742119 391.778035 
L 448.742119 484.632173 
Q 448.742119 487.460218 455.029965 487.460218 
z
" clip-path="url(#pe352272139)" style="fill: #fcd5b4; stroke: #a05a2c; stroke-width: 1.6; stroke-linejoin: miter"/>
   </g>
   <g id="text_25">
    <!-- 9 -->
    <g style="fill: #222222" transform="translate(459.764525 381.615805) scale(0.11 -0.11)">
     <use xlink:href="#DejaVuSans-39"/>
    </g>
   </g>
   <g id="patch_24">
    <path d="M 496.487832 487.460218 
L 512.955702 487.460218 
Q 519.243548 487.460218 519.243548 484.632173 
L 519.243548 391.778035 
Q 519.243548 388.94999 512.955702 388.94999 
L 496.487832 388.94999 
Q 490.199986 388.94999 490.199986 391.778035 
L 490.199986 484.632173 
Q 490.199986 487.460218 496.487832 487.460218 
z
" clip-path="url(#pe352272139)" style="fill: #fcd5b4; stroke: #a05a2c; stroke-width: 1.6; stroke-linejoin: miter"/>
   </g>
   <g id="text_26">
    <!-- 10 -->
    <g style="fill: #222222" transform="translate(497.723017 381.615805) scale(0.11 -0.11)">
     <use xlink:href="#DejaVuSans-31"/>
     <use xlink:href="#DejaVuSans-30" transform="translate(63.623047 0)"/>
    </g>
   </g>
   <g id="text_27">
    <!-- 5 fingers = 50 -->
    <g style="fill: #0b3d91" transform="translate(151.554514 524.671903) scale(0.11 -0.11)">
     <defs>
      <path id="DejaVuSans-Bold-35" d="M 678 4666 
L 3669 4666 
L 3669 3781 
L 1638 3781 
L 1638 3059 
Q 1775 3097 1914 3117 
Q 2053 3138 2203 3138 
Q 3056 3138 3531 2711 
Q 4006 2284 4006 1522 
Q 4006 766 3489 337 
Q 2972 -91 2053 -91 
Q 1656 -91 1267 -14 
Q 878 63 494 219 
L 494 1166 
Q 875 947 1217 837 
Q 1559 728 1863 728 
Q 2300 728 2551 942 
Q 2803 1156 2803 1522 
Q 2803 1891 2551 2103 
Q 2300 2316 1863 2316 
Q 1603 2316 1309 2248 
Q 1016 2181 678 2041 
L 678 4666 
z
" transform="scale(0.015625)"/>
     </defs>
     <use xlink:href="#DejaVuSans-Bold-35"/>
     <use xlink:href="#DejaVuSans-Bold-20" transform="translate(69.580078 0)"/>
     <use xlink:href="#DejaVuSans-Bold-66" transform="translate(104.394531 0)"/>
     <use xlink:href="#DejaVuSans-Bold-69" transform="translate(147.900391 0)"/>
     <use xlink:href="#DejaVuSans-Bold-6e" transform="translate(182.177734 0)"/>
     <use xlink:href="#DejaVuSans-Bold-67" transform="translate(253.369141 0)"/>
     <use xlink:href="#DejaVuSans-Bold-65" transform="translate(324.951172 0)"/>
     <use xlink:href="#DejaVuSans-Bold-72" transform="translate(392.773438 0)"/>
     <use xlink:href="#DejaVuSans-Bold-73" transform="translate(442.089844 0)"/>
     <use xlink:href="#DejaVuSans-Bold-20" transform="translate(501.611328 0)"/>
     <use xlink:href="#DejaVuSans-Bold-3d" transform="translate(536.425781 0)"/>
     <use xlink:href="#DejaVuSans-Bold-20" transform="translate(620.214844 0)"/>
     <use xlink:href="#DejaVuSans-Bold-35" transform="translate(655.029297 0)"/>
     <use xlink:href="#DejaVuSans-Bold-30" transform="translate(724.609375 0)"/>
    </g>
   </g>
   <g id="text_28">
    <!-- 4 fingers = 4 -->
    <g style="fill: #1b6d3b" transform="translate(402.68231 524.671903) scale(0.11 -0.11)">
     <use xlink:href="#DejaVuSans-Bold-34"/>
     <use xlink:href="#DejaVuSans-Bold-20" transform="translate(69.580078 0)"/>
     <use xlink:href="#DejaVuSans-Bold-66" transform="translate(104.394531 0)"/>
     <use xlink:href="#DejaVuSans-Bold-69" transform="translate(147.900391 0)"/>
     <use xlink:href="#DejaVuSans-Bold-6e" transform="translate(182.177734 0)"/>
     <use xlink:href="#DejaVuSans-Bold-67" transform="translate(253.369141 0)"/>
     <use xlink:href="#DejaVuSans-Bold-65" transform="translate(324.951172 0)"/>
     <use xlink:href="#DejaVuSans-Bold-72" transform="translate(392.773438 0)"/>
     <use xlink:href="#DejaVuSans-Bold-73" transform="translate(442.089844 0)"/>
     <use xlink:href="#DejaVuSans-Bold-20" transform="translate(501.611328 0)"/>
     <use xlink:href="#DejaVuSans-Bold-3d" transform="translate(536.425781 0)"/>
     <use xlink:href="#DejaVuSans-Bold-20" transform="translate(620.214844 0)"/>
     <use xlink:href="#DejaVuSans-Bold-34" transform="translate(655.029297 0)"/>
    </g>
   </g>
   <g id="text_29">
    <g id="patch_25">
     <path d="M 231.468594 569.44493 
L 385.571406 569.44493 
Q 391.871406 569.44493 391.871406 563.14493 
L 391.871406 549.595555 
Q 391.871406 543.295555 385.571406 543.295555 
L 231.468594 543.295555 
Q 225.168594 543.295555 225.168594 549.595555 
L 225.168594 563.14493 
Q 225.168594 569.44493 231.468594 569.44493 
z
" style="fill: #f4f6fb; stroke: #0b3d91; stroke-width: 1.5; stroke-linejoin: miter"/>
    </g>
    <!-- 9 × 6 = 50 + 4 = 54 -->
    <g style="fill: #1d1d1f" transform="translate(231.468594 560.233368) scale(0.14 -0.14)">
     <use xlink:href="#DejaVuSans-Bold-39"/>
     <use xlink:href="#DejaVuSans-Bold-20" transform="translate(69.580078 0)"/>
     <use xlink:href="#DejaVuSans-Bold-d7" transform="translate(104.394531 0)"/>
     <use xlink:href="#DejaVuSans-Bold-20" transform="translate(188.183594 0)"/>
     <use xlink:href="#DejaVuSans-Bold-36" transform="translate(222.998047 0)"/>
     <use xlink:href="#DejaVuSans-Bold-20" transform="translate(292.578125 0)"/>
     <use xlink:href="#DejaVuSans-Bold-3d" transform="translate(327.392578 0)"/>
     <use xlink:href="#DejaVuSans-Bold-20" transform="translate(411.181641 0)"/>
     <use xlink:href="#DejaVuSans-Bold-35" transform="translate(445.996094 0)"/>
     <use xlink:href="#DejaVuSans-Bold-30" transform="translate(515.576172 0)"/>
     <use xlink:href="#DejaVuSans-Bold-20" transform="translate(585.15625 0)"/>
     <use xlink:href="#DejaVuSans-Bold-2b" transform="translate(619.970703 0)"/>
     <use xlink:href="#DejaVuSans-Bold-20" transform="translate(703.759766 0)"/>
     <use xlink:href="#DejaVuSans-Bold-34" transform="translate(738.574219 0)"/>
     <use xlink:href="#DejaVuSans-Bold-20" transform="translate(808.154297 0)"/>
     <use xlink:href="#DejaVuSans-Bold-3d" transform="translate(842.96875 0)"/>
     <use xlink:href="#DejaVuSans-Bold-20" transform="translate(926.757812 0)"/>
     <use xlink:href="#DejaVuSans-Bold-35" transform="translate(961.572266 0)"/>
     <use xlink:href="#DejaVuSans-Bold-34" transform="translate(1031.152344 0)"/>
    </g>
   </g>
   <g id="text_30">
    <!-- ✕ -->
    <g style="fill: #c0392b" transform="translate(333.024517 476.21687) scale(0.14 -0.14)">
     <use xlink:href="#DejaVuSans-Bold-2715"/>
    </g>
   </g>
  </g>
  <g id="axes_4">
   <g id="patch_26">
    <path d="M 49.146336 834.468048 
L 567.893664 834.468048 
L 567.893664 601.154352 
L 49.146336 601.154352 
L 49.146336 834.468048 
z
" clip-path="url(#p492a58a759)" style="fill: none; stroke-dasharray: 2.96,1.28; stroke-dashoffset: 0; stroke: #d0d7de; stroke-width: 0.8; stroke-linejoin: miter"/>
   </g>
   <g id="line2d_13">
    <path d="M 98.844426 752.501883 
L 393.821972 752.501883 
" clip-path="url(#p492a58a759)" style="fill: none; stroke: #0b3d91; stroke-width: 2.2; stroke-linecap: round"/>
   </g>
   <g id="line2d_14">
    <path d="M 98.844426 752.501883 
L 98.844426 749.249631 
" clip-path="url(#p492a58a759)" style="fill: none; stroke: #0b3d91; stroke-width: 2.2; stroke-linecap: square"/>
   </g>
   <g id="line2d_15">
    <path d="M 393.821972 752.501883 
L 393.821972 749.249631 
" clip-path="url(#p492a58a759)" style="fill: none; stroke: #0b3d91; stroke-width: 2.2; stroke-linecap: square"/>
   </g>
   <g id="line2d_16">
    <path d="M 449.790093 752.501883 
L 518.195574 752.501883 
" clip-path="url(#p492a58a759)" style="fill: none; stroke: #1b6d3b; stroke-width: 2.2; stroke-linecap: round"/>
   </g>
   <g id="line2d_17">
    <path d="M 449.790093 752.501883 
L 449.790093 749.249631 
" clip-path="url(#p492a58a759)" style="fill: none; stroke: #1b6d3b; stroke-width: 2.2; stroke-linecap: square"/>
   </g>
   <g id="line2d_18">
    <path d="M 518.195574 752.501883 
L 518.195574 749.249631 
" clip-path="url(#p492a58a759)" style="fill: none; stroke: #1b6d3b; stroke-width: 2.2; stroke-linecap: square"/>
   </g>
   <g id="patch_27">
    <path d="M 104.084298 739.964218 
L 120.552168 739.964218 
Q 126.840014 739.964218 126.840014 737.136173 
L 126.840014 644.282035 
Q 126.840014 641.45399 120.552168 641.45399 
L 104.084298 641.45399 
Q 97.796452 641.45399 97.796452 644.282035 
L 97.796452 737.136173 
Q 97.796452 739.964218 104.084298 739.964218 
z
" clip-path="url(#p492a58a759)" style="fill: #fcd5b4; stroke: #a05a2c; stroke-width: 1.6; stroke-linejoin: miter"/>
   </g>
   <g id="text_31">
    <!-- 1 -->
    <g style="fill: #222222" transform="translate(108.818858 634.119805) scale(0.11 -0.11)">
     <use xlink:href="#DejaVuSans-31"/>
    </g>
   </g>
   <g id="patch_28">
    <path d="M 145.542165 739.964218 
L 162.010035 739.964218 
Q 168.297881 739.964218 168.297881 737.136173 
L 168.297881 644.282035 
Q 168.297881 641.45399 162.010035 641.45399 
L 145.542165 641.45399 
Q 139.254319 641.45399 139.254319 644.282035 
L 139.254319 737.136173 
Q 139.254319 739.964218 145.542165 739.964218 
z
" clip-path="url(#p492a58a759)" style="fill: #fcd5b4; stroke: #a05a2c; stroke-width: 1.6; stroke-linejoin: miter"/>
   </g>
   <g id="text_32">
    <!-- 2 -->
    <g style="fill: #222222" transform="translate(150.276725 634.119805) scale(0.11 -0.11)">
     <use xlink:href="#DejaVuSans-32"/>
    </g>
   </g>
   <g id="patch_29">
    <path d="M 187.000032 739.964218 
L 203.467902 739.964218 
Q 209.755749 739.964218 209.755749 737.136173 
L 209.755749 644.282035 
Q 209.755749 641.45399 203.467902 641.45399 
L 187.000032 641.45399 
Q 180.712186 641.45399 180.712186 644.282035 
L 180.712186 737.136173 
Q 180.712186 739.964218 187.000032 739.964218 
z
" clip-path="url(#p492a58a759)" style="fill: #fcd5b4; stroke: #a05a2c; stroke-width: 1.6; stroke-linejoin: miter"/>
   </g>
   <g id="text_33">
    <!-- 3 -->
    <g style="fill: #222222" transform="translate(191.734592 634.119805) scale(0.11 -0.11)">
     <use xlink:href="#DejaVuSans-33"/>
    </g>
   </g>
   <g id="patch_30">
    <path d="M 228.4579 739.964218 
L 244.925769 739.964218 
Q 251.213616 739.964218 251.213616 737.136173 
L 251.213616 644.282035 
Q 251.213616 641.45399 244.925769 641.45399 
L 228.4579 641.45399 
Q 222.170053 641.45399 222.170053 644.282035 
L 222.170053 737.136173 
Q 222.170053 739.964218 228.4579 739.964218 
z
" clip-path="url(#p492a58a759)" style="fill: #fcd5b4; stroke: #a05a2c; stroke-width: 1.6; stroke-linejoin: miter"/>
   </g>
   <g id="text_34">
    <!-- 4 -->
    <g style="fill: #222222" transform="translate(233.19246 634.119805) scale(0.11 -0.11)">
     <use xlink:href="#DejaVuSans-34"/>
    </g>
   </g>
   <g id="patch_31">
    <path d="M 269.915767 739.964218 
L 286.383637 739.964218 
Q 292.671483 739.964218 292.671483 737.136173 
L 292.671483 644.282035 
Q 292.671483 641.45399 286.383637 641.45399 
L 269.915767 641.45399 
Q 263.627921 641.45399 263.627921 644.282035 
L 263.627921 737.136173 
Q 263.627921 739.964218 269.915767 739.964218 
z
" clip-path="url(#p492a58a759)" style="fill: #fcd5b4; stroke: #a05a2c; stroke-width: 1.6; stroke-linejoin: miter"/>
   </g>
   <g id="text_35">
    <!-- 5 -->
    <g style="fill: #222222" transform="translate(274.650327 634.119805) scale(0.11 -0.11)">
     <use xlink:href="#DejaVuSans-35"/>
    </g>
   </g>
   <g id="patch_32">
    <path d="M 330.656363 739.964218 
L 347.124233 739.964218 
Q 353.412079 739.964218 353.412079 737.136173 
L 353.412079 644.282035 
Q 353.412079 641.45399 347.124233 641.45399 
L 330.656363 641.45399 
Q 324.368517 641.45399 324.368517 644.282035 
L 324.368517 737.136173 
Q 324.368517 739.964218 330.656363 739.964218 
z
" clip-path="url(#p492a58a759)" style="fill: #fcd5b4; stroke: #a05a2c; stroke-width: 1.6; stroke-linejoin: miter"/>
   </g>
   <g id="text_36">
    <!-- 6 -->
    <g style="fill: #222222" transform="translate(335.390923 634.119805) scale(0.11 -0.11)">
     <use xlink:href="#DejaVuSans-36"/>
    </g>
   </g>
   <g id="patch_33">
    <path d="M 372.114231 739.964218 
L 388.5821 739.964218 
Q 394.869947 739.964218 394.869947 737.136173 
L 394.869947 644.282035 
Q 394.869947 641.45399 388.5821 641.45399 
L 372.114231 641.45399 
Q 365.826384 641.45399 365.826384 644.282035 
L 365.826384 737.136173 
Q 365.826384 739.964218 372.114231 739.964218 
z
" clip-path="url(#p492a58a759)" style="fill: #fcd5b4; stroke: #a05a2c; stroke-width: 1.6; stroke-linejoin: miter"/>
   </g>
   <g id="text_37">
    <!-- 7 -->
    <g style="fill: #222222" transform="translate(376.84879 634.119805) scale(0.11 -0.11)">
     <use xlink:href="#DejaVuSans-37"/>
    </g>
   </g>
   <g id="patch_34">
    <path d="M 413.572098 739.964218 
L 430.039968 739.964218 
Q 436.327814 739.964218 436.327814 737.136173 
L 436.327814 712.579317 
Q 436.327814 709.751272 430.039968 709.751272 
L 413.572098 709.751272 
Q 407.284251 709.751272 407.284251 712.579317 
L 407.284251 737.136173 
Q 407.284251 739.964218 413.572098 739.964218 
z
" clip-path="url(#p492a58a759)" style="fill: #9a9a9a; stroke: #3d3d3d; stroke-width: 1.6; stroke-linejoin: miter"/>
   </g>
   <g id="text_38">
    <!-- 8 -->
    <g style="fill: #222222" transform="translate(417.979236 634.119805) scale(0.11 -0.11)">
     <defs>
      <path id="DejaVuSans-Bold-38" d="M 2228 2088 
Q 1891 2088 1709 1903 
Q 1528 1719 1528 1375 
Q 1528 1031 1709 848 
Q 1891 666 2228 666 
Q 2563 666 2741 848 
Q 2919 1031 2919 1375 
Q 2919 1722 2741 1905 
Q 2563 2088 2228 2088 
z
M 1350 2484 
Q 925 2613 709 2878 
Q 494 3144 494 3541 
Q 494 4131 934 4440 
Q 1375 4750 2228 4750 
Q 3075 4750 3515 4442 
Q 3956 4134 3956 3541 
Q 3956 3144 3739 2878 
Q 3522 2613 3097 2484 
Q 3572 2353 3814 2058 
Q 4056 1763 4056 1313 
Q 4056 619 3595 264 
Q 3134 -91 2228 -91 
Q 1319 -91 855 264 
Q 391 619 391 1313 
Q 391 1763 633 2058 
Q 875 2353 1350 2484 
z
M 1631 3419 
Q 1631 3141 1786 2991 
Q 1941 2841 2228 2841 
Q 2509 2841 2662 2991 
Q 2816 3141 2816 3419 
Q 2816 3697 2662 3845 
Q 2509 3994 2228 3994 
Q 1941 3994 1786 3844 
Q 1631 3694 1631 3419 
z
" transform="scale(0.015625)"/>
     </defs>
     <use xlink:href="#DejaVuSans-Bold-38"/>
    </g>
   </g>
   <g id="patch_35">
    <path d="M 455.029965 739.964218 
L 471.497835 739.964218 
Q 477.785681 739.964218 477.785681 737.136173 
L 477.785681 644.282035 
Q 477.785681 641.45399 471.497835 641.45399 
L 455.029965 641.45399 
Q 448.742119 641.45399 448.742119 644.282035 
L 448.742119 737.136173 
Q 448.742119 739.964218 455.029965 739.964218 
z
" clip-path="url(#p492a58a759)" style="fill: #fcd5b4; stroke: #a05a2c; stroke-width: 1.6; stroke-linejoin: miter"/>
   </g>
   <g id="text_39">
    <!-- 9 -->
    <g style="fill: #222222" transform="translate(459.764525 634.119805) scale(0.11 -0.11)">
     <use xlink:href="#DejaVuSans-39"/>
    </g>
   </g>
   <g id="patch_36">
    <path d="M 496.487832 739.964218 
L 512.955702 739.964218 
Q 519.243548 739.964218 519.243548 737.136173 
L 519.243548 644.282035 
Q 519.243548 641.45399 512.955702 641.45399 
L 496.487832 641.45399 
Q 490.199986 641.45399 490.199986 644.282035 
L 490.199986 737.136173 
Q 490.199986 739.964218 496.487832 739.964218 
z
" clip-path="url(#p492a58a759)" style="fill: #fcd5b4; stroke: #a05a2c; stroke-width: 1.6; stroke-linejoin: miter"/>
   </g>
   <g id="text_40">
    <!-- 10 -->
    <g style="fill: #222222" transform="translate(497.723017 634.119805) scale(0.11 -0.11)">
     <use xlink:href="#DejaVuSans-31"/>
     <use xlink:href="#DejaVuSans-30" transform="translate(63.623047 0)"/>
    </g>
   </g>
   <g id="text_41">
    <!-- 7 fingers = 70 -->
    <g style="fill: #0b3d91" transform="translate(202.653746 777.175903) scale(0.11 -0.11)">
     <defs>
      <path id="DejaVuSans-Bold-37" d="M 428 4666 
L 3944 4666 
L 3944 3988 
L 2125 0 
L 953 0 
L 2675 3781 
L 428 3781 
L 428 4666 
z
" transform="scale(0.015625)"/>
     </defs>
     <use xlink:href="#DejaVuSans-Bold-37"/>
     <use xlink:href="#DejaVuSans-Bold-20" transform="translate(69.580078 0)"/>
     <use xlink:href="#DejaVuSans-Bold-66" transform="translate(104.394531 0)"/>
     <use xlink:href="#DejaVuSans-Bold-69" transform="translate(147.900391 0)"/>
     <use xlink:href="#DejaVuSans-Bold-6e" transform="translate(182.177734 0)"/>
     <use xlink:href="#DejaVuSans-Bold-67" transform="translate(253.369141 0)"/>
     <use xlink:href="#DejaVuSans-Bold-65" transform="translate(324.951172 0)"/>
     <use xlink:href="#DejaVuSans-Bold-72" transform="translate(392.773438 0)"/>
     <use xlink:href="#DejaVuSans-Bold-73" transform="translate(442.089844 0)"/>
     <use xlink:href="#DejaVuSans-Bold-20" transform="translate(501.611328 0)"/>
     <use xlink:href="#DejaVuSans-Bold-3d" transform="translate(536.425781 0)"/>
     <use xlink:href="#DejaVuSans-Bold-20" transform="translate(620.214844 0)"/>
     <use xlink:href="#DejaVuSans-Bold-37" transform="translate(655.029297 0)"/>
     <use xlink:href="#DejaVuSans-Bold-30" transform="translate(724.609375 0)"/>
    </g>
   </g>
   <g id="text_42">
    <!-- 2 fingers = 2 -->
    <g style="fill: #1b6d3b" transform="translate(444.140177 777.175903) scale(0.11 -0.11)">
     <defs>
      <path id="DejaVuSans-Bold-32" d="M 1844 884 
L 3897 884 
L 3897 0 
L 506 0 
L 506 884 
L 2209 2388 
Q 2438 2594 2547 2791 
Q 2656 2988 2656 3200 
Q 2656 3528 2436 3728 
Q 2216 3928 1850 3928 
Q 1569 3928 1234 3808 
Q 900 3688 519 3450 
L 519 4475 
Q 925 4609 1322 4679 
Q 1719 4750 2100 4750 
Q 2938 4750 3402 4381 
Q 3866 4013 3866 3353 
Q 3866 2972 3669 2642 
Q 3472 2313 2841 1759 
L 1844 884 
z
" transform="scale(0.015625)"/>
     </defs>
     <use xlink:href="#DejaVuSans-Bold-32"/>
     <use xlink:href="#DejaVuSans-Bold-20" transform="translate(69.580078 0)"/>
     <use xlink:href="#DejaVuSans-Bold-66" transform="translate(104.394531 0)"/>
     <use xlink:href="#DejaVuSans-Bold-69" transform="translate(147.900391 0)"/>
     <use xlink:href="#DejaVuSans-Bold-6e" transform="translate(182.177734 0)"/>
     <use xlink:href="#DejaVuSans-Bold-67" transform="translate(253.369141 0)"/>
     <use xlink:href="#DejaVuSans-Bold-65" transform="translate(324.951172 0)"/>
     <use xlink:href="#DejaVuSans-Bold-72" transform="translate(392.773438 0)"/>
     <use xlink:href="#DejaVuSans-Bold-73" transform="translate(442.089844 0)"/>
     <use xlink:href="#DejaVuSans-Bold-20" transform="translate(501.611328 0)"/>
     <use xlink:href="#DejaVuSans-Bold-3d" transform="translate(536.425781 0)"/>
     <use xlink:href="#DejaVuSans-Bold-20" transform="translate(620.214844 0)"/>
     <use xlink:href="#DejaVuSans-Bold-32" transform="translate(655.029297 0)"/>
    </g>
   </g>
   <g id="text_43">
    <g id="patch_37">
     <path d="M 231.468594 821.94893 
L 385.571406 821.94893 
Q 391.871406 821.94893 391.871406 815.64893 
L 391.871406 802.099555 
Q 391.871406 795.799555 385.571406 795.799555 
L 231.468594 795.799555 
Q 225.168594 795.799555 225.168594 802.099555 
L 225.168594 815.64893 
Q 225.168594 821.94893 231.468594 821.94893 
z
" style="fill: #f4f6fb; stroke: #0b3d91; stroke-width: 1.5; stroke-linejoin: miter"/>
    </g>
    <!-- 9 × 8 = 70 + 2 = 72 -->
    <g style="fill: #1d1d1f" transform="translate(231.468594 812.737368) scale(0.14 -0.14)">
     <use xlink:href="#DejaVuSans-Bold-39"/>
     <use xlink:href="#DejaVuSans-Bold-20" transform="translate(69.580078 0)"/>
     <use xlink:href="#DejaVuSans-Bold-d7" transform="translate(104.394531 0)"/>
     <use xlink:href="#DejaVuSans-Bold-20" transform="translate(188.183594 0)"/>
     <use xlink:href="#DejaVuSans-Bold-38" transform="translate(222.998047 0)"/>
     <use xlink:href="#DejaVuSans-Bold-20" transform="translate(292.578125 0)"/>
     <use xlink:href="#DejaVuSans-Bold-3d" transform="translate(327.392578 0)"/>
     <use xlink:href="#DejaVuSans-Bold-20" transform="translate(411.181641 0)"/>
     <use xlink:href="#DejaVuSans-Bold-37" transform="translate(445.996094 0)"/>
     <use xlink:href="#DejaVuSans-Bold-30" transform="translate(515.576172 0)"/>
     <use xlink:href="#DejaVuSans-Bold-20" transform="translate(585.15625 0)"/>
     <use xlink:href="#DejaVuSans-Bold-2b" transform="translate(619.970703 0)"/>
     <use xlink:href="#DejaVuSans-Bold-20" transform="translate(703.759766 0)"/>
     <use xlink:href="#DejaVuSans-Bold-32" transform="translate(738.574219 0)"/>
     <use xlink:href="#DejaVuSans-Bold-20" transform="translate(808.154297 0)"/>
     <use xlink:href="#DejaVuSans-Bold-3d" transform="translate(842.96875 0)"/>
     <use xlink:href="#DejaVuSans-Bold-20" transform="translate(926.757812 0)"/>
     <use xlink:href="#DejaVuSans-Bold-37" transform="translate(961.572266 0)"/>
     <use xlink:href="#DejaVuSans-Bold-32" transform="translate(1031.152344 0)"/>
    </g>
   </g>
   <g id="text_44">
    <!-- ✕ -->
    <g style="fill: #c0392b" transform="translate(415.940251 728.72087) scale(0.14 -0.14)">
     <use xlink:href="#DejaVuSans-Bold-2715"/>
    </g>
   </g>
  </g>
 </g>
 <defs>
  <clipPath id="pb6e2e6ec25">
   <rect x="46.5264" y="94.968" width="523.9872" height="235.6704"/>
  </clipPath>
  <clipPath id="pe352272139">
   <rect x="46.5264" y="347.472" width="523.9872" height="235.6704"/>
  </clipPath>
  <clipPath id="p492a58a759">
   <rect x="46.5264" y="599.976" width="523.9872" height="235.6704"/>
  </clipPath>
 </defs>
</svg>
