<?xml version="1.0" encoding="utf-8" standalone="no"?>
<!DOCTYPE svg PUBLIC "-//W3C//DTD SVG 1.1//EN"
  "http://www.w3.org/Graphics/SVG/1.1/DTD/svg11.dtd">
<svg xmlns:xlink="http://www.w3.org/1999/xlink" width="617.04pt" height="795.9456pt" viewBox="0 0 617.04 795.9456" xmlns="http://www.w3.org/2000/svg" version="1.1">
 <metadata>
  <rdf:RDF xmlns:dc="http://purl.org/dc/elements/1.1/" xmlns:cc="http://creativecommons.org/ns#" xmlns:rdf="http://www.w3.org/1999/02/22-rdf-syntax-ns#">
   <cc:Work>
    <dc:type rdf:resource="http://purl.org/dc/dcmitype/StillImage"/>
    <dc:date>2026-05-18T18:02:09.456626</dc:date>
    <dc:format>image/svg+xml</dc:format>
    <dc:creator>
     <cc:Agent>
      <dc:title>Matplotlib v3.10.9, https://matplotlib.org/</dc:title>
     </cc:Agent>
    </dc:creator>
   </cc:Work>
  </rdf:RDF>
 </metadata>
 <defs>
  <style type="text/css">*{stroke-linejoin: round; stroke-linecap: butt}</style>
 </defs>
 <g id="figure_1">
  <g id="patch_1">
   <path d="M -0 795.9456 
L 617.04 795.9456 
L 617.04 -0 
L -0 -0 
z
" style="fill: #ffffff"/>
  </g>
  <g id="axes_1">
   <g id="text_1">
    <!-- Doubling &amp; Halving -->
    <g style="fill: #0b3d91" transform="translate(199.487187 42.753545) scale(0.2 -0.2)">
     <defs>
      <path id="DejaVuSans-Bold-44" d="M 1791 3756 
L 1791 909 
L 2222 909 
Q 2959 909 3348 1275 
Q 3738 1641 3738 2338 
Q 3738 3031 3350 3393 
Q 2963 3756 2222 3756 
L 1791 3756 
z
M 588 4666 
L 1856 4666 
Q 2919 4666 3439 4514 
Q 3959 4363 4331 4000 
Q 4659 3684 4818 3271 
Q 4978 2859 4978 2338 
Q 4978 1809 4818 1395 
Q 4659 981 4331 666 
Q 3956 303 3431 151 
Q 2906 0 1856 0 
L 588 0 
L 588 4666 
z
" transform="scale(0.015625)"/>
      <path id="DejaVuSans-Bold-6f" d="M 2203 2784 
Q 1831 2784 1636 2517 
Q 1441 2250 1441 1747 
Q 1441 1244 1636 976 
Q 1831 709 2203 709 
Q 2569 709 2762 976 
Q 2956 1244 2956 1747 
Q 2956 2250 2762 2517 
Q 2569 2784 2203 2784 
z
M 2203 3584 
Q 3106 3584 3614 3096 
Q 4122 2609 4122 1747 
Q 4122 884 3614 396 
Q 3106 -91 2203 -91 
Q 1297 -91 786 396 
Q 275 884 275 1747 
Q 275 2609 786 3096 
Q 1297 3584 2203 3584 
z
" transform="scale(0.015625)"/>
      <path id="DejaVuSans-Bold-75" d="M 500 1363 
L 500 3500 
L 1625 3500 
L 1625 3150 
Q 1625 2866 1622 2436 
Q 1619 2006 1619 1863 
Q 1619 1441 1641 1255 
Q 1663 1069 1716 984 
Q 1784 875 1895 815 
Q 2006 756 2150 756 
Q 2500 756 2700 1025 
Q 2900 1294 2900 1772 
L 2900 3500 
L 4019 3500 
L 4019 0 
L 2900 0 
L 2900 506 
Q 2647 200 2364 54 
Q 2081 -91 1741 -91 
Q 1134 -91 817 281 
Q 500 653 500 1363 
z
" transform="scale(0.015625)"/>
      <path id="DejaVuSans-Bold-62" d="M 2400 722 
Q 2759 722 2948 984 
Q 3138 1247 3138 1747 
Q 3138 2247 2948 2509 
Q 2759 2772 2400 2772 
Q 2041 2772 1848 2508 
Q 1656 2244 1656 1747 
Q 1656 1250 1848 986 
Q 2041 722 2400 722 
z
M 1656 2988 
Q 1888 3294 2169 3439 
Q 2450 3584 2816 3584 
Q 3463 3584 3878 3070 
Q 4294 2556 4294 1747 
Q 4294 938 3878 423 
Q 3463 -91 2816 -91 
Q 2450 -91 2169 54 
Q 1888 200 1656 506 
L 1656 0 
L 538 0 
L 538 4863 
L 1656 4863 
L 1656 2988 
z
" transform="scale(0.015625)"/>
      <path id="DejaVuSans-Bold-6c" d="M 538 4863 
L 1656 4863 
L 1656 0 
L 538 0 
L 538 4863 
z
" transform="scale(0.015625)"/>
      <path id="DejaVuSans-Bold-69" d="M 538 3500 
L 1656 3500 
L 1656 0 
L 538 0 
L 538 3500 
z
M 538 4863 
L 1656 4863 
L 1656 3950 
L 538 3950 
L 538 4863 
z
" transform="scale(0.015625)"/>
      <path id="DejaVuSans-Bold-6e" d="M 4056 2131 
L 4056 0 
L 2931 0 
L 2931 347 
L 2931 1631 
Q 2931 2084 2911 2256 
Q 2891 2428 2841 2509 
Q 2775 2619 2662 2680 
Q 2550 2741 2406 2741 
Q 2056 2741 1856 2470 
Q 1656 2200 1656 1722 
L 1656 0 
L 538 0 
L 538 3500 
L 1656 3500 
L 1656 2988 
Q 1909 3294 2193 3439 
Q 2478 3584 2822 3584 
Q 3428 3584 3742 3212 
Q 4056 2841 4056 2131 
z
" transform="scale(0.015625)"/>
      <path id="DejaVuSans-Bold-67" d="M 2919 594 
Q 2688 288 2409 144 
Q 2131 0 1766 0 
Q 1125 0 706 504 
Q 288 1009 288 1791 
Q 288 2575 706 3076 
Q 1125 3578 1766 3578 
Q 2131 3578 2409 3434 
Q 2688 3291 2919 2981 
L 2919 3500 
L 4044 3500 
L 4044 353 
Q 4044 -491 3511 -936 
Q 2978 -1381 1966 -1381 
Q 1638 -1381 1331 -1331 
Q 1025 -1281 716 -1178 
L 716 -306 
Q 1009 -475 1290 -558 
Q 1572 -641 1856 -641 
Q 2406 -641 2662 -400 
Q 2919 -159 2919 353 
L 2919 594 
z
M 2181 2772 
Q 1834 2772 1640 2515 
Q 1447 2259 1447 1791 
Q 1447 1309 1634 1061 
Q 1822 813 2181 813 
Q 2531 813 2725 1069 
Q 2919 1325 2919 1791 
Q 2919 2259 2725 2515 
Q 2531 2772 2181 2772 
z
" transform="scale(0.015625)"/>
      <path id="DejaVuSans-Bold-20" transform="scale(0.015625)"/>
      <path id="DejaVuSans-Bold-26" d="M 2497 3097 
L 3775 1691 
Q 3941 1909 4027 2181 
Q 4113 2453 4128 2797 
L 5100 2797 
Q 5053 2228 4879 1784 
Q 4706 1341 4397 1006 
L 5313 0 
L 3988 0 
L 3681 341 
Q 3353 122 2990 15 
Q 2628 -91 2222 -91 
Q 1400 -91 892 342 
Q 384 775 384 1459 
Q 384 1916 607 2267 
Q 831 2619 1338 2950 
Q 1206 3116 1143 3281 
Q 1081 3447 1081 3628 
Q 1081 4138 1478 4444 
Q 1875 4750 2534 4750 
Q 2819 4750 3126 4704 
Q 3434 4659 3769 4569 
L 3769 3700 
Q 3475 3850 3212 3922 
Q 2950 3994 2700 3994 
Q 2459 3994 2326 3901 
Q 2194 3809 2194 3641 
Q 2194 3534 2270 3398 
Q 2347 3263 2497 3097 
z
M 1875 2322 
Q 1672 2175 1569 1989 
Q 1466 1803 1466 1581 
Q 1466 1222 1731 969 
Q 1997 716 2369 716 
Q 2578 716 2759 780 
Q 2941 844 3097 972 
L 1875 2322 
z
" transform="scale(0.015625)"/>
      <path id="DejaVuSans-Bold-48" d="M 588 4666 
L 1791 4666 
L 1791 2888 
L 3566 2888 
L 3566 4666 
L 4769 4666 
L 4769 0 
L 3566 0 
L 3566 1978 
L 1791 1978 
L 1791 0 
L 588 0 
L 588 4666 
z
" transform="scale(0.015625)"/>
      <path id="DejaVuSans-Bold-61" d="M 2106 1575 
Q 1756 1575 1579 1456 
Q 1403 1338 1403 1106 
Q 1403 894 1545 773 
Q 1688 653 1941 653 
Q 2256 653 2472 879 
Q 2688 1106 2688 1447 
L 2688 1575 
L 2106 1575 
z
M 3816 1997 
L 3816 0 
L 2688 0 
L 2688 519 
Q 2463 200 2181 54 
Q 1900 -91 1497 -91 
Q 953 -91 614 226 
Q 275 544 275 1050 
Q 275 1666 698 1953 
Q 1122 2241 2028 2241 
L 2688 2241 
L 2688 2328 
Q 2688 2594 2478 2717 
Q 2269 2841 1825 2841 
Q 1466 2841 1156 2769 
Q 847 2697 581 2553 
L 581 3406 
Q 941 3494 1303 3539 
Q 1666 3584 2028 3584 
Q 2975 3584 3395 3211 
Q 3816 2838 3816 1997 
z
" transform="scale(0.015625)"/>
      <path id="DejaVuSans-Bold-76" d="M 97 3500 
L 1216 3500 
L 2088 1081 
L 2956 3500 
L 4078 3500 
L 2700 0 
L 1472 0 
L 97 3500 
z
" transform="scale(0.015625)"/>
     </defs>
     <use xlink:href="#DejaVuSans-Bold-44"/>
     <use xlink:href="#DejaVuSans-Bold-6f" transform="translate(83.007812 0)"/>
     <use xlink:href="#DejaVuSans-Bold-75" transform="translate(151.708984 0)"/>
     <use xlink:href="#DejaVuSans-Bold-62" transform="translate(222.900391 0)"/>
     <use xlink:href="#DejaVuSans-Bold-6c" transform="translate(294.482422 0)"/>
     <use xlink:href="#DejaVuSans-Bold-69" transform="translate(328.759766 0)"/>
     <use xlink:href="#DejaVuSans-Bold-6e" transform="translate(363.037109 0)"/>
     <use xlink:href="#DejaVuSans-Bold-67" transform="translate(434.228516 0)"/>
     <use xlink:href="#DejaVuSans-Bold-20" transform="translate(505.810547 0)"/>
     <use xlink:href="#DejaVuSans-Bold-26" transform="translate(540.625 0)"/>
     <use xlink:href="#DejaVuSans-Bold-20" transform="translate(627.832031 0)"/>
     <use xlink:href="#DejaVuSans-Bold-48" transform="translate(662.646484 0)"/>
     <use xlink:href="#DejaVuSans-Bold-61" transform="translate(746.337891 0)"/>
     <use xlink:href="#DejaVuSans-Bold-6c" transform="translate(813.818359 0)"/>
     <use xlink:href="#DejaVuSans-Bold-76" transform="translate(848.095703 0)"/>
     <use xlink:href="#DejaVuSans-Bold-69" transform="translate(913.28125 0)"/>
     <use xlink:href="#DejaVuSans-Bold-6e" transform="translate(947.558594 0)"/>
     <use xlink:href="#DejaVuSans-Bold-67" transform="translate(1018.75 0)"/>
    </g>
   </g>
   <g id="text_2">
    <!-- Double one, halve the other (New Zealand) -->
    <g style="fill: #6e7781" transform="translate(189.170859 69.807033) scale(0.11 -0.11)">
     <defs>
      <path id="DejaVuSans-Oblique-44" d="M 1081 4666 
L 2438 4666 
Q 3519 4666 4070 4208 
Q 4622 3750 4622 2847 
Q 4622 2250 4412 1698 
Q 4203 1147 3834 769 
Q 3463 381 2891 190 
Q 2319 0 1538 0 
L 172 0 
L 1081 4666 
z
M 1613 4147 
L 909 519 
L 1734 519 
Q 2794 519 3375 1128 
Q 3956 1738 3956 2847 
Q 3956 3519 3581 3833 
Q 3206 4147 2406 4147 
L 1613 4147 
z
" transform="scale(0.015625)"/>
      <path id="DejaVuSans-Oblique-6f" d="M 1625 -91 
Q 1009 -91 651 289 
Q 294 669 294 1325 
Q 294 1706 417 2101 
Q 541 2497 738 2766 
Q 1047 3184 1428 3384 
Q 1809 3584 2291 3584 
Q 2888 3584 3255 3212 
Q 3622 2841 3622 2241 
Q 3622 1825 3500 1412 
Q 3378 1000 3181 728 
Q 2875 309 2494 109 
Q 2113 -91 1625 -91 
z
M 891 1344 
Q 891 869 1089 633 
Q 1288 397 1691 397 
Q 2269 397 2648 901 
Q 3028 1406 3028 2181 
Q 3028 2634 2825 2865 
Q 2622 3097 2228 3097 
Q 1903 3097 1650 2945 
Q 1397 2794 1197 2484 
Q 1050 2253 970 1956 
Q 891 1659 891 1344 
z
" transform="scale(0.015625)"/>
      <path id="DejaVuSans-Oblique-75" d="M 428 1388 
L 838 3500 
L 1416 3500 
L 1006 1409 
Q 975 1256 961 1147 
Q 947 1038 947 966 
Q 947 700 1109 554 
Q 1272 409 1569 409 
Q 2031 409 2368 721 
Q 2706 1034 2809 1563 
L 3194 3500 
L 3769 3500 
L 3091 0 
L 2516 0 
L 2631 550 
Q 2388 244 2052 76 
Q 1716 -91 1338 -91 
Q 878 -91 622 161 
Q 366 413 366 863 
Q 366 956 381 1097 
Q 397 1238 428 1388 
z
" transform="scale(0.015625)"/>
      <path id="DejaVuSans-Oblique-62" d="M 3169 2138 
Q 3169 2591 2961 2847 
Q 2753 3103 2388 3103 
Q 2122 3103 1889 2973 
Q 1656 2844 1484 2597 
Q 1303 2338 1198 1995 
Q 1094 1653 1094 1313 
Q 1094 881 1298 636 
Q 1503 391 1863 391 
Q 2134 391 2365 517 
Q 2597 644 2772 891 
Q 2950 1147 3059 1487 
Q 3169 1828 3169 2138 
z
M 1381 2969 
Q 1594 3256 1914 3420 
Q 2234 3584 2584 3584 
Q 3122 3584 3439 3221 
Q 3756 2859 3756 2241 
Q 3756 1734 3570 1259 
Q 3384 784 3041 416 
Q 2816 172 2522 40 
Q 2228 -91 1906 -91 
Q 1566 -91 1316 65 
Q 1066 222 909 531 
L 806 0 
L 231 0 
L 1178 4863 
L 1753 4863 
L 1381 2969 
z
" transform="scale(0.015625)"/>
      <path id="DejaVuSans-Oblique-6c" d="M 1172 4863 
L 1747 4863 
L 800 0 
L 225 0 
L 1172 4863 
z
" transform="scale(0.015625)"/>
      <path id="DejaVuSans-Oblique-65" d="M 3078 2063 
Q 3088 2113 3092 2166 
Q 3097 2219 3097 2272 
Q 3097 2653 2873 2875 
Q 2650 3097 2266 3097 
Q 1838 3097 1509 2826 
Q 1181 2556 1013 2059 
L 3078 2063 
z
M 3578 1613 
L 903 1613 
Q 884 1494 878 1425 
Q 872 1356 872 1306 
Q 872 872 1139 634 
Q 1406 397 1894 397 
Q 2269 397 2603 481 
Q 2938 566 3225 728 
L 3116 159 
Q 2806 34 2476 -28 
Q 2147 -91 1806 -91 
Q 1078 -91 686 257 
Q 294 606 294 1247 
Q 294 1794 489 2264 
Q 684 2734 1063 3103 
Q 1306 3334 1642 3459 
Q 1978 3584 2356 3584 
Q 2950 3584 3301 3228 
Q 3653 2872 3653 2272 
Q 3653 2128 3634 1964 
Q 3616 1800 3578 1613 
z
" transform="scale(0.015625)"/>
      <path id="DejaVuSans-Oblique-20" transform="scale(0.015625)"/>
      <path id="DejaVuSans-Oblique-6e" d="M 3566 2113 
L 3156 0 
L 2578 0 
L 2988 2091 
Q 3016 2238 3031 2350 
Q 3047 2463 3047 2528 
Q 3047 2791 2881 2937 
Q 2716 3084 2419 3084 
Q 1956 3084 1622 2776 
Q 1288 2469 1184 1941 
L 800 0 
L 225 0 
L 903 3500 
L 1478 3500 
L 1363 2950 
Q 1603 3253 1940 3418 
Q 2278 3584 2650 3584 
Q 3113 3584 3367 3334 
Q 3622 3084 3622 2631 
Q 3622 2519 3608 2391 
Q 3594 2263 3566 2113 
z
" transform="scale(0.015625)"/>
      <path id="DejaVuSans-Oblique-2c" d="M 575 794 
L 1234 794 
L 1131 256 
L 422 -744 
L 19 -744 
L 469 256 
L 575 794 
z
" transform="scale(0.015625)"/>
      <path id="DejaVuSans-Oblique-68" d="M 3566 2113 
L 3156 0 
L 2578 0 
L 2988 2091 
Q 3016 2238 3031 2350 
Q 3047 2463 3047 2528 
Q 3047 2791 2881 2937 
Q 2716 3084 2419 3084 
Q 1956 3084 1617 2771 
Q 1278 2459 1178 1941 
L 800 0 
L 225 0 
L 1172 4863 
L 1747 4863 
L 1375 2950 
Q 1594 3244 1934 3414 
Q 2275 3584 2650 3584 
Q 3113 3584 3367 3334 
Q 3622 3084 3622 2631 
Q 3622 2519 3608 2391 
Q 3594 2263 3566 2113 
z
" transform="scale(0.015625)"/>
      <path id="DejaVuSans-Oblique-61" d="M 3438 1997 
L 3047 0 
L 2472 0 
L 2578 531 
Q 2325 219 2001 64 
Q 1678 -91 1281 -91 
Q 834 -91 548 182 
Q 263 456 263 884 
Q 263 1497 752 1853 
Q 1241 2209 2100 2209 
L 2900 2209 
L 2931 2363 
Q 2938 2388 2941 2417 
Q 2944 2447 2944 2509 
Q 2944 2788 2717 2942 
Q 2491 3097 2081 3097 
Q 1800 3097 1504 3025 
Q 1209 2953 897 2809 
L 997 3341 
Q 1322 3463 1633 3523 
Q 1944 3584 2234 3584 
Q 2853 3584 3176 3315 
Q 3500 3047 3500 2534 
Q 3500 2431 3484 2292 
Q 3469 2153 3438 1997 
z
M 2816 1759 
L 2241 1759 
Q 1534 1759 1195 1570 
Q 856 1381 856 984 
Q 856 709 1029 553 
Q 1203 397 1509 397 
Q 1978 397 2328 733 
Q 2678 1069 2791 1631 
L 2816 1759 
z
" transform="scale(0.015625)"/>
      <path id="DejaVuSans-Oblique-76" d="M 459 3500 
L 1069 3500 
L 1581 525 
L 3256 3500 
L 3866 3500 
L 1875 0 
L 1100 0 
L 459 3500 
z
" transform="scale(0.015625)"/>
      <path id="DejaVuSans-Oblique-74" d="M 2706 3500 
L 2619 3053 
L 1472 3053 
L 1100 1153 
Q 1081 1047 1072 975 
Q 1063 903 1063 863 
Q 1063 663 1183 572 
Q 1303 481 1569 481 
L 2150 481 
L 2053 0 
L 1503 0 
Q 991 0 739 200 
Q 488 400 488 806 
Q 488 878 497 964 
Q 506 1050 525 1153 
L 897 3053 
L 409 3053 
L 500 3500 
L 978 3500 
L 1172 4494 
L 1747 4494 
L 1556 3500 
L 2706 3500 
z
" transform="scale(0.015625)"/>
      <path id="DejaVuSans-Oblique-72" d="M 2853 2969 
Q 2766 3016 2653 3041 
Q 2541 3066 2413 3066 
Q 1953 3066 1609 2717 
Q 1266 2369 1153 1784 
L 800 0 
L 225 0 
L 909 3500 
L 1484 3500 
L 1375 2956 
Q 1603 3259 1920 3421 
Q 2238 3584 2597 3584 
Q 2691 3584 2781 3573 
Q 2872 3563 2963 3538 
L 2853 2969 
z
" transform="scale(0.015625)"/>
      <path id="DejaVuSans-Oblique-28" d="M 2731 4856 
Q 1903 3822 1495 2892 
Q 1088 1963 1088 1100 
Q 1088 606 1206 120 
Q 1325 -366 1563 -844 
L 1063 -844 
Q 775 -306 634 201 
Q 494 709 494 1197 
Q 494 2125 923 3036 
Q 1353 3947 2222 4856 
L 2731 4856 
z
" transform="scale(0.015625)"/>
      <path id="DejaVuSans-Oblique-4e" d="M 1081 4666 
L 1931 4666 
L 3219 666 
L 4000 4666 
L 4616 4666 
L 3706 0 
L 2853 0 
L 1569 4025 
L 788 0 
L 172 0 
L 1081 4666 
z
" transform="scale(0.015625)"/>
      <path id="DejaVuSans-Oblique-77" d="M 544 3500 
L 1113 3500 
L 1259 684 
L 2566 3500 
L 3231 3500 
L 3425 684 
L 4666 3500 
L 5241 3500 
L 3641 0 
L 2969 0 
L 2797 2900 
L 1459 0 
L 781 0 
L 544 3500 
z
" transform="scale(0.015625)"/>
      <path id="DejaVuSans-Oblique-5a" d="M 838 4666 
L 4500 4666 
L 4409 4184 
L 794 531 
L 3769 531 
L 3669 0 
L -141 0 
L -50 481 
L 3566 4134 
L 738 4134 
L 838 4666 
z
" transform="scale(0.015625)"/>
      <path id="DejaVuSans-Oblique-64" d="M 2675 525 
Q 2444 222 2128 65 
Q 1813 -91 1428 -91 
Q 903 -91 598 267 
Q 294 625 294 1247 
Q 294 1766 478 2236 
Q 663 2706 1013 3078 
Q 1244 3325 1534 3454 
Q 1825 3584 2144 3584 
Q 2481 3584 2739 3421 
Q 2997 3259 3138 2956 
L 3513 4863 
L 4091 4863 
L 3144 0 
L 2566 0 
L 2675 525 
z
M 891 1350 
Q 891 897 1095 644 
Q 1300 391 1663 391 
Q 1931 391 2161 520 
Q 2391 650 2566 903 
Q 2750 1166 2856 1509 
Q 2963 1853 2963 2188 
Q 2963 2622 2758 2865 
Q 2553 3109 2194 3109 
Q 1922 3109 1687 2981 
Q 1453 2853 1288 2613 
Q 1106 2353 998 2009 
Q 891 1666 891 1350 
z
" transform="scale(0.015625)"/>
      <path id="DejaVuSans-Oblique-29" d="M -397 -844 
Q 434 191 840 1120 
Q 1247 2050 1247 2913 
Q 1247 3406 1130 3892 
Q 1013 4378 775 4856 
L 1275 4856 
Q 1563 4316 1703 3812 
Q 1844 3309 1844 2822 
Q 1844 1891 1411 973 
Q 978 56 116 -844 
L -397 -844 
z
" transform="scale(0.015625)"/>
     </defs>
     <use xlink:href="#DejaVuSans-Oblique-44"/>
     <use xlink:href="#DejaVuSans-Oblique-6f" transform="translate(77.001953 0)"/>
     <use xlink:href="#DejaVuSans-Oblique-75" transform="translate(138.183594 0)"/>
     <use xlink:href="#DejaVuSans-Oblique-62" transform="translate(201.5625 0)"/>
     <use xlink:href="#DejaVuSans-Oblique-6c" transform="translate(265.039062 0)"/>
     <use xlink:href="#DejaVuSans-Oblique-65" transform="translate(292.822266 0)"/>
     <use xlink:href="#DejaVuSans-Oblique-20" transform="translate(354.345703 0)"/>
     <use xlink:href="#DejaVuSans-Oblique-6f" transform="translate(386.132812 0)"/>
     <use xlink:href="#DejaVuSans-Oblique-6e" transform="translate(447.314453 0)"/>
     <use xlink:href="#DejaVuSans-Oblique-65" transform="translate(510.693359 0)"/>
     <use xlink:href="#DejaVuSans-Oblique-2c" transform="translate(572.216797 0)"/>
     <use xlink:href="#DejaVuSans-Oblique-20" transform="translate(604.003906 0)"/>
     <use xlink:href="#DejaVuSans-Oblique-68" transform="translate(635.791016 0)"/>
     <use xlink:href="#DejaVuSans-Oblique-61" transform="translate(699.169922 0)"/>
     <use xlink:href="#DejaVuSans-Oblique-6c" transform="translate(760.449219 0)"/>
     <use xlink:href="#DejaVuSans-Oblique-76" transform="translate(788.232422 0)"/>
     <use xlink:href="#DejaVuSans-Oblique-65" transform="translate(847.412109 0)"/>
     <use xlink:href="#DejaVuSans-Oblique-20" transform="translate(908.935547 0)"/>
     <use xlink:href="#DejaVuSans-Oblique-74" transform="translate(940.722656 0)"/>
     <use xlink:href="#DejaVuSans-Oblique-68" transform="translate(979.931641 0)"/>
     <use xlink:href="#DejaVuSans-Oblique-65" transform="translate(1043.310547 0)"/>
     <use xlink:href="#DejaVuSans-Oblique-20" transform="translate(1104.833984 0)"/>
     <use xlink:href="#DejaVuSans-Oblique-6f" transform="translate(1136.621094 0)"/>
     <use xlink:href="#DejaVuSans-Oblique-74" transform="translate(1197.802734 0)"/>
     <use xlink:href="#DejaVuSans-Oblique-68" transform="translate(1237.011719 0)"/>
     <use xlink:href="#DejaVuSans-Oblique-65" transform="translate(1300.390625 0)"/>
     <use xlink:href="#DejaVuSans-Oblique-72" transform="translate(1361.914062 0)"/>
     <use xlink:href="#DejaVuSans-Oblique-20" transform="translate(1403.027344 0)"/>
     <use xlink:href="#DejaVuSans-Oblique-28" transform="translate(1434.814453 0)"/>
     <use xlink:href="#DejaVuSans-Oblique-4e" transform="translate(1473.828125 0)"/>
     <use xlink:href="#DejaVuSans-Oblique-65" transform="translate(1548.632812 0)"/>
     <use xlink:href="#DejaVuSans-Oblique-77" transform="translate(1610.15625 0)"/>
     <use xlink:href="#DejaVuSans-Oblique-20" transform="translate(1691.943359 0)"/>
     <use xlink:href="#DejaVuSans-Oblique-5a" transform="translate(1723.730469 0)"/>
     <use xlink:href="#DejaVuSans-Oblique-65" transform="translate(1792.236328 0)"/>
     <use xlink:href="#DejaVuSans-Oblique-61" transform="translate(1853.759766 0)"/>
     <use xlink:href="#DejaVuSans-Oblique-6c" transform="translate(1915.039062 0)"/>
     <use xlink:href="#DejaVuSans-Oblique-61" transform="translate(1942.822266 0)"/>
     <use xlink:href="#DejaVuSans-Oblique-6e" transform="translate(2004.101562 0)"/>
     <use xlink:href="#DejaVuSans-Oblique-64" transform="translate(2067.480469 0)"/>
     <use xlink:href="#DejaVuSans-Oblique-29" transform="translate(2130.957031 0)"/>
    </g>
   </g>
  </g>
  <g id="axes_2">
   <g id="patch_2">
    <path d="M 98.92512 302.941517 
L 334.71936 302.941517 
L 334.71936 282.696307 
L 98.92512 282.696307 
z
" clip-path="url(#p823aa83f97)" style="fill: #0b3d91; opacity: 0.88; stroke: #1c1c1c; stroke-width: 1.5; stroke-linejoin: miter"/>
   </g>
   <g id="patch_3">
    <path d="M 98.92512 460.30201 
L 216.82224 460.30201 
L 216.82224 419.81159 
L 98.92512 419.81159 
z
" clip-path="url(#p823aa83f97)" style="fill: #1b6d3b; opacity: 0.88; stroke: #1c1c1c; stroke-width: 1.5; stroke-linejoin: miter"/>
   </g>
   <g id="patch_4">
    <path d="M 98.92512 627.785107 
L 157.87368 627.785107 
L 157.87368 546.804269 
L 98.92512 546.804269 
z
" clip-path="url(#p823aa83f97)" style="fill: #d6336c; opacity: 0.88; stroke: #1c1c1c; stroke-width: 1.5; stroke-linejoin: miter"/>
   </g>
   <g id="text_3">
    <g id="patch_5">
     <path d="M 82.610586 169.631265 
L 534.429414 169.631265 
Q 540.179414 169.631265 540.179414 163.881265 
L 540.179414 136.378656 
Q 540.179414 130.628656 534.429414 130.628656 
L 82.610586 130.628656 
Q 76.860586 130.628656 76.860586 136.378656 
L 76.860586 163.881265 
Q 76.860586 169.631265 82.610586 169.631265 
z
" style="fill: #fffbe6; stroke: #f0a500; stroke-width: 1.5; stroke-linejoin: miter"/>
    </g>
    <!-- If you DOUBLE one factor and HALVE the other, the product does NOT change. -->
    <g style="fill: #1d1d1f" transform="translate(82.610586 145.116859) scale(0.115 -0.115)">
     <defs>
      <path id="DejaVuSans-49" d="M 628 4666 
L 1259 4666 
L 1259 0 
L 628 0 
L 628 4666 
z
" transform="scale(0.015625)"/>
      <path id="DejaVuSans-66" d="M 2375 4863 
L 2375 4384 
L 1825 4384 
Q 1516 4384 1395 4259 
Q 1275 4134 1275 3809 
L 1275 3500 
L 2222 3500 
L 2222 3053 
L 1275 3053 
L 1275 0 
L 697 0 
L 697 3053 
L 147 3053 
L 147 3500 
L 697 3500 
L 697 3744 
Q 697 4328 969 4595 
Q 1241 4863 1831 4863 
L 2375 4863 
z
" transform="scale(0.015625)"/>
      <path id="DejaVuSans-20" transform="scale(0.015625)"/>
      <path id="DejaVuSans-79" d="M 2059 -325 
Q 1816 -950 1584 -1140 
Q 1353 -1331 966 -1331 
L 506 -1331 
L 506 -850 
L 844 -850 
Q 1081 -850 1212 -737 
Q 1344 -625 1503 -206 
L 1606 56 
L 191 3500 
L 800 3500 
L 1894 763 
L 2988 3500 
L 3597 3500 
L 2059 -325 
z
" transform="scale(0.015625)"/>
      <path id="DejaVuSans-6f" d="M 1959 3097 
Q 1497 3097 1228 2736 
Q 959 2375 959 1747 
Q 959 1119 1226 758 
Q 1494 397 1959 397 
Q 2419 397 2687 759 
Q 2956 1122 2956 1747 
Q 2956 2369 2687 2733 
Q 2419 3097 1959 3097 
z
M 1959 3584 
Q 2709 3584 3137 3096 
Q 3566 2609 3566 1747 
Q 3566 888 3137 398 
Q 2709 -91 1959 -91 
Q 1206 -91 779 398 
Q 353 888 353 1747 
Q 353 2609 779 3096 
Q 1206 3584 1959 3584 
z
" transform="scale(0.015625)"/>
      <path id="DejaVuSans-75" d="M 544 1381 
L 544 3500 
L 1119 3500 
L 1119 1403 
Q 1119 906 1312 657 
Q 1506 409 1894 409 
Q 2359 409 2629 706 
Q 2900 1003 2900 1516 
L 2900 3500 
L 3475 3500 
L 3475 0 
L 2900 0 
L 2900 538 
Q 2691 219 2414 64 
Q 2138 -91 1772 -91 
Q 1169 -91 856 284 
Q 544 659 544 1381 
z
M 1991 3584 
L 1991 3584 
z
" transform="scale(0.015625)"/>
      <path id="DejaVuSans-44" d="M 1259 4147 
L 1259 519 
L 2022 519 
Q 2988 519 3436 956 
Q 3884 1394 3884 2338 
Q 3884 3275 3436 3711 
Q 2988 4147 2022 4147 
L 1259 4147 
z
M 628 4666 
L 1925 4666 
Q 3281 4666 3915 4102 
Q 4550 3538 4550 2338 
Q 4550 1131 3912 565 
Q 3275 0 1925 0 
L 628 0 
L 628 4666 
z
" transform="scale(0.015625)"/>
      <path id="DejaVuSans-4f" d="M 2522 4238 
Q 1834 4238 1429 3725 
Q 1025 3213 1025 2328 
Q 1025 1447 1429 934 
Q 1834 422 2522 422 
Q 3209 422 3611 934 
Q 4013 1447 4013 2328 
Q 4013 3213 3611 3725 
Q 3209 4238 2522 4238 
z
M 2522 4750 
Q 3503 4750 4090 4092 
Q 4678 3434 4678 2328 
Q 4678 1225 4090 567 
Q 3503 -91 2522 -91 
Q 1538 -91 948 565 
Q 359 1222 359 2328 
Q 359 3434 948 4092 
Q 1538 4750 2522 4750 
z
" transform="scale(0.015625)"/>
      <path id="DejaVuSans-55" d="M 556 4666 
L 1191 4666 
L 1191 1831 
Q 1191 1081 1462 751 
Q 1734 422 2344 422 
Q 2950 422 3222 751 
Q 3494 1081 3494 1831 
L 3494 4666 
L 4128 4666 
L 4128 1753 
Q 4128 841 3676 375 
Q 3225 -91 2344 -91 
Q 1459 -91 1007 375 
Q 556 841 556 1753 
L 556 4666 
z
" transform="scale(0.015625)"/>
      <path id="DejaVuSans-42" d="M 1259 2228 
L 1259 519 
L 2272 519 
Q 2781 519 3026 730 
Q 3272 941 3272 1375 
Q 3272 1813 3026 2020 
Q 2781 2228 2272 2228 
L 1259 2228 
z
M 1259 4147 
L 1259 2741 
L 2194 2741 
Q 2656 2741 2882 2914 
Q 3109 3088 3109 3444 
Q 3109 3797 2882 3972 
Q 2656 4147 2194 4147 
L 1259 4147 
z
M 628 4666 
L 2241 4666 
Q 2963 4666 3353 4366 
Q 3744 4066 3744 3513 
Q 3744 3084 3544 2831 
Q 3344 2578 2956 2516 
Q 3422 2416 3680 2098 
Q 3938 1781 3938 1306 
Q 3938 681 3513 340 
Q 3088 0 2303 0 
L 628 0 
L 628 4666 
z
" transform="scale(0.015625)"/>
      <path id="DejaVuSans-4c" d="M 628 4666 
L 1259 4666 
L 1259 531 
L 3531 531 
L 3531 0 
L 628 0 
L 628 4666 
z
" transform="scale(0.015625)"/>
      <path id="DejaVuSans-45" d="M 628 4666 
L 3578 4666 
L 3578 4134 
L 1259 4134 
L 1259 2753 
L 3481 2753 
L 3481 2222 
L 1259 2222 
L 1259 531 
L 3634 531 
L 3634 0 
L 628 0 
L 628 4666 
z
" transform="scale(0.015625)"/>
      <path id="DejaVuSans-6e" d="M 3513 2113 
L 3513 0 
L 2938 0 
L 2938 2094 
Q 2938 2591 2744 2837 
Q 2550 3084 2163 3084 
Q 1697 3084 1428 2787 
Q 1159 2491 1159 1978 
L 1159 0 
L 581 0 
L 581 3500 
L 1159 3500 
L 1159 2956 
Q 1366 3272 1645 3428 
Q 1925 3584 2291 3584 
Q 2894 3584 3203 3211 
Q 3513 2838 3513 2113 
z
" transform="scale(0.015625)"/>
      <path id="DejaVuSans-65" d="M 3597 1894 
L 3597 1613 
L 953 1613 
Q 991 1019 1311 708 
Q 1631 397 2203 397 
Q 2534 397 2845 478 
Q 3156 559 3463 722 
L 3463 178 
Q 3153 47 2828 -22 
Q 2503 -91 2169 -91 
Q 1331 -91 842 396 
Q 353 884 353 1716 
Q 353 2575 817 3079 
Q 1281 3584 2069 3584 
Q 2775 3584 3186 3129 
Q 3597 2675 3597 1894 
z
M 3022 2063 
Q 3016 2534 2758 2815 
Q 2500 3097 2075 3097 
Q 1594 3097 1305 2825 
Q 1016 2553 972 2059 
L 3022 2063 
z
" transform="scale(0.015625)"/>
      <path id="DejaVuSans-61" d="M 2194 1759 
Q 1497 1759 1228 1600 
Q 959 1441 959 1056 
Q 959 750 1161 570 
Q 1363 391 1709 391 
Q 2188 391 2477 730 
Q 2766 1069 2766 1631 
L 2766 1759 
L 2194 1759 
z
M 3341 1997 
L 3341 0 
L 2766 0 
L 2766 531 
Q 2569 213 2275 61 
Q 1981 -91 1556 -91 
Q 1019 -91 701 211 
Q 384 513 384 1019 
Q 384 1609 779 1909 
Q 1175 2209 1959 2209 
L 2766 2209 
L 2766 2266 
Q 2766 2663 2505 2880 
Q 2244 3097 1772 3097 
Q 1472 3097 1187 3025 
Q 903 2953 641 2809 
L 641 3341 
Q 956 3463 1253 3523 
Q 1550 3584 1831 3584 
Q 2591 3584 2966 3190 
Q 3341 2797 3341 1997 
z
" transform="scale(0.015625)"/>
      <path id="DejaVuSans-63" d="M 3122 3366 
L 3122 2828 
Q 2878 2963 2633 3030 
Q 2388 3097 2138 3097 
Q 1578 3097 1268 2742 
Q 959 2388 959 1747 
Q 959 1106 1268 751 
Q 1578 397 2138 397 
Q 2388 397 2633 464 
Q 2878 531 3122 666 
L 3122 134 
Q 2881 22 2623 -34 
Q 2366 -91 2075 -91 
Q 1284 -91 818 406 
Q 353 903 353 1747 
Q 353 2603 823 3093 
Q 1294 3584 2113 3584 
Q 2378 3584 2631 3529 
Q 2884 3475 3122 3366 
z
" transform="scale(0.015625)"/>
      <path id="DejaVuSans-74" d="M 1172 4494 
L 1172 3500 
L 2356 3500 
L 2356 3053 
L 1172 3053 
L 1172 1153 
Q 1172 725 1289 603 
Q 1406 481 1766 481 
L 2356 481 
L 2356 0 
L 1766 0 
Q 1100 0 847 248 
Q 594 497 594 1153 
L 594 3053 
L 172 3053 
L 172 3500 
L 594 3500 
L 594 4494 
L 1172 4494 
z
" transform="scale(0.015625)"/>
      <path id="DejaVuSans-72" d="M 2631 2963 
Q 2534 3019 2420 3045 
Q 2306 3072 2169 3072 
Q 1681 3072 1420 2755 
Q 1159 2438 1159 1844 
L 1159 0 
L 581 0 
L 581 3500 
L 1159 3500 
L 1159 2956 
Q 1341 3275 1631 3429 
Q 1922 3584 2338 3584 
Q 2397 3584 2469 3576 
Q 2541 3569 2628 3553 
L 2631 2963 
z
" transform="scale(0.015625)"/>
      <path id="DejaVuSans-64" d="M 2906 2969 
L 2906 4863 
L 3481 4863 
L 3481 0 
L 2906 0 
L 2906 525 
Q 2725 213 2448 61 
Q 2172 -91 1784 -91 
Q 1150 -91 751 415 
Q 353 922 353 1747 
Q 353 2572 751 3078 
Q 1150 3584 1784 3584 
Q 2172 3584 2448 3432 
Q 2725 3281 2906 2969 
z
M 947 1747 
Q 947 1113 1208 752 
Q 1469 391 1925 391 
Q 2381 391 2643 752 
Q 2906 1113 2906 1747 
Q 2906 2381 2643 2742 
Q 2381 3103 1925 3103 
Q 1469 3103 1208 2742 
Q 947 2381 947 1747 
z
" transform="scale(0.015625)"/>
      <path id="DejaVuSans-48" d="M 628 4666 
L 1259 4666 
L 1259 2753 
L 3553 2753 
L 3553 4666 
L 4184 4666 
L 4184 0 
L 3553 0 
L 3553 2222 
L 1259 2222 
L 1259 0 
L 628 0 
L 628 4666 
z
" transform="scale(0.015625)"/>
      <path id="DejaVuSans-41" d="M 2188 4044 
L 1331 1722 
L 3047 1722 
L 2188 4044 
z
M 1831 4666 
L 2547 4666 
L 4325 0 
L 3669 0 
L 3244 1197 
L 1141 1197 
L 716 0 
L 50 0 
L 1831 4666 
z
" transform="scale(0.015625)"/>
      <path id="DejaVuSans-56" d="M 1831 0 
L 50 4666 
L 709 4666 
L 2188 738 
L 3669 4666 
L 4325 4666 
L 2547 0 
L 1831 0 
z
" transform="scale(0.015625)"/>
      <path id="DejaVuSans-68" d="M 3513 2113 
L 3513 0 
L 2938 0 
L 2938 2094 
Q 2938 2591 2744 2837 
Q 2550 3084 2163 3084 
Q 1697 3084 1428 2787 
Q 1159 2491 1159 1978 
L 1159 0 
L 581 0 
L 581 4863 
L 1159 4863 
L 1159 2956 
Q 1366 3272 1645 3428 
Q 1925 3584 2291 3584 
Q 2894 3584 3203 3211 
Q 3513 2838 3513 2113 
z
" transform="scale(0.015625)"/>
      <path id="DejaVuSans-2c" d="M 750 794 
L 1409 794 
L 1409 256 
L 897 -744 
L 494 -744 
L 750 256 
L 750 794 
z
" transform="scale(0.015625)"/>
      <path id="DejaVuSans-70" d="M 1159 525 
L 1159 -1331 
L 581 -1331 
L 581 3500 
L 1159 3500 
L 1159 2969 
Q 1341 3281 1617 3432 
Q 1894 3584 2278 3584 
Q 2916 3584 3314 3078 
Q 3713 2572 3713 1747 
Q 3713 922 3314 415 
Q 2916 -91 2278 -91 
Q 1894 -91 1617 61 
Q 1341 213 1159 525 
z
M 3116 1747 
Q 3116 2381 2855 2742 
Q 2594 3103 2138 3103 
Q 1681 3103 1420 2742 
Q 1159 2381 1159 1747 
Q 1159 1113 1420 752 
Q 1681 391 2138 391 
Q 2594 391 2855 752 
Q 3116 1113 3116 1747 
z
" transform="scale(0.015625)"/>
      <path id="DejaVuSans-73" d="M 2834 3397 
L 2834 2853 
Q 2591 2978 2328 3040 
Q 2066 3103 1784 3103 
Q 1356 3103 1142 2972 
Q 928 2841 928 2578 
Q 928 2378 1081 2264 
Q 1234 2150 1697 2047 
L 1894 2003 
Q 2506 1872 2764 1633 
Q 3022 1394 3022 966 
Q 3022 478 2636 193 
Q 2250 -91 1575 -91 
Q 1294 -91 989 -36 
Q 684 19 347 128 
L 347 722 
Q 666 556 975 473 
Q 1284 391 1588 391 
Q 1994 391 2212 530 
Q 2431 669 2431 922 
Q 2431 1156 2273 1281 
Q 2116 1406 1581 1522 
L 1381 1569 
Q 847 1681 609 1914 
Q 372 2147 372 2553 
Q 372 3047 722 3315 
Q 1072 3584 1716 3584 
Q 2034 3584 2315 3537 
Q 2597 3491 2834 3397 
z
" transform="scale(0.015625)"/>
      <path id="DejaVuSans-4e" d="M 628 4666 
L 1478 4666 
L 3547 763 
L 3547 4666 
L 4159 4666 
L 4159 0 
L 3309 0 
L 1241 3903 
L 1241 0 
L 628 0 
L 628 4666 
z
" transform="scale(0.015625)"/>
      <path id="DejaVuSans-54" d="M -19 4666 
L 3928 4666 
L 3928 4134 
L 2272 4134 
L 2272 0 
L 1638 0 
L 1638 4134 
L -19 4134 
L -19 4666 
z
" transform="scale(0.015625)"/>
      <path id="DejaVuSans-67" d="M 2906 1791 
Q 2906 2416 2648 2759 
Q 2391 3103 1925 3103 
Q 1463 3103 1205 2759 
Q 947 2416 947 1791 
Q 947 1169 1205 825 
Q 1463 481 1925 481 
Q 2391 481 2648 825 
Q 2906 1169 2906 1791 
z
M 3481 434 
Q 3481 -459 3084 -895 
Q 2688 -1331 1869 -1331 
Q 1566 -1331 1297 -1286 
Q 1028 -1241 775 -1147 
L 775 -588 
Q 1028 -725 1275 -790 
Q 1522 -856 1778 -856 
Q 2344 -856 2625 -561 
Q 2906 -266 2906 331 
L 2906 616 
Q 2728 306 2450 153 
Q 2172 0 1784 0 
Q 1141 0 747 490 
Q 353 981 353 1791 
Q 353 2603 747 3093 
Q 1141 3584 1784 3584 
Q 2172 3584 2450 3431 
Q 2728 3278 2906 2969 
L 2906 3500 
L 3481 3500 
L 3481 434 
z
" transform="scale(0.015625)"/>
      <path id="DejaVuSans-2e" d="M 684 794 
L 1344 794 
L 1344 0 
L 684 0 
L 684 794 
z
" transform="scale(0.015625)"/>
     </defs>
     <use xlink:href="#DejaVuSans-49"/>
     <use xlink:href="#DejaVuSans-66" transform="translate(29.492188 0)"/>
     <use xlink:href="#DejaVuSans-20" transform="translate(64.697266 0)"/>
     <use xlink:href="#DejaVuSans-79" transform="translate(96.484375 0)"/>
     <use xlink:href="#DejaVuSans-6f" transform="translate(155.664062 0)"/>
     <use xlink:href="#DejaVuSans-75" transform="translate(216.845703 0)"/>
     <use xlink:href="#DejaVuSans-20" transform="translate(280.224609 0)"/>
     <use xlink:href="#DejaVuSans-44" transform="translate(312.011719 0)"/>
     <use xlink:href="#DejaVuSans-4f" transform="translate(389.013672 0)"/>
     <use xlink:href="#DejaVuSans-55" transform="translate(467.724609 0)"/>
     <use xlink:href="#DejaVuSans-42" transform="translate(540.917969 0)"/>
     <use xlink:href="#DejaVuSans-4c" transform="translate(609.521484 0)"/>
     <use xlink:href="#DejaVuSans-45" transform="translate(665.234375 0)"/>
     <use xlink:href="#DejaVuSans-20" transform="translate(728.417969 0)"/>
     <use xlink:href="#DejaVuSans-6f" transform="translate(760.205078 0)"/>
     <use xlink:href="#DejaVuSans-6e" transform="translate(821.386719 0)"/>
     <use xlink:href="#DejaVuSans-65" transform="translate(884.765625 0)"/>
     <use xlink:href="#DejaVuSans-20" transform="translate(946.289062 0)"/>
     <use xlink:href="#DejaVuSans-66" transform="translate(978.076172 0)"/>
     <use xlink:href="#DejaVuSans-61" transform="translate(1013.28125 0)"/>
     <use xlink:href="#DejaVuSans-63" transform="translate(1074.560547 0)"/>
     <use xlink:href="#DejaVuSans-74" transform="translate(1129.541016 0)"/>
     <use xlink:href="#DejaVuSans-6f" transform="translate(1168.75 0)"/>
     <use xlink:href="#DejaVuSans-72" transform="translate(1229.931641 0)"/>
     <use xlink:href="#DejaVuSans-20" transform="translate(1271.044922 0)"/>
     <use xlink:href="#DejaVuSans-61" transform="translate(1302.832031 0)"/>
     <use xlink:href="#DejaVuSans-6e" transform="translate(1364.111328 0)"/>
     <use xlink:href="#DejaVuSans-64" transform="translate(1427.490234 0)"/>
     <use xlink:href="#DejaVuSans-20" transform="translate(1490.966797 0)"/>
     <use xlink:href="#DejaVuSans-48" transform="translate(1522.753906 0)"/>
     <use xlink:href="#DejaVuSans-41" transform="translate(1597.949219 0)"/>
     <use xlink:href="#DejaVuSans-4c" transform="translate(1666.357422 0)"/>
     <use xlink:href="#DejaVuSans-56" transform="translate(1711.070312 0)"/>
     <use xlink:href="#DejaVuSans-45" transform="translate(1779.478516 0)"/>
     <use xlink:href="#DejaVuSans-20" transform="translate(1842.662109 0)"/>
     <use xlink:href="#DejaVuSans-74" transform="translate(1874.449219 0)"/>
     <use xlink:href="#DejaVuSans-68" transform="translate(1913.658203 0)"/>
     <use xlink:href="#DejaVuSans-65" transform="translate(1977.037109 0)"/>
     <use xlink:href="#DejaVuSans-20" transform="translate(2038.560547 0)"/>
     <use xlink:href="#DejaVuSans-6f" transform="translate(2070.347656 0)"/>
     <use xlink:href="#DejaVuSans-74" transform="translate(2131.529297 0)"/>
     <use xlink:href="#DejaVuSans-68" transform="translate(2170.738281 0)"/>
     <use xlink:href="#DejaVuSans-65" transform="translate(2234.117188 0)"/>
     <use xlink:href="#DejaVuSans-72" transform="translate(2295.640625 0)"/>
     <use xlink:href="#DejaVuSans-2c" transform="translate(2336.753906 0)"/>
     <use xlink:href="#DejaVuSans-20" transform="translate(2368.541016 0)"/>
     <use xlink:href="#DejaVuSans-74" transform="translate(2400.328125 0)"/>
     <use xlink:href="#DejaVuSans-68" transform="translate(2439.537109 0)"/>
     <use xlink:href="#DejaVuSans-65" transform="translate(2502.916016 0)"/>
     <use xlink:href="#DejaVuSans-20" transform="translate(2564.439453 0)"/>
     <use xlink:href="#DejaVuSans-70" transform="translate(2596.226562 0)"/>
     <use xlink:href="#DejaVuSans-72" transform="translate(2659.703125 0)"/>
     <use xlink:href="#DejaVuSans-6f" transform="translate(2698.566406 0)"/>
     <use xlink:href="#DejaVuSans-64" transform="translate(2759.748047 0)"/>
     <use xlink:href="#DejaVuSans-75" transform="translate(2823.224609 0)"/>
     <use xlink:href="#DejaVuSans-63" transform="translate(2886.603516 0)"/>
     <use xlink:href="#DejaVuSans-74" transform="translate(2941.583984 0)"/>
     <use xlink:href="#DejaVuSans-20" transform="translate(2980.792969 0)"/>
     <use xlink:href="#DejaVuSans-64" transform="translate(3012.580078 0)"/>
     <use xlink:href="#DejaVuSans-6f" transform="translate(3076.056641 0)"/>
     <use xlink:href="#DejaVuSans-65" transform="translate(3137.238281 0)"/>
     <use xlink:href="#DejaVuSans-73" transform="translate(3198.761719 0)"/>
     <use xlink:href="#DejaVuSans-20" transform="translate(3250.861328 0)"/>
     <use xlink:href="#DejaVuSans-4e" transform="translate(3282.648438 0)"/>
     <use xlink:href="#DejaVuSans-4f" transform="translate(3357.453125 0)"/>
     <use xlink:href="#DejaVuSans-54" transform="translate(3436.164062 0)"/>
     <use xlink:href="#DejaVuSans-20" transform="translate(3497.248047 0)"/>
     <use xlink:href="#DejaVuSans-63" transform="translate(3529.035156 0)"/>
     <use xlink:href="#DejaVuSans-68" transform="translate(3584.015625 0)"/>
     <use xlink:href="#DejaVuSans-61" transform="translate(3647.394531 0)"/>
     <use xlink:href="#DejaVuSans-6e" transform="translate(3708.673828 0)"/>
     <use xlink:href="#DejaVuSans-67" transform="translate(3772.052734 0)"/>
     <use xlink:href="#DejaVuSans-65" transform="translate(3835.529297 0)"/>
     <use xlink:href="#DejaVuSans-2e" transform="translate(3897.052734 0)"/>
    </g>
    <!-- A magic strategy for multiplications with friendly numbers. -->
    <g style="fill: #1d1d1f" transform="translate(138.857266 161.489625) scale(0.115 -0.115)">
     <defs>
      <path id="DejaVuSans-6d" d="M 3328 2828 
Q 3544 3216 3844 3400 
Q 4144 3584 4550 3584 
Q 5097 3584 5394 3201 
Q 5691 2819 5691 2113 
L 5691 0 
L 5113 0 
L 5113 2094 
Q 5113 2597 4934 2840 
Q 4756 3084 4391 3084 
Q 3944 3084 3684 2787 
Q 3425 2491 3425 1978 
L 3425 0 
L 2847 0 
L 2847 2094 
Q 2847 2600 2669 2842 
Q 2491 3084 2119 3084 
Q 1678 3084 1418 2786 
Q 1159 2488 1159 1978 
L 1159 0 
L 581 0 
L 581 3500 
L 1159 3500 
L 1159 2956 
Q 1356 3278 1631 3431 
Q 1906 3584 2284 3584 
Q 2666 3584 2933 3390 
Q 3200 3197 3328 2828 
z
" transform="scale(0.015625)"/>
      <path id="DejaVuSans-69" d="M 603 3500 
L 1178 3500 
L 1178 0 
L 603 0 
L 603 3500 
z
M 603 4863 
L 1178 4863 
L 1178 4134 
L 603 4134 
L 603 4863 
z
" transform="scale(0.015625)"/>
      <path id="DejaVuSans-6c" d="M 603 4863 
L 1178 4863 
L 1178 0 
L 603 0 
L 603 4863 
z
" transform="scale(0.015625)"/>
      <path id="DejaVuSans-77" d="M 269 3500 
L 844 3500 
L 1563 769 
L 2278 3500 
L 2956 3500 
L 3675 769 
L 4391 3500 
L 4966 3500 
L 4050 0 
L 3372 0 
L 2619 2869 
L 1863 0 
L 1184 0 
L 269 3500 
z
" transform="scale(0.015625)"/>
      <path id="DejaVuSans-62" d="M 3116 1747 
Q 3116 2381 2855 2742 
Q 2594 3103 2138 3103 
Q 1681 3103 1420 2742 
Q 1159 2381 1159 1747 
Q 1159 1113 1420 752 
Q 1681 391 2138 391 
Q 2594 391 2855 752 
Q 3116 1113 3116 1747 
z
M 1159 2969 
Q 1341 3281 1617 3432 
Q 1894 3584 2278 3584 
Q 2916 3584 3314 3078 
Q 3713 2572 3713 1747 
Q 3713 922 3314 415 
Q 2916 -91 2278 -91 
Q 1894 -91 1617 61 
Q 1341 213 1159 525 
L 1159 0 
L 581 0 
L 581 4863 
L 1159 4863 
L 1159 2969 
z
" transform="scale(0.015625)"/>
     </defs>
     <use xlink:href="#DejaVuSans-41"/>
     <use xlink:href="#DejaVuSans-20" transform="translate(68.408203 0)"/>
     <use xlink:href="#DejaVuSans-6d" transform="translate(100.195312 0)"/>
     <use xlink:href="#DejaVuSans-61" transform="translate(197.607422 0)"/>
     <use xlink:href="#DejaVuSans-67" transform="translate(258.886719 0)"/>
     <use xlink:href="#DejaVuSans-69" transform="translate(322.363281 0)"/>
     <use xlink:href="#DejaVuSans-63" transform="translate(350.146484 0)"/>
     <use xlink:href="#DejaVuSans-20" transform="translate(405.126953 0)"/>
     <use xlink:href="#DejaVuSans-73" transform="translate(436.914062 0)"/>
     <use xlink:href="#DejaVuSans-74" transform="translate(489.013672 0)"/>
     <use xlink:href="#DejaVuSans-72" transform="translate(528.222656 0)"/>
     <use xlink:href="#DejaVuSans-61" transform="translate(569.335938 0)"/>
     <use xlink:href="#DejaVuSans-74" transform="translate(630.615234 0)"/>
     <use xlink:href="#DejaVuSans-65" transform="translate(669.824219 0)"/>
     <use xlink:href="#DejaVuSans-67" transform="translate(731.347656 0)"/>
     <use xlink:href="#DejaVuSans-79" transform="translate(794.824219 0)"/>
     <use xlink:href="#DejaVuSans-20" transform="translate(854.003906 0)"/>
     <use xlink:href="#DejaVuSans-66" transform="translate(885.791016 0)"/>
     <use xlink:href="#DejaVuSans-6f" transform="translate(920.996094 0)"/>
     <use xlink:href="#DejaVuSans-72" transform="translate(982.177734 0)"/>
     <use xlink:href="#DejaVuSans-20" transform="translate(1023.291016 0)"/>
     <use xlink:href="#DejaVuSans-6d" transform="translate(1055.078125 0)"/>
     <use xlink:href="#DejaVuSans-75" transform="translate(1152.490234 0)"/>
     <use xlink:href="#DejaVuSans-6c" transform="translate(1215.869141 0)"/>
     <use xlink:href="#DejaVuSans-74" transform="translate(1243.652344 0)"/>
     <use xlink:href="#DejaVuSans-69" transform="translate(1282.861328 0)"/>
     <use xlink:href="#DejaVuSans-70" transform="translate(1310.644531 0)"/>
     <use xlink:href="#DejaVuSans-6c" transform="translate(1374.121094 0)"/>
     <use xlink:href="#DejaVuSans-69" transform="translate(1401.904297 0)"/>
     <use xlink:href="#DejaVuSans-63" transform="translate(1429.6875 0)"/>
     <use xlink:href="#DejaVuSans-61" transform="translate(1484.667969 0)"/>
     <use xlink:href="#DejaVuSans-74" transform="translate(1545.947266 0)"/>
     <use xlink:href="#DejaVuSans-69" transform="translate(1585.15625 0)"/>
     <use xlink:href="#DejaVuSans-6f" transform="translate(1612.939453 0)"/>
     <use xlink:href="#DejaVuSans-6e" transform="translate(1674.121094 0)"/>
     <use xlink:href="#DejaVuSans-73" transform="translate(1737.5 0)"/>
     <use xlink:href="#DejaVuSans-20" transform="translate(1789.599609 0)"/>
     <use xlink:href="#DejaVuSans-77" transform="translate(1821.386719 0)"/>
     <use xlink:href="#DejaVuSans-69" transform="translate(1903.173828 0)"/>
     <use xlink:href="#DejaVuSans-74" transform="translate(1930.957031 0)"/>
     <use xlink:href="#DejaVuSans-68" transform="translate(1970.166016 0)"/>
     <use xlink:href="#DejaVuSans-20" transform="translate(2033.544922 0)"/>
     <use xlink:href="#DejaVuSans-66" transform="translate(2065.332031 0)"/>
     <use xlink:href="#DejaVuSans-72" transform="translate(2100.537109 0)"/>
     <use xlink:href="#DejaVuSans-69" transform="translate(2141.650391 0)"/>
     <use xlink:href="#DejaVuSans-65" transform="translate(2169.433594 0)"/>
     <use xlink:href="#DejaVuSans-6e" transform="translate(2230.957031 0)"/>
     <use xlink:href="#DejaVuSans-64" transform="translate(2294.335938 0)"/>
     <use xlink:href="#DejaVuSans-6c" transform="translate(2357.8125 0)"/>
     <use xlink:href="#DejaVuSans-79" transform="translate(2385.595703 0)"/>
     <use xlink:href="#DejaVuSans-20" transform="translate(2444.775391 0)"/>
     <use xlink:href="#DejaVuSans-6e" transform="translate(2476.5625 0)"/>
     <use xlink:href="#DejaVuSans-75" transform="translate(2539.941406 0)"/>
     <use xlink:href="#DejaVuSans-6d" transform="translate(2603.320312 0)"/>
     <use xlink:href="#DejaVuSans-62" transform="translate(2700.732422 0)"/>
     <use xlink:href="#DejaVuSans-65" transform="translate(2764.208984 0)"/>
     <use xlink:href="#DejaVuSans-72" transform="translate(2825.732422 0)"/>
     <use xlink:href="#DejaVuSans-73" transform="translate(2866.845703 0)"/>
     <use xlink:href="#DejaVuSans-2e" transform="translate(2918.945312 0)"/>
    </g>
   </g>
   <g id="text_4">
    <!-- 16 × 25 -->
    <g style="fill: #ffffff" transform="translate(191.997513 289.553451) scale(0.115 -0.115)">
     <defs>
      <path id="DejaVuSans-Bold-31" d="M 750 831 
L 1813 831 
L 1813 3847 
L 722 3622 
L 722 4441 
L 1806 4666 
L 2950 4666 
L 2950 831 
L 4013 831 
L 4013 0 
L 750 0 
L 750 831 
z
" transform="scale(0.015625)"/>
      <path id="DejaVuSans-Bold-36" d="M 2316 2303 
Q 2000 2303 1842 2098 
Q 1684 1894 1684 1484 
Q 1684 1075 1842 870 
Q 2000 666 2316 666 
Q 2634 666 2792 870 
Q 2950 1075 2950 1484 
Q 2950 1894 2792 2098 
Q 2634 2303 2316 2303 
z
M 3803 4544 
L 3803 3681 
Q 3506 3822 3243 3889 
Q 2981 3956 2731 3956 
Q 2194 3956 1894 3657 
Q 1594 3359 1544 2772 
Q 1750 2925 1990 3001 
Q 2231 3078 2516 3078 
Q 3231 3078 3670 2659 
Q 4109 2241 4109 1563 
Q 4109 813 3618 361 
Q 3128 -91 2303 -91 
Q 1394 -91 895 523 
Q 397 1138 397 2266 
Q 397 3422 980 4083 
Q 1563 4744 2578 4744 
Q 2900 4744 3203 4694 
Q 3506 4644 3803 4544 
z
" transform="scale(0.015625)"/>
      <path id="DejaVuSans-Bold-d7" d="M 4563 3359 
L 3206 2003 
L 4563 653 
L 4038 128 
L 2681 1478 
L 1325 128 
L 800 653 
L 2156 2003 
L 800 3359 
L 1325 3884 
L 2681 2528 
L 4038 3884 
L 4563 3359 
z
" transform="scale(0.015625)"/>
      <path id="DejaVuSans-Bold-32" d="M 1844 884 
L 3897 884 
L 3897 0 
L 506 0 
L 506 884 
L 2209 2388 
Q 2438 2594 2547 2791 
Q 2656 2988 2656 3200 
Q 2656 3528 2436 3728 
Q 2216 3928 1850 3928 
Q 1569 3928 1234 3808 
Q 900 3688 519 3450 
L 519 4475 
Q 925 4609 1322 4679 
Q 1719 4750 2100 4750 
Q 2938 4750 3402 4381 
Q 3866 4013 3866 3353 
Q 3866 2972 3669 2642 
Q 3472 2313 2841 1759 
L 1844 884 
z
" transform="scale(0.015625)"/>
      <path id="DejaVuSans-Bold-35" d="M 678 4666 
L 3669 4666 
L 3669 3781 
L 1638 3781 
L 1638 3059 
Q 1775 3097 1914 3117 
Q 2053 3138 2203 3138 
Q 3056 3138 3531 2711 
Q 4006 2284 4006 1522 
Q 4006 766 3489 337 
Q 2972 -91 2053 -91 
Q 1656 -91 1267 -14 
Q 878 63 494 219 
L 494 1166 
Q 875 947 1217 837 
Q 1559 728 1863 728 
Q 2300 728 2551 942 
Q 2803 1156 2803 1522 
Q 2803 1891 2551 2103 
Q 2300 2316 1863 2316 
Q 1603 2316 1309 2248 
Q 1016 2181 678 2041 
L 678 4666 
z
" transform="scale(0.015625)"/>
     </defs>
     <use xlink:href="#DejaVuSans-Bold-31"/>
     <use xlink:href="#DejaVuSans-Bold-36" transform="translate(69.580078 0)"/>
     <use xlink:href="#DejaVuSans-Bold-20" transform="translate(139.160156 0)"/>
     <use xlink:href="#DejaVuSans-Bold-d7" transform="translate(173.974609 0)"/>
     <use xlink:href="#DejaVuSans-Bold-20" transform="translate(257.763672 0)"/>
     <use xlink:href="#DejaVuSans-Bold-32" transform="translate(292.578125 0)"/>
     <use xlink:href="#DejaVuSans-Bold-35" transform="translate(362.158203 0)"/>
    </g>
    <!-- = 400 -->
    <g style="fill: #ffffff" transform="translate(197.999974 302.430935) scale(0.115 -0.115)">
     <defs>
      <path id="DejaVuSans-Bold-3d" d="M 678 3084 
L 4684 3084 
L 4684 2350 
L 678 2350 
L 678 3084 
z
M 678 1663 
L 4684 1663 
L 4684 922 
L 678 922 
L 678 1663 
z
" transform="scale(0.015625)"/>
      <path id="DejaVuSans-Bold-34" d="M 2356 3675 
L 1038 1722 
L 2356 1722 
L 2356 3675 
z
M 2156 4666 
L 3494 4666 
L 3494 1722 
L 4159 1722 
L 4159 850 
L 3494 850 
L 3494 0 
L 2356 0 
L 2356 850 
L 288 850 
L 288 1881 
L 2156 4666 
z
" transform="scale(0.015625)"/>
      <path id="DejaVuSans-Bold-30" d="M 2944 2338 
Q 2944 3213 2780 3570 
Q 2616 3928 2228 3928 
Q 1841 3928 1675 3570 
Q 1509 3213 1509 2338 
Q 1509 1453 1675 1090 
Q 1841 728 2228 728 
Q 2613 728 2778 1090 
Q 2944 1453 2944 2338 
z
M 4147 2328 
Q 4147 1169 3647 539 
Q 3147 -91 2228 -91 
Q 1306 -91 806 539 
Q 306 1169 306 2328 
Q 306 3491 806 4120 
Q 1306 4750 2228 4750 
Q 3147 4750 3647 4120 
Q 4147 3491 4147 2328 
z
" transform="scale(0.015625)"/>
     </defs>
     <use xlink:href="#DejaVuSans-Bold-3d"/>
     <use xlink:href="#DejaVuSans-Bold-20" transform="translate(83.789062 0)"/>
     <use xlink:href="#DejaVuSans-Bold-34" transform="translate(118.603516 0)"/>
     <use xlink:href="#DejaVuSans-Bold-30" transform="translate(188.183594 0)"/>
     <use xlink:href="#DejaVuSans-Bold-30" transform="translate(257.763672 0)"/>
    </g>
   </g>
   <g id="text_5">
    <!-- 16 × 25  =  400 -->
    <g style="fill: #1d1d1f" transform="translate(371.398464 296.957975) scale(0.15 -0.15)">
     <use xlink:href="#DejaVuSans-Bold-31"/>
     <use xlink:href="#DejaVuSans-Bold-36" transform="translate(69.580078 0)"/>
     <use xlink:href="#DejaVuSans-Bold-20" transform="translate(139.160156 0)"/>
     <use xlink:href="#DejaVuSans-Bold-d7" transform="translate(173.974609 0)"/>
     <use xlink:href="#DejaVuSans-Bold-20" transform="translate(257.763672 0)"/>
     <use xlink:href="#DejaVuSans-Bold-32" transform="translate(292.578125 0)"/>
     <use xlink:href="#DejaVuSans-Bold-35" transform="translate(362.158203 0)"/>
     <use xlink:href="#DejaVuSans-Bold-20" transform="translate(431.738281 0)"/>
     <use xlink:href="#DejaVuSans-Bold-20" transform="translate(466.552734 0)"/>
     <use xlink:href="#DejaVuSans-Bold-3d" transform="translate(501.367188 0)"/>
     <use xlink:href="#DejaVuSans-Bold-20" transform="translate(585.15625 0)"/>
     <use xlink:href="#DejaVuSans-Bold-20" transform="translate(619.970703 0)"/>
     <use xlink:href="#DejaVuSans-Bold-34" transform="translate(654.785156 0)"/>
     <use xlink:href="#DejaVuSans-Bold-30" transform="translate(724.365234 0)"/>
     <use xlink:href="#DejaVuSans-Bold-30" transform="translate(793.945312 0)"/>
    </g>
   </g>
   <g id="patch_6">
    <path d="M 216.82224 342.212049 
Q 216.82224 366.439068 216.82224 387.982806 
" style="fill: none; stroke: #f0a500; stroke-width: 2.4; stroke-linecap: round"/>
    <path d="M 219.02224 383.582806 
L 216.82224 387.982806 
L 214.62224 383.582806 
" style="fill: none; stroke: #f0a500; stroke-width: 2.4; stroke-linecap: round"/>
   </g>
   <g id="text_6">
    <!-- ÷2 / ×2 -->
    <g style="fill: #f0a500" transform="translate(227.301984 369.473169) scale(0.11 -0.11)">
     <defs>
      <path id="DejaVuSans-BoldOblique-f7" d="M 2203 1234 
L 3163 1234 
L 3163 269 
L 2203 269 
L 2203 1234 
z
M 2203 3744 
L 3163 3744 
L 3163 2778 
L 2203 2778 
L 2203 3744 
z
M 678 2375 
L 4684 2375 
L 4684 1638 
L 678 1638 
L 678 2375 
z
" transform="scale(0.015625)"/>
      <path id="DejaVuSans-BoldOblique-32" d="M 1581 884 
L 3609 884 
L 3438 0 
L 50 0 
L 225 891 
L 2209 2388 
Q 2534 2638 2704 2894 
Q 2875 3150 2875 3391 
Q 2875 3647 2700 3787 
Q 2525 3928 2209 3928 
Q 1913 3928 1547 3811 
Q 1181 3694 722 3450 
L 922 4441 
Q 1347 4597 1756 4673 
Q 2166 4750 2566 4750 
Q 3278 4750 3687 4442 
Q 4097 4134 4097 3603 
Q 4097 3147 3847 2772 
Q 3597 2397 2747 1759 
L 1581 884 
z
" transform="scale(0.015625)"/>
      <path id="DejaVuSans-BoldOblique-20" transform="scale(0.015625)"/>
      <path id="DejaVuSans-BoldOblique-2f" d="M 2053 4666 
L 2778 4666 
L 109 -594 
L -616 -594 
L 2053 4666 
z
" transform="scale(0.015625)"/>
      <path id="DejaVuSans-BoldOblique-d7" d="M 4563 3359 
L 3206 2003 
L 4563 653 
L 4038 128 
L 2681 1478 
L 1325 128 
L 800 653 
L 2156 2003 
L 800 3359 
L 1325 3884 
L 2681 2528 
L 4038 3884 
L 4563 3359 
z
" transform="scale(0.015625)"/>
     </defs>
     <use xlink:href="#DejaVuSans-BoldOblique-f7"/>
     <use xlink:href="#DejaVuSans-BoldOblique-32" transform="translate(83.789062 0)"/>
     <use xlink:href="#DejaVuSans-BoldOblique-20" transform="translate(153.369141 0)"/>
     <use xlink:href="#DejaVuSans-BoldOblique-2f" transform="translate(188.183594 0)"/>
     <use xlink:href="#DejaVuSans-BoldOblique-20" transform="translate(224.707031 0)"/>
     <use xlink:href="#DejaVuSans-BoldOblique-d7" transform="translate(259.521484 0)"/>
     <use xlink:href="#DejaVuSans-BoldOblique-32" transform="translate(343.310547 0)"/>
    </g>
   </g>
   <g id="text_7">
    <!-- 8 × 50 -->
    <g style="fill: #ffffff" transform="translate(137.049696 436.791339) scale(0.115 -0.115)">
     <defs>
      <path id="DejaVuSans-Bold-38" d="M 2228 2088 
Q 1891 2088 1709 1903 
Q 1528 1719 1528 1375 
Q 1528 1031 1709 848 
Q 1891 666 2228 666 
Q 2563 666 2741 848 
Q 2919 1031 2919 1375 
Q 2919 1722 2741 1905 
Q 2563 2088 2228 2088 
z
M 1350 2484 
Q 925 2613 709 2878 
Q 494 3144 494 3541 
Q 494 4131 934 4440 
Q 1375 4750 2228 4750 
Q 3075 4750 3515 4442 
Q 3956 4134 3956 3541 
Q 3956 3144 3739 2878 
Q 3522 2613 3097 2484 
Q 3572 2353 3814 2058 
Q 4056 1763 4056 1313 
Q 4056 619 3595 264 
Q 3134 -91 2228 -91 
Q 1319 -91 855 264 
Q 391 619 391 1313 
Q 391 1763 633 2058 
Q 875 2353 1350 2484 
z
M 1631 3419 
Q 1631 3141 1786 2991 
Q 1941 2841 2228 2841 
Q 2509 2841 2662 2991 
Q 2816 3141 2816 3419 
Q 2816 3697 2662 3845 
Q 2509 3994 2228 3994 
Q 1941 3994 1786 3844 
Q 1631 3694 1631 3419 
z
" transform="scale(0.015625)"/>
     </defs>
     <use xlink:href="#DejaVuSans-Bold-38"/>
     <use xlink:href="#DejaVuSans-Bold-20" transform="translate(69.580078 0)"/>
     <use xlink:href="#DejaVuSans-Bold-d7" transform="translate(104.394531 0)"/>
     <use xlink:href="#DejaVuSans-Bold-20" transform="translate(188.183594 0)"/>
     <use xlink:href="#DejaVuSans-Bold-35" transform="translate(222.998047 0)"/>
     <use xlink:href="#DejaVuSans-Bold-30" transform="translate(292.578125 0)"/>
    </g>
    <!-- = 400 -->
    <g style="fill: #ffffff" transform="translate(139.051414 449.668823) scale(0.115 -0.115)">
     <use xlink:href="#DejaVuSans-Bold-3d"/>
     <use xlink:href="#DejaVuSans-Bold-20" transform="translate(83.789062 0)"/>
     <use xlink:href="#DejaVuSans-Bold-34" transform="translate(118.603516 0)"/>
     <use xlink:href="#DejaVuSans-Bold-30" transform="translate(188.183594 0)"/>
     <use xlink:href="#DejaVuSans-Bold-30" transform="translate(257.763672 0)"/>
    </g>
   </g>
   <g id="text_8">
    <!-- 8 × 50  =  400 -->
    <g style="fill: #1d1d1f" transform="translate(371.398464 444.195863) scale(0.15 -0.15)">
     <use xlink:href="#DejaVuSans-Bold-38"/>
     <use xlink:href="#DejaVuSans-Bold-20" transform="translate(69.580078 0)"/>
     <use xlink:href="#DejaVuSans-Bold-d7" transform="translate(104.394531 0)"/>
     <use xlink:href="#DejaVuSans-Bold-20" transform="translate(188.183594 0)"/>
     <use xlink:href="#DejaVuSans-Bold-35" transform="translate(222.998047 0)"/>
     <use xlink:href="#DejaVuSans-Bold-30" transform="translate(292.578125 0)"/>
     <use xlink:href="#DejaVuSans-Bold-20" transform="translate(362.158203 0)"/>
     <use xlink:href="#DejaVuSans-Bold-20" transform="translate(396.972656 0)"/>
     <use xlink:href="#DejaVuSans-Bold-3d" transform="translate(431.787109 0)"/>
     <use xlink:href="#DejaVuSans-Bold-20" transform="translate(515.576172 0)"/>
     <use xlink:href="#DejaVuSans-Bold-20" transform="translate(550.390625 0)"/>
     <use xlink:href="#DejaVuSans-Bold-34" transform="translate(585.205078 0)"/>
     <use xlink:href="#DejaVuSans-Bold-30" transform="translate(654.785156 0)"/>
     <use xlink:href="#DejaVuSans-Bold-30" transform="translate(724.365234 0)"/>
    </g>
   </g>
   <g id="patch_7">
    <path d="M 216.82224 489.449937 
Q 216.82224 513.676956 216.82224 535.220694 
" style="fill: none; stroke: #f0a500; stroke-width: 2.4; stroke-linecap: round"/>
    <path d="M 219.02224 530.820694 
L 216.82224 535.220694 
L 214.62224 530.820694 
" style="fill: none; stroke: #f0a500; stroke-width: 2.4; stroke-linecap: round"/>
   </g>
   <g id="text_9">
    <!-- ÷2 / ×2 -->
    <g style="fill: #f0a500" transform="translate(227.301984 516.711057) scale(0.11 -0.11)">
     <use xlink:href="#DejaVuSans-BoldOblique-f7"/>
     <use xlink:href="#DejaVuSans-BoldOblique-32" transform="translate(83.789062 0)"/>
     <use xlink:href="#DejaVuSans-BoldOblique-20" transform="translate(153.369141 0)"/>
     <use xlink:href="#DejaVuSans-BoldOblique-2f" transform="translate(188.183594 0)"/>
     <use xlink:href="#DejaVuSans-BoldOblique-20" transform="translate(224.707031 0)"/>
     <use xlink:href="#DejaVuSans-BoldOblique-d7" transform="translate(259.521484 0)"/>
     <use xlink:href="#DejaVuSans-BoldOblique-32" transform="translate(343.310547 0)"/>
    </g>
   </g>
   <g id="text_10">
    <!-- 4 × 100 -->
    <g style="fill: #ffffff" transform="translate(103.574673 584.029227) scale(0.115 -0.115)">
     <use xlink:href="#DejaVuSans-Bold-34"/>
     <use xlink:href="#DejaVuSans-Bold-20" transform="translate(69.580078 0)"/>
     <use xlink:href="#DejaVuSans-Bold-d7" transform="translate(104.394531 0)"/>
     <use xlink:href="#DejaVuSans-Bold-20" transform="translate(188.183594 0)"/>
     <use xlink:href="#DejaVuSans-Bold-31" transform="translate(222.998047 0)"/>
     <use xlink:href="#DejaVuSans-Bold-30" transform="translate(292.578125 0)"/>
     <use xlink:href="#DejaVuSans-Bold-30" transform="translate(362.158203 0)"/>
    </g>
    <!-- = 400 -->
    <g style="fill: #ffffff" transform="translate(109.577134 596.906711) scale(0.115 -0.115)">
     <use xlink:href="#DejaVuSans-Bold-3d"/>
     <use xlink:href="#DejaVuSans-Bold-20" transform="translate(83.789062 0)"/>
     <use xlink:href="#DejaVuSans-Bold-34" transform="translate(118.603516 0)"/>
     <use xlink:href="#DejaVuSans-Bold-30" transform="translate(188.183594 0)"/>
     <use xlink:href="#DejaVuSans-Bold-30" transform="translate(257.763672 0)"/>
    </g>
   </g>
   <g id="text_11">
    <!-- 4 × 100  =  400 -->
    <g style="fill: #1d1d1f" transform="translate(371.398464 591.43375) scale(0.15 -0.15)">
     <use xlink:href="#DejaVuSans-Bold-34"/>
     <use xlink:href="#DejaVuSans-Bold-20" transform="translate(69.580078 0)"/>
     <use xlink:href="#DejaVuSans-Bold-d7" transform="translate(104.394531 0)"/>
     <use xlink:href="#DejaVuSans-Bold-20" transform="translate(188.183594 0)"/>
     <use xlink:href="#DejaVuSans-Bold-31" transform="translate(222.998047 0)"/>
     <use xlink:href="#DejaVuSans-Bold-30" transform="translate(292.578125 0)"/>
     <use xlink:href="#DejaVuSans-Bold-30" transform="translate(362.158203 0)"/>
     <use xlink:href="#DejaVuSans-Bold-20" transform="translate(431.738281 0)"/>
     <use xlink:href="#DejaVuSans-Bold-20" transform="translate(466.552734 0)"/>
     <use xlink:href="#DejaVuSans-Bold-3d" transform="translate(501.367188 0)"/>
     <use xlink:href="#DejaVuSans-Bold-20" transform="translate(585.15625 0)"/>
     <use xlink:href="#DejaVuSans-Bold-20" transform="translate(619.970703 0)"/>
     <use xlink:href="#DejaVuSans-Bold-34" transform="translate(654.785156 0)"/>
     <use xlink:href="#DejaVuSans-Bold-30" transform="translate(724.365234 0)"/>
     <use xlink:href="#DejaVuSans-Bold-30" transform="translate(793.945312 0)"/>
    </g>
   </g>
   <g id="text_12">
    <!-- You turn a hard calculation (16×25) into a trivial one (4×100). -->
    <g style="fill: #6e7781" transform="translate(136.889922 711.332699) scale(0.11 -0.11)">
     <defs>
      <path id="DejaVuSans-Oblique-59" d="M 403 4666 
L 1081 4666 
L 1953 2747 
L 3616 4666 
L 4325 4666 
L 2209 2222 
L 1778 0 
L 1147 0 
L 1575 2222 
L 403 4666 
z
" transform="scale(0.015625)"/>
      <path id="DejaVuSans-Oblique-63" d="M 3431 3366 
L 3316 2797 
Q 3109 2947 2876 3022 
Q 2644 3097 2394 3097 
Q 2119 3097 1870 3000 
Q 1622 2903 1453 2725 
Q 1184 2453 1037 2087 
Q 891 1722 891 1331 
Q 891 859 1127 628 
Q 1363 397 1844 397 
Q 2081 397 2348 469 
Q 2616 541 2906 684 
L 2797 116 
Q 2547 13 2283 -39 
Q 2019 -91 1741 -91 
Q 1044 -91 669 257 
Q 294 606 294 1253 
Q 294 1797 489 2255 
Q 684 2713 1069 3078 
Q 1331 3328 1684 3456 
Q 2038 3584 2456 3584 
Q 2700 3584 2940 3529 
Q 3181 3475 3431 3366 
z
" transform="scale(0.015625)"/>
      <path id="DejaVuSans-Oblique-69" d="M 1172 4863 
L 1747 4863 
L 1606 4134 
L 1031 4134 
L 1172 4863 
z
M 909 3500 
L 1484 3500 
L 800 0 
L 225 0 
L 909 3500 
z
" transform="scale(0.015625)"/>
      <path id="DejaVuSans-Oblique-31" d="M 416 531 
L 1447 531 
L 2144 4122 
L 978 3897 
L 1088 4441 
L 2247 4666 
L 2881 4666 
L 2075 531 
L 3103 531 
L 3003 0 
L 313 0 
L 416 531 
z
" transform="scale(0.015625)"/>
      <path id="DejaVuSans-Oblique-36" d="M 2938 1728 
Q 2938 2125 2734 2354 
Q 2531 2584 2181 2584 
Q 1697 2584 1367 2211 
Q 1038 1838 1038 1288 
Q 1038 875 1239 642 
Q 1441 409 1797 409 
Q 2284 409 2611 792 
Q 2938 1175 2938 1728 
z
M 3788 4556 
L 3681 3981 
Q 3500 4100 3265 4162 
Q 3031 4225 2766 4225 
Q 2119 4225 1726 3819 
Q 1334 3413 1141 2547 
Q 1369 2813 1670 2948 
Q 1972 3084 2322 3084 
Q 2894 3084 3233 2754 
Q 3572 2425 3572 1869 
Q 3572 1413 3405 1020 
Q 3238 628 2919 331 
Q 2700 128 2409 18 
Q 2119 -91 1791 -91 
Q 1147 -91 775 318 
Q 403 728 403 1441 
Q 403 2103 573 2717 
Q 744 3331 1050 3781 
Q 1372 4256 1830 4503 
Q 2288 4750 2841 4750 
Q 3084 4750 3321 4701 
Q 3559 4653 3788 4556 
z
" transform="scale(0.015625)"/>
      <path id="DejaVuSans-Oblique-d7" d="M 4488 3438 
L 3059 2003 
L 4488 575 
L 4116 197 
L 2681 1631 
L 1247 197 
L 878 575 
L 2303 2003 
L 878 3438 
L 1247 3816 
L 2681 2381 
L 4116 3816 
L 4488 3438 
z
" transform="scale(0.015625)"/>
      <path id="DejaVuSans-Oblique-32" d="M 2950 2253 
L 934 525 
L 3163 525 
L 3053 0 
L 25 0 
L 128 531 
L 2234 2338 
Q 2656 2703 2832 2979 
Q 3009 3256 3009 3547 
Q 3009 3850 2796 4040 
Q 2584 4231 2241 4231 
Q 1944 4231 1581 4125 
Q 1219 4019 806 3816 
L 922 4441 
Q 1309 4594 1662 4672 
Q 2016 4750 2316 4750 
Q 2928 4750 3301 4425 
Q 3675 4100 3675 3572 
Q 3675 3216 3497 2892 
Q 3319 2569 2950 2253 
z
" transform="scale(0.015625)"/>
      <path id="DejaVuSans-Oblique-35" d="M 3719 4666 
L 3622 4141 
L 1691 4141 
L 1466 2988 
Q 1609 3034 1757 3056 
Q 1906 3078 2059 3078 
Q 2706 3078 3081 2731 
Q 3456 2384 3456 1791 
Q 3456 1375 3264 994 
Q 3072 613 2719 325 
Q 2469 125 2108 17 
Q 1747 -91 1319 -91 
Q 1038 -91 744 -41 
Q 450 9 128 109 
L 244 697 
Q 531 556 820 486 
Q 1109 416 1403 416 
Q 2013 416 2411 781 
Q 2809 1147 2809 1697 
Q 2809 2103 2548 2328 
Q 2288 2553 1819 2553 
Q 1572 2553 1305 2495 
Q 1038 2438 756 2322 
L 1209 4666 
L 3719 4666 
z
" transform="scale(0.015625)"/>
      <path id="DejaVuSans-Oblique-34" d="M 2753 4666 
L 3547 4666 
L 2950 1625 
L 3616 1625 
L 3513 1100 
L 2847 1100 
L 2638 0 
L 2009 0 
L 2222 1100 
L 116 1100 
L 238 1709 
L 2753 4666 
z
M 2809 4116 
L 728 1625 
L 2322 1625 
L 2809 4116 
z
" transform="scale(0.015625)"/>
      <path id="DejaVuSans-Oblique-30" d="M 2444 4750 
Q 3078 4750 3414 4328 
Q 3750 3906 3750 3116 
Q 3750 2516 3592 1923 
Q 3434 1331 3150 863 
Q 2859 394 2467 151 
Q 2075 -91 1600 -91 
Q 988 -91 653 334 
Q 319 759 319 1544 
Q 319 2138 480 2733 
Q 641 3328 928 3794 
Q 1216 4263 1602 4506 
Q 1988 4750 2444 4750 
z
M 2406 4250 
Q 2169 4250 1955 4123 
Q 1741 3997 1569 3750 
Q 1281 3338 1111 2720 
Q 941 2103 941 1453 
Q 941 938 1123 673 
Q 1306 409 1663 409 
Q 1913 409 2125 536 
Q 2338 663 2509 909 
Q 2794 1319 2961 1936 
Q 3128 2553 3128 3206 
Q 3128 3722 2945 3986 
Q 2763 4250 2406 4250 
z
" transform="scale(0.015625)"/>
      <path id="DejaVuSans-Oblique-2e" d="M 525 794 
L 1184 794 
L 1031 0 
L 372 0 
L 525 794 
z
" transform="scale(0.015625)"/>
     </defs>
     <use xlink:href="#DejaVuSans-Oblique-59"/>
     <use xlink:href="#DejaVuSans-Oblique-6f" transform="translate(50.083984 0)"/>
     <use xlink:href="#DejaVuSans-Oblique-75" transform="translate(111.265625 0)"/>
     <use xlink:href="#DejaVuSans-Oblique-20" transform="translate(174.644531 0)"/>
     <use xlink:href="#DejaVuSans-Oblique-74" transform="translate(206.431641 0)"/>
     <use xlink:href="#DejaVuSans-Oblique-75" transform="translate(245.640625 0)"/>
     <use xlink:href="#DejaVuSans-Oblique-72" transform="translate(309.019531 0)"/>
     <use xlink:href="#DejaVuSans-Oblique-6e" transform="translate(350.132812 0)"/>
     <use xlink:href="#DejaVuSans-Oblique-20" transform="translate(413.511719 0)"/>
     <use xlink:href="#DejaVuSans-Oblique-61" transform="translate(445.298828 0)"/>
     <use xlink:href="#DejaVuSans-Oblique-20" transform="translate(506.578125 0)"/>
     <use xlink:href="#DejaVuSans-Oblique-68" transform="translate(538.365234 0)"/>
     <use xlink:href="#DejaVuSans-Oblique-61" transform="translate(601.744141 0)"/>
     <use xlink:href="#DejaVuSans-Oblique-72" transform="translate(663.023438 0)"/>
     <use xlink:href="#DejaVuSans-Oblique-64" transform="translate(704.136719 0)"/>
     <use xlink:href="#DejaVuSans-Oblique-20" transform="translate(767.613281 0)"/>
     <use xlink:href="#DejaVuSans-Oblique-63" transform="translate(799.400391 0)"/>
     <use xlink:href="#DejaVuSans-Oblique-61" transform="translate(854.380859 0)"/>
     <use xlink:href="#DejaVuSans-Oblique-6c" transform="translate(915.660156 0)"/>
     <use xlink:href="#DejaVuSans-Oblique-63" transform="translate(943.443359 0)"/>
     <use xlink:href="#DejaVuSans-Oblique-75" transform="translate(998.423828 0)"/>
     <use xlink:href="#DejaVuSans-Oblique-6c" transform="translate(1061.802734 0)"/>
     <use xlink:href="#DejaVuSans-Oblique-61" transform="translate(1089.585938 0)"/>
     <use xlink:href="#DejaVuSans-Oblique-74" transform="translate(1150.865234 0)"/>
     <use xlink:href="#DejaVuSans-Oblique-69" transform="translate(1190.074219 0)"/>
     <use xlink:href="#DejaVuSans-Oblique-6f" transform="translate(1217.857422 0)"/>
     <use xlink:href="#DejaVuSans-Oblique-6e" transform="translate(1279.039062 0)"/>
     <use xlink:href="#DejaVuSans-Oblique-20" transform="translate(1342.417969 0)"/>
     <use xlink:href="#DejaVuSans-Oblique-28" transform="translate(1374.205078 0)"/>
     <use xlink:href="#DejaVuSans-Oblique-31" transform="translate(1413.21875 0)"/>
     <use xlink:href="#DejaVuSans-Oblique-36" transform="translate(1476.841797 0)"/>
     <use xlink:href="#DejaVuSans-Oblique-d7" transform="translate(1540.464844 0)"/>
     <use xlink:href="#DejaVuSans-Oblique-32" transform="translate(1624.253906 0)"/>
     <use xlink:href="#DejaVuSans-Oblique-35" transform="translate(1687.876953 0)"/>
     <use xlink:href="#DejaVuSans-Oblique-29" transform="translate(1751.5 0)"/>
     <use xlink:href="#DejaVuSans-Oblique-20" transform="translate(1790.513672 0)"/>
     <use xlink:href="#DejaVuSans-Oblique-69" transform="translate(1822.300781 0)"/>
     <use xlink:href="#DejaVuSans-Oblique-6e" transform="translate(1850.083984 0)"/>
     <use xlink:href="#DejaVuSans-Oblique-74" transform="translate(1913.462891 0)"/>
     <use xlink:href="#DejaVuSans-Oblique-6f" transform="translate(1952.671875 0)"/>
     <use xlink:href="#DejaVuSans-Oblique-20" transform="translate(2013.853516 0)"/>
     <use xlink:href="#DejaVuSans-Oblique-61" transform="translate(2045.640625 0)"/>
     <use xlink:href="#DejaVuSans-Oblique-20" transform="translate(2106.919922 0)"/>
     <use xlink:href="#DejaVuSans-Oblique-74" transform="translate(2138.707031 0)"/>
     <use xlink:href="#DejaVuSans-Oblique-72" transform="translate(2177.916016 0)"/>
     <use xlink:href="#DejaVuSans-Oblique-69" transform="translate(2219.029297 0)"/>
     <use xlink:href="#DejaVuSans-Oblique-76" transform="translate(2246.8125 0)"/>
     <use xlink:href="#DejaVuSans-Oblique-69" transform="translate(2305.992188 0)"/>
     <use xlink:href="#DejaVuSans-Oblique-61" transform="translate(2333.775391 0)"/>
     <use xlink:href="#DejaVuSans-Oblique-6c" transform="translate(2395.054688 0)"/>
     <use xlink:href="#DejaVuSans-Oblique-20" transform="translate(2422.837891 0)"/>
     <use xlink:href="#DejaVuSans-Oblique-6f" transform="translate(2454.625 0)"/>
     <use xlink:href="#DejaVuSans-Oblique-6e" transform="translate(2515.806641 0)"/>
     <use xlink:href="#DejaVuSans-Oblique-65" transform="translate(2579.185547 0)"/>
     <use xlink:href="#DejaVuSans-Oblique-20" transform="translate(2640.708984 0)"/>
     <use xlink:href="#DejaVuSans-Oblique-28" transform="translate(2672.496094 0)"/>
     <use xlink:href="#DejaVuSans-Oblique-34" transform="translate(2711.509766 0)"/>
     <use xlink:href="#DejaVuSans-Oblique-d7" transform="translate(2775.132812 0)"/>
     <use xlink:href="#DejaVuSans-Oblique-31" transform="translate(2858.921875 0)"/>
     <use xlink:href="#DejaVuSans-Oblique-30" transform="translate(2922.544922 0)"/>
     <use xlink:href="#DejaVuSans-Oblique-30" transform="translate(2986.167969 0)"/>
     <use xlink:href="#DejaVuSans-Oblique-29" transform="translate(3049.791016 0)"/>
     <use xlink:href="#DejaVuSans-Oblique-2e" transform="translate(3088.804688 0)"/>
    </g>
    <!-- Same trick: 12×5 = 6×10 = 60   ·   14×50 = 7×100 = 700 -->
    <g style="fill: #6e7781" transform="translate(145.835156 726.993606) scale(0.11 -0.11)">
     <defs>
      <path id="DejaVuSans-Oblique-53" d="M 3859 4513 
L 3738 3897 
Q 3422 4066 3111 4152 
Q 2800 4238 2509 4238 
Q 1944 4238 1609 3991 
Q 1275 3744 1275 3334 
Q 1275 3109 1398 2989 
Q 1522 2869 2034 2731 
L 2413 2638 
Q 3053 2472 3303 2217 
Q 3553 1963 3553 1503 
Q 3553 797 2998 353 
Q 2444 -91 1538 -91 
Q 1166 -91 791 -17 
Q 416 56 38 206 
L 166 856 
Q 513 641 861 531 
Q 1209 422 1556 422 
Q 2147 422 2503 684 
Q 2859 947 2859 1369 
Q 2859 1650 2717 1795 
Q 2575 1941 2106 2059 
L 1728 2156 
Q 1081 2325 845 2545 
Q 609 2766 609 3163 
Q 609 3859 1145 4304 
Q 1681 4750 2541 4750 
Q 2875 4750 3203 4690 
Q 3531 4631 3859 4513 
z
" transform="scale(0.015625)"/>
      <path id="DejaVuSans-Oblique-6d" d="M 5747 2113 
L 5338 0 
L 4763 0 
L 5166 2094 
Q 5191 2228 5203 2325 
Q 5216 2422 5216 2491 
Q 5216 2772 5059 2928 
Q 4903 3084 4622 3084 
Q 4203 3084 3875 2770 
Q 3547 2456 3450 1953 
L 3066 0 
L 2491 0 
L 2900 2094 
Q 2925 2209 2937 2307 
Q 2950 2406 2950 2484 
Q 2950 2769 2794 2926 
Q 2638 3084 2363 3084 
Q 1938 3084 1609 2770 
Q 1281 2456 1184 1953 
L 800 0 
L 225 0 
L 909 3500 
L 1484 3500 
L 1375 2956 
Q 1609 3263 1923 3423 
Q 2238 3584 2597 3584 
Q 2978 3584 3223 3384 
Q 3469 3184 3519 2828 
Q 3781 3197 4126 3390 
Q 4472 3584 4856 3584 
Q 5306 3584 5551 3325 
Q 5797 3066 5797 2591 
Q 5797 2488 5784 2364 
Q 5772 2241 5747 2113 
z
" transform="scale(0.015625)"/>
      <path id="DejaVuSans-Oblique-6b" d="M 1172 4863 
L 1747 4863 
L 1197 2028 
L 3169 3500 
L 3916 3500 
L 1716 1825 
L 3322 0 
L 2625 0 
L 1131 1709 
L 800 0 
L 225 0 
L 1172 4863 
z
" transform="scale(0.015625)"/>
      <path id="DejaVuSans-Oblique-3a" d="M 978 3309 
L 1638 3309 
L 1484 2516 
L 825 2516 
L 978 3309 
z
M 488 794 
L 1147 794 
L 991 0 
L 331 0 
L 488 794 
z
" transform="scale(0.015625)"/>
      <path id="DejaVuSans-Oblique-3d" d="M 678 2906 
L 4684 2906 
L 4684 2381 
L 678 2381 
L 678 2906 
z
M 678 1631 
L 4684 1631 
L 4684 1100 
L 678 1100 
L 678 1631 
z
" transform="scale(0.015625)"/>
      <path id="DejaVuSans-Oblique-b7" d="M 884 2619 
L 1544 2619 
L 1388 1825 
L 728 1825 
L 884 2619 
z
" transform="scale(0.015625)"/>
      <path id="DejaVuSans-Oblique-37" d="M 819 4666 
L 4013 4666 
L 3956 4397 
L 1288 0 
L 594 0 
L 3116 4134 
L 716 4134 
L 819 4666 
z
" transform="scale(0.015625)"/>
     </defs>
     <use xlink:href="#DejaVuSans-Oblique-53"/>
     <use xlink:href="#DejaVuSans-Oblique-61" transform="translate(63.476562 0)"/>
     <use xlink:href="#DejaVuSans-Oblique-6d" transform="translate(124.755859 0)"/>
     <use xlink:href="#DejaVuSans-Oblique-65" transform="translate(222.167969 0)"/>
     <use xlink:href="#DejaVuSans-Oblique-20" transform="translate(283.691406 0)"/>
     <use xlink:href="#DejaVuSans-Oblique-74" transform="translate(315.478516 0)"/>
     <use xlink:href="#DejaVuSans-Oblique-72" transform="translate(354.6875 0)"/>
     <use xlink:href="#DejaVuSans-Oblique-69" transform="translate(395.800781 0)"/>
     <use xlink:href="#DejaVuSans-Oblique-63" transform="translate(423.583984 0)"/>
     <use xlink:href="#DejaVuSans-Oblique-6b" transform="translate(478.564453 0)"/>
     <use xlink:href="#DejaVuSans-Oblique-3a" transform="translate(536.474609 0)"/>
     <use xlink:href="#DejaVuSans-Oblique-20" transform="translate(570.166016 0)"/>
     <use xlink:href="#DejaVuSans-Oblique-31" transform="translate(601.953125 0)"/>
     <use xlink:href="#DejaVuSans-Oblique-32" transform="translate(665.576172 0)"/>
     <use xlink:href="#DejaVuSans-Oblique-d7" transform="translate(729.199219 0)"/>
     <use xlink:href="#DejaVuSans-Oblique-35" transform="translate(812.988281 0)"/>
     <use xlink:href="#DejaVuSans-Oblique-20" transform="translate(876.611328 0)"/>
     <use xlink:href="#DejaVuSans-Oblique-3d" transform="translate(908.398438 0)"/>
     <use xlink:href="#DejaVuSans-Oblique-20" transform="translate(992.1875 0)"/>
     <use xlink:href="#DejaVuSans-Oblique-36" transform="translate(1023.974609 0)"/>
     <use xlink:href="#DejaVuSans-Oblique-d7" transform="translate(1087.597656 0)"/>
     <use xlink:href="#DejaVuSans-Oblique-31" transform="translate(1171.386719 0)"/>
     <use xlink:href="#DejaVuSans-Oblique-30" transform="translate(1235.009766 0)"/>
     <use xlink:href="#DejaVuSans-Oblique-20" transform="translate(1298.632812 0)"/>
     <use xlink:href="#DejaVuSans-Oblique-3d" transform="translate(1330.419922 0)"/>
     <use xlink:href="#DejaVuSans-Oblique-20" transform="translate(1414.208984 0)"/>
     <use xlink:href="#DejaVuSans-Oblique-36" transform="translate(1445.996094 0)"/>
     <use xlink:href="#DejaVuSans-Oblique-30" transform="translate(1509.619141 0)"/>
     <use xlink:href="#DejaVuSans-Oblique-20" transform="translate(1573.242188 0)"/>
     <use xlink:href="#DejaVuSans-Oblique-20" transform="translate(1605.029297 0)"/>
     <use xlink:href="#DejaVuSans-Oblique-20" transform="translate(1636.816406 0)"/>
     <use xlink:href="#DejaVuSans-Oblique-b7" transform="translate(1668.603516 0)"/>
     <use xlink:href="#DejaVuSans-Oblique-20" transform="translate(1700.390625 0)"/>
     <use xlink:href="#DejaVuSans-Oblique-20" transform="translate(1732.177734 0)"/>
     <use xlink:href="#DejaVuSans-Oblique-20" transform="translate(1763.964844 0)"/>
     <use xlink:href="#DejaVuSans-Oblique-31" transform="translate(1795.751953 0)"/>
     <use xlink:href="#DejaVuSans-Oblique-34" transform="translate(1859.375 0)"/>
     <use xlink:href="#DejaVuSans-Oblique-d7" transform="translate(1922.998047 0)"/>
     <use xlink:href="#DejaVuSans-Oblique-35" transform="translate(2006.787109 0)"/>
     <use xlink:href="#DejaVuSans-Oblique-30" transform="translate(2070.410156 0)"/>
     <use xlink:href="#DejaVuSans-Oblique-20" transform="translate(2134.033203 0)"/>
     <use xlink:href="#DejaVuSans-Oblique-3d" transform="translate(2165.820312 0)"/>
     <use xlink:href="#DejaVuSans-Oblique-20" transform="translate(2249.609375 0)"/>
     <use xlink:href="#DejaVuSans-Oblique-37" transform="translate(2281.396484 0)"/>
     <use xlink:href="#DejaVuSans-Oblique-d7" transform="translate(2345.019531 0)"/>
     <use xlink:href="#DejaVuSans-Oblique-31" transform="translate(2428.808594 0)"/>
     <use xlink:href="#DejaVuSans-Oblique-30" transform="translate(2492.431641 0)"/>
     <use xlink:href="#DejaVuSans-Oblique-30" transform="translate(2556.054688 0)"/>
     <use xlink:href="#DejaVuSans-Oblique-20" transform="translate(2619.677734 0)"/>
     <use xlink:href="#DejaVuSans-Oblique-3d" transform="translate(2651.464844 0)"/>
     <use xlink:href="#DejaVuSans-Oblique-20" transform="translate(2735.253906 0)"/>
     <use xlink:href="#DejaVuSans-Oblique-37" transform="translate(2767.041016 0)"/>
     <use xlink:href="#DejaVuSans-Oblique-30" transform="translate(2830.664062 0)"/>
     <use xlink:href="#DejaVuSans-Oblique-30" transform="translate(2894.287109 0)"/>
    </g>
   </g>
  </g>
 </g>
 <defs>
  <clipPath id="p823aa83f97">
   <rect x="46.5264" y="94.968" width="523.9872" height="690.1776"/>
  </clipPath>
 </defs>
</svg>
