<?xml version="1.0" encoding="utf-8" standalone="no"?>
<!DOCTYPE svg PUBLIC "-//W3C//DTD SVG 1.1//EN"
  "http://www.w3.org/Graphics/SVG/1.1/DTD/svg11.dtd">
<svg xmlns:xlink="http://www.w3.org/1999/xlink" width="617.04pt" height="795.9456pt" viewBox="0 0 617.04 795.9456" xmlns="http://www.w3.org/2000/svg" version="1.1">
 <metadata>
  <rdf:RDF xmlns:dc="http://purl.org/dc/elements/1.1/" xmlns:cc="http://creativecommons.org/ns#" xmlns:rdf="http://www.w3.org/1999/02/22-rdf-syntax-ns#">
   <cc:Work>
    <dc:type rdf:resource="http://purl.org/dc/dcmitype/StillImage"/>
    <dc:date>2026-05-18T18:02:13.934932</dc:date>
    <dc:format>image/svg+xml</dc:format>
    <dc:creator>
     <cc:Agent>
      <dc:title>Matplotlib v3.10.9, https://matplotlib.org/</dc:title>
     </cc:Agent>
    </dc:creator>
   </cc:Work>
  </rdf:RDF>
 </metadata>
 <defs>
  <style type="text/css">*{stroke-linejoin: round; stroke-linecap: butt}</style>
 </defs>
 <g id="figure_1">
  <g id="patch_1">
   <path d="M -0 795.9456 
L 617.04 795.9456 
L 617.04 -0 
L -0 -0 
z
" style="fill: #ffffff"/>
  </g>
  <g id="axes_1">
   <g id="text_1">
    <!-- Vedic Nikhilam -->
    <g style="fill: #0b3d91" transform="translate(224.962187 42.83167) scale(0.2 -0.2)">
     <defs>
      <path id="DejaVuSans-Bold-56" d="M 31 4666 
L 1241 4666 
L 2478 1222 
L 3713 4666 
L 4922 4666 
L 3194 0 
L 1759 0 
L 31 4666 
z
" transform="scale(0.015625)"/>
      <path id="DejaVuSans-Bold-65" d="M 4031 1759 
L 4031 1441 
L 1416 1441 
Q 1456 1047 1700 850 
Q 1944 653 2381 653 
Q 2734 653 3104 758 
Q 3475 863 3866 1075 
L 3866 213 
Q 3469 63 3072 -14 
Q 2675 -91 2278 -91 
Q 1328 -91 801 392 
Q 275 875 275 1747 
Q 275 2603 792 3093 
Q 1309 3584 2216 3584 
Q 3041 3584 3536 3087 
Q 4031 2591 4031 1759 
z
M 2881 2131 
Q 2881 2450 2695 2645 
Q 2509 2841 2209 2841 
Q 1884 2841 1681 2658 
Q 1478 2475 1428 2131 
L 2881 2131 
z
" transform="scale(0.015625)"/>
      <path id="DejaVuSans-Bold-64" d="M 2919 2988 
L 2919 4863 
L 4044 4863 
L 4044 0 
L 2919 0 
L 2919 506 
Q 2688 197 2409 53 
Q 2131 -91 1766 -91 
Q 1119 -91 703 423 
Q 288 938 288 1747 
Q 288 2556 703 3070 
Q 1119 3584 1766 3584 
Q 2128 3584 2408 3439 
Q 2688 3294 2919 2988 
z
M 2181 722 
Q 2541 722 2730 984 
Q 2919 1247 2919 1747 
Q 2919 2247 2730 2509 
Q 2541 2772 2181 2772 
Q 1825 2772 1636 2509 
Q 1447 2247 1447 1747 
Q 1447 1247 1636 984 
Q 1825 722 2181 722 
z
" transform="scale(0.015625)"/>
      <path id="DejaVuSans-Bold-69" d="M 538 3500 
L 1656 3500 
L 1656 0 
L 538 0 
L 538 3500 
z
M 538 4863 
L 1656 4863 
L 1656 3950 
L 538 3950 
L 538 4863 
z
" transform="scale(0.015625)"/>
      <path id="DejaVuSans-Bold-63" d="M 3366 3391 
L 3366 2478 
Q 3138 2634 2908 2709 
Q 2678 2784 2431 2784 
Q 1963 2784 1702 2511 
Q 1441 2238 1441 1747 
Q 1441 1256 1702 982 
Q 1963 709 2431 709 
Q 2694 709 2930 787 
Q 3166 866 3366 1019 
L 3366 103 
Q 3103 6 2833 -42 
Q 2563 -91 2291 -91 
Q 1344 -91 809 395 
Q 275 881 275 1747 
Q 275 2613 809 3098 
Q 1344 3584 2291 3584 
Q 2566 3584 2833 3536 
Q 3100 3488 3366 3391 
z
" transform="scale(0.015625)"/>
      <path id="DejaVuSans-Bold-20" transform="scale(0.015625)"/>
      <path id="DejaVuSans-Bold-4e" d="M 588 4666 
L 1931 4666 
L 3628 1466 
L 3628 4666 
L 4769 4666 
L 4769 0 
L 3425 0 
L 1728 3200 
L 1728 0 
L 588 0 
L 588 4666 
z
" transform="scale(0.015625)"/>
      <path id="DejaVuSans-Bold-6b" d="M 538 4863 
L 1656 4863 
L 1656 2216 
L 2944 3500 
L 4244 3500 
L 2534 1894 
L 4378 0 
L 3022 0 
L 1656 1459 
L 1656 0 
L 538 0 
L 538 4863 
z
" transform="scale(0.015625)"/>
      <path id="DejaVuSans-Bold-68" d="M 4056 2131 
L 4056 0 
L 2931 0 
L 2931 347 
L 2931 1625 
Q 2931 2084 2911 2256 
Q 2891 2428 2841 2509 
Q 2775 2619 2662 2680 
Q 2550 2741 2406 2741 
Q 2056 2741 1856 2470 
Q 1656 2200 1656 1722 
L 1656 0 
L 538 0 
L 538 4863 
L 1656 4863 
L 1656 2988 
Q 1909 3294 2193 3439 
Q 2478 3584 2822 3584 
Q 3428 3584 3742 3212 
Q 4056 2841 4056 2131 
z
" transform="scale(0.015625)"/>
      <path id="DejaVuSans-Bold-6c" d="M 538 4863 
L 1656 4863 
L 1656 0 
L 538 0 
L 538 4863 
z
" transform="scale(0.015625)"/>
      <path id="DejaVuSans-Bold-61" d="M 2106 1575 
Q 1756 1575 1579 1456 
Q 1403 1338 1403 1106 
Q 1403 894 1545 773 
Q 1688 653 1941 653 
Q 2256 653 2472 879 
Q 2688 1106 2688 1447 
L 2688 1575 
L 2106 1575 
z
M 3816 1997 
L 3816 0 
L 2688 0 
L 2688 519 
Q 2463 200 2181 54 
Q 1900 -91 1497 -91 
Q 953 -91 614 226 
Q 275 544 275 1050 
Q 275 1666 698 1953 
Q 1122 2241 2028 2241 
L 2688 2241 
L 2688 2328 
Q 2688 2594 2478 2717 
Q 2269 2841 1825 2841 
Q 1466 2841 1156 2769 
Q 847 2697 581 2553 
L 581 3406 
Q 941 3494 1303 3539 
Q 1666 3584 2028 3584 
Q 2975 3584 3395 3211 
Q 3816 2838 3816 1997 
z
" transform="scale(0.015625)"/>
      <path id="DejaVuSans-Bold-6d" d="M 3781 2919 
Q 3994 3244 4286 3414 
Q 4578 3584 4928 3584 
Q 5531 3584 5847 3212 
Q 6163 2841 6163 2131 
L 6163 0 
L 5038 0 
L 5038 1825 
Q 5041 1866 5042 1909 
Q 5044 1953 5044 2034 
Q 5044 2406 4934 2573 
Q 4825 2741 4581 2741 
Q 4263 2741 4089 2478 
Q 3916 2216 3909 1719 
L 3909 0 
L 2784 0 
L 2784 1825 
Q 2784 2406 2684 2573 
Q 2584 2741 2328 2741 
Q 2006 2741 1831 2477 
Q 1656 2213 1656 1722 
L 1656 0 
L 531 0 
L 531 3500 
L 1656 3500 
L 1656 2988 
Q 1863 3284 2130 3434 
Q 2397 3584 2719 3584 
Q 3081 3584 3359 3409 
Q 3638 3234 3781 2919 
z
" transform="scale(0.015625)"/>
     </defs>
     <use xlink:href="#DejaVuSans-Bold-56"/>
     <use xlink:href="#DejaVuSans-Bold-65" transform="translate(71.892578 0)"/>
     <use xlink:href="#DejaVuSans-Bold-64" transform="translate(139.714844 0)"/>
     <use xlink:href="#DejaVuSans-Bold-69" transform="translate(211.296875 0)"/>
     <use xlink:href="#DejaVuSans-Bold-63" transform="translate(245.574219 0)"/>
     <use xlink:href="#DejaVuSans-Bold-20" transform="translate(304.851562 0)"/>
     <use xlink:href="#DejaVuSans-Bold-4e" transform="translate(339.666016 0)"/>
     <use xlink:href="#DejaVuSans-Bold-69" transform="translate(423.357422 0)"/>
     <use xlink:href="#DejaVuSans-Bold-6b" transform="translate(457.634766 0)"/>
     <use xlink:href="#DejaVuSans-Bold-68" transform="translate(524.138672 0)"/>
     <use xlink:href="#DejaVuSans-Bold-69" transform="translate(595.330078 0)"/>
     <use xlink:href="#DejaVuSans-Bold-6c" transform="translate(629.607422 0)"/>
     <use xlink:href="#DejaVuSans-Bold-61" transform="translate(663.884766 0)"/>
     <use xlink:href="#DejaVuSans-Bold-6d" transform="translate(731.365234 0)"/>
    </g>
   </g>
   <g id="text_2">
    <!-- Lightning trick for 6×7, 7×8, 8×9 (India) -->
    <g style="fill: #6e7781" transform="translate(196.490156 69.807033) scale(0.11 -0.11)">
     <defs>
      <path id="DejaVuSans-Oblique-4c" d="M 1075 4666 
L 1709 4666 
L 909 525 
L 3181 525 
L 3078 0 
L 172 0 
L 1075 4666 
z
" transform="scale(0.015625)"/>
      <path id="DejaVuSans-Oblique-69" d="M 1172 4863 
L 1747 4863 
L 1606 4134 
L 1031 4134 
L 1172 4863 
z
M 909 3500 
L 1484 3500 
L 800 0 
L 225 0 
L 909 3500 
z
" transform="scale(0.015625)"/>
      <path id="DejaVuSans-Oblique-67" d="M 3816 3500 
L 3219 434 
Q 3047 -456 2561 -893 
Q 2075 -1331 1253 -1331 
Q 950 -1331 690 -1286 
Q 431 -1241 206 -1147 
L 313 -588 
Q 525 -725 762 -790 
Q 1000 -856 1269 -856 
Q 1816 -856 2167 -557 
Q 2519 -259 2631 300 
L 2681 563 
Q 2441 288 2122 144 
Q 1803 0 1434 0 
Q 903 0 598 351 
Q 294 703 294 1319 
Q 294 1803 478 2267 
Q 663 2731 997 3091 
Q 1219 3328 1514 3456 
Q 1809 3584 2131 3584 
Q 2484 3584 2746 3420 
Q 3009 3256 3138 2956 
L 3238 3500 
L 3816 3500 
z
M 2950 2216 
Q 2950 2641 2750 2872 
Q 2550 3103 2181 3103 
Q 1953 3103 1747 3012 
Q 1541 2922 1394 2759 
Q 1156 2491 1023 2127 
Q 891 1763 891 1375 
Q 891 944 1092 712 
Q 1294 481 1672 481 
Q 2219 481 2584 976 
Q 2950 1472 2950 2216 
z
" transform="scale(0.015625)"/>
      <path id="DejaVuSans-Oblique-68" d="M 3566 2113 
L 3156 0 
L 2578 0 
L 2988 2091 
Q 3016 2238 3031 2350 
Q 3047 2463 3047 2528 
Q 3047 2791 2881 2937 
Q 2716 3084 2419 3084 
Q 1956 3084 1617 2771 
Q 1278 2459 1178 1941 
L 800 0 
L 225 0 
L 1172 4863 
L 1747 4863 
L 1375 2950 
Q 1594 3244 1934 3414 
Q 2275 3584 2650 3584 
Q 3113 3584 3367 3334 
Q 3622 3084 3622 2631 
Q 3622 2519 3608 2391 
Q 3594 2263 3566 2113 
z
" transform="scale(0.015625)"/>
      <path id="DejaVuSans-Oblique-74" d="M 2706 3500 
L 2619 3053 
L 1472 3053 
L 1100 1153 
Q 1081 1047 1072 975 
Q 1063 903 1063 863 
Q 1063 663 1183 572 
Q 1303 481 1569 481 
L 2150 481 
L 2053 0 
L 1503 0 
Q 991 0 739 200 
Q 488 400 488 806 
Q 488 878 497 964 
Q 506 1050 525 1153 
L 897 3053 
L 409 3053 
L 500 3500 
L 978 3500 
L 1172 4494 
L 1747 4494 
L 1556 3500 
L 2706 3500 
z
" transform="scale(0.015625)"/>
      <path id="DejaVuSans-Oblique-6e" d="M 3566 2113 
L 3156 0 
L 2578 0 
L 2988 2091 
Q 3016 2238 3031 2350 
Q 3047 2463 3047 2528 
Q 3047 2791 2881 2937 
Q 2716 3084 2419 3084 
Q 1956 3084 1622 2776 
Q 1288 2469 1184 1941 
L 800 0 
L 225 0 
L 903 3500 
L 1478 3500 
L 1363 2950 
Q 1603 3253 1940 3418 
Q 2278 3584 2650 3584 
Q 3113 3584 3367 3334 
Q 3622 3084 3622 2631 
Q 3622 2519 3608 2391 
Q 3594 2263 3566 2113 
z
" transform="scale(0.015625)"/>
      <path id="DejaVuSans-Oblique-20" transform="scale(0.015625)"/>
      <path id="DejaVuSans-Oblique-72" d="M 2853 2969 
Q 2766 3016 2653 3041 
Q 2541 3066 2413 3066 
Q 1953 3066 1609 2717 
Q 1266 2369 1153 1784 
L 800 0 
L 225 0 
L 909 3500 
L 1484 3500 
L 1375 2956 
Q 1603 3259 1920 3421 
Q 2238 3584 2597 3584 
Q 2691 3584 2781 3573 
Q 2872 3563 2963 3538 
L 2853 2969 
z
" transform="scale(0.015625)"/>
      <path id="DejaVuSans-Oblique-63" d="M 3431 3366 
L 3316 2797 
Q 3109 2947 2876 3022 
Q 2644 3097 2394 3097 
Q 2119 3097 1870 3000 
Q 1622 2903 1453 2725 
Q 1184 2453 1037 2087 
Q 891 1722 891 1331 
Q 891 859 1127 628 
Q 1363 397 1844 397 
Q 2081 397 2348 469 
Q 2616 541 2906 684 
L 2797 116 
Q 2547 13 2283 -39 
Q 2019 -91 1741 -91 
Q 1044 -91 669 257 
Q 294 606 294 1253 
Q 294 1797 489 2255 
Q 684 2713 1069 3078 
Q 1331 3328 1684 3456 
Q 2038 3584 2456 3584 
Q 2700 3584 2940 3529 
Q 3181 3475 3431 3366 
z
" transform="scale(0.015625)"/>
      <path id="DejaVuSans-Oblique-6b" d="M 1172 4863 
L 1747 4863 
L 1197 2028 
L 3169 3500 
L 3916 3500 
L 1716 1825 
L 3322 0 
L 2625 0 
L 1131 1709 
L 800 0 
L 225 0 
L 1172 4863 
z
" transform="scale(0.015625)"/>
      <path id="DejaVuSans-Oblique-66" d="M 3059 4863 
L 2969 4384 
L 2419 4384 
Q 2106 4384 1964 4261 
Q 1822 4138 1753 3809 
L 1691 3500 
L 2638 3500 
L 2553 3053 
L 1606 3053 
L 1013 0 
L 434 0 
L 1031 3053 
L 481 3053 
L 563 3500 
L 1113 3500 
L 1159 3744 
Q 1278 4363 1576 4613 
Q 1875 4863 2516 4863 
L 3059 4863 
z
" transform="scale(0.015625)"/>
      <path id="DejaVuSans-Oblique-6f" d="M 1625 -91 
Q 1009 -91 651 289 
Q 294 669 294 1325 
Q 294 1706 417 2101 
Q 541 2497 738 2766 
Q 1047 3184 1428 3384 
Q 1809 3584 2291 3584 
Q 2888 3584 3255 3212 
Q 3622 2841 3622 2241 
Q 3622 1825 3500 1412 
Q 3378 1000 3181 728 
Q 2875 309 2494 109 
Q 2113 -91 1625 -91 
z
M 891 1344 
Q 891 869 1089 633 
Q 1288 397 1691 397 
Q 2269 397 2648 901 
Q 3028 1406 3028 2181 
Q 3028 2634 2825 2865 
Q 2622 3097 2228 3097 
Q 1903 3097 1650 2945 
Q 1397 2794 1197 2484 
Q 1050 2253 970 1956 
Q 891 1659 891 1344 
z
" transform="scale(0.015625)"/>
      <path id="DejaVuSans-Oblique-36" d="M 2938 1728 
Q 2938 2125 2734 2354 
Q 2531 2584 2181 2584 
Q 1697 2584 1367 2211 
Q 1038 1838 1038 1288 
Q 1038 875 1239 642 
Q 1441 409 1797 409 
Q 2284 409 2611 792 
Q 2938 1175 2938 1728 
z
M 3788 4556 
L 3681 3981 
Q 3500 4100 3265 4162 
Q 3031 4225 2766 4225 
Q 2119 4225 1726 3819 
Q 1334 3413 1141 2547 
Q 1369 2813 1670 2948 
Q 1972 3084 2322 3084 
Q 2894 3084 3233 2754 
Q 3572 2425 3572 1869 
Q 3572 1413 3405 1020 
Q 3238 628 2919 331 
Q 2700 128 2409 18 
Q 2119 -91 1791 -91 
Q 1147 -91 775 318 
Q 403 728 403 1441 
Q 403 2103 573 2717 
Q 744 3331 1050 3781 
Q 1372 4256 1830 4503 
Q 2288 4750 2841 4750 
Q 3084 4750 3321 4701 
Q 3559 4653 3788 4556 
z
" transform="scale(0.015625)"/>
      <path id="DejaVuSans-Oblique-d7" d="M 4488 3438 
L 3059 2003 
L 4488 575 
L 4116 197 
L 2681 1631 
L 1247 197 
L 878 575 
L 2303 2003 
L 878 3438 
L 1247 3816 
L 2681 2381 
L 4116 3816 
L 4488 3438 
z
" transform="scale(0.015625)"/>
      <path id="DejaVuSans-Oblique-37" d="M 819 4666 
L 4013 4666 
L 3956 4397 
L 1288 0 
L 594 0 
L 3116 4134 
L 716 4134 
L 819 4666 
z
" transform="scale(0.015625)"/>
      <path id="DejaVuSans-Oblique-2c" d="M 575 794 
L 1234 794 
L 1131 256 
L 422 -744 
L 19 -744 
L 469 256 
L 575 794 
z
" transform="scale(0.015625)"/>
      <path id="DejaVuSans-Oblique-38" d="M 2847 1416 
Q 2847 1769 2600 1992 
Q 2353 2216 1953 2216 
Q 1466 2216 1148 1923 
Q 831 1631 831 1184 
Q 831 828 1073 618 
Q 1316 409 1728 409 
Q 2219 409 2533 693 
Q 2847 978 2847 1416 
z
M 3169 3591 
Q 3169 3888 2950 4069 
Q 2731 4250 2369 4250 
Q 1941 4250 1664 4009 
Q 1388 3769 1388 3406 
Q 1388 3094 1605 2903 
Q 1822 2713 2181 2713 
Q 2613 2713 2891 2961 
Q 3169 3209 3169 3591 
z
M 2741 2456 
Q 3094 2322 3281 2050 
Q 3469 1778 3469 1394 
Q 3469 747 2969 328 
Q 2469 -91 1678 -91 
Q 1006 -91 609 239 
Q 213 569 213 1119 
Q 213 1619 553 2008 
Q 894 2397 1441 2503 
Q 1113 2616 941 2852 
Q 769 3088 769 3425 
Q 769 3991 1239 4370 
Q 1709 4750 2431 4750 
Q 3034 4750 3414 4442 
Q 3794 4134 3794 3659 
Q 3794 3247 3511 2923 
Q 3228 2600 2741 2456 
z
" transform="scale(0.015625)"/>
      <path id="DejaVuSans-Oblique-39" d="M 281 103 
L 397 678 
Q 578 559 809 496 
Q 1041 434 1306 434 
Q 1953 434 2348 843 
Q 2744 1253 2938 2119 
Q 2706 1853 2401 1714 
Q 2097 1575 1747 1575 
Q 1178 1575 842 1904 
Q 506 2234 506 2791 
Q 506 3247 672 3639 
Q 838 4031 1159 4325 
Q 1378 4531 1665 4640 
Q 1953 4750 2278 4750 
Q 2925 4750 3300 4339 
Q 3675 3928 3675 3219 
Q 3675 2559 3501 1943 
Q 3328 1328 3022 878 
Q 2697 403 2240 156 
Q 1784 -91 1228 -91 
Q 988 -91 748 -42 
Q 509 6 281 103 
z
M 1131 2938 
Q 1131 2541 1337 2308 
Q 1544 2075 1894 2075 
Q 2378 2075 2706 2447 
Q 3034 2819 3034 3372 
Q 3034 3784 2831 4017 
Q 2628 4250 2272 4250 
Q 1788 4250 1459 3870 
Q 1131 3491 1131 2938 
z
" transform="scale(0.015625)"/>
      <path id="DejaVuSans-Oblique-28" d="M 2731 4856 
Q 1903 3822 1495 2892 
Q 1088 1963 1088 1100 
Q 1088 606 1206 120 
Q 1325 -366 1563 -844 
L 1063 -844 
Q 775 -306 634 201 
Q 494 709 494 1197 
Q 494 2125 923 3036 
Q 1353 3947 2222 4856 
L 2731 4856 
z
" transform="scale(0.015625)"/>
      <path id="DejaVuSans-Oblique-49" d="M 1081 4666 
L 1716 4666 
L 806 0 
L 172 0 
L 1081 4666 
z
" transform="scale(0.015625)"/>
      <path id="DejaVuSans-Oblique-64" d="M 2675 525 
Q 2444 222 2128 65 
Q 1813 -91 1428 -91 
Q 903 -91 598 267 
Q 294 625 294 1247 
Q 294 1766 478 2236 
Q 663 2706 1013 3078 
Q 1244 3325 1534 3454 
Q 1825 3584 2144 3584 
Q 2481 3584 2739 3421 
Q 2997 3259 3138 2956 
L 3513 4863 
L 4091 4863 
L 3144 0 
L 2566 0 
L 2675 525 
z
M 891 1350 
Q 891 897 1095 644 
Q 1300 391 1663 391 
Q 1931 391 2161 520 
Q 2391 650 2566 903 
Q 2750 1166 2856 1509 
Q 2963 1853 2963 2188 
Q 2963 2622 2758 2865 
Q 2553 3109 2194 3109 
Q 1922 3109 1687 2981 
Q 1453 2853 1288 2613 
Q 1106 2353 998 2009 
Q 891 1666 891 1350 
z
" transform="scale(0.015625)"/>
      <path id="DejaVuSans-Oblique-61" d="M 3438 1997 
L 3047 0 
L 2472 0 
L 2578 531 
Q 2325 219 2001 64 
Q 1678 -91 1281 -91 
Q 834 -91 548 182 
Q 263 456 263 884 
Q 263 1497 752 1853 
Q 1241 2209 2100 2209 
L 2900 2209 
L 2931 2363 
Q 2938 2388 2941 2417 
Q 2944 2447 2944 2509 
Q 2944 2788 2717 2942 
Q 2491 3097 2081 3097 
Q 1800 3097 1504 3025 
Q 1209 2953 897 2809 
L 997 3341 
Q 1322 3463 1633 3523 
Q 1944 3584 2234 3584 
Q 2853 3584 3176 3315 
Q 3500 3047 3500 2534 
Q 3500 2431 3484 2292 
Q 3469 2153 3438 1997 
z
M 2816 1759 
L 2241 1759 
Q 1534 1759 1195 1570 
Q 856 1381 856 984 
Q 856 709 1029 553 
Q 1203 397 1509 397 
Q 1978 397 2328 733 
Q 2678 1069 2791 1631 
L 2816 1759 
z
" transform="scale(0.015625)"/>
      <path id="DejaVuSans-Oblique-29" d="M -397 -844 
Q 434 191 840 1120 
Q 1247 2050 1247 2913 
Q 1247 3406 1130 3892 
Q 1013 4378 775 4856 
L 1275 4856 
Q 1563 4316 1703 3812 
Q 1844 3309 1844 2822 
Q 1844 1891 1411 973 
Q 978 56 116 -844 
L -397 -844 
z
" transform="scale(0.015625)"/>
     </defs>
     <use xlink:href="#DejaVuSans-Oblique-4c"/>
     <use xlink:href="#DejaVuSans-Oblique-69" transform="translate(55.712891 0)"/>
     <use xlink:href="#DejaVuSans-Oblique-67" transform="translate(83.496094 0)"/>
     <use xlink:href="#DejaVuSans-Oblique-68" transform="translate(146.972656 0)"/>
     <use xlink:href="#DejaVuSans-Oblique-74" transform="translate(210.351562 0)"/>
     <use xlink:href="#DejaVuSans-Oblique-6e" transform="translate(249.560547 0)"/>
     <use xlink:href="#DejaVuSans-Oblique-69" transform="translate(312.939453 0)"/>
     <use xlink:href="#DejaVuSans-Oblique-6e" transform="translate(340.722656 0)"/>
     <use xlink:href="#DejaVuSans-Oblique-67" transform="translate(404.101562 0)"/>
     <use xlink:href="#DejaVuSans-Oblique-20" transform="translate(467.578125 0)"/>
     <use xlink:href="#DejaVuSans-Oblique-74" transform="translate(499.365234 0)"/>
     <use xlink:href="#DejaVuSans-Oblique-72" transform="translate(538.574219 0)"/>
     <use xlink:href="#DejaVuSans-Oblique-69" transform="translate(579.6875 0)"/>
     <use xlink:href="#DejaVuSans-Oblique-63" transform="translate(607.470703 0)"/>
     <use xlink:href="#DejaVuSans-Oblique-6b" transform="translate(662.451172 0)"/>
     <use xlink:href="#DejaVuSans-Oblique-20" transform="translate(720.361328 0)"/>
     <use xlink:href="#DejaVuSans-Oblique-66" transform="translate(752.148438 0)"/>
     <use xlink:href="#DejaVuSans-Oblique-6f" transform="translate(787.353516 0)"/>
     <use xlink:href="#DejaVuSans-Oblique-72" transform="translate(848.535156 0)"/>
     <use xlink:href="#DejaVuSans-Oblique-20" transform="translate(889.648438 0)"/>
     <use xlink:href="#DejaVuSans-Oblique-36" transform="translate(921.435547 0)"/>
     <use xlink:href="#DejaVuSans-Oblique-d7" transform="translate(985.058594 0)"/>
     <use xlink:href="#DejaVuSans-Oblique-37" transform="translate(1068.847656 0)"/>
     <use xlink:href="#DejaVuSans-Oblique-2c" transform="translate(1132.470703 0)"/>
     <use xlink:href="#DejaVuSans-Oblique-20" transform="translate(1164.257812 0)"/>
     <use xlink:href="#DejaVuSans-Oblique-37" transform="translate(1196.044922 0)"/>
     <use xlink:href="#DejaVuSans-Oblique-d7" transform="translate(1259.667969 0)"/>
     <use xlink:href="#DejaVuSans-Oblique-38" transform="translate(1343.457031 0)"/>
     <use xlink:href="#DejaVuSans-Oblique-2c" transform="translate(1407.080078 0)"/>
     <use xlink:href="#DejaVuSans-Oblique-20" transform="translate(1438.867188 0)"/>
     <use xlink:href="#DejaVuSans-Oblique-38" transform="translate(1470.654297 0)"/>
     <use xlink:href="#DejaVuSans-Oblique-d7" transform="translate(1534.277344 0)"/>
     <use xlink:href="#DejaVuSans-Oblique-39" transform="translate(1618.066406 0)"/>
     <use xlink:href="#DejaVuSans-Oblique-20" transform="translate(1681.689453 0)"/>
     <use xlink:href="#DejaVuSans-Oblique-28" transform="translate(1713.476562 0)"/>
     <use xlink:href="#DejaVuSans-Oblique-49" transform="translate(1752.490234 0)"/>
     <use xlink:href="#DejaVuSans-Oblique-6e" transform="translate(1781.982422 0)"/>
     <use xlink:href="#DejaVuSans-Oblique-64" transform="translate(1845.361328 0)"/>
     <use xlink:href="#DejaVuSans-Oblique-69" transform="translate(1908.837891 0)"/>
     <use xlink:href="#DejaVuSans-Oblique-61" transform="translate(1936.621094 0)"/>
     <use xlink:href="#DejaVuSans-Oblique-29" transform="translate(1997.900391 0)"/>
    </g>
   </g>
  </g>
  <g id="axes_2">
   <g id="text_3">
    <g id="patch_2">
     <path d="M 138.9525 169.631265 
L 478.0875 169.631265 
Q 483.8375 169.631265 483.8375 163.881265 
L 483.8375 136.378656 
Q 483.8375 130.628656 478.0875 130.628656 
L 138.9525 130.628656 
Q 133.2025 130.628656 133.2025 136.378656 
L 133.2025 163.881265 
Q 133.2025 169.631265 138.9525 169.631265 
z
" style="fill: #fffbe6; stroke: #f0a500; stroke-width: 1.5; stroke-linejoin: miter"/>
    </g>
    <!-- For two numbers near 10, write the DIFFERENCES from 10. -->
    <g style="fill: #1d1d1f" transform="translate(138.9525 145.116859) scale(0.115 -0.115)">
     <defs>
      <path id="DejaVuSans-46" d="M 628 4666 
L 3309 4666 
L 3309 4134 
L 1259 4134 
L 1259 2759 
L 3109 2759 
L 3109 2228 
L 1259 2228 
L 1259 0 
L 628 0 
L 628 4666 
z
" transform="scale(0.015625)"/>
      <path id="DejaVuSans-6f" d="M 1959 3097 
Q 1497 3097 1228 2736 
Q 959 2375 959 1747 
Q 959 1119 1226 758 
Q 1494 397 1959 397 
Q 2419 397 2687 759 
Q 2956 1122 2956 1747 
Q 2956 2369 2687 2733 
Q 2419 3097 1959 3097 
z
M 1959 3584 
Q 2709 3584 3137 3096 
Q 3566 2609 3566 1747 
Q 3566 888 3137 398 
Q 2709 -91 1959 -91 
Q 1206 -91 779 398 
Q 353 888 353 1747 
Q 353 2609 779 3096 
Q 1206 3584 1959 3584 
z
" transform="scale(0.015625)"/>
      <path id="DejaVuSans-72" d="M 2631 2963 
Q 2534 3019 2420 3045 
Q 2306 3072 2169 3072 
Q 1681 3072 1420 2755 
Q 1159 2438 1159 1844 
L 1159 0 
L 581 0 
L 581 3500 
L 1159 3500 
L 1159 2956 
Q 1341 3275 1631 3429 
Q 1922 3584 2338 3584 
Q 2397 3584 2469 3576 
Q 2541 3569 2628 3553 
L 2631 2963 
z
" transform="scale(0.015625)"/>
      <path id="DejaVuSans-20" transform="scale(0.015625)"/>
      <path id="DejaVuSans-74" d="M 1172 4494 
L 1172 3500 
L 2356 3500 
L 2356 3053 
L 1172 3053 
L 1172 1153 
Q 1172 725 1289 603 
Q 1406 481 1766 481 
L 2356 481 
L 2356 0 
L 1766 0 
Q 1100 0 847 248 
Q 594 497 594 1153 
L 594 3053 
L 172 3053 
L 172 3500 
L 594 3500 
L 594 4494 
L 1172 4494 
z
" transform="scale(0.015625)"/>
      <path id="DejaVuSans-77" d="M 269 3500 
L 844 3500 
L 1563 769 
L 2278 3500 
L 2956 3500 
L 3675 769 
L 4391 3500 
L 4966 3500 
L 4050 0 
L 3372 0 
L 2619 2869 
L 1863 0 
L 1184 0 
L 269 3500 
z
" transform="scale(0.015625)"/>
      <path id="DejaVuSans-6e" d="M 3513 2113 
L 3513 0 
L 2938 0 
L 2938 2094 
Q 2938 2591 2744 2837 
Q 2550 3084 2163 3084 
Q 1697 3084 1428 2787 
Q 1159 2491 1159 1978 
L 1159 0 
L 581 0 
L 581 3500 
L 1159 3500 
L 1159 2956 
Q 1366 3272 1645 3428 
Q 1925 3584 2291 3584 
Q 2894 3584 3203 3211 
Q 3513 2838 3513 2113 
z
" transform="scale(0.015625)"/>
      <path id="DejaVuSans-75" d="M 544 1381 
L 544 3500 
L 1119 3500 
L 1119 1403 
Q 1119 906 1312 657 
Q 1506 409 1894 409 
Q 2359 409 2629 706 
Q 2900 1003 2900 1516 
L 2900 3500 
L 3475 3500 
L 3475 0 
L 2900 0 
L 2900 538 
Q 2691 219 2414 64 
Q 2138 -91 1772 -91 
Q 1169 -91 856 284 
Q 544 659 544 1381 
z
M 1991 3584 
L 1991 3584 
z
" transform="scale(0.015625)"/>
      <path id="DejaVuSans-6d" d="M 3328 2828 
Q 3544 3216 3844 3400 
Q 4144 3584 4550 3584 
Q 5097 3584 5394 3201 
Q 5691 2819 5691 2113 
L 5691 0 
L 5113 0 
L 5113 2094 
Q 5113 2597 4934 2840 
Q 4756 3084 4391 3084 
Q 3944 3084 3684 2787 
Q 3425 2491 3425 1978 
L 3425 0 
L 2847 0 
L 2847 2094 
Q 2847 2600 2669 2842 
Q 2491 3084 2119 3084 
Q 1678 3084 1418 2786 
Q 1159 2488 1159 1978 
L 1159 0 
L 581 0 
L 581 3500 
L 1159 3500 
L 1159 2956 
Q 1356 3278 1631 3431 
Q 1906 3584 2284 3584 
Q 2666 3584 2933 3390 
Q 3200 3197 3328 2828 
z
" transform="scale(0.015625)"/>
      <path id="DejaVuSans-62" d="M 3116 1747 
Q 3116 2381 2855 2742 
Q 2594 3103 2138 3103 
Q 1681 3103 1420 2742 
Q 1159 2381 1159 1747 
Q 1159 1113 1420 752 
Q 1681 391 2138 391 
Q 2594 391 2855 752 
Q 3116 1113 3116 1747 
z
M 1159 2969 
Q 1341 3281 1617 3432 
Q 1894 3584 2278 3584 
Q 2916 3584 3314 3078 
Q 3713 2572 3713 1747 
Q 3713 922 3314 415 
Q 2916 -91 2278 -91 
Q 1894 -91 1617 61 
Q 1341 213 1159 525 
L 1159 0 
L 581 0 
L 581 4863 
L 1159 4863 
L 1159 2969 
z
" transform="scale(0.015625)"/>
      <path id="DejaVuSans-65" d="M 3597 1894 
L 3597 1613 
L 953 1613 
Q 991 1019 1311 708 
Q 1631 397 2203 397 
Q 2534 397 2845 478 
Q 3156 559 3463 722 
L 3463 178 
Q 3153 47 2828 -22 
Q 2503 -91 2169 -91 
Q 1331 -91 842 396 
Q 353 884 353 1716 
Q 353 2575 817 3079 
Q 1281 3584 2069 3584 
Q 2775 3584 3186 3129 
Q 3597 2675 3597 1894 
z
M 3022 2063 
Q 3016 2534 2758 2815 
Q 2500 3097 2075 3097 
Q 1594 3097 1305 2825 
Q 1016 2553 972 2059 
L 3022 2063 
z
" transform="scale(0.015625)"/>
      <path id="DejaVuSans-73" d="M 2834 3397 
L 2834 2853 
Q 2591 2978 2328 3040 
Q 2066 3103 1784 3103 
Q 1356 3103 1142 2972 
Q 928 2841 928 2578 
Q 928 2378 1081 2264 
Q 1234 2150 1697 2047 
L 1894 2003 
Q 2506 1872 2764 1633 
Q 3022 1394 3022 966 
Q 3022 478 2636 193 
Q 2250 -91 1575 -91 
Q 1294 -91 989 -36 
Q 684 19 347 128 
L 347 722 
Q 666 556 975 473 
Q 1284 391 1588 391 
Q 1994 391 2212 530 
Q 2431 669 2431 922 
Q 2431 1156 2273 1281 
Q 2116 1406 1581 1522 
L 1381 1569 
Q 847 1681 609 1914 
Q 372 2147 372 2553 
Q 372 3047 722 3315 
Q 1072 3584 1716 3584 
Q 2034 3584 2315 3537 
Q 2597 3491 2834 3397 
z
" transform="scale(0.015625)"/>
      <path id="DejaVuSans-61" d="M 2194 1759 
Q 1497 1759 1228 1600 
Q 959 1441 959 1056 
Q 959 750 1161 570 
Q 1363 391 1709 391 
Q 2188 391 2477 730 
Q 2766 1069 2766 1631 
L 2766 1759 
L 2194 1759 
z
M 3341 1997 
L 3341 0 
L 2766 0 
L 2766 531 
Q 2569 213 2275 61 
Q 1981 -91 1556 -91 
Q 1019 -91 701 211 
Q 384 513 384 1019 
Q 384 1609 779 1909 
Q 1175 2209 1959 2209 
L 2766 2209 
L 2766 2266 
Q 2766 2663 2505 2880 
Q 2244 3097 1772 3097 
Q 1472 3097 1187 3025 
Q 903 2953 641 2809 
L 641 3341 
Q 956 3463 1253 3523 
Q 1550 3584 1831 3584 
Q 2591 3584 2966 3190 
Q 3341 2797 3341 1997 
z
" transform="scale(0.015625)"/>
      <path id="DejaVuSans-31" d="M 794 531 
L 1825 531 
L 1825 4091 
L 703 3866 
L 703 4441 
L 1819 4666 
L 2450 4666 
L 2450 531 
L 3481 531 
L 3481 0 
L 794 0 
L 794 531 
z
" transform="scale(0.015625)"/>
      <path id="DejaVuSans-30" d="M 2034 4250 
Q 1547 4250 1301 3770 
Q 1056 3291 1056 2328 
Q 1056 1369 1301 889 
Q 1547 409 2034 409 
Q 2525 409 2770 889 
Q 3016 1369 3016 2328 
Q 3016 3291 2770 3770 
Q 2525 4250 2034 4250 
z
M 2034 4750 
Q 2819 4750 3233 4129 
Q 3647 3509 3647 2328 
Q 3647 1150 3233 529 
Q 2819 -91 2034 -91 
Q 1250 -91 836 529 
Q 422 1150 422 2328 
Q 422 3509 836 4129 
Q 1250 4750 2034 4750 
z
" transform="scale(0.015625)"/>
      <path id="DejaVuSans-2c" d="M 750 794 
L 1409 794 
L 1409 256 
L 897 -744 
L 494 -744 
L 750 256 
L 750 794 
z
" transform="scale(0.015625)"/>
      <path id="DejaVuSans-69" d="M 603 3500 
L 1178 3500 
L 1178 0 
L 603 0 
L 603 3500 
z
M 603 4863 
L 1178 4863 
L 1178 4134 
L 603 4134 
L 603 4863 
z
" transform="scale(0.015625)"/>
      <path id="DejaVuSans-68" d="M 3513 2113 
L 3513 0 
L 2938 0 
L 2938 2094 
Q 2938 2591 2744 2837 
Q 2550 3084 2163 3084 
Q 1697 3084 1428 2787 
Q 1159 2491 1159 1978 
L 1159 0 
L 581 0 
L 581 4863 
L 1159 4863 
L 1159 2956 
Q 1366 3272 1645 3428 
Q 1925 3584 2291 3584 
Q 2894 3584 3203 3211 
Q 3513 2838 3513 2113 
z
" transform="scale(0.015625)"/>
      <path id="DejaVuSans-44" d="M 1259 4147 
L 1259 519 
L 2022 519 
Q 2988 519 3436 956 
Q 3884 1394 3884 2338 
Q 3884 3275 3436 3711 
Q 2988 4147 2022 4147 
L 1259 4147 
z
M 628 4666 
L 1925 4666 
Q 3281 4666 3915 4102 
Q 4550 3538 4550 2338 
Q 4550 1131 3912 565 
Q 3275 0 1925 0 
L 628 0 
L 628 4666 
z
" transform="scale(0.015625)"/>
      <path id="DejaVuSans-49" d="M 628 4666 
L 1259 4666 
L 1259 0 
L 628 0 
L 628 4666 
z
" transform="scale(0.015625)"/>
      <path id="DejaVuSans-45" d="M 628 4666 
L 3578 4666 
L 3578 4134 
L 1259 4134 
L 1259 2753 
L 3481 2753 
L 3481 2222 
L 1259 2222 
L 1259 531 
L 3634 531 
L 3634 0 
L 628 0 
L 628 4666 
z
" transform="scale(0.015625)"/>
      <path id="DejaVuSans-52" d="M 2841 2188 
Q 3044 2119 3236 1894 
Q 3428 1669 3622 1275 
L 4263 0 
L 3584 0 
L 2988 1197 
Q 2756 1666 2539 1819 
Q 2322 1972 1947 1972 
L 1259 1972 
L 1259 0 
L 628 0 
L 628 4666 
L 2053 4666 
Q 2853 4666 3247 4331 
Q 3641 3997 3641 3322 
Q 3641 2881 3436 2590 
Q 3231 2300 2841 2188 
z
M 1259 4147 
L 1259 2491 
L 2053 2491 
Q 2509 2491 2742 2702 
Q 2975 2913 2975 3322 
Q 2975 3731 2742 3939 
Q 2509 4147 2053 4147 
L 1259 4147 
z
" transform="scale(0.015625)"/>
      <path id="DejaVuSans-4e" d="M 628 4666 
L 1478 4666 
L 3547 763 
L 3547 4666 
L 4159 4666 
L 4159 0 
L 3309 0 
L 1241 3903 
L 1241 0 
L 628 0 
L 628 4666 
z
" transform="scale(0.015625)"/>
      <path id="DejaVuSans-43" d="M 4122 4306 
L 4122 3641 
Q 3803 3938 3442 4084 
Q 3081 4231 2675 4231 
Q 1875 4231 1450 3742 
Q 1025 3253 1025 2328 
Q 1025 1406 1450 917 
Q 1875 428 2675 428 
Q 3081 428 3442 575 
Q 3803 722 4122 1019 
L 4122 359 
Q 3791 134 3420 21 
Q 3050 -91 2638 -91 
Q 1578 -91 968 557 
Q 359 1206 359 2328 
Q 359 3453 968 4101 
Q 1578 4750 2638 4750 
Q 3056 4750 3426 4639 
Q 3797 4528 4122 4306 
z
" transform="scale(0.015625)"/>
      <path id="DejaVuSans-53" d="M 3425 4513 
L 3425 3897 
Q 3066 4069 2747 4153 
Q 2428 4238 2131 4238 
Q 1616 4238 1336 4038 
Q 1056 3838 1056 3469 
Q 1056 3159 1242 3001 
Q 1428 2844 1947 2747 
L 2328 2669 
Q 3034 2534 3370 2195 
Q 3706 1856 3706 1288 
Q 3706 609 3251 259 
Q 2797 -91 1919 -91 
Q 1588 -91 1214 -16 
Q 841 59 441 206 
L 441 856 
Q 825 641 1194 531 
Q 1563 422 1919 422 
Q 2459 422 2753 634 
Q 3047 847 3047 1241 
Q 3047 1584 2836 1778 
Q 2625 1972 2144 2069 
L 1759 2144 
Q 1053 2284 737 2584 
Q 422 2884 422 3419 
Q 422 4038 858 4394 
Q 1294 4750 2059 4750 
Q 2388 4750 2728 4690 
Q 3069 4631 3425 4513 
z
" transform="scale(0.015625)"/>
      <path id="DejaVuSans-66" d="M 2375 4863 
L 2375 4384 
L 1825 4384 
Q 1516 4384 1395 4259 
Q 1275 4134 1275 3809 
L 1275 3500 
L 2222 3500 
L 2222 3053 
L 1275 3053 
L 1275 0 
L 697 0 
L 697 3053 
L 147 3053 
L 147 3500 
L 697 3500 
L 697 3744 
Q 697 4328 969 4595 
Q 1241 4863 1831 4863 
L 2375 4863 
z
" transform="scale(0.015625)"/>
      <path id="DejaVuSans-2e" d="M 684 794 
L 1344 794 
L 1344 0 
L 684 0 
L 684 794 
z
" transform="scale(0.015625)"/>
     </defs>
     <use xlink:href="#DejaVuSans-46"/>
     <use xlink:href="#DejaVuSans-6f" transform="translate(53.894531 0)"/>
     <use xlink:href="#DejaVuSans-72" transform="translate(115.076172 0)"/>
     <use xlink:href="#DejaVuSans-20" transform="translate(156.189453 0)"/>
     <use xlink:href="#DejaVuSans-74" transform="translate(187.976562 0)"/>
     <use xlink:href="#DejaVuSans-77" transform="translate(227.185547 0)"/>
     <use xlink:href="#DejaVuSans-6f" transform="translate(308.972656 0)"/>
     <use xlink:href="#DejaVuSans-20" transform="translate(370.154297 0)"/>
     <use xlink:href="#DejaVuSans-6e" transform="translate(401.941406 0)"/>
     <use xlink:href="#DejaVuSans-75" transform="translate(465.320312 0)"/>
     <use xlink:href="#DejaVuSans-6d" transform="translate(528.699219 0)"/>
     <use xlink:href="#DejaVuSans-62" transform="translate(626.111328 0)"/>
     <use xlink:href="#DejaVuSans-65" transform="translate(689.587891 0)"/>
     <use xlink:href="#DejaVuSans-72" transform="translate(751.111328 0)"/>
     <use xlink:href="#DejaVuSans-73" transform="translate(792.224609 0)"/>
     <use xlink:href="#DejaVuSans-20" transform="translate(844.324219 0)"/>
     <use xlink:href="#DejaVuSans-6e" transform="translate(876.111328 0)"/>
     <use xlink:href="#DejaVuSans-65" transform="translate(939.490234 0)"/>
     <use xlink:href="#DejaVuSans-61" transform="translate(1001.013672 0)"/>
     <use xlink:href="#DejaVuSans-72" transform="translate(1062.292969 0)"/>
     <use xlink:href="#DejaVuSans-20" transform="translate(1103.40625 0)"/>
     <use xlink:href="#DejaVuSans-31" transform="translate(1135.193359 0)"/>
     <use xlink:href="#DejaVuSans-30" transform="translate(1198.816406 0)"/>
     <use xlink:href="#DejaVuSans-2c" transform="translate(1262.439453 0)"/>
     <use xlink:href="#DejaVuSans-20" transform="translate(1294.226562 0)"/>
     <use xlink:href="#DejaVuSans-77" transform="translate(1326.013672 0)"/>
     <use xlink:href="#DejaVuSans-72" transform="translate(1407.800781 0)"/>
     <use xlink:href="#DejaVuSans-69" transform="translate(1448.914062 0)"/>
     <use xlink:href="#DejaVuSans-74" transform="translate(1476.697266 0)"/>
     <use xlink:href="#DejaVuSans-65" transform="translate(1515.90625 0)"/>
     <use xlink:href="#DejaVuSans-20" transform="translate(1577.429688 0)"/>
     <use xlink:href="#DejaVuSans-74" transform="translate(1609.216797 0)"/>
     <use xlink:href="#DejaVuSans-68" transform="translate(1648.425781 0)"/>
     <use xlink:href="#DejaVuSans-65" transform="translate(1711.804688 0)"/>
     <use xlink:href="#DejaVuSans-20" transform="translate(1773.328125 0)"/>
     <use xlink:href="#DejaVuSans-44" transform="translate(1805.115234 0)"/>
     <use xlink:href="#DejaVuSans-49" transform="translate(1882.117188 0)"/>
     <use xlink:href="#DejaVuSans-46" transform="translate(1911.609375 0)"/>
     <use xlink:href="#DejaVuSans-46" transform="translate(1969.128906 0)"/>
     <use xlink:href="#DejaVuSans-45" transform="translate(2026.648438 0)"/>
     <use xlink:href="#DejaVuSans-52" transform="translate(2089.832031 0)"/>
     <use xlink:href="#DejaVuSans-45" transform="translate(2159.314453 0)"/>
     <use xlink:href="#DejaVuSans-4e" transform="translate(2222.498047 0)"/>
     <use xlink:href="#DejaVuSans-43" transform="translate(2297.302734 0)"/>
     <use xlink:href="#DejaVuSans-45" transform="translate(2367.126953 0)"/>
     <use xlink:href="#DejaVuSans-53" transform="translate(2430.310547 0)"/>
     <use xlink:href="#DejaVuSans-20" transform="translate(2493.787109 0)"/>
     <use xlink:href="#DejaVuSans-66" transform="translate(2525.574219 0)"/>
     <use xlink:href="#DejaVuSans-72" transform="translate(2560.779297 0)"/>
     <use xlink:href="#DejaVuSans-6f" transform="translate(2599.642578 0)"/>
     <use xlink:href="#DejaVuSans-6d" transform="translate(2660.824219 0)"/>
     <use xlink:href="#DejaVuSans-20" transform="translate(2758.236328 0)"/>
     <use xlink:href="#DejaVuSans-31" transform="translate(2790.023438 0)"/>
     <use xlink:href="#DejaVuSans-30" transform="translate(2853.646484 0)"/>
     <use xlink:href="#DejaVuSans-2e" transform="translate(2917.269531 0)"/>
    </g>
    <!-- Tens = cross sum.   Units = product of the differences. -->
    <g style="fill: #1d1d1f" transform="translate(151.532422 161.489625) scale(0.115 -0.115)">
     <defs>
      <path id="DejaVuSans-54" d="M -19 4666 
L 3928 4666 
L 3928 4134 
L 2272 4134 
L 2272 0 
L 1638 0 
L 1638 4134 
L -19 4134 
L -19 4666 
z
" transform="scale(0.015625)"/>
      <path id="DejaVuSans-3d" d="M 678 2906 
L 4684 2906 
L 4684 2381 
L 678 2381 
L 678 2906 
z
M 678 1631 
L 4684 1631 
L 4684 1100 
L 678 1100 
L 678 1631 
z
" transform="scale(0.015625)"/>
      <path id="DejaVuSans-63" d="M 3122 3366 
L 3122 2828 
Q 2878 2963 2633 3030 
Q 2388 3097 2138 3097 
Q 1578 3097 1268 2742 
Q 959 2388 959 1747 
Q 959 1106 1268 751 
Q 1578 397 2138 397 
Q 2388 397 2633 464 
Q 2878 531 3122 666 
L 3122 134 
Q 2881 22 2623 -34 
Q 2366 -91 2075 -91 
Q 1284 -91 818 406 
Q 353 903 353 1747 
Q 353 2603 823 3093 
Q 1294 3584 2113 3584 
Q 2378 3584 2631 3529 
Q 2884 3475 3122 3366 
z
" transform="scale(0.015625)"/>
      <path id="DejaVuSans-55" d="M 556 4666 
L 1191 4666 
L 1191 1831 
Q 1191 1081 1462 751 
Q 1734 422 2344 422 
Q 2950 422 3222 751 
Q 3494 1081 3494 1831 
L 3494 4666 
L 4128 4666 
L 4128 1753 
Q 4128 841 3676 375 
Q 3225 -91 2344 -91 
Q 1459 -91 1007 375 
Q 556 841 556 1753 
L 556 4666 
z
" transform="scale(0.015625)"/>
      <path id="DejaVuSans-70" d="M 1159 525 
L 1159 -1331 
L 581 -1331 
L 581 3500 
L 1159 3500 
L 1159 2969 
Q 1341 3281 1617 3432 
Q 1894 3584 2278 3584 
Q 2916 3584 3314 3078 
Q 3713 2572 3713 1747 
Q 3713 922 3314 415 
Q 2916 -91 2278 -91 
Q 1894 -91 1617 61 
Q 1341 213 1159 525 
z
M 3116 1747 
Q 3116 2381 2855 2742 
Q 2594 3103 2138 3103 
Q 1681 3103 1420 2742 
Q 1159 2381 1159 1747 
Q 1159 1113 1420 752 
Q 1681 391 2138 391 
Q 2594 391 2855 752 
Q 3116 1113 3116 1747 
z
" transform="scale(0.015625)"/>
      <path id="DejaVuSans-64" d="M 2906 2969 
L 2906 4863 
L 3481 4863 
L 3481 0 
L 2906 0 
L 2906 525 
Q 2725 213 2448 61 
Q 2172 -91 1784 -91 
Q 1150 -91 751 415 
Q 353 922 353 1747 
Q 353 2572 751 3078 
Q 1150 3584 1784 3584 
Q 2172 3584 2448 3432 
Q 2725 3281 2906 2969 
z
M 947 1747 
Q 947 1113 1208 752 
Q 1469 391 1925 391 
Q 2381 391 2643 752 
Q 2906 1113 2906 1747 
Q 2906 2381 2643 2742 
Q 2381 3103 1925 3103 
Q 1469 3103 1208 2742 
Q 947 2381 947 1747 
z
" transform="scale(0.015625)"/>
     </defs>
     <use xlink:href="#DejaVuSans-54"/>
     <use xlink:href="#DejaVuSans-65" transform="translate(44.083984 0)"/>
     <use xlink:href="#DejaVuSans-6e" transform="translate(105.607422 0)"/>
     <use xlink:href="#DejaVuSans-73" transform="translate(168.986328 0)"/>
     <use xlink:href="#DejaVuSans-20" transform="translate(221.085938 0)"/>
     <use xlink:href="#DejaVuSans-3d" transform="translate(252.873047 0)"/>
     <use xlink:href="#DejaVuSans-20" transform="translate(336.662109 0)"/>
     <use xlink:href="#DejaVuSans-63" transform="translate(368.449219 0)"/>
     <use xlink:href="#DejaVuSans-72" transform="translate(423.429688 0)"/>
     <use xlink:href="#DejaVuSans-6f" transform="translate(462.292969 0)"/>
     <use xlink:href="#DejaVuSans-73" transform="translate(523.474609 0)"/>
     <use xlink:href="#DejaVuSans-73" transform="translate(575.574219 0)"/>
     <use xlink:href="#DejaVuSans-20" transform="translate(627.673828 0)"/>
     <use xlink:href="#DejaVuSans-73" transform="translate(659.460938 0)"/>
     <use xlink:href="#DejaVuSans-75" transform="translate(711.560547 0)"/>
     <use xlink:href="#DejaVuSans-6d" transform="translate(774.939453 0)"/>
     <use xlink:href="#DejaVuSans-2e" transform="translate(872.351562 0)"/>
     <use xlink:href="#DejaVuSans-20" transform="translate(904.138672 0)"/>
     <use xlink:href="#DejaVuSans-20" transform="translate(935.925781 0)"/>
     <use xlink:href="#DejaVuSans-20" transform="translate(967.712891 0)"/>
     <use xlink:href="#DejaVuSans-55" transform="translate(999.5 0)"/>
     <use xlink:href="#DejaVuSans-6e" transform="translate(1072.693359 0)"/>
     <use xlink:href="#DejaVuSans-69" transform="translate(1136.072266 0)"/>
     <use xlink:href="#DejaVuSans-74" transform="translate(1163.855469 0)"/>
     <use xlink:href="#DejaVuSans-73" transform="translate(1203.064453 0)"/>
     <use xlink:href="#DejaVuSans-20" transform="translate(1255.164062 0)"/>
     <use xlink:href="#DejaVuSans-3d" transform="translate(1286.951172 0)"/>
     <use xlink:href="#DejaVuSans-20" transform="translate(1370.740234 0)"/>
     <use xlink:href="#DejaVuSans-70" transform="translate(1402.527344 0)"/>
     <use xlink:href="#DejaVuSans-72" transform="translate(1466.003906 0)"/>
     <use xlink:href="#DejaVuSans-6f" transform="translate(1504.867188 0)"/>
     <use xlink:href="#DejaVuSans-64" transform="translate(1566.048828 0)"/>
     <use xlink:href="#DejaVuSans-75" transform="translate(1629.525391 0)"/>
     <use xlink:href="#DejaVuSans-63" transform="translate(1692.904297 0)"/>
     <use xlink:href="#DejaVuSans-74" transform="translate(1747.884766 0)"/>
     <use xlink:href="#DejaVuSans-20" transform="translate(1787.09375 0)"/>
     <use xlink:href="#DejaVuSans-6f" transform="translate(1818.880859 0)"/>
     <use xlink:href="#DejaVuSans-66" transform="translate(1880.0625 0)"/>
     <use xlink:href="#DejaVuSans-20" transform="translate(1915.267578 0)"/>
     <use xlink:href="#DejaVuSans-74" transform="translate(1947.054688 0)"/>
     <use xlink:href="#DejaVuSans-68" transform="translate(1986.263672 0)"/>
     <use xlink:href="#DejaVuSans-65" transform="translate(2049.642578 0)"/>
     <use xlink:href="#DejaVuSans-20" transform="translate(2111.166016 0)"/>
     <use xlink:href="#DejaVuSans-64" transform="translate(2142.953125 0)"/>
     <use xlink:href="#DejaVuSans-69" transform="translate(2206.429688 0)"/>
     <use xlink:href="#DejaVuSans-66" transform="translate(2234.212891 0)"/>
     <use xlink:href="#DejaVuSans-66" transform="translate(2269.417969 0)"/>
     <use xlink:href="#DejaVuSans-65" transform="translate(2304.623047 0)"/>
     <use xlink:href="#DejaVuSans-72" transform="translate(2366.146484 0)"/>
     <use xlink:href="#DejaVuSans-65" transform="translate(2405.009766 0)"/>
     <use xlink:href="#DejaVuSans-6e" transform="translate(2466.533203 0)"/>
     <use xlink:href="#DejaVuSans-63" transform="translate(2529.912109 0)"/>
     <use xlink:href="#DejaVuSans-65" transform="translate(2584.892578 0)"/>
     <use xlink:href="#DejaVuSans-73" transform="translate(2646.416016 0)"/>
     <use xlink:href="#DejaVuSans-2e" transform="translate(2698.515625 0)"/>
    </g>
   </g>
   <g id="text_4">
    <!-- 7 -->
    <g style="fill: #0b3d91" transform="translate(241.509874 279.101775) scale(0.42 -0.42)">
     <defs>
      <path id="DejaVuSans-Bold-37" d="M 428 4666 
L 3944 4666 
L 3944 3988 
L 2125 0 
L 953 0 
L 2675 3781 
L 428 3781 
L 428 4666 
z
" transform="scale(0.015625)"/>
     </defs>
     <use xlink:href="#DejaVuSans-Bold-37"/>
    </g>
   </g>
   <g id="text_5">
    <!-- 8 -->
    <g style="fill: #0b3d91" transform="translate(346.307314 279.101775) scale(0.42 -0.42)">
     <defs>
      <path id="DejaVuSans-Bold-38" d="M 2228 2088 
Q 1891 2088 1709 1903 
Q 1528 1719 1528 1375 
Q 1528 1031 1709 848 
Q 1891 666 2228 666 
Q 2563 666 2741 848 
Q 2919 1031 2919 1375 
Q 2919 1722 2741 1905 
Q 2563 2088 2228 2088 
z
M 1350 2484 
Q 925 2613 709 2878 
Q 494 3144 494 3541 
Q 494 4131 934 4440 
Q 1375 4750 2228 4750 
Q 3075 4750 3515 4442 
Q 3956 4134 3956 3541 
Q 3956 3144 3739 2878 
Q 3522 2613 3097 2484 
Q 3572 2353 3814 2058 
Q 4056 1763 4056 1313 
Q 4056 619 3595 264 
Q 3134 -91 2228 -91 
Q 1319 -91 855 264 
Q 391 619 391 1313 
Q 391 1763 633 2058 
Q 875 2353 1350 2484 
z
M 1631 3419 
Q 1631 3141 1786 2991 
Q 1941 2841 2228 2841 
Q 2509 2841 2662 2991 
Q 2816 3141 2816 3419 
Q 2816 3697 2662 3845 
Q 2509 3994 2228 3994 
Q 1941 3994 1786 3844 
Q 1631 3694 1631 3419 
z
" transform="scale(0.015625)"/>
     </defs>
     <use xlink:href="#DejaVuSans-Bold-38"/>
    </g>
   </g>
   <g id="text_6">
    <!-- −3 -->
    <g style="fill: #d6336c" transform="translate(240.78378 383.459566) scale(0.2 -0.2)">
     <defs>
      <path id="DejaVuSans-Bold-2212" d="M 678 2375 
L 4684 2375 
L 4684 1638 
L 678 1638 
L 678 2375 
z
" transform="scale(0.015625)"/>
      <path id="DejaVuSans-Bold-33" d="M 2981 2516 
Q 3453 2394 3698 2092 
Q 3944 1791 3944 1325 
Q 3944 631 3412 270 
Q 2881 -91 1863 -91 
Q 1503 -91 1142 -33 
Q 781 25 428 141 
L 428 1069 
Q 766 900 1098 814 
Q 1431 728 1753 728 
Q 2231 728 2486 893 
Q 2741 1059 2741 1369 
Q 2741 1688 2480 1852 
Q 2219 2016 1709 2016 
L 1228 2016 
L 1228 2791 
L 1734 2791 
Q 2188 2791 2409 2933 
Q 2631 3075 2631 3366 
Q 2631 3634 2415 3781 
Q 2200 3928 1806 3928 
Q 1516 3928 1219 3862 
Q 922 3797 628 3669 
L 628 4550 
Q 984 4650 1334 4700 
Q 1684 4750 2022 4750 
Q 2931 4750 3382 4451 
Q 3834 4153 3834 3553 
Q 3834 3144 3618 2883 
Q 3403 2622 2981 2516 
z
" transform="scale(0.015625)"/>
     </defs>
     <use xlink:href="#DejaVuSans-Bold-2212"/>
     <use xlink:href="#DejaVuSans-Bold-33" transform="translate(83.789062 0)"/>
    </g>
   </g>
   <g id="text_7">
    <!-- −2 -->
    <g style="fill: #d6336c" transform="translate(345.58122 383.459566) scale(0.2 -0.2)">
     <defs>
      <path id="DejaVuSans-Bold-32" d="M 1844 884 
L 3897 884 
L 3897 0 
L 506 0 
L 506 884 
L 2209 2388 
Q 2438 2594 2547 2791 
Q 2656 2988 2656 3200 
Q 2656 3528 2436 3728 
Q 2216 3928 1850 3928 
Q 1569 3928 1234 3808 
Q 900 3688 519 3450 
L 519 4475 
Q 925 4609 1322 4679 
Q 1719 4750 2100 4750 
Q 2938 4750 3402 4381 
Q 3866 4013 3866 3353 
Q 3866 2972 3669 2642 
Q 3472 2313 2841 1759 
L 1844 884 
z
" transform="scale(0.015625)"/>
     </defs>
     <use xlink:href="#DejaVuSans-Bold-2212"/>
     <use xlink:href="#DejaVuSans-Bold-32" transform="translate(83.789062 0)"/>
    </g>
   </g>
   <g id="patch_3">
    <path d="M 278.069001 269.247954 
Q 308.520211 322.726978 337.864986 374.26286 
" style="fill: none; stroke: #1b6d3b; stroke-width: 2; stroke-linecap: round"/>
    <path d="M 337.599611 369.350674 
L 337.864986 374.26286 
L 333.776012 371.527849 
" style="fill: none; stroke: #1b6d3b; stroke-width: 2; stroke-linecap: round"/>
   </g>
   <g id="patch_4">
    <path d="M 338.970999 269.247954 
Q 308.519789 322.726978 279.175014 374.26286 
" style="fill: none; stroke: #1b6d3b; stroke-width: 2; stroke-linecap: round"/>
    <path d="M 283.263988 371.527849 
L 279.175014 374.26286 
L 279.440389 369.350674 
" style="fill: none; stroke: #1b6d3b; stroke-width: 2; stroke-linecap: round"/>
   </g>
   <g id="text_8">
    <!-- Tens: 7 − 2 = 5 -->
    <g style="fill: #1b6d3b" transform="translate(253.668125 440.0568) scale(0.13 -0.13)">
     <defs>
      <path id="DejaVuSans-Bold-54" d="M 31 4666 
L 4331 4666 
L 4331 3756 
L 2784 3756 
L 2784 0 
L 1581 0 
L 1581 3756 
L 31 3756 
L 31 4666 
z
" transform="scale(0.015625)"/>
      <path id="DejaVuSans-Bold-6e" d="M 4056 2131 
L 4056 0 
L 2931 0 
L 2931 347 
L 2931 1631 
Q 2931 2084 2911 2256 
Q 2891 2428 2841 2509 
Q 2775 2619 2662 2680 
Q 2550 2741 2406 2741 
Q 2056 2741 1856 2470 
Q 1656 2200 1656 1722 
L 1656 0 
L 538 0 
L 538 3500 
L 1656 3500 
L 1656 2988 
Q 1909 3294 2193 3439 
Q 2478 3584 2822 3584 
Q 3428 3584 3742 3212 
Q 4056 2841 4056 2131 
z
" transform="scale(0.015625)"/>
      <path id="DejaVuSans-Bold-73" d="M 3272 3391 
L 3272 2541 
Q 2913 2691 2578 2766 
Q 2244 2841 1947 2841 
Q 1628 2841 1473 2761 
Q 1319 2681 1319 2516 
Q 1319 2381 1436 2309 
Q 1553 2238 1856 2203 
L 2053 2175 
Q 2913 2066 3209 1816 
Q 3506 1566 3506 1031 
Q 3506 472 3093 190 
Q 2681 -91 1863 -91 
Q 1516 -91 1145 -36 
Q 775 19 384 128 
L 384 978 
Q 719 816 1070 734 
Q 1422 653 1784 653 
Q 2113 653 2278 743 
Q 2444 834 2444 1013 
Q 2444 1163 2330 1236 
Q 2216 1309 1875 1350 
L 1678 1375 
Q 931 1469 631 1722 
Q 331 1975 331 2491 
Q 331 3047 712 3315 
Q 1094 3584 1881 3584 
Q 2191 3584 2531 3537 
Q 2872 3491 3272 3391 
z
" transform="scale(0.015625)"/>
      <path id="DejaVuSans-Bold-3a" d="M 716 3500 
L 1844 3500 
L 1844 2291 
L 716 2291 
L 716 3500 
z
M 716 1209 
L 1844 1209 
L 1844 0 
L 716 0 
L 716 1209 
z
" transform="scale(0.015625)"/>
      <path id="DejaVuSans-Bold-3d" d="M 678 3084 
L 4684 3084 
L 4684 2350 
L 678 2350 
L 678 3084 
z
M 678 1663 
L 4684 1663 
L 4684 922 
L 678 922 
L 678 1663 
z
" transform="scale(0.015625)"/>
      <path id="DejaVuSans-Bold-35" d="M 678 4666 
L 3669 4666 
L 3669 3781 
L 1638 3781 
L 1638 3059 
Q 1775 3097 1914 3117 
Q 2053 3138 2203 3138 
Q 3056 3138 3531 2711 
Q 4006 2284 4006 1522 
Q 4006 766 3489 337 
Q 2972 -91 2053 -91 
Q 1656 -91 1267 -14 
Q 878 63 494 219 
L 494 1166 
Q 875 947 1217 837 
Q 1559 728 1863 728 
Q 2300 728 2551 942 
Q 2803 1156 2803 1522 
Q 2803 1891 2551 2103 
Q 2300 2316 1863 2316 
Q 1603 2316 1309 2248 
Q 1016 2181 678 2041 
L 678 4666 
z
" transform="scale(0.015625)"/>
     </defs>
     <use xlink:href="#DejaVuSans-Bold-54"/>
     <use xlink:href="#DejaVuSans-Bold-65" transform="translate(54.962891 0)"/>
     <use xlink:href="#DejaVuSans-Bold-6e" transform="translate(122.785156 0)"/>
     <use xlink:href="#DejaVuSans-Bold-73" transform="translate(193.976562 0)"/>
     <use xlink:href="#DejaVuSans-Bold-3a" transform="translate(253.498047 0)"/>
     <use xlink:href="#DejaVuSans-Bold-20" transform="translate(293.488281 0)"/>
     <use xlink:href="#DejaVuSans-Bold-37" transform="translate(328.302734 0)"/>
     <use xlink:href="#DejaVuSans-Bold-20" transform="translate(397.882812 0)"/>
     <use xlink:href="#DejaVuSans-Bold-2212" transform="translate(432.697266 0)"/>
     <use xlink:href="#DejaVuSans-Bold-20" transform="translate(516.486328 0)"/>
     <use xlink:href="#DejaVuSans-Bold-32" transform="translate(551.300781 0)"/>
     <use xlink:href="#DejaVuSans-Bold-20" transform="translate(620.880859 0)"/>
     <use xlink:href="#DejaVuSans-Bold-3d" transform="translate(655.695312 0)"/>
     <use xlink:href="#DejaVuSans-Bold-20" transform="translate(739.484375 0)"/>
     <use xlink:href="#DejaVuSans-Bold-35" transform="translate(774.298828 0)"/>
    </g>
   </g>
   <g id="text_9">
    <!-- Units: 3 × 2 = 6 -->
    <g style="fill: #d6336c" transform="translate(251.036641 488.369232) scale(0.13 -0.13)">
     <defs>
      <path id="DejaVuSans-Bold-55" d="M 588 4666 
L 1791 4666 
L 1791 1869 
Q 1791 1291 1980 1042 
Q 2169 794 2597 794 
Q 3028 794 3217 1042 
Q 3406 1291 3406 1869 
L 3406 4666 
L 4609 4666 
L 4609 1869 
Q 4609 878 4112 393 
Q 3616 -91 2597 -91 
Q 1581 -91 1084 393 
Q 588 878 588 1869 
L 588 4666 
z
" transform="scale(0.015625)"/>
      <path id="DejaVuSans-Bold-74" d="M 1759 4494 
L 1759 3500 
L 2913 3500 
L 2913 2700 
L 1759 2700 
L 1759 1216 
Q 1759 972 1856 886 
Q 1953 800 2241 800 
L 2816 800 
L 2816 0 
L 1856 0 
Q 1194 0 917 276 
Q 641 553 641 1216 
L 641 2700 
L 84 2700 
L 84 3500 
L 641 3500 
L 641 4494 
L 1759 4494 
z
" transform="scale(0.015625)"/>
      <path id="DejaVuSans-Bold-d7" d="M 4563 3359 
L 3206 2003 
L 4563 653 
L 4038 128 
L 2681 1478 
L 1325 128 
L 800 653 
L 2156 2003 
L 800 3359 
L 1325 3884 
L 2681 2528 
L 4038 3884 
L 4563 3359 
z
" transform="scale(0.015625)"/>
      <path id="DejaVuSans-Bold-36" d="M 2316 2303 
Q 2000 2303 1842 2098 
Q 1684 1894 1684 1484 
Q 1684 1075 1842 870 
Q 2000 666 2316 666 
Q 2634 666 2792 870 
Q 2950 1075 2950 1484 
Q 2950 1894 2792 2098 
Q 2634 2303 2316 2303 
z
M 3803 4544 
L 3803 3681 
Q 3506 3822 3243 3889 
Q 2981 3956 2731 3956 
Q 2194 3956 1894 3657 
Q 1594 3359 1544 2772 
Q 1750 2925 1990 3001 
Q 2231 3078 2516 3078 
Q 3231 3078 3670 2659 
Q 4109 2241 4109 1563 
Q 4109 813 3618 361 
Q 3128 -91 2303 -91 
Q 1394 -91 895 523 
Q 397 1138 397 2266 
Q 397 3422 980 4083 
Q 1563 4744 2578 4744 
Q 2900 4744 3203 4694 
Q 3506 4644 3803 4544 
z
" transform="scale(0.015625)"/>
     </defs>
     <use xlink:href="#DejaVuSans-Bold-55"/>
     <use xlink:href="#DejaVuSans-Bold-6e" transform="translate(81.201172 0)"/>
     <use xlink:href="#DejaVuSans-Bold-69" transform="translate(152.392578 0)"/>
     <use xlink:href="#DejaVuSans-Bold-74" transform="translate(186.669922 0)"/>
     <use xlink:href="#DejaVuSans-Bold-73" transform="translate(234.472656 0)"/>
     <use xlink:href="#DejaVuSans-Bold-3a" transform="translate(293.994141 0)"/>
     <use xlink:href="#DejaVuSans-Bold-20" transform="translate(333.984375 0)"/>
     <use xlink:href="#DejaVuSans-Bold-33" transform="translate(368.798828 0)"/>
     <use xlink:href="#DejaVuSans-Bold-20" transform="translate(438.378906 0)"/>
     <use xlink:href="#DejaVuSans-Bold-d7" transform="translate(473.193359 0)"/>
     <use xlink:href="#DejaVuSans-Bold-20" transform="translate(556.982422 0)"/>
     <use xlink:href="#DejaVuSans-Bold-32" transform="translate(591.796875 0)"/>
     <use xlink:href="#DejaVuSans-Bold-20" transform="translate(661.376953 0)"/>
     <use xlink:href="#DejaVuSans-Bold-3d" transform="translate(696.191406 0)"/>
     <use xlink:href="#DejaVuSans-Bold-20" transform="translate(779.980469 0)"/>
     <use xlink:href="#DejaVuSans-Bold-36" transform="translate(814.794922 0)"/>
    </g>
   </g>
   <g id="text_10">
    <g id="patch_5">
     <path d="M 226.236094 570.631055 
L 390.803906 570.631055 
Q 399.803906 570.631055 399.803906 561.631055 
L 399.803906 543.631055 
Q 399.803906 534.631055 390.803906 534.631055 
L 226.236094 534.631055 
Q 217.236094 534.631055 217.236094 543.631055 
L 217.236094 561.631055 
Q 217.236094 570.631055 226.236094 570.631055 
z
" style="fill: #f4f6fb; stroke: #0b3d91; stroke-width: 1.5; stroke-linejoin: miter"/>
    </g>
    <!-- 7 × 8 = 5|6 = 56 -->
    <g style="fill: #1d1d1f" transform="translate(226.236094 557.386992) scale(0.18 -0.18)">
     <defs>
      <path id="DejaVuSans-Bold-7c" d="M 1522 4891 
L 1522 -1509 
L 813 -1509 
L 813 4891 
L 1522 4891 
z
" transform="scale(0.015625)"/>
     </defs>
     <use xlink:href="#DejaVuSans-Bold-37"/>
     <use xlink:href="#DejaVuSans-Bold-20" transform="translate(69.580078 0)"/>
     <use xlink:href="#DejaVuSans-Bold-d7" transform="translate(104.394531 0)"/>
     <use xlink:href="#DejaVuSans-Bold-20" transform="translate(188.183594 0)"/>
     <use xlink:href="#DejaVuSans-Bold-38" transform="translate(222.998047 0)"/>
     <use xlink:href="#DejaVuSans-Bold-20" transform="translate(292.578125 0)"/>
     <use xlink:href="#DejaVuSans-Bold-3d" transform="translate(327.392578 0)"/>
     <use xlink:href="#DejaVuSans-Bold-20" transform="translate(411.181641 0)"/>
     <use xlink:href="#DejaVuSans-Bold-35" transform="translate(445.996094 0)"/>
     <use xlink:href="#DejaVuSans-Bold-7c" transform="translate(515.576172 0)"/>
     <use xlink:href="#DejaVuSans-Bold-36" transform="translate(552.099609 0)"/>
     <use xlink:href="#DejaVuSans-Bold-20" transform="translate(621.679688 0)"/>
     <use xlink:href="#DejaVuSans-Bold-3d" transform="translate(656.494141 0)"/>
     <use xlink:href="#DejaVuSans-Bold-20" transform="translate(740.283203 0)"/>
     <use xlink:href="#DejaVuSans-Bold-35" transform="translate(775.097656 0)"/>
     <use xlink:href="#DejaVuSans-Bold-36" transform="translate(844.677734 0)"/>
    </g>
   </g>
   <g id="text_11">
    <!-- More examples:   9 × 8 = 72   (diffs 1 and 2 → 9−2=7 ; 1×2=2) -->
    <g style="fill: #6e7781" transform="translate(132.307734 725.136251) scale(0.11 -0.11)">
     <defs>
      <path id="DejaVuSans-Oblique-4d" d="M 1081 4666 
L 2028 4666 
L 2572 1522 
L 4378 4666 
L 5350 4666 
L 4441 0 
L 3828 0 
L 4622 4091 
L 2791 897 
L 2175 897 
L 1581 4103 
L 788 0 
L 172 0 
L 1081 4666 
z
" transform="scale(0.015625)"/>
      <path id="DejaVuSans-Oblique-65" d="M 3078 2063 
Q 3088 2113 3092 2166 
Q 3097 2219 3097 2272 
Q 3097 2653 2873 2875 
Q 2650 3097 2266 3097 
Q 1838 3097 1509 2826 
Q 1181 2556 1013 2059 
L 3078 2063 
z
M 3578 1613 
L 903 1613 
Q 884 1494 878 1425 
Q 872 1356 872 1306 
Q 872 872 1139 634 
Q 1406 397 1894 397 
Q 2269 397 2603 481 
Q 2938 566 3225 728 
L 3116 159 
Q 2806 34 2476 -28 
Q 2147 -91 1806 -91 
Q 1078 -91 686 257 
Q 294 606 294 1247 
Q 294 1794 489 2264 
Q 684 2734 1063 3103 
Q 1306 3334 1642 3459 
Q 1978 3584 2356 3584 
Q 2950 3584 3301 3228 
Q 3653 2872 3653 2272 
Q 3653 2128 3634 1964 
Q 3616 1800 3578 1613 
z
" transform="scale(0.015625)"/>
      <path id="DejaVuSans-Oblique-78" d="M 3841 3500 
L 2234 1784 
L 3219 0 
L 2559 0 
L 1819 1388 
L 531 0 
L -166 0 
L 1556 1844 
L 641 3500 
L 1300 3500 
L 1972 2234 
L 3144 3500 
L 3841 3500 
z
" transform="scale(0.015625)"/>
      <path id="DejaVuSans-Oblique-6d" d="M 5747 2113 
L 5338 0 
L 4763 0 
L 5166 2094 
Q 5191 2228 5203 2325 
Q 5216 2422 5216 2491 
Q 5216 2772 5059 2928 
Q 4903 3084 4622 3084 
Q 4203 3084 3875 2770 
Q 3547 2456 3450 1953 
L 3066 0 
L 2491 0 
L 2900 2094 
Q 2925 2209 2937 2307 
Q 2950 2406 2950 2484 
Q 2950 2769 2794 2926 
Q 2638 3084 2363 3084 
Q 1938 3084 1609 2770 
Q 1281 2456 1184 1953 
L 800 0 
L 225 0 
L 909 3500 
L 1484 3500 
L 1375 2956 
Q 1609 3263 1923 3423 
Q 2238 3584 2597 3584 
Q 2978 3584 3223 3384 
Q 3469 3184 3519 2828 
Q 3781 3197 4126 3390 
Q 4472 3584 4856 3584 
Q 5306 3584 5551 3325 
Q 5797 3066 5797 2591 
Q 5797 2488 5784 2364 
Q 5772 2241 5747 2113 
z
" transform="scale(0.015625)"/>
      <path id="DejaVuSans-Oblique-70" d="M 3175 2156 
Q 3175 2616 2975 2859 
Q 2775 3103 2400 3103 
Q 2144 3103 1911 2972 
Q 1678 2841 1497 2591 
Q 1319 2344 1212 1994 
Q 1106 1644 1106 1300 
Q 1106 863 1306 627 
Q 1506 391 1875 391 
Q 2147 391 2380 519 
Q 2613 647 2778 891 
Q 2956 1147 3065 1494 
Q 3175 1841 3175 2156 
z
M 1394 2969 
Q 1625 3272 1939 3428 
Q 2253 3584 2638 3584 
Q 3175 3584 3472 3232 
Q 3769 2881 3769 2247 
Q 3769 1728 3584 1258 
Q 3400 788 3053 416 
Q 2822 169 2531 39 
Q 2241 -91 1919 -91 
Q 1547 -91 1294 64 
Q 1041 219 916 525 
L 556 -1331 
L -19 -1331 
L 922 3500 
L 1497 3500 
L 1394 2969 
z
" transform="scale(0.015625)"/>
      <path id="DejaVuSans-Oblique-6c" d="M 1172 4863 
L 1747 4863 
L 800 0 
L 225 0 
L 1172 4863 
z
" transform="scale(0.015625)"/>
      <path id="DejaVuSans-Oblique-73" d="M 3200 3397 
L 3091 2853 
Q 2863 2978 2609 3040 
Q 2356 3103 2088 3103 
Q 1634 3103 1373 2948 
Q 1113 2794 1113 2528 
Q 1113 2219 1719 2053 
Q 1766 2041 1788 2034 
L 1972 1978 
Q 2547 1819 2739 1644 
Q 2931 1469 2931 1166 
Q 2931 609 2489 259 
Q 2047 -91 1331 -91 
Q 1053 -91 747 -37 
Q 441 16 72 128 
L 184 722 
Q 500 559 806 475 
Q 1113 391 1394 391 
Q 1816 391 2080 572 
Q 2344 753 2344 1031 
Q 2344 1331 1650 1516 
L 1591 1531 
L 1394 1581 
Q 956 1697 753 1886 
Q 550 2075 550 2369 
Q 550 2928 970 3256 
Q 1391 3584 2113 3584 
Q 2397 3584 2667 3537 
Q 2938 3491 3200 3397 
z
" transform="scale(0.015625)"/>
      <path id="DejaVuSans-Oblique-3a" d="M 978 3309 
L 1638 3309 
L 1484 2516 
L 825 2516 
L 978 3309 
z
M 488 794 
L 1147 794 
L 991 0 
L 331 0 
L 488 794 
z
" transform="scale(0.015625)"/>
      <path id="DejaVuSans-Oblique-3d" d="M 678 2906 
L 4684 2906 
L 4684 2381 
L 678 2381 
L 678 2906 
z
M 678 1631 
L 4684 1631 
L 4684 1100 
L 678 1100 
L 678 1631 
z
" transform="scale(0.015625)"/>
      <path id="DejaVuSans-Oblique-32" d="M 2950 2253 
L 934 525 
L 3163 525 
L 3053 0 
L 25 0 
L 128 531 
L 2234 2338 
Q 2656 2703 2832 2979 
Q 3009 3256 3009 3547 
Q 3009 3850 2796 4040 
Q 2584 4231 2241 4231 
Q 1944 4231 1581 4125 
Q 1219 4019 806 3816 
L 922 4441 
Q 1309 4594 1662 4672 
Q 2016 4750 2316 4750 
Q 2928 4750 3301 4425 
Q 3675 4100 3675 3572 
Q 3675 3216 3497 2892 
Q 3319 2569 2950 2253 
z
" transform="scale(0.015625)"/>
      <path id="DejaVuSans-Oblique-31" d="M 416 531 
L 1447 531 
L 2144 4122 
L 978 3897 
L 1088 4441 
L 2247 4666 
L 2881 4666 
L 2075 531 
L 3103 531 
L 3003 0 
L 313 0 
L 416 531 
z
" transform="scale(0.015625)"/>
      <path id="DejaVuSans-Oblique-2192" d="M 5050 2147 
L 5050 1866 
L 3822 638 
L 3447 1013 
L 4175 1741 
L 366 1741 
L 366 2272 
L 4175 2272 
L 3447 3000 
L 3822 3375 
L 5050 2147 
z
" transform="scale(0.015625)"/>
      <path id="DejaVuSans-Oblique-2212" d="M 678 2272 
L 4684 2272 
L 4684 1741 
L 678 1741 
L 678 2272 
z
" transform="scale(0.015625)"/>
      <path id="DejaVuSans-Oblique-3b" d="M 563 794 
L 1222 794 
L 1113 256 
L 409 -744 
L 6 -744 
L 453 256 
L 563 794 
z
M 1050 3309 
L 1709 3309 
L 1556 2516 
L 897 2516 
L 1050 3309 
z
" transform="scale(0.015625)"/>
     </defs>
     <use xlink:href="#DejaVuSans-Oblique-4d"/>
     <use xlink:href="#DejaVuSans-Oblique-6f" transform="translate(86.279297 0)"/>
     <use xlink:href="#DejaVuSans-Oblique-72" transform="translate(147.460938 0)"/>
     <use xlink:href="#DejaVuSans-Oblique-65" transform="translate(188.574219 0)"/>
     <use xlink:href="#DejaVuSans-Oblique-20" transform="translate(250.097656 0)"/>
     <use xlink:href="#DejaVuSans-Oblique-65" transform="translate(281.884766 0)"/>
     <use xlink:href="#DejaVuSans-Oblique-78" transform="translate(343.408203 0)"/>
     <use xlink:href="#DejaVuSans-Oblique-61" transform="translate(402.587891 0)"/>
     <use xlink:href="#DejaVuSans-Oblique-6d" transform="translate(463.867188 0)"/>
     <use xlink:href="#DejaVuSans-Oblique-70" transform="translate(561.279297 0)"/>
     <use xlink:href="#DejaVuSans-Oblique-6c" transform="translate(624.755859 0)"/>
     <use xlink:href="#DejaVuSans-Oblique-65" transform="translate(652.539062 0)"/>
     <use xlink:href="#DejaVuSans-Oblique-73" transform="translate(714.0625 0)"/>
     <use xlink:href="#DejaVuSans-Oblique-3a" transform="translate(766.162109 0)"/>
     <use xlink:href="#DejaVuSans-Oblique-20" transform="translate(799.853516 0)"/>
     <use xlink:href="#DejaVuSans-Oblique-20" transform="translate(831.640625 0)"/>
     <use xlink:href="#DejaVuSans-Oblique-20" transform="translate(863.427734 0)"/>
     <use xlink:href="#DejaVuSans-Oblique-39" transform="translate(895.214844 0)"/>
     <use xlink:href="#DejaVuSans-Oblique-20" transform="translate(958.837891 0)"/>
     <use xlink:href="#DejaVuSans-Oblique-d7" transform="translate(990.625 0)"/>
     <use xlink:href="#DejaVuSans-Oblique-20" transform="translate(1074.414062 0)"/>
     <use xlink:href="#DejaVuSans-Oblique-38" transform="translate(1106.201172 0)"/>
     <use xlink:href="#DejaVuSans-Oblique-20" transform="translate(1169.824219 0)"/>
     <use xlink:href="#DejaVuSans-Oblique-3d" transform="translate(1201.611328 0)"/>
     <use xlink:href="#DejaVuSans-Oblique-20" transform="translate(1285.400391 0)"/>
     <use xlink:href="#DejaVuSans-Oblique-37" transform="translate(1317.1875 0)"/>
     <use xlink:href="#DejaVuSans-Oblique-32" transform="translate(1380.810547 0)"/>
     <use xlink:href="#DejaVuSans-Oblique-20" transform="translate(1444.433594 0)"/>
     <use xlink:href="#DejaVuSans-Oblique-20" transform="translate(1476.220703 0)"/>
     <use xlink:href="#DejaVuSans-Oblique-20" transform="translate(1508.007812 0)"/>
     <use xlink:href="#DejaVuSans-Oblique-28" transform="translate(1539.794922 0)"/>
     <use xlink:href="#DejaVuSans-Oblique-64" transform="translate(1578.808594 0)"/>
     <use xlink:href="#DejaVuSans-Oblique-69" transform="translate(1642.285156 0)"/>
     <use xlink:href="#DejaVuSans-Oblique-66" transform="translate(1670.068359 0)"/>
     <use xlink:href="#DejaVuSans-Oblique-66" transform="translate(1705.273438 0)"/>
     <use xlink:href="#DejaVuSans-Oblique-73" transform="translate(1740.478516 0)"/>
     <use xlink:href="#DejaVuSans-Oblique-20" transform="translate(1792.578125 0)"/>
     <use xlink:href="#DejaVuSans-Oblique-31" transform="translate(1824.365234 0)"/>
     <use xlink:href="#DejaVuSans-Oblique-20" transform="translate(1887.988281 0)"/>
     <use xlink:href="#DejaVuSans-Oblique-61" transform="translate(1919.775391 0)"/>
     <use xlink:href="#DejaVuSans-Oblique-6e" transform="translate(1981.054688 0)"/>
     <use xlink:href="#DejaVuSans-Oblique-64" transform="translate(2044.433594 0)"/>
     <use xlink:href="#DejaVuSans-Oblique-20" transform="translate(2107.910156 0)"/>
     <use xlink:href="#DejaVuSans-Oblique-32" transform="translate(2139.697266 0)"/>
     <use xlink:href="#DejaVuSans-Oblique-20" transform="translate(2203.320312 0)"/>
     <use xlink:href="#DejaVuSans-Oblique-2192" transform="translate(2235.107422 0)"/>
     <use xlink:href="#DejaVuSans-Oblique-20" transform="translate(2318.896484 0)"/>
     <use xlink:href="#DejaVuSans-Oblique-39" transform="translate(2350.683594 0)"/>
     <use xlink:href="#DejaVuSans-Oblique-2212" transform="translate(2414.306641 0)"/>
     <use xlink:href="#DejaVuSans-Oblique-32" transform="translate(2498.095703 0)"/>
     <use xlink:href="#DejaVuSans-Oblique-3d" transform="translate(2561.71875 0)"/>
     <use xlink:href="#DejaVuSans-Oblique-37" transform="translate(2645.507812 0)"/>
     <use xlink:href="#DejaVuSans-Oblique-20" transform="translate(2709.130859 0)"/>
     <use xlink:href="#DejaVuSans-Oblique-3b" transform="translate(2740.917969 0)"/>
     <use xlink:href="#DejaVuSans-Oblique-20" transform="translate(2774.609375 0)"/>
     <use xlink:href="#DejaVuSans-Oblique-31" transform="translate(2806.396484 0)"/>
     <use xlink:href="#DejaVuSans-Oblique-d7" transform="translate(2870.019531 0)"/>
     <use xlink:href="#DejaVuSans-Oblique-32" transform="translate(2953.808594 0)"/>
     <use xlink:href="#DejaVuSans-Oblique-3d" transform="translate(3017.431641 0)"/>
     <use xlink:href="#DejaVuSans-Oblique-32" transform="translate(3101.220703 0)"/>
     <use xlink:href="#DejaVuSans-Oblique-29" transform="translate(3164.84375 0)"/>
    </g>
    <!--                           6 × 7 = 42   (diffs 4 and 3 → 6−3=3 ; 4×3=12 → 30+12=42*) -->
    <g style="fill: #6e7781" transform="translate(91.529531 740.797158) scale(0.11 -0.11)">
     <defs>
      <path id="DejaVuSans-Oblique-34" d="M 2753 4666 
L 3547 4666 
L 2950 1625 
L 3616 1625 
L 3513 1100 
L 2847 1100 
L 2638 0 
L 2009 0 
L 2222 1100 
L 116 1100 
L 238 1709 
L 2753 4666 
z
M 2809 4116 
L 728 1625 
L 2322 1625 
L 2809 4116 
z
" transform="scale(0.015625)"/>
      <path id="DejaVuSans-Oblique-33" d="M 1013 4550 
Q 1356 4650 1679 4700 
Q 2003 4750 2316 4750 
Q 2934 4750 3296 4475 
Q 3659 4200 3659 3738 
Q 3659 3284 3373 2959 
Q 3088 2634 2584 2516 
Q 2978 2403 3162 2165 
Q 3347 1928 3347 1538 
Q 3347 1163 3167 834 
Q 2988 506 2650 269 
Q 2394 88 2037 -1 
Q 1681 -91 1216 -91 
Q 922 -91 622 -33 
Q 322 25 13 141 
L 128 738 
Q 422 575 720 495 
Q 1019 416 1331 416 
Q 1947 416 2330 733 
Q 2713 1050 2713 1556 
Q 2713 1881 2469 2057 
Q 2225 2234 1772 2234 
L 1228 2234 
L 1325 2747 
L 1900 2747 
Q 2419 2747 2717 2984 
Q 3016 3222 3016 3628 
Q 3016 3922 2797 4083 
Q 2578 4244 2181 4244 
Q 1881 4244 1567 4180 
Q 1253 4116 916 3988 
L 1013 4550 
z
" transform="scale(0.015625)"/>
      <path id="DejaVuSans-Oblique-30" d="M 2444 4750 
Q 3078 4750 3414 4328 
Q 3750 3906 3750 3116 
Q 3750 2516 3592 1923 
Q 3434 1331 3150 863 
Q 2859 394 2467 151 
Q 2075 -91 1600 -91 
Q 988 -91 653 334 
Q 319 759 319 1544 
Q 319 2138 480 2733 
Q 641 3328 928 3794 
Q 1216 4263 1602 4506 
Q 1988 4750 2444 4750 
z
M 2406 4250 
Q 2169 4250 1955 4123 
Q 1741 3997 1569 3750 
Q 1281 3338 1111 2720 
Q 941 2103 941 1453 
Q 941 938 1123 673 
Q 1306 409 1663 409 
Q 1913 409 2125 536 
Q 2338 663 2509 909 
Q 2794 1319 2961 1936 
Q 3128 2553 3128 3206 
Q 3128 3722 2945 3986 
Q 2763 4250 2406 4250 
z
" transform="scale(0.015625)"/>
      <path id="DejaVuSans-Oblique-2b" d="M 2944 4013 
L 2944 2272 
L 4684 2272 
L 4684 1741 
L 2944 1741 
L 2944 0 
L 2419 0 
L 2419 1741 
L 678 1741 
L 678 2272 
L 2419 2272 
L 2419 4013 
L 2944 4013 
z
" transform="scale(0.015625)"/>
      <path id="DejaVuSans-Oblique-2a" d="M 3009 3897 
L 1888 3291 
L 3009 2681 
L 2828 2375 
L 1778 3009 
L 1778 1831 
L 1422 1831 
L 1422 3009 
L 372 2375 
L 191 2681 
L 1313 3291 
L 191 3897 
L 372 4206 
L 1422 3572 
L 1422 4750 
L 1778 4750 
L 1778 3572 
L 2828 4206 
L 3009 3897 
z
" transform="scale(0.015625)"/>
     </defs>
     <use xlink:href="#DejaVuSans-Oblique-20"/>
     <use xlink:href="#DejaVuSans-Oblique-20" transform="translate(31.787109 0)"/>
     <use xlink:href="#DejaVuSans-Oblique-20" transform="translate(63.574219 0)"/>
     <use xlink:href="#DejaVuSans-Oblique-20" transform="translate(95.361328 0)"/>
     <use xlink:href="#DejaVuSans-Oblique-20" transform="translate(127.148438 0)"/>
     <use xlink:href="#DejaVuSans-Oblique-20" transform="translate(158.935547 0)"/>
     <use xlink:href="#DejaVuSans-Oblique-20" transform="translate(190.722656 0)"/>
     <use xlink:href="#DejaVuSans-Oblique-20" transform="translate(222.509766 0)"/>
     <use xlink:href="#DejaVuSans-Oblique-20" transform="translate(254.296875 0)"/>
     <use xlink:href="#DejaVuSans-Oblique-20" transform="translate(286.083984 0)"/>
     <use xlink:href="#DejaVuSans-Oblique-20" transform="translate(317.871094 0)"/>
     <use xlink:href="#DejaVuSans-Oblique-20" transform="translate(349.658203 0)"/>
     <use xlink:href="#DejaVuSans-Oblique-20" transform="translate(381.445312 0)"/>
     <use xlink:href="#DejaVuSans-Oblique-20" transform="translate(413.232422 0)"/>
     <use xlink:href="#DejaVuSans-Oblique-20" transform="translate(445.019531 0)"/>
     <use xlink:href="#DejaVuSans-Oblique-20" transform="translate(476.806641 0)"/>
     <use xlink:href="#DejaVuSans-Oblique-20" transform="translate(508.59375 0)"/>
     <use xlink:href="#DejaVuSans-Oblique-20" transform="translate(540.380859 0)"/>
     <use xlink:href="#DejaVuSans-Oblique-20" transform="translate(572.167969 0)"/>
     <use xlink:href="#DejaVuSans-Oblique-20" transform="translate(603.955078 0)"/>
     <use xlink:href="#DejaVuSans-Oblique-20" transform="translate(635.742188 0)"/>
     <use xlink:href="#DejaVuSans-Oblique-20" transform="translate(667.529297 0)"/>
     <use xlink:href="#DejaVuSans-Oblique-20" transform="translate(699.316406 0)"/>
     <use xlink:href="#DejaVuSans-Oblique-20" transform="translate(731.103516 0)"/>
     <use xlink:href="#DejaVuSans-Oblique-20" transform="translate(762.890625 0)"/>
     <use xlink:href="#DejaVuSans-Oblique-20" transform="translate(794.677734 0)"/>
     <use xlink:href="#DejaVuSans-Oblique-36" transform="translate(826.464844 0)"/>
     <use xlink:href="#DejaVuSans-Oblique-20" transform="translate(890.087891 0)"/>
     <use xlink:href="#DejaVuSans-Oblique-d7" transform="translate(921.875 0)"/>
     <use xlink:href="#DejaVuSans-Oblique-20" transform="translate(1005.664062 0)"/>
     <use xlink:href="#DejaVuSans-Oblique-37" transform="translate(1037.451172 0)"/>
     <use xlink:href="#DejaVuSans-Oblique-20" transform="translate(1101.074219 0)"/>
     <use xlink:href="#DejaVuSans-Oblique-3d" transform="translate(1132.861328 0)"/>
     <use xlink:href="#DejaVuSans-Oblique-20" transform="translate(1216.650391 0)"/>
     <use xlink:href="#DejaVuSans-Oblique-34" transform="translate(1248.4375 0)"/>
     <use xlink:href="#DejaVuSans-Oblique-32" transform="translate(1312.060547 0)"/>
     <use xlink:href="#DejaVuSans-Oblique-20" transform="translate(1375.683594 0)"/>
     <use xlink:href="#DejaVuSans-Oblique-20" transform="translate(1407.470703 0)"/>
     <use xlink:href="#DejaVuSans-Oblique-20" transform="translate(1439.257812 0)"/>
     <use xlink:href="#DejaVuSans-Oblique-28" transform="translate(1471.044922 0)"/>
     <use xlink:href="#DejaVuSans-Oblique-64" transform="translate(1510.058594 0)"/>
     <use xlink:href="#DejaVuSans-Oblique-69" transform="translate(1573.535156 0)"/>
     <use xlink:href="#DejaVuSans-Oblique-66" transform="translate(1601.318359 0)"/>
     <use xlink:href="#DejaVuSans-Oblique-66" transform="translate(1636.523438 0)"/>
     <use xlink:href="#DejaVuSans-Oblique-73" transform="translate(1671.728516 0)"/>
     <use xlink:href="#DejaVuSans-Oblique-20" transform="translate(1723.828125 0)"/>
     <use xlink:href="#DejaVuSans-Oblique-34" transform="translate(1755.615234 0)"/>
     <use xlink:href="#DejaVuSans-Oblique-20" transform="translate(1819.238281 0)"/>
     <use xlink:href="#DejaVuSans-Oblique-61" transform="translate(1851.025391 0)"/>
     <use xlink:href="#DejaVuSans-Oblique-6e" transform="translate(1912.304688 0)"/>
     <use xlink:href="#DejaVuSans-Oblique-64" transform="translate(1975.683594 0)"/>
     <use xlink:href="#DejaVuSans-Oblique-20" transform="translate(2039.160156 0)"/>
     <use xlink:href="#DejaVuSans-Oblique-33" transform="translate(2070.947266 0)"/>
     <use xlink:href="#DejaVuSans-Oblique-20" transform="translate(2134.570312 0)"/>
     <use xlink:href="#DejaVuSans-Oblique-2192" transform="translate(2166.357422 0)"/>
     <use xlink:href="#DejaVuSans-Oblique-20" transform="translate(2250.146484 0)"/>
     <use xlink:href="#DejaVuSans-Oblique-36" transform="translate(2281.933594 0)"/>
     <use xlink:href="#DejaVuSans-Oblique-2212" transform="translate(2345.556641 0)"/>
     <use xlink:href="#DejaVuSans-Oblique-33" transform="translate(2429.345703 0)"/>
     <use xlink:href="#DejaVuSans-Oblique-3d" transform="translate(2492.96875 0)"/>
     <use xlink:href="#DejaVuSans-Oblique-33" transform="translate(2576.757812 0)"/>
     <use xlink:href="#DejaVuSans-Oblique-20" transform="translate(2640.380859 0)"/>
     <use xlink:href="#DejaVuSans-Oblique-3b" transform="translate(2672.167969 0)"/>
     <use xlink:href="#DejaVuSans-Oblique-20" transform="translate(2705.859375 0)"/>
     <use xlink:href="#DejaVuSans-Oblique-34" transform="translate(2737.646484 0)"/>
     <use xlink:href="#DejaVuSans-Oblique-d7" transform="translate(2801.269531 0)"/>
     <use xlink:href="#DejaVuSans-Oblique-33" transform="translate(2885.058594 0)"/>
     <use xlink:href="#DejaVuSans-Oblique-3d" transform="translate(2948.681641 0)"/>
     <use xlink:href="#DejaVuSans-Oblique-31" transform="translate(3032.470703 0)"/>
     <use xlink:href="#DejaVuSans-Oblique-32" transform="translate(3096.09375 0)"/>
     <use xlink:href="#DejaVuSans-Oblique-20" transform="translate(3159.716797 0)"/>
     <use xlink:href="#DejaVuSans-Oblique-2192" transform="translate(3191.503906 0)"/>
     <use xlink:href="#DejaVuSans-Oblique-20" transform="translate(3275.292969 0)"/>
     <use xlink:href="#DejaVuSans-Oblique-33" transform="translate(3307.080078 0)"/>
     <use xlink:href="#DejaVuSans-Oblique-30" transform="translate(3370.703125 0)"/>
     <use xlink:href="#DejaVuSans-Oblique-2b" transform="translate(3434.326172 0)"/>
     <use xlink:href="#DejaVuSans-Oblique-31" transform="translate(3518.115234 0)"/>
     <use xlink:href="#DejaVuSans-Oblique-32" transform="translate(3581.738281 0)"/>
     <use xlink:href="#DejaVuSans-Oblique-3d" transform="translate(3645.361328 0)"/>
     <use xlink:href="#DejaVuSans-Oblique-34" transform="translate(3729.150391 0)"/>
     <use xlink:href="#DejaVuSans-Oblique-32" transform="translate(3792.773438 0)"/>
     <use xlink:href="#DejaVuSans-Oblique-2a" transform="translate(3856.396484 0)"/>
     <use xlink:href="#DejaVuSans-Oblique-29" transform="translate(3906.396484 0)"/>
    </g>
   </g>
  </g>
 </g>
</svg>
