<?xml version="1.0" encoding="utf-8" standalone="no"?>
<!DOCTYPE svg PUBLIC "-//W3C//DTD SVG 1.1//EN"
  "http://www.w3.org/Graphics/SVG/1.1/DTD/svg11.dtd">
<svg xmlns:xlink="http://www.w3.org/1999/xlink" width="617.04pt" height="795.9456pt" viewBox="0 0 617.04 795.9456" xmlns="http://www.w3.org/2000/svg" version="1.1">
 <metadata>
  <rdf:RDF xmlns:dc="http://purl.org/dc/elements/1.1/" xmlns:cc="http://creativecommons.org/ns#" xmlns:rdf="http://www.w3.org/1999/02/22-rdf-syntax-ns#">
   <cc:Work>
    <dc:type rdf:resource="http://purl.org/dc/dcmitype/StillImage"/>
    <dc:date>2026-05-18T18:02:17.755485</dc:date>
    <dc:format>image/svg+xml</dc:format>
    <dc:creator>
     <cc:Agent>
      <dc:title>Matplotlib v3.10.9, https://matplotlib.org/</dc:title>
     </cc:Agent>
    </dc:creator>
   </cc:Work>
  </rdf:RDF>
 </metadata>
 <defs>
  <style type="text/css">*{stroke-linejoin: round; stroke-linecap: butt}</style>
 </defs>
 <g id="figure_1">
  <g id="patch_1">
   <path d="M -0 795.9456 
L 617.04 795.9456 
L 617.04 -0 
L -0 -0 
z
" style="fill: #ffffff"/>
  </g>
  <g id="axes_1">
   <g id="text_1">
    <!-- Number Bonds -->
    <g style="fill: #0b3d91" transform="translate(225.53875 42.83167) scale(0.2 -0.2)">
     <defs>
      <path id="DejaVuSans-Bold-4e" d="M 588 4666 
L 1931 4666 
L 3628 1466 
L 3628 4666 
L 4769 4666 
L 4769 0 
L 3425 0 
L 1728 3200 
L 1728 0 
L 588 0 
L 588 4666 
z
" transform="scale(0.015625)"/>
      <path id="DejaVuSans-Bold-75" d="M 500 1363 
L 500 3500 
L 1625 3500 
L 1625 3150 
Q 1625 2866 1622 2436 
Q 1619 2006 1619 1863 
Q 1619 1441 1641 1255 
Q 1663 1069 1716 984 
Q 1784 875 1895 815 
Q 2006 756 2150 756 
Q 2500 756 2700 1025 
Q 2900 1294 2900 1772 
L 2900 3500 
L 4019 3500 
L 4019 0 
L 2900 0 
L 2900 506 
Q 2647 200 2364 54 
Q 2081 -91 1741 -91 
Q 1134 -91 817 281 
Q 500 653 500 1363 
z
" transform="scale(0.015625)"/>
      <path id="DejaVuSans-Bold-6d" d="M 3781 2919 
Q 3994 3244 4286 3414 
Q 4578 3584 4928 3584 
Q 5531 3584 5847 3212 
Q 6163 2841 6163 2131 
L 6163 0 
L 5038 0 
L 5038 1825 
Q 5041 1866 5042 1909 
Q 5044 1953 5044 2034 
Q 5044 2406 4934 2573 
Q 4825 2741 4581 2741 
Q 4263 2741 4089 2478 
Q 3916 2216 3909 1719 
L 3909 0 
L 2784 0 
L 2784 1825 
Q 2784 2406 2684 2573 
Q 2584 2741 2328 2741 
Q 2006 2741 1831 2477 
Q 1656 2213 1656 1722 
L 1656 0 
L 531 0 
L 531 3500 
L 1656 3500 
L 1656 2988 
Q 1863 3284 2130 3434 
Q 2397 3584 2719 3584 
Q 3081 3584 3359 3409 
Q 3638 3234 3781 2919 
z
" transform="scale(0.015625)"/>
      <path id="DejaVuSans-Bold-62" d="M 2400 722 
Q 2759 722 2948 984 
Q 3138 1247 3138 1747 
Q 3138 2247 2948 2509 
Q 2759 2772 2400 2772 
Q 2041 2772 1848 2508 
Q 1656 2244 1656 1747 
Q 1656 1250 1848 986 
Q 2041 722 2400 722 
z
M 1656 2988 
Q 1888 3294 2169 3439 
Q 2450 3584 2816 3584 
Q 3463 3584 3878 3070 
Q 4294 2556 4294 1747 
Q 4294 938 3878 423 
Q 3463 -91 2816 -91 
Q 2450 -91 2169 54 
Q 1888 200 1656 506 
L 1656 0 
L 538 0 
L 538 4863 
L 1656 4863 
L 1656 2988 
z
" transform="scale(0.015625)"/>
      <path id="DejaVuSans-Bold-65" d="M 4031 1759 
L 4031 1441 
L 1416 1441 
Q 1456 1047 1700 850 
Q 1944 653 2381 653 
Q 2734 653 3104 758 
Q 3475 863 3866 1075 
L 3866 213 
Q 3469 63 3072 -14 
Q 2675 -91 2278 -91 
Q 1328 -91 801 392 
Q 275 875 275 1747 
Q 275 2603 792 3093 
Q 1309 3584 2216 3584 
Q 3041 3584 3536 3087 
Q 4031 2591 4031 1759 
z
M 2881 2131 
Q 2881 2450 2695 2645 
Q 2509 2841 2209 2841 
Q 1884 2841 1681 2658 
Q 1478 2475 1428 2131 
L 2881 2131 
z
" transform="scale(0.015625)"/>
      <path id="DejaVuSans-Bold-72" d="M 3138 2547 
Q 2991 2616 2845 2648 
Q 2700 2681 2553 2681 
Q 2122 2681 1889 2404 
Q 1656 2128 1656 1613 
L 1656 0 
L 538 0 
L 538 3500 
L 1656 3500 
L 1656 2925 
Q 1872 3269 2151 3426 
Q 2431 3584 2822 3584 
Q 2878 3584 2943 3579 
Q 3009 3575 3134 3559 
L 3138 2547 
z
" transform="scale(0.015625)"/>
      <path id="DejaVuSans-Bold-20" transform="scale(0.015625)"/>
      <path id="DejaVuSans-Bold-42" d="M 2456 2859 
Q 2741 2859 2887 2984 
Q 3034 3109 3034 3353 
Q 3034 3594 2887 3720 
Q 2741 3847 2456 3847 
L 1791 3847 
L 1791 2859 
L 2456 2859 
z
M 2497 819 
Q 2859 819 3042 972 
Q 3225 1125 3225 1434 
Q 3225 1738 3044 1889 
Q 2863 2041 2497 2041 
L 1791 2041 
L 1791 819 
L 2497 819 
z
M 3616 2497 
Q 4003 2384 4215 2081 
Q 4428 1778 4428 1338 
Q 4428 663 3972 331 
Q 3516 0 2584 0 
L 588 0 
L 588 4666 
L 2394 4666 
Q 3366 4666 3802 4372 
Q 4238 4078 4238 3431 
Q 4238 3091 4078 2852 
Q 3919 2613 3616 2497 
z
" transform="scale(0.015625)"/>
      <path id="DejaVuSans-Bold-6f" d="M 2203 2784 
Q 1831 2784 1636 2517 
Q 1441 2250 1441 1747 
Q 1441 1244 1636 976 
Q 1831 709 2203 709 
Q 2569 709 2762 976 
Q 2956 1244 2956 1747 
Q 2956 2250 2762 2517 
Q 2569 2784 2203 2784 
z
M 2203 3584 
Q 3106 3584 3614 3096 
Q 4122 2609 4122 1747 
Q 4122 884 3614 396 
Q 3106 -91 2203 -91 
Q 1297 -91 786 396 
Q 275 884 275 1747 
Q 275 2609 786 3096 
Q 1297 3584 2203 3584 
z
" transform="scale(0.015625)"/>
      <path id="DejaVuSans-Bold-6e" d="M 4056 2131 
L 4056 0 
L 2931 0 
L 2931 347 
L 2931 1631 
Q 2931 2084 2911 2256 
Q 2891 2428 2841 2509 
Q 2775 2619 2662 2680 
Q 2550 2741 2406 2741 
Q 2056 2741 1856 2470 
Q 1656 2200 1656 1722 
L 1656 0 
L 538 0 
L 538 3500 
L 1656 3500 
L 1656 2988 
Q 1909 3294 2193 3439 
Q 2478 3584 2822 3584 
Q 3428 3584 3742 3212 
Q 4056 2841 4056 2131 
z
" transform="scale(0.015625)"/>
      <path id="DejaVuSans-Bold-64" d="M 2919 2988 
L 2919 4863 
L 4044 4863 
L 4044 0 
L 2919 0 
L 2919 506 
Q 2688 197 2409 53 
Q 2131 -91 1766 -91 
Q 1119 -91 703 423 
Q 288 938 288 1747 
Q 288 2556 703 3070 
Q 1119 3584 1766 3584 
Q 2128 3584 2408 3439 
Q 2688 3294 2919 2988 
z
M 2181 722 
Q 2541 722 2730 984 
Q 2919 1247 2919 1747 
Q 2919 2247 2730 2509 
Q 2541 2772 2181 2772 
Q 1825 2772 1636 2509 
Q 1447 2247 1447 1747 
Q 1447 1247 1636 984 
Q 1825 722 2181 722 
z
" transform="scale(0.015625)"/>
      <path id="DejaVuSans-Bold-73" d="M 3272 3391 
L 3272 2541 
Q 2913 2691 2578 2766 
Q 2244 2841 1947 2841 
Q 1628 2841 1473 2761 
Q 1319 2681 1319 2516 
Q 1319 2381 1436 2309 
Q 1553 2238 1856 2203 
L 2053 2175 
Q 2913 2066 3209 1816 
Q 3506 1566 3506 1031 
Q 3506 472 3093 190 
Q 2681 -91 1863 -91 
Q 1516 -91 1145 -36 
Q 775 19 384 128 
L 384 978 
Q 719 816 1070 734 
Q 1422 653 1784 653 
Q 2113 653 2278 743 
Q 2444 834 2444 1013 
Q 2444 1163 2330 1236 
Q 2216 1309 1875 1350 
L 1678 1375 
Q 931 1469 631 1722 
Q 331 1975 331 2491 
Q 331 3047 712 3315 
Q 1094 3584 1881 3584 
Q 2191 3584 2531 3537 
Q 2872 3491 3272 3391 
z
" transform="scale(0.015625)"/>
     </defs>
     <use xlink:href="#DejaVuSans-Bold-4e"/>
     <use xlink:href="#DejaVuSans-Bold-75" transform="translate(83.691406 0)"/>
     <use xlink:href="#DejaVuSans-Bold-6d" transform="translate(154.882812 0)"/>
     <use xlink:href="#DejaVuSans-Bold-62" transform="translate(259.082031 0)"/>
     <use xlink:href="#DejaVuSans-Bold-65" transform="translate(330.664062 0)"/>
     <use xlink:href="#DejaVuSans-Bold-72" transform="translate(398.486328 0)"/>
     <use xlink:href="#DejaVuSans-Bold-20" transform="translate(447.802734 0)"/>
     <use xlink:href="#DejaVuSans-Bold-42" transform="translate(482.617188 0)"/>
     <use xlink:href="#DejaVuSans-Bold-6f" transform="translate(558.837891 0)"/>
     <use xlink:href="#DejaVuSans-Bold-6e" transform="translate(627.539062 0)"/>
     <use xlink:href="#DejaVuSans-Bold-64" transform="translate(698.730469 0)"/>
     <use xlink:href="#DejaVuSans-Bold-73" transform="translate(770.3125 0)"/>
    </g>
   </g>
   <g id="text_2">
    <!-- Number 'friendships' (Singapore + Hello Ruby) -->
    <g style="fill: #6e7781" transform="translate(179.574219 69.807033) scale(0.11 -0.11)">
     <defs>
      <path id="DejaVuSans-Oblique-4e" d="M 1081 4666 
L 1931 4666 
L 3219 666 
L 4000 4666 
L 4616 4666 
L 3706 0 
L 2853 0 
L 1569 4025 
L 788 0 
L 172 0 
L 1081 4666 
z
" transform="scale(0.015625)"/>
      <path id="DejaVuSans-Oblique-75" d="M 428 1388 
L 838 3500 
L 1416 3500 
L 1006 1409 
Q 975 1256 961 1147 
Q 947 1038 947 966 
Q 947 700 1109 554 
Q 1272 409 1569 409 
Q 2031 409 2368 721 
Q 2706 1034 2809 1563 
L 3194 3500 
L 3769 3500 
L 3091 0 
L 2516 0 
L 2631 550 
Q 2388 244 2052 76 
Q 1716 -91 1338 -91 
Q 878 -91 622 161 
Q 366 413 366 863 
Q 366 956 381 1097 
Q 397 1238 428 1388 
z
" transform="scale(0.015625)"/>
      <path id="DejaVuSans-Oblique-6d" d="M 5747 2113 
L 5338 0 
L 4763 0 
L 5166 2094 
Q 5191 2228 5203 2325 
Q 5216 2422 5216 2491 
Q 5216 2772 5059 2928 
Q 4903 3084 4622 3084 
Q 4203 3084 3875 2770 
Q 3547 2456 3450 1953 
L 3066 0 
L 2491 0 
L 2900 2094 
Q 2925 2209 2937 2307 
Q 2950 2406 2950 2484 
Q 2950 2769 2794 2926 
Q 2638 3084 2363 3084 
Q 1938 3084 1609 2770 
Q 1281 2456 1184 1953 
L 800 0 
L 225 0 
L 909 3500 
L 1484 3500 
L 1375 2956 
Q 1609 3263 1923 3423 
Q 2238 3584 2597 3584 
Q 2978 3584 3223 3384 
Q 3469 3184 3519 2828 
Q 3781 3197 4126 3390 
Q 4472 3584 4856 3584 
Q 5306 3584 5551 3325 
Q 5797 3066 5797 2591 
Q 5797 2488 5784 2364 
Q 5772 2241 5747 2113 
z
" transform="scale(0.015625)"/>
      <path id="DejaVuSans-Oblique-62" d="M 3169 2138 
Q 3169 2591 2961 2847 
Q 2753 3103 2388 3103 
Q 2122 3103 1889 2973 
Q 1656 2844 1484 2597 
Q 1303 2338 1198 1995 
Q 1094 1653 1094 1313 
Q 1094 881 1298 636 
Q 1503 391 1863 391 
Q 2134 391 2365 517 
Q 2597 644 2772 891 
Q 2950 1147 3059 1487 
Q 3169 1828 3169 2138 
z
M 1381 2969 
Q 1594 3256 1914 3420 
Q 2234 3584 2584 3584 
Q 3122 3584 3439 3221 
Q 3756 2859 3756 2241 
Q 3756 1734 3570 1259 
Q 3384 784 3041 416 
Q 2816 172 2522 40 
Q 2228 -91 1906 -91 
Q 1566 -91 1316 65 
Q 1066 222 909 531 
L 806 0 
L 231 0 
L 1178 4863 
L 1753 4863 
L 1381 2969 
z
" transform="scale(0.015625)"/>
      <path id="DejaVuSans-Oblique-65" d="M 3078 2063 
Q 3088 2113 3092 2166 
Q 3097 2219 3097 2272 
Q 3097 2653 2873 2875 
Q 2650 3097 2266 3097 
Q 1838 3097 1509 2826 
Q 1181 2556 1013 2059 
L 3078 2063 
z
M 3578 1613 
L 903 1613 
Q 884 1494 878 1425 
Q 872 1356 872 1306 
Q 872 872 1139 634 
Q 1406 397 1894 397 
Q 2269 397 2603 481 
Q 2938 566 3225 728 
L 3116 159 
Q 2806 34 2476 -28 
Q 2147 -91 1806 -91 
Q 1078 -91 686 257 
Q 294 606 294 1247 
Q 294 1794 489 2264 
Q 684 2734 1063 3103 
Q 1306 3334 1642 3459 
Q 1978 3584 2356 3584 
Q 2950 3584 3301 3228 
Q 3653 2872 3653 2272 
Q 3653 2128 3634 1964 
Q 3616 1800 3578 1613 
z
" transform="scale(0.015625)"/>
      <path id="DejaVuSans-Oblique-72" d="M 2853 2969 
Q 2766 3016 2653 3041 
Q 2541 3066 2413 3066 
Q 1953 3066 1609 2717 
Q 1266 2369 1153 1784 
L 800 0 
L 225 0 
L 909 3500 
L 1484 3500 
L 1375 2956 
Q 1603 3259 1920 3421 
Q 2238 3584 2597 3584 
Q 2691 3584 2781 3573 
Q 2872 3563 2963 3538 
L 2853 2969 
z
" transform="scale(0.015625)"/>
      <path id="DejaVuSans-Oblique-20" transform="scale(0.015625)"/>
      <path id="DejaVuSans-Oblique-27" d="M 1147 4666 
L 1147 2931 
L 616 2931 
L 616 4666 
L 1147 4666 
z
" transform="scale(0.015625)"/>
      <path id="DejaVuSans-Oblique-66" d="M 3059 4863 
L 2969 4384 
L 2419 4384 
Q 2106 4384 1964 4261 
Q 1822 4138 1753 3809 
L 1691 3500 
L 2638 3500 
L 2553 3053 
L 1606 3053 
L 1013 0 
L 434 0 
L 1031 3053 
L 481 3053 
L 563 3500 
L 1113 3500 
L 1159 3744 
Q 1278 4363 1576 4613 
Q 1875 4863 2516 4863 
L 3059 4863 
z
" transform="scale(0.015625)"/>
      <path id="DejaVuSans-Oblique-69" d="M 1172 4863 
L 1747 4863 
L 1606 4134 
L 1031 4134 
L 1172 4863 
z
M 909 3500 
L 1484 3500 
L 800 0 
L 225 0 
L 909 3500 
z
" transform="scale(0.015625)"/>
      <path id="DejaVuSans-Oblique-6e" d="M 3566 2113 
L 3156 0 
L 2578 0 
L 2988 2091 
Q 3016 2238 3031 2350 
Q 3047 2463 3047 2528 
Q 3047 2791 2881 2937 
Q 2716 3084 2419 3084 
Q 1956 3084 1622 2776 
Q 1288 2469 1184 1941 
L 800 0 
L 225 0 
L 903 3500 
L 1478 3500 
L 1363 2950 
Q 1603 3253 1940 3418 
Q 2278 3584 2650 3584 
Q 3113 3584 3367 3334 
Q 3622 3084 3622 2631 
Q 3622 2519 3608 2391 
Q 3594 2263 3566 2113 
z
" transform="scale(0.015625)"/>
      <path id="DejaVuSans-Oblique-64" d="M 2675 525 
Q 2444 222 2128 65 
Q 1813 -91 1428 -91 
Q 903 -91 598 267 
Q 294 625 294 1247 
Q 294 1766 478 2236 
Q 663 2706 1013 3078 
Q 1244 3325 1534 3454 
Q 1825 3584 2144 3584 
Q 2481 3584 2739 3421 
Q 2997 3259 3138 2956 
L 3513 4863 
L 4091 4863 
L 3144 0 
L 2566 0 
L 2675 525 
z
M 891 1350 
Q 891 897 1095 644 
Q 1300 391 1663 391 
Q 1931 391 2161 520 
Q 2391 650 2566 903 
Q 2750 1166 2856 1509 
Q 2963 1853 2963 2188 
Q 2963 2622 2758 2865 
Q 2553 3109 2194 3109 
Q 1922 3109 1687 2981 
Q 1453 2853 1288 2613 
Q 1106 2353 998 2009 
Q 891 1666 891 1350 
z
" transform="scale(0.015625)"/>
      <path id="DejaVuSans-Oblique-73" d="M 3200 3397 
L 3091 2853 
Q 2863 2978 2609 3040 
Q 2356 3103 2088 3103 
Q 1634 3103 1373 2948 
Q 1113 2794 1113 2528 
Q 1113 2219 1719 2053 
Q 1766 2041 1788 2034 
L 1972 1978 
Q 2547 1819 2739 1644 
Q 2931 1469 2931 1166 
Q 2931 609 2489 259 
Q 2047 -91 1331 -91 
Q 1053 -91 747 -37 
Q 441 16 72 128 
L 184 722 
Q 500 559 806 475 
Q 1113 391 1394 391 
Q 1816 391 2080 572 
Q 2344 753 2344 1031 
Q 2344 1331 1650 1516 
L 1591 1531 
L 1394 1581 
Q 956 1697 753 1886 
Q 550 2075 550 2369 
Q 550 2928 970 3256 
Q 1391 3584 2113 3584 
Q 2397 3584 2667 3537 
Q 2938 3491 3200 3397 
z
" transform="scale(0.015625)"/>
      <path id="DejaVuSans-Oblique-68" d="M 3566 2113 
L 3156 0 
L 2578 0 
L 2988 2091 
Q 3016 2238 3031 2350 
Q 3047 2463 3047 2528 
Q 3047 2791 2881 2937 
Q 2716 3084 2419 3084 
Q 1956 3084 1617 2771 
Q 1278 2459 1178 1941 
L 800 0 
L 225 0 
L 1172 4863 
L 1747 4863 
L 1375 2950 
Q 1594 3244 1934 3414 
Q 2275 3584 2650 3584 
Q 3113 3584 3367 3334 
Q 3622 3084 3622 2631 
Q 3622 2519 3608 2391 
Q 3594 2263 3566 2113 
z
" transform="scale(0.015625)"/>
      <path id="DejaVuSans-Oblique-70" d="M 3175 2156 
Q 3175 2616 2975 2859 
Q 2775 3103 2400 3103 
Q 2144 3103 1911 2972 
Q 1678 2841 1497 2591 
Q 1319 2344 1212 1994 
Q 1106 1644 1106 1300 
Q 1106 863 1306 627 
Q 1506 391 1875 391 
Q 2147 391 2380 519 
Q 2613 647 2778 891 
Q 2956 1147 3065 1494 
Q 3175 1841 3175 2156 
z
M 1394 2969 
Q 1625 3272 1939 3428 
Q 2253 3584 2638 3584 
Q 3175 3584 3472 3232 
Q 3769 2881 3769 2247 
Q 3769 1728 3584 1258 
Q 3400 788 3053 416 
Q 2822 169 2531 39 
Q 2241 -91 1919 -91 
Q 1547 -91 1294 64 
Q 1041 219 916 525 
L 556 -1331 
L -19 -1331 
L 922 3500 
L 1497 3500 
L 1394 2969 
z
" transform="scale(0.015625)"/>
      <path id="DejaVuSans-Oblique-28" d="M 2731 4856 
Q 1903 3822 1495 2892 
Q 1088 1963 1088 1100 
Q 1088 606 1206 120 
Q 1325 -366 1563 -844 
L 1063 -844 
Q 775 -306 634 201 
Q 494 709 494 1197 
Q 494 2125 923 3036 
Q 1353 3947 2222 4856 
L 2731 4856 
z
" transform="scale(0.015625)"/>
      <path id="DejaVuSans-Oblique-53" d="M 3859 4513 
L 3738 3897 
Q 3422 4066 3111 4152 
Q 2800 4238 2509 4238 
Q 1944 4238 1609 3991 
Q 1275 3744 1275 3334 
Q 1275 3109 1398 2989 
Q 1522 2869 2034 2731 
L 2413 2638 
Q 3053 2472 3303 2217 
Q 3553 1963 3553 1503 
Q 3553 797 2998 353 
Q 2444 -91 1538 -91 
Q 1166 -91 791 -17 
Q 416 56 38 206 
L 166 856 
Q 513 641 861 531 
Q 1209 422 1556 422 
Q 2147 422 2503 684 
Q 2859 947 2859 1369 
Q 2859 1650 2717 1795 
Q 2575 1941 2106 2059 
L 1728 2156 
Q 1081 2325 845 2545 
Q 609 2766 609 3163 
Q 609 3859 1145 4304 
Q 1681 4750 2541 4750 
Q 2875 4750 3203 4690 
Q 3531 4631 3859 4513 
z
" transform="scale(0.015625)"/>
      <path id="DejaVuSans-Oblique-67" d="M 3816 3500 
L 3219 434 
Q 3047 -456 2561 -893 
Q 2075 -1331 1253 -1331 
Q 950 -1331 690 -1286 
Q 431 -1241 206 -1147 
L 313 -588 
Q 525 -725 762 -790 
Q 1000 -856 1269 -856 
Q 1816 -856 2167 -557 
Q 2519 -259 2631 300 
L 2681 563 
Q 2441 288 2122 144 
Q 1803 0 1434 0 
Q 903 0 598 351 
Q 294 703 294 1319 
Q 294 1803 478 2267 
Q 663 2731 997 3091 
Q 1219 3328 1514 3456 
Q 1809 3584 2131 3584 
Q 2484 3584 2746 3420 
Q 3009 3256 3138 2956 
L 3238 3500 
L 3816 3500 
z
M 2950 2216 
Q 2950 2641 2750 2872 
Q 2550 3103 2181 3103 
Q 1953 3103 1747 3012 
Q 1541 2922 1394 2759 
Q 1156 2491 1023 2127 
Q 891 1763 891 1375 
Q 891 944 1092 712 
Q 1294 481 1672 481 
Q 2219 481 2584 976 
Q 2950 1472 2950 2216 
z
" transform="scale(0.015625)"/>
      <path id="DejaVuSans-Oblique-61" d="M 3438 1997 
L 3047 0 
L 2472 0 
L 2578 531 
Q 2325 219 2001 64 
Q 1678 -91 1281 -91 
Q 834 -91 548 182 
Q 263 456 263 884 
Q 263 1497 752 1853 
Q 1241 2209 2100 2209 
L 2900 2209 
L 2931 2363 
Q 2938 2388 2941 2417 
Q 2944 2447 2944 2509 
Q 2944 2788 2717 2942 
Q 2491 3097 2081 3097 
Q 1800 3097 1504 3025 
Q 1209 2953 897 2809 
L 997 3341 
Q 1322 3463 1633 3523 
Q 1944 3584 2234 3584 
Q 2853 3584 3176 3315 
Q 3500 3047 3500 2534 
Q 3500 2431 3484 2292 
Q 3469 2153 3438 1997 
z
M 2816 1759 
L 2241 1759 
Q 1534 1759 1195 1570 
Q 856 1381 856 984 
Q 856 709 1029 553 
Q 1203 397 1509 397 
Q 1978 397 2328 733 
Q 2678 1069 2791 1631 
L 2816 1759 
z
" transform="scale(0.015625)"/>
      <path id="DejaVuSans-Oblique-6f" d="M 1625 -91 
Q 1009 -91 651 289 
Q 294 669 294 1325 
Q 294 1706 417 2101 
Q 541 2497 738 2766 
Q 1047 3184 1428 3384 
Q 1809 3584 2291 3584 
Q 2888 3584 3255 3212 
Q 3622 2841 3622 2241 
Q 3622 1825 3500 1412 
Q 3378 1000 3181 728 
Q 2875 309 2494 109 
Q 2113 -91 1625 -91 
z
M 891 1344 
Q 891 869 1089 633 
Q 1288 397 1691 397 
Q 2269 397 2648 901 
Q 3028 1406 3028 2181 
Q 3028 2634 2825 2865 
Q 2622 3097 2228 3097 
Q 1903 3097 1650 2945 
Q 1397 2794 1197 2484 
Q 1050 2253 970 1956 
Q 891 1659 891 1344 
z
" transform="scale(0.015625)"/>
      <path id="DejaVuSans-Oblique-2b" d="M 2944 4013 
L 2944 2272 
L 4684 2272 
L 4684 1741 
L 2944 1741 
L 2944 0 
L 2419 0 
L 2419 1741 
L 678 1741 
L 678 2272 
L 2419 2272 
L 2419 4013 
L 2944 4013 
z
" transform="scale(0.015625)"/>
      <path id="DejaVuSans-Oblique-48" d="M 1081 4666 
L 1716 4666 
L 1344 2753 
L 3634 2753 
L 4006 4666 
L 4641 4666 
L 3731 0 
L 3097 0 
L 3531 2222 
L 1241 2222 
L 806 0 
L 172 0 
L 1081 4666 
z
" transform="scale(0.015625)"/>
      <path id="DejaVuSans-Oblique-6c" d="M 1172 4863 
L 1747 4863 
L 800 0 
L 225 0 
L 1172 4863 
z
" transform="scale(0.015625)"/>
      <path id="DejaVuSans-Oblique-52" d="M 1613 4147 
L 1294 2491 
L 2106 2491 
Q 2584 2491 2879 2755 
Q 3175 3019 3175 3444 
Q 3175 3784 2976 3965 
Q 2778 4147 2406 4147 
L 1613 4147 
z
M 2772 2241 
Q 2972 2194 3105 2009 
Q 3238 1825 3413 1275 
L 3809 0 
L 3144 0 
L 2778 1197 
Q 2638 1659 2453 1815 
Q 2269 1972 1888 1972 
L 1191 1972 
L 806 0 
L 172 0 
L 1081 4666 
L 2503 4666 
Q 3150 4666 3495 4373 
Q 3841 4081 3841 3531 
Q 3841 3044 3547 2687 
Q 3253 2331 2772 2241 
z
" transform="scale(0.015625)"/>
      <path id="DejaVuSans-Oblique-79" d="M 1588 -325 
Q 1188 -997 936 -1164 
Q 684 -1331 294 -1331 
L -159 -1331 
L -63 -850 
L 269 -850 
Q 509 -850 678 -719 
Q 847 -588 1056 -206 
L 1234 128 
L 459 3500 
L 1069 3500 
L 1650 819 
L 3256 3500 
L 3859 3500 
L 1588 -325 
z
" transform="scale(0.015625)"/>
      <path id="DejaVuSans-Oblique-29" d="M -397 -844 
Q 434 191 840 1120 
Q 1247 2050 1247 2913 
Q 1247 3406 1130 3892 
Q 1013 4378 775 4856 
L 1275 4856 
Q 1563 4316 1703 3812 
Q 1844 3309 1844 2822 
Q 1844 1891 1411 973 
Q 978 56 116 -844 
L -397 -844 
z
" transform="scale(0.015625)"/>
     </defs>
     <use xlink:href="#DejaVuSans-Oblique-4e"/>
     <use xlink:href="#DejaVuSans-Oblique-75" transform="translate(74.804688 0)"/>
     <use xlink:href="#DejaVuSans-Oblique-6d" transform="translate(138.183594 0)"/>
     <use xlink:href="#DejaVuSans-Oblique-62" transform="translate(235.595703 0)"/>
     <use xlink:href="#DejaVuSans-Oblique-65" transform="translate(299.072266 0)"/>
     <use xlink:href="#DejaVuSans-Oblique-72" transform="translate(360.595703 0)"/>
     <use xlink:href="#DejaVuSans-Oblique-20" transform="translate(401.708984 0)"/>
     <use xlink:href="#DejaVuSans-Oblique-27" transform="translate(433.496094 0)"/>
     <use xlink:href="#DejaVuSans-Oblique-66" transform="translate(460.986328 0)"/>
     <use xlink:href="#DejaVuSans-Oblique-72" transform="translate(496.191406 0)"/>
     <use xlink:href="#DejaVuSans-Oblique-69" transform="translate(537.304688 0)"/>
     <use xlink:href="#DejaVuSans-Oblique-65" transform="translate(565.087891 0)"/>
     <use xlink:href="#DejaVuSans-Oblique-6e" transform="translate(626.611328 0)"/>
     <use xlink:href="#DejaVuSans-Oblique-64" transform="translate(689.990234 0)"/>
     <use xlink:href="#DejaVuSans-Oblique-73" transform="translate(753.466797 0)"/>
     <use xlink:href="#DejaVuSans-Oblique-68" transform="translate(805.566406 0)"/>
     <use xlink:href="#DejaVuSans-Oblique-69" transform="translate(868.945312 0)"/>
     <use xlink:href="#DejaVuSans-Oblique-70" transform="translate(896.728516 0)"/>
     <use xlink:href="#DejaVuSans-Oblique-73" transform="translate(960.205078 0)"/>
     <use xlink:href="#DejaVuSans-Oblique-27" transform="translate(1012.304688 0)"/>
     <use xlink:href="#DejaVuSans-Oblique-20" transform="translate(1039.794922 0)"/>
     <use xlink:href="#DejaVuSans-Oblique-28" transform="translate(1071.582031 0)"/>
     <use xlink:href="#DejaVuSans-Oblique-53" transform="translate(1110.595703 0)"/>
     <use xlink:href="#DejaVuSans-Oblique-69" transform="translate(1174.072266 0)"/>
     <use xlink:href="#DejaVuSans-Oblique-6e" transform="translate(1201.855469 0)"/>
     <use xlink:href="#DejaVuSans-Oblique-67" transform="translate(1265.234375 0)"/>
     <use xlink:href="#DejaVuSans-Oblique-61" transform="translate(1328.710938 0)"/>
     <use xlink:href="#DejaVuSans-Oblique-70" transform="translate(1389.990234 0)"/>
     <use xlink:href="#DejaVuSans-Oblique-6f" transform="translate(1453.466797 0)"/>
     <use xlink:href="#DejaVuSans-Oblique-72" transform="translate(1514.648438 0)"/>
     <use xlink:href="#DejaVuSans-Oblique-65" transform="translate(1555.761719 0)"/>
     <use xlink:href="#DejaVuSans-Oblique-20" transform="translate(1617.285156 0)"/>
     <use xlink:href="#DejaVuSans-Oblique-2b" transform="translate(1649.072266 0)"/>
     <use xlink:href="#DejaVuSans-Oblique-20" transform="translate(1732.861328 0)"/>
     <use xlink:href="#DejaVuSans-Oblique-48" transform="translate(1764.648438 0)"/>
     <use xlink:href="#DejaVuSans-Oblique-65" transform="translate(1839.84375 0)"/>
     <use xlink:href="#DejaVuSans-Oblique-6c" transform="translate(1901.367188 0)"/>
     <use xlink:href="#DejaVuSans-Oblique-6c" transform="translate(1929.150391 0)"/>
     <use xlink:href="#DejaVuSans-Oblique-6f" transform="translate(1956.933594 0)"/>
     <use xlink:href="#DejaVuSans-Oblique-20" transform="translate(2018.115234 0)"/>
     <use xlink:href="#DejaVuSans-Oblique-52" transform="translate(2049.902344 0)"/>
     <use xlink:href="#DejaVuSans-Oblique-75" transform="translate(2119.384766 0)"/>
     <use xlink:href="#DejaVuSans-Oblique-62" transform="translate(2182.763672 0)"/>
     <use xlink:href="#DejaVuSans-Oblique-79" transform="translate(2246.240234 0)"/>
     <use xlink:href="#DejaVuSans-Oblique-29" transform="translate(2305.419922 0)"/>
    </g>
   </g>
  </g>
  <g id="axes_2">
   <g id="patch_2">
    <path d="M 109.404864 315.824832 
C 114.963385 315.824832 120.294992 312.915973 124.22546 307.738898 
C 128.155928 302.561824 130.364352 295.539218 130.364352 288.217728 
C 130.364352 280.896238 128.155928 273.873632 124.22546 268.696558 
C 120.294992 263.519483 114.963385 260.610624 109.404864 260.610624 
C 103.846343 260.610624 98.514736 263.519483 94.584268 268.696558 
C 90.6538 273.873632 88.445376 280.896238 88.445376 288.217728 
C 88.445376 295.539218 90.6538 302.561824 94.584268 307.738898 
C 98.514736 312.915973 103.846343 315.824832 109.404864 315.824832 
z
" clip-path="url(#pf9a5afc26b)" style="fill: #fff3a3; stroke: #f0a500; stroke-width: 2; stroke-linejoin: miter"/>
   </g>
   <g id="patch_3">
    <path d="M 77.965632 364.137264 
C 82.134523 364.137264 86.133228 361.95562 89.081079 358.072814 
C 92.02893 354.190008 93.685248 348.923053 93.685248 343.431936 
C 93.685248 337.940819 92.02893 332.673864 89.081079 328.791058 
C 86.133228 324.908252 82.134523 322.726608 77.965632 322.726608 
C 73.796741 322.726608 69.798036 324.908252 66.850185 328.791058 
C 63.902334 332.673864 62.246016 337.940819 62.246016 343.431936 
C 62.246016 348.923053 63.902334 354.190008 66.850185 358.072814 
C 69.798036 361.95562 73.796741 364.137264 77.965632 364.137264 
z
" clip-path="url(#pf9a5afc26b)" style="fill: #0b3d91; stroke: #ffffff; stroke-width: 1.5; stroke-linejoin: miter"/>
   </g>
   <g id="patch_4">
    <path d="M 140.844096 364.137264 
C 145.012987 364.137264 149.011692 361.95562 151.959543 358.072814 
C 154.907394 354.190008 156.563712 348.923053 156.563712 343.431936 
C 156.563712 337.940819 154.907394 332.673864 151.959543 328.791058 
C 149.011692 324.908252 145.012987 322.726608 140.844096 322.726608 
C 136.675205 322.726608 132.6765 324.908252 129.728649 328.791058 
C 126.780798 332.673864 125.12448 337.940819 125.12448 343.431936 
C 125.12448 348.923053 126.780798 354.190008 129.728649 358.072814 
C 132.6765 361.95562 136.675205 364.137264 140.844096 364.137264 
z
" clip-path="url(#pf9a5afc26b)" style="fill: #d6336c; stroke: #ffffff; stroke-width: 1.5; stroke-linejoin: miter"/>
   </g>
   <g id="patch_5">
    <path d="M 208.962432 315.824832 
C 214.520953 315.824832 219.85256 312.915973 223.783028 307.738898 
C 227.713496 302.561824 229.92192 295.539218 229.92192 288.217728 
C 229.92192 280.896238 227.713496 273.873632 223.783028 268.696558 
C 219.85256 263.519483 214.520953 260.610624 208.962432 260.610624 
C 203.403911 260.610624 198.072304 263.519483 194.141836 268.696558 
C 190.211368 273.873632 188.002944 280.896238 188.002944 288.217728 
C 188.002944 295.539218 190.211368 302.561824 194.141836 307.738898 
C 198.072304 312.915973 203.403911 315.824832 208.962432 315.824832 
z
" clip-path="url(#pf9a5afc26b)" style="fill: #fff3a3; stroke: #f0a500; stroke-width: 2; stroke-linejoin: miter"/>
   </g>
   <g id="patch_6">
    <path d="M 177.5232 364.137264 
C 181.692091 364.137264 185.690796 361.95562 188.638647 358.072814 
C 191.586498 354.190008 193.242816 348.923053 193.242816 343.431936 
C 193.242816 337.940819 191.586498 332.673864 188.638647 328.791058 
C 185.690796 324.908252 181.692091 322.726608 177.5232 322.726608 
C 173.354309 322.726608 169.355604 324.908252 166.407753 328.791058 
C 163.459902 332.673864 161.803584 337.940819 161.803584 343.431936 
C 161.803584 348.923053 163.459902 354.190008 166.407753 358.072814 
C 169.355604 361.95562 173.354309 364.137264 177.5232 364.137264 
z
" clip-path="url(#pf9a5afc26b)" style="fill: #0b3d91; stroke: #ffffff; stroke-width: 1.5; stroke-linejoin: miter"/>
   </g>
   <g id="patch_7">
    <path d="M 240.401664 364.137264 
C 244.570555 364.137264 248.56926 361.95562 251.517111 358.072814 
C 254.464962 354.190008 256.12128 348.923053 256.12128 343.431936 
C 256.12128 337.940819 254.464962 332.673864 251.517111 328.791058 
C 248.56926 324.908252 244.570555 322.726608 240.401664 322.726608 
C 236.232773 322.726608 232.234068 324.908252 229.286217 328.791058 
C 226.338366 332.673864 224.682048 337.940819 224.682048 343.431936 
C 224.682048 348.923053 226.338366 354.190008 229.286217 358.072814 
C 232.234068 361.95562 236.232773 364.137264 240.401664 364.137264 
z
" clip-path="url(#pf9a5afc26b)" style="fill: #d6336c; stroke: #ffffff; stroke-width: 1.5; stroke-linejoin: miter"/>
   </g>
   <g id="patch_8">
    <path d="M 308.52 315.824832 
C 314.078521 315.824832 319.410128 312.915973 323.340596 307.738898 
C 327.271064 302.561824 329.479488 295.539218 329.479488 288.217728 
C 329.479488 280.896238 327.271064 273.873632 323.340596 268.696558 
C 319.410128 263.519483 314.078521 260.610624 308.52 260.610624 
C 302.961479 260.610624 297.629872 263.519483 293.699404 268.696558 
C 289.768936 273.873632 287.560512 280.896238 287.560512 288.217728 
C 287.560512 295.539218 289.768936 302.561824 293.699404 307.738898 
C 297.629872 312.915973 302.961479 315.824832 308.52 315.824832 
z
" clip-path="url(#pf9a5afc26b)" style="fill: #fff3a3; stroke: #f0a500; stroke-width: 2; stroke-linejoin: miter"/>
   </g>
   <g id="patch_9">
    <path d="M 277.080768 364.137264 
C 281.249659 364.137264 285.248364 361.95562 288.196215 358.072814 
C 291.144066 354.190008 292.800384 348.923053 292.800384 343.431936 
C 292.800384 337.940819 291.144066 332.673864 288.196215 328.791058 
C 285.248364 324.908252 281.249659 322.726608 277.080768 322.726608 
C 272.911877 322.726608 268.913172 324.908252 265.965321 328.791058 
C 263.01747 332.673864 261.361152 337.940819 261.361152 343.431936 
C 261.361152 348.923053 263.01747 354.190008 265.965321 358.072814 
C 268.913172 361.95562 272.911877 364.137264 277.080768 364.137264 
z
" clip-path="url(#pf9a5afc26b)" style="fill: #0b3d91; stroke: #ffffff; stroke-width: 1.5; stroke-linejoin: miter"/>
   </g>
   <g id="patch_10">
    <path d="M 339.959232 364.137264 
C 344.128123 364.137264 348.126828 361.95562 351.074679 358.072814 
C 354.02253 354.190008 355.678848 348.923053 355.678848 343.431936 
C 355.678848 337.940819 354.02253 332.673864 351.074679 328.791058 
C 348.126828 324.908252 344.128123 322.726608 339.959232 322.726608 
C 335.790341 322.726608 331.791636 324.908252 328.843785 328.791058 
C 325.895934 332.673864 324.239616 337.940819 324.239616 343.431936 
C 324.239616 348.923053 325.895934 354.190008 328.843785 358.072814 
C 331.791636 361.95562 335.790341 364.137264 339.959232 364.137264 
z
" clip-path="url(#pf9a5afc26b)" style="fill: #d6336c; stroke: #ffffff; stroke-width: 1.5; stroke-linejoin: miter"/>
   </g>
   <g id="patch_11">
    <path d="M 408.077568 315.824832 
C 413.636089 315.824832 418.967696 312.915973 422.898164 307.738898 
C 426.828632 302.561824 429.037056 295.539218 429.037056 288.217728 
C 429.037056 280.896238 426.828632 273.873632 422.898164 268.696558 
C 418.967696 263.519483 413.636089 260.610624 408.077568 260.610624 
C 402.519047 260.610624 397.18744 263.519483 393.256972 268.696558 
C 389.326504 273.873632 387.11808 280.896238 387.11808 288.217728 
C 387.11808 295.539218 389.326504 302.561824 393.256972 307.738898 
C 397.18744 312.915973 402.519047 315.824832 408.077568 315.824832 
z
" clip-path="url(#pf9a5afc26b)" style="fill: #fff3a3; stroke: #f0a500; stroke-width: 2; stroke-linejoin: miter"/>
   </g>
   <g id="patch_12">
    <path d="M 376.638336 364.137264 
C 380.807227 364.137264 384.805932 361.95562 387.753783 358.072814 
C 390.701634 354.190008 392.357952 348.923053 392.357952 343.431936 
C 392.357952 337.940819 390.701634 332.673864 387.753783 328.791058 
C 384.805932 324.908252 380.807227 322.726608 376.638336 322.726608 
C 372.469445 322.726608 368.47074 324.908252 365.522889 328.791058 
C 362.575038 332.673864 360.91872 337.940819 360.91872 343.431936 
C 360.91872 348.923053 362.575038 354.190008 365.522889 358.072814 
C 368.47074 361.95562 372.469445 364.137264 376.638336 364.137264 
z
" clip-path="url(#pf9a5afc26b)" style="fill: #0b3d91; stroke: #ffffff; stroke-width: 1.5; stroke-linejoin: miter"/>
   </g>
   <g id="patch_13">
    <path d="M 439.5168 364.137264 
C 443.685691 364.137264 447.684396 361.95562 450.632247 358.072814 
C 453.580098 354.190008 455.236416 348.923053 455.236416 343.431936 
C 455.236416 337.940819 453.580098 332.673864 450.632247 328.791058 
C 447.684396 324.908252 443.685691 322.726608 439.5168 322.726608 
C 435.347909 322.726608 431.349204 324.908252 428.401353 328.791058 
C 425.453502 332.673864 423.797184 337.940819 423.797184 343.431936 
C 423.797184 348.923053 425.453502 354.190008 428.401353 358.072814 
C 431.349204 361.95562 435.347909 364.137264 439.5168 364.137264 
z
" clip-path="url(#pf9a5afc26b)" style="fill: #d6336c; stroke: #ffffff; stroke-width: 1.5; stroke-linejoin: miter"/>
   </g>
   <g id="patch_14">
    <path d="M 507.635136 315.824832 
C 513.193657 315.824832 518.525264 312.915973 522.455732 307.738898 
C 526.3862 302.561824 528.594624 295.539218 528.594624 288.217728 
C 528.594624 280.896238 526.3862 273.873632 522.455732 268.696558 
C 518.525264 263.519483 513.193657 260.610624 507.635136 260.610624 
C 502.076615 260.610624 496.745008 263.519483 492.81454 268.696558 
C 488.884072 273.873632 486.675648 280.896238 486.675648 288.217728 
C 486.675648 295.539218 488.884072 302.561824 492.81454 307.738898 
C 496.745008 312.915973 502.076615 315.824832 507.635136 315.824832 
z
" clip-path="url(#pf9a5afc26b)" style="fill: #fff3a3; stroke: #f0a500; stroke-width: 2; stroke-linejoin: miter"/>
   </g>
   <g id="patch_15">
    <path d="M 476.195904 364.137264 
C 480.364795 364.137264 484.3635 361.95562 487.311351 358.072814 
C 490.259202 354.190008 491.91552 348.923053 491.91552 343.431936 
C 491.91552 337.940819 490.259202 332.673864 487.311351 328.791058 
C 484.3635 324.908252 480.364795 322.726608 476.195904 322.726608 
C 472.027013 322.726608 468.028308 324.908252 465.080457 328.791058 
C 462.132606 332.673864 460.476288 337.940819 460.476288 343.431936 
C 460.476288 348.923053 462.132606 354.190008 465.080457 358.072814 
C 468.028308 361.95562 472.027013 364.137264 476.195904 364.137264 
z
" clip-path="url(#pf9a5afc26b)" style="fill: #0b3d91; stroke: #ffffff; stroke-width: 1.5; stroke-linejoin: miter"/>
   </g>
   <g id="patch_16">
    <path d="M 539.074368 364.137264 
C 543.243259 364.137264 547.241964 361.95562 550.189815 358.072814 
C 553.137666 354.190008 554.793984 348.923053 554.793984 343.431936 
C 554.793984 337.940819 553.137666 332.673864 550.189815 328.791058 
C 547.241964 324.908252 543.243259 322.726608 539.074368 322.726608 
C 534.905477 322.726608 530.906772 324.908252 527.958921 328.791058 
C 525.01107 332.673864 523.354752 337.940819 523.354752 343.431936 
C 523.354752 348.923053 525.01107 354.190008 527.958921 358.072814 
C 530.906772 361.95562 534.905477 364.137264 539.074368 364.137264 
z
" clip-path="url(#pf9a5afc26b)" style="fill: #d6336c; stroke: #ffffff; stroke-width: 1.5; stroke-linejoin: miter"/>
   </g>
   <g id="patch_17">
    <path d="M 151.32384 557.386992 
C 158.271991 557.386992 164.9365 553.750919 169.849585 547.279575 
C 174.76267 540.808231 177.5232 532.029974 177.5232 522.878112 
C 177.5232 513.72625 174.76267 504.947993 169.849585 498.476649 
C 164.9365 492.005305 158.271991 488.369232 151.32384 488.369232 
C 144.375689 488.369232 137.71118 492.005305 132.798095 498.476649 
C 127.88501 504.947993 125.12448 513.72625 125.12448 522.878112 
C 125.12448 532.029974 127.88501 540.808231 132.798095 547.279575 
C 137.71118 553.750919 144.375689 557.386992 151.32384 557.386992 
z
" clip-path="url(#pf9a5afc26b)" style="fill: #cfe9d2; stroke: #1b6d3b; stroke-width: 2; stroke-linejoin: miter"/>
   </g>
   <g id="patch_18">
    <path d="M 109.404864 616.052088 
C 114.26857 616.052088 118.933726 613.506837 122.372886 608.976896 
C 125.812045 604.446956 127.744416 598.302175 127.744416 591.895872 
C 127.744416 585.489569 125.812045 579.344788 122.372886 574.814848 
C 118.933726 570.284907 114.26857 567.739656 109.404864 567.739656 
C 104.541158 567.739656 99.876002 570.284907 96.436842 574.814848 
C 92.997683 579.344788 91.065312 585.489569 91.065312 591.895872 
C 91.065312 598.302175 92.997683 604.446956 96.436842 608.976896 
C 99.876002 613.506837 104.541158 616.052088 109.404864 616.052088 
z
" clip-path="url(#pf9a5afc26b)" style="fill: #0b3d91; stroke: #ffffff; stroke-width: 1.5; stroke-linejoin: miter"/>
   </g>
   <g id="patch_19">
    <path d="M 193.242816 616.052088 
C 198.106522 616.052088 202.771678 613.506837 206.210838 608.976896 
C 209.649997 604.446956 211.582368 598.302175 211.582368 591.895872 
C 211.582368 585.489569 209.649997 579.344788 206.210838 574.814848 
C 202.771678 570.284907 198.106522 567.739656 193.242816 567.739656 
C 188.37911 567.739656 183.713954 570.284907 180.274794 574.814848 
C 176.835635 579.344788 174.903264 585.489569 174.903264 591.895872 
C 174.903264 598.302175 176.835635 604.446956 180.274794 608.976896 
C 183.713954 613.506837 188.37911 616.052088 193.242816 616.052088 
z
" clip-path="url(#pf9a5afc26b)" style="fill: #d6336c; stroke: #ffffff; stroke-width: 1.5; stroke-linejoin: miter"/>
   </g>
   <g id="patch_20">
    <path d="M 308.52 557.386992 
C 315.468151 557.386992 322.13266 553.750919 327.045745 547.279575 
C 331.95883 540.808231 334.71936 532.029974 334.71936 522.878112 
C 334.71936 513.72625 331.95883 504.947993 327.045745 498.476649 
C 322.13266 492.005305 315.468151 488.369232 308.52 488.369232 
C 301.571849 488.369232 294.90734 492.005305 289.994255 498.476649 
C 285.08117 504.947993 282.32064 513.72625 282.32064 522.878112 
C 282.32064 532.029974 285.08117 540.808231 289.994255 547.279575 
C 294.90734 553.750919 301.571849 557.386992 308.52 557.386992 
z
" clip-path="url(#pf9a5afc26b)" style="fill: #cfe9d2; stroke: #1b6d3b; stroke-width: 2; stroke-linejoin: miter"/>
   </g>
   <g id="patch_21">
    <path d="M 266.601024 616.052088 
C 271.46473 616.052088 276.129886 613.506837 279.569046 608.976896 
C 283.008205 604.446956 284.940576 598.302175 284.940576 591.895872 
C 284.940576 585.489569 283.008205 579.344788 279.569046 574.814848 
C 276.129886 570.284907 271.46473 567.739656 266.601024 567.739656 
C 261.737318 567.739656 257.072162 570.284907 253.633002 574.814848 
C 250.193843 579.344788 248.261472 585.489569 248.261472 591.895872 
C 248.261472 598.302175 250.193843 604.446956 253.633002 608.976896 
C 257.072162 613.506837 261.737318 616.052088 266.601024 616.052088 
z
" clip-path="url(#pf9a5afc26b)" style="fill: #0b3d91; stroke: #ffffff; stroke-width: 1.5; stroke-linejoin: miter"/>
   </g>
   <g id="patch_22">
    <path d="M 350.438976 616.052088 
C 355.302682 616.052088 359.967838 613.506837 363.406998 608.976896 
C 366.846157 604.446956 368.778528 598.302175 368.778528 591.895872 
C 368.778528 585.489569 366.846157 579.344788 363.406998 574.814848 
C 359.967838 570.284907 355.302682 567.739656 350.438976 567.739656 
C 345.57527 567.739656 340.910114 570.284907 337.470954 574.814848 
C 334.031795 579.344788 332.099424 585.489569 332.099424 591.895872 
C 332.099424 598.302175 334.031795 604.446956 337.470954 608.976896 
C 340.910114 613.506837 345.57527 616.052088 350.438976 616.052088 
z
" clip-path="url(#pf9a5afc26b)" style="fill: #d6336c; stroke: #ffffff; stroke-width: 1.5; stroke-linejoin: miter"/>
   </g>
   <g id="patch_23">
    <path d="M 465.71616 557.386992 
C 472.664311 557.386992 479.32882 553.750919 484.241905 547.279575 
C 489.15499 540.808231 491.91552 532.029974 491.91552 522.878112 
C 491.91552 513.72625 489.15499 504.947993 484.241905 498.476649 
C 479.32882 492.005305 472.664311 488.369232 465.71616 488.369232 
C 458.768009 488.369232 452.1035 492.005305 447.190415 498.476649 
C 442.27733 504.947993 439.5168 513.72625 439.5168 522.878112 
C 439.5168 532.029974 442.27733 540.808231 447.190415 547.279575 
C 452.1035 553.750919 458.768009 557.386992 465.71616 557.386992 
z
" clip-path="url(#pf9a5afc26b)" style="fill: #cfe9d2; stroke: #1b6d3b; stroke-width: 2; stroke-linejoin: miter"/>
   </g>
   <g id="patch_24">
    <path d="M 423.797184 616.052088 
C 428.66089 616.052088 433.326046 613.506837 436.765206 608.976896 
C 440.204365 604.446956 442.136736 598.302175 442.136736 591.895872 
C 442.136736 585.489569 440.204365 579.344788 436.765206 574.814848 
C 433.326046 570.284907 428.66089 567.739656 423.797184 567.739656 
C 418.933478 567.739656 414.268322 570.284907 410.829162 574.814848 
C 407.390003 579.344788 405.457632 585.489569 405.457632 591.895872 
C 405.457632 598.302175 407.390003 604.446956 410.829162 608.976896 
C 414.268322 613.506837 418.933478 616.052088 423.797184 616.052088 
z
" clip-path="url(#pf9a5afc26b)" style="fill: #0b3d91; stroke: #ffffff; stroke-width: 1.5; stroke-linejoin: miter"/>
   </g>
   <g id="patch_25">
    <path d="M 507.635136 616.052088 
C 512.498842 616.052088 517.163998 613.506837 520.603158 608.976896 
C 524.042317 604.446956 525.974688 598.302175 525.974688 591.895872 
C 525.974688 585.489569 524.042317 579.344788 520.603158 574.814848 
C 517.163998 570.284907 512.498842 567.739656 507.635136 567.739656 
C 502.77143 567.739656 498.106274 570.284907 494.667114 574.814848 
C 491.227955 579.344788 489.295584 585.489569 489.295584 591.895872 
C 489.295584 598.302175 491.227955 604.446956 494.667114 608.976896 
C 498.106274 613.506837 502.77143 616.052088 507.635136 616.052088 
z
" clip-path="url(#pf9a5afc26b)" style="fill: #d6336c; stroke: #ffffff; stroke-width: 1.5; stroke-linejoin: miter"/>
   </g>
   <g id="line2d_1">
    <path d="M 93.685248 308.923056 
L 83.205504 329.628384 
" clip-path="url(#pf9a5afc26b)" style="fill: none; stroke: #888888; stroke-width: 1.5; stroke-linecap: square"/>
   </g>
   <g id="line2d_2">
    <path d="M 125.12448 308.923056 
L 135.604224 329.628384 
" clip-path="url(#pf9a5afc26b)" style="fill: none; stroke: #888888; stroke-width: 1.5; stroke-linecap: square"/>
   </g>
   <g id="line2d_3">
    <path d="M 193.242816 308.923056 
L 182.763072 329.628384 
" clip-path="url(#pf9a5afc26b)" style="fill: none; stroke: #888888; stroke-width: 1.5; stroke-linecap: square"/>
   </g>
   <g id="line2d_4">
    <path d="M 224.682048 308.923056 
L 235.161792 329.628384 
" clip-path="url(#pf9a5afc26b)" style="fill: none; stroke: #888888; stroke-width: 1.5; stroke-linecap: square"/>
   </g>
   <g id="line2d_5">
    <path d="M 292.800384 308.923056 
L 282.32064 329.628384 
" clip-path="url(#pf9a5afc26b)" style="fill: none; stroke: #888888; stroke-width: 1.5; stroke-linecap: square"/>
   </g>
   <g id="line2d_6">
    <path d="M 324.239616 308.923056 
L 334.71936 329.628384 
" clip-path="url(#pf9a5afc26b)" style="fill: none; stroke: #888888; stroke-width: 1.5; stroke-linecap: square"/>
   </g>
   <g id="line2d_7">
    <path d="M 392.357952 308.923056 
L 381.878208 329.628384 
" clip-path="url(#pf9a5afc26b)" style="fill: none; stroke: #888888; stroke-width: 1.5; stroke-linecap: square"/>
   </g>
   <g id="line2d_8">
    <path d="M 423.797184 308.923056 
L 434.276928 329.628384 
" clip-path="url(#pf9a5afc26b)" style="fill: none; stroke: #888888; stroke-width: 1.5; stroke-linecap: square"/>
   </g>
   <g id="line2d_9">
    <path d="M 491.91552 308.923056 
L 481.435776 329.628384 
" clip-path="url(#pf9a5afc26b)" style="fill: none; stroke: #888888; stroke-width: 1.5; stroke-linecap: square"/>
   </g>
   <g id="line2d_10">
    <path d="M 523.354752 308.923056 
L 533.834496 329.628384 
" clip-path="url(#pf9a5afc26b)" style="fill: none; stroke: #888888; stroke-width: 1.5; stroke-linecap: square"/>
   </g>
   <g id="line2d_11">
    <path d="M 130.364352 550.485216 
L 119.884608 571.190544 
" clip-path="url(#pf9a5afc26b)" style="fill: none; stroke: #888888; stroke-width: 1.5; stroke-linecap: square"/>
   </g>
   <g id="line2d_12">
    <path d="M 172.283328 550.485216 
L 182.763072 571.190544 
" clip-path="url(#pf9a5afc26b)" style="fill: none; stroke: #888888; stroke-width: 1.5; stroke-linecap: square"/>
   </g>
   <g id="line2d_13">
    <path d="M 287.560512 550.485216 
L 277.080768 571.190544 
" clip-path="url(#pf9a5afc26b)" style="fill: none; stroke: #888888; stroke-width: 1.5; stroke-linecap: square"/>
   </g>
   <g id="line2d_14">
    <path d="M 329.479488 550.485216 
L 339.959232 571.190544 
" clip-path="url(#pf9a5afc26b)" style="fill: none; stroke: #888888; stroke-width: 1.5; stroke-linecap: square"/>
   </g>
   <g id="line2d_15">
    <path d="M 444.756672 550.485216 
L 434.276928 571.190544 
" clip-path="url(#pf9a5afc26b)" style="fill: none; stroke: #888888; stroke-width: 1.5; stroke-linecap: square"/>
   </g>
   <g id="line2d_16">
    <path d="M 486.675648 550.485216 
L 497.155392 571.190544 
" clip-path="url(#pf9a5afc26b)" style="fill: none; stroke: #888888; stroke-width: 1.5; stroke-linecap: square"/>
   </g>
   <g id="text_3">
    <g id="patch_26">
     <path d="M 150.306953 169.631265 
L 466.733047 169.631265 
Q 472.483047 169.631265 472.483047 163.881265 
L 472.483047 136.378656 
Q 472.483047 130.628656 466.733047 130.628656 
L 150.306953 130.628656 
Q 144.556953 130.628656 144.556953 136.378656 
L 144.556953 163.881265 
Q 144.556953 169.631265 150.306953 169.631265 
z
" style="fill: #fffbe6; stroke: #f0a500; stroke-width: 1.5; stroke-linejoin: miter"/>
    </g>
    <!-- Knowing every pair that 'makes' a number is essential. -->
    <g style="fill: #1d1d1f" transform="translate(150.306953 145.116859) scale(0.115 -0.115)">
     <defs>
      <path id="DejaVuSans-4b" d="M 628 4666 
L 1259 4666 
L 1259 2694 
L 3353 4666 
L 4166 4666 
L 1850 2491 
L 4331 0 
L 3500 0 
L 1259 2247 
L 1259 0 
L 628 0 
L 628 4666 
z
" transform="scale(0.015625)"/>
      <path id="DejaVuSans-6e" d="M 3513 2113 
L 3513 0 
L 2938 0 
L 2938 2094 
Q 2938 2591 2744 2837 
Q 2550 3084 2163 3084 
Q 1697 3084 1428 2787 
Q 1159 2491 1159 1978 
L 1159 0 
L 581 0 
L 581 3500 
L 1159 3500 
L 1159 2956 
Q 1366 3272 1645 3428 
Q 1925 3584 2291 3584 
Q 2894 3584 3203 3211 
Q 3513 2838 3513 2113 
z
" transform="scale(0.015625)"/>
      <path id="DejaVuSans-6f" d="M 1959 3097 
Q 1497 3097 1228 2736 
Q 959 2375 959 1747 
Q 959 1119 1226 758 
Q 1494 397 1959 397 
Q 2419 397 2687 759 
Q 2956 1122 2956 1747 
Q 2956 2369 2687 2733 
Q 2419 3097 1959 3097 
z
M 1959 3584 
Q 2709 3584 3137 3096 
Q 3566 2609 3566 1747 
Q 3566 888 3137 398 
Q 2709 -91 1959 -91 
Q 1206 -91 779 398 
Q 353 888 353 1747 
Q 353 2609 779 3096 
Q 1206 3584 1959 3584 
z
" transform="scale(0.015625)"/>
      <path id="DejaVuSans-77" d="M 269 3500 
L 844 3500 
L 1563 769 
L 2278 3500 
L 2956 3500 
L 3675 769 
L 4391 3500 
L 4966 3500 
L 4050 0 
L 3372 0 
L 2619 2869 
L 1863 0 
L 1184 0 
L 269 3500 
z
" transform="scale(0.015625)"/>
      <path id="DejaVuSans-69" d="M 603 3500 
L 1178 3500 
L 1178 0 
L 603 0 
L 603 3500 
z
M 603 4863 
L 1178 4863 
L 1178 4134 
L 603 4134 
L 603 4863 
z
" transform="scale(0.015625)"/>
      <path id="DejaVuSans-67" d="M 2906 1791 
Q 2906 2416 2648 2759 
Q 2391 3103 1925 3103 
Q 1463 3103 1205 2759 
Q 947 2416 947 1791 
Q 947 1169 1205 825 
Q 1463 481 1925 481 
Q 2391 481 2648 825 
Q 2906 1169 2906 1791 
z
M 3481 434 
Q 3481 -459 3084 -895 
Q 2688 -1331 1869 -1331 
Q 1566 -1331 1297 -1286 
Q 1028 -1241 775 -1147 
L 775 -588 
Q 1028 -725 1275 -790 
Q 1522 -856 1778 -856 
Q 2344 -856 2625 -561 
Q 2906 -266 2906 331 
L 2906 616 
Q 2728 306 2450 153 
Q 2172 0 1784 0 
Q 1141 0 747 490 
Q 353 981 353 1791 
Q 353 2603 747 3093 
Q 1141 3584 1784 3584 
Q 2172 3584 2450 3431 
Q 2728 3278 2906 2969 
L 2906 3500 
L 3481 3500 
L 3481 434 
z
" transform="scale(0.015625)"/>
      <path id="DejaVuSans-20" transform="scale(0.015625)"/>
      <path id="DejaVuSans-65" d="M 3597 1894 
L 3597 1613 
L 953 1613 
Q 991 1019 1311 708 
Q 1631 397 2203 397 
Q 2534 397 2845 478 
Q 3156 559 3463 722 
L 3463 178 
Q 3153 47 2828 -22 
Q 2503 -91 2169 -91 
Q 1331 -91 842 396 
Q 353 884 353 1716 
Q 353 2575 817 3079 
Q 1281 3584 2069 3584 
Q 2775 3584 3186 3129 
Q 3597 2675 3597 1894 
z
M 3022 2063 
Q 3016 2534 2758 2815 
Q 2500 3097 2075 3097 
Q 1594 3097 1305 2825 
Q 1016 2553 972 2059 
L 3022 2063 
z
" transform="scale(0.015625)"/>
      <path id="DejaVuSans-76" d="M 191 3500 
L 800 3500 
L 1894 563 
L 2988 3500 
L 3597 3500 
L 2284 0 
L 1503 0 
L 191 3500 
z
" transform="scale(0.015625)"/>
      <path id="DejaVuSans-72" d="M 2631 2963 
Q 2534 3019 2420 3045 
Q 2306 3072 2169 3072 
Q 1681 3072 1420 2755 
Q 1159 2438 1159 1844 
L 1159 0 
L 581 0 
L 581 3500 
L 1159 3500 
L 1159 2956 
Q 1341 3275 1631 3429 
Q 1922 3584 2338 3584 
Q 2397 3584 2469 3576 
Q 2541 3569 2628 3553 
L 2631 2963 
z
" transform="scale(0.015625)"/>
      <path id="DejaVuSans-79" d="M 2059 -325 
Q 1816 -950 1584 -1140 
Q 1353 -1331 966 -1331 
L 506 -1331 
L 506 -850 
L 844 -850 
Q 1081 -850 1212 -737 
Q 1344 -625 1503 -206 
L 1606 56 
L 191 3500 
L 800 3500 
L 1894 763 
L 2988 3500 
L 3597 3500 
L 2059 -325 
z
" transform="scale(0.015625)"/>
      <path id="DejaVuSans-70" d="M 1159 525 
L 1159 -1331 
L 581 -1331 
L 581 3500 
L 1159 3500 
L 1159 2969 
Q 1341 3281 1617 3432 
Q 1894 3584 2278 3584 
Q 2916 3584 3314 3078 
Q 3713 2572 3713 1747 
Q 3713 922 3314 415 
Q 2916 -91 2278 -91 
Q 1894 -91 1617 61 
Q 1341 213 1159 525 
z
M 3116 1747 
Q 3116 2381 2855 2742 
Q 2594 3103 2138 3103 
Q 1681 3103 1420 2742 
Q 1159 2381 1159 1747 
Q 1159 1113 1420 752 
Q 1681 391 2138 391 
Q 2594 391 2855 752 
Q 3116 1113 3116 1747 
z
" transform="scale(0.015625)"/>
      <path id="DejaVuSans-61" d="M 2194 1759 
Q 1497 1759 1228 1600 
Q 959 1441 959 1056 
Q 959 750 1161 570 
Q 1363 391 1709 391 
Q 2188 391 2477 730 
Q 2766 1069 2766 1631 
L 2766 1759 
L 2194 1759 
z
M 3341 1997 
L 3341 0 
L 2766 0 
L 2766 531 
Q 2569 213 2275 61 
Q 1981 -91 1556 -91 
Q 1019 -91 701 211 
Q 384 513 384 1019 
Q 384 1609 779 1909 
Q 1175 2209 1959 2209 
L 2766 2209 
L 2766 2266 
Q 2766 2663 2505 2880 
Q 2244 3097 1772 3097 
Q 1472 3097 1187 3025 
Q 903 2953 641 2809 
L 641 3341 
Q 956 3463 1253 3523 
Q 1550 3584 1831 3584 
Q 2591 3584 2966 3190 
Q 3341 2797 3341 1997 
z
" transform="scale(0.015625)"/>
      <path id="DejaVuSans-74" d="M 1172 4494 
L 1172 3500 
L 2356 3500 
L 2356 3053 
L 1172 3053 
L 1172 1153 
Q 1172 725 1289 603 
Q 1406 481 1766 481 
L 2356 481 
L 2356 0 
L 1766 0 
Q 1100 0 847 248 
Q 594 497 594 1153 
L 594 3053 
L 172 3053 
L 172 3500 
L 594 3500 
L 594 4494 
L 1172 4494 
z
" transform="scale(0.015625)"/>
      <path id="DejaVuSans-68" d="M 3513 2113 
L 3513 0 
L 2938 0 
L 2938 2094 
Q 2938 2591 2744 2837 
Q 2550 3084 2163 3084 
Q 1697 3084 1428 2787 
Q 1159 2491 1159 1978 
L 1159 0 
L 581 0 
L 581 4863 
L 1159 4863 
L 1159 2956 
Q 1366 3272 1645 3428 
Q 1925 3584 2291 3584 
Q 2894 3584 3203 3211 
Q 3513 2838 3513 2113 
z
" transform="scale(0.015625)"/>
      <path id="DejaVuSans-27" d="M 1147 4666 
L 1147 2931 
L 616 2931 
L 616 4666 
L 1147 4666 
z
" transform="scale(0.015625)"/>
      <path id="DejaVuSans-6d" d="M 3328 2828 
Q 3544 3216 3844 3400 
Q 4144 3584 4550 3584 
Q 5097 3584 5394 3201 
Q 5691 2819 5691 2113 
L 5691 0 
L 5113 0 
L 5113 2094 
Q 5113 2597 4934 2840 
Q 4756 3084 4391 3084 
Q 3944 3084 3684 2787 
Q 3425 2491 3425 1978 
L 3425 0 
L 2847 0 
L 2847 2094 
Q 2847 2600 2669 2842 
Q 2491 3084 2119 3084 
Q 1678 3084 1418 2786 
Q 1159 2488 1159 1978 
L 1159 0 
L 581 0 
L 581 3500 
L 1159 3500 
L 1159 2956 
Q 1356 3278 1631 3431 
Q 1906 3584 2284 3584 
Q 2666 3584 2933 3390 
Q 3200 3197 3328 2828 
z
" transform="scale(0.015625)"/>
      <path id="DejaVuSans-6b" d="M 581 4863 
L 1159 4863 
L 1159 1991 
L 2875 3500 
L 3609 3500 
L 1753 1863 
L 3688 0 
L 2938 0 
L 1159 1709 
L 1159 0 
L 581 0 
L 581 4863 
z
" transform="scale(0.015625)"/>
      <path id="DejaVuSans-73" d="M 2834 3397 
L 2834 2853 
Q 2591 2978 2328 3040 
Q 2066 3103 1784 3103 
Q 1356 3103 1142 2972 
Q 928 2841 928 2578 
Q 928 2378 1081 2264 
Q 1234 2150 1697 2047 
L 1894 2003 
Q 2506 1872 2764 1633 
Q 3022 1394 3022 966 
Q 3022 478 2636 193 
Q 2250 -91 1575 -91 
Q 1294 -91 989 -36 
Q 684 19 347 128 
L 347 722 
Q 666 556 975 473 
Q 1284 391 1588 391 
Q 1994 391 2212 530 
Q 2431 669 2431 922 
Q 2431 1156 2273 1281 
Q 2116 1406 1581 1522 
L 1381 1569 
Q 847 1681 609 1914 
Q 372 2147 372 2553 
Q 372 3047 722 3315 
Q 1072 3584 1716 3584 
Q 2034 3584 2315 3537 
Q 2597 3491 2834 3397 
z
" transform="scale(0.015625)"/>
      <path id="DejaVuSans-75" d="M 544 1381 
L 544 3500 
L 1119 3500 
L 1119 1403 
Q 1119 906 1312 657 
Q 1506 409 1894 409 
Q 2359 409 2629 706 
Q 2900 1003 2900 1516 
L 2900 3500 
L 3475 3500 
L 3475 0 
L 2900 0 
L 2900 538 
Q 2691 219 2414 64 
Q 2138 -91 1772 -91 
Q 1169 -91 856 284 
Q 544 659 544 1381 
z
M 1991 3584 
L 1991 3584 
z
" transform="scale(0.015625)"/>
      <path id="DejaVuSans-62" d="M 3116 1747 
Q 3116 2381 2855 2742 
Q 2594 3103 2138 3103 
Q 1681 3103 1420 2742 
Q 1159 2381 1159 1747 
Q 1159 1113 1420 752 
Q 1681 391 2138 391 
Q 2594 391 2855 752 
Q 3116 1113 3116 1747 
z
M 1159 2969 
Q 1341 3281 1617 3432 
Q 1894 3584 2278 3584 
Q 2916 3584 3314 3078 
Q 3713 2572 3713 1747 
Q 3713 922 3314 415 
Q 2916 -91 2278 -91 
Q 1894 -91 1617 61 
Q 1341 213 1159 525 
L 1159 0 
L 581 0 
L 581 4863 
L 1159 4863 
L 1159 2969 
z
" transform="scale(0.015625)"/>
      <path id="DejaVuSans-6c" d="M 603 4863 
L 1178 4863 
L 1178 0 
L 603 0 
L 603 4863 
z
" transform="scale(0.015625)"/>
      <path id="DejaVuSans-2e" d="M 684 794 
L 1344 794 
L 1344 0 
L 684 0 
L 684 794 
z
" transform="scale(0.015625)"/>
     </defs>
     <use xlink:href="#DejaVuSans-4b"/>
     <use xlink:href="#DejaVuSans-6e" transform="translate(65.576172 0)"/>
     <use xlink:href="#DejaVuSans-6f" transform="translate(128.955078 0)"/>
     <use xlink:href="#DejaVuSans-77" transform="translate(190.136719 0)"/>
     <use xlink:href="#DejaVuSans-69" transform="translate(271.923828 0)"/>
     <use xlink:href="#DejaVuSans-6e" transform="translate(299.707031 0)"/>
     <use xlink:href="#DejaVuSans-67" transform="translate(363.085938 0)"/>
     <use xlink:href="#DejaVuSans-20" transform="translate(426.5625 0)"/>
     <use xlink:href="#DejaVuSans-65" transform="translate(458.349609 0)"/>
     <use xlink:href="#DejaVuSans-76" transform="translate(519.873047 0)"/>
     <use xlink:href="#DejaVuSans-65" transform="translate(579.052734 0)"/>
     <use xlink:href="#DejaVuSans-72" transform="translate(640.576172 0)"/>
     <use xlink:href="#DejaVuSans-79" transform="translate(681.689453 0)"/>
     <use xlink:href="#DejaVuSans-20" transform="translate(740.869141 0)"/>
     <use xlink:href="#DejaVuSans-70" transform="translate(772.65625 0)"/>
     <use xlink:href="#DejaVuSans-61" transform="translate(836.132812 0)"/>
     <use xlink:href="#DejaVuSans-69" transform="translate(897.412109 0)"/>
     <use xlink:href="#DejaVuSans-72" transform="translate(925.195312 0)"/>
     <use xlink:href="#DejaVuSans-20" transform="translate(966.308594 0)"/>
     <use xlink:href="#DejaVuSans-74" transform="translate(998.095703 0)"/>
     <use xlink:href="#DejaVuSans-68" transform="translate(1037.304688 0)"/>
     <use xlink:href="#DejaVuSans-61" transform="translate(1100.683594 0)"/>
     <use xlink:href="#DejaVuSans-74" transform="translate(1161.962891 0)"/>
     <use xlink:href="#DejaVuSans-20" transform="translate(1201.171875 0)"/>
     <use xlink:href="#DejaVuSans-27" transform="translate(1232.958984 0)"/>
     <use xlink:href="#DejaVuSans-6d" transform="translate(1260.449219 0)"/>
     <use xlink:href="#DejaVuSans-61" transform="translate(1357.861328 0)"/>
     <use xlink:href="#DejaVuSans-6b" transform="translate(1419.140625 0)"/>
     <use xlink:href="#DejaVuSans-65" transform="translate(1473.425781 0)"/>
     <use xlink:href="#DejaVuSans-73" transform="translate(1534.949219 0)"/>
     <use xlink:href="#DejaVuSans-27" transform="translate(1587.048828 0)"/>
     <use xlink:href="#DejaVuSans-20" transform="translate(1614.539062 0)"/>
     <use xlink:href="#DejaVuSans-61" transform="translate(1646.326172 0)"/>
     <use xlink:href="#DejaVuSans-20" transform="translate(1707.605469 0)"/>
     <use xlink:href="#DejaVuSans-6e" transform="translate(1739.392578 0)"/>
     <use xlink:href="#DejaVuSans-75" transform="translate(1802.771484 0)"/>
     <use xlink:href="#DejaVuSans-6d" transform="translate(1866.150391 0)"/>
     <use xlink:href="#DejaVuSans-62" transform="translate(1963.5625 0)"/>
     <use xlink:href="#DejaVuSans-65" transform="translate(2027.039062 0)"/>
     <use xlink:href="#DejaVuSans-72" transform="translate(2088.5625 0)"/>
     <use xlink:href="#DejaVuSans-20" transform="translate(2129.675781 0)"/>
     <use xlink:href="#DejaVuSans-69" transform="translate(2161.462891 0)"/>
     <use xlink:href="#DejaVuSans-73" transform="translate(2189.246094 0)"/>
     <use xlink:href="#DejaVuSans-20" transform="translate(2241.345703 0)"/>
     <use xlink:href="#DejaVuSans-65" transform="translate(2273.132812 0)"/>
     <use xlink:href="#DejaVuSans-73" transform="translate(2334.65625 0)"/>
     <use xlink:href="#DejaVuSans-73" transform="translate(2386.755859 0)"/>
     <use xlink:href="#DejaVuSans-65" transform="translate(2438.855469 0)"/>
     <use xlink:href="#DejaVuSans-6e" transform="translate(2500.378906 0)"/>
     <use xlink:href="#DejaVuSans-74" transform="translate(2563.757812 0)"/>
     <use xlink:href="#DejaVuSans-69" transform="translate(2602.966797 0)"/>
     <use xlink:href="#DejaVuSans-61" transform="translate(2630.75 0)"/>
     <use xlink:href="#DejaVuSans-6c" transform="translate(2692.029297 0)"/>
     <use xlink:href="#DejaVuSans-2e" transform="translate(2719.8125 0)"/>
    </g>
    <!-- We picture them with linked bubbles. -->
    <g style="fill: #1d1d1f" transform="translate(201.480156 161.489625) scale(0.115 -0.115)">
     <defs>
      <path id="DejaVuSans-57" d="M 213 4666 
L 850 4666 
L 1831 722 
L 2809 4666 
L 3519 4666 
L 4500 722 
L 5478 4666 
L 6119 4666 
L 4947 0 
L 4153 0 
L 3169 4050 
L 2175 0 
L 1381 0 
L 213 4666 
z
" transform="scale(0.015625)"/>
      <path id="DejaVuSans-63" d="M 3122 3366 
L 3122 2828 
Q 2878 2963 2633 3030 
Q 2388 3097 2138 3097 
Q 1578 3097 1268 2742 
Q 959 2388 959 1747 
Q 959 1106 1268 751 
Q 1578 397 2138 397 
Q 2388 397 2633 464 
Q 2878 531 3122 666 
L 3122 134 
Q 2881 22 2623 -34 
Q 2366 -91 2075 -91 
Q 1284 -91 818 406 
Q 353 903 353 1747 
Q 353 2603 823 3093 
Q 1294 3584 2113 3584 
Q 2378 3584 2631 3529 
Q 2884 3475 3122 3366 
z
" transform="scale(0.015625)"/>
      <path id="DejaVuSans-64" d="M 2906 2969 
L 2906 4863 
L 3481 4863 
L 3481 0 
L 2906 0 
L 2906 525 
Q 2725 213 2448 61 
Q 2172 -91 1784 -91 
Q 1150 -91 751 415 
Q 353 922 353 1747 
Q 353 2572 751 3078 
Q 1150 3584 1784 3584 
Q 2172 3584 2448 3432 
Q 2725 3281 2906 2969 
z
M 947 1747 
Q 947 1113 1208 752 
Q 1469 391 1925 391 
Q 2381 391 2643 752 
Q 2906 1113 2906 1747 
Q 2906 2381 2643 2742 
Q 2381 3103 1925 3103 
Q 1469 3103 1208 2742 
Q 947 2381 947 1747 
z
" transform="scale(0.015625)"/>
     </defs>
     <use xlink:href="#DejaVuSans-57"/>
     <use xlink:href="#DejaVuSans-65" transform="translate(93.001953 0)"/>
     <use xlink:href="#DejaVuSans-20" transform="translate(154.525391 0)"/>
     <use xlink:href="#DejaVuSans-70" transform="translate(186.3125 0)"/>
     <use xlink:href="#DejaVuSans-69" transform="translate(249.789062 0)"/>
     <use xlink:href="#DejaVuSans-63" transform="translate(277.572266 0)"/>
     <use xlink:href="#DejaVuSans-74" transform="translate(332.552734 0)"/>
     <use xlink:href="#DejaVuSans-75" transform="translate(371.761719 0)"/>
     <use xlink:href="#DejaVuSans-72" transform="translate(435.140625 0)"/>
     <use xlink:href="#DejaVuSans-65" transform="translate(474.003906 0)"/>
     <use xlink:href="#DejaVuSans-20" transform="translate(535.527344 0)"/>
     <use xlink:href="#DejaVuSans-74" transform="translate(567.314453 0)"/>
     <use xlink:href="#DejaVuSans-68" transform="translate(606.523438 0)"/>
     <use xlink:href="#DejaVuSans-65" transform="translate(669.902344 0)"/>
     <use xlink:href="#DejaVuSans-6d" transform="translate(731.425781 0)"/>
     <use xlink:href="#DejaVuSans-20" transform="translate(828.837891 0)"/>
     <use xlink:href="#DejaVuSans-77" transform="translate(860.625 0)"/>
     <use xlink:href="#DejaVuSans-69" transform="translate(942.412109 0)"/>
     <use xlink:href="#DejaVuSans-74" transform="translate(970.195312 0)"/>
     <use xlink:href="#DejaVuSans-68" transform="translate(1009.404297 0)"/>
     <use xlink:href="#DejaVuSans-20" transform="translate(1072.783203 0)"/>
     <use xlink:href="#DejaVuSans-6c" transform="translate(1104.570312 0)"/>
     <use xlink:href="#DejaVuSans-69" transform="translate(1132.353516 0)"/>
     <use xlink:href="#DejaVuSans-6e" transform="translate(1160.136719 0)"/>
     <use xlink:href="#DejaVuSans-6b" transform="translate(1223.515625 0)"/>
     <use xlink:href="#DejaVuSans-65" transform="translate(1277.800781 0)"/>
     <use xlink:href="#DejaVuSans-64" transform="translate(1339.324219 0)"/>
     <use xlink:href="#DejaVuSans-20" transform="translate(1402.800781 0)"/>
     <use xlink:href="#DejaVuSans-62" transform="translate(1434.587891 0)"/>
     <use xlink:href="#DejaVuSans-75" transform="translate(1498.064453 0)"/>
     <use xlink:href="#DejaVuSans-62" transform="translate(1561.443359 0)"/>
     <use xlink:href="#DejaVuSans-62" transform="translate(1624.919922 0)"/>
     <use xlink:href="#DejaVuSans-6c" transform="translate(1688.396484 0)"/>
     <use xlink:href="#DejaVuSans-65" transform="translate(1716.179688 0)"/>
     <use xlink:href="#DejaVuSans-73" transform="translate(1777.703125 0)"/>
     <use xlink:href="#DejaVuSans-2e" transform="translate(1829.802734 0)"/>
    </g>
   </g>
   <g id="text_4">
    <!-- Pairs that make 10 -->
    <g style="fill: #0b3d91" transform="translate(234.143906 205.396416) scale(0.14 -0.14)">
     <defs>
      <path id="DejaVuSans-Bold-50" d="M 588 4666 
L 2584 4666 
Q 3475 4666 3951 4270 
Q 4428 3875 4428 3144 
Q 4428 2409 3951 2014 
Q 3475 1619 2584 1619 
L 1791 1619 
L 1791 0 
L 588 0 
L 588 4666 
z
M 1791 3794 
L 1791 2491 
L 2456 2491 
Q 2806 2491 2997 2661 
Q 3188 2831 3188 3144 
Q 3188 3456 2997 3625 
Q 2806 3794 2456 3794 
L 1791 3794 
z
" transform="scale(0.015625)"/>
      <path id="DejaVuSans-Bold-61" d="M 2106 1575 
Q 1756 1575 1579 1456 
Q 1403 1338 1403 1106 
Q 1403 894 1545 773 
Q 1688 653 1941 653 
Q 2256 653 2472 879 
Q 2688 1106 2688 1447 
L 2688 1575 
L 2106 1575 
z
M 3816 1997 
L 3816 0 
L 2688 0 
L 2688 519 
Q 2463 200 2181 54 
Q 1900 -91 1497 -91 
Q 953 -91 614 226 
Q 275 544 275 1050 
Q 275 1666 698 1953 
Q 1122 2241 2028 2241 
L 2688 2241 
L 2688 2328 
Q 2688 2594 2478 2717 
Q 2269 2841 1825 2841 
Q 1466 2841 1156 2769 
Q 847 2697 581 2553 
L 581 3406 
Q 941 3494 1303 3539 
Q 1666 3584 2028 3584 
Q 2975 3584 3395 3211 
Q 3816 2838 3816 1997 
z
" transform="scale(0.015625)"/>
      <path id="DejaVuSans-Bold-69" d="M 538 3500 
L 1656 3500 
L 1656 0 
L 538 0 
L 538 3500 
z
M 538 4863 
L 1656 4863 
L 1656 3950 
L 538 3950 
L 538 4863 
z
" transform="scale(0.015625)"/>
      <path id="DejaVuSans-Bold-74" d="M 1759 4494 
L 1759 3500 
L 2913 3500 
L 2913 2700 
L 1759 2700 
L 1759 1216 
Q 1759 972 1856 886 
Q 1953 800 2241 800 
L 2816 800 
L 2816 0 
L 1856 0 
Q 1194 0 917 276 
Q 641 553 641 1216 
L 641 2700 
L 84 2700 
L 84 3500 
L 641 3500 
L 641 4494 
L 1759 4494 
z
" transform="scale(0.015625)"/>
      <path id="DejaVuSans-Bold-68" d="M 4056 2131 
L 4056 0 
L 2931 0 
L 2931 347 
L 2931 1625 
Q 2931 2084 2911 2256 
Q 2891 2428 2841 2509 
Q 2775 2619 2662 2680 
Q 2550 2741 2406 2741 
Q 2056 2741 1856 2470 
Q 1656 2200 1656 1722 
L 1656 0 
L 538 0 
L 538 4863 
L 1656 4863 
L 1656 2988 
Q 1909 3294 2193 3439 
Q 2478 3584 2822 3584 
Q 3428 3584 3742 3212 
Q 4056 2841 4056 2131 
z
" transform="scale(0.015625)"/>
      <path id="DejaVuSans-Bold-6b" d="M 538 4863 
L 1656 4863 
L 1656 2216 
L 2944 3500 
L 4244 3500 
L 2534 1894 
L 4378 0 
L 3022 0 
L 1656 1459 
L 1656 0 
L 538 0 
L 538 4863 
z
" transform="scale(0.015625)"/>
      <path id="DejaVuSans-Bold-31" d="M 750 831 
L 1813 831 
L 1813 3847 
L 722 3622 
L 722 4441 
L 1806 4666 
L 2950 4666 
L 2950 831 
L 4013 831 
L 4013 0 
L 750 0 
L 750 831 
z
" transform="scale(0.015625)"/>
      <path id="DejaVuSans-Bold-30" d="M 2944 2338 
Q 2944 3213 2780 3570 
Q 2616 3928 2228 3928 
Q 1841 3928 1675 3570 
Q 1509 3213 1509 2338 
Q 1509 1453 1675 1090 
Q 1841 728 2228 728 
Q 2613 728 2778 1090 
Q 2944 1453 2944 2338 
z
M 4147 2328 
Q 4147 1169 3647 539 
Q 3147 -91 2228 -91 
Q 1306 -91 806 539 
Q 306 1169 306 2328 
Q 306 3491 806 4120 
Q 1306 4750 2228 4750 
Q 3147 4750 3647 4120 
Q 4147 3491 4147 2328 
z
" transform="scale(0.015625)"/>
     </defs>
     <use xlink:href="#DejaVuSans-Bold-50"/>
     <use xlink:href="#DejaVuSans-Bold-61" transform="translate(70.666016 0)"/>
     <use xlink:href="#DejaVuSans-Bold-69" transform="translate(138.146484 0)"/>
     <use xlink:href="#DejaVuSans-Bold-72" transform="translate(172.423828 0)"/>
     <use xlink:href="#DejaVuSans-Bold-73" transform="translate(221.740234 0)"/>
     <use xlink:href="#DejaVuSans-Bold-20" transform="translate(281.261719 0)"/>
     <use xlink:href="#DejaVuSans-Bold-74" transform="translate(316.076172 0)"/>
     <use xlink:href="#DejaVuSans-Bold-68" transform="translate(363.878906 0)"/>
     <use xlink:href="#DejaVuSans-Bold-61" transform="translate(435.070312 0)"/>
     <use xlink:href="#DejaVuSans-Bold-74" transform="translate(502.550781 0)"/>
     <use xlink:href="#DejaVuSans-Bold-20" transform="translate(550.353516 0)"/>
     <use xlink:href="#DejaVuSans-Bold-6d" transform="translate(585.167969 0)"/>
     <use xlink:href="#DejaVuSans-Bold-61" transform="translate(689.367188 0)"/>
     <use xlink:href="#DejaVuSans-Bold-6b" transform="translate(756.847656 0)"/>
     <use xlink:href="#DejaVuSans-Bold-65" transform="translate(820.726562 0)"/>
     <use xlink:href="#DejaVuSans-Bold-20" transform="translate(888.548828 0)"/>
     <use xlink:href="#DejaVuSans-Bold-31" transform="translate(923.363281 0)"/>
     <use xlink:href="#DejaVuSans-Bold-30" transform="translate(992.943359 0)"/>
    </g>
   </g>
   <g id="text_5">
    <!-- 10 -->
    <g style="fill: #1d1d1f" transform="translate(99.663926 292.080853) scale(0.14 -0.14)">
     <use xlink:href="#DejaVuSans-Bold-31"/>
     <use xlink:href="#DejaVuSans-Bold-30" transform="translate(69.580078 0)"/>
    </g>
   </g>
   <g id="text_6">
    <!-- 1 -->
    <g style="fill: #ffffff" transform="translate(74.138835 346.467249) scale(0.11 -0.11)">
     <use xlink:href="#DejaVuSans-Bold-31"/>
    </g>
   </g>
   <g id="text_7">
    <!-- 9 -->
    <g style="fill: #ffffff" transform="translate(137.017299 346.467249) scale(0.11 -0.11)">
     <defs>
      <path id="DejaVuSans-Bold-39" d="M 641 103 
L 641 966 
Q 928 831 1190 764 
Q 1453 697 1709 697 
Q 2247 697 2547 995 
Q 2847 1294 2900 1881 
Q 2688 1725 2447 1647 
Q 2206 1569 1925 1569 
Q 1209 1569 770 1986 
Q 331 2403 331 3084 
Q 331 3838 820 4291 
Q 1309 4744 2131 4744 
Q 3044 4744 3544 4128 
Q 4044 3513 4044 2388 
Q 4044 1231 3459 570 
Q 2875 -91 1856 -91 
Q 1528 -91 1228 -42 
Q 928 6 641 103 
z
M 2125 2350 
Q 2441 2350 2600 2554 
Q 2759 2759 2759 3169 
Q 2759 3575 2600 3781 
Q 2441 3988 2125 3988 
Q 1809 3988 1650 3781 
Q 1491 3575 1491 3169 
Q 1491 2759 1650 2554 
Q 1809 2350 2125 2350 
z
" transform="scale(0.015625)"/>
     </defs>
     <use xlink:href="#DejaVuSans-Bold-39"/>
    </g>
   </g>
   <g id="text_8">
    <!-- 10 -->
    <g style="fill: #1d1d1f" transform="translate(199.221494 292.080853) scale(0.14 -0.14)">
     <use xlink:href="#DejaVuSans-Bold-31"/>
     <use xlink:href="#DejaVuSans-Bold-30" transform="translate(69.580078 0)"/>
    </g>
   </g>
   <g id="text_9">
    <!-- 2 -->
    <g style="fill: #ffffff" transform="translate(173.696403 346.467249) scale(0.11 -0.11)">
     <defs>
      <path id="DejaVuSans-Bold-32" d="M 1844 884 
L 3897 884 
L 3897 0 
L 506 0 
L 506 884 
L 2209 2388 
Q 2438 2594 2547 2791 
Q 2656 2988 2656 3200 
Q 2656 3528 2436 3728 
Q 2216 3928 1850 3928 
Q 1569 3928 1234 3808 
Q 900 3688 519 3450 
L 519 4475 
Q 925 4609 1322 4679 
Q 1719 4750 2100 4750 
Q 2938 4750 3402 4381 
Q 3866 4013 3866 3353 
Q 3866 2972 3669 2642 
Q 3472 2313 2841 1759 
L 1844 884 
z
" transform="scale(0.015625)"/>
     </defs>
     <use xlink:href="#DejaVuSans-Bold-32"/>
    </g>
   </g>
   <g id="text_10">
    <!-- 8 -->
    <g style="fill: #ffffff" transform="translate(236.574867 346.467249) scale(0.11 -0.11)">
     <defs>
      <path id="DejaVuSans-Bold-38" d="M 2228 2088 
Q 1891 2088 1709 1903 
Q 1528 1719 1528 1375 
Q 1528 1031 1709 848 
Q 1891 666 2228 666 
Q 2563 666 2741 848 
Q 2919 1031 2919 1375 
Q 2919 1722 2741 1905 
Q 2563 2088 2228 2088 
z
M 1350 2484 
Q 925 2613 709 2878 
Q 494 3144 494 3541 
Q 494 4131 934 4440 
Q 1375 4750 2228 4750 
Q 3075 4750 3515 4442 
Q 3956 4134 3956 3541 
Q 3956 3144 3739 2878 
Q 3522 2613 3097 2484 
Q 3572 2353 3814 2058 
Q 4056 1763 4056 1313 
Q 4056 619 3595 264 
Q 3134 -91 2228 -91 
Q 1319 -91 855 264 
Q 391 619 391 1313 
Q 391 1763 633 2058 
Q 875 2353 1350 2484 
z
M 1631 3419 
Q 1631 3141 1786 2991 
Q 1941 2841 2228 2841 
Q 2509 2841 2662 2991 
Q 2816 3141 2816 3419 
Q 2816 3697 2662 3845 
Q 2509 3994 2228 3994 
Q 1941 3994 1786 3844 
Q 1631 3694 1631 3419 
z
" transform="scale(0.015625)"/>
     </defs>
     <use xlink:href="#DejaVuSans-Bold-38"/>
    </g>
   </g>
   <g id="text_11">
    <!-- 10 -->
    <g style="fill: #1d1d1f" transform="translate(298.779063 292.080853) scale(0.14 -0.14)">
     <use xlink:href="#DejaVuSans-Bold-31"/>
     <use xlink:href="#DejaVuSans-Bold-30" transform="translate(69.580078 0)"/>
    </g>
   </g>
   <g id="text_12">
    <!-- 3 -->
    <g style="fill: #ffffff" transform="translate(273.253971 346.467249) scale(0.11 -0.11)">
     <defs>
      <path id="DejaVuSans-Bold-33" d="M 2981 2516 
Q 3453 2394 3698 2092 
Q 3944 1791 3944 1325 
Q 3944 631 3412 270 
Q 2881 -91 1863 -91 
Q 1503 -91 1142 -33 
Q 781 25 428 141 
L 428 1069 
Q 766 900 1098 814 
Q 1431 728 1753 728 
Q 2231 728 2486 893 
Q 2741 1059 2741 1369 
Q 2741 1688 2480 1852 
Q 2219 2016 1709 2016 
L 1228 2016 
L 1228 2791 
L 1734 2791 
Q 2188 2791 2409 2933 
Q 2631 3075 2631 3366 
Q 2631 3634 2415 3781 
Q 2200 3928 1806 3928 
Q 1516 3928 1219 3862 
Q 922 3797 628 3669 
L 628 4550 
Q 984 4650 1334 4700 
Q 1684 4750 2022 4750 
Q 2931 4750 3382 4451 
Q 3834 4153 3834 3553 
Q 3834 3144 3618 2883 
Q 3403 2622 2981 2516 
z
" transform="scale(0.015625)"/>
     </defs>
     <use xlink:href="#DejaVuSans-Bold-33"/>
    </g>
   </g>
   <g id="text_13">
    <!-- 7 -->
    <g style="fill: #ffffff" transform="translate(336.132435 346.467249) scale(0.11 -0.11)">
     <defs>
      <path id="DejaVuSans-Bold-37" d="M 428 4666 
L 3944 4666 
L 3944 3988 
L 2125 0 
L 953 0 
L 2675 3781 
L 428 3781 
L 428 4666 
z
" transform="scale(0.015625)"/>
     </defs>
     <use xlink:href="#DejaVuSans-Bold-37"/>
    </g>
   </g>
   <g id="text_14">
    <!-- 10 -->
    <g style="fill: #1d1d1f" transform="translate(398.33663 292.080853) scale(0.14 -0.14)">
     <use xlink:href="#DejaVuSans-Bold-31"/>
     <use xlink:href="#DejaVuSans-Bold-30" transform="translate(69.580078 0)"/>
    </g>
   </g>
   <g id="text_15">
    <!-- 4 -->
    <g style="fill: #ffffff" transform="translate(372.811539 346.467249) scale(0.11 -0.11)">
     <defs>
      <path id="DejaVuSans-Bold-34" d="M 2356 3675 
L 1038 1722 
L 2356 1722 
L 2356 3675 
z
M 2156 4666 
L 3494 4666 
L 3494 1722 
L 4159 1722 
L 4159 850 
L 3494 850 
L 3494 0 
L 2356 0 
L 2356 850 
L 288 850 
L 288 1881 
L 2156 4666 
z
" transform="scale(0.015625)"/>
     </defs>
     <use xlink:href="#DejaVuSans-Bold-34"/>
    </g>
   </g>
   <g id="text_16">
    <!-- 6 -->
    <g style="fill: #ffffff" transform="translate(435.690003 346.467249) scale(0.11 -0.11)">
     <defs>
      <path id="DejaVuSans-Bold-36" d="M 2316 2303 
Q 2000 2303 1842 2098 
Q 1684 1894 1684 1484 
Q 1684 1075 1842 870 
Q 2000 666 2316 666 
Q 2634 666 2792 870 
Q 2950 1075 2950 1484 
Q 2950 1894 2792 2098 
Q 2634 2303 2316 2303 
z
M 3803 4544 
L 3803 3681 
Q 3506 3822 3243 3889 
Q 2981 3956 2731 3956 
Q 2194 3956 1894 3657 
Q 1594 3359 1544 2772 
Q 1750 2925 1990 3001 
Q 2231 3078 2516 3078 
Q 3231 3078 3670 2659 
Q 4109 2241 4109 1563 
Q 4109 813 3618 361 
Q 3128 -91 2303 -91 
Q 1394 -91 895 523 
Q 397 1138 397 2266 
Q 397 3422 980 4083 
Q 1563 4744 2578 4744 
Q 2900 4744 3203 4694 
Q 3506 4644 3803 4544 
z
" transform="scale(0.015625)"/>
     </defs>
     <use xlink:href="#DejaVuSans-Bold-36"/>
    </g>
   </g>
   <g id="text_17">
    <!-- 10 -->
    <g style="fill: #1d1d1f" transform="translate(497.894198 292.080853) scale(0.14 -0.14)">
     <use xlink:href="#DejaVuSans-Bold-31"/>
     <use xlink:href="#DejaVuSans-Bold-30" transform="translate(69.580078 0)"/>
    </g>
   </g>
   <g id="text_18">
    <!-- 5 -->
    <g style="fill: #ffffff" transform="translate(472.369107 346.467249) scale(0.11 -0.11)">
     <defs>
      <path id="DejaVuSans-Bold-35" d="M 678 4666 
L 3669 4666 
L 3669 3781 
L 1638 3781 
L 1638 3059 
Q 1775 3097 1914 3117 
Q 2053 3138 2203 3138 
Q 3056 3138 3531 2711 
Q 4006 2284 4006 1522 
Q 4006 766 3489 337 
Q 2972 -91 2053 -91 
Q 1656 -91 1267 -14 
Q 878 63 494 219 
L 494 1166 
Q 875 947 1217 837 
Q 1559 728 1863 728 
Q 2300 728 2551 942 
Q 2803 1156 2803 1522 
Q 2803 1891 2551 2103 
Q 2300 2316 1863 2316 
Q 1603 2316 1309 2248 
Q 1016 2181 678 2041 
L 678 4666 
z
" transform="scale(0.015625)"/>
     </defs>
     <use xlink:href="#DejaVuSans-Bold-35"/>
    </g>
   </g>
   <g id="text_19">
    <!-- 5 -->
    <g style="fill: #ffffff" transform="translate(535.247571 346.467249) scale(0.11 -0.11)">
     <use xlink:href="#DejaVuSans-Bold-35"/>
    </g>
   </g>
   <g id="text_20">
    <!-- Multiplicative pairs for 12 -->
    <g style="fill: #0b3d91" transform="translate(206.575937 440.0568) scale(0.14 -0.14)">
     <defs>
      <path id="DejaVuSans-Bold-4d" d="M 588 4666 
L 2119 4666 
L 3181 2169 
L 4250 4666 
L 5778 4666 
L 5778 0 
L 4641 0 
L 4641 3413 
L 3566 897 
L 2803 897 
L 1728 3413 
L 1728 0 
L 588 0 
L 588 4666 
z
" transform="scale(0.015625)"/>
      <path id="DejaVuSans-Bold-6c" d="M 538 4863 
L 1656 4863 
L 1656 0 
L 538 0 
L 538 4863 
z
" transform="scale(0.015625)"/>
      <path id="DejaVuSans-Bold-70" d="M 1656 506 
L 1656 -1331 
L 538 -1331 
L 538 3500 
L 1656 3500 
L 1656 2988 
Q 1888 3294 2169 3439 
Q 2450 3584 2816 3584 
Q 3463 3584 3878 3070 
Q 4294 2556 4294 1747 
Q 4294 938 3878 423 
Q 3463 -91 2816 -91 
Q 2450 -91 2169 54 
Q 1888 200 1656 506 
z
M 2400 2772 
Q 2041 2772 1848 2508 
Q 1656 2244 1656 1747 
Q 1656 1250 1848 986 
Q 2041 722 2400 722 
Q 2759 722 2948 984 
Q 3138 1247 3138 1747 
Q 3138 2247 2948 2509 
Q 2759 2772 2400 2772 
z
" transform="scale(0.015625)"/>
      <path id="DejaVuSans-Bold-63" d="M 3366 3391 
L 3366 2478 
Q 3138 2634 2908 2709 
Q 2678 2784 2431 2784 
Q 1963 2784 1702 2511 
Q 1441 2238 1441 1747 
Q 1441 1256 1702 982 
Q 1963 709 2431 709 
Q 2694 709 2930 787 
Q 3166 866 3366 1019 
L 3366 103 
Q 3103 6 2833 -42 
Q 2563 -91 2291 -91 
Q 1344 -91 809 395 
Q 275 881 275 1747 
Q 275 2613 809 3098 
Q 1344 3584 2291 3584 
Q 2566 3584 2833 3536 
Q 3100 3488 3366 3391 
z
" transform="scale(0.015625)"/>
      <path id="DejaVuSans-Bold-76" d="M 97 3500 
L 1216 3500 
L 2088 1081 
L 2956 3500 
L 4078 3500 
L 2700 0 
L 1472 0 
L 97 3500 
z
" transform="scale(0.015625)"/>
      <path id="DejaVuSans-Bold-66" d="M 2841 4863 
L 2841 4128 
L 2222 4128 
Q 1984 4128 1890 4042 
Q 1797 3956 1797 3744 
L 1797 3500 
L 2753 3500 
L 2753 2700 
L 1797 2700 
L 1797 0 
L 678 0 
L 678 2700 
L 122 2700 
L 122 3500 
L 678 3500 
L 678 3744 
Q 678 4316 997 4589 
Q 1316 4863 1984 4863 
L 2841 4863 
z
" transform="scale(0.015625)"/>
     </defs>
     <use xlink:href="#DejaVuSans-Bold-4d"/>
     <use xlink:href="#DejaVuSans-Bold-75" transform="translate(99.511719 0)"/>
     <use xlink:href="#DejaVuSans-Bold-6c" transform="translate(170.703125 0)"/>
     <use xlink:href="#DejaVuSans-Bold-74" transform="translate(204.980469 0)"/>
     <use xlink:href="#DejaVuSans-Bold-69" transform="translate(252.783203 0)"/>
     <use xlink:href="#DejaVuSans-Bold-70" transform="translate(287.060547 0)"/>
     <use xlink:href="#DejaVuSans-Bold-6c" transform="translate(358.642578 0)"/>
     <use xlink:href="#DejaVuSans-Bold-69" transform="translate(392.919922 0)"/>
     <use xlink:href="#DejaVuSans-Bold-63" transform="translate(427.197266 0)"/>
     <use xlink:href="#DejaVuSans-Bold-61" transform="translate(486.474609 0)"/>
     <use xlink:href="#DejaVuSans-Bold-74" transform="translate(553.955078 0)"/>
     <use xlink:href="#DejaVuSans-Bold-69" transform="translate(601.757812 0)"/>
     <use xlink:href="#DejaVuSans-Bold-76" transform="translate(636.035156 0)"/>
     <use xlink:href="#DejaVuSans-Bold-65" transform="translate(701.220703 0)"/>
     <use xlink:href="#DejaVuSans-Bold-20" transform="translate(769.042969 0)"/>
     <use xlink:href="#DejaVuSans-Bold-70" transform="translate(803.857422 0)"/>
     <use xlink:href="#DejaVuSans-Bold-61" transform="translate(875.439453 0)"/>
     <use xlink:href="#DejaVuSans-Bold-69" transform="translate(942.919922 0)"/>
     <use xlink:href="#DejaVuSans-Bold-72" transform="translate(977.197266 0)"/>
     <use xlink:href="#DejaVuSans-Bold-73" transform="translate(1026.513672 0)"/>
     <use xlink:href="#DejaVuSans-Bold-20" transform="translate(1086.035156 0)"/>
     <use xlink:href="#DejaVuSans-Bold-66" transform="translate(1120.849609 0)"/>
     <use xlink:href="#DejaVuSans-Bold-6f" transform="translate(1164.355469 0)"/>
     <use xlink:href="#DejaVuSans-Bold-72" transform="translate(1233.056641 0)"/>
     <use xlink:href="#DejaVuSans-Bold-20" transform="translate(1282.373047 0)"/>
     <use xlink:href="#DejaVuSans-Bold-31" transform="translate(1317.1875 0)"/>
     <use xlink:href="#DejaVuSans-Bold-32" transform="translate(1386.767578 0)"/>
    </g>
   </g>
   <g id="text_21">
    <!-- 12 -->
    <g style="fill: #1d1d1f" transform="translate(140.887121 527.017175) scale(0.15 -0.15)">
     <use xlink:href="#DejaVuSans-Bold-31"/>
     <use xlink:href="#DejaVuSans-Bold-32" transform="translate(69.580078 0)"/>
    </g>
   </g>
   <g id="text_22">
    <!-- 1 -->
    <g style="fill: #ffffff" transform="translate(105.230176 595.207122) scale(0.12 -0.12)">
     <use xlink:href="#DejaVuSans-Bold-31"/>
    </g>
   </g>
   <g id="text_23">
    <!-- × -->
    <g style="fill: #1d1d1f" transform="translate(144.62009 637.721528) scale(0.16 -0.16)">
     <defs>
      <path id="DejaVuSans-Bold-d7" d="M 4563 3359 
L 3206 2003 
L 4563 653 
L 4038 128 
L 2681 1478 
L 1325 128 
L 800 653 
L 2156 2003 
L 800 3359 
L 1325 3884 
L 2681 2528 
L 4038 3884 
L 4563 3359 
z
" transform="scale(0.015625)"/>
     </defs>
     <use xlink:href="#DejaVuSans-Bold-d7"/>
    </g>
   </g>
   <g id="text_24">
    <!-- 12 -->
    <g style="fill: #ffffff" transform="translate(184.893441 595.207122) scale(0.12 -0.12)">
     <use xlink:href="#DejaVuSans-Bold-31"/>
     <use xlink:href="#DejaVuSans-Bold-32" transform="translate(69.580078 0)"/>
    </g>
   </g>
   <g id="text_25">
    <!-- 12 -->
    <g style="fill: #1d1d1f" transform="translate(298.083281 527.017175) scale(0.15 -0.15)">
     <use xlink:href="#DejaVuSans-Bold-31"/>
     <use xlink:href="#DejaVuSans-Bold-32" transform="translate(69.580078 0)"/>
    </g>
   </g>
   <g id="text_26">
    <!-- 2 -->
    <g style="fill: #ffffff" transform="translate(262.426336 595.207122) scale(0.12 -0.12)">
     <use xlink:href="#DejaVuSans-Bold-32"/>
    </g>
   </g>
   <g id="text_27">
    <!-- × -->
    <g style="fill: #1d1d1f" transform="translate(301.81625 637.721528) scale(0.16 -0.16)">
     <use xlink:href="#DejaVuSans-Bold-d7"/>
    </g>
   </g>
   <g id="text_28">
    <!-- 6 -->
    <g style="fill: #ffffff" transform="translate(346.264288 595.207122) scale(0.12 -0.12)">
     <use xlink:href="#DejaVuSans-Bold-36"/>
    </g>
   </g>
   <g id="text_29">
    <!-- 12 -->
    <g style="fill: #1d1d1f" transform="translate(455.279441 527.017175) scale(0.15 -0.15)">
     <use xlink:href="#DejaVuSans-Bold-31"/>
     <use xlink:href="#DejaVuSans-Bold-32" transform="translate(69.580078 0)"/>
    </g>
   </g>
   <g id="text_30">
    <!-- 3 -->
    <g style="fill: #ffffff" transform="translate(419.622497 595.207122) scale(0.12 -0.12)">
     <use xlink:href="#DejaVuSans-Bold-33"/>
    </g>
   </g>
   <g id="text_31">
    <!-- × -->
    <g style="fill: #1d1d1f" transform="translate(459.01241 637.721528) scale(0.16 -0.16)">
     <use xlink:href="#DejaVuSans-Bold-d7"/>
    </g>
   </g>
   <g id="text_32">
    <!-- 4 -->
    <g style="fill: #ffffff" transform="translate(503.460448 595.207122) scale(0.12 -0.12)">
     <use xlink:href="#DejaVuSans-Bold-34"/>
    </g>
   </g>
   <g id="text_33">
    <!-- Every number has its 'pair family' (additive and multiplicative). -->
    <g style="fill: #6e7781" transform="translate(134.605703 656.118491) scale(0.11 -0.11)">
     <defs>
      <path id="DejaVuSans-Oblique-45" d="M 1081 4666 
L 4031 4666 
L 3928 4134 
L 1606 4134 
L 1338 2753 
L 3566 2753 
L 3463 2222 
L 1234 2222 
L 909 531 
L 3284 531 
L 3181 0 
L 172 0 
L 1081 4666 
z
" transform="scale(0.015625)"/>
      <path id="DejaVuSans-Oblique-76" d="M 459 3500 
L 1069 3500 
L 1581 525 
L 3256 3500 
L 3866 3500 
L 1875 0 
L 1100 0 
L 459 3500 
z
" transform="scale(0.015625)"/>
      <path id="DejaVuSans-Oblique-74" d="M 2706 3500 
L 2619 3053 
L 1472 3053 
L 1100 1153 
Q 1081 1047 1072 975 
Q 1063 903 1063 863 
Q 1063 663 1183 572 
Q 1303 481 1569 481 
L 2150 481 
L 2053 0 
L 1503 0 
Q 991 0 739 200 
Q 488 400 488 806 
Q 488 878 497 964 
Q 506 1050 525 1153 
L 897 3053 
L 409 3053 
L 500 3500 
L 978 3500 
L 1172 4494 
L 1747 4494 
L 1556 3500 
L 2706 3500 
z
" transform="scale(0.015625)"/>
      <path id="DejaVuSans-Oblique-63" d="M 3431 3366 
L 3316 2797 
Q 3109 2947 2876 3022 
Q 2644 3097 2394 3097 
Q 2119 3097 1870 3000 
Q 1622 2903 1453 2725 
Q 1184 2453 1037 2087 
Q 891 1722 891 1331 
Q 891 859 1127 628 
Q 1363 397 1844 397 
Q 2081 397 2348 469 
Q 2616 541 2906 684 
L 2797 116 
Q 2547 13 2283 -39 
Q 2019 -91 1741 -91 
Q 1044 -91 669 257 
Q 294 606 294 1253 
Q 294 1797 489 2255 
Q 684 2713 1069 3078 
Q 1331 3328 1684 3456 
Q 2038 3584 2456 3584 
Q 2700 3584 2940 3529 
Q 3181 3475 3431 3366 
z
" transform="scale(0.015625)"/>
      <path id="DejaVuSans-Oblique-2e" d="M 525 794 
L 1184 794 
L 1031 0 
L 372 0 
L 525 794 
z
" transform="scale(0.015625)"/>
     </defs>
     <use xlink:href="#DejaVuSans-Oblique-45"/>
     <use xlink:href="#DejaVuSans-Oblique-76" transform="translate(63.183594 0)"/>
     <use xlink:href="#DejaVuSans-Oblique-65" transform="translate(122.363281 0)"/>
     <use xlink:href="#DejaVuSans-Oblique-72" transform="translate(183.886719 0)"/>
     <use xlink:href="#DejaVuSans-Oblique-79" transform="translate(225 0)"/>
     <use xlink:href="#DejaVuSans-Oblique-20" transform="translate(284.179688 0)"/>
     <use xlink:href="#DejaVuSans-Oblique-6e" transform="translate(315.966797 0)"/>
     <use xlink:href="#DejaVuSans-Oblique-75" transform="translate(379.345703 0)"/>
     <use xlink:href="#DejaVuSans-Oblique-6d" transform="translate(442.724609 0)"/>
     <use xlink:href="#DejaVuSans-Oblique-62" transform="translate(540.136719 0)"/>
     <use xlink:href="#DejaVuSans-Oblique-65" transform="translate(603.613281 0)"/>
     <use xlink:href="#DejaVuSans-Oblique-72" transform="translate(665.136719 0)"/>
     <use xlink:href="#DejaVuSans-Oblique-20" transform="translate(706.25 0)"/>
     <use xlink:href="#DejaVuSans-Oblique-68" transform="translate(738.037109 0)"/>
     <use xlink:href="#DejaVuSans-Oblique-61" transform="translate(801.416016 0)"/>
     <use xlink:href="#DejaVuSans-Oblique-73" transform="translate(862.695312 0)"/>
     <use xlink:href="#DejaVuSans-Oblique-20" transform="translate(914.794922 0)"/>
     <use xlink:href="#DejaVuSans-Oblique-69" transform="translate(946.582031 0)"/>
     <use xlink:href="#DejaVuSans-Oblique-74" transform="translate(974.365234 0)"/>
     <use xlink:href="#DejaVuSans-Oblique-73" transform="translate(1013.574219 0)"/>
     <use xlink:href="#DejaVuSans-Oblique-20" transform="translate(1065.673828 0)"/>
     <use xlink:href="#DejaVuSans-Oblique-27" transform="translate(1097.460938 0)"/>
     <use xlink:href="#DejaVuSans-Oblique-70" transform="translate(1124.951172 0)"/>
     <use xlink:href="#DejaVuSans-Oblique-61" transform="translate(1188.427734 0)"/>
     <use xlink:href="#DejaVuSans-Oblique-69" transform="translate(1249.707031 0)"/>
     <use xlink:href="#DejaVuSans-Oblique-72" transform="translate(1277.490234 0)"/>
     <use xlink:href="#DejaVuSans-Oblique-20" transform="translate(1318.603516 0)"/>
     <use xlink:href="#DejaVuSans-Oblique-66" transform="translate(1350.390625 0)"/>
     <use xlink:href="#DejaVuSans-Oblique-61" transform="translate(1385.595703 0)"/>
     <use xlink:href="#DejaVuSans-Oblique-6d" transform="translate(1446.875 0)"/>
     <use xlink:href="#DejaVuSans-Oblique-69" transform="translate(1544.287109 0)"/>
     <use xlink:href="#DejaVuSans-Oblique-6c" transform="translate(1572.070312 0)"/>
     <use xlink:href="#DejaVuSans-Oblique-79" transform="translate(1599.853516 0)"/>
     <use xlink:href="#DejaVuSans-Oblique-27" transform="translate(1659.033203 0)"/>
     <use xlink:href="#DejaVuSans-Oblique-20" transform="translate(1686.523438 0)"/>
     <use xlink:href="#DejaVuSans-Oblique-28" transform="translate(1718.310547 0)"/>
     <use xlink:href="#DejaVuSans-Oblique-61" transform="translate(1757.324219 0)"/>
     <use xlink:href="#DejaVuSans-Oblique-64" transform="translate(1818.603516 0)"/>
     <use xlink:href="#DejaVuSans-Oblique-64" transform="translate(1882.080078 0)"/>
     <use xlink:href="#DejaVuSans-Oblique-69" transform="translate(1945.556641 0)"/>
     <use xlink:href="#DejaVuSans-Oblique-74" transform="translate(1973.339844 0)"/>
     <use xlink:href="#DejaVuSans-Oblique-69" transform="translate(2012.548828 0)"/>
     <use xlink:href="#DejaVuSans-Oblique-76" transform="translate(2040.332031 0)"/>
     <use xlink:href="#DejaVuSans-Oblique-65" transform="translate(2099.511719 0)"/>
     <use xlink:href="#DejaVuSans-Oblique-20" transform="translate(2161.035156 0)"/>
     <use xlink:href="#DejaVuSans-Oblique-61" transform="translate(2192.822266 0)"/>
     <use xlink:href="#DejaVuSans-Oblique-6e" transform="translate(2254.101562 0)"/>
     <use xlink:href="#DejaVuSans-Oblique-64" transform="translate(2317.480469 0)"/>
     <use xlink:href="#DejaVuSans-Oblique-20" transform="translate(2380.957031 0)"/>
     <use xlink:href="#DejaVuSans-Oblique-6d" transform="translate(2412.744141 0)"/>
     <use xlink:href="#DejaVuSans-Oblique-75" transform="translate(2510.15625 0)"/>
     <use xlink:href="#DejaVuSans-Oblique-6c" transform="translate(2573.535156 0)"/>
     <use xlink:href="#DejaVuSans-Oblique-74" transform="translate(2601.318359 0)"/>
     <use xlink:href="#DejaVuSans-Oblique-69" transform="translate(2640.527344 0)"/>
     <use xlink:href="#DejaVuSans-Oblique-70" transform="translate(2668.310547 0)"/>
     <use xlink:href="#DejaVuSans-Oblique-6c" transform="translate(2731.787109 0)"/>
     <use xlink:href="#DejaVuSans-Oblique-69" transform="translate(2759.570312 0)"/>
     <use xlink:href="#DejaVuSans-Oblique-63" transform="translate(2787.353516 0)"/>
     <use xlink:href="#DejaVuSans-Oblique-61" transform="translate(2842.333984 0)"/>
     <use xlink:href="#DejaVuSans-Oblique-74" transform="translate(2903.613281 0)"/>
     <use xlink:href="#DejaVuSans-Oblique-69" transform="translate(2942.822266 0)"/>
     <use xlink:href="#DejaVuSans-Oblique-76" transform="translate(2970.605469 0)"/>
     <use xlink:href="#DejaVuSans-Oblique-65" transform="translate(3029.785156 0)"/>
     <use xlink:href="#DejaVuSans-Oblique-29" transform="translate(3091.308594 0)"/>
     <use xlink:href="#DejaVuSans-Oblique-2e" transform="translate(3130.322266 0)"/>
    </g>
    <!-- Memorising them, the child thinks faster and more flexibly. -->
    <g style="fill: #6e7781" transform="translate(145.687344 671.779398) scale(0.11 -0.11)">
     <defs>
      <path id="DejaVuSans-Oblique-4d" d="M 1081 4666 
L 2028 4666 
L 2572 1522 
L 4378 4666 
L 5350 4666 
L 4441 0 
L 3828 0 
L 4622 4091 
L 2791 897 
L 2175 897 
L 1581 4103 
L 788 0 
L 172 0 
L 1081 4666 
z
" transform="scale(0.015625)"/>
      <path id="DejaVuSans-Oblique-2c" d="M 575 794 
L 1234 794 
L 1131 256 
L 422 -744 
L 19 -744 
L 469 256 
L 575 794 
z
" transform="scale(0.015625)"/>
      <path id="DejaVuSans-Oblique-6b" d="M 1172 4863 
L 1747 4863 
L 1197 2028 
L 3169 3500 
L 3916 3500 
L 1716 1825 
L 3322 0 
L 2625 0 
L 1131 1709 
L 800 0 
L 225 0 
L 1172 4863 
z
" transform="scale(0.015625)"/>
      <path id="DejaVuSans-Oblique-78" d="M 3841 3500 
L 2234 1784 
L 3219 0 
L 2559 0 
L 1819 1388 
L 531 0 
L -166 0 
L 1556 1844 
L 641 3500 
L 1300 3500 
L 1972 2234 
L 3144 3500 
L 3841 3500 
z
" transform="scale(0.015625)"/>
     </defs>
     <use xlink:href="#DejaVuSans-Oblique-4d"/>
     <use xlink:href="#DejaVuSans-Oblique-65" transform="translate(86.279297 0)"/>
     <use xlink:href="#DejaVuSans-Oblique-6d" transform="translate(147.802734 0)"/>
     <use xlink:href="#DejaVuSans-Oblique-6f" transform="translate(245.214844 0)"/>
     <use xlink:href="#DejaVuSans-Oblique-72" transform="translate(306.396484 0)"/>
     <use xlink:href="#DejaVuSans-Oblique-69" transform="translate(347.509766 0)"/>
     <use xlink:href="#DejaVuSans-Oblique-73" transform="translate(375.292969 0)"/>
     <use xlink:href="#DejaVuSans-Oblique-69" transform="translate(427.392578 0)"/>
     <use xlink:href="#DejaVuSans-Oblique-6e" transform="translate(455.175781 0)"/>
     <use xlink:href="#DejaVuSans-Oblique-67" transform="translate(518.554688 0)"/>
     <use xlink:href="#DejaVuSans-Oblique-20" transform="translate(582.03125 0)"/>
     <use xlink:href="#DejaVuSans-Oblique-74" transform="translate(613.818359 0)"/>
     <use xlink:href="#DejaVuSans-Oblique-68" transform="translate(653.027344 0)"/>
     <use xlink:href="#DejaVuSans-Oblique-65" transform="translate(716.40625 0)"/>
     <use xlink:href="#DejaVuSans-Oblique-6d" transform="translate(777.929688 0)"/>
     <use xlink:href="#DejaVuSans-Oblique-2c" transform="translate(875.341797 0)"/>
     <use xlink:href="#DejaVuSans-Oblique-20" transform="translate(907.128906 0)"/>
     <use xlink:href="#DejaVuSans-Oblique-74" transform="translate(938.916016 0)"/>
     <use xlink:href="#DejaVuSans-Oblique-68" transform="translate(978.125 0)"/>
     <use xlink:href="#DejaVuSans-Oblique-65" transform="translate(1041.503906 0)"/>
     <use xlink:href="#DejaVuSans-Oblique-20" transform="translate(1103.027344 0)"/>
     <use xlink:href="#DejaVuSans-Oblique-63" transform="translate(1134.814453 0)"/>
     <use xlink:href="#DejaVuSans-Oblique-68" transform="translate(1189.794922 0)"/>
     <use xlink:href="#DejaVuSans-Oblique-69" transform="translate(1253.173828 0)"/>
     <use xlink:href="#DejaVuSans-Oblique-6c" transform="translate(1280.957031 0)"/>
     <use xlink:href="#DejaVuSans-Oblique-64" transform="translate(1308.740234 0)"/>
     <use xlink:href="#DejaVuSans-Oblique-20" transform="translate(1372.216797 0)"/>
     <use xlink:href="#DejaVuSans-Oblique-74" transform="translate(1404.003906 0)"/>
     <use xlink:href="#DejaVuSans-Oblique-68" transform="translate(1443.212891 0)"/>
     <use xlink:href="#DejaVuSans-Oblique-69" transform="translate(1506.591797 0)"/>
     <use xlink:href="#DejaVuSans-Oblique-6e" transform="translate(1534.375 0)"/>
     <use xlink:href="#DejaVuSans-Oblique-6b" transform="translate(1597.753906 0)"/>
     <use xlink:href="#DejaVuSans-Oblique-73" transform="translate(1655.664062 0)"/>
     <use xlink:href="#DejaVuSans-Oblique-20" transform="translate(1707.763672 0)"/>
     <use xlink:href="#DejaVuSans-Oblique-66" transform="translate(1739.550781 0)"/>
     <use xlink:href="#DejaVuSans-Oblique-61" transform="translate(1774.755859 0)"/>
     <use xlink:href="#DejaVuSans-Oblique-73" transform="translate(1836.035156 0)"/>
     <use xlink:href="#DejaVuSans-Oblique-74" transform="translate(1888.134766 0)"/>
     <use xlink:href="#DejaVuSans-Oblique-65" transform="translate(1927.34375 0)"/>
     <use xlink:href="#DejaVuSans-Oblique-72" transform="translate(1988.867188 0)"/>
     <use xlink:href="#DejaVuSans-Oblique-20" transform="translate(2029.980469 0)"/>
     <use xlink:href="#DejaVuSans-Oblique-61" transform="translate(2061.767578 0)"/>
     <use xlink:href="#DejaVuSans-Oblique-6e" transform="translate(2123.046875 0)"/>
     <use xlink:href="#DejaVuSans-Oblique-64" transform="translate(2186.425781 0)"/>
     <use xlink:href="#DejaVuSans-Oblique-20" transform="translate(2249.902344 0)"/>
     <use xlink:href="#DejaVuSans-Oblique-6d" transform="translate(2281.689453 0)"/>
     <use xlink:href="#DejaVuSans-Oblique-6f" transform="translate(2379.101562 0)"/>
     <use xlink:href="#DejaVuSans-Oblique-72" transform="translate(2440.283203 0)"/>
     <use xlink:href="#DejaVuSans-Oblique-65" transform="translate(2481.396484 0)"/>
     <use xlink:href="#DejaVuSans-Oblique-20" transform="translate(2542.919922 0)"/>
     <use xlink:href="#DejaVuSans-Oblique-66" transform="translate(2574.707031 0)"/>
     <use xlink:href="#DejaVuSans-Oblique-6c" transform="translate(2609.912109 0)"/>
     <use xlink:href="#DejaVuSans-Oblique-65" transform="translate(2637.695312 0)"/>
     <use xlink:href="#DejaVuSans-Oblique-78" transform="translate(2699.21875 0)"/>
     <use xlink:href="#DejaVuSans-Oblique-69" transform="translate(2758.398438 0)"/>
     <use xlink:href="#DejaVuSans-Oblique-62" transform="translate(2786.181641 0)"/>
     <use xlink:href="#DejaVuSans-Oblique-6c" transform="translate(2849.658203 0)"/>
     <use xlink:href="#DejaVuSans-Oblique-79" transform="translate(2877.441406 0)"/>
     <use xlink:href="#DejaVuSans-Oblique-2e" transform="translate(2928.871094 0)"/>
    </g>
   </g>
  </g>
 </g>
 <defs>
  <clipPath id="pf9a5afc26b">
   <rect x="46.5264" y="94.968" width="523.9872" height="690.1776"/>
  </clipPath>
 </defs>
</svg>
