<?xml version="1.0" encoding="UTF-8" standalone="no"?>
<svg xmlns="http://www.w3.org/2000/svg" viewBox="0 0 1000 900">
  
<defs>
  <radialGradient id="palmGrad" cx="50%" cy="60%" r="60%">
    <stop offset="0%"  stop-color="#fde0c0"/>
    <stop offset="65%" stop-color="#f5c89e"/>
    <stop offset="100%" stop-color="#d49a6a"/>
  </radialGradient>
  <linearGradient id="fingerGrad" x1="0" y1="0" x2="1" y2="0">
    <stop offset="0%"  stop-color="#fde0c0"/>
    <stop offset="40%" stop-color="#fbcfa3"/>
    <stop offset="100%" stop-color="#dba377"/>
  </linearGradient>
  <linearGradient id="nailGrad" x1="0" y1="0" x2="0" y2="1">
    <stop offset="0%"  stop-color="#ffeed8"/>
    <stop offset="100%" stop-color="#f0c89c"/>
  </linearGradient>
  <linearGradient id="bentFingerGrad" x1="0" y1="0" x2="1" y2="0">
    <stop offset="0%"  stop-color="#c8c8c8"/>
    <stop offset="100%" stop-color="#a0a0a0"/>
  </linearGradient>
  <filter id="softShadow" x="-20%" y="-20%" width="140%" height="140%">
    <feGaussianBlur in="SourceAlpha" stdDeviation="4"/>
    <feOffset dx="0" dy="3" result="offsetblur"/>
    <feComponentTransfer><feFuncA type="linear" slope="0.35"/></feComponentTransfer>
    <feMerge><feMergeNode/><feMergeNode in="SourceGraphic"/></feMerge>
  </filter>
</defs>

  <!-- Title -->
  <text x="500" y="60" font-family="Segoe UI,Arial,sans-serif" font-size="36" font-weight="800" fill="#0b3d91" text-anchor="middle">Il trucco del 9 con le dita</text>
  <text x="500" y="92" font-family="Segoe UI,Arial,sans-serif" font-size="18" font-style="italic" fill="#6e7781" text-anchor="middle">Metodo giapponese — esempio</text>

  <!-- Hands area (shifted down 120 to make room for title) -->
  <g transform="translate(0, 120)">
    <g filter="url(#softShadow)">
<path d="M 70,470 Q 60,360 110,330 L 250,310 Q 320,310 330,360 L 330,500 Q 320,580 245,590 L 130,590 Q 65,580 70,470 Z" fill="url(#palmGrad)" stroke="#a87650" stroke-width="2.5"/>
<path d="M 120,420 Q 200,440 290,425" stroke="#b88460" stroke-width="1.5" fill="none" opacity="0.5"/>
<path d="M 130,470 Q 220,485 295,470" stroke="#b88460" stroke-width="1.3" fill="none" opacity="0.4"/>
<path d="M 200,520 Q 220,560 245,575" stroke="#b88460" stroke-width="1.2" fill="none" opacity="0.4"/>
<rect x="85" y="170" width="42" height="170" rx="21.0" ry="21.0" fill="url(#fingerGrad)" stroke="#a87650" stroke-width="2.4"/><line x1="89" y1="226.1" x2="123" y2="226.1" stroke="#b88460" stroke-width="1.2" opacity="0.6"/><line x1="89" y1="277.1" x2="123" y2="277.1" stroke="#b88460" stroke-width="1.2" opacity="0.6"/><ellipse cx="106.0" cy="183" rx="14" ry="11" fill="url(#nailGrad)" stroke="#c19061" stroke-width="1"/>
<rect x="133" y="130" width="44" height="200" rx="22.0" ry="22.0" fill="url(#fingerGrad)" stroke="#a87650" stroke-width="2.4"/><line x1="137" y1="196.0" x2="173" y2="196.0" stroke="#b88460" stroke-width="1.2" opacity="0.6"/><line x1="137" y1="256.0" x2="173" y2="256.0" stroke="#b88460" stroke-width="1.2" opacity="0.6"/><ellipse cx="155.0" cy="142" rx="14" ry="11" fill="url(#nailGrad)" stroke="#c19061" stroke-width="1"/>
<rect x="183" y="100" width="44" height="225" rx="22.0" ry="22.0" fill="url(#fingerGrad)" stroke="#a87650" stroke-width="2.4"/><line x1="187" y1="174.25" x2="223" y2="174.25" stroke="#b88460" stroke-width="1.2" opacity="0.6"/><line x1="187" y1="241.75" x2="223" y2="241.75" stroke="#b88460" stroke-width="1.2" opacity="0.6"/><ellipse cx="205.0" cy="112" rx="14" ry="11" fill="url(#nailGrad)" stroke="#c19061" stroke-width="1"/>
<rect x="233" y="130" width="44" height="200" rx="22.0" ry="22.0" fill="url(#fingerGrad)" stroke="#a87650" stroke-width="2.4"/><line x1="237" y1="196.0" x2="273" y2="196.0" stroke="#b88460" stroke-width="1.2" opacity="0.6"/><line x1="237" y1="256.0" x2="273" y2="256.0" stroke="#b88460" stroke-width="1.2" opacity="0.6"/><ellipse cx="255.0" cy="142" rx="14" ry="11" fill="url(#nailGrad)" stroke="#c19061" stroke-width="1"/>
<g transform="rotate(40, 325, 430)"><rect x="301.0" y="270" width="48" height="160" rx="24.0" ry="24.0" fill="url(#fingerGrad)" stroke="#a87650" stroke-width="2.4"/><line x1="305.0" y1="334.0" x2="345.0" y2="334.0" stroke="#b88460" stroke-width="1.2" opacity="0.6"/><ellipse cx="325" cy="285" rx="15" ry="11" fill="url(#nailGrad)" stroke="#c19061" stroke-width="1"/></g>
</g>
<g filter="url(#softShadow)">
<path d="M 930,470 Q 940,360 890,330 L 750,310 Q 680,310 670,360 L 670,500 Q 680,580 755,590 L 870,590 Q 935,580 930,470 Z" fill="url(#palmGrad)" stroke="#a87650" stroke-width="2.5"/>
<path d="M 710,420 Q 800,440 880,425" stroke="#b88460" stroke-width="1.5" fill="none" opacity="0.5"/>
<path d="M 705,470 Q 780,485 870,470" stroke="#b88460" stroke-width="1.3" fill="none" opacity="0.4"/>
<path d="M 755,520 Q 780,560 800,575" stroke="#b88460" stroke-width="1.2" fill="none" opacity="0.4"/>
<g transform="rotate(-40, 675, 430)"><rect x="651.0" y="270" width="48" height="160" rx="24.0" ry="24.0" fill="url(#fingerGrad)" stroke="#a87650" stroke-width="2.4"/><line x1="655.0" y1="334.0" x2="695.0" y2="334.0" stroke="#b88460" stroke-width="1.2" opacity="0.6"/><ellipse cx="675" cy="285" rx="15" ry="11" fill="url(#nailGrad)" stroke="#c19061" stroke-width="1"/></g>
<rect x="723" y="130" width="44" height="200" rx="22.0" ry="22.0" fill="url(#fingerGrad)" stroke="#a87650" stroke-width="2.4"/><line x1="727" y1="196.0" x2="763" y2="196.0" stroke="#b88460" stroke-width="1.2" opacity="0.6"/><line x1="727" y1="256.0" x2="763" y2="256.0" stroke="#b88460" stroke-width="1.2" opacity="0.6"/><ellipse cx="745.0" cy="142" rx="14" ry="11" fill="url(#nailGrad)" stroke="#c19061" stroke-width="1"/>
<rect x="773" y="275.5" width="44" height="49.5" rx="22.0" ry="22.0" fill="url(#bentFingerGrad)" stroke="#666" stroke-width="2"/>
<rect x="823" y="130" width="44" height="200" rx="22.0" ry="22.0" fill="url(#fingerGrad)" stroke="#a87650" stroke-width="2.4"/><line x1="827" y1="196.0" x2="863" y2="196.0" stroke="#b88460" stroke-width="1.2" opacity="0.6"/><line x1="827" y1="256.0" x2="863" y2="256.0" stroke="#b88460" stroke-width="1.2" opacity="0.6"/><ellipse cx="845.0" cy="142" rx="14" ry="11" fill="url(#nailGrad)" stroke="#c19061" stroke-width="1"/>
<rect x="873" y="170" width="42" height="170" rx="21.0" ry="21.0" fill="url(#fingerGrad)" stroke="#a87650" stroke-width="2.4"/><line x1="877" y1="226.1" x2="911" y2="226.1" stroke="#b88460" stroke-width="1.2" opacity="0.6"/><line x1="877" y1="277.1" x2="911" y2="277.1" stroke="#b88460" stroke-width="1.2" opacity="0.6"/><ellipse cx="894.0" cy="183" rx="14" ry="11" fill="url(#nailGrad)" stroke="#c19061" stroke-width="1"/>
</g>
<text x="106" y="155" font-family="Segoe UI,Arial,sans-serif" font-size="28" font-weight="700" fill="#1d1d1f" text-anchor="middle">1</text>
<text x="155" y="115" font-family="Segoe UI,Arial,sans-serif" font-size="28" font-weight="700" fill="#1d1d1f" text-anchor="middle">2</text>
<text x="205" y="85" font-family="Segoe UI,Arial,sans-serif" font-size="28" font-weight="700" fill="#1d1d1f" text-anchor="middle">3</text>
<text x="255" y="115" font-family="Segoe UI,Arial,sans-serif" font-size="28" font-weight="700" fill="#1d1d1f" text-anchor="middle">4</text>
<text x="395" y="225" font-family="Segoe UI,Arial,sans-serif" font-size="28" font-weight="700" fill="#1d1d1f" text-anchor="middle">5</text>
<text x="605" y="225" font-family="Segoe UI,Arial,sans-serif" font-size="28" font-weight="700" fill="#1d1d1f" text-anchor="middle">6</text>
<text x="745" y="115" font-family="Segoe UI,Arial,sans-serif" font-size="28" font-weight="700" fill="#1d1d1f" text-anchor="middle">7</text>
<text x="795" y="85" font-family="Segoe UI,Arial,sans-serif" font-size="32" font-weight="800" fill="#c0392b" text-anchor="middle">8</text>
<text x="845" y="115" font-family="Segoe UI,Arial,sans-serif" font-size="28" font-weight="700" fill="#1d1d1f" text-anchor="middle">9</text>
<text x="894" y="155" font-family="Segoe UI,Arial,sans-serif" font-size="28" font-weight="700" fill="#1d1d1f" text-anchor="middle">10</text>
<path d="M 76,621 L 76,635 L 775,635 L 775,621" stroke="#0b3d91" stroke-width="4" fill="none" stroke-linecap="round"/>
<text x="425.5" y="671" font-family="Segoe UI,Arial,sans-serif" font-size="24" font-weight="700" fill="#0b3d91" text-anchor="middle">7 dita = 70</text>
<path d="M 815,621 L 815,635 L 924,635 L 924,621" stroke="#1b6d3b" stroke-width="4" fill="none" stroke-linecap="round"/>
<text x="869.5" y="671" font-family="Segoe UI,Arial,sans-serif" font-size="24" font-weight="700" fill="#1b6d3b" text-anchor="middle">2 dita = 2</text>
  </g>

  <!-- Equation -->
  <rect x="280" y="820" width="440" height="64" rx="14" ry="14" fill="#f4f6fb" stroke="#0b3d91" stroke-width="2"/>
  <text x="500" y="863" font-family="Segoe UI,Arial,sans-serif" font-size="32" font-weight="800" fill="#0b3d91" text-anchor="middle">9 × 8 = 70 + 2 = 72</text>
</svg>
